<?xml version="1.0" encoding="UTF-8"?>
<svg width="64px" height="64px" viewBox="0 0 64 64" version="1.1" xmlns="http://www.w3.org/2000/svg" xmlns:xlink="http://www.w3.org/1999/xlink">
    <!-- Generator: Sketch 52.6 (67491) - http://www.bohemiancoding.com/sketch -->
    <title>0-circle</title>
    <desc>Created with Sketch.</desc>
    <g id="0-circle" stroke="none" stroke-width="1" fill="none" fill-rule="evenodd">
        <g id="icon-0-circle" transform="translate(6.000000, 6.000000)" fill="#000000" fill-rule="nonzero">
            <path d="M26,0 C11.6796875,0 0,11.6796875 0,26 C0,40.3203125 11.6796875,52 26,52 C40.3203125,52 52,40.3203125 52,26 C52,11.6796875 40.3203125,0 26,0 Z M37.4765625,26 C37.4765625,27.828125 37.171875,29.65625 36.6640625,31.1796875 C36.15625,32.8046875 35.34375,34.328125 34.328125,35.34375 C33.3125,36.359375 32.1953125,37.4765625 30.671875,38.1875 C29.3515625,39 27.828125,39.3046875 26,39.3046875 C24.171875,39.3046875 22.8515625,39 21.328125,38.1875 C19.8046875,37.4765625 18.6875,36.6640625 17.671875,35.34375 C16.65625,34.0234375 15.84375,32.8046875 15.3359375,31.1796875 C14.828125,29.65625 14.5234375,27.828125 14.5234375,26 C14.5234375,24.171875 14.828125,22.34375 15.3359375,20.8203125 C15.84375,19.1953125 16.65625,17.671875 17.671875,16.65625 C18.6875,15.3359375 19.8046875,14.5234375 21.328125,13.8125 C22.8515625,13.3046875 24.4765625,12.6953125 26,12.6953125 C27.5234375,12.6953125 29.1484375,13 30.671875,13.8125 C31.9921875,14.5234375 33.3125,15.3359375 34.328125,16.65625 C35.34375,17.9765625 36.15625,19.1953125 36.6640625,20.8203125 C37.171875,22.34375 37.4765625,24.171875 37.4765625,26 Z M29.859375,20.3125 C29.3515625,19.5 28.84375,18.9921875 28.03125,18.484375 C27.5234375,18.1796875 26.8125,17.9765625 26,17.9765625 C25.1875,17.9765625 24.4765625,18.1796875 23.6640625,18.484375 C22.8515625,18.6875 22.34375,19.5 21.8359375,20.3125 C21.53125,20.8203125 21.0234375,21.8359375 20.8203125,22.6484375 C20.515625,23.6640625 20.515625,24.6796875 20.515625,26 C20.515625,27.015625 20.8203125,28.3359375 21.0234375,29.1484375 C21.328125,30.1640625 21.53125,30.9765625 22.140625,31.6875 C22.6484375,32.5 23.15625,33.0078125 23.96875,33.515625 C24.6796875,34.0234375 25.4921875,34.0234375 26.3046875,34.0234375 C27.015625,34.0234375 27.828125,33.8203125 28.640625,33.515625 C29.3515625,33.3125 29.859375,32.5 30.46875,31.9921875 C30.9765625,31.1796875 31.1796875,30.46875 31.484375,29.3515625 C31.6875,28.3359375 31.6875,27.3203125 31.6875,26.3046875 C31.6875,25.1875 31.484375,23.96875 31.1796875,23.15625 C30.9765625,21.8359375 30.46875,21.0234375 29.859375,20.3125 Z" id="Shape"></path>
        </g>
    </g>
</svg>