<?xml version="1.0" encoding="UTF-8"?>
<svg width="64px" height="64px" viewBox="0 0 64 64" version="1.1" xmlns="http://www.w3.org/2000/svg" xmlns:xlink="http://www.w3.org/1999/xlink">
    <!-- Generator: Sketch 52.6 (67491) - http://www.bohemiancoding.com/sketch -->
    <title>0</title>
    <desc>Created with Sketch.</desc>
    <g id="0" stroke="none" stroke-width="1" fill="none" fill-rule="evenodd">
        <g id="icon-0" transform="translate(10.000000, 6.000000)" fill="#000000" fill-rule="nonzero">
            <path d="M22,52 C18.5754717,52 15.6698113,51.4820717 12.9716981,50.1354582 C10.2735849,48.7888446 7.88679245,46.9243028 6.01886792,44.5418327 C4.1509434,42.1593625 2.59433962,39.5697211 1.55660377,36.3585657 C0.518867925,33.1474104 0,29.7290837 0,26.310757 L0,26 C0,22.2709163 0.518867925,19.059761 1.55660377,15.9521912 C2.59433962,12.7410359 4.1509434,10.0478088 6.01886792,7.66533865 C7.88679245,5.28286853 10.0660377,3.41832669 12.9716981,2.1752988 C15.6698113,0.828685259 18.7830189,0 22,0 C25.2169811,0 28.3301887,0.517928287 31.0283019,1.86454183 C33.7264151,3.21115538 36.1132075,5.07569721 37.9811321,7.45816733 C39.8490566,9.84063745 41.4056604,12.4302789 42.4433962,15.6414343 C43.4811321,18.8525896 44,22.2709163 44,25.689243 L44,26 C44,29.7290837 43.4811321,32.940239 42.4433962,36.0478088 C41.4056604,39.2589641 39.8490566,41.9521912 37.9811321,44.3346614 C36.1132075,46.7171315 33.7264151,48.5816733 30.7169811,49.8247012 C28.3301887,51.1713147 25.2169811,52 22,52 Z M22,41.9521912 C23.5566038,41.9521912 25.2169811,41.6414343 26.5660377,40.812749 C27.8113208,40.0876494 28.9528302,38.9482072 29.990566,37.7051793 C31.0283019,36.3585657 31.5471698,34.4940239 32.0660377,32.6294821 C32.5849057,30.7649402 32.8962264,28.6932271 32.8962264,26.310757 L32.8962264,26 C32.8962264,23.6175299 32.5849057,21.4422311 32.0660377,19.6812749 C31.5471698,17.8167331 30.7169811,15.9521912 29.6792453,14.6055777 C28.6415094,13.2589641 27.6037736,11.9123506 26.254717,11.187251 C24.9056604,10.3585657 23.5566038,10.0478088 22,10.0478088 C20.1320755,10.0478088 18.7830189,10.3585657 17.4339623,11.187251 C16.1886792,11.9123506 14.8396226,13.0517928 14.009434,14.6055777 C12.9716981,15.9521912 12.4528302,17.5059761 11.9339623,19.6812749 C11.4150943,21.4422311 11.1037736,23.6175299 11.1037736,25.689243 L11.1037736,26 C11.1037736,28.3824701 11.4150943,30.5577689 11.9339623,32.3187251 C12.4528302,34.1832669 13.2830189,36.0478088 14.009434,37.3944223 C15.0471698,38.7410359 16.1886792,39.7768924 17.4339623,40.812749 C18.7830189,41.6414343 20.4433962,41.9521912 22,41.9521912 Z" id="Shape"></path>
        </g>
    </g>
</svg>