<?xml version="1.0" encoding="UTF-8"?>
<svg width="64px" height="64px" viewBox="0 0 64 64" version="1.1" xmlns="http://www.w3.org/2000/svg" xmlns:xlink="http://www.w3.org/1999/xlink">
    <!-- Generator: Sketch 52.6 (67491) - http://www.bohemiancoding.com/sketch -->
    <title>2-circle</title>
    <desc>Created with Sketch.</desc>
    <g id="2-circle" stroke="none" stroke-width="1" fill="none" fill-rule="evenodd">
        <g id="icon-2-circle" transform="translate(6.000000, 6.000000)" fill="#000000" fill-rule="nonzero">
            <path d="M26,0 C11.6796875,0 0,11.6796875 0,26 C0,40.3203125 11.6796875,52 26,52 C40.3203125,52 52,40.3203125 52,26 C52,11.6796875 40.3203125,0 26,0 Z M35.34375,39 L16.3515625,39 L16.3515625,34.53125 L24.984375,27.5234375 C25.6953125,26.8125 26.5078125,26.3046875 27.015625,25.6953125 C27.5234375,25.1875 28.03125,24.6796875 28.3359375,24.171875 C28.640625,23.96875 28.84375,23.359375 29.1484375,22.8515625 C29.3515625,22.34375 29.3515625,21.8359375 29.3515625,21.328125 C29.3515625,20.3125 29.1484375,19.5 28.3359375,18.6875 C27.828125,18.484375 27.015625,18.1796875 26,18.1796875 C24.984375,18.1796875 23.96875,18.484375 23.359375,18.9921875 C22.8515625,19.5 21.8359375,20.3125 20.8203125,21.53125 L16.859375,18.484375 C17.46875,17.671875 18.1796875,16.859375 18.6875,16.1484375 C19.1953125,15.3359375 20.0078125,14.828125 20.8203125,14.5234375 C21.53125,14.015625 22.34375,13.8125 23.15625,13.5078125 C24.171875,13.3046875 25.1875,13 26.3046875,13 C27.5234375,13 28.84375,13.3046875 29.859375,13.5078125 C30.9765625,13.8125 31.9921875,14.3203125 32.8046875,15.03125 C33.515625,15.84375 34.0234375,16.65625 34.53125,17.671875 C35.140625,18.6875 35.140625,19.8046875 35.140625,20.8203125 C35.140625,21.8359375 34.8359375,22.8515625 34.53125,23.6640625 C34.328125,24.4765625 33.8203125,25.1875 33.3125,26 C32.8046875,26.8125 31.9921875,27.5234375 31.1796875,28.3359375 C30.46875,29.1484375 29.3515625,29.859375 28.3359375,30.671875 L24.171875,33.8203125 L35.34375,33.8203125 L35.34375,39 Z" id="Shape"></path>
        </g>
    </g>
</svg>