<?xml version="1.0" encoding="UTF-8"?>
<svg width="64px" height="64px" viewBox="0 0 64 64" version="1.1" xmlns="http://www.w3.org/2000/svg" xmlns:xlink="http://www.w3.org/1999/xlink">
    <!-- Generator: Sketch 52.6 (67491) - http://www.bohemiancoding.com/sketch -->
    <title>2</title>
    <desc>Created with Sketch.</desc>
    <g id="2" stroke="none" stroke-width="1" fill="none" fill-rule="evenodd">
        <g id="icon-2" transform="translate(13.000000, 6.000000)" fill="#000000">
            <path d="M0,43.0162602 L17.0893855,29.2764228 C18.6815642,27.902439 20.0614525,26.8455285 21.122905,25.6829268 C22.2905028,24.6260163 23.3519553,23.5691057 23.8826816,22.7235772 C24.7318436,21.6666667 24.9441341,20.8211382 25.4748603,20.0813008 C25.7932961,19.2357724 26.1117318,18.1788618 26.1117318,17.1219512 C26.1117318,14.902439 25.4748603,13.3170732 24.2011173,12.1544715 C22.8212291,11.097561 21.122905,10.5691057 19.3184358,10.5691057 C17.4078212,10.5691057 15.4972067,11.097561 13.7988827,12.1544715 C12.2067039,13.3170732 10.6145251,14.5853659 8.70391061,17.1219512 L0.74301676,10.8861789 C2.12290503,9.19512195 3.29050279,7.6097561 4.56424581,6.23577236 C5.94413408,4.86178862 7.32402235,3.80487805 8.70391061,2.95934959 C10.2960894,1.90243902 11.8882682,1.05691057 13.5865922,0.845528455 C15.4972067,0.317073171 17.4078212,0 19.849162,0 C22.5027933,0 24.9441341,0.317073171 27.1731844,1.05691057 C29.2960894,1.90243902 30.9944134,2.95934959 32.5865922,4.33333333 C34.1787709,5.70731707 35.3463687,7.29268293 36.0893855,9.19512195 C36.9385475,11.097561 37.4692737,13.3170732 37.4692737,15.7479675 L37.4692737,15.9593496 C37.4692737,18.1788618 37.2569832,20.0813008 36.6201117,21.6666667 C36.0893855,23.2520325 35.3463687,24.9430894 34.1787709,26.5284553 C33.1173184,27.902439 31.7374302,29.4878049 29.8268156,30.8617886 C28.2346369,32.2357724 26.1117318,33.8211382 23.8826816,35.7235772 L15.7094972,42.2764228 L38,42.2764228 L38,52 L0,52 L0,43.0162602 Z" id="Path"></path>
        </g>
    </g>
</svg>