<?xml version="1.0" encoding="UTF-8"?>
<svg width="64px" height="64px" viewBox="0 0 64 64" version="1.1" xmlns="http://www.w3.org/2000/svg" xmlns:xlink="http://www.w3.org/1999/xlink">
    <!-- Generator: Sketch 52.6 (67491) - http://www.bohemiancoding.com/sketch -->
    <title>3-circle</title>
    <desc>Created with Sketch.</desc>
    <g id="3-circle" stroke="none" stroke-width="1" fill="none" fill-rule="evenodd">
        <g id="icon-3-circle" transform="translate(6.000000, 6.000000)" fill="#000000" fill-rule="nonzero">
            <path d="M26,0 C11.6796875,0 0,11.6796875 0,26 C0,40.3203125 11.6796875,52 26,52 C40.3203125,52 52,40.3203125 52,26 C52,11.6796875 40.3203125,0 26,0 Z M35.140625,30.671875 C35.140625,31.9921875 34.8359375,33.0078125 34.53125,34.0234375 C34.328125,35.140625 33.515625,35.8515625 32.8046875,36.6640625 C31.9921875,37.4765625 30.9765625,37.984375 29.859375,38.4921875 C28.640625,38.6953125 27.3203125,39 26,39 C23.6640625,39 21.8359375,38.4921875 20.0078125,37.6796875 C18.484375,36.96875 17.1640625,35.8515625 15.84375,34.53125 L19.8046875,30.9765625 C20.515625,31.9921875 21.53125,32.8046875 22.6484375,33.3125 C23.6640625,33.515625 24.6796875,33.8203125 26,33.8203125 C27.015625,33.8203125 27.828125,33.515625 28.640625,33.0078125 C29.3515625,32.5 29.65625,31.6875 29.65625,30.671875 C29.65625,29.65625 29.1484375,28.84375 28.3359375,28.3359375 C27.5234375,27.828125 26.3046875,27.5234375 24.6796875,27.5234375 L22.34375,27.5234375 L21.53125,23.96875 L27.5234375,17.9765625 L17.671875,17.9765625 L17.671875,13 L34.8359375,13 L34.8359375,17.1640625 L28.3359375,23.359375 C29.1484375,23.6640625 30.1640625,23.6640625 30.9765625,24.171875 C31.6875,24.6796875 32.5,24.984375 33.0078125,25.4921875 C33.515625,26 34.0234375,26.8125 34.53125,27.5234375 C35.140625,28.3359375 35.140625,29.3515625 35.140625,30.671875 Z" id="Shape"></path>
        </g>
    </g>
</svg>