<?xml version="1.0" encoding="UTF-8"?>
<svg width="64px" height="64px" viewBox="0 0 64 64" version="1.1" xmlns="http://www.w3.org/2000/svg" xmlns:xlink="http://www.w3.org/1999/xlink">
    <!-- Generator: Sketch 52.6 (67491) - http://www.bohemiancoding.com/sketch -->
    <title>3</title>
    <desc>Created with Sketch.</desc>
    <g id="3" stroke="none" stroke-width="1" fill="none" fill-rule="evenodd">
        <g id="icon-3" transform="translate(13.000000, 6.000000)" fill="#000000">
            <path d="M19.8351648,52 C15.2417582,52 11.2747253,51.1544715 8.03846154,49.5691057 C4.8021978,47.8780488 2.19230769,45.7642276 0,43.0162602 L7.72527473,35.7235772 C9.3956044,37.6260163 11.2747253,39.2113821 13.1538462,40.3739837 C15.032967,41.4308943 17.4340659,41.9593496 19.8351648,41.9593496 C21.9230769,41.9593496 23.5934066,41.4308943 24.8461538,40.3739837 C26.2032967,39.2113821 26.7252747,37.6260163 26.7252747,35.7235772 L26.7252747,35.5121951 C26.7252747,33.2926829 25.9945055,31.7073171 24.1153846,30.6504065 C22.2362637,29.4878049 19.8351648,28.9593496 16.9120879,28.9593496 L12.6318681,28.9593496 L10.7527473,21.9837398 L22.7582418,9.72357724 L2.92307692,9.72357724 L2.92307692,0 L37.1648352,0 L37.1648352,8.45528455 L24.3241758,20.8211382 C25.9945055,21.1382114 27.7692308,21.6666667 29.4395604,22.195122 C31.0054945,22.7235772 32.6758242,23.8861789 33.7197802,24.9430894 C35.0769231,26 36.1208791,27.3739837 36.956044,29.2764228 C37.6868132,30.8617886 38,33.0813008 38,35.5121951 L38,35.7235772 C38,38.1544715 37.478022,40.3739837 36.6428571,42.4878049 C35.8076923,44.3902439 34.4505495,46.2926829 32.8846154,47.8780488 C31.3186813,49.5691057 29.4395604,50.6260163 27.0384615,51.4715447 C25.1593407,51.6829268 22.4450549,52 19.8351648,52 Z" id="Path"></path>
        </g>
    </g>
</svg>