<?xml version="1.0" encoding="UTF-8"?>
<svg width="64px" height="64px" viewBox="0 0 64 64" version="1.1" xmlns="http://www.w3.org/2000/svg" xmlns:xlink="http://www.w3.org/1999/xlink">
    <!-- Generator: Sketch 52.6 (67491) - http://www.bohemiancoding.com/sketch -->
    <title>4-circle</title>
    <desc>Created with Sketch.</desc>
    <g id="4-circle" stroke="none" stroke-width="1" fill="none" fill-rule="evenodd">
        <g id="icon-4-circle" transform="translate(6.000000, 6.000000)" fill="#000000" fill-rule="nonzero">
            <path d="M27.828125,28.84375 L27.828125,20.8203125 L21.0234375,28.84375 L27.828125,28.84375 Z M26,0 C11.6796875,0 0,11.6796875 0,26 C0,40.3203125 11.6796875,52 26,52 C40.3203125,52 52,40.3203125 52,26 C52,11.6796875 40.3203125,0 26,0 Z M36.6640625,33.3125 L33.3125,33.3125 L33.3125,38.6953125 L27.828125,38.6953125 L27.828125,33.3125 L15.640625,33.3125 L14.828125,29.3515625 L28.640625,13.3046875 L33.3125,13.3046875 L33.3125,28.84375 L36.6640625,28.84375 L36.6640625,33.3125 Z" id="Shape"></path>
        </g>
    </g>
</svg>