<?xml version="1.0" encoding="UTF-8"?>
<svg width="64px" height="64px" viewBox="0 0 64 64" version="1.1" xmlns="http://www.w3.org/2000/svg" xmlns:xlink="http://www.w3.org/1999/xlink">
    <!-- Generator: Sketch 52.6 (67491) - http://www.bohemiancoding.com/sketch -->
    <title>5-circle</title>
    <desc>Created with Sketch.</desc>
    <g id="5-circle" stroke="none" stroke-width="1" fill="none" fill-rule="evenodd">
        <g id="icon-5-circle" transform="translate(6.000000, 6.000000)" fill="#000000" fill-rule="nonzero">
            <path d="M26,0 C11.6796875,0 0,11.6796875 0,26 C0,40.3203125 11.6796875,52 26,52 C40.3203125,52 52,40.3203125 52,26 C52,11.6796875 40.3203125,0 26,0 Z M35.34375,30.1640625 C35.34375,31.484375 35.140625,32.8046875 34.53125,33.8203125 C34.0234375,34.8359375 33.515625,35.8515625 32.5,36.6640625 C31.484375,37.4765625 30.671875,37.984375 29.3515625,38.4921875 C28.03125,39 26.8125,39 25.4921875,39 C23.359375,39 21.53125,38.6953125 20.0078125,37.984375 C18.484375,37.171875 17.1640625,36.359375 15.84375,35.140625 L19.5,31.1796875 C20.515625,31.9921875 21.328125,32.8046875 22.34375,33.3125 C23.359375,33.515625 24.4765625,33.8203125 25.4921875,33.8203125 C26.8125,33.8203125 27.828125,33.515625 28.640625,32.8046875 C29.3515625,32.1953125 29.65625,31.1796875 29.65625,30.1640625 C29.65625,29.1484375 29.1484375,28.03125 28.3359375,27.5234375 C27.5234375,27.015625 26.5078125,26.5078125 24.984375,26.5078125 C24.171875,26.5078125 23.359375,26.5078125 22.6484375,26.8125 C21.8359375,27.015625 21.328125,27.3203125 20.515625,27.5234375 L17.671875,25.4921875 L18.484375,13 L34.0234375,13 L34.0234375,17.9765625 L23.359375,17.9765625 L23.15625,22.34375 C23.6640625,22.34375 24.171875,22.140625 24.6796875,22.140625 C25.1875,22.140625 25.6953125,22.140625 26.5078125,22.140625 C27.828125,22.140625 28.84375,22.34375 29.859375,22.6484375 C30.9765625,22.8515625 31.9921875,23.359375 32.8046875,24.171875 C33.515625,24.984375 34.328125,25.6953125 34.53125,26.8125 C35.140625,27.5234375 35.34375,28.640625 35.34375,30.1640625 Z" id="Shape"></path>
        </g>
    </g>
</svg>