<?xml version="1.0" encoding="UTF-8"?>
<svg width="64px" height="64px" viewBox="0 0 64 64" version="1.1" xmlns="http://www.w3.org/2000/svg" xmlns:xlink="http://www.w3.org/1999/xlink">
    <!-- Generator: Sketch 52.6 (67491) - http://www.bohemiancoding.com/sketch -->
    <title>5</title>
    <desc>Created with Sketch.</desc>
    <g id="5" stroke="none" stroke-width="1" fill="none" fill-rule="evenodd">
        <g id="icon-5" transform="translate(12.000000, 6.000000)" fill="#000000">
            <path d="M19.7814208,52 C15.6284153,52 11.6939891,51.1544715 8.63387978,49.7804878 C5.57377049,48.4065041 2.5136612,46.6097561 0,44.1788618 L6.99453552,36.0406504 C8.96174863,37.6260163 10.9289617,39.2113821 13.1147541,40.0569106 C15.0819672,41.1138211 17.2677596,41.4308943 19.5628415,41.4308943 C22.295082,41.4308943 24.2622951,40.902439 26.010929,39.5284553 C27.6502732,38.1544715 28.5245902,36.5691057 28.5245902,34.1382114 L28.5245902,33.8211382 C28.5245902,31.7073171 27.6502732,30.0162602 26.010929,28.7479675 C24.2622951,27.3739837 22.0765027,26.8455285 19.2349727,26.8455285 C17.5956284,26.8455285 15.9562842,27.0569106 14.5355191,27.3739837 C13.1147541,27.5853659 11.6939891,28.1138211 10.273224,28.7479675 L3.60655738,25.1544715 L5.0273224,0 L37.4863388,0 L37.4863388,9.72357724 L15.0819672,9.72357724 L14.5355191,18.7073171 C15.6284153,18.3902439 16.7213115,18.1788618 17.5956284,18.1788618 C18.4699454,18.1788618 20.1092896,17.8617886 21.5300546,17.8617886 C24.0437158,17.8617886 26.557377,18.1788618 28.7431694,18.9186992 C31.0382514,19.5528455 33.0054645,20.6097561 34.6448087,21.9837398 C36.284153,23.2520325 37.704918,24.9430894 38.579235,27.0569106 C39.4535519,29.2764228 40,31.7073171 40,34.3495935 L40,34.6666667 C40,37.4146341 39.4535519,39.8455285 38.579235,41.9593496 C37.704918,44.1788618 36.284153,45.9756098 34.4262295,47.3495935 C32.6775956,49.0406504 30.4918033,50.097561 27.9781421,50.9430894 C25.4644809,51.6829268 22.9508197,52 19.7814208,52 Z" id="Path"></path>
        </g>
    </g>
</svg>