<?xml version="1.0" encoding="UTF-8"?>
<svg width="64px" height="64px" viewBox="0 0 64 64" version="1.1" xmlns="http://www.w3.org/2000/svg" xmlns:xlink="http://www.w3.org/1999/xlink">
    <!-- Generator: Sketch 52.6 (67491) - http://www.bohemiancoding.com/sketch -->
    <title>6-circle</title>
    <desc>Created with Sketch.</desc>
    <g id="6-circle" stroke="none" stroke-width="1" fill="none" fill-rule="evenodd">
        <g id="icon-6-circle" transform="translate(6.000000, 6.000000)" fill="#000000" fill-rule="nonzero">
            <path d="M26,26.8125 C24.6796875,26.8125 23.6640625,27.015625 22.8515625,27.828125 C22.140625,28.640625 21.8359375,29.3515625 21.8359375,30.46875 C21.8359375,31.484375 22.34375,32.5 23.15625,33.0078125 C23.96875,33.8203125 24.984375,34.0234375 26.5078125,34.0234375 C28.03125,34.0234375 28.84375,33.8203125 29.65625,33.0078125 C30.46875,32.1953125 30.671875,31.484375 30.671875,30.46875 C30.671875,29.3515625 30.1640625,28.3359375 29.3515625,27.828125 C28.640625,27.3203125 27.3203125,26.8125 26,26.8125 Z M26,0 C11.6796875,0 0,11.6796875 0,26 C0,40.3203125 11.6796875,52 26,52 C40.3203125,52 52,40.3203125 52,26 C52,11.6796875 40.3203125,0 26,0 Z M35.8515625,30.46875 C35.8515625,31.6875 35.6484375,33.0078125 35.140625,34.0234375 C34.53125,35.140625 33.8203125,36.15625 33.0078125,36.96875 C32.1953125,37.6796875 31.1796875,38.1875 29.859375,38.6953125 C28.640625,39.3046875 27.3203125,39.3046875 26,39.3046875 C24.4765625,39.3046875 22.8515625,39 21.8359375,38.4921875 C20.8203125,37.984375 19.8046875,37.4765625 18.9921875,36.359375 C17.9765625,35.34375 17.46875,34.328125 16.859375,32.8046875 C16.3515625,31.1796875 16.1484375,29.3515625 16.1484375,26.8125 C16.1484375,24.6796875 16.3515625,22.8515625 16.859375,21.328125 C17.46875,19.5 17.9765625,18.1796875 18.9921875,16.859375 C19.5,15.640625 20.8203125,14.5234375 22.140625,13.8125 C23.359375,13 25.1875,12.6953125 27.015625,12.6953125 C27.828125,12.6953125 28.640625,12.6953125 29.3515625,13 C30.1640625,13 30.671875,13.3046875 31.484375,13.5078125 C31.9921875,13.8125 32.8046875,14.015625 33.3125,14.3203125 C33.8203125,14.5234375 34.328125,15.03125 35.140625,15.640625 L32.1953125,20.0078125 C31.6875,19.8046875 31.484375,19.5 30.9765625,19.1953125 C30.46875,18.9921875 30.1640625,18.6875 29.65625,18.6875 C29.3515625,18.1796875 28.84375,18.1796875 28.3359375,17.9765625 C27.828125,17.671875 27.3203125,17.671875 26.8125,17.671875 C26,17.671875 25.1875,17.9765625 24.6796875,18.1796875 C24.171875,18.6875 23.6640625,18.9921875 23.359375,19.5 C22.8515625,20.0078125 22.6484375,20.8203125 22.34375,21.53125 C22.140625,22.34375 21.8359375,22.8515625 21.8359375,23.96875 C22.34375,23.359375 23.15625,23.15625 23.96875,22.6484375 C24.6796875,22.140625 25.6953125,22.140625 27.015625,22.140625 C28.3359375,22.140625 29.3515625,22.34375 30.671875,22.6484375 C31.9921875,22.8515625 32.8046875,23.359375 33.515625,24.171875 C34.328125,24.984375 34.8359375,25.6953125 35.34375,26.8125 C35.8515625,27.828125 35.8515625,28.84375 35.8515625,30.46875 Z" id="Shape"></path>
        </g>
    </g>
</svg>