<?xml version="1.0" encoding="UTF-8"?>
<svg width="64px" height="64px" viewBox="0 0 64 64" version="1.1" xmlns="http://www.w3.org/2000/svg" xmlns:xlink="http://www.w3.org/1999/xlink">
    <!-- Generator: Sketch 52.6 (67491) - http://www.bohemiancoding.com/sketch -->
    <title>6</title>
    <desc>Created with Sketch.</desc>
    <g id="6" stroke="none" stroke-width="1" fill="none" fill-rule="evenodd">
        <g id="icon-6" transform="translate(13.000000, 6.000000)" fill="#000000" fill-rule="nonzero">
            <path d="M19.648294,52 C16.5564304,52 13.7637795,51.4820717 11.4698163,50.6533865 C9.17585302,49.8247012 7.38057743,48.5816733 5.58530184,46.7171315 C3.79002625,44.8525896 2.59317585,42.4701195 1.49606299,39.5697211 C0.498687664,36.5657371 0,32.6294821 0,27.5537849 L0,27.3466135 C0,23.3067729 0.498687664,19.8884462 1.29658793,16.4701195 C1.99475066,13.0517928 3.29133858,10.3585657 5.08661417,7.66533865 C6.88188976,5.07569721 9.17585302,3.72908367 11.9685039,2.1752988 C14.5616798,0.828685259 17.8530184,0 21.4435696,0 C22.9396325,0 24.5354331,0 26.0314961,0.310756972 C27.5275591,0.517928287 28.6246719,0.828685259 29.9212598,1.34661355 C31.1181102,1.86454183 32.2152231,2.38247012 33.4120735,3.21115538 C34.5091864,4.03984064 35.7060367,4.55776892 36.8031496,5.5936255 L31.1181102,14.0876494 C30.1207349,13.5697211 29.3228346,12.7410359 28.6246719,12.4302789 C27.8267717,11.9123506 27.0288714,11.7051793 26.3307087,11.187251 C25.5328084,10.6693227 24.7349081,10.6693227 23.7375328,10.3585657 C22.9396325,10.0478088 21.9422572,10.0478088 20.9448819,10.0478088 C19.4488189,10.0478088 18.152231,10.3585657 16.855643,10.876494 C15.8582677,11.3944223 14.7611549,12.4302789 14.0629921,13.2589641 C13.2650919,14.2948207 12.7664042,15.6414343 12.2677165,16.9880478 C11.7690289,18.3346614 11.4698163,20.1992032 11.2703412,21.752988 C12.4671916,20.9243028 13.7637795,20.1992032 15.3595801,19.6812749 C16.855643,18.8525896 18.8503937,18.5418327 21.144357,18.5418327 C23.5380577,18.5418327 25.832021,18.8525896 27.8267717,19.6812749 C29.9212598,20.4063745 31.6167979,21.2350598 33.2125984,22.5816733 C34.7086614,23.9282869 36.0052493,25.4820717 36.8031496,27.5537849 C37.5013123,29.4183267 38,31.8007968 38,34.4940239 L38,34.7011952 C38,37.3944223 37.5013123,39.7768924 36.503937,41.9521912 C35.5065617,44.0239044 34.5091864,45.5776892 32.9133858,47.2350598 C31.4173228,48.7888446 29.3228346,49.8247012 27.0288714,50.6533865 C24.7349081,51.4820717 22.4409449,52 19.648294,52 Z M19.4488189,42.4701195 C21.9422572,42.4701195 24.0367454,41.6414343 25.5328084,40.2948207 C27.0288714,38.9482072 27.8267717,37.187251 27.8267717,35.0119522 L27.8267717,34.7011952 C27.8267717,32.6294821 27.0288714,30.7649402 25.5328084,29.4183267 C24.0367454,28.0717131 21.9422572,27.3466135 19.4488189,27.3466135 C16.855643,27.3466135 14.7611549,28.0717131 13.2650919,29.4183267 C11.7690289,30.7649402 10.9711286,32.6294821 10.9711286,34.7011952 L10.9711286,35.0119522 C10.9711286,37.187251 11.7690289,38.9482072 13.2650919,40.2948207 C14.7611549,41.6414343 16.855643,42.4701195 19.4488189,42.4701195 Z" id="Shape"></path>
        </g>
    </g>
</svg>