<?xml version="1.0" encoding="UTF-8"?>
<svg width="64px" height="64px" viewBox="0 0 64 64" version="1.1" xmlns="http://www.w3.org/2000/svg" xmlns:xlink="http://www.w3.org/1999/xlink">
    <!-- Generator: Sketch 52.6 (67491) - http://www.bohemiancoding.com/sketch -->
    <title>8-circle</title>
    <desc>Created with Sketch.</desc>
    <g id="8-circle" stroke="none" stroke-width="1" fill="none" fill-rule="evenodd">
        <g id="icon-8-circle" transform="translate(6.000000, 6.000000)" fill="#000000" fill-rule="nonzero">
            <path d="M26,23.6640625 C27.015625,23.6640625 28.03125,23.359375 28.640625,22.8515625 C29.3515625,22.34375 29.65625,21.53125 29.65625,20.515625 C29.65625,19.8046875 29.3515625,18.9921875 28.640625,18.484375 C28.03125,17.9765625 27.015625,17.46875 26,17.46875 C24.984375,17.46875 23.96875,17.671875 23.359375,18.1796875 C22.8515625,18.6875 22.34375,19.8046875 22.34375,20.515625 C22.34375,21.328125 22.6484375,22.140625 23.359375,22.8515625 C23.96875,23.359375 24.984375,23.6640625 26,23.6640625 Z M29.1484375,28.84375 C28.3359375,28.3359375 27.3203125,28.03125 26,28.03125 C24.6796875,28.03125 23.6640625,28.3359375 22.8515625,28.84375 C22.140625,29.3515625 21.53125,30.1640625 21.53125,31.1796875 C21.53125,31.9921875 21.8359375,32.8046875 22.6484375,33.515625 C23.359375,34.328125 24.4765625,34.53125 25.6953125,34.53125 C27.015625,34.53125 28.03125,34.328125 28.84375,33.8203125 C29.65625,33.3125 29.859375,32.5 29.859375,31.484375 C30.46875,30.1640625 29.859375,29.3515625 29.1484375,28.84375 Z M26,0 C11.6796875,0 0,11.6796875 0,26 C0,40.3203125 11.6796875,52 26,52 C40.3203125,52 52,40.3203125 52,26 C52,11.6796875 40.3203125,0 26,0 Z M35.8515625,31.6875 C35.8515625,33.0078125 35.6484375,34.0234375 35.140625,34.8359375 C34.53125,35.8515625 33.8203125,36.6640625 33.0078125,37.171875 C32.1953125,37.6796875 31.1796875,38.1875 29.859375,38.6953125 C28.640625,39.3046875 27.3203125,39 26,39 C24.6796875,39 23.359375,39 22.140625,38.4921875 C20.8203125,38.1875 19.8046875,37.6796875 18.9921875,36.96875 C18.1796875,36.359375 17.46875,35.6484375 16.859375,34.8359375 C16.3515625,34.0234375 16.1484375,33.0078125 16.1484375,31.6875 C16.1484375,30.1640625 16.3515625,28.84375 17.1640625,28.03125 C17.9765625,27.3203125 18.9921875,26.3046875 20.3125,25.6953125 C19.1953125,24.984375 18.484375,24.171875 17.9765625,23.359375 C17.46875,22.34375 17.1640625,21.328125 17.1640625,20.0078125 C17.1640625,18.9921875 17.46875,18.1796875 17.671875,17.46875 C18.1796875,16.3515625 18.6875,15.640625 19.5,14.828125 C20.3125,14.3203125 21.328125,13.8125 22.34375,13.3046875 C23.359375,13 24.6796875,13 26,13 C27.3203125,13 28.640625,13.3046875 29.65625,13.5078125 C30.671875,13.8125 31.6875,14.3203125 32.5,15.03125 C33.3125,15.84375 33.8203125,16.3515625 34.328125,17.46875 C34.8359375,18.1796875 34.8359375,19.1953125 34.8359375,20.3125 C34.8359375,21.53125 34.53125,22.8515625 34.0234375,23.6640625 C33.515625,24.4765625 32.8046875,25.1875 31.6875,25.6953125 C33.0078125,26.5078125 34.0234375,27.3203125 34.8359375,28.03125 C35.34375,28.84375 35.8515625,29.859375 35.8515625,31.6875 Z" id="Shape"></path>
        </g>
    </g>
</svg>