<?xml version="1.0" encoding="UTF-8"?>
<svg width="64px" height="64px" viewBox="0 0 64 64" version="1.1" xmlns="http://www.w3.org/2000/svg" xmlns:xlink="http://www.w3.org/1999/xlink">
    <!-- Generator: Sketch 52.6 (67491) - http://www.bohemiancoding.com/sketch -->
    <title>8</title>
    <desc>Created with Sketch.</desc>
    <g id="8" stroke="none" stroke-width="1" fill="none" fill-rule="evenodd">
        <g id="icon-8" transform="translate(12.000000, 6.000000)" fill="#000000" fill-rule="nonzero">
            <path d="M20.1617251,52 C17.3584906,52 14.6630728,51.7903226 12.1832884,50.9516129 C9.70350404,50.1129032 7.4393531,49.3790323 5.82210243,48.016129 C4.20485175,46.6532258 2.47978437,45.2903226 1.61725067,43.4032258 C0.862533693,41.516129 0,39.733871 0,37.5322581 L0,37.3225806 C0,34.0725806 0.862533693,31.6612903 2.26415094,29.7741935 C3.55795148,27.8870968 5.82210243,26.3145161 8.51752022,24.9516129 C6.36118598,23.9032258 4.74393531,22.5403226 3.55795148,20.6532258 C2.47978437,18.9758065 1.94070081,16.5645161 1.94070081,13.9435484 C1.94070081,12.0564516 2.47978437,10.1693548 3.34231806,8.59677419 C4.20485175,6.91935484 5.49865229,5.34677419 7.22371968,4.2983871 C8.51752022,2.62096774 10.458221,1.88709677 12.722372,1.0483871 C14.8787062,0.209677419 17.3584906,0 20.1617251,0 C22.9649596,0 25.4447439,0.209677419 27.6010782,1.0483871 C29.8652291,1.88709677 31.8059299,2.62096774 33.4231806,3.98387097 C35.0404313,5.34677419 36.1185984,6.70967742 36.9811321,8.28225806 C37.8436658,9.85483871 38.3827493,11.7419355 38.3827493,13.6290323 L38.3827493,13.9435484 C38.3827493,16.5645161 37.8436658,18.9758065 36.7654987,20.6532258 C35.5795148,22.2258065 33.9622642,23.9032258 31.8059299,24.9516129 C34.5013477,26.3145161 36.4420485,27.8870968 37.8436658,29.7741935 C39.245283,31.6612903 40,34.0725806 40,37.0080645 L40,37.3225806 C40,39.733871 39.4609164,41.8306452 38.3827493,43.4032258 C37.3045822,45.0806452 35.902965,46.9677419 34.2857143,48.016129 C32.5606469,49.3790323 30.4043127,50.1129032 27.9245283,50.9516129 C25.4447439,51.7903226 22.9649596,52 20.1617251,52 Z M20.1617251,42.8790323 C22.9649596,42.8790323 25.1212938,42.3548387 26.7385445,40.9919355 C28.4636119,39.9435484 29.2183288,38.3709677 29.2183288,36.483871 L29.2183288,36.1693548 C29.2183288,34.2822581 28.4636119,32.7096774 26.7385445,31.6612903 C25.1212938,30.6129032 22.9649596,29.983871 20.4851752,29.983871 C18.0053908,29.983871 15.7412399,30.6129032 14.1239892,31.6612903 C12.3989218,32.7096774 11.6442049,34.2822581 11.6442049,36.1693548 L11.6442049,36.483871 C11.6442049,38.0564516 12.3989218,39.733871 14.1239892,40.9919355 C15.2021563,42.3548387 17.3584906,42.8790323 20.1617251,42.8790323 Z M20.1617251,21.3870968 C22.3180593,21.3870968 24.2587601,20.8629032 25.6603774,19.8145161 C27.0619946,18.766129 27.6010782,17.1935484 27.6010782,15.516129 L27.6010782,14.9919355 C27.6010782,13.4193548 27.0619946,12.0564516 25.6603774,11.0080645 C24.2587601,9.85483871 22.6415094,9.12096774 20.1617251,9.12096774 C17.6819407,9.12096774 16.06469,9.64516129 14.6630728,11.0080645 C13.2614555,12.0564516 12.722372,13.4193548 12.722372,14.9919355 L12.722372,15.3064516 C12.722372,17.1935484 13.2614555,18.4516129 14.6630728,19.8145161 C16.06469,21.1774194 18.0053908,21.3870968 20.1617251,21.3870968 Z" id="Shape"></path>
        </g>
    </g>
</svg>