<?xml version="1.0" encoding="UTF-8"?>
<svg width="64px" height="64px" viewBox="0 0 64 64" version="1.1" xmlns="http://www.w3.org/2000/svg" xmlns:xlink="http://www.w3.org/1999/xlink">
    <!-- Generator: Sketch 52.6 (67491) - http://www.bohemiancoding.com/sketch -->
    <title>9-circle</title>
    <desc>Created with Sketch.</desc>
    <g id="9-circle" stroke="none" stroke-width="1" fill="none" fill-rule="evenodd">
        <g id="icon-9-circle" transform="translate(6.000000, 6.000000)" fill="#000000" fill-rule="nonzero">
            <path d="M26,17.671875 C24.4765625,17.671875 23.359375,17.9765625 22.6484375,18.6875 C21.8359375,19.5 21.53125,20.3125 21.53125,21.53125 C21.53125,22.6484375 22.140625,23.6640625 22.8515625,24.4765625 C23.359375,24.984375 24.6796875,25.4921875 26,25.4921875 C27.3203125,25.4921875 28.3359375,25.1875 29.1484375,24.4765625 C29.859375,23.6640625 30.1640625,22.8515625 30.1640625,21.8359375 C30.1640625,20.8203125 29.65625,19.8046875 28.84375,18.9921875 C28.3359375,17.9765625 27.3203125,17.671875 26,17.671875 Z M26,0 C11.6796875,0 0,11.6796875 0,26 C0,40.3203125 11.6796875,52 26,52 C40.3203125,52 52,40.3203125 52,26 C52,11.6796875 40.3203125,0 26,0 Z M36.15625,25.1875 C36.15625,27.3203125 35.8515625,29.1484375 35.34375,30.9765625 C34.8359375,32.8046875 34.0234375,34.0234375 33.3125,35.34375 C32.5,36.6640625 31.1796875,37.4765625 29.859375,38.1875 C28.640625,39 27.015625,39.3046875 25.1875,39.3046875 C23.359375,39.3046875 21.8359375,39 20.515625,38.4921875 C19.1953125,37.984375 17.9765625,37.171875 16.859375,36.359375 L19.8046875,32.1953125 C20.8203125,33.0078125 21.53125,33.515625 22.34375,33.8203125 C23.15625,34.0234375 24.171875,34.328125 25.1875,34.328125 C26.8125,34.328125 28.03125,33.8203125 28.84375,32.8046875 C29.65625,31.6875 30.1640625,30.1640625 30.46875,28.640625 C29.859375,29.1484375 29.1484375,29.65625 28.03125,29.859375 C27.015625,30.1640625 26.3046875,30.46875 25.1875,30.46875 C23.96875,30.46875 22.6484375,30.1640625 21.53125,29.859375 C20.515625,29.65625 19.5,28.84375 18.6875,28.3359375 C17.9765625,27.5234375 17.46875,26.8125 16.859375,25.6953125 C16.1484375,24.171875 16.1484375,23.15625 16.1484375,21.8359375 C16.1484375,20.515625 16.3515625,19.1953125 16.859375,18.1796875 C17.46875,17.1640625 17.9765625,16.1484375 18.9921875,15.3359375 C19.8046875,14.5234375 20.8203125,14.015625 22.140625,13.5078125 C23.359375,13 24.6796875,12.6953125 26,12.6953125 C26.8125,12.6953125 27.5234375,12.6953125 28.3359375,13 C29.1484375,13 29.65625,13.3046875 30.1640625,13.5078125 C30.671875,13.8125 31.1796875,14.015625 31.6875,14.3203125 C32.1953125,14.5234375 32.8046875,15.03125 33.3125,15.640625 C33.8203125,16.1484375 34.0234375,16.65625 34.53125,17.1640625 C34.8359375,17.671875 35.34375,18.484375 35.6484375,19.1953125 C35.8515625,20.0078125 36.15625,20.8203125 36.15625,21.8359375 C35.8515625,22.8515625 36.15625,23.96875 36.15625,25.1875 Z" id="Shape"></path>
        </g>
    </g>
</svg>