<?xml version="1.0" encoding="UTF-8"?>
<svg width="64px" height="64px" viewBox="0 0 64 64" version="1.1" xmlns="http://www.w3.org/2000/svg" xmlns:xlink="http://www.w3.org/1999/xlink">
    <!-- Generator: Sketch 52.6 (67491) - http://www.bohemiancoding.com/sketch -->
    <title>9</title>
    <desc>Created with Sketch.</desc>
    <g id="9" stroke="none" stroke-width="1" fill="none" fill-rule="evenodd">
        <g id="icon-9" transform="translate(13.000000, 6.000000)" fill="#000000" fill-rule="nonzero">
            <path d="M17.1548556,52 C13.5643045,52 10.4724409,51.4820717 8.17847769,50.4462151 C5.58530184,49.3067729 3.29133858,47.9601594 1.29658793,46.1992032 L6.88188976,37.9123506 C8.67716535,39.5697211 10.1732283,40.6055777 11.9685039,41.123506 C13.7637795,41.6414343 15.3595801,41.9521912 17.3543307,41.9521912 C20.4461942,41.9521912 22.7401575,40.812749 24.2362205,38.7410359 C25.832021,36.5657371 26.8293963,33.9760956 27.0288714,30.5577689 C25.832021,31.5936255 24.5354331,32.3187251 22.9396325,32.940239 C21.4435696,33.4581673 19.4488189,33.9760956 17.3543307,33.9760956 C14.7611549,33.9760956 12.2677165,33.6653386 10.1732283,32.940239 C8.17847769,32.1115538 6.3832021,31.0756972 4.88713911,29.7290837 C3.29133858,28.3824701 2.29396325,26.5179283 1.29658793,24.6533865 C0.498687664,22.5816733 0,20.1992032 0,17.8167331 L0,17.5059761 C0,14.812749 0.498687664,12.7410359 1.29658793,10.6693227 C1.99475066,8.4940239 3.29133858,6.62948207 5.08661417,5.07569721 C6.6824147,3.41832669 8.67716535,2.38247012 10.9711286,1.34661355 C13.2650919,0.517928287 15.8582677,0 18.351706,0 C19.9475066,0 21.4435696,0 22.7401575,0.310756972 C24.0367454,0.517928287 25.2335958,0.828685259 26.3307087,1.34661355 C27.328084,1.86454183 28.3254593,2.38247012 29.3228346,2.90039841 C30.4199475,3.72908367 31.1181102,4.55776892 32.2152231,5.28286853 C32.9133858,6.11155378 33.7112861,7.14741036 34.5091864,8.4940239 C35.2073491,9.52988048 35.7060367,10.876494 36.3044619,12.4302789 C36.8031496,14.0876494 37.3018373,15.6414343 37.5013123,17.8167331 C37.8005249,19.6812749 38,22.063745 38,24.4462151 L38,24.6533865 C38,28.6932271 37.5013123,32.3187251 36.8031496,35.8406375 C35.7060367,39.2589641 34.5091864,42.1593625 32.7139108,44.5418327 C30.9186352,46.9243028 28.6246719,48.7888446 26.0314961,50.1354582 C23.5380577,51.1713147 20.4461942,52 17.1548556,52 Z M19.1496063,24.6533865 C21.7427822,24.6533865 23.7375328,23.9282869 25.2335958,22.5816733 C26.8293963,21.2350598 27.5275591,19.3705179 27.5275591,17.2988048 C27.5275591,15.123506 26.8293963,13.2589641 25.2335958,11.7051793 C23.7375328,10.3585657 21.7427822,9.52988048 18.8503937,9.52988048 C16.3569554,9.52988048 14.2624672,10.3585657 12.7664042,11.7051793 C11.2703412,13.0517928 10.7716535,14.812749 10.7716535,17.2988048 L10.7716535,17.5059761 C10.7716535,19.6812749 11.4698163,21.4422311 13.0656168,22.7888446 C14.2624672,24.1354582 16.3569554,24.6533865 19.1496063,24.6533865 Z" id="Shape"></path>
        </g>
    </g>
</svg>