<?xml version="1.0" encoding="UTF-8"?>
<svg width="64px" height="64px" viewBox="0 0 64 64" version="1.1" xmlns="http://www.w3.org/2000/svg" xmlns:xlink="http://www.w3.org/1999/xlink">
    <title>animal-skull</title>
    <g id="animal-skull" stroke="none" stroke-width="1" fill="none" fill-rule="evenodd">
        <path d="M50.8019175,36.4770446 C51.1321279,36.8364066 51.1425155,37.1267791 51.0593308,37.4285334 L51.0000014,37.6115948 L51.0000014,37.6115948 L50.8712811,37.9603031 C50.7308412,38.3679507 50.6381058,38.8567994 50.9840361,39.5657308 C51.2787175,40.1696353 51.7706681,40.5299004 52.2639645,40.8269541 L52.8440271,41.1646244 C53.44596,41.5225835 53.9177233,41.8956848 53.8288734,42.680329 C53.6443391,44.3099746 51.8216005,45.3204903 50.5049931,45.7996962 C49.3226622,46.2300295 48.3665125,45.8850881 47.8310326,45.3356203 L47.7409426,45.2366484 C47.5531301,45.0154625 47.3054022,44.8428225 47.02622,44.695549 C44.4987114,45.2668505 41.9683262,45.9235391 39.4350643,46.665615 C41.4864671,47.2377542 43.5604589,47.7835716 45.655732,48.3069077 L45.6411812,49.3842796 C46.0744904,49.0556315 46.4675238,48.7046695 46.6734432,48.2651199 C47.0096005,47.5475681 47.86257,46.8919471 49.18771,47.0135641 C50.5813595,47.141537 52.6017951,47.6549215 53.2069299,49.1865763 C53.4893262,49.9013486 53.1631358,50.3761036 52.7004621,50.8603911 L52.2584153,51.3071306 C51.83576,51.738689 51.4170943,52.2302395 51.2840754,52.9306636 C51.1429948,53.6735377 51.3368902,54.1176855 51.5664339,54.4694236 L51.8398405,54.8603569 C52.0500105,55.1711778 52.1760977,55.4721155 51.9187746,55.9694865 C51.3011991,57.1631768 49.5531524,58.2368415 48.5505364,57.7405742 C48.1380063,57.5363831 47.629282,57.0652041 47.1052668,56.5111296 L46.7545459,56.1314861 L46.7545459,56.1314861 L46.3275043,55.6518023 L45.710448,54.9458438 L45.2091079,54.3854075 L45.2091079,54.3854075 L44.9826453,54.1460784 L44.9826453,54.1460784 L44.8273408,53.9917723 L44.3515237,53.765628 C40.5390037,51.9733035 36.5888535,50.3541894 32.5010729,48.9082858 C28.4277802,50.3483818 24.4927525,51.9602996 20.6944255,53.7440391 L20.1703408,53.9927723 L20.0173547,54.1460784 L19.7761405,54.4014112 C19.7342505,54.4469167 19.6915646,54.4937879 19.648155,54.541861 L19.2398697,55.0025462 L18.5796754,55.7571983 L18.1247145,56.2640041 C17.5926763,56.8441024 17.064201,57.3670219 16.622651,57.6430747 L16.4494636,57.7405742 C15.4468476,58.2368415 13.6988009,57.1631768 13.0812254,55.9694865 C12.8496346,55.5218526 12.9286062,55.2333297 13.0999303,54.953513 L13.2254336,54.7666078 L13.3639329,54.5723791 C13.620981,54.2035279 13.8711132,53.7478251 13.7159246,52.9306636 C13.5949983,52.2939144 13.2380003,51.829788 12.8565438,51.4264276 L12.4005992,50.9644039 C11.8865679,50.4427011 11.4905026,49.9524038 11.7930701,49.1865763 C12.3982049,47.6549215 14.4186405,47.141537 15.81229,47.0135641 C17.13743,46.8919471 17.9903995,47.5475681 18.3265568,48.2651199 C18.5067363,48.6497258 18.8301749,48.9665069 19.1985025,49.2598612 L19.3588188,49.3842796 L19.344268,48.3069077 C21.4395411,47.7835716 23.5135329,47.2377542 25.5662435,46.6694554 C23.0316738,45.9235391 20.5012886,45.2668505 17.97378,44.695549 C17.7504343,44.8133678 17.5472192,44.9474212 17.3787071,45.109577 L17.2590574,45.2366484 C16.7451931,45.8418242 15.7468867,46.2553432 14.4950069,45.7996962 C13.1783995,45.3204903 11.3556609,44.3099746 11.1711266,42.680329 C11.0822767,41.8956848 11.55404,41.5225835 12.1559729,41.1646244 L12.5882022,40.9143543 C13.1289691,40.599517 13.6918143,40.2300258 14.0159639,39.5657308 C14.3618942,38.8567994 14.2691588,38.3679507 14.1287189,37.9603031 L13.9999986,37.6115948 L13.9406692,37.4285334 C13.8574845,37.1267791 13.8678721,36.8364066 14.1980825,36.4770446 C15.1094633,35.4852054 17.0845587,34.8977236 17.9257285,35.6317642 C18.2482808,35.913237 18.5704346,36.4704117 18.8873633,37.1135084 L19.097822,37.552886 L19.8139906,39.103202 L19.8139906,39.103202 L20.0028005,39.4823577 C20.2838884,40.025333 20.5551022,40.4405152 20.8123628,40.5675162 C21.0830034,40.7011225 21.2689713,40.8016553 21.3891073,40.8935574 L21.2902378,40.8585799 C24.949412,42.2000918 28.6856238,43.4602218 32.4988734,44.6389697 C35.678459,43.6566798 38.8029816,42.6178745 41.8737449,41.522554 L43.6108927,40.8935574 C43.7310287,40.8016553 43.9169966,40.7011225 44.1876372,40.5675162 C44.4448978,40.4405152 44.7161116,40.025333 44.9971995,39.4823577 L45.1860094,39.103202 L45.4741225,38.4865733 L45.902178,37.552886 L46.1126367,37.1135084 C46.4295654,36.4704117 46.7517192,35.913237 47.0742715,35.6317642 C47.9154413,34.8977236 49.8905367,35.4852054 50.8019175,36.4770446 Z M47.5476449,6 C49.6171102,11.9047363 49.3831515,17.0396269 46.8457689,21.4046719 C46.2767272,22.3835491 45.6277729,23.0239091 44.8989062,23.3257521 C45.4363833,25.4106333 45.3394492,27.4079508 44.6090283,29.317995 C43.997927,30.9160196 43.3222039,31.5401921 42.5640555,32.0775354 L42.2340363,32.3050953 L42.2340363,32.3050953 L41.8936129,32.5375396 C41.202154,33.0176567 40.4464005,33.620178 39.6151409,34.9036953 C38.8733162,36.0491192 38.6203147,37.054925 38.4652834,37.9625136 L38.3284328,38.8388965 L38.3284328,38.8388965 C38.290644,39.0792056 37.8319791,39.2744295 37.1146885,39.4232563 L36.7658582,39.4886463 L36.7658582,39.4886463 L36.7003819,39.7335285 L36.7003819,39.7335285 L36.5695002,40.1856074 C36.1987954,41.3953166 35.8291274,42 35.4594595,42 C35.0465347,42 34.63361,41.2455226 34.2206852,39.7365677 C32.9536094,39.7953167 31.5620953,39.7892857 30.3091579,39.7153037 C29.8951808,41.2387575 29.4804089,42 29.0656371,42 C28.6685221,42 28.2714072,41.3021905 27.8742923,39.9065715 L27.7419206,39.4155204 L27.7419206,39.4155204 C26.9699578,39.2537212 26.466964,39.0385402 26.4143863,38.7675171 L26.2761319,38.0740608 C26.0744429,37.1236173 25.7737573,36.0692329 25.0189061,34.9036953 C24.2024904,33.643098 23.4339654,32.9741671 22.7321065,32.4445771 L21.9937911,31.9003686 C21.2245553,31.3235672 20.5579675,30.7116513 20.0250187,29.317995 C19.364198,27.5899546 19.2978305,25.5588602 19.8259162,23.2247116 C19.1849966,22.8921115 18.6083099,22.2854142 18.0963161,21.4046719 C15.5589334,17.0396269 15.3249747,11.9047363 17.39444,6 C19.5746562,6.7786314 21.7548725,7.86011998 23.9350887,9.24446574 C25.7285622,10.3832461 27.5220357,11.7269674 29.3155092,13.2756296 L35.5510364,13.2756898 L35.6215791,13.2799448 C37.4167181,11.7294634 39.2118572,10.3843037 41.0069963,9.24446574 C43.1872125,7.86011998 45.3674287,6.7786314 47.5476449,6 Z M32.7788168,33.2217429 L32.7732991,36.5491795 C33.8090782,36.5491795 35.3735187,35.0027326 34.8448573,33.9685102 C34.5825029,33.4552653 33.6806287,33.2158189 32.7788168,33.2217429 Z M31.8625003,33.2217429 C30.9606884,33.2158189 30.0588142,33.4552653 29.7964598,33.9685102 C29.2860281,34.9670698 30.7268353,36.4431371 31.7590902,36.5437474 L31.8680181,36.5491795 L31.8625003,33.2217429 Z M36.372421,24.4969916 C35.0103433,25.2780452 34.2867445,26.8616813 34.2016247,29.2478999 C36.3248778,30.3677952 38.0675485,30.5372252 39.4296368,29.75619 C40.7917146,28.9751363 41.5153133,27.3915002 41.6004331,25.0052816 C39.47718,23.8853863 37.7345093,23.7159563 36.372421,24.4969916 Z M23.0616907,25.0052816 C23.1468105,27.3915002 23.8704092,28.9751363 25.232487,29.75619 C26.5945753,30.5372252 28.337246,30.3677952 30.4604991,29.2478999 C30.3753793,26.8616813 29.6517805,25.2780452 28.2897028,24.4969916 C26.9276145,23.7159563 25.1849438,23.8853863 23.0616907,25.0052816 Z" id="Shape" fill="#000000"></path>
    </g>
</svg>