<?xml version="1.0" encoding="UTF-8"?>
<svg width="64px" height="64px" viewBox="0 0 64 64" version="1.1" xmlns="http://www.w3.org/2000/svg" xmlns:xlink="http://www.w3.org/1999/xlink">
    <!-- Generator: Sketch 58 (84663) - https://sketch.com -->
    <title>aqs-builder</title>
    <desc>Created with Sketch.</desc>
    <g id="aqs-builder" stroke="none" stroke-width="1" fill="none" fill-rule="evenodd">
        <path d="M31.7596028,6 C45.9862386,6 57.5192056,17.532967 57.5192056,31.7596028 C57.5192056,37.0821643 55.9049288,42.0276913 53.1392603,46.1332986 L58,50.9943116 L50.9943116,58 L46.1332986,53.1392603 C42.0276913,55.9049288 37.0821643,57.5192056 31.7596028,57.5192056 C17.532967,57.5192056 6,45.9862386 6,31.7596028 C6,26.4370412 7.6142768,21.4915143 10.3799453,17.3859069 L19.0929535,26.0988747 C18.3192804,27.8274358 17.8890474,29.7432761 17.8890474,31.7596028 C17.8890474,39.420099 24.0991066,45.6301581 31.7596028,45.6301581 C33.6320928,45.6301581 35.4179217,45.2591179 37.0475774,44.5865497 L37.4208479,44.4260207 L32.078953,39.0846414 L31.9084126,38.9055272 C30.146162,36.9610835 30.2030088,33.9548971 32.078953,32.078953 C33.9548971,30.2030088 36.9610835,30.146162 38.9055272,31.9084126 L39.0846414,32.078953 L44.4260207,37.4208479 C45.1998393,35.6921518 45.6301581,33.7761305 45.6301581,31.7596028 C45.6301581,24.0991066 39.420099,17.8890474 31.7596028,17.8890474 C29.8872995,17.8890474 28.1016399,18.2600136 26.4721155,18.9324548 L26.0988747,19.0929535 L17.3859069,10.3799453 C21.4915143,7.6142768 26.4370412,6 31.7596028,6 Z" id="Path" fill="#000000"></path>
    </g>
</svg>