<?xml version="1.0" encoding="UTF-8"?>
<svg width="64px" height="64px" viewBox="0 0 64 64" version="1.1" xmlns="http://www.w3.org/2000/svg" xmlns:xlink="http://www.w3.org/1999/xlink">
    <!-- Generator: Sketch 52.6 (67491) - http://www.bohemiancoding.com/sketch -->
    <title>arrow-fullscreen</title>
    <desc>Created with Sketch.</desc>
    <g id="arrow-fullscreen" stroke="none" stroke-width="1" fill="none" fill-rule="evenodd">
        <g id="icon-arrow-fullscreen" transform="translate(6.000000, 6.000000)" fill="#000000" fill-rule="nonzero">
            <path d="M3.3515625,5.9921875 L15.84375,18.1796875 L18.1796875,15.640625 L5.9921875,3.3515625 L19.8046875,3.3515625 L19.8046875,0 L0,0 L0,19.8046875 L3.3515625,19.8046875 L3.3515625,5.9921875 Z M48.6484375,46.0078125 L36.15625,33.8203125 L33.8203125,36.359375 L46.0078125,48.6484375 L32.1953125,48.6484375 L32.1953125,52 L52,52 L52,32.1953125 L48.6484375,32.1953125 L48.6484375,46.0078125 Z M46.0078125,3.3515625 L33.8203125,15.84375 L36.359375,18.1796875 L48.6484375,5.9921875 L48.6484375,19.8046875 L52,19.8046875 L52,0 L32.1953125,0 L32.1953125,3.3515625 L46.0078125,3.3515625 Z M5.9921875,48.6484375 L18.1796875,36.15625 L15.640625,33.8203125 L3.3515625,46.0078125 L3.3515625,32.1953125 L0,32.1953125 L0,30.9765625 L0,52 L19.8046875,52 L19.8046875,48.6484375 L5.9921875,48.6484375 Z" id="Shape"></path>
        </g>
    </g>
</svg>