<?xml version="1.0" encoding="UTF-8"?>
<svg width="64px" height="64px" viewBox="0 0 64 64" version="1.1" xmlns="http://www.w3.org/2000/svg" xmlns:xlink="http://www.w3.org/1999/xlink">
    <!-- Generator: Sketch 52.6 (67491) - http://www.bohemiancoding.com/sketch -->
    <title>arrow-try-again</title>
    <desc>Created with Sketch.</desc>
    <g id="arrow-try-again" stroke="none" stroke-width="1" fill="none" fill-rule="evenodd">
        <g id="icon-arrow-try-again" transform="translate(6.000000, 9.000000)" fill="#000000" fill-rule="nonzero">
            <path d="M29.1707317,0 C17.7560976,0 8.30155211,8.63959391 6.80266075,19.7309645 L0,19.7309645 L10.0310421,32.8071066 L20.0620843,19.7309645 L13.2594235,19.7309645 C14.7583149,12.2588832 21.5609756,6.53807107 29.1707317,6.53807107 C38.0487805,6.53807107 45.4279379,14.0101523 45.4279379,23 C45.4279379,31.9898477 38.0487805,39.4619289 29.1707317,39.4619289 L29.1707317,46 C41.9689579,46 52,35.6091371 52,23 C52,10.3908629 41.9689579,0 29.1707317,0 Z M29.1707317,0 C17.7560976,0 8.30155211,8.63959391 6.80266075,19.7309645 L0,19.7309645 L10.0310421,32.8071066 L20.0620843,19.7309645 L13.2594235,19.7309645 C14.7583149,12.2588832 21.5609756,6.53807107 29.1707317,6.53807107 C38.0487805,6.53807107 45.4279379,14.0101523 45.4279379,23 C45.4279379,31.9898477 38.0487805,39.4619289 29.1707317,39.4619289 L29.1707317,46 C41.9689579,46 52,35.6091371 52,23 C52,10.3908629 41.9689579,0 29.1707317,0 Z M29.1707317,0 C17.7560976,0 8.30155211,8.63959391 6.80266075,19.7309645 L0,19.7309645 L10.0310421,32.8071066 L20.0620843,19.7309645 L13.2594235,19.7309645 C14.7583149,12.2588832 21.5609756,6.53807107 29.1707317,6.53807107 C38.0487805,6.53807107 45.4279379,14.0101523 45.4279379,23 C45.4279379,31.9898477 38.0487805,39.4619289 29.1707317,39.4619289 L29.1707317,46 C41.9689579,46 52,35.6091371 52,23 C52,10.3908629 41.9689579,0 29.1707317,0 Z M29.1707317,0 C17.7560976,0 8.30155211,8.63959391 6.80266075,19.7309645 L0,19.7309645 L10.0310421,32.8071066 L20.0620843,19.7309645 L13.2594235,19.7309645 C14.7583149,12.2588832 21.5609756,6.53807107 29.1707317,6.53807107 C38.0487805,6.53807107 45.4279379,14.0101523 45.4279379,23 C45.4279379,31.9898477 38.0487805,39.4619289 29.1707317,39.4619289 L29.1707317,46 C41.9689579,46 52,35.6091371 52,23 C52,10.3908629 41.9689579,0 29.1707317,0 Z" id="Shape"></path>
        </g>
    </g>
</svg>