<?xml version="1.0" encoding="UTF-8"?>
<svg width="64px" height="64px" viewBox="0 0 64 64" version="1.1" xmlns="http://www.w3.org/2000/svg" xmlns:xlink="http://www.w3.org/1999/xlink">
    <!-- Generator: Sketch 52.6 (67491) - http://www.bohemiancoding.com/sketch -->
    <title>arrow-retry</title>
    <desc>Created with Sketch.</desc>
    <g id="arrow-retry" stroke="none" stroke-width="1" fill="none" fill-rule="evenodd">
        <g id="icon-arrow-retry" transform="translate(10.000000, 6.000000)" fill="#000000" fill-rule="nonzero">
            <path d="M0,29.1707317 C0,17.7560976 8.26395939,8.30155211 18.8730964,6.80266075 L18.8730964,0 L31.3807107,10.0310421 L18.8730964,20.0620843 L18.8730964,13.2594235 C11.7258883,14.7583149 6.25380711,21.5609756 6.25380711,29.1707317 C6.25380711,38.0487805 13.4010152,45.4279379 22,45.4279379 C30.5989848,45.4279379 37.7461929,38.0487805 37.7461929,29.1707317 L44,29.1707317 C44,41.9689579 34.0609137,52 22,52 C9.71573604,52 0,41.9689579 0,29.1707317 Z M0,29.1707317 C0,17.7560976 8.26395939,8.30155211 18.8730964,6.80266075 L18.8730964,0 L31.3807107,10.0310421 L18.8730964,20.0620843 L18.8730964,13.2594235 C11.7258883,14.7583149 6.25380711,21.5609756 6.25380711,29.1707317 C6.25380711,38.0487805 13.4010152,45.4279379 22,45.4279379 C30.5989848,45.4279379 37.7461929,38.0487805 37.7461929,29.1707317 L44,29.1707317 C44,41.9689579 34.0609137,52 22,52 C9.71573604,52 0,41.9689579 0,29.1707317 Z M0,29.1707317 C0,17.7560976 8.26395939,8.30155211 18.8730964,6.80266075 L18.8730964,0 L31.3807107,10.0310421 L18.8730964,20.0620843 L18.8730964,13.2594235 C11.7258883,14.7583149 6.25380711,21.5609756 6.25380711,29.1707317 C6.25380711,38.0487805 13.4010152,45.4279379 22,45.4279379 C30.5989848,45.4279379 37.7461929,38.0487805 37.7461929,29.1707317 L44,29.1707317 C44,41.9689579 34.0609137,52 22,52 C9.71573604,52 0,41.9689579 0,29.1707317 Z M0,29.1707317 C0,17.7560976 8.26395939,8.30155211 18.8730964,6.80266075 L18.8730964,0 L31.3807107,10.0310421 L18.8730964,20.0620843 L18.8730964,13.2594235 C11.7258883,14.7583149 6.25380711,21.5609756 6.25380711,29.1707317 C6.25380711,38.0487805 13.4010152,45.4279379 22,45.4279379 C30.5989848,45.4279379 37.7461929,38.0487805 37.7461929,29.1707317 L44,29.1707317 C44,41.9689579 34.0609137,52 22,52 C9.71573604,52 0,41.9689579 0,29.1707317 Z M0,29.1707317 C0,17.7560976 8.26395939,8.30155211 18.8730964,6.80266075 L18.8730964,0 L31.3807107,10.0310421 L18.8730964,20.0620843 L18.8730964,13.2594235 C11.7258883,14.7583149 6.25380711,21.5609756 6.25380711,29.1707317 C6.25380711,38.0487805 13.4010152,45.4279379 22,45.4279379 C30.5989848,45.4279379 37.7461929,38.0487805 37.7461929,29.1707317 L44,29.1707317 C44,41.9689579 34.0609137,52 22,52 C9.71573604,52 0,41.9689579 0,29.1707317 Z" id="Shape"></path>
        </g>
    </g>
</svg>