<?xml version="1.0" encoding="UTF-8"?>
<svg width="64px" height="64px" viewBox="0 0 64 64" version="1.1" xmlns="http://www.w3.org/2000/svg" xmlns:xlink="http://www.w3.org/1999/xlink">
    <!-- Generator: Sketch 52.6 (67491) - http://www.bohemiancoding.com/sketch -->
    <title>arrow-maximize</title>
    <desc>Created with Sketch.</desc>
    <g id="arrow-maximize" stroke="none" stroke-width="1" fill="none" fill-rule="evenodd">
        <g id="icon-arrow-maximize" transform="translate(6.000000, 6.000000)" fill="#000000" fill-rule="nonzero">
            <path d="M4.46875,7.3125 L19.8046875,22.6484375 L22.6484375,19.5 L7.515625,4.46875 L24.6796875,4.46875 L24.6796875,0 L0,0 L0,24.6796875 L4.46875,24.6796875 L4.46875,7.3125 Z M47.8359375,27.3203125 L47.8359375,44.6875 L32.5,29.3515625 L29.3515625,32.5 L44.484375,47.53125 L27.3203125,47.53125 L27.3203125,52 L52,52 L52,27.3203125 L47.8359375,27.3203125 Z M4.46875,7.3125 L19.8046875,22.6484375 L22.6484375,19.5 L7.515625,4.46875 L24.6796875,4.46875 L24.6796875,0 L0,0 L0,24.6796875 L4.46875,24.6796875 L4.46875,7.3125 Z M47.8359375,27.3203125 L47.8359375,44.6875 L32.5,29.3515625 L29.3515625,32.5 L44.484375,47.53125 L27.3203125,47.53125 L27.3203125,52 L52,52 L52,27.3203125 L47.8359375,27.3203125 Z M4.46875,7.3125 L19.8046875,22.6484375 L22.6484375,19.5 L7.515625,4.46875 L24.6796875,4.46875 L24.6796875,0 L0,0 L0,24.6796875 L4.46875,24.6796875 L4.46875,7.3125 Z M47.8359375,27.3203125 L47.8359375,44.6875 L32.5,29.3515625 L29.3515625,32.5 L44.484375,47.53125 L27.3203125,47.53125 L27.3203125,52 L52,52 L52,27.3203125 L47.8359375,27.3203125 Z M4.46875,7.3125 L19.8046875,22.6484375 L22.6484375,19.5 L7.515625,4.46875 L24.6796875,4.46875 L24.6796875,0 L0,0 L0,24.6796875 L4.46875,24.6796875 L4.46875,7.3125 Z M47.8359375,27.3203125 L47.8359375,44.6875 L32.5,29.3515625 L29.3515625,32.5 L44.484375,47.53125 L27.3203125,47.53125 L27.3203125,52 L52,52 L52,27.3203125 L47.8359375,27.3203125 Z M4.46875,7.3125 L19.8046875,22.6484375 L22.6484375,19.5 L7.515625,4.46875 L24.6796875,4.46875 L24.6796875,0 L0,0 L0,24.6796875 L4.46875,24.6796875 L4.46875,7.3125 Z M47.8359375,27.3203125 L47.8359375,44.6875 L32.5,29.3515625 L29.3515625,32.5 L44.484375,47.53125 L27.3203125,47.53125 L27.3203125,52 L52,52 L52,27.3203125 L47.8359375,27.3203125 Z M4.46875,7.3125 L19.8046875,22.6484375 L22.6484375,19.5 L7.515625,4.46875 L24.6796875,4.46875 L24.6796875,0 L0,0 L0,24.6796875 L4.46875,24.6796875 L4.46875,7.3125 Z M47.8359375,27.3203125 L47.8359375,44.6875 L32.5,29.3515625 L29.3515625,32.5 L44.484375,47.53125 L27.3203125,47.53125 L27.3203125,52 L52,52 L52,27.3203125 L47.8359375,27.3203125 Z M4.46875,7.3125 L19.8046875,22.6484375 L22.6484375,19.5 L7.515625,4.46875 L24.6796875,4.46875 L24.6796875,0 L0,0 L0,24.6796875 L4.46875,24.6796875 L4.46875,7.3125 Z M47.8359375,27.3203125 L47.8359375,44.6875 L32.5,29.3515625 L29.3515625,32.5 L44.484375,47.53125 L27.3203125,47.53125 L27.3203125,52 L52,52 L52,27.3203125 L47.8359375,27.3203125 Z" id="Shape"></path>
        </g>
    </g>
</svg>