<?xml version="1.0" encoding="UTF-8"?>
<svg width="64px" height="64px" viewBox="0 0 64 64" version="1.1" xmlns="http://www.w3.org/2000/svg" xmlns:xlink="http://www.w3.org/1999/xlink">
    <!-- Generator: Sketch 52.6 (67491) - http://www.bohemiancoding.com/sketch -->
    <title>arrow-axis</title>
    <desc>Created with Sketch.</desc>
    <g id="arrow-axis" stroke="none" stroke-width="1" fill="none" fill-rule="evenodd">
        <g id="icon-arrow-axis" transform="translate(6.000000, 6.000000)" fill="#000000" fill-rule="nonzero">
            <path d="M17.671875,27.828125 L17.671875,24.171875 L6.8046875,24.171875 L10.6640625,20.3125 L8.328125,17.671875 L0,26 L8.328125,34.328125 L10.96875,31.9921875 L6.8046875,27.828125 L17.671875,27.828125 Z M43.671875,17.671875 L41.03125,20.3125 L45.1953125,24.4765625 L34.328125,24.4765625 L34.328125,27.828125 L45.1953125,27.828125 L41.03125,31.9921875 L43.671875,34.328125 L52,26 L43.671875,17.671875 Z M24.4765625,6.5 L24.4765625,17.671875 L27.828125,17.671875 L27.828125,6.8046875 L31.9921875,10.6640625 L34.328125,8.328125 L26,0 L17.671875,8.53125 L20.0078125,10.96875 L24.4765625,6.5 Z M27.828125,45.5 L27.828125,34.8359375 L24.171875,34.8359375 L24.171875,45.1953125 L20.0078125,41.03125 L17.671875,43.46875 L26,52 L34.328125,43.671875 L31.9921875,41.3359375 L27.828125,45.5 Z" id="Shape"></path>
        </g>
    </g>
</svg>