<?xml version="1.0" encoding="UTF-8"?>
<svg width="64px" height="64px" viewBox="0 0 64 64" version="1.1" xmlns="http://www.w3.org/2000/svg" xmlns:xlink="http://www.w3.org/1999/xlink">
    <!-- Generator: Sketch 55.1 (78136) - https://sketchapp.com -->
    <title>assisted</title>
    <desc>Created with Sketch.</desc>
    <g id="assisted" stroke="none" stroke-width="1" fill="none" fill-rule="evenodd">
        <path d="M35.6055511,18.6636862 C33.5536968,16.5740429 28.2646555,18.1529323 26.4962192,20.9831873 C24.7277829,23.8134423 21.1824571,24.8488413 19.2845832,24.0756743 C18.5253981,23.6890001 18.5253981,22.3166215 18.5253981,21.9301286 C18.5253981,20.2621703 20.0437683,17.8907004 22.7006494,15.1848876 C28.7735967,9 31.8101592,7.45376085 38.6422916,10.5462478 C41.6788542,11.7059077 45.0949204,13.2520606 48.8904902,14.4117205 C50.788364,17.8907004 55.3431189,31.033634 58,38.7647607 L57.6204964,38.7647607 C54.9634374,35.2857808 49.6496753,30.647141 44.3357353,26.3949942 C40.9196691,23.3025072 37.6574054,20.7533295 35.6055511,18.6636862 Z M28.7735967,24.0756743 C31.2177359,20.9641601 31.8103372,21.5630777 32.948848,22.5293402 C35.2262254,24.4621672 38.262788,26.7814871 41.2991727,29.4874811 C46.9926163,34.1261209 53.4452451,39.1512536 54.9634374,42.6302335 C55.7226225,44.1763863 54.9634374,45.3360463 54.5839338,45.7227204 C53.9209798,46.4504031 53.2862264,46.4504031 52.3065564,46.1092133 C51.3268863,45.7680235 42.0798172,35.5639744 41.2991727,34.8991067 C40.5185282,34.2342391 39.4014767,34.110094 38.6422916,34.8991067 C37.8831065,35.6881195 37.8831065,36.8317525 38.6422916,37.6049195 C45.2359486,43.5146015 48.778516,47.1224727 49.2699938,48.4285332 C50.0072105,50.3876239 47.511842,52.3173301 44.7152389,49.9746861 L35.2262254,40.3109136 C34.4672182,39.5377465 33.3285295,39.5379277 32.5693444,40.3109136 C31.8101592,41.0838994 31.8101592,42.2435593 32.5693444,43.0167264 C37.4622689,47.2847466 40.372271,50.2483422 41.2993506,51.9075131 C42.68997,54.3962693 38.6422916,55.5973687 37.1240993,53.84034 L29.5327818,46.1092133 C28.7737746,45.3360463 27.6350858,45.3362275 26.8759007,46.1092133 C26.1167156,46.8821991 26.1167156,48.0418591 26.8759007,48.8150261 C32.039513,52.938342 34.0638881,55 32.9490259,55 C31.2767326,55 32.1897601,55 31.8103372,55 C30.8871023,55 28.394271,54.2270142 27.2555822,53.4538471 C25.7373899,52.2941872 17.3868873,46.1092133 10.1752513,39.9244206 C9.03656258,39.1512536 7.51819233,37.2184266 6,35.6722738 C7.89769593,30.2604669 10.5547549,20.2102015 12.0729472,12.4790748 L19.6642647,12.4790748 C17.0072058,15.1848876 13.5911396,20.5966944 14.3503247,24.4621672 C14.7298283,26.00832 15.868517,27.5546541 17.7663909,27.941147 C21.9414643,29.4872999 25.737212,27.941147 28.7735967,24.0756743 Z" id="Combined-Shape" fill="#000000" fill-rule="nonzero"></path>
    </g>
</svg>