<?xml version="1.0" encoding="UTF-8"?>
<svg width="64px" height="64px" viewBox="0 0 64 64" version="1.1" xmlns="http://www.w3.org/2000/svg" xmlns:xlink="http://www.w3.org/1999/xlink">
    <!-- Generator: Sketch 55.1 (78136) - https://sketchapp.com -->
    <title>assisted-alt</title>
    <desc>Created with Sketch.</desc>
    <g id="assisted-alt" stroke="none" stroke-width="1" fill="none" fill-rule="evenodd">
        <path d="M42.9116861,37.2154407 L46.9450933,30.3396256 C48.4965294,27.6524594 50.2251475,27.6524594 51.7967754,28.2857143 C53.3684032,28.9189692 53.2233139,32.6358167 52.3574418,34.0581952 L39.1876803,56.9339862 C38.8328177,57.5503807 38.1772976,57.9319399 37.4660646,57.9360889 C33.3669962,57.9600009 29.3518989,57.9779231 25.4207726,57.9898555 C22.8998348,57.9975074 20.9231395,58.0018751 18.7659701,57.9992196 C11.3373986,57.9900748 11.0010668,50.5897712 11.0010598,50.5107813 C11.0010528,50.4317914 11.0010668,47.3881636 11.0018395,45.6754268 L11,20.695623 C11,18.9229635 12.4439728,17.4809555 14.2190476,17.4809555 C16.0033197,17.4809555 17.4472925,18.9229635 17.4472925,20.695623 L17.4472925,32.1765785 C17.4472925,32.4291595 17.6542313,32.6358167 17.9071565,32.6358167 C18.1600816,32.6358167 18.3670204,32.4291595 18.3670204,32.1765785 L18.3670204,13.8070497 C18.3670204,12.0343902 19.8109932,10.5923822 21.586068,10.5923822 C23.3611429,10.5923822 24.8051156,12.0343902 24.8051156,13.8070497 L24.8051156,30.3396256 C24.8051156,30.5922067 25.0120544,30.7988639 25.2649796,30.7988639 C25.5179048,30.7988639 25.7248435,30.5922067 25.7248435,30.3396256 L25.7248435,9.67390576 C25.7248435,7.64774673 27.3748354,6 29.4037551,6 C31.4326748,6 33.0826667,7.64774673 33.0826667,9.67390576 L33.0826667,30.3396256 C33.0826667,30.5922067 33.2896054,30.7988639 33.5425306,30.7988639 C33.7954558,30.7988639 34.0023946,30.5922067 34.0023946,30.3396256 L34.0023946,16.1032408 C34.0023946,14.0770818 35.6523864,12.4293351 37.6813061,12.4293351 C39.7102259,12.4293351 41.3602177,14.0770818 41.3602177,16.1032408 L41.3602177,36.4337168 C41.3721741,36.8066183 41.3712544,37.1446176 41.3712544,37.4293453 C41.3712544,37.5616059 41.3583782,38.170431 41.3602177,38.2935069 C41.3894471,38.2888345 41.5944283,38.2048248 41.9751611,38.0414779 C42.3674931,37.8731371 42.6956731,37.5836817 42.9116861,37.2154407 Z" id="Path" fill="#000000" fill-rule="nonzero"></path>
    </g>
</svg>