<?xml version="1.0" encoding="UTF-8"?>
<svg width="64px" height="64px" viewBox="0 0 64 64" version="1.1" xmlns="http://www.w3.org/2000/svg" xmlns:xlink="http://www.w3.org/1999/xlink">
    <!-- Generator: Sketch 55.2 (78181) - https://sketchapp.com -->
    <title>barcode</title>
    <desc>Created with Sketch.</desc>
    <defs>
        <path d="M6,16 L9,16 L9,48 L6,48 L6,16 Z M21,16 L23,16 L23,45.7142857 L21,45.7142857 L21,16 Z M26,16 L30,16 L30,45.7142857 L26,45.7142857 L26,16 Z M48,16 L52,16 L52,45.7142857 L48,45.7142857 L48,16 Z M12,16 L18,16 L18,45.7142857 L12,45.7142857 L12,16 Z M40,16 L45,16 L45,45.7142857 L40,45.7142857 L40,16 Z M32,16 L34,16 L34,45.7142857 L32,45.7142857 L32,16 Z M36,16 L38,16 L38,45.7142857 L36,45.7142857 L36,16 Z M55,16 L58,16 L58,48 L55,48 L55,16 Z" id="path-1"></path>
    </defs>
    <g id="barcode" stroke="none" stroke-width="1" fill="none" fill-rule="evenodd">
        <mask id="mask-2" fill="white">
            <use xlink:href="#path-1"></use>
        </mask>
        <use fill="#000000" xlink:href="#path-1"></use>
    </g>
</svg>