<?xml version="1.0" encoding="UTF-8"?>
<svg width="64px" height="64px" viewBox="0 0 64 64" version="1.1" xmlns="http://www.w3.org/2000/svg" xmlns:xlink="http://www.w3.org/1999/xlink">
    <!-- Generator: Sketch 52.6 (67491) - http://www.bohemiancoding.com/sketch -->
    <title>barrier-single</title>
    <desc>Created with Sketch.</desc>
    <g id="barrier-single" stroke="none" stroke-width="1" fill="none" fill-rule="evenodd">
        <g id="icon-barrier-single" transform="translate(6.000000, 13.000000)" fill="#000000" fill-rule="nonzero">
            <path d="M46.515625,0 L46.515625,4.63476071 L5.484375,4.63476071 L5.484375,0 L0,0 L0,40 L5.484375,40 L5.484375,24.2821159 L46.3125,24.2821159 L46.3125,40 L52,40 L52,0 L46.515625,0 Z M10.359375,20.9571788 L3.859375,20.9571788 L9.6484375,8.26196474 L16.1484375,8.26196474 L10.359375,20.9571788 Z M26.5078125,20.9571788 L20.0078125,20.9571788 L25.6953125,8.26196474 L32.1953125,8.26196474 L26.5078125,20.9571788 Z M42.3515625,20.9571788 L35.8515625,20.9571788 L41.640625,8.26196474 L48.140625,8.26196474 L42.3515625,20.9571788 Z" id="Shape"></path>
        </g>
    </g>
</svg>