<?xml version="1.0" encoding="UTF-8"?>
<svg width="64px" height="64px" viewBox="0 0 64 64" version="1.1" xmlns="http://www.w3.org/2000/svg" xmlns:xlink="http://www.w3.org/1999/xlink">
    <!-- Generator: Sketch 52.6 (67491) - http://www.bohemiancoding.com/sketch -->
    <title>barrier-gate</title>
    <desc>Created with Sketch.</desc>
    <g id="barrier-gate" stroke="none" stroke-width="1" fill="none" fill-rule="evenodd">
        <g id="icon-barrier-gate" transform="translate(7.000000, 7.000000)" fill="#000000" fill-rule="nonzero">
            <path d="M45.3441296,0 L13.9676113,22.2568093 C12.4493927,20.9416342 10.6275304,20.1322957 8.50202429,20.1322957 C3.84615385,20.1322957 0,24.077821 0,28.7315175 L0,52 L17.1052632,52 L17.1052632,29.7431907 L50,6.47470817 L45.3441296,0 Z M17.9149798,27.1128405 L17.1052632,27.618677 C16.8016194,25.8988327 16.2955466,24.2801556 15.2834008,23.2684825 L19.7368421,20.1322957 L17.9149798,27.1128405 Z M30.0607287,18.614786 L25.1012146,21.9533074 L26.7206478,14.9727626 L31.5789474,11.6342412 L30.0607287,18.614786 Z M42.2064777,10.0155642 L37.3481781,13.4552529 L38.8663968,6.6770428 L43.8259109,3.3385214 L42.2064777,10.0155642 Z" id="Shape"></path>
        </g>
    </g>
</svg>