<?xml version="1.0" encoding="UTF-8"?>
<svg width="64px" height="64px" viewBox="0 0 64 64" version="1.1" xmlns="http://www.w3.org/2000/svg" xmlns:xlink="http://www.w3.org/1999/xlink">
    <!-- Generator: Sketch 52.6 (67491) - http://www.bohemiancoding.com/sketch -->
    <title>barrier-fence-little</title>
    <desc>Created with Sketch.</desc>
    <g id="barrier-fence-little" stroke="none" stroke-width="1" fill="none" fill-rule="evenodd">
        <g id="icon-barrier-fence-little" transform="translate(6.000000, 18.000000)" fill="#000000" fill-rule="nonzero">
            <path d="M52,10.5405405 L52,6.48648649 L50.4765625,6.48648649 L50.4765625,4.05405405 L47.0234375,0 L43.671875,4.05405405 L43.671875,6.48648649 L39.5078125,6.48648649 L39.5078125,4.05405405 L36.15625,0 L32.8046875,4.05405405 L32.8046875,6.48648649 L28.640625,6.48648649 L28.640625,4.05405405 L26,0.202702703 L22.8515625,4.05405405 L22.8515625,6.48648649 L18.6875,6.48648649 L18.6875,4.05405405 L15.640625,0.202702703 L12.1875,4.05405405 L12.1875,6.48648649 L8.0234375,6.48648649 L8.0234375,4.05405405 L4.9765625,0.202702703 L1.5234375,4.05405405 L1.5234375,6.48648649 L0,6.48648649 L0,10.5405405 L1.5234375,10.5405405 L1.5234375,21.7905405 L0,21.7905405 L0,25.9459459 L1.5234375,25.9459459 L1.5234375,30 L8.0234375,30 L8.0234375,25.9459459 L12.1875,25.9459459 L12.1875,30 L18.6875,30 L18.6875,25.9459459 L22.8515625,25.9459459 L22.8515625,30 L29.3515625,30 L29.3515625,25.9459459 L33.515625,25.9459459 L33.515625,30 L40.015625,30 L40.015625,25.9459459 L44.1796875,25.9459459 L44.1796875,30 L50.6796875,30 L50.6796875,25.9459459 L52,25.9459459 L52,21.7905405 L50.4765625,21.7905405 L50.4765625,10.5405405 L52,10.5405405 Z M12.1875,21.7905405 L8.0234375,21.7905405 L8.0234375,10.5405405 L12.1875,10.5405405 L12.1875,21.7905405 Z M22.8515625,21.7905405 L18.6875,21.7905405 L18.6875,10.5405405 L22.8515625,10.5405405 L22.8515625,21.7905405 Z M33.3125,21.7905405 L29.1484375,21.7905405 L29.1484375,10.5405405 L33.3125,10.5405405 L33.3125,21.7905405 Z M43.9765625,21.7905405 L39.8125,21.7905405 L39.8125,10.5405405 L43.9765625,10.5405405 L43.9765625,21.7905405 Z" id="Shape"></path>
        </g>
    </g>
</svg>