<?xml version="1.0" encoding="UTF-8"?>
<svg width="64px" height="64px" viewBox="0 0 64 64" version="1.1" xmlns="http://www.w3.org/2000/svg" xmlns:xlink="http://www.w3.org/1999/xlink">
    <!-- Generator: Sketch 52.6 (67491) - http://www.bohemiancoding.com/sketch -->
    <title>barrier-double</title>
    <desc>Created with Sketch.</desc>
    <g id="barrier-double" stroke="none" stroke-width="1" fill="none" fill-rule="evenodd">
        <g id="icon-barrier-double" transform="translate(6.000000, 13.000000)" fill="#000000" fill-rule="nonzero">
            <path d="M46.515625,0 L46.515625,4.63476071 L5.484375,4.63476071 L5.484375,0 L0,0 L0,40 L5.484375,40 L5.484375,29.2191436 L46.3125,29.2191436 L46.3125,40 L52,40 L52,0 L46.515625,0 Z M25.6953125,6.44836272 L32.1953125,6.44836272 L26.5078125,12.8967254 L20.0078125,12.8967254 L25.6953125,6.44836272 Z M46.515625,14.5088161 L46.515625,19.3450882 L5.484375,19.3450882 L5.484375,14.5088161 L46.515625,14.5088161 Z M9.6484375,6.44836272 L16.1484375,6.44836272 L10.359375,12.6952141 L3.859375,12.6952141 L9.6484375,6.44836272 Z M10.359375,27.6070529 L3.859375,27.6070529 L9.6484375,21.1586902 L16.1484375,21.1586902 L10.359375,27.6070529 Z M26.5078125,27.6070529 L20.0078125,27.6070529 L25.6953125,21.1586902 L32.1953125,21.1586902 L26.5078125,27.6070529 Z M42.3515625,27.6070529 L35.8515625,27.6070529 L41.640625,21.1586902 L48.140625,21.1586902 L42.3515625,27.6070529 Z M42.3515625,12.6952141 L35.8515625,12.6952141 L41.640625,6.44836272 L48.140625,6.44836272 L42.3515625,12.6952141 Z" id="Shape"></path>
        </g>
    </g>
</svg>