<?xml version="1.0" encoding="UTF-8"?>
<svg width="64px" height="64px" viewBox="0 0 64 64" version="1.1" xmlns="http://www.w3.org/2000/svg" xmlns:xlink="http://www.w3.org/1999/xlink">
    <!-- Generator: Sketch 52.6 (67491) - http://www.bohemiancoding.com/sketch -->
    <title>barrier-temporary</title>
    <desc>Created with Sketch.</desc>
    <g id="barrier-temporary" stroke="none" stroke-width="1" fill="none" fill-rule="evenodd">
        <g id="icon-barrier-temporary" transform="translate(6.000000, 12.000000)" fill="#000000" fill-rule="nonzero">
            <path d="M52,14.5088161 L52,4.63476071 L47.328125,4.63476071 L47.328125,0 L41.640625,0 L41.640625,4.63476071 L10.15625,4.63476071 L10.15625,0 L4.46875,0 L4.46875,4.63476071 L0,4.63476071 L0,14.5088161 L4.46875,14.5088161 L4.46875,19.3450882 L0,19.3450882 L0,29.2191436 L4.46875,29.2191436 L4.46875,40 L9.8515625,40 L9.8515625,29.2191436 L41.640625,29.2191436 L41.640625,40 L47.0234375,40 L47.0234375,29.2191436 L52,29.2191436 L52,19.3450882 L47.328125,19.3450882 L47.328125,14.5088161 L52,14.5088161 Z M26,6.44836272 L33.0078125,6.44836272 L26.8125,12.8967254 L19.8046875,12.8967254 L26,6.44836272 Z M41.640625,14.5088161 L41.640625,19.3450882 L10.15625,19.3450882 L10.15625,14.5088161 L41.640625,14.5088161 Z M2.640625,12.6952141 L8.53125,6.24685139 L15.640625,6.24685139 L9.34375,12.6952141 L2.640625,12.6952141 Z M9.34375,27.6070529 L2.640625,27.6070529 L8.53125,21.1586902 L15.640625,21.1586902 L9.34375,27.6070529 Z M26.8125,27.6070529 L19.8046875,27.6070529 L25.6953125,21.1586902 L32.8046875,21.1586902 L26.8125,27.6070529 Z M49.96875,21.1586902 L43.671875,27.6070529 L36.6640625,27.6070529 L42.65625,21.1586902 L49.96875,21.1586902 Z M43.671875,12.6952141 L36.6640625,12.6952141 L42.65625,6.24685139 L49.6640625,6.24685139 L43.671875,12.6952141 Z" id="Shape"></path>
        </g>
    </g>
</svg>