<?xml version="1.0" encoding="UTF-8"?>
<svg width="64px" height="64px" viewBox="0 0 64 64" version="1.1" xmlns="http://www.w3.org/2000/svg" xmlns:xlink="http://www.w3.org/1999/xlink">
    <!-- Generator: Sketch 52.6 (67491) - http://www.bohemiancoding.com/sketch -->
    <title>barrier-fence</title>
    <desc>Created with Sketch.</desc>
    <g id="barrier-fence" stroke="none" stroke-width="1" fill="none" fill-rule="evenodd">
        <path d="M6,41.5 L58,41.5 L58,46.5 L6,46.5 L6,41.5 Z M6,21.5 L58,21.5 L58,26.5 L6,26.5 L6,21.5 Z M8,16 L11,12 L14,16 L14,20 L8,20 L8,16 Z M8,48 L14,48 L14,52 L8,52 L8,48 Z M8,28 L14,28 L14,40 L8,40 L8,28 Z M22,16 L25,12 L28,16 L28,20 L22,20 L22,16 Z M22,28 L28,28 L28,40 L22,40 L22,28 Z M22,48 L28,48 L28,52 L22,52 L22,48 Z M36,16 L39,12 L42,16 L42,20 L36,20 L36,16 Z M36,28 L42,28 L42,40 L36,40 L36,28 Z M36,48 L42,48 L42,52 L36,52 L36,48 Z M50,16 L53,12 L56,16 L56,20 L50,20 L50,16 Z M50,28 L56,28 L56,40 L50,40 L50,28 Z M50,48 L56,48 L56,52 L50,52 L50,48 Z" fill="#000000"></path>
    </g>
</svg>