<?xml version="1.0" encoding="UTF-8"?>
<svg width="64px" height="64px" viewBox="0 0 64 64" version="1.1" xmlns="http://www.w3.org/2000/svg" xmlns:xlink="http://www.w3.org/1999/xlink">
    <!-- Generator: Sketch 52.6 (67491) - http://www.bohemiancoding.com/sketch -->
    <title>bike-line</title>
    <desc>Created with Sketch.</desc>
    <g id="bike-line" stroke="none" stroke-width="1" fill="none" fill-rule="evenodd">
        <g id="icon-bike-line" transform="translate(6.000000, 9.000000)" fill="#000000" fill-rule="nonzero">
            <path d="M20.5474614,35.3560976 C20.2030905,36.8780488 18.8256071,37.2292683 18.4812362,37.2292683 C18.1368653,37.2292683 17.9072848,36.8780488 17.9072848,36.6439024 C17.9072848,36.2926829 18.1368653,36.2926829 18.1368653,36.2926829 C19.3995585,35.3560976 19.3995585,34.5365854 19.3995585,34.5365854 C19.3995585,34.5365854 19.3995585,34.1853659 19.6291391,33.6 C19.3995585,33.2487805 18.8256071,33.2487805 18.4812362,33.2487805 C16.7593819,33.2487805 15.2671082,34.7707317 15.2671082,36.6439024 C15.2671082,38.4 16.7593819,39.9219512 18.4812362,39.9219512 C20.2030905,39.9219512 21.6953642,38.4 21.6953642,36.6439024 C21.6953642,35.7073171 21.4657837,34.7707317 20.7770419,34.1853659 C20.5474614,34.7707317 20.5474614,35.3560976 20.5474614,35.3560976 Z M27.5496689,35.1219512 L27.3200883,34.1853659 L26.401766,34.1853659 L26.401766,33.6 L26.9757174,33.6 C26.9757174,33.6 27.3200883,33.2487805 27.3200883,33.2487805 C27.5496689,33.2487805 27.5496689,33.2487805 27.5496689,33.6 L28.1236203,33.6 L28.1236203,34.1853659 L27.5496689,34.1853659 L27.8940397,34.7707317 C28.1236203,34.7707317 28.1236203,34.7707317 28.4679912,34.7707317 L29.9602649,30.3219512 L21.6953642,30.3219512 C21.6953642,30.5560976 21.6953642,30.5560976 21.4657837,30.9073171 L27.5496689,35.1219512 Z M35.4701987,33.2487805 C35.2406181,33.2487805 34.6666667,33.2487805 34.3222958,33.6 L36.1589404,36.6439024 C36.1589404,36.6439024 36.1589404,36.6439024 36.1589404,36.8780488 C36.1589404,37.2292683 35.8145695,37.2292683 35.4701987,37.2292683 L32.2560706,37.2292683 C32.6004415,38.6341463 33.7483444,40.1560976 35.4701987,40.1560976 C37.3068433,40.1560976 38.799117,38.6341463 38.799117,36.8780488 C39.0286976,34.7707317 37.3068433,33.2487805 35.4701987,33.2487805 Z M36.9624724,0 L14.9227373,0 L0,48 L52,48 L36.9624724,0 Z M16.1854305,0.936585366 L17.3333333,0.936585366 L16.415011,4.8 L14.9227373,4.8 L16.1854305,0.936585366 Z M14.1192053,7.84390244 L15.8410596,7.84390244 L14.3487859,15.3365854 L12.2825607,15.3365854 L14.1192053,7.84390244 Z M8.49448124,44.9560976 L4.36203091,44.9560976 L7.57615894,33.0146341 L10.790287,33.0146341 L8.49448124,44.9560976 Z M8.49448124,29.7365854 L11.4790287,18.2634146 L13.7748344,18.2634146 L11.4790287,29.7365854 L8.49448124,29.7365854 Z M35.4701987,41.3268293 C33.1743929,41.3268293 31.1081678,39.5707317 30.8785872,37.2292683 L30.1898455,37.2292683 C30.1898455,37.8146341 29.9602649,38.0487805 29.3863135,38.4 L29.615894,39.3365854 L30.5342163,39.3365854 L30.5342163,39.9219512 L29.9602649,39.9219512 C29.9602649,39.9219512 29.615894,40.1560976 29.615894,40.1560976 C29.3863135,40.1560976 29.3863135,40.1560976 29.3863135,39.9219512 L28.812362,39.9219512 L28.812362,39.3365854 L29.3863135,39.3365854 L29.0419426,38.6341463 C28.812362,38.6341463 28.812362,38.6341463 28.4679912,38.6341463 C27.3200883,38.6341463 26.401766,37.8146341 26.401766,36.6439024 C26.401766,36.2926829 26.401766,36.2926829 26.401766,35.9414634 L21.1214128,32.0780488 C21.1214128,32.4292683 21.1214128,32.4292683 20.7770419,32.6634146 C22.0397351,33.6 22.8432671,35.1219512 22.8432671,36.6439024 C22.8432671,39.3365854 20.7770419,41.3268293 18.1368653,41.3268293 C15.4966887,41.3268293 13.4304636,39.3365854 13.4304636,36.6439024 C13.4304636,33.8341463 15.4966887,31.8439024 18.1368653,31.8439024 C18.8256071,31.8439024 19.3995585,31.8439024 19.9735099,32.0780488 C20.5474614,30.3219512 20.7770419,28.2146341 20.7770419,28.2146341 C20.7770419,28.2146341 20.7770419,27.8634146 20.7770419,27.8634146 C20.5474614,27.6292683 20.2030905,27.6292683 20.2030905,27.0439024 C20.2030905,25.7560976 21.4657837,25.7560976 21.4657837,25.7560976 L23.7615894,25.7560976 L23.7615894,27.0439024 L22.0397351,27.0439024 C21.6953642,27.0439024 21.6953642,27.0439024 21.6953642,27.2780488 C21.6953642,27.6292683 21.6953642,27.6292683 21.6953642,27.6292683 C22.0397351,27.6292683 22.2693157,27.8634146 22.2693157,28.4487805 C22.2693157,28.4487805 22.2693157,28.8 22.2693157,28.8 C22.2693157,28.8 22.2693157,29.1512195 22.0397351,29.3853659 L30.5342163,29.3853659 L30.8785872,28.2146341 L29.0419426,27.8634146 C29.0419426,27.8634146 28.812362,27.8634146 28.812362,27.6292683 C28.812362,27.2780488 29.0419426,27.2780488 29.0419426,27.2780488 L33.1743929,27.2780488 C33.1743929,27.2780488 33.5187638,27.2780488 33.5187638,27.2780488 C33.5187638,27.2780488 33.1743929,28.2146341 32.2560706,28.4487805 L32.0264901,29.3853659 L33.7483444,32.6634146 C34.3222958,32.4292683 34.8962472,32.4292683 35.4701987,32.4292683 C38.2251656,32.4292683 40.1766004,34.5365854 40.1766004,37.2292683 C40.1766004,39.3365854 38.2251656,41.3268293 35.4701987,41.3268293 Z M33.5187638,34.1853659 C32.8300221,34.7707317 32.2560706,35.3560976 32.2560706,36.2926829 L34.6666667,36.2926829 L33.5187638,34.1853659 Z M31.4525386,30.5560976 L29.615894,35.1219512 C29.9602649,35.3560976 30.1898455,35.7073171 30.1898455,36.2926829 L30.8785872,36.2926829 C30.8785872,34.7707317 31.6821192,33.6 32.6004415,33.0146341 L31.4525386,30.5560976 Z M29.615894,36.6439024 C29.615894,37.2292683 29.1567329,37.8146341 28.4679912,37.8146341 C27.7792494,37.8146341 27.3200883,37.2292683 27.3200883,36.6439024 C27.3200883,35.9414634 27.7792494,35.3560976 28.4679912,35.3560976 C29.1567329,35.3560976 29.615894,35.9414634 29.615894,36.6439024 Z" id="Shape"></path>
        </g>
    </g>
</svg>