<?xml version="1.0" encoding="UTF-8"?>
<svg width="64px" height="64px" viewBox="0 0 64 64" version="1.1" xmlns="http://www.w3.org/2000/svg" xmlns:xlink="http://www.w3.org/1999/xlink">
    <!-- Generator: Sketch 52.6 (67491) - http://www.bohemiancoding.com/sketch -->
    <title>bike-track</title>
    <desc>Created with Sketch.</desc>
    <g id="bike-track" stroke="none" stroke-width="1" fill="none" fill-rule="evenodd">
        <g id="icon-bike-track" transform="translate(6.000000, 7.000000)" fill="#000000" fill-rule="nonzero">
            <path d="M41.9224806,10.9333333 C39.9069767,9.6 37.8914729,9.6 35.4728682,10 C34.8010336,8.93333333 34.3979328,7.86666667 33.994832,6.93333333 C33.0542636,4.8 33.3229974,4.13333333 35.7416021,3.86666667 C35.4728682,3.46666667 35.4728682,2.8 35.0697674,2.8 C33.0542636,2.8 30.9043928,2.8 28.8888889,2.8 C28.8888889,3.06666667 28.8888889,3.06666667 28.8888889,3.46666667 C29.9638243,3.86666667 30.9043928,4.13333333 32.6511628,4.53333333 C31.7105943,5.2 31.3074935,5.46666667 30.9043928,5.46666667 C26.873385,5.46666667 23.1111111,5.46666667 18.9457364,5.46666667 C18.9457364,3.06666667 18.9457364,3.06666667 23.1111111,2.4 C22.7080103,2.13333333 22.3049096,1.46666667 22.3049096,1.46666667 C20.2894057,0.8 18.2739018,1.73333333 17.1989664,3.86666667 C16.5271318,5.46666667 16.124031,7.2 15.4521964,8.93333333 C15.4521964,9.6 15.1834625,10.2666667 13.7054264,10.2666667 C10.3462532,10.2666667 7.5245478,12.4 6.58397933,15.4666667 C5.50904393,18.5333333 6.58397933,21.8666667 9.27131783,24 C12.0930233,25.6 15.4521964,25.6 18.5426357,23.6 C20.9612403,21.8666667 22.3049096,18.1333333 21.3643411,15.0666667 C20.2894057,13.0666667 18.9457364,11.6 16.7958656,10.6666667 C17.1989664,10 17.1989664,9.6 17.6020672,8.93333333 C19.8863049,11.6 22.3049096,14.4 24.7235142,17.0666667 C25.7984496,18.5333333 27.1421189,19.2 28.8888889,18.8 C29.9638243,18.8 30.6356589,19.2 30.9043928,20.1333333 C31.9793282,23.3333333 35.0697674,24.9333333 38.5633075,24.6666667 C41.6537468,24.2666667 44.3410853,21.8666667 45.4160207,18.8 C46.0878553,16.1333333 44.3410853,12.6666667 41.9224806,10.9333333 Z M19.6175711,19.2 C18.9457364,21.8666667 15.4521964,24 12.7648579,23.3333333 C9.6744186,22.5333333 7.5245478,19.4666667 8.19638243,16.4 C9.00258398,13.3333333 11.6899225,11.6 14.7803618,12 C14.1085271,13.7333333 13.7054264,15.0666667 13.4366925,16.4 C13.4366925,16.8 13.4366925,17.4666667 13.7054264,18.1333333 C14.1085271,17.8666667 14.7803618,17.4666667 15.1834625,16.8 C15.4521964,15.4666667 15.8552972,14 16.124031,12.6666667 C18.5426357,13.3333333 20.2894057,16.1333333 19.6175711,19.2 Z M27.1421189,17.0666667 C24.0516796,13.7333333 21.3643411,10.6666667 18.2739018,7.2 C22.7080103,7.2 26.873385,7.2 30.9043928,7.2 C29.5607235,10.6666667 28.4857881,13.7333333 27.1421189,17.0666667 Z M30.2325581,16.8 C30.2325581,17.0666667 29.5607235,17.4666667 29.2919897,17.8666667 C29.2919897,17.8666667 28.8888889,17.4666667 28.8888889,17.4666667 C29.9638243,14.4 31.3074935,11.3333333 32.3824289,8.26666667 C33.0542636,9.6 33.3229974,10.2666667 33.7260982,11.3333333 C31.7105943,12.4 30.6356589,14.4 30.2325581,16.8 Z M31.9793282,17.4666667 C31.9793282,15.4666667 32.6511628,14 34.8010336,12.6666667 C35.4728682,14.4 36.1447028,15.7333333 36.8165375,17.4666667 C35.0697674,17.4666667 33.7260982,17.4666667 31.9793282,17.4666667 Z M39.9069767,22.9333333 C36.8165375,24 33.3229974,22.2666667 32.3824289,19.2 C33.994832,19.2 35.7416021,19.2 37.4883721,19.2 C38.8320413,19.2 39.2351421,18.8 38.5633075,17.4666667 C37.8914729,15.7333333 37.0852713,14 36.1447028,12.4 C38.5633075,10.9333333 41.9224806,12.6666667 42.997416,15.4666667 C44.3410853,18.1333333 42.997416,21.8666667 39.9069767,22.9333333 Z M0,52 C0.671834625,52 1.74677003,52 2.41860465,52 C2.41860465,34.5333333 2.41860465,17.0666667 2.41860465,0 C1.34366925,0 0.671834625,0 0,0 C0,17.4666667 0,34.5333333 0,52 Z M49.5813953,0 C49.5813953,17.4666667 49.5813953,34.5333333 49.5813953,52 C50.25323,52 50.9250646,52 52,52 C52,34.5333333 52,17.0666667 52,0 C50.9250646,0 50.25323,0 49.5813953,0 Z M38.5633075,46.1333333 C34.3979328,43.4666667 30.2325581,40.6666667 25.7984496,38 C21.6330749,40.6666667 17.870801,43.0666667 14.1085271,45.4666667 C11.6899225,46.8 11.6899225,47.2 12.3617571,50.2666667 C12.7648579,49.8666667 13.4366925,49.6 13.7054264,49.2 C17.1989664,46.8 20.9612403,44.4 24.4547804,42 C25.3953488,41.3333333 25.7984496,41.3333333 26.873385,42 C30.2325581,44.4 33.994832,46.8 37.8914729,49.2 C38.1602067,49.6 38.8320413,49.8666667 39.503876,50.2666667 C39.503876,49.2 39.503876,48.5333333 39.503876,47.8666667 C39.2351421,47.4666667 38.8320413,46.5333333 38.5633075,46.1333333 Z M24.4547804,32.5333333 C25.3953488,31.8666667 26.2015504,31.8666667 27.5452196,32.5333333 C31.3074935,35.2 35.4728682,37.6 39.503876,40.4 C39.503876,39.3333333 39.503876,38.2666667 39.503876,37.6 C39.503876,36.9333333 39.2351421,36.2666667 38.8320413,35.8666667 C35.0697674,33.2 30.9043928,30.8 27.1421189,28.4 C26.873385,28 25.7984496,28 25.3953488,28.4 C21.6330749,30.8 18.2739018,32.8 14.7803618,35.2 C12.7648579,36.5333333 12.3617571,36.9333333 13.0335917,40 C13.4366925,39.6 13.7054264,39.6 14.1085271,39.3333333 C17.1989664,37.2 20.6925065,35.2 24.4547804,32.5333333 Z" id="Shape"></path>
        </g>
    </g>
</svg>