<?xml version="1.0" encoding="UTF-8"?>
<svg width="64px" height="64px" viewBox="0 0 64 64" version="1.1" xmlns="http://www.w3.org/2000/svg" xmlns:xlink="http://www.w3.org/1999/xlink">
    <!-- Generator: Sketch 52.6 (67491) - http://www.bohemiancoding.com/sketch -->
    <title>bike-crossing</title>
    <desc>Created with Sketch.</desc>
    <g id="bike-crossing" stroke="none" stroke-width="1" fill="none" fill-rule="evenodd">
        <g id="icon-bike-crossing" transform="translate(6.000000, 18.000000)" fill="#000000" fill-rule="nonzero">
            <path d="M20.0082305,26.7391304 C18.8312757,26.7391304 17.5473251,26.7391304 16.3703704,26.7391304 C16.3703704,26.7391304 16.3703704,26.7391304 16.1563786,26.7391304 C16.1563786,27.826087 16.1563786,28.9130435 16.1563786,30 C16.1563786,30 16.1563786,30 16.3703704,30 C17.7613169,30 18.8312757,30 20.2222222,30 C20.5432099,30 20.5432099,30 20.5432099,29.7826087 C20.0082305,28.9130435 20.0082305,27.826087 20.0082305,26.7391304 Z M51.7860082,26.7391304 C50.3950617,26.7391304 49.3251029,26.7391304 47.9341564,26.7391304 C47.9341564,26.7391304 47.6131687,26.7391304 47.6131687,26.9565217 C47.6131687,27.826087 47.6131687,28.9130435 47.6131687,29.7826087 C47.6131687,29.7826087 47.6131687,30 47.9341564,30 C49.0041152,30 50.3950617,30 51.4650206,30 C51.4650206,30 51.4650206,30 51.7860082,30 C52,28.9130435 52,27.826087 51.7860082,26.7391304 Z M24.0740741,30 C25.4650206,30 26.8559671,30 28.1399177,30 C28.1399177,28.9130435 28.1399177,27.826087 28.1399177,26.7391304 C26.8559671,26.7391304 25.4650206,26.7391304 24.0740741,26.7391304 C24.0740741,27.826087 24.0740741,28.9130435 24.0740741,30 Z M40.0164609,30 C41.3004115,30 42.691358,30 44.0823045,30 C44.0823045,28.9130435 44.0823045,27.826087 44.0823045,26.7391304 C42.691358,26.7391304 41.3004115,26.7391304 40.0164609,26.7391304 C40.0164609,27.826087 40.0164609,28.9130435 40.0164609,30 Z M0,30 C1.3909465,30 2.67489712,30 4.06584362,30 C4.06584362,28.9130435 4.06584362,27.826087 4.06584362,26.7391304 C2.67489712,26.7391304 1.3909465,26.7391304 0,26.7391304 C0,27.826087 0,28.9130435 0,30 Z M7.91769547,30 C9.30864198,30 10.6995885,30 11.9835391,30 C11.9835391,28.9130435 11.9835391,27.826087 11.9835391,26.7391304 C10.6995885,26.7391304 9.30864198,26.7391304 7.91769547,26.7391304 C7.91769547,27.826087 7.91769547,28.9130435 7.91769547,30 Z M31.9917695,30 C33.382716,30 34.7736626,30 36.1646091,30 C36.1646091,28.9130435 36.1646091,27.826087 36.1646091,26.7391304 C34.7736626,26.7391304 33.382716,26.7391304 31.9917695,26.7391304 C31.9917695,27.826087 31.9917695,28.9130435 31.9917695,30 Z M47.9341564,18.0434783 C49.3251029,18.0434783 50.6090535,18.0434783 52,18.0434783 C52,16.9565217 52,15.8695652 52,14.673913 C50.6090535,14.673913 49.5390947,14.673913 48.1481481,14.673913 C48.1481481,14.673913 47.9341564,14.673913 47.9341564,15 C47.9341564,16.0869565 47.9341564,16.9565217 47.9341564,18.0434783 Z M0,18.0434783 C1.3909465,18.0434783 2.67489712,18.0434783 4.06584362,18.0434783 C4.06584362,16.9565217 4.06584362,15.8695652 4.06584362,14.673913 C2.67489712,14.673913 1.3909465,14.673913 0,14.673913 C0,15.8695652 0,16.9565217 0,18.0434783 Z M38.090535,8.91304348 C37.2345679,8.91304348 36.3786008,9.13043478 35.6296296,9.45652174 L33.1687243,5 L33.7037037,3.58695652 C34.9876543,3.58695652 35.308642,2.17391304 35.308642,1.95652174 C35.308642,1.63043478 34.9876543,1.63043478 34.9876543,1.63043478 L29.5308642,1.63043478 C29.5308642,1.63043478 28.9958848,1.63043478 28.9958848,2.17391304 C28.9958848,2.7173913 29.5308642,2.7173913 29.5308642,2.7173913 L31.9917695,3.26086957 L31.4567901,5 L19.1522634,5 C19.473251,4.45652174 19.473251,4.13043478 19.473251,4.13043478 C19.473251,4.13043478 19.473251,3.91304348 19.473251,3.58695652 C19.473251,3.04347826 18.8312757,2.5 18.617284,2.17391304 C18.617284,2.17391304 18.2962963,2.17391304 18.2962963,1.95652174 C18.2962963,1.63043478 18.2962963,1.63043478 18.617284,1.63043478 L21.0781893,1.63043478 L21.0781893,0 L18.2962963,0 C18.2962963,0 16.691358,0.217391304 16.691358,1.95652174 C16.691358,3.04347826 17.2263374,3.04347826 17.5473251,3.26086957 C17.7613169,3.58695652 17.7613169,3.91304348 17.7613169,3.91304348 C17.7613169,3.91304348 17.0123457,6.95652174 16.3703704,9.13043478 C15.6213992,9.13043478 14.7654321,8.91304348 13.909465,8.91304348 C10.3786008,8.91304348 7.38271605,11.9565217 7.38271605,15.5434783 C7.38271605,19.1304348 10.3786008,22.2826087 13.909465,22.2826087 C17.5473251,22.2826087 20.5432099,19.1304348 20.5432099,15.5434783 C20.5432099,13.3695652 19.473251,11.4130435 17.7613169,10.2173913 C17.7613169,10 18.0823045,9.67391304 18.0823045,9.45652174 L25.6790123,14.673913 C25.6790123,15 25.6790123,15.326087 25.6790123,15.5434783 C25.6790123,16.9565217 26.8559671,18.3695652 28.4609053,18.3695652 C28.781893,18.3695652 28.9958848,18.3695652 29.3168724,18.3695652 L29.5308642,19.1304348 L28.781893,19.1304348 L28.781893,20 L29.5308642,20 C29.5308642,20.326087 29.8518519,20.326087 30.0658436,20.326087 C30.3868313,20.326087 30.7078189,20.326087 30.7078189,20 L31.4567901,20 L31.4567901,19.1304348 L30.3868313,19.1304348 L29.5308642,17.826087 C30.0658436,17.5 30.7078189,16.6304348 30.7078189,16.0869565 L31.2427984,16.0869565 C31.4567901,19.4565217 34.2386831,22.2826087 37.7695473,22.2826087 C41.3004115,22.2826087 44.4032922,19.1304348 44.4032922,15.5434783 C44.4032922,11.9565217 41.6213992,8.91304348 38.090535,8.91304348 Z M18.617284,15.5434783 C18.617284,18.0434783 16.3703704,20.326087 13.909465,20.326087 C11.4485597,20.326087 9.30864198,18.0434783 9.30864198,15.5434783 C9.30864198,13.0434783 11.4485597,10.8695652 13.909465,10.8695652 C14.4444444,10.8695652 15.3004115,10.8695652 15.8353909,11.0869565 C15.6213992,11.9565217 15.6213992,12.5 15.6213992,12.5 C15.6213992,12.5 15.3004115,13.9130435 13.6954733,15 C13.6954733,15 13.1604938,15.326087 13.1604938,15.5434783 C13.1604938,15.8695652 13.3744856,16.0869565 13.6954733,16.0869565 C13.909465,16.0869565 15.8353909,15.5434783 16.3703704,13.5869565 C16.3703704,13.5869565 16.691358,13.0434783 16.691358,12.173913 C18.0823045,13.0434783 18.617284,14.1304348 18.617284,15.5434783 Z M18.617284,7.7173913 C18.617284,7.5 18.8312757,7.17391304 18.8312757,6.95652174 L30.7078189,6.95652174 L28.4609053,13.0434783 C28.1399177,13.0434783 27.9259259,13.0434783 27.6049383,13.0434783 L27.3909465,12.173913 L28.1399177,12.173913 L28.1399177,11.0869565 L27.3909465,11.0869565 C27.3909465,10.8695652 27.0699588,10.8695652 26.8559671,10.8695652 C26.5349794,10.8695652 26.3209877,10.8695652 26.3209877,11.0869565 L24.9300412,11.0869565 L24.9300412,11.9565217 L26,11.9565217 L26.5349794,13.0434783 C26.5349794,13.0434783 26.5349794,13.0434783 26.3209877,13.0434783 L18.617284,7.7173913 Z M28.1399177,17.173913 C27.3909465,17.173913 26.5349794,16.4130435 26.5349794,15.5434783 C26.5349794,14.673913 27.3909465,13.9130435 28.1399177,13.9130435 C28.9958848,13.9130435 29.8518519,14.673913 29.8518519,15.5434783 C29.8518519,16.4130435 28.9958848,17.173913 28.1399177,17.173913 Z M31.4567901,15 L30.9218107,15 C30.7078189,14.4565217 30.3868313,13.9130435 29.8518519,13.3695652 L31.9917695,6.95652174 L33.9176955,10.2173913 C32.526749,11.4130435 31.7777778,13.0434783 31.4567901,15 Z M34.9876543,11.9565217 L36.6995885,15 L33.382716,15 C33.7037037,13.9130435 34.2386831,12.826087 34.9876543,11.9565217 Z M38.090535,20.326087 C35.6296296,20.326087 33.7037037,18.5869565 33.382716,16.0869565 L37.7695473,16.0869565 C38.090535,16.0869565 38.6255144,16.0869565 38.6255144,15.5434783 C38.6255144,15.326087 38.6255144,15.326087 38.6255144,15.326087 L36.3786008,11.4130435 C36.9135802,11.0869565 37.5555556,11.0869565 38.090535,11.0869565 C40.5514403,11.0869565 42.691358,13.3695652 42.691358,15.8695652 C42.691358,18.3695652 40.5514403,20.326087 38.090535,20.326087 Z" id="Shape"></path>
        </g>
    </g>
</svg>