<?xml version="1.0" encoding="UTF-8"?>
<svg width="64px" height="64px" viewBox="0 0 64 64" version="1.1" xmlns="http://www.w3.org/2000/svg" xmlns:xlink="http://www.w3.org/1999/xlink">
    <!-- Generator: Sketch 52.6 (67491) - http://www.bohemiancoding.com/sketch -->
    <title>bike-pump</title>
    <desc>Created with Sketch.</desc>
    <g id="bike-pump" stroke="none" stroke-width="1" fill="none" fill-rule="evenodd">
        <g id="icon-bike-pump" transform="translate(16.000000, 7.000000)" fill="#000000">
            <path d="M10.3050847,17.5486542 C10.3050847,13.4575569 10.3050847,9.58178054 10.3050847,5.38302277 C9.76271186,5.38302277 8.89491525,5.38302277 8.35254237,5.38302277 C7.26779661,5.38302277 6.4,5.38302277 5.31525424,5.38302277 C4.98983051,5.38302277 4.44745763,5.70600414 4.23050847,5.70600414 C3.68813559,5.70600414 3.14576271,6.02898551 2.2779661,5.70600414 C1.73559322,5.70600414 1.41016949,5.16770186 1.41016949,4.62939959 C1.41016949,3.76811594 1.41016949,2.9068323 1.41016949,1.83022774 C1.41016949,0.215320911 2.2779661,-0.107660455 3.90508475,0.215320911 C4.44745763,0.215320911 4.98983051,0.430641822 5.31525424,0.430641822 C9.22033898,0.430641822 13.1254237,0.430641822 17.0305085,0.430641822 C17.5728814,0.430641822 17.7898305,0.215320911 18.3322034,0.215320911 C18.8745763,0.215320911 19.5254237,-0.107660455 20.0677966,0.215320911 C20.2847458,0.215320911 20.6101695,0.753623188 20.6101695,0.968944099 C20.6101695,2.15320911 20.6101695,3.55279503 20.6101695,4.62939959 C20.6101695,5.16770186 20.2847458,5.38302277 19.7423729,5.70600414 C19.2,5.70600414 18.6576271,5.70600414 17.7898305,5.38302277 C17.5728814,5.38302277 17.5728814,5.38302277 17.2474576,5.16770186 C15.620339,5.16770186 13.6677966,5.16770186 11.7152542,5.16770186 C11.7152542,9.25879917 11.7152542,13.1345756 11.7152542,17.3333333 C11.9322034,17.3333333 12.2576271,17.3333333 12.2576271,17.3333333 C13.3423729,17.3333333 14.7525424,17.3333333 15.8372881,17.3333333 C16.379661,17.3333333 16.7050847,17.5486542 17.0305085,18.0869565 C17.0305085,18.6252588 17.0305085,19.1635611 16.379661,19.1635611 C15.8372881,19.4865424 16.1627119,19.8095238 16.1627119,20.0248447 C16.1627119,25.8385093 16.1627119,31.6521739 16.1627119,37.6811594 C16.1627119,40.4803313 16.1627119,43.1718427 16.1627119,45.9710145 C16.1627119,46.1863354 16.1627119,46.5093168 16.1627119,46.7246377 C17.2474576,46.7246377 18.1152542,46.1863354 18.6576271,45.4327122 C19.2,44.5714286 19.5254237,43.494824 19.5254237,42.0952381 C19.5254237,39.6190476 19.5254237,37.1428571 19.5254237,34.6666667 C19.5254237,32.1904762 20.8271186,30.252588 23.3220339,29.7142857 C26.4677966,29.1759834 29.179661,31.1138716 29.179661,34.3436853 C29.179661,35.7432712 29.179661,37.1428571 29.179661,38.757764 C29.179661,39.0807453 29.5050847,39.2960663 29.5050847,39.2960663 C29.5050847,39.6190476 29.7220339,39.8343685 29.7220339,39.8343685 C29.7220339,40.4803313 29.7220339,40.6956522 29.7220339,41.5569358 C30.2644068,41.5569358 30.9152542,41.5569358 31.1322034,41.5569358 C31.6745763,41.5569358 32,41.7722567 32,42.0952381 C32,42.6335404 32,43.1718427 32,44.0331263 C32,44.5714286 31.6745763,44.8944099 31.1322034,44.8944099 C29.179661,44.8944099 27.0101695,44.8944099 25.0576271,44.8944099 C24.5152542,44.8944099 24.1898305,44.5714286 24.1898305,44.0331263 C24.1898305,43.494824 24.1898305,42.9565217 24.1898305,42.0952381 C24.1898305,41.5569358 24.5152542,41.2339545 25.0576271,41.5569358 C25.6,41.5569358 25.8169492,41.5569358 26.4677966,41.5569358 C26.4677966,41.0186335 26.4677966,40.6956522 26.4677966,40.4803313 C26.4677966,39.8343685 26.4677966,39.6190476 27.0101695,39.2960663 C27.0101695,39.2960663 27.0101695,39.0807453 27.0101695,38.757764 C27.0101695,37.3581781 27.0101695,36.0662526 27.0101695,34.6666667 C27.0101695,32.9440994 25.8169492,31.8674948 24.1898305,31.8674948 C22.5627119,31.8674948 21.4779661,32.9440994 21.4779661,34.6666667 C21.4779661,37.1428571 21.4779661,39.6190476 21.4779661,42.0952381 C21.4779661,43.494824 21.1525424,44.5714286 20.6101695,45.6480331 C20.0677966,47.047619 18.8745763,47.9089027 17.5728814,48.447205 C17.5728814,48.447205 17.2474576,48.447205 17.2474576,48.6625259 C18.3322034,49.2008282 18.8745763,50.0621118 20.2847458,50.0621118 C21.1525424,50.0621118 21.4779661,50.6004141 21.4779661,51.1387164 C21.4779661,51.7846791 20.8271186,52 20.2847458,52 C19.2,52 18.3322034,51.7846791 17.5728814,51.1387164 C17.2474576,50.9233954 16.7050847,50.6004141 16.379661,50.3850932 C16.1627119,50.9233954 16.1627119,51.4616977 15.8372881,51.4616977 C15.620339,51.7846791 15.0779661,51.7846791 14.5355932,51.7846791 C11.9322034,51.7846791 9.43728814,51.7846791 6.94237288,51.7846791 C5.64067797,51.7846791 5.31525424,51.4616977 5.31525424,50.0621118 C4.77288136,50.6004141 3.90508475,50.9233954 3.36271186,51.4616977 C2.49491525,52 1.41016949,52 0.650847458,51.7846791 C0.325423729,51.7846791 0,51.1387164 0,50.9233954 C0,50.6004141 0.325423729,50.3850932 0.650847458,49.8467909 C0.650847458,49.8467909 0.86779661,49.8467909 0.86779661,49.8467909 C2.82033898,49.8467909 3.68813559,48.447205 4.98983051,47.5859213 C5.31525424,47.5859213 5.31525424,47.047619 5.31525424,46.7246377 C5.31525424,41.2339545 5.31525424,35.4202899 5.31525424,29.9296066 C5.31525424,26.699793 5.31525424,23.0393375 5.31525424,19.8095238 C5.31525424,19.4865424 5.31525424,19.1635611 4.77288136,18.9482402 C4.98983051,19.4865424 4.98983051,18.9482402 4.98983051,18.4099379 C4.98983051,17.8716356 5.64067797,17.5486542 6.18305085,17.5486542 C7.59322034,17.5486542 8.6779661,17.5486542 10.0881356,17.5486542 C10.0881356,17.5486542 10.0881356,17.5486542 10.3050847,17.5486542 Z" id="Path"></path>
        </g>
    </g>
</svg>