<?xml version="1.0" encoding="UTF-8"?>
<svg width="64px" height="64px" viewBox="0 0 64 64" version="1.1" xmlns="http://www.w3.org/2000/svg" xmlns:xlink="http://www.w3.org/1999/xlink">
    <!-- Generator: Sketch 52.6 (67491) - http://www.bohemiancoding.com/sketch -->
    <title>bike-guard</title>
    <desc>Created with Sketch.</desc>
    <g id="bike-guard" stroke="none" stroke-width="1" fill="none" fill-rule="evenodd">
        <g id="icon-bike-guard" transform="translate(6.000000, 7.000000)" fill="#000000" fill-rule="nonzero">
            <path d="M41.9836066,34.006263 C40.9180328,34.006263 39.5327869,34.2192067 38.4672131,34.7515658 L34.9508197,28.4697286 L35.4836066,26.6597077 C37.0819672,26.3402923 37.9344262,24.743215 37.9344262,24.4237996 C37.9344262,24.2108559 37.7213115,24.2108559 37.7213115,24.2108559 L30.0491803,24.2108559 C29.7295082,24.2108559 29.1967213,24.4237996 29.1967213,24.9561587 C29.1967213,25.4885177 29.7295082,25.8079332 29.7295082,25.8079332 L33.0327869,26.6597077 L32.1803279,28.7891441 L15.8770492,28.7891441 C16.0901639,27.9373695 16.0901639,27.7244259 16.0901639,27.7244259 C16.0901639,27.7244259 16.4098361,27.1920668 16.4098361,27.1920668 C16.4098361,26.3402923 15.8770492,25.4885177 15.3442623,25.4885177 C15.3442623,25.4885177 15.0245902,25.4885177 15.0245902,25.2755741 C15.0245902,24.9561587 15.3442623,24.743215 15.557377,24.743215 L18.8606557,24.743215 L18.8606557,21.9749478 L15.0245902,21.9749478 C15.0245902,21.9749478 12.8934426,22.2943633 12.8934426,24.4237996 C12.8934426,25.8079332 13.4262295,26.0208768 13.9590164,26.3402923 C14.1721311,26.3402923 14.1721311,26.8726514 14.1721311,27.1920668 C14.1721311,27.4050104 13.1065574,31.2379958 12.2540984,34.5386221 C11.1885246,34.2192067 10.442623,34.006263 9.05737705,34.006263 C4.1557377,34.006263 0,38.0521921 0,42.9498956 C0,47.8475992 4.1557377,52 9.05737705,52 C13.9590164,52 18.0081967,47.8475992 18.0081967,42.9498956 C18.0081967,39.9686848 16.6229508,37.2004175 14.1721311,35.6033403 C14.1721311,35.2839248 14.4918033,34.7515658 14.4918033,34.5386221 L24.8278689,41.565762 C24.8278689,41.8851775 24.6147541,42.4175365 24.6147541,42.736952 C24.6147541,44.8663883 26.2131148,46.4634656 28.3442623,46.4634656 C28.6639344,46.4634656 29.1967213,46.4634656 29.5163934,46.2505219 L30.0491803,47.3152401 L29.1967213,47.3152401 L29.1967213,48.3799582 L30.2622951,48.3799582 C30.5819672,48.6993737 30.9016393,48.9123173 31.1147541,48.9123173 C31.4344262,48.9123173 31.647541,48.6993737 31.9672131,48.3799582 L33.0327869,48.3799582 L33.0327869,47.3152401 L31.4344262,47.3152401 L30.5819672,45.7181628 C31.4344262,45.1858038 31.9672131,44.3340292 32.1803279,43.4822547 L33.0327869,43.4822547 C33.5655738,48.1670146 37.4016393,51.6805846 41.9836066,51.6805846 C46.9918033,51.6805846 51.0409836,47.6346555 51.0409836,42.736952 C51.0409836,37.8392484 46.9918033,34.006263 41.9836066,34.006263 Z M15.557377,42.736952 C15.557377,46.2505219 12.8934426,48.9123173 9.2704918,48.9123173 C5.75409836,48.9123173 2.98360656,46.2505219 2.98360656,42.736952 C2.98360656,39.1169102 5.75409836,36.4551148 9.2704918,36.4551148 C10.1229508,36.4551148 10.9754098,36.6680585 11.7213115,36.9874739 C11.5081967,38.0521921 11.1885246,38.5845511 11.1885246,38.5845511 C11.1885246,38.5845511 10.9754098,40.2881002 9.05737705,41.8851775 C8.73770492,41.8851775 8.52459016,42.0981211 8.52459016,42.736952 C8.52459016,43.2693111 8.73770492,43.4822547 9.2704918,43.4822547 C9.80327869,43.4822547 12.5737705,42.736952 13.1065574,40.2881002 C13.1065574,40.2881002 13.4262295,39.4363257 13.6393443,38.3716075 C14.704918,39.4363257 15.557377,41.0334029 15.557377,42.736952 Z M15.3442623,32.0897704 C15.3442623,31.5574113 15.557377,31.2379958 15.557377,30.7056367 L31.647541,30.7056367 L28.6639344,38.9039666 C28.6639344,38.9039666 28.6639344,38.9039666 28.3442623,38.9039666 C28.1311475,38.9039666 27.5983607,38.9039666 27.2786885,39.1169102 L26.7459016,38.0521921 L27.8114754,38.0521921 L27.8114754,36.9874739 L26.7459016,36.9874739 C26.5327869,36.6680585 26.2131148,36.4551148 25.8934426,36.4551148 C25.6803279,36.4551148 25.3606557,36.6680585 25.147541,36.9874739 L24.295082,36.9874739 L24.295082,38.0521921 L25.8934426,38.0521921 L26.7459016,39.6492693 C26.7459016,39.6492693 26.5327869,39.6492693 26.5327869,39.9686848 L15.3442623,32.0897704 Z M28.6639344,45.1858038 C27.2786885,45.1858038 26.2131148,44.0146138 26.2131148,42.736952 C26.2131148,41.3528184 27.2786885,40.2881002 28.6639344,40.2881002 C30.0491803,40.2881002 31.1147541,41.3528184 31.1147541,42.736952 C31.1147541,44.0146138 30.0491803,45.1858038 28.6639344,45.1858038 Z M33.0327869,42.0981211 L32.1803279,42.0981211 C31.9672131,41.3528184 31.4344262,40.5010438 30.9016393,39.9686848 L34.0983607,31.2379958 L36.8688525,35.9227557 C34.6311475,37.2004175 33.352459,39.4363257 33.0327869,42.0981211 Z M37.9344262,38.0521921 L40.1721311,42.0981211 L35.8032787,42.0981211 C36.0163934,40.5010438 36.8688525,39.1169102 37.9344262,38.0521921 Z M41.9836066,49.2317328 C38.7868852,49.2317328 36.3360656,46.782881 35.8032787,43.8016701 L41.9836066,43.8016701 C42.3032787,43.8016701 43.1557377,43.8016701 43.1557377,42.9498956 C43.1557377,42.736952 42.8360656,42.4175365 42.8360656,42.4175365 L39.852459,36.9874739 C40.3852459,36.6680585 41.2377049,36.6680585 41.9836066,36.6680585 C45.6065574,36.6680585 48.2704918,39.4363257 48.2704918,42.9498956 C48.2704918,46.2505219 45.6065574,49.2317328 41.9836066,49.2317328 Z M51.0409836,6.81419624 L49.442623,6.81419624 L49.442623,4.36534447 C49.442623,1.59707724 48.057377,0 45.6065574,0 C43.1557377,0 41.7704918,1.59707724 41.7704918,4.36534447 L41.7704918,6.49478079 L39.852459,6.49478079 C39.3196721,6.49478079 38.7868852,7.02713987 38.7868852,7.66597077 L38.7868852,15.2254697 C38.7868852,15.7578288 39.3196721,16.3966597 39.5327869,16.6096033 L40.704918,17.1419624 C41.2377049,17.1419624 41.9836066,17.4613779 42.6229508,17.4613779 L48.057377,17.4613779 C48.5901639,17.4613779 49.442623,17.4613779 49.9754098,17.1419624 L51.0409836,16.9290188 C51.5737705,16.6096033 51.8934426,16.0772443 51.8934426,15.5448852 L51.8934426,7.87891441 C52.1065574,7.34655532 51.3606557,6.81419624 51.0409836,6.81419624 Z M47.204918,7.81419624 L43.3688525,7.81419624 L43.3688525,5.04592902 C43.3688525,3.76826722 44.2213115,2.91649269 45.2868852,2.91649269 C46.352459,2.91649269 47.204918,3.76826722 47.204918,5.04592902 L47.204918,7.81419624 Z" id="Shape"></path>
        </g>
    </g>
</svg>