<?xml version="1.0" encoding="UTF-8"?>
<svg width="64px" height="64px" viewBox="0 0 64 64" version="1.1" xmlns="http://www.w3.org/2000/svg" xmlns:xlink="http://www.w3.org/1999/xlink">
    <!-- Generator: Sketch 52.6 (67491) - http://www.bohemiancoding.com/sketch -->
    <title>bike-rack</title>
    <desc>Created with Sketch.</desc>
    <g id="bike-rack" stroke="none" stroke-width="1" fill="none" fill-rule="evenodd">
        <g id="icon-bike-rack" transform="translate(6.000000, 14.000000)" fill="#000000">
            <path d="M4.46403712,18.180602 C3.2575406,19.6254181 3.2575406,21.1906355 3.2575406,22.7558528 C3.2575406,26.1270903 3.2575406,29.8595318 3.2575406,33.2307692 C3.2575406,33.5919732 3.2575406,33.8327759 3.2575406,34.4347826 C3.2575406,35.3979933 2.53364269,36 1.68909513,36 C0.723897912,36 0.120649652,35.3979933 0.120649652,34.4347826 C0.120649652,29.8595318 -0.241299304,25.1638796 0.482598608,20.5886288 C0.723897912,18.180602 2.29234339,16.0133779 4.10208817,14.4481605 C4.46403712,13.4849498 5.06728538,13.2441472 5.06728538,12.2809365 C5.06728538,11.9197324 5.30858469,11.3177258 5.67053364,11.0769231 C8.20417633,8.54849498 10.0139211,5.53846154 12.1856148,2.76923077 C13.7540603,0.842809365 16.1670534,0 18.7006961,0 C26.6635731,0 34.3851508,0 42.4686775,0 C47.6566125,0 52,4.21404682 52,9.51170569 C52,13.4849498 52,17.458194 52,21.5518395 C52,22.7558528 51.3967517,23.3578595 50.4315545,23.3578595 C49.225058,23.3578595 48.863109,22.3946488 48.863109,21.5518395 C48.863109,17.819398 48.863109,14.4481605 48.863109,10.7157191 C48.863109,5.77926421 46.0881671,3.01003344 41.1415313,3.01003344 C33.7819026,3.01003344 26.6635731,3.01003344 19.3039443,3.01003344 C17.1322506,3.01003344 15.2018561,3.97324415 13.7540603,5.77926421 C13.9953596,6.14046823 14.5986079,6.14046823 14.9605568,6.14046823 C22.3201856,6.14046823 29.800464,6.14046823 37.1600928,6.14046823 C43.3132251,6.14046823 47.6566125,10.4749164 47.6566125,16.6153846 C47.6566125,20.2274247 47.6566125,23.9598662 47.6566125,27.6923077 C47.6566125,28.6555184 47.6566125,29.2575251 46.812065,29.8595318 C45.4849188,30.4615385 44.6403712,29.4983278 44.6403712,27.9331104 C44.6403712,25.1638796 44.6403712,22.3946488 44.6403712,19.6254181 C44.6403712,18.4214047 44.6403712,17.458194 44.6403712,16.2541806 C44.6403712,12.2809365 41.8654292,9.51170569 37.7633411,9.51170569 C30.0417633,9.51170569 22.3201856,9.51170569 14.5986079,9.51170569 C13.7540603,9.15050167 12.4269142,8.54849498 12.4269142,10.4749164 C12.4269142,11.6789298 12.7888631,12.2809365 13.9953596,12.2809365 C20.1484919,12.2809365 26.0603248,12.2809365 32.2134571,12.2809365 C38.7285383,12.2809365 43.0719258,16.6153846 43.0719258,23.1170569 C43.0719258,26.729097 43.0719258,30.1003344 43.0719258,33.8327759 C43.0719258,34.7959866 43.0719258,35.3979933 42.1067285,35.638796 C40.900232,36.361204 39.6937355,35.3979933 39.6937355,33.8327759 C39.6937355,30.1003344 39.3317865,26.4882943 39.6937355,23.1170569 C39.9350348,18.7826087 36.5568445,15.4113712 32.2134571,15.6521739 C26.0603248,16.0133779 19.9071926,15.6521739 13.7540603,15.6521739 C12.7888631,15.6521739 12.4269142,16.0133779 12.4269142,16.8561873 C12.4269142,18.4214047 12.4269142,19.9866221 12.4269142,21.5518395 C12.4269142,22.7558528 12.1856148,23.7190635 10.9791183,23.7190635 C10.0139211,23.7190635 9.41067285,23.1170569 9.41067285,21.5518395 C9.41067285,19.9866221 9.41067285,18.180602 9.41067285,16.6153846 C9.41067285,16.2541806 9.65197216,15.6521739 9.0487239,15.6521739 C8.44547564,15.6521739 8.20417633,16.0133779 8.20417633,16.6153846 C8.20417633,19.9866221 8.20417633,23.3578595 8.20417633,26.729097 C8.20417633,27.090301 8.20417633,27.6923077 8.20417633,27.9331104 C8.20417633,28.8963211 7.48027842,29.8595318 6.63573086,29.8595318 C5.30858469,29.8595318 5.06728538,29.2575251 5.06728538,27.9331104 C5.06728538,25.5250836 5.06728538,22.7558528 5.06728538,20.2274247 C4.46403712,19.3846154 4.46403712,19.0234114 4.46403712,18.180602 Z" id="Path"></path>
        </g>
    </g>
</svg>