<?xml version="1.0" encoding="UTF-8"?>
<svg width="64px" height="64px" viewBox="0 0 64 64" version="1.1" xmlns="http://www.w3.org/2000/svg" xmlns:xlink="http://www.w3.org/1999/xlink">
    <!-- Generator: Sketch 52.6 (67491) - http://www.bohemiancoding.com/sketch -->
    <title>bike</title>
    <desc>Created with Sketch.</desc>
    <g id="bike" stroke="none" stroke-width="1" fill="none" fill-rule="evenodd">
        <g id="icon-bike" transform="translate(6.000000, 17.000000)" fill="#000000" fill-rule="nonzero">
            <path d="M43.1882845,12.0212766 C41.7740586,12.0212766 40.6861925,12.2340426 39.5983264,12.8723404 L36.0083682,6.59574468 L36.5523013,4.68085106 C38.5104603,4.36170213 39.0543933,2.76595745 39.0543933,2.44680851 C39.0543933,2.23404255 38.7280335,2.23404255 38.7280335,2.23404255 L31.0041841,2.23404255 C30.6778243,2.23404255 30.1338912,2.44680851 30.1338912,2.9787234 C30.1338912,3.5106383 30.6778243,3.82978723 30.6778243,3.82978723 L34.0502092,4.68085106 L33.5062762,6.80851064 L16.7531381,6.80851064 C17.0794979,6.06382979 17.0794979,5.42553191 17.0794979,5.42553191 C17.0794979,5.42553191 17.2970711,4.89361702 17.2970711,4.89361702 C17.2970711,4.14893617 16.4267782,3.29787234 16.209205,3.29787234 C16.209205,3.29787234 15.8828452,3.29787234 15.8828452,2.9787234 C15.8828452,2.76595745 16.209205,2.44680851 16.4267782,2.44680851 L20.125523,2.44680851 L20.125523,0 L15.3389121,0 C15.3389121,0 13.1631799,0.319148936 13.1631799,2.44680851 C13.1631799,3.82978723 13.707113,4.14893617 14.251046,4.36170213 C14.4686192,4.36170213 14.4686192,4.89361702 14.4686192,5.21276596 C14.4686192,5.42553191 13.3807531,9.25531915 12.6192469,12.5531915 C11.4225941,12.2340426 10.334728,12.0212766 9.24686192,12.0212766 C4.24267782,12.0212766 0,16.0638298 0,20.9574468 C0,25.8510638 4.24267782,30 9.24686192,30 C14.251046,30 18.3849372,25.8510638 18.3849372,20.9574468 C18.3849372,17.9787234 17.0794979,15.3191489 14.4686192,13.6170213 C14.4686192,13.4042553 14.7949791,12.8723404 14.7949791,12.5531915 L25.3472803,19.893617 C25.3472803,20.212766 25.1297071,20.7446809 25.1297071,20.9574468 C25.1297071,23.1914894 26.7615063,24.787234 29.0460251,24.787234 C29.2635983,24.787234 29.8075314,24.787234 30.1338912,24.5744681 L30.6778243,25.6382979 L29.5899582,25.6382979 L29.5899582,26.7021277 L30.6778243,26.7021277 C31.0041841,27.0212766 31.2217573,27.2340426 31.5481172,27.2340426 C31.7656904,27.2340426 32.0920502,27.0212766 32.3096234,26.7021277 L33.5062762,26.7021277 L33.5062762,25.8510638 L31.7656904,25.8510638 L31.0041841,24.2553191 C31.7656904,23.7234043 32.3096234,22.8723404 32.6359833,21.8085106 L33.5062762,21.8085106 C34.0502092,26.4893617 37.9665272,30 42.6443515,30 C47.6485356,30 51.8912134,25.8510638 51.8912134,20.9574468 C52.4351464,16.0638298 48.1924686,12.0212766 43.1882845,12.0212766 Z M15.8828452,20.9574468 C15.8828452,24.5744681 13.1631799,27.2340426 9.46443515,27.2340426 C5.87447699,27.2340426 3.15481172,24.5744681 3.15481172,20.9574468 C3.15481172,17.4468085 5.87447699,14.6808511 9.46443515,14.6808511 C10.334728,14.6808511 11.2050209,15 11.9665272,15.3191489 C11.748954,16.3829787 11.4225941,16.9148936 11.4225941,16.9148936 C11.4225941,16.9148936 11.2050209,18.5106383 8.92050209,20.212766 C8.70292887,20.212766 8.37656904,20.4255319 8.37656904,20.9574468 C8.37656904,21.4893617 8.70292887,21.8085106 9.24686192,21.8085106 C9.79079498,21.8085106 12.6192469,20.9574468 13.1631799,18.5106383 C13.1631799,18.5106383 13.3807531,17.7659574 13.707113,16.3829787 C15.1213389,17.7659574 15.8828452,19.3617021 15.8828452,20.9574468 Z M15.665272,10.3191489 C15.665272,9.78723404 15.8828452,9.57446809 15.8828452,9.04255319 L32.6359833,9.04255319 L29.5899582,17.1276596 C29.5899582,17.1276596 29.5899582,17.1276596 29.2635983,17.1276596 C29.0460251,17.1276596 28.3933054,17.1276596 28.1757322,17.4468085 L27.6317992,16.3829787 L28.7196653,16.3829787 L28.7196653,15 L27.6317992,15 C27.3054393,14.6808511 27.0878661,14.4680851 26.7615063,14.4680851 C26.5439331,14.4680851 26.2175732,14.6808511 25.8912134,15 L24.8033473,15 L24.8033473,16.0638298 L26.5439331,16.0638298 L27.3054393,17.7659574 C27.3054393,17.7659574 27.0878661,17.7659574 27.0878661,17.9787234 L15.665272,10.3191489 Z M29.2635983,23.4042553 C27.8493724,23.4042553 26.7615063,22.3404255 26.7615063,20.9574468 C26.7615063,19.6808511 27.8493724,18.5106383 29.2635983,18.5106383 C30.6778243,18.5106383 31.7656904,19.6808511 31.7656904,20.9574468 C31.7656904,22.3404255 30.6778243,23.4042553 29.2635983,23.4042553 Z M34.0502092,20.212766 L33.1799163,20.212766 C32.8535565,19.3617021 32.3096234,18.5106383 31.7656904,17.9787234 L35.1380753,9.25531915 L37.9665272,13.9361702 C35.6820084,15.3191489 34.2677824,17.7659574 34.0502092,20.212766 Z M39.0543933,16.0638298 L41.2301255,20.212766 L36.5523013,20.212766 C36.7698745,18.5106383 37.6401674,17.1276596 39.0543933,16.0638298 Z M43.1882845,27.5531915 C39.8158996,27.5531915 37.0962343,25.106383 36.7698745,22.1276596 L43.1882845,22.1276596 C43.5146444,22.1276596 44.2761506,22.1276596 44.2761506,21.2765957 C44.2761506,20.9574468 44.0585774,20.7446809 44.0585774,20.7446809 L40.6861925,15.3191489 C41.2301255,15 42.1004184,15 42.9707113,15 C46.5606695,15 49.2803347,17.7659574 49.2803347,21.2765957 C49.6066946,24.5744681 46.7782427,27.5531915 43.1882845,27.5531915 Z" id="Shape"></path>
        </g>
    </g>
</svg>