<?xml version="1.0" encoding="UTF-8"?>
<svg width="64px" height="64px" viewBox="0 0 64 64" version="1.1" xmlns="http://www.w3.org/2000/svg" xmlns:xlink="http://www.w3.org/1999/xlink">
    <!-- Generator: Sketch 52.6 (67491) - http://www.bohemiancoding.com/sketch -->
    <title>bike-hire</title>
    <desc>Created with Sketch.</desc>
    <g id="bike-hire" stroke="none" stroke-width="1" fill="none" fill-rule="evenodd">
        <g id="icon-bike-hire" transform="translate(6.000000, 12.000000)" fill="#000000" fill-rule="nonzero">
            <path d="M52,15.2923077 C52,14.9692308 52,14.7538462 51.4537815,14.7538462 C50.3613445,14.7538462 48.9411765,14.7538462 47.8487395,14.7538462 C47.302521,14.7538462 46.6470588,14.9692308 46.4285714,14.7538462 C46.1008403,14.4307692 46.1008403,13.8923077 45.8823529,13.3538462 C42.1680672,3.98461538 32.1176471,-1.50769231 22.394958,0.430769231 C14.2016807,2.04615385 8.6302521,6.67692308 5.89915966,14.4307692 C5.89915966,14.7538462 5.57142857,14.9692308 5.35294118,14.9692308 C3.60504202,14.9692308 2.18487395,14.9692308 0.546218487,14.9692308 C0,14.9692308 0,14.9692308 0,15.5076923 C0,17.4461538 0,19.1692308 0,21.1076923 C0,22.9384615 0,24.6615385 0,26.6 C0,27.1384615 0,27.1384615 0.546218487,27.1384615 C1.96638655,27.1384615 3.60504202,27.1384615 5.02521008,27.1384615 C5.57142857,27.1384615 5.89915966,27.3538462 5.89915966,28 C9.50420168,38.1230769 20.4285714,44.2615385 31.0252101,41.1384615 C38.3445378,39.3076923 43.0420168,34.5692308 45.5546218,27.6769231 C45.8823529,27.3538462 45.8823529,27.1384615 46.4285714,27.1384615 C48.0672269,27.1384615 49.487395,27.1384615 51.1260504,27.1384615 C51.4537815,27.1384615 51.7815126,27.1384615 51.7815126,26.6 C52,22.7230769 52,18.8461538 52,15.2923077 Z M50.907563,25.2 C49.1596639,25.2 47.5210084,25.2 45.8823529,25.2 C45.3361345,25.2 45.0084034,25.5230769 45.0084034,26.0615385 C43.0420168,33.4923077 36.3781513,38.9846154 28.512605,40.0615385 C19.0084034,41.1384615 9.83193277,35.1076923 7.21008403,25.7384615 C7.21008403,25.2 6.99159664,25.2 6.66386555,25.2 C5.35294118,25.2 3.60504202,25.2 2.18487395,25.2 C1.96638655,25.2 1.96638655,25.2 1.63865546,25.2 C1.63865546,22.1846154 1.63865546,19.1692308 1.63865546,16.0461538 C2.18487395,16.0461538 2.84033613,16.0461538 3.38655462,16.0461538 C4.4789916,16.0461538 5.57142857,16.0461538 6.99159664,16.0461538 C7.21008403,16.0461538 7.53781513,16.0461538 7.53781513,15.5076923 C8.95798319,10.3384615 12.3445378,6.13846154 17.3697479,3.44615385 C24.907563,-0.753846154 34.6302521,0.646153846 40.5294118,7 C42.8235294,9.47692308 44.4621849,12.2769231 45.3361345,15.5076923 C45.3361345,16.0461538 45.5546218,16.0461538 46.1008403,16.0461538 C47.8487395,16.0461538 49.487395,16.0461538 51.1260504,16.0461538 C50.907563,19.1692308 50.907563,22.1846154 50.907563,25.2 Z M3.05882353,17.2307692 C2.51260504,17.2307692 2.51260504,17.4461538 2.51260504,17.9846154 C2.51260504,19.7076923 2.51260504,21.6461538 2.51260504,23.2615385 C2.51260504,24.1230769 2.51260504,24.1230769 3.38655462,24.1230769 C18.6806723,24.1230769 33.8655462,24.1230769 49.1596639,24.1230769 C49.487395,24.1230769 49.487395,24.1230769 49.8151261,24.1230769 C49.8151261,21.8615385 49.8151261,19.9230769 49.8151261,17.9846154 C49.8151261,17.4461538 49.487395,17.4461538 49.1596639,17.4461538 C38.5630252,17.4461538 28.1848739,17.4461538 17.5882353,17.4461538 C12.5630252,17.2307692 7.86554622,17.2307692 3.05882353,17.2307692 Z M16.8235294,21.1076923 C16.8235294,20.7846154 16.8235294,20.4615385 16.8235294,20.2461538 C16.8235294,20.4615385 16.8235294,20.7846154 16.8235294,21.1076923 Z M17.3697479,19.7076923 C17.3697479,19.3846154 17.5882353,19.3846154 17.9159664,19.3846154 C17.5882353,19.3846154 17.3697479,19.3846154 17.3697479,19.7076923 Z M16.1680672,21.6461538 C16.1680672,21.3230769 15.9495798,21.1076923 15.9495798,20.7846154 C15.9495798,21.1076923 16.1680672,21.3230769 16.1680672,21.6461538 C16.4957983,22.4 17.3697479,22.7230769 18.1344538,22.7230769 C17.3697479,22.7230769 16.4957983,22.1846154 16.1680672,21.6461538 Z M23.8151261,21.6461538 C24.0336134,22.1846154 24.5798319,22.7230769 25.4537815,22.7230769 C24.5798319,22.7230769 24.0336134,22.1846154 23.8151261,21.6461538 Z M26.8739496,19.7076923 C26.8739496,19.7076923 26.8739496,19.3846154 26.8739496,19.7076923 C26.8739496,19.3846154 26.8739496,19.7076923 26.8739496,19.7076923 Z M24.3613445,21.6461538 C24.5798319,21.8615385 25.1260504,22.1846154 25.4537815,22.1846154 C25.1260504,22.1846154 24.907563,21.8615385 24.3613445,21.6461538 C24.0336134,21.1076923 24.0336134,20.4615385 24.3613445,19.9230769 C24.5798319,19.7076923 24.907563,19.3846154 25.1260504,19.3846154 C24.907563,19.3846154 24.5798319,19.7076923 24.3613445,19.9230769 C24.0336134,20.2461538 24.0336134,21.1076923 24.3613445,21.6461538 Z M26.3277311,22.7230769 C26.8739496,22.7230769 27.092437,22.4 26.8739496,21.8615385 C27.092437,22.1846154 26.8739496,22.4 26.3277311,22.7230769 Z M32.6638655,20.7846154 C32.6638655,20.4615385 32.6638655,20.2461538 32.6638655,20.2461538 C32.6638655,20.4615385 32.6638655,20.4615385 32.6638655,20.7846154 Z M31.8991597,20.2461538 C31.5714286,20.2461538 31.5714286,20.2461538 31.8991597,20.2461538 C31.5714286,20.2461538 31.5714286,20.2461538 31.8991597,20.2461538 C31.8991597,20.2461538 32.1176471,20.2461538 32.1176471,20.2461538 C32.1176471,20.2461538 31.8991597,20.2461538 31.8991597,20.2461538 Z M32.6638655,21.8615385 C32.1176471,21.8615385 31.8991597,21.8615385 31.3529412,21.8615385 C31.5714286,21.8615385 32.1176471,22.1846154 32.6638655,21.8615385 Z M31.3529412,19.3846154 C31.3529412,19.3846154 31.5714286,19.3846154 31.5714286,19.3846154 C31.5714286,19.3846154 31.3529412,19.3846154 31.3529412,19.3846154 Z M34.6302521,22.1846154 C34.6302521,22.1846154 34.9579832,22.1846154 34.9579832,22.1846154 C34.9579832,21.8615385 34.9579832,22.1846154 34.6302521,22.1846154 Z M36.0504202,21.6461538 C36.0504202,22.1846154 35.8319328,22.4 35.1764706,22.4 C35.8319328,22.4 36.0504202,22.1846154 36.0504202,21.6461538 C36.0504202,21.3230769 36.0504202,21.1076923 35.8319328,20.7846154 C35.5042017,20.4615385 35.5042017,20.4615385 35.1764706,20.2461538 C35.1764706,20.2461538 34.9579832,20.2461538 34.9579832,19.9230769 C34.9579832,19.9230769 35.1764706,19.9230769 35.1764706,20.2461538 C35.5042017,20.2461538 35.8319328,20.4615385 35.8319328,20.7846154 C36.0504202,21.1076923 36.0504202,21.3230769 36.0504202,21.6461538 Z M34.4117647,19.3846154 C34.4117647,19.3846154 34.6302521,19.3846154 34.6302521,19.3846154 C34.6302521,19.3846154 34.9579832,19.3846154 35.1764706,19.3846154 C35.1764706,19.3846154 35.5042017,19.3846154 35.5042017,19.7076923 C35.5042017,19.7076923 35.1764706,19.3846154 35.1764706,19.3846154 C35.1764706,19.3846154 34.9579832,19.3846154 34.6302521,19.3846154 C34.6302521,19.3846154 34.4117647,19.3846154 34.4117647,19.3846154 C34.0840336,19.7076923 34.4117647,19.7076923 34.4117647,19.9230769 C34.4117647,19.7076923 34.4117647,19.7076923 34.4117647,19.3846154 Z M35.1764706,18.6307692 C34.9579832,18.6307692 34.6302521,18.6307692 34.4117647,18.6307692 C34.9579832,18.6307692 35.1764706,18.6307692 35.1764706,18.6307692 Z M34.4117647,20.7846154 C34.6302521,21.1076923 34.9579832,21.1076923 35.1764706,21.3230769 C34.9579832,21.1076923 34.6302521,20.7846154 34.4117647,20.7846154 C33.8655462,20.4615385 33.5378151,19.9230769 33.8655462,19.7076923 C33.5378151,19.9230769 33.8655462,20.4615385 34.4117647,20.7846154 Z M33.8655462,21.6461538 C33.8655462,21.6461538 33.5378151,21.8615385 33.3193277,21.8615385 C33.3193277,21.8615385 33.3193277,21.8615385 33.3193277,22.1846154 C33.3193277,22.1846154 33.3193277,22.1846154 33.3193277,21.8615385 C33.5378151,21.8615385 33.8655462,21.6461538 33.8655462,21.6461538 Z M32.9915966,19.3846154 C32.9915966,19.3846154 32.9915966,19.1692308 32.9915966,19.1692308 C32.9915966,19.1692308 32.9915966,19.1692308 32.9915966,19.3846154 Z M28.1848739,18.6307692 C27.9663866,18.6307692 27.6386555,18.6307692 27.6386555,18.6307692 C27.6386555,18.8461538 27.9663866,18.8461538 28.1848739,18.6307692 Z M29.3865546,22.7230769 C29.605042,22.7230769 29.9327731,22.7230769 29.9327731,22.4 C29.9327731,22.7230769 29.9327731,22.7230769 29.3865546,22.7230769 C28.8403361,22.7230769 28.1848739,22.7230769 27.4201681,22.7230769 C28.1848739,22.7230769 28.8403361,22.7230769 29.3865546,22.7230769 Z M26.8739496,19.1692308 C26.8739496,18.8461538 26.5462185,18.8461538 26.5462185,18.8461538 C26.5462185,18.8461538 26.8739496,19.1692308 26.8739496,19.1692308 Z M24.907563,18.8461538 C25.1260504,18.8461538 25.4537815,18.8461538 25.6722689,18.8461538 C25.4537815,18.6307692 25.1260504,18.6307692 24.907563,18.8461538 C24.5798319,18.8461538 24.0336134,19.1692308 24.0336134,19.3846154 C24.0336134,19.1692308 24.3613445,18.8461538 24.907563,18.8461538 Z M21.8487395,22.1846154 C21.8487395,20.7846154 22.6134454,19.9230769 23.1596639,18.8461538 C22.9411765,18.8461538 22.9411765,18.8461538 22.6134454,18.8461538 C22.6134454,18.8461538 22.9411765,18.8461538 23.1596639,18.8461538 C22.6134454,19.9230769 21.8487395,20.7846154 21.8487395,22.1846154 Z M22.6134454,18.8461538 C22.394958,18.8461538 22.394958,19.1692308 22.394958,19.3846154 C22.0672269,19.3846154 21.8487395,19.9230769 21.5210084,20.2461538 C21.8487395,19.9230769 21.8487395,19.7076923 22.0672269,19.1692308 C22.394958,18.8461538 22.394958,18.8461538 22.6134454,18.8461538 Z M19.8823529,18.8461538 C20.1008403,19.1692308 20.1008403,19.3846154 20.4285714,19.7076923 C20.1008403,19.3846154 20.1008403,19.1692308 19.8823529,18.8461538 Z M19.5546218,19.3846154 C19.5546218,19.1692308 19.5546218,18.8461538 19.3361345,18.8461538 C19.3361345,18.8461538 19.5546218,19.3846154 19.5546218,19.3846154 Z M18.1344538,18.6307692 C17.9159664,18.6307692 17.9159664,18.6307692 17.5882353,18.6307692 C17.5882353,18.6307692 17.9159664,18.6307692 18.1344538,18.6307692 Z M27.4201681,33.1692308 C30.4789916,32.9538462 33.3193277,31.5538462 35.5042017,29.2923077 C36.5966387,28.2153846 37.4705882,26.8153846 38.0168067,25.2 C30.1512605,25.2 22.394958,25.2 14.5294118,25.2 C15.4033613,29.8307692 21.8487395,33.7076923 27.4201681,33.1692308 Z M34.4117647,11.0923077 C31.8991597,9.15384615 29.3865546,8.07692308 26,8.07692308 C22.9411765,8.07692308 20.1008403,9.15384615 17.5882353,11.4153846 C16.1680672,12.8153846 15.0756303,14.2153846 14.2016807,16.0461538 C22.0672269,16.0461538 29.9327731,16.0461538 38.0168067,16.0461538 C37.1428571,14.2153846 36.0504202,12.4923077 34.4117647,11.0923077 Z" id="Shape"></path>
        </g>
    </g>
</svg>