<?xml version="1.0" encoding="UTF-8"?>
<svg width="64px" height="64px" viewBox="0 0 64 64" version="1.1" xmlns="http://www.w3.org/2000/svg" xmlns:xlink="http://www.w3.org/1999/xlink">
    <!-- Generator: Sketch 52.6 (67491) - http://www.bohemiancoding.com/sketch -->
    <title>bin-group</title>
    <desc>Created with Sketch.</desc>
    <g id="bin-group" stroke="none" stroke-width="1" fill="none" fill-rule="evenodd">
        <g id="icon-bin-group" transform="translate(7.000000, 6.000000)" fill="#000000" fill-rule="nonzero">
            <path d="M43.852459,29.5107632 C42.1106557,29.5107632 40.5737705,30.630137 39.9590164,32.258317 C39.3442623,33.8864971 39.6516393,35.7181996 40.8811475,36.9393346 C42.1106557,38.2622309 43.852459,38.5675147 45.3893443,37.9569472 C47.0286885,37.2446184 48.0532787,35.6164384 48.0532787,33.8864971 C48.0532787,31.444227 46.1065574,29.5107632 43.852459,29.5107632 Z M43.852459,36.0234834 C42.7254098,36.0234834 41.8032787,35.0058708 41.8032787,33.8864971 C41.8032787,33.3776908 42.0081967,32.7671233 42.4180328,32.4618395 C42.8278689,32.0547945 43.3401639,31.851272 43.852459,31.851272 C44.8770492,31.851272 45.7991803,32.7671233 45.7991803,33.8864971 C45.7991803,34.3953033 45.5942623,35.0058708 45.2868852,35.4129159 C44.8770492,35.7181996 44.3647541,36.0234834 43.852459,36.0234834 Z M46.7213115,0.40704501 C43.442623,0.610567515 40.0614754,0.40704501 36.7827869,0 C35.9631148,0 28.4836066,0 27.3565574,1.11937378 C27.3565574,1.11937378 27.0491803,1.32289628 26.9467213,1.52641879 C26.7418033,1.62818004 26.2295082,2.23874755 26.4344262,2.64579256 C26.6393443,3.05283757 27.0491803,2.74755382 27.4590164,2.74755382 L44.2622951,2.74755382 C44.6721311,2.74755382 45.2868852,2.54403131 45.1844262,3.35812133 C45.1844262,4.0704501 44.6721311,3.76516634 44.2622951,3.76516634 L42.4180328,3.76516634 C36.9877049,3.76516634 31.6598361,3.76516634 26.2295082,3.76516634 C25.8196721,3.76516634 25.102459,3.56164384 25.204918,4.47749511 C25.204918,5.29158513 24.897541,5.80039139 25.9221311,5.69863014 C26.0245902,5.69863014 26.2295082,5.69863014 26.3319672,5.69863014 C27.2540984,5.69863014 28.7909836,5.69863014 31.557377,5.69863014 L34.3237705,5.69863014 C35.5532787,5.80039139 36.7827869,6.30919765 37.602459,7.22504892 C38.5245902,8.24266145 38.9344262,9.46379648 38.8319672,10.7866928 C38.7295082,12.4148728 37.807377,13.8395303 36.3729508,14.6536204 C36.0655738,14.7553816 35.8606557,14.9589041 35.6557377,15.2641879 L34.6311475,15.9765166 C34.5286885,16.0782779 34.4262295,16.2818004 34.3237705,16.6888454 L33.6065574,24.5244618 C33.2991803,27.7808219 32.9918033,31.037182 32.6844262,34.2935421 L32.6844262,34.7005871 C33.8114754,35.0058708 34.8360656,35.6164384 35.6557377,36.4305284 L38.4221311,36.4305284 C37.5,34.4970646 37.704918,32.258317 38.7295082,30.5283757 C39.8565574,28.6966732 41.8032787,27.5772994 43.852459,27.6790607 L43.954918,27.6790607 C43.954918,27.5772994 43.954918,27.3737769 43.954918,27.2720157 C44.4672131,21.369863 45.0819672,15.5694716 45.5942623,9.66731898 C45.5942623,8.95499022 45.9016393,8.44618395 46.4139344,8.03913894 L47.3360656,7.22504892 C48.5655738,6.2074364 50,5.49510763 50,3.86692759 C50,1.9334638 48.5655738,0.40704501 46.7213115,0.40704501 Z M47.8483607,4.37573386 C47.6434426,4.37573386 47.4385246,4.2739726 47.3360656,4.0704501 C47.1311475,3.96868885 47.0286885,3.76516634 47.0286885,3.56164384 C47.0286885,3.05283757 47.4385246,2.74755382 47.8483607,2.64579256 C48.2581967,2.64579256 48.6680328,3.05283757 48.6680328,3.56164384 C48.6680328,3.96868885 48.2581967,4.37573386 47.8483607,4.37573386 Z M18.852459,43.2485323 C16.5983607,43.2485323 14.6516393,45.2837573 14.6516393,47.6242661 C14.6516393,50.0665362 16.5983607,52 18.852459,52 C21.1065574,52 23.0532787,50.0665362 23.0532787,47.6242661 C23.0532787,45.2837573 21.1065574,43.2485323 18.852459,43.2485323 Z M18.852459,49.7612524 C17.7254098,49.7612524 16.8032787,48.8454012 16.8032787,47.6242661 C16.8032787,47.1154599 17.1106557,46.6066536 17.4180328,46.1996086 C17.8278689,45.7925636 18.3401639,45.5890411 18.852459,45.5890411 C19.9795082,45.5890411 20.7991803,46.5048924 20.7991803,47.6242661 C20.7991803,48.2348337 20.5942623,48.7436399 20.2868852,49.1506849 C19.8770492,49.5577299 19.3647541,49.7612524 18.852459,49.7612524 Z M2.35655738,14.7553816 C2.35655738,14.7553816 2.04918033,15.0606654 1.8442623,15.2641879 C1.74180328,15.3659491 1.2295082,15.8747554 1.43442623,16.2818004 C1.63934426,16.6888454 2.04918033,16.4853229 2.45901639,16.4853229 L19.2622951,16.4853229 C19.6721311,16.4853229 20.2868852,16.2818004 20.1844262,16.9941292 C20.1844262,17.8082192 19.6721311,17.5029354 19.2622951,17.5029354 C18.852459,17.5029354 18.0327869,17.5029354 17.4180328,17.5029354 L1.2295082,17.5029354 C0.819672131,17.6046967 0.102459016,17.2994129 0.102459016,18.1135029 C0.102459016,18.927593 -0.204918033,19.5381605 0.922131148,19.4363992 C1.43442623,19.4363992 1.43442623,19.8434442 1.53688525,20.148728 C1.53688525,21.0645793 1.63934426,21.9804305 1.74180328,22.7945205 C2.56147541,31.6477495 3.48360656,40.3992172 4.30327869,49.2524462 C4.30327869,49.964775 4.61065574,50.1682975 5.22540984,50.1682975 L13.4221311,50.1682975 C12.704918,48.2348337 12.9098361,46.0978474 13.9344262,44.3679061 C15.0614754,42.6379648 16.9057377,41.6203523 18.852459,41.6203523 L18.954918,41.6203523 C19.057377,41.4168297 19.057377,41.3150685 18.954918,41.2133072 C19.5696721,35.2093933 20.0819672,29.3072407 20.6967213,23.3033268 C20.6967213,22.6927593 21.0040984,22.0821918 21.5163934,21.776908 L22.4385246,20.962818 C23.6680328,20.0469667 25.102459,19.334638 25.102459,17.6046967 C25.102459,15.6712329 23.6680328,14.1448141 21.8237705,14.1448141 C18.442623,14.3483366 15.0614754,14.1448141 11.7827869,13.7377691 C10.9631148,13.6360078 3.48360656,13.6360078 2.35655738,14.7553816 Z M9.83606557,21.2681018 L5.84016393,21.2681018 C5.53278689,21.2681018 5.22540984,21.1663405 5.0204918,20.8610568 C4.81557377,20.6575342 4.81557377,20.2504892 5.0204918,19.9452055 C5.22540984,19.741683 5.53278689,19.5381605 5.84016393,19.6399217 L9.73360656,19.6399217 C10.1434426,19.5381605 10.4508197,19.741683 10.5532787,19.9452055 C10.7581967,20.2504892 10.7581967,20.6575342 10.5532787,20.8610568 C10.4508197,21.1663405 10.1434426,21.2681018 9.73360656,21.2681018 L9.83606557,21.2681018 Z M22.8483607,18.1135029 C22.4385246,18.1135029 22.1311475,17.7064579 22.0286885,17.2994129 C22.0286885,17.0958904 22.1311475,16.8923679 22.3360656,16.6888454 C22.4385246,16.5870841 22.6434426,16.4853229 22.8483607,16.4853229 C23.0532787,16.4853229 23.2581967,16.5870841 23.4631148,16.6888454 C23.5655738,16.8923679 23.6680328,17.0958904 23.6680328,17.2994129 C23.6680328,17.8082192 23.3606557,18.1135029 22.8483607,18.1135029 Z M31.352459,36.3287671 C29.6106557,36.3287671 28.1762295,37.4481409 27.4590164,39.0763209 C26.8442623,40.704501 27.1516393,42.5362035 28.3811475,43.7573386 C29.6106557,45.0802348 31.352459,45.3855186 32.8893443,44.7749511 C34.5286885,44.0626223 35.5532787,42.4344423 35.5532787,40.704501 C35.5532787,38.3639922 33.6065574,36.3287671 31.352459,36.3287671 Z M31.352459,42.8414873 C30.2254098,42.8414873 29.3032787,41.8238748 29.3032787,40.704501 C29.3032787,40.1956947 29.5081967,39.6868885 29.9180328,39.2798434 C30.3278689,38.8727984 30.8401639,38.6692759 31.352459,38.6692759 C32.4795082,38.6692759 33.2991803,39.5851272 33.2991803,40.704501 C33.2991803,41.3150685 33.0942623,41.8238748 32.7868852,42.2309198 C32.3770492,42.6379648 31.8647541,42.8414873 31.352459,42.8414873 Z M34.2213115,7.22504892 C30.942623,7.42857143 27.5614754,7.32681018 24.2827869,6.81800391 C23.5655738,6.81800391 15.9836066,6.81800391 14.8565574,7.93737769 C14.8565574,7.93737769 14.5491803,8.24266145 14.4467213,8.3444227 C14.2418033,8.54794521 13.7295082,9.05675147 13.9344262,9.46379648 C14.1393443,9.87084149 14.5491803,9.46379648 14.9590164,9.46379648 L31.7622951,9.46379648 C32.1721311,9.46379648 32.7868852,9.26027397 32.7868852,10.074364 C32.6844262,10.7866928 32.1721311,10.5831703 31.7622951,10.5831703 L13.7295082,10.5831703 C13.3196721,10.6849315 12.602459,10.2778865 12.602459,11.295499 C12.602459,12.3131115 12.295082,12.7201566 13.4221311,12.6183953 C13.5245902,12.5166341 13.6270492,12.5166341 13.8319672,12.6183953 C14.7540984,12.6183953 16.2909836,12.6183953 18.954918,12.6183953 L21.8237705,12.6183953 C23.0532787,12.6183953 24.2827869,13.1272016 25.102459,14.1448141 C26.0245902,15.0606654 26.4344262,16.3835616 26.3319672,17.6046967 C26.2295082,19.334638 25.307377,20.7592955 23.8729508,21.4716243 C23.5655738,21.6751468 23.3606557,21.8786693 23.1557377,22.0821918 L22.1311475,22.8962818 C22.0286885,22.8962818 21.9262295,23.0998043 21.8237705,23.5068493 L21.1065574,31.3424658 C20.7991803,34.7005871 20.4918033,37.9569472 20.1844262,41.2133072 L20.0819672,41.6203523 C21.2090164,41.8238748 22.2336066,42.4344423 23.0532787,43.3502935 L25.8196721,43.3502935 C25,41.4168297 25.102459,39.1780822 26.2295082,37.3463796 C27.2540984,35.5146771 29.2008197,34.4970646 31.25,34.4970646 L31.352459,34.4970646 C31.454918,34.3953033 31.454918,34.2935421 31.352459,34.1917808 C31.9672131,28.2896282 32.4795082,22.3874755 33.0942623,16.4853229 C33.0942623,15.8747554 33.4016393,15.2641879 33.9139344,14.8571429 L34.8360656,14.1448141 C36.1680328,13.1272016 37.602459,12.4148728 37.602459,10.7866928 C37.602459,8.85322896 36.0655738,7.22504892 34.2213115,7.22504892 Z M35.3483607,11.1937378 C34.9385246,11.1937378 34.5286885,10.888454 34.5286885,10.3796477 C34.5286885,9.97260274 34.9385246,9.56555773 35.3483607,9.56555773 C35.7581967,9.56555773 36.1680328,9.97260274 36.1680328,10.3796477 C36.1680328,10.888454 35.7581967,11.1937378 35.3483607,11.1937378 Z" id="Shape"></path>
        </g>
    </g>
</svg>