<?xml version="1.0" encoding="UTF-8"?>
<svg width="64px" height="64px" viewBox="0 0 64 64" version="1.1" xmlns="http://www.w3.org/2000/svg" xmlns:xlink="http://www.w3.org/1999/xlink">
    <!-- Generator: Sketch 52.6 (67491) - http://www.bohemiancoding.com/sketch -->
    <title>bin-grit</title>
    <desc>Created with Sketch.</desc>
    <g id="bin-grit" stroke="none" stroke-width="1" fill="none" fill-rule="evenodd">
        <g id="icon-bin-grit" transform="translate(6.000000, 12.000000)" fill="#000000" fill-rule="nonzero">
            <path d="M49.235443,16.5079365 C49.8936709,16.5079365 50.5518987,16.5079365 51.2101266,16.5079365 C52,16.5079365 52,16.8888889 52,17.5238095 C52,17.9047619 52,18.5396825 51.2101266,18.5396825 C50.5518987,18.5396825 49.6303797,18.5396825 49.235443,18.7936508 C48.9721519,19.1746032 49.235443,20.1904762 48.9721519,20.8253968 C48.5772152,26.2857143 48.1822785,31.4920635 47.9189873,37.0793651 C47.9189873,38.6031746 47.2607595,38.984127 45.5493671,38.984127 C44.2329114,38.984127 42.7848101,38.984127 41.4683544,38.984127 C41.2050633,38.984127 40.8101266,38.984127 40.5468354,39.3650794 C40.1518987,40 39.756962,40 39.0987342,40 C30.4101266,40 21.5898734,40 12.9012658,40 C12.1113924,40 11.8481013,40 11.4531646,39.3650794 C11.4531646,38.984127 10.7949367,38.984127 10.5316456,38.984127 C9.0835443,38.984127 7.50379747,38.984127 6.0556962,38.984127 C4.73924051,38.984127 4.08101266,38.6031746 4.08101266,37.0793651 C3.68607595,34.7936508 3.68607595,32.1269841 3.68607595,29.8412698 C3.42278481,26.2857143 3.42278481,22.7301587 3.0278481,19.4285714 C3.0278481,18.7936508 2.76455696,18.7936508 2.36962025,18.7936508 C2.10632911,18.7936508 1.71139241,18.7936508 1.44810127,18.7936508 C0.394936709,18.7936508 1.36002321e-15,18.7936508 0.394936709,17.5238095 C0.394936709,16.8888889 0.658227848,16.5079365 1.05316456,16.5079365 C1.71139241,16.5079365 2.36962025,16.5079365 3.0278481,16.5079365 C2.76455696,13.3333333 2.76455696,10.4126984 2.36962025,7.74603175 C1.44810127,7.49206349 1.05316456,6.85714286 1.44810127,5.84126984 C1.44810127,5.46031746 2.10632911,5.46031746 2.36962025,5.46031746 C4.47594937,5.46031746 6.45063291,5.46031746 8.42531646,5.46031746 C22.2481013,5.46031746 36.0708861,5.46031746 49.8936709,5.46031746 C51.2101266,5.46031746 51.6050633,6.0952381 51.2101266,7.49206349 C51.2101266,7.74603175 50.5518987,7.74603175 50.2886076,8.12698413 C49.6303797,10.4126984 49.6303797,13.3333333 49.235443,16.5079365 Z M17.5088608,0 C17.5088608,0.253968254 17.5088608,0.634920635 17.5088608,1.01587302 C17.9037975,1.01587302 18.2987342,1.01587302 18.5620253,1.01587302 C18.5620253,0.634920635 18.5620253,0.253968254 18.5620253,0 C20.9316456,0 22.9063291,0 25.2759494,0 C25.2759494,0.253968254 25.2759494,0.634920635 25.2759494,1.01587302 C25.6708861,1.01587302 25.9341772,1.01587302 26.3291139,1.01587302 C26.3291139,0.634920635 26.3291139,0.253968254 26.3291139,0 C28.6987342,0 30.6734177,0 33.043038,0 C33.043038,0.253968254 33.043038,0.634920635 33.043038,1.01587302 C33.4379747,1.01587302 33.7012658,1.01587302 34.0962025,1.01587302 C34.0962025,0.634920635 34.0962025,0.253968254 34.3594937,0 C34.7544304,0 35.1493671,0 35.1493671,0 C39.0987342,0 43.1797468,0 47.2607595,0 C47.9189873,0 48.5772152,0.253968254 48.9721519,1.01587302 C49.235443,1.65079365 49.6303797,2.53968254 50.9468354,2.28571429 C50.9468354,2.28571429 51.2101266,2.53968254 51.6050633,2.92063492 C52,4.57142857 51.6050633,4.57142857 50.2886076,4.57142857 C34.0962025,4.57142857 17.5088608,4.57142857 1.44810127,4.57142857 C0.394936709,4.57142857 -0.263291139,3.55555556 0.394936709,2.53968254 C0.394936709,2.28571429 0.658227848,2.28571429 1.05316456,2.28571429 C1.71139241,2.28571429 2.10632911,2.28571429 2.36962025,1.65079365 C3.0278481,0.253968254 4.08101266,0 5.39746835,0 C9.0835443,0 12.9012658,0 16.5873418,0 C16.5873418,0 16.8506329,0 17.5088608,0 Z" id="Shape"></path>
        </g>
    </g>
</svg>