<?xml version="1.0" encoding="UTF-8"?>
<svg width="64px" height="64px" viewBox="0 0 64 64" version="1.1" xmlns="http://www.w3.org/2000/svg" xmlns:xlink="http://www.w3.org/1999/xlink">
    <!-- Generator: Sketch 52.6 (67491) - http://www.bohemiancoding.com/sketch -->
    <title>bin-full</title>
    <desc>Created with Sketch.</desc>
    <g id="bin-full" stroke="none" stroke-width="1" fill="none" fill-rule="evenodd">
        <g id="icon-bin-full" transform="translate(15.000000, 6.000000)" fill="#000000" fill-rule="nonzero">
            <path d="M22.4210526,45.58159 C23.4736842,43.623431 25.1578947,42.8619247 27.2631579,43.0794979 C28.1052632,33.9414226 29.1578947,24.6945607 30,15.5564854 C22.4210526,15.5564854 15.4736842,15.5564854 7.89473684,15.5564854 C7.89473684,16.6443515 7.89473684,17.5146444 8.21052632,18.2761506 C8.42105263,21.9748954 8.73684211,25.5648536 8.94736842,28.9372385 C8.94736842,31.6569038 8.94736842,34.1589958 9.26315789,36.6610879 C9.26315789,36.9874477 9.47368421,37.2050209 9.47368421,37.2050209 C10.6315789,37.8577406 11.3684211,38.9456067 11.8947368,40.0334728 C12.7368421,41.665272 13.0526316,43.623431 13.0526316,45.58159 C13.0526316,46.6694561 13.0526316,47.8661088 13.2631579,48.6276151 C13.2631579,49.4979079 13.7894737,50.041841 13.7894737,50.9121339 C16.7368421,50.9121339 20,50.9121339 23.4736842,50.9121339 C21.8947368,49.8242678 21.3684211,47.8661088 22.4210526,45.58159 Z M12.7368421,47.8661088 C12.7368421,45.3640167 12.4210526,42.8619247 11.6842105,40.5774059 C11.1578947,39.1631799 10.3157895,38.0753138 8.73684211,37.5313808 C7.57894737,37.2050209 7.57894737,37.2050209 8.21052632,36.4435146 C8.21052632,36.1171548 8.21052632,35.8995816 8.42105263,35.5732218 C8.21052632,35.5732218 7.89473684,35.5732218 7.57894737,35.5732218 C7.57894737,35.5732218 7.36842105,35.5732218 7.36842105,35.8995816 C6.84210526,35.0292887 6.52631579,35.0292887 6.31578947,35.8995816 C6,35.8995816 5.68421053,35.8995816 5.15789474,35.8995816 C5.15789474,36.1171548 5.15789474,36.4435146 5.47368421,36.6610879 C5.47368421,36.9874477 5.47368421,37.2050209 5.68421053,37.5313808 C3.05263158,38.4016736 2,40.0334728 1.68421053,42.209205 C0.842105263,44.167364 0.842105263,46.125523 0.631578947,48.083682 C0.631578947,48.6276151 0.315789474,49.1715481 0.315789474,49.8242678 C-0.210526316,50.5857741 0.105263158,51.1297071 1.15789474,51.4560669 C3.89473684,52 6.52631579,52 9.26315789,51.7824268 C10.3157895,51.7824268 11.3684211,51.4560669 12.2105263,51.1297071 C13.0526316,50.9121339 13.2631579,50.3682008 13.0526316,49.8242678 C12.7368421,49.4979079 12.7368421,48.6276151 12.7368421,47.8661088 Z M10.6315789,11.3138075 C14.9473684,11.3138075 19.1578947,11.3138075 23.4736842,11.3138075 C22.2105263,9.35564854 20.8421053,7.72384937 18.9473684,6.30962343 C17.5789474,5.54811715 16.2105263,4.89539749 14.6315789,5.22175732 C13.5789474,5.76569038 13.2631579,5.54811715 13.2631579,4.35146444 C13.2631579,4.13389121 13.0526316,3.80753138 13.0526316,3.58995816 C12.7368421,3.80753138 12.4210526,4.13389121 12.4210526,4.13389121 C12.4210526,4.13389121 12.4210526,4.35146444 12.2105263,4.35146444 C11.3684211,4.13389121 11.3684211,4.13389121 11.3684211,5.22175732 C11.1578947,5.54811715 10.8421053,5.76569038 10.6315789,5.76569038 C10.8421053,6.09205021 10.8421053,6.09205021 11.1578947,6.30962343 C11.6842105,6.63598326 11.8947368,6.85355649 11.3684211,7.39748954 C10.6315789,8.59414226 10.3157895,10.0083682 10.6315789,11.3138075 Z M29.4736842,12.5104603 C22.2105263,12.5104603 14.9473684,12.5104603 7.57894737,12.5104603 C6.31578947,12.5104603 6.31578947,12.5104603 6.31578947,13.8158996 C6.31578947,14.3598326 6.52631579,14.6861925 7.05263158,14.6861925 C14.9473684,14.6861925 22.4210526,14.6861925 30.2105263,14.6861925 C30.8421053,14.6861925 31.3684211,14.3598326 31.8947368,14.3598326 C31.3684211,13.8158996 30.8421053,13.2719665 30.5263158,12.5104603 C30.2105263,12.5104603 29.6842105,12.5104603 29.4736842,12.5104603 Z M30.2105263,10.2259414 C30.5263158,10.2259414 30.8421053,10.2259414 31.0526316,10.2259414 C31.5789474,10.0083682 32.1052632,9.68200837 32.6315789,9.13807531 C32.1052632,8.81171548 31.5789474,8.26778243 31.0526316,8.05020921 C27.2631579,6.63598326 23.4736842,4.89539749 19.7894737,3.26359833 C17.3684211,2.17573222 15.1578947,1.30543933 12.7368421,0.217573222 C11.6842105,-0.108786611 10.3157895,0.217573222 9.78947368,1.63179916 C11.3684211,2.17573222 13.0526316,3.0460251 14.6315789,3.58995816 C19.7894737,5.76569038 25.1578947,8.05020921 30.2105263,10.2259414 Z M26.5263158,43.9497908 C24.6315789,43.9497908 22.9473684,45.58159 22.9473684,47.539749 C22.9473684,49.4979079 24.6315789,51.1297071 26.5263158,51.1297071 C28.4210526,51.1297071 30,49.4979079 30,47.539749 C30,45.58159 28.4210526,43.9497908 26.5263158,43.9497908 Z M26.5263158,49.4979079 C25.3684211,49.4979079 24.6315789,48.6276151 24.6315789,47.539749 C24.6315789,46.4518828 25.3684211,45.58159 26.5263158,45.58159 C27.5789474,45.58159 28.4210526,46.4518828 28.4210526,47.539749 C28.4210526,48.6276151 27.2631579,49.4979079 26.5263158,49.4979079 Z M32.6315789,10.5523013 C32.1052632,10.5523013 31.3684211,11.0962343 31.3684211,11.8577406 C31.3684211,12.7280335 31.8947368,13.2719665 32.6315789,13.2719665 C33.4736842,13.2719665 34,12.7280335 34,11.8577406 C34,11.0962343 33.4736842,10.5523013 32.6315789,10.5523013 Z" id="Shape"></path>
        </g>
    </g>
</svg>