<?xml version="1.0" encoding="UTF-8"?>
<svg width="64px" height="64px" viewBox="0 0 64 64" version="1.1" xmlns="http://www.w3.org/2000/svg" xmlns:xlink="http://www.w3.org/1999/xlink">
    <!-- Generator: Sketch 52.6 (67491) - http://www.bohemiancoding.com/sketch -->
    <title>bin-storage</title>
    <desc>Created with Sketch.</desc>
    <g id="bin-storage" stroke="none" stroke-width="1" fill="none" fill-rule="evenodd">
        <g id="icon-bin-storage" transform="translate(6.000000, 7.000000)" fill="#000000" fill-rule="nonzero">
            <path d="M49.2691466,17.2374429 C49.8380744,17.2374429 50.6345733,17.2374429 51.3172867,17.2374429 C51.8862144,17.2374429 51.8862144,17.5799087 51.8862144,18.1506849 C51.8862144,18.7214612 51.8862144,19.0639269 51.3172867,19.0639269 C50.6345733,19.0639269 49.8380744,19.0639269 49.2691466,19.2922374 C48.9277899,19.6347032 49.2691466,20.5479452 48.9277899,21.347032 C48.7002188,26.9406393 48.3588621,32.7625571 48.0175055,38.3561644 C48.0175055,40.0684932 47.4485777,40.4109589 45.7417943,40.4109589 C44.2625821,40.4109589 43.1247265,40.4109589 41.6455142,40.4109589 C41.4179431,40.4109589 40.7352298,40.6392694 40.7352298,40.6392694 C40.5076586,41.2100457 39.9387309,41.5525114 39.3698031,41.5525114 C30.6083151,41.5525114 21.8468271,41.5525114 13.0853392,41.5525114 C12.5164114,41.5525114 11.9474836,41.5525114 11.6061269,40.9817352 C11.3785558,40.6392694 11.0371991,40.6392694 10.809628,40.6392694 C9.33041575,40.6392694 7.8512035,40.6392694 6.37199125,40.6392694 C5.00656455,40.6392694 4.3238512,40.0684932 4.3238512,38.9269406 C4.09628009,36.3013699 4.09628009,33.9041096 3.75492341,31.2785388 C3.18599562,27.1689498 3.18599562,23.4018265 2.95842451,19.8630137 C2.95842451,19.2922374 2.61706783,19.0639269 2.04814004,19.0639269 C1.70678337,19.0639269 1.47921225,19.0639269 1.13785558,19.0639269 C1.19348975e-15,19.0639269 1.19348975e-15,19.0639269 0.341356674,17.9223744 C0.341356674,17.5799087 0.56892779,17.2374429 0.910284464,17.2374429 C1.47921225,17.2374429 2.04814004,17.2374429 2.95842451,17.2374429 C2.61706783,14.0410959 2.38949672,11.1872146 2.38949672,7.99086758 C1.13785558,7.99086758 0.910284464,7.07762557 1.13785558,6.16438356 C1.13785558,5.93607306 1.70678337,5.93607306 2.04814004,5.93607306 C4.09628009,5.93607306 6.14442013,5.93607306 8.19256018,5.93607306 C22.1881838,5.93607306 35.8424508,5.93607306 49.8380744,5.93607306 C50.97593,5.93607306 51.5448578,6.73515982 50.97593,7.99086758 C50.97593,8.21917808 50.4070022,8.21917808 49.8380744,8.56164384 C49.4967177,11.1872146 49.2691466,14.0410959 49.2691466,17.2374429 Z M18.6608315,26.5981735 C18.8884026,27.1689498 19.571116,28.0821918 19.7986871,28.9954338 C20.1400438,29.56621 20.9365427,30.1369863 21.5054705,30.1369863 C22.7571116,30.1369863 23.8949672,30.1369863 25.0328228,30.1369863 C25.3741794,30.1369863 25.6017505,29.9086758 25.6017505,29.56621 C25.6017505,28.652968 25.6017505,27.8538813 25.6017505,26.9406393 C23.8949672,26.9406393 22.4157549,26.9406393 20.7089716,26.9406393 C20.1400438,26.9406393 19.2297593,26.5981735 18.6608315,26.5981735 Z M28.5601751,22.6027397 C29.4704595,24.8858447 31.5185996,26.5981735 31.7461707,28.9954338 C32.3150985,28.0821918 32.8840263,27.1689498 33.2253829,26.369863 C33.452954,25.7990868 33.452954,25.2283105 33.2253829,24.543379 C32.6564551,23.4018265 31.7461707,22.260274 31.1772429,20.7762557 C30.2669584,21.6894977 29.4704595,22.260274 28.5601751,22.6027397 Z M27.0809628,16.4383562 C26.1706783,16.4383562 25.0328228,16.4383562 23.8949672,16.4383562 C23.5536105,16.4383562 23.3260394,16.6666667 22.9846827,17.0091324 C22.1881838,18.1506849 21.5054705,19.2922374 20.9365427,20.7762557 C21.8468271,21.1187215 22.7571116,21.6894977 23.5536105,22.260274 C24.2363239,21.1187215 24.8052516,20.2054795 25.3741794,19.0639269 C25.9431072,18.1506849 26.512035,17.2374429 27.0809628,16.4383562 Z M27.6498906,30.4794521 C28.2188184,30.1369863 28.5601751,30.1369863 28.7877462,29.9086758 C29.4704595,29.9086758 30.0393873,29.9086758 30.6083151,29.56621 C30.8358862,29.2237443 31.5185996,28.4246575 31.1772429,28.0821918 C30.8358862,27.5114155 30.8358862,26.369863 29.6980306,26.5981735 C29.1291028,26.5981735 28.7877462,26.5981735 28.2188184,26.5981735 C28.2188184,26.369863 28.2188184,26.0273973 27.9912473,25.7990868 C27.4223195,26.5981735 26.8533917,27.5114155 26.1706783,28.0821918 C26.8533917,29.2237443 27.4223195,29.9086758 27.6498906,30.4794521 Z M30.8358862,18.7214612 C30.6083151,18.7214612 30.2669584,19.0639269 30.0393873,19.0639269 C28.5601751,17.0091324 28.2188184,16.4383562 27.4223195,17.0091324 C26.8533917,17.2374429 26.512035,17.9223744 26.512035,18.1506849 C26.512035,19.0639269 27.0809628,19.6347032 27.4223195,20.5479452 C27.4223195,20.5479452 27.0809628,20.7762557 26.8533917,20.7762557 C29.6980306,21.6894977 29.6980306,21.347032 30.6083151,19.2922374 C30.6083151,19.2922374 30.8358862,19.0639269 30.8358862,18.7214612 Z M19.571116,22.8310502 C19.571116,23.173516 19.2297593,23.7442922 18.8884026,23.9726027 C18.3194748,24.8858447 18.6608315,25.7990868 19.2297593,26.0273973 C20.1400438,26.5981735 20.9365427,26.369863 21.5054705,25.456621 C21.8468271,25.2283105 21.8468271,24.8858447 22.1881838,24.543379 C22.4157549,24.3150685 22.7571116,24.3150685 22.9846827,23.9726027 C22.7571116,23.4018265 22.1881838,22.6027397 21.5054705,21.9178082 C20.9365427,21.6894977 20.1400438,21.9178082 18.8884026,22.260274 C19.2297593,22.6027397 19.571116,22.6027397 19.571116,22.8310502 Z M17.1816193,0 C17.1816193,0.342465753 17.1816193,0.684931507 17.1816193,0.913242009 C17.5229759,0.913242009 17.750547,0.913242009 18.3194748,0.913242009 C18.3194748,0.684931507 18.3194748,0.342465753 18.3194748,0 C20.7089716,0 22.9846827,0 25.3741794,0 C25.3741794,0.342465753 25.3741794,0.684931507 25.6017505,0.913242009 C25.9431072,0.913242009 26.1706783,0.913242009 26.512035,0.913242009 C26.512035,0.684931507 26.512035,0.342465753 26.512035,0 C28.7877462,0 31.1772429,0 33.452954,0 C33.452954,0.342465753 33.452954,0.684931507 33.7943107,0.913242009 C34.1356674,0.913242009 34.3632385,0.913242009 34.7045952,0.913242009 C34.7045952,0.684931507 34.7045952,0.342465753 34.9321663,0 C35.273523,0 35.5010941,0 35.8424508,0 C39.9387309,0 44.0350109,0 47.7899344,0 C48.7002188,0 49.2691466,0.342465753 49.4967177,1.25570776 C49.8380744,2.05479452 50.4070022,2.62557078 51.3172867,2.39726027 C51.3172867,2.39726027 51.8862144,2.62557078 51.8862144,2.96803653 C52.1137856,4.45205479 51.8862144,4.6803653 50.4070022,4.6803653 C34.1356674,4.6803653 17.750547,4.6803653 1.47921225,4.6803653 C0.341356674,4.6803653 -0.341356674,3.53881279 0.341356674,2.62557078 C0.341356674,2.39726027 0.910284464,2.39726027 1.13785558,2.39726027 C1.70678337,2.39726027 2.38949672,2.39726027 2.61706783,1.48401826 C3.18599562,0.342465753 4.09628009,0 5.57549234,0 C9.33041575,0 12.8577681,0 16.6126915,0 C16.2713348,0 16.6126915,0 17.1816193,0 Z M11.0371991,42.6940639 C12.8577681,43.0365297 13.654267,44.5205479 13.654267,45.890411 C13.654267,47.716895 12.8577681,48.8584475 11.0371991,49.4292237 C9.67177243,50 7.8512035,49.086758 6.94091904,47.9452055 C6.14442013,46.4611872 6.37199125,45.0913242 7.62363239,43.6073059 C7.8512035,44.5205479 8.19256018,45.3196347 8.42013129,46.2328767 C8.76148796,46.803653 8.98905908,47.3744292 9.67177243,47.3744292 C10.2407002,47.716895 10.809628,47.3744292 11.0371991,46.803653 C11.6061269,46.4611872 11.6061269,45.6621005 11.3785558,45.0913242 C11.3785558,44.5205479 11.0371991,43.6073059 11.0371991,42.6940639 Z M42.214442,43.6073059 C42.5557987,44.7488584 42.7833698,45.6621005 43.1247265,46.4611872 C43.3522976,47.1461187 43.6936543,47.716895 44.2625821,47.716895 C44.6039387,47.9452055 45.4004376,47.716895 45.7417943,47.3744292 C46.3107221,47.1461187 46.3107221,46.2328767 46.083151,45.6621005 C45.7417943,44.7488584 45.7417943,43.8356164 45.4004376,43.0365297 C46.8796499,43.2648402 48.0175055,44.5205479 48.0175055,45.890411 C48.3588621,47.716895 47.2210066,49.086758 45.7417943,49.7716895 C44.2625821,50.3424658 42.5557987,49.7716895 41.6455142,48.2876712 C40.7352298,46.803653 41.0765864,45.0913242 42.214442,43.6073059 Z M6.71334792,41.2100457 C7.8512035,41.2100457 8.98905908,41.2100457 10.2407002,41.2100457 C10.2407002,42.6940639 10.4682713,44.1780822 10.4682713,45.890411 C10.4682713,46.2328767 10.2407002,46.4611872 9.89934354,46.803653 C9.67177243,46.4611872 9.33041575,46.4611872 8.98905908,46.2328767 C8.19256018,45.0913242 7.62363239,43.8356164 6.94091904,42.6940639 C6.94091904,42.1232877 6.94091904,41.5525114 6.71334792,41.2100457 Z M41.6455142,41.2100457 C42.7833698,41.2100457 44.0350109,41.2100457 44.8315098,41.2100457 C45.7417943,42.6940639 45.4004376,44.5205479 45.4004376,45.890411 C45.4004376,46.2328767 45.1728665,46.4611872 44.8315098,46.803653 C44.6039387,46.4611872 44.2625821,46.4611872 44.0350109,46.2328767 C43.1247265,45.0913242 42.5557987,43.6073059 41.6455142,42.4657534 C41.6455142,42.1232877 41.6455142,41.5525114 41.6455142,41.2100457 Z" id="Shape"></path>
        </g>
    </g>
</svg>