<?xml version="1.0" encoding="UTF-8"?>
<svg width="64px" height="64px" viewBox="0 0 64 64" version="1.1" xmlns="http://www.w3.org/2000/svg" xmlns:xlink="http://www.w3.org/1999/xlink">
    <!-- Generator: Sketch 52.6 (67491) - http://www.bohemiancoding.com/sketch -->
    <title>bin-recycle-wheels</title>
    <desc>Created with Sketch.</desc>
    <g id="bin-recycle-wheels" stroke="none" stroke-width="1" fill="none" fill-rule="evenodd">
        <g id="icon-bin-recycle-wheels" transform="translate(12.000000, 6.000000)" fill="#000000" fill-rule="nonzero">
            <path d="M4.7696477,4.82700422 C4.7696477,3.72995781 4.7696477,3.72995781 5.85365854,3.72995781 C6.17886179,3.72995781 6.17886179,3.72995781 6.39566396,3.72995781 C7.26287263,3.72995781 8.02168022,3.72995781 8.67208672,3.72995781 C8.88888889,3.72995781 8.88888889,3.72995781 9.21409214,3.72995781 C9.97289973,3.72995781 10.6233062,3.72995781 11.3821138,3.72995781 C11.7073171,3.72995781 11.9241192,3.72995781 12.2493225,3.72995781 C13.1165312,3.72995781 13.8753388,3.72995781 14.4173442,3.72995781 C14.7425474,3.72995781 14.7425474,3.72995781 14.9593496,3.72995781 C15.8265583,3.72995781 16.6937669,3.72995781 17.2357724,3.72995781 C17.5609756,3.72995781 17.5609756,3.72995781 17.7777778,3.72995781 C18.6449864,3.72995781 19.403794,3.72995781 20.0542005,3.72995781 C20.2710027,3.72995781 20.2710027,3.72995781 20.596206,3.72995781 C21.3550136,3.72995781 21.897019,3.72995781 22.7642276,3.72995781 C23.0894309,3.72995781 23.3062331,3.72995781 23.6314363,3.72995781 C24.498645,3.72995781 25.2574526,3.72995781 25.799458,3.72995781 C26.1246612,3.72995781 26.1246612,3.72995781 26.3414634,3.72995781 C27.2086721,3.72995781 28.0758808,3.72995781 28.6178862,3.72995781 C28.8346883,3.72995781 28.8346883,3.72995781 29.1598916,3.72995781 C30.0271003,3.72995781 30.7859079,3.72995781 31.4363144,3.72995781 C31.6531165,3.72995781 31.6531165,3.72995781 31.9783198,3.72995781 C32.7371274,3.72995781 33.2791328,3.72995781 34.1463415,3.72995781 C34.4715447,3.72995781 34.6883469,3.72995781 35.0135501,3.72995781 C35.7723577,3.72995781 36.6395664,3.72995781 37.1815718,3.72995781 C37.5067751,3.72995781 37.5067751,3.72995781 37.7235772,3.72995781 C37.7235772,4.27848101 37.7235772,4.82700422 37.7235772,5.70464135 C37.7235772,5.92405063 37.7235772,6.25316456 37.7235772,6.47257384 C37.7235772,7.35021097 37.7235772,7.89873418 37.7235772,8.77637131 C37.7235772,8.99578059 37.7235772,9.32489451 37.7235772,9.5443038 C37.7235772,10.4219409 37.7235772,11.2995781 37.7235772,11.8481013 C37.7235772,12.0675105 37.7235772,12.3966245 37.7235772,12.7257384 C37.7235772,13.4936709 37.5067751,13.8227848 36.9647696,14.371308 C36.4227642,14.9198312 36.097561,16.0168776 35.7723577,16.8945148 C35.7723577,17.2236287 35.5555556,17.443038 35.5555556,17.7721519 C35.2303523,18.5400844 35.2303523,19.4177215 35.2303523,20.2953586 C35.2303523,20.5147679 35.2303523,20.8438819 35.2303523,21.0632911 C35.2303523,21.9409283 35.2303523,22.4894515 35.2303523,23.3670886 C35.2303523,23.5864979 35.2303523,23.9156118 35.2303523,24.2447257 C35.2303523,25.0126582 35.2303523,25.8902954 35.2303523,26.4388186 C35.2303523,26.7679325 35.2303523,26.9873418 35.2303523,27.3164557 C35.2303523,28.0843882 35.2303523,28.6329114 35.2303523,29.5105485 C35.2303523,29.8396624 35.2303523,30.0590717 35.2303523,30.3881857 C35.2303523,31.2658228 35.2303523,32.0337553 35.2303523,32.5822785 C35.2303523,32.9113924 35.2303523,33.1308017 35.2303523,33.4599156 C35.2303523,34.3375527 35.2303523,34.8860759 35.2303523,35.6540084 C35.2303523,35.9831224 35.2303523,36.3122363 35.2303523,36.5316456 C35.2303523,37.4092827 35.2303523,38.2869198 35.2303523,38.835443 C35.2303523,39.0548523 35.2303523,39.3839662 35.2303523,39.6033755 C35.2303523,40.4810127 35.2303523,41.3586498 35.0135501,41.907173 C35.0135501,42.1265823 34.6883469,42.6751055 34.6883469,43.0042194 C33.9295393,44.649789 33.0623306,46.0759494 31.9783198,47.5021097 C30.5691057,49.1476793 28.8346883,50.5738397 26.6666667,51.1223629 C26.3414634,51.1223629 26.1246612,51.1223629 25.799458,51.1223629 C25.0406504,51.1223629 24.498645,51.1223629 23.6314363,51.1223629 C23.3062331,51.1223629 23.0894309,51.1223629 22.7642276,51.1223629 C21.897019,51.1223629 21.3550136,51.1223629 20.596206,51.1223629 C20.2710027,51.1223629 20.0542005,51.1223629 19.7289973,51.1223629 C18.8617886,51.1223629 18.3197832,51.1223629 17.5609756,51.1223629 C17.2357724,51.1223629 16.9105691,51.1223629 16.6937669,51.1223629 C15.8265583,51.1223629 15.2845528,51.1223629 14.4173442,51.1223629 C14.200542,51.1223629 13.8753388,51.1223629 13.6585366,51.1223629 C13.3333333,51.1223629 12.7913279,51.1223629 12.4661247,51.1223629 C12.2493225,51.1223629 12.2493225,51.1223629 12.2493225,50.9029536 C12.4661247,50.3544304 12.7913279,49.6962025 13.1165312,49.1476793 C13.6585366,48.3797468 13.6585366,47.1729958 13.6585366,46.4050633 C13.6585366,46.0759494 13.6585366,45.8565401 13.6585366,45.5274262 C13.6585366,44.978903 13.6585366,44.4303797 13.3333333,43.8818565 C13.3333333,43.5527426 13.3333333,43.5527426 13.1165312,43.3333333 C13.1165312,42.6751055 12.4661247,42.1265823 12.2493225,41.5780591 C12.2493225,41.3586498 11.9241192,41.0295359 11.9241192,41.0295359 C11.7073171,40.8101266 11.3821138,40.1518987 11.1653117,39.9324895 C10.298103,39.0548523 9.43089431,38.835443 8.67208672,38.2869198 C8.02168022,37.9578059 7.4796748,37.9578059 6.93766938,37.628692 C5.85365854,37.4092827 4.44444444,37.628692 3.3604336,37.628692 C3.3604336,37.0801688 3.3604336,36.3122363 3.3604336,35.6540084 C3.3604336,35.4345992 3.3604336,35.1054852 3.3604336,34.8860759 C3.3604336,34.0084388 3.3604336,33.4599156 3.3604336,32.5822785 C3.3604336,32.3628692 3.3604336,32.0337553 3.3604336,31.814346 C3.3604336,30.9367089 3.3604336,30.0590717 3.3604336,29.5105485 C3.3604336,29.2911392 3.3604336,28.9620253 3.3604336,28.6329114 C3.3604336,27.8649789 3.3604336,27.3164557 3.3604336,26.4388186 C3.3604336,26.1097046 3.3604336,25.8902954 3.3604336,25.5611814 C3.3604336,24.7932489 3.3604336,23.9156118 3.3604336,23.3670886 C3.3604336,23.0379747 3.3604336,22.8185654 3.3604336,22.4894515 C3.3604336,21.6118143 3.3604336,21.0632911 3.3604336,20.2953586 C3.3604336,19.9662447 3.3604336,19.7468354 3.3604336,19.4177215 C3.3604336,18.5400844 3.3604336,17.9915612 3.3604336,17.2236287 C3.3604336,16.8945148 3.3604336,16.5654008 3.3604336,16.3459916 C3.3604336,15.4683544 3.3604336,14.5907173 3.3604336,14.0421941 C3.3604336,13.8227848 3.3604336,13.4936709 3.3604336,13.2742616 C3.3604336,12.3966245 3.3604336,11.8481013 3.3604336,10.9704641 C3.3604336,10.7510549 3.3604336,10.4219409 3.3604336,10.2025316 C3.3604336,9.32489451 3.3604336,8.44725738 3.3604336,7.89873418 C3.3604336,7.56962025 3.3604336,7.35021097 3.3604336,7.02109705 C3.3604336,6.25316456 3.3604336,5.70464135 3.3604336,4.82700422 C4.7696477,5.0464135 4.7696477,4.82700422 4.7696477,4.82700422 Z M13.6585366,25.0126582 C12.4661247,25.0126582 12.4661247,25.0126582 12.7913279,26.1097046 C12.7913279,26.4388186 12.7913279,26.4388186 13.1165312,26.7679325 C13.1165312,27.3164557 13.3333333,27.535865 13.6585366,28.0843882 C13.6585366,28.4135021 13.8753388,28.6329114 13.8753388,28.6329114 C14.200542,29.2911392 14.4173442,29.5105485 14.9593496,29.8396624 C14.9593496,30.0590717 15.2845528,30.0590717 15.6097561,30.0590717 C15.8265583,30.3881857 16.3685637,30.9367089 16.9105691,31.2658228 C17.2357724,31.2658228 17.2357724,31.4852321 17.5609756,31.4852321 C17.7777778,31.814346 18.3197832,32.0337553 18.8617886,32.0337553 C19.1869919,32.0337553 19.1869919,32.0337553 19.403794,32.0337553 C20.2710027,32.3628692 20.8130081,32.3628692 21.6802168,32.0337553 C21.6802168,32.0337553 21.897019,32.0337553 21.897019,32.0337553 C22.2222222,32.9113924 22.5474255,34.0084388 22.5474255,35.1054852 C23.3062331,33.1308017 24.498645,31.2658228 25.2574526,29.5105485 C25.5826558,29.2911392 25.2574526,29.2911392 25.0406504,28.9620253 C24.7154472,28.9620253 24.498645,28.6329114 24.498645,28.6329114 C24.1734417,28.4135021 23.6314363,28.0843882 23.0894309,27.8649789 C23.0894309,27.535865 22.7642276,27.535865 22.5474255,27.535865 C21.897019,27.3164557 21.3550136,26.9873418 20.8130081,26.7679325 C20.8130081,27.535865 21.1382114,28.0843882 21.1382114,28.6329114 C21.1382114,28.9620253 21.1382114,29.2911392 21.3550136,29.5105485 C21.3550136,29.8396624 21.3550136,29.8396624 21.1382114,29.8396624 C20.8130081,29.8396624 20.596206,29.8396624 20.2710027,29.8396624 C19.7289973,29.8396624 19.1869919,29.5105485 18.6449864,29.5105485 C18.3197832,29.5105485 18.3197832,29.2911392 18.102981,29.2911392 C17.5609756,28.9620253 17.2357724,28.6329114 16.6937669,28.4135021 C16.3685637,28.4135021 16.3685637,28.0843882 16.1517615,28.0843882 C15.8265583,27.8649789 15.6097561,27.535865 15.2845528,26.9873418 C15.2845528,26.7679325 14.9593496,26.7679325 14.9593496,26.4388186 C14.9593496,26.1097046 14.7425474,25.5611814 14.7425474,25.0126582 C14.4173442,24.464135 13.8753388,24.7932489 13.6585366,25.0126582 Z M29.4850949,21.3924051 C29.1598916,20.8438819 29.1598916,19.9662447 28.8346883,19.4177215 C28.8346883,19.0886076 28.8346883,19.0886076 28.6178862,18.8691983 C28.6178862,18.5400844 28.6178862,18.5400844 28.2926829,18.3206751 C27.7506775,17.7721519 28.0758808,17.443038 28.2926829,17.2236287 C28.8346883,16.5654008 29.4850949,16.0168776 30.0271003,15.4683544 C29.4850949,15.4683544 29.4850949,15.4683544 29.1598916,15.4683544 C28.8346883,15.4683544 28.6178862,15.4683544 28.2926829,15.4683544 C27.5338753,15.4683544 26.6666667,15.4683544 26.1246612,15.7974684 C24.1734417,15.7974684 24.1734417,15.7974684 24.498645,17.443038 C24.498645,17.9915612 24.498645,18.8691983 24.498645,19.4177215 C24.498645,19.7468354 24.498645,19.9662447 24.498645,20.2953586 C24.498645,20.8438819 24.498645,21.3924051 24.498645,21.6118143 C25.0406504,20.8438819 25.5826558,19.9662447 26.1246612,19.4177215 C26.1246612,19.7468354 26.3414634,19.9662447 26.3414634,19.9662447 C26.3414634,20.2953586 26.6666667,20.2953586 26.6666667,20.5147679 C26.6666667,21.0632911 26.9918699,21.6118143 26.9918699,22.2700422 C26.9918699,22.4894515 26.9918699,22.8185654 26.9918699,23.0379747 C26.6666667,24.2447257 26.3414634,25.3417722 25.799458,26.4388186 C25.5826558,26.7679325 25.2574526,26.9873418 25.2574526,27.3164557 C24.7154472,27.535865 24.7154472,27.8649789 25.2574526,28.4135021 C25.5826558,28.6329114 25.799458,28.9620253 25.799458,29.2911392 C26.1246612,29.5105485 26.1246612,29.5105485 26.3414634,29.2911392 C27.7506775,27.8649789 28.6178862,26.4388186 28.8346883,24.464135 C28.8346883,24.2447257 29.1598916,23.9156118 28.8346883,23.5864979 C28.8346883,22.8185654 28.8346883,22.2700422 28.8346883,21.3924051 C29.4850949,21.6118143 29.4850949,21.3924051 29.4850949,21.3924051 Z M23.0894309,15.2489451 C22.5474255,14.9198312 21.897019,14.9198312 21.1382114,14.9198312 C20.8130081,14.9198312 20.596206,14.5907173 20.2710027,14.9198312 C19.403794,14.9198312 18.6449864,14.9198312 17.7777778,15.4683544 C15.8265583,16.0168776 14.200542,17.443038 13.1165312,19.4177215 C13.1165312,19.7468354 13.1165312,19.9662447 12.7913279,19.7468354 C12.2493225,19.7468354 11.3821138,19.7468354 10.6233062,19.4177215 C10.8401084,20.5147679 11.3821138,21.0632911 11.9241192,21.9409283 C12.2493225,22.2700422 12.4661247,22.8185654 12.7913279,23.0379747 C12.7913279,23.3670886 13.1165312,23.5864979 13.1165312,23.5864979 C13.3333333,23.9156118 13.3333333,24.464135 13.6585366,24.2447257 C14.9593496,23.3670886 16.1517615,22.2700422 17.5609756,21.0632911 C16.9105691,20.8438819 16.3685637,20.8438819 15.6097561,20.5147679 C15.6097561,20.5147679 15.2845528,20.5147679 15.2845528,20.2953586 C15.6097561,19.4177215 15.8265583,18.8691983 16.6937669,18.3206751 C17.2357724,17.9915612 17.7777778,17.7721519 18.6449864,17.2236287 C18.8617886,17.2236287 19.1869919,16.8945148 19.7289973,16.8945148 C20.596206,16.8945148 21.1382114,16.8945148 21.897019,16.8945148 C23.3062331,17.2236287 23.3062331,17.2236287 23.6314363,16.0168776 C23.8482385,15.4683544 23.6314363,15.2489451 23.0894309,15.2489451 Z M2.81842818,51.4514768 C2.49322493,51.1223629 1.95121951,50.9029536 1.73441734,50.5738397 C1.73441734,50.3544304 1.40921409,50.3544304 1.40921409,50.0253165 C1.08401084,49.4767932 0.867208672,49.1476793 0.54200542,48.5991561 C0.54200542,48.3797468 0.54200542,48.3797468 0.325203252,48.0506329 C0.325203252,47.5021097 0,46.6244726 0,46.0759494 C0,45.8565401 0,45.5274262 0,45.3080169 C0,44.4303797 0.325203252,43.5527426 0.54200542,42.4556962 C0.867208672,41.907173 1.08401084,41.3586498 1.40921409,40.4810127 C1.73441734,40.1518987 1.95121951,39.9324895 2.49322493,39.3839662 C4.22764228,38.2869198 5.85365854,37.628692 7.80487805,37.628692 C8.34688347,37.628692 8.88888889,37.9578059 9.43089431,37.9578059 C10.298103,38.2869198 10.8401084,38.835443 11.7073171,39.3839662 C11.9241192,39.6033755 12.4661247,39.9324895 12.4661247,40.4810127 C12.7913279,40.8101266 12.7913279,40.8101266 13.1165312,41.0295359 C13.3333333,41.5780591 13.3333333,41.907173 13.6585366,42.4556962 C13.6585366,42.6751055 13.6585366,42.6751055 13.8753388,43.0042194 C13.8753388,43.5527426 14.200542,44.1012658 14.200542,44.978903 C14.200542,45.3080169 14.200542,45.5274262 14.200542,46.0759494 C13.6585366,48.92827 11.9241192,50.9029536 9.43089431,51.6708861 C8.88888889,52 8.67208672,52 8.02168022,52 C7.80487805,52 7.4796748,52 7.26287263,52 C6.72086721,52 5.85365854,52 5.31165312,51.6708861 C4.98644986,51.4514768 4.98644986,51.4514768 4.7696477,51.4514768 C4.22764228,51.1223629 3.68563686,50.9029536 3.3604336,50.5738397 C3.3604336,51.4514768 3.03523035,51.4514768 2.81842818,51.4514768 Z M9.75609756,44.978903 C9.75609756,44.649789 9.75609756,44.649789 9.43089431,44.4303797 C9.43089431,44.1012658 9.21409214,43.5527426 8.67208672,43.3333333 C8.34688347,43.0042194 8.02168022,43.0042194 7.80487805,42.6751055 C6.72086721,42.1265823 5.52845528,42.4556962 4.7696477,43.3333333 C3.68563686,44.1012658 3.68563686,45.5274262 4.22764228,46.6244726 C4.22764228,46.9535865 4.44444444,47.1729958 4.44444444,47.1729958 C4.7696477,47.8312236 5.31165312,48.0506329 5.85365854,48.3797468 C6.17886179,48.5991561 6.17886179,48.5991561 6.39566396,48.5991561 C6.72086721,48.5991561 6.93766938,48.5991561 7.26287263,48.5991561 C8.88888889,48.5991561 9.97289973,47.1729958 9.75609756,44.978903 Z M30.2439024,0 C31.1111111,0 31.6531165,0 32.5203252,0 C32.7371274,0 33.0623306,0 33.2791328,0 C34.1463415,0 34.6883469,0 35.5555556,0 C35.7723577,0 36.097561,0 36.4227642,0 C37.1815718,0 37.7235772,0 38.5907859,0 C38.9159892,0 39.1327913,0 39.4579946,0 C40,0 40,0 40,0.548523207 C40,0.877637131 40,0.877637131 40,1.20675105 C40,1.42616034 40,1.75527426 40,1.97468354 C40,2.52320675 39.6747967,2.52320675 39.4579946,2.52320675 C39.1327913,2.52320675 39.1327913,2.52320675 38.9159892,2.52320675 C38.0487805,2.52320675 37.5067751,2.52320675 36.6395664,2.52320675 C36.4227642,2.52320675 36.097561,2.52320675 35.7723577,2.52320675 C35.0135501,2.52320675 34.1463415,2.52320675 33.604336,2.52320675 C33.2791328,2.52320675 33.2791328,2.52320675 33.0623306,2.52320675 C32.195122,2.52320675 31.4363144,2.52320675 30.7859079,2.52320675 C30.5691057,2.52320675 30.5691057,2.52320675 30.2439024,2.52320675 C29.4850949,2.52320675 28.6178862,2.52320675 28.0758808,2.52320675 C27.7506775,2.52320675 27.7506775,2.52320675 27.5338753,2.52320675 C26.6666667,2.52320675 26.1246612,2.52320675 25.2574526,2.52320675 C25.0406504,2.52320675 24.7154472,2.52320675 24.498645,2.52320675 C23.6314363,2.52320675 22.7642276,2.52320675 22.2222222,2.52320675 C21.897019,2.52320675 21.897019,2.52320675 21.6802168,2.52320675 C20.8130081,2.52320675 20.0542005,2.52320675 19.403794,2.52320675 C19.1869919,2.52320675 19.1869919,2.52320675 18.8617886,2.52320675 C18.102981,2.52320675 17.2357724,2.52320675 16.6937669,2.52320675 C16.3685637,2.52320675 16.3685637,2.52320675 16.1517615,2.52320675 C15.2845528,2.52320675 14.7425474,2.52320675 13.8753388,2.52320675 C13.6585366,2.52320675 13.3333333,2.52320675 13.1165312,2.52320675 C12.2493225,2.52320675 11.3821138,2.52320675 10.8401084,2.52320675 C10.6233062,2.52320675 10.6233062,2.52320675 10.298103,2.52320675 C9.43089431,2.52320675 8.67208672,2.52320675 8.02168022,2.52320675 C7.80487805,2.52320675 7.80487805,2.52320675 7.4796748,2.52320675 C6.72086721,2.52320675 6.17886179,2.52320675 5.31165312,2.52320675 C4.98644986,2.52320675 4.7696477,2.52320675 4.44444444,2.52320675 C4.44444444,1.97468354 4.44444444,1.42616034 4.44444444,0.877637131 C4.44444444,0.329113924 4.7696477,0.329113924 4.98644986,0.329113924 C5.85365854,0.329113924 6.39566396,0.329113924 7.26287263,0.329113924 C7.4796748,0.329113924 7.80487805,0.329113924 8.02168022,0.329113924 C8.88888889,0.329113924 9.43089431,0.329113924 10.298103,0.329113924 C10.6233062,0.329113924 10.8401084,0.329113924 11.1653117,0.329113924 C11.9241192,0.329113924 12.4661247,0.329113924 13.3333333,0.329113924 C13.6585366,0.329113924 13.8753388,0.329113924 14.200542,0.329113924 C14.9593496,0.329113924 15.6097561,0.329113924 16.3685637,0.329113924 C16.6937669,0.329113924 16.9105691,0.329113924 17.2357724,0.329113924 C18.102981,0.329113924 18.6449864,0.329113924 19.403794,0.329113924 C19.7289973,0.329113924 20.0542005,0.329113924 20.2710027,0.329113924 C21.1382114,0.329113924 21.6802168,0.329113924 22.5474255,0.329113924 C22.7642276,0.329113924 23.0894309,0.329113924 23.3062331,0.329113924 C24.1734417,0.329113924 24.7154472,0.329113924 25.5826558,0.329113924 C25.799458,0.329113924 26.1246612,0.329113924 26.3414634,0.329113924 C27.2086721,0.329113924 27.7506775,0.329113924 28.6178862,0.329113924 C28.8346883,0.329113924 29.1598916,0.329113924 29.4850949,0.329113924 C30.2439024,0.329113924 30.7859079,0.329113924 31.6531165,0.329113924 C29.701897,0 30.0271003,0 30.2439024,0 Z" id="Shape"></path>
        </g>
    </g>
</svg>