<?xml version="1.0" encoding="UTF-8"?>
<svg width="64px" height="64px" viewBox="0 0 64 64" version="1.1" xmlns="http://www.w3.org/2000/svg" xmlns:xlink="http://www.w3.org/1999/xlink">
    <!-- Generator: Sketch 52.6 (67491) - http://www.bohemiancoding.com/sketch -->
    <title>bin-recycle-small</title>
    <desc>Created with Sketch.</desc>
    <g id="bin-recycle-small" stroke="none" stroke-width="1" fill="none" fill-rule="evenodd">
        <g id="icon-bin-recycle-small" transform="translate(10.000000, 6.000000)" fill="#000000" fill-rule="nonzero">
            <path d="M2.61498708,17.9388646 C2.61498708,16.5764192 3.18346253,15.6681223 5.00258398,15.6681223 C7.61757106,15.6681223 10.2325581,15.6681223 12.8475452,15.6681223 C21.2609819,15.6681223 29.6744186,15.6681223 38.0878553,15.6681223 C40.1343669,15.6681223 41.0439276,16.2358079 40.7028424,18.279476 C40.4754522,22.5938865 40.1343669,27.0218341 39.9069767,31.6768559 C39.5658915,34.5152838 39.5658915,37.1266376 39.3385013,40.0786026 C38.997416,43.2576419 38.997416,46.4366812 38.6563307,49.6157205 C38.6563307,51.4323144 37.8604651,52 36.0413437,52 C26.4909561,52 16.8268734,52 7.61757106,52 C5.57105943,52 4.66149871,51.4323144 4.66149871,49.0480349 C4.66149871,46.209607 2.27390181,19.7554585 2.61498708,17.9388646 Z M18.3049096,35.0829694 C17.7364341,33.9475983 17.1679587,33.0393013 16.5994832,31.9039301 C16.2583979,31.6768559 16.2583979,31.3362445 15.6899225,31.3362445 C14.5529716,31.3362445 13.0749354,31.3362445 11.9379845,31.3362445 C13.0749354,31.9039301 12.5064599,32.4716157 11.9379845,33.3799127 C11.0284238,34.5152838 10.8010336,35.9912664 11.5968992,37.1266376 C12.5064599,38.3755459 13.4160207,39.7379913 14.2118863,40.9868996 C14.5529716,38.9432314 15.6899225,37.1266376 16.5994832,35.650655 C16.8268734,34.8558952 17.5090439,34.5152838 18.3049096,35.0829694 Z M19.5555556,24.069869 C21.4883721,25.2052402 21.8294574,27.2489083 22.9664083,28.7248908 C23.5348837,29.2925764 23.3074935,29.860262 22.3979328,30.2008734 C23.875969,30.2008734 25.0129199,30.2008734 26.1498708,30.2008734 C26.4909561,30.2008734 26.8320413,30.2008734 27.0594315,29.860262 C27.627907,28.7248908 28.1963824,27.8165939 28.7648579,26.6812227 C27.9689922,27.0218341 27.627907,26.6812227 27.4005168,26.1135371 C26.8320413,24.9781659 26.1498708,23.8427948 24.7855297,23.8427948 C22.9664083,23.8427948 21.2609819,23.8427948 19.5555556,24.069869 Z M24.7855297,44.3930131 C24.4444444,42.9170306 25.3540052,42.6899563 26.1498708,42.9170306 C27.0594315,42.9170306 27.9689922,43.2576419 28.7648579,42.349345 C30.0155039,40.9868996 30.8113695,39.1703057 31.7209302,37.1266376 C30.5839793,37.6943231 29.6744186,38.0349345 28.7648579,37.6943231 C27.9689922,37.6943231 27.0594315,37.6943231 25.9224806,37.6943231 C25.0129199,37.6943231 24.7855297,37.4672489 24.7855297,36.8995633 C22.3979328,38.9432314 22.3979328,41.2139738 24.4444444,43.5982533 C24.4444444,43.5982533 24.4444444,43.8253275 24.7855297,44.3930131 Z M17.5090439,24.4104803 C16.5994832,24.6375546 16.5994832,25.5458515 16.2583979,26.1135371 C15.6899225,27.0218341 14.8940568,27.8165939 15.121447,28.7248908 C15.4625323,29.6331878 16.5994832,29.860262 17.5090439,30.2008734 C18.873385,31.1091703 18.873385,31.1091703 20.124031,29.2925764 C20.3514212,28.7248908 20.9198966,28.1572052 20.9198966,27.2489083 C20.9198966,26.4541485 18.6459948,24.4104803 17.5090439,24.4104803 Z M20.6925065,40.3056769 C20.6925065,37.6943231 20.6925065,37.6943231 18.3049096,37.6943231 C16.5994832,37.6943231 16.0310078,38.3755459 15.6899225,40.0786026 C15.4625323,42.1222707 16.0310078,42.9170306 18.0775194,42.9170306 C18.3049096,42.9170306 18.3049096,42.9170306 18.6459948,42.9170306 C20.6925065,42.9170306 20.6925065,42.9170306 20.6925065,40.3056769 Z M28.7648579,36.558952 C30.2428941,36.8995633 31.379845,35.9912664 32.0620155,35.0829694 C32.630491,34.2882096 31.379845,33.3799127 31.1524548,32.4716157 C31.1524548,32.4716157 31.1524548,32.2445415 31.1524548,32.2445415 C30.2428941,30.4279476 30.2428941,30.4279476 28.5374677,31.3362445 C27.627907,31.9039301 26.4909561,32.2445415 26.1498708,32.8122271 C25.9224806,33.720524 27.0594315,34.5152838 27.4005168,35.4235808 C27.627907,36.558952 27.9689922,36.8995633 28.7648579,36.558952 Z M28.7648579,0 C29.6744186,0.227074236 30.0155039,0.794759825 30.2428941,2.04366812 C30.2428941,2.61135371 30.2428941,3.40611354 30.2428941,3.97379913 C30.2428941,5.79039301 30.2428941,5.79039301 32.0620155,5.79039301 C34.9043928,5.79039301 38.0878553,5.79039301 41.0439276,5.79039301 C42.5219638,5.79039301 43.3178295,6.3580786 43.6589147,7.49344978 C44,8.96943231 44,10.1048035 43.6589147,11.580786 C43.3178295,12.7161572 42.749354,13.2838428 41.3850129,13.2838428 C34.9043928,13.2838428 28.5374677,13.2838428 22.1705426,13.2838428 C15.4625323,13.2838428 8.75452196,13.2838428 2.04651163,13.2838428 C0.568475452,13.2838428 0,12.7161572 0,11.2401747 C0,10.1048035 0,8.62882096 0,7.49344978 C0,6.01746725 0.909560724,5.44978166 2.04651163,5.44978166 C5.57105943,5.44978166 8.98191214,5.44978166 12.2790698,5.44978166 C13.0749354,5.44978166 13.4160207,5.44978166 13.0749354,4.65502183 C12.8475452,3.40611354 13.0749354,2.27074236 13.0749354,1.13537118 C13.4160207,0.227074236 13.9844961,0 14.8940568,0 C19.5555556,0 24.1033592,0 28.7648579,0 Z M21.8294574,3.74672489 C20.6925065,3.74672489 19.2144703,3.74672489 18.0775194,3.74672489 C17.5090439,3.74672489 17.5090439,3.97379913 17.5090439,4.65502183 C17.5090439,5.22270742 17.5090439,5.44978166 18.0775194,5.44978166 C20.3514212,5.44978166 22.9664083,5.44978166 25.3540052,5.44978166 C25.9224806,5.44978166 26.1498708,5.22270742 26.1498708,4.65502183 C26.1498708,3.97379913 26.1498708,3.74672489 25.3540052,3.74672489 C24.1033592,3.74672489 22.9664083,3.74672489 21.8294574,3.74672489 Z" id="Shape"></path>
        </g>
    </g>
</svg>