<?xml version="1.0" encoding="UTF-8"?>
<svg width="64px" height="64px" viewBox="0 0 64 64" version="1.1" xmlns="http://www.w3.org/2000/svg" xmlns:xlink="http://www.w3.org/1999/xlink">
    <!-- Generator: Sketch 52.6 (67491) - http://www.bohemiancoding.com/sketch -->
    <title>bin-recycle</title>
    <desc>Created with Sketch.</desc>
    <g id="bin-recycle" stroke="none" stroke-width="1" fill="none" fill-rule="evenodd">
        <g id="icon-bin-recycle" transform="translate(15.000000, 6.000000)" fill="#000000" fill-rule="nonzero">
            <path d="M15.9614148,8.98765432 C11.807074,8.98765432 7.32475884,8.98765432 3.06109325,8.98765432 C0.546623794,8.98765432 -0.546623794,7.38271605 0.327974277,5.13580247 C0.546623794,4.38683128 1.42122186,3.5308642 2.51446945,3.5308642 C3.38906752,3.5308642 4.48231511,3.5308642 5.35691318,3.5308642 C6.99678457,3.5308642 8.96463023,4.38683128 8.74598071,1.3909465 C8.74598071,0.534979424 9.51125402,0 10.7138264,0 C14.8681672,0 18.8038585,0 22.9581994,0 C24.3794212,0 25.2540193,0.748971193 25.2540193,2.1399177 C25.2540193,3.85185185 26.0192926,3.85185185 27.221865,3.85185185 C27.7684887,3.85185185 28.3151125,3.85185185 28.8617363,3.85185185 C31.0482315,3.85185185 31.9228296,4.60082305 31.9228296,6.52674897 C31.9228296,8.4526749 31.0482315,9.30864198 28.8617363,9.30864198 C24.3794212,8.98765432 20.2250804,8.98765432 15.9614148,8.98765432 Z M28.5337621,52 C26.0192926,52 23.8327974,49.5390947 23.8327974,47.0781893 C23.8327974,44.4032922 26.3472669,41.8353909 29.1897106,42.1563786 C31.7041801,42.1563786 34.2186495,44.617284 33.8906752,47.0781893 C33.8906752,49.8600823 31.7041801,52 28.5337621,52 Z M29.9549839,10.9135802 C21.318328,10.9135802 12.3536977,10.9135802 3.7170418,10.9135802 C1.42122186,10.9135802 0.874598071,11.4485597 0.874598071,13.6954733 C0.874598071,16.691358 1.20257235,19.473251 1.42122186,22.4691358 C1.96784566,30.9218107 2.51446945,39.1604938 3.06109325,47.6131687 C3.06109325,49.3251029 3.93569132,50.0740741 5.5755627,50.0740741 C11.2604502,50.0740741 16.8360129,50.0740741 22.7395498,50.0740741 C21.5369775,43.5473251 23.8327974,41.0864198 30.5016077,40.7654321 C31.3762058,40.7654321 31.3762058,40.2304527 31.3762058,39.6954733 C31.9228296,31.2427984 32.4694534,22.4691358 33.0160772,13.909465 C33.0160772,11.7695473 32.2508039,10.9135802 29.9549839,10.9135802 Z M27.7684887,28.9958848 C27.7684887,29.3168724 24.3794212,31.4567901 24.0514469,31.2427984 C22.9581994,30.7078189 22.4115756,29.3168724 22.4115756,28.781893 C22.7395498,27.0699588 24.3794212,26.8559671 25.8006431,26.5349794 C27.221865,26.3209877 26.8938907,28.1399177 27.7684887,28.9958848 Z M10.3858521,31.2427984 C10.3858521,32.8477366 10.3858521,34.2386831 10.3858521,35.8436214 C7.32475884,34.4526749 5.90353698,30.9218107 7.54340836,28.4609053 C8.74598071,26.8559671 6.77813505,26.8559671 6.23151125,25.6790123 C7.87138264,25.4650206 9.51125402,25.4650206 10.9324759,25.1440329 C11.807074,25.1440329 12.3536977,25.4650206 12.3536977,26 C12.9003215,27.3909465 13.2282958,28.4609053 13.7749196,29.8518519 C13.2282958,30.3868313 13.2282958,29.8518519 12.9003215,29.8518519 C11.4790997,28.9958848 10.7138264,29.5308642 10.3858521,31.2427984 Z M13.4469453,36.1646091 C12.3536977,36.1646091 11.2604502,36.3786008 11.2604502,34.4526749 C11.2604502,32.526749 12.3536977,32.526749 13.4469453,32.526749 C14.8681672,32.3127572 15.9614148,32.3127572 15.9614148,34.2386831 C15.9614148,36.3786008 14.8681672,36.1646091 13.4469453,36.1646091 Z M15.1961415,24.0740741 C13.7749196,23.8600823 12.0257235,23.0041152 11.807074,21.6131687 C11.4790997,21.0781893 12.3536977,19.1522634 13.4469453,19.1522634 C14.8681672,19.473251 15.9614148,20.5432099 17.0546624,21.2921811 C16.2893891,22.1481481 15.9614148,24.0740741 15.1961415,24.0740741 Z M17.7106109,20.7572016 C16.5080386,20.0082305 15.414791,19.473251 14.5401929,18.617284 C14.5401929,18.617284 14.5401929,18.617284 14.5401929,18.2962963 C17.7106109,16.3703704 20.7717042,17.0123457 22.9581994,19.6872428 C22.9581994,20.2222222 22.9581994,20.7572016 23.5048232,20.5432099 C23.8327974,20.2222222 24.3794212,19.6872428 24.926045,20.5432099 C25.2540193,21.0781893 24.7073955,21.2921811 24.3794212,21.9341564 C22.4115756,25.6790123 22.192926,25.6790123 17.3826367,24.0740741 C19.8971061,22.6831276 19.8971061,21.9341564 17.7106109,20.7572016 Z M25.8006431,35.308642 C25.2540193,35.8436214 24.3794212,36.6995885 23.5048232,36.3786008 C21.5369775,36.1646091 20.7717042,36.9135802 20.7717042,39.1604938 C19.5691318,37.5555556 18.8038585,36.1646091 17.9292605,34.7736626 C17.7106109,34.2386831 17.7106109,33.7037037 18.2572347,33.382716 C19.022508,32.3127572 19.8971061,31.4567901 20.9903537,30.3868313 C21.8649518,30.9218107 20.7717042,31.9917695 21.8649518,32.526749 C22.9581994,33.1687243 23.5048232,32.526749 24.3794212,31.9917695 C25.4726688,31.4567901 26.5659164,30.9218107 27.7684887,30.3868313 C27.7684887,30.3868313 27.7684887,30.3868313 27.9871383,30.3868313 C27.7684887,32.526749 26.8938907,33.9176955 25.8006431,35.308642 Z" id="Shape"></path>
        </g>
    </g>
</svg>