<?xml version="1.0" encoding="UTF-8"?>
<svg width="64px" height="64px" viewBox="0 0 64 64" version="1.1" xmlns="http://www.w3.org/2000/svg" xmlns:xlink="http://www.w3.org/1999/xlink">
    <!-- Generator: Sketch 52.6 (67491) - http://www.bohemiancoding.com/sketch -->
    <title>bin</title>
    <desc>Created with Sketch.</desc>
    <g id="bin" stroke="none" stroke-width="1" fill="none" fill-rule="evenodd">
        <g id="icon-bin" transform="translate(14.000000, 6.000000)" fill="#000000" fill-rule="nonzero">
            <path d="M13.8545455,0 C14.6181818,0.8721174 15.4909091,1.41719078 15.8181818,2.50733753 C15.8181818,3.37945493 16.5818182,3.16142558 17.1272727,3.16142558 C21.6,3.16142558 26.0727273,3.16142558 30.5454545,3.16142558 C32.2909091,3.16142558 35.5636364,5.34171908 35.8909091,6.9769392 C36.1090909,8.17610063 35.5636364,8.93920335 34.8,9.81132075 C33.0545455,10.9014675 31.6363636,12.3186583 30.3272727,13.408805 C29.4545455,13.9538784 29.1272727,14.4989518 29.1272727,15.6981132 C28.3636364,23.4381551 27.4909091,31.6142558 26.9454545,39.3542977 C26.9454545,40.2264151 26.6181818,40.5534591 25.5272727,40.5534591 C23.0181818,40.5534591 20.8363636,41.6436059 19.6363636,43.8238994 C18.3272727,46.3312369 18.8727273,48.6205451 20.8363636,51.3459119 C20.5090909,52 19.9636364,51.672956 19.6363636,51.672956 C15.4909091,51.672956 11.5636364,51.672956 7.41818182,51.672956 C6.54545455,51.672956 6,51.3459119 6,50.5828092 C4.90909091,38.8092243 3.49090909,26.8176101 2.4,15.1530398 C2.4,13.9538784 2.07272727,12.6457023 2.07272727,11.4465409 C2.07272727,10.9014675 2.07272727,10.3563941 1.2,10.3563941 C-0.109090909,10.3563941 0.109090909,9.26624738 0.109090909,8.721174 C0.109090909,7.52201258 0.981818182,7.8490566 1.52727273,7.8490566 C9.05454545,7.8490566 16.5818182,7.8490566 24.4363636,7.8490566 C25.3090909,7.8490566 26.0727273,7.8490566 26.9454545,7.8490566 C27.4909091,7.8490566 28.3636364,8.17610063 28.3636364,7.30398323 C28.3636364,6.21383648 27.4909091,6.43186583 26.9454545,6.43186583 C19.0909091,6.43186583 11.3454545,6.43186583 3.16363636,6.43186583 C2.94545455,6.21383648 2.07272727,6.75890985 1.85454545,6.21383648 C1.52727273,5.6687631 2.07272727,5.01467505 2.61818182,4.7966457 C2.94545455,4.46960168 2.94545455,4.25157233 3.16363636,4.25157233 C5.67272727,3.9245283 6.54545455,1.7442348 7.96363636,0.327044025 C9.92727273,0 11.8909091,0 13.8545455,0 Z M13.8545455,13.9538784 C14.6181818,13.9538784 15.4909091,13.9538784 16.3636364,13.9538784 C16.5818182,13.9538784 17.1272727,13.9538784 17.1272727,13.408805 C17.1272727,12.8637317 16.9090909,12.6457023 16.3636364,12.6457023 C14.6181818,12.6457023 12.6545455,12.6457023 11.0181818,12.6457023 C10.4727273,12.6457023 10.1454545,12.8637317 10.1454545,13.408805 C10.1454545,13.9538784 10.4727273,14.2809224 11.0181818,14.2809224 C12.1090909,13.9538784 12.9818182,13.9538784 13.8545455,13.9538784 Z M13.8545455,3.16142558 C12.6545455,2.28930818 9.38181818,1.96226415 8.50909091,2.28930818 C8.18181818,2.28930818 8.18181818,2.50733753 8.18181818,2.83438155 C8.18181818,3.16142558 8.50909091,3.16142558 8.83636364,3.16142558 C10.4727273,3.16142558 11.8909091,3.16142558 13.8545455,3.16142558 Z M34.4727273,7.8490566 C34.4727273,7.30398323 34.1454545,6.9769392 33.6,6.9769392 C33.0545455,6.9769392 32.5090909,7.30398323 32.5090909,7.8490566 C32.5090909,8.39412998 32.8363636,8.721174 33.3818182,8.93920335 C33.9272727,8.93920335 34.4727273,8.39412998 34.4727273,7.8490566 Z M25.3090909,52 C22.8,52 20.5090909,49.7106918 20.5090909,47.2033543 C20.5090909,44.6960168 22.8,42.4067086 25.3090909,42.4067086 C27.8181818,42.4067086 30,44.6960168 30.3272727,47.2033543 C30,49.7106918 27.8181818,52 25.3090909,52 Z M25.3090909,48.6205451 C26.4,48.293501 26.9454545,47.7484277 26.9454545,46.8763103 C26.9454545,46.1132075 26.4,45.2410901 25.5272727,45.2410901 C24.4363636,45.2410901 23.8909091,45.7861635 23.8909091,46.8763103 C23.5636364,48.0754717 24.1090909,48.6205451 25.3090909,48.6205451 Z" id="Shape"></path>
        </g>
    </g>
</svg>