<?xml version="1.0" encoding="UTF-8"?>
<svg width="64px" height="64px" viewBox="0 0 64 64" version="1.1" xmlns="http://www.w3.org/2000/svg" xmlns:xlink="http://www.w3.org/1999/xlink">
    <title>bio-hazard</title>
    <g id="bio-hazard" stroke="none" stroke-width="1" fill="none" fill-rule="evenodd">
        <path d="M33.7746628,7 C41.7451283,7.83408429 47.931334,14.2795985 47.931334,22.1121038 C47.9341778,23.2862094 47.789552,24.4560019 47.5010114,25.5932402 C48.618205,25.9061501 49.690914,26.3632431 50.692732,26.9530173 C57.5155349,30.9327352 59.9003371,39.7896176 56.3946851,47.2596116 L56.3946851,47.2596116 L56.3677708,47.2505745 C57.8940605,43.6509288 57.5234569,39.5160396 55.3819998,36.2526155 C53.2405428,32.9891915 49.6167729,31.0367646 45.7435642,31.0596655 C45.4386719,31.0596655 45.1428188,31.0777397 44.838028,31.1049538 C43.9479294,31.1749914 43.0691043,31.3514204 42.2201387,31.6307493 C39.5264833,32.5172078 37.2524865,34.3804958 35.8366975,36.8614909 C35.83426,36.8613882 35.831924,36.8623125 35.830299,36.8640583 C35.828674,36.8658041 35.82776,36.8680634 35.82776,36.870528 L35.82776,36.870528 C34.4315726,39.3204067 33.9661091,42.1931811 34.5188153,44.9568941 C34.7042694,45.8866896 34.9992085,46.7906061 35.3974373,47.649337 C35.5050941,47.8759837 35.621587,48.1116674 35.7471189,48.3383141 C37.568957,51.6605821 40.8810298,53.8735447 44.6179409,54.2655294 C48.3549535,54.6575141 52.0455519,53.1790222 54.5030731,50.3055289 L54.5030731,50.3055289 L54.5389249,50.3327429 C49.8050709,56.6331498 41.3594934,58.6910438 34.7608401,54.8472934 C33.7567877,54.2624486 32.8291107,53.5528299 31.9994421,52.7350741 C31.1715001,53.5548838 30.2435184,54.2647078 29.2380442,54.8472934 C22.64843,58.6910438 14.21179,56.6331498 9.46899846,50.3508171 L9.46899846,50.3508171 L9.50485021,50.314566 C11.9667387,53.1813841 15.6566261,54.6542279 19.3914043,54.2607028 C23.1261826,53.8671776 26.4364273,51.6567824 28.260906,48.3383141 C28.3773989,48.1116674 28.4939932,47.8759837 28.6015485,47.649337 C28.9997773,46.7906061 29.2947164,45.8865869 29.4801705,44.9568941 C30.037447,42.1931811 29.5715773,39.3188663 28.1712258,36.8795651 L28.1712258,36.8795651 C28.1713274,36.8680634 28.1704133,36.8657014 28.1686868,36.8640583 C28.1669602,36.8624152 28.1647258,36.8614909 28.1622883,36.8614909 C26.7464993,34.3804958 24.472604,32.5172078 21.7788471,31.6307493 C20.92978,31.3514204 20.0509548,31.1749914 19.1608562,31.1049538 C18.8559639,31.0778424 18.5691498,31.0596655 18.25532,31.0596655 C17.2513692,31.0535038 16.2509731,31.178483 15.27871,31.4313167 C12.0435204,32.2959012 9.34001337,34.5403911 7.87181784,37.5809682 C6.40352074,40.6215453 6.31577025,44.1574178 7.63111339,47.2686487 L7.63111339,47.2686487 L7.61313673,47.2776858 C4.08971119,39.8077946 6.49248997,30.9327352 13.315293,26.9529146 C14.3132515,26.3617027 15.3832183,25.9046097 16.498076,25.5931375 C16.2095354,24.4557965 16.0649096,23.2861068 16.0677533,22.1120012 C16.0677533,14.2794958 22.2628966,7.82494448 30.2333621,7 L30.2333621,7 L30.2333621,7.03625114 C24.6278939,7.91500751 20.4937698,12.7956637 20.4967151,18.5312512 C20.4884885,20.5739464 21.0243352,22.5811094 22.0477861,24.3422164 C22.1992166,24.6209292 22.3668972,24.8903994 22.5498123,25.1490867 C23.0489947,25.8843789 23.6328807,26.5569248 24.2891812,27.1525526 C28.6632989,31.1655435 35.3356869,31.1655435 39.7099062,27.1525526 C40.3663082,26.5569248 40.9501943,25.8842762 41.4492751,25.1490867 C41.6320886,24.8902967 41.7997692,24.6209292 41.9513013,24.3422164 C42.9748538,22.5811094 43.5105989,20.5738437 43.5023723,18.5312512 C43.5052161,12.7956637 39.3710919,7.91500751 33.7657252,7.03625114 L33.7657252,7.03625114 Z M46.5758106,33.5535722 C46.6629067,33.5520811 46.7501047,33.5549639 46.8368948,33.5623201 C46.9063473,34.0919604 46.9393907,34.6254776 46.9359232,35.1593924 C46.9412265,40.741889 43.5042981,45.7807289 38.2211169,47.9361702 C38.1589055,47.8486921 38.1017933,47.7578341 38.0500864,47.6640933 C37.951058,47.4797928 37.8520296,47.2867445 37.7619759,47.120039 C37.4203228,46.412659 37.1693353,45.6670073 37.0147245,44.8998837 C36.9984067,44.8275155 36.9863724,44.7542525 36.9787234,44.6804926 C40.8671439,43.032325 43.3816089,39.2922372 43.3797731,35.1594918 C43.3815069,34.8016267 43.3603958,34.4441593 43.3167458,34.0888788 C43.3930313,34.0694944 43.468195,34.0460344 43.5418289,34.0186975 C44.2657256,33.7888685 45.0153227,33.6445296 45.7745066,33.5886629 C46.026616,33.5711673 46.2697506,33.5535722 46.5758106,33.5535722 Z M18.5842518,33.5535652 C18.8451008,33.5535652 19.0789479,33.5710608 19.3487637,33.5886559 C20.1011502,33.6463119 20.8439587,33.7906509 21.5614975,34.0186906 C21.6334348,34.0450335 21.7144406,34.0713763 21.7863779,34.0978186 C21.7427672,34.4501171 21.7216751,34.8047019 21.7234073,35.159585 C21.7227959,39.2947181 24.2389705,43.0355036 28.1276596,44.6806898 C28.1097262,44.7596189 28.1007595,44.8386475 28.0827242,44.9175767 C27.9283546,45.6694914 27.6806499,46.4003318 27.3451124,47.0937951 C27.2461731,47.3043392 27.1382672,47.5149827 27.0482946,47.6729404 C26.9942907,47.7606174 26.9492535,47.8483938 26.8863848,47.9361702 C21.603376,45.7846047 18.165161,40.7444701 18.1704595,35.1593862 C18.1669951,34.6254711 18.2000089,34.0919536 18.2693988,33.562313 C18.3411323,33.5550563 18.4132733,33.5520741 18.4853125,33.5535652 L18.4853125,33.5535652 Z M23.7021277,23.0950189 C28.9333815,19.3371214 36.1728966,19.3371214 41.4042553,23.0950189 L41.4042553,23.0950189 L41.3104917,23.2612656 L41.3104917,23.2612656 L41.209806,23.4275867 C41.0810121,23.6426552 40.9387935,23.8500887 40.7838843,24.0490939 C40.3504112,24.651365 39.8404798,25.2010835 39.2655222,25.6859543 C39.2206332,25.7313676 39.1710245,25.772418 39.1174303,25.8085106 C35.2268701,23.0425656 29.8703883,23.0425656 25.9797232,25.8085106 C25.9241363,25.764783 25.8778837,25.7209563 25.8222968,25.6772286 C25.2483881,25.1849212 24.7385616,24.6295507 24.3039348,24.0229169 C24.143362,23.8166732 23.9979969,23.6002166 23.8687835,23.3751334 L23.8687835,23.3751334 Z" id="Combined-Shape" fill="#000000"></path>
    </g>
</svg>