<?xml version="1.0" encoding="UTF-8"?>
<svg width="64px" height="64px" viewBox="0 0 64 64" version="1.1" xmlns="http://www.w3.org/2000/svg" xmlns:xlink="http://www.w3.org/1999/xlink">
    <!-- Generator: Sketch 52.6 (67491) - http://www.bohemiancoding.com/sketch -->
    <title>bollard-markerpost</title>
    <desc>Created with Sketch.</desc>
    <g id="bollard-markerpost" stroke="none" stroke-width="1" fill="none" fill-rule="evenodd">
        <g id="icon-bollard-markerpost" transform="translate(15.000000, 6.000000)" fill="#000000" fill-rule="nonzero">
            <path d="M0,49.359375 L34,49.359375 L34,52 L0,52 L0,49.359375 Z M10.4457831,43.1640625 L23.8614458,43.1640625 L23.8614458,46.515625 L10.4457831,46.515625 L10.4457831,43.1640625 Z M2.35542169,28.640625 L31.439759,28.640625 L31.439759,32.5 L2.35542169,32.5 L2.35542169,28.640625 Z M2.35542169,46.8203125 L7.78313253,46.8203125 L7.78313253,40.828125 L26.2168675,40.828125 L26.2168675,46.8203125 L31.6445783,46.8203125 L31.6445783,35.140625 L2.35542169,35.140625 L2.35542169,46.8203125 Z M2.35542169,21.53125 L31.439759,21.53125 L31.439759,26 L2.35542169,26 L2.35542169,21.53125 Z M17,0 C9.62650602,0 2.35542169,4.671875 2.35542169,4.671875 L2.35542169,19.1953125 L31.439759,19.1953125 L31.439759,4.671875 C31.6445783,4.671875 24.373494,0 17,0 Z M21.1987952,14.015625 L12.8012048,14.015625 L12.8012048,6.8046875 L21.5060241,6.8046875 L21.5060241,14.015625 L21.1987952,14.015625 Z" id="Shape"></path>
        </g>
    </g>
</svg>