<?xml version="1.0" encoding="UTF-8"?>
<svg width="64px" height="64px" viewBox="0 0 64 64" version="1.1" xmlns="http://www.w3.org/2000/svg" xmlns:xlink="http://www.w3.org/1999/xlink">
    <!-- Generator: Sketch 52.6 (67491) - http://www.bohemiancoding.com/sketch -->
    <title>bollard-illuminated</title>
    <desc>Created with Sketch.</desc>
    <g id="bollard-illuminated" stroke="none" stroke-width="1" fill="none" fill-rule="evenodd">
        <g id="icon-bollard-illuminated" transform="translate(15.000000, 6.000000)" fill="#000000" fill-rule="nonzero">
            <path d="M0,49.359375 L34,49.359375 L34,52 L0,52 L0,49.359375 Z M10.4457831,30.9765625 L23.8614458,30.9765625 L23.8614458,46.8203125 L10.4457831,46.8203125 L10.4457831,30.9765625 Z M7.78313253,28.3359375 L26.4216867,28.3359375 L26.4216867,46.8203125 L31.6445783,46.8203125 L31.6445783,4.671875 C31.6445783,4.671875 24.373494,0 17,0 C9.62650602,0 2.35542169,4.671875 2.35542169,4.671875 L2.35542169,46.8203125 L7.57831325,46.8203125 L7.57831325,28.3359375 L7.78313253,28.3359375 Z M17,4.671875 C22.0180723,4.671875 26.2168675,8.8359375 26.2168675,13.8125 C26.2168675,18.6875 22.0180723,22.8515625 17,22.8515625 C11.9819277,22.8515625 7.78313253,18.6875 7.78313253,13.8125 C7.78313253,8.8359375 11.9819277,4.671875 17,4.671875 Z M21.7108434,13.8125 C21.7108434,16.3515625 19.560241,18.484375 17,18.484375 C14.439759,18.484375 12.2891566,16.3515625 12.2891566,13.8125 C12.2891566,11.171875 14.439759,9.140625 17,9.140625 C19.560241,9.140625 21.7108434,11.171875 21.7108434,13.8125 Z" id="Shape"></path>
        </g>
    </g>
</svg>