<?xml version="1.0" encoding="UTF-8"?>
<svg width="64px" height="64px" viewBox="0 0 64 64" version="1.1" xmlns="http://www.w3.org/2000/svg" xmlns:xlink="http://www.w3.org/1999/xlink">
    <!-- Generator: Sketch 52.6 (67491) - http://www.bohemiancoding.com/sketch -->
    <title>bollard-safety</title>
    <desc>Created with Sketch.</desc>
    <g id="bollard-safety" stroke="none" stroke-width="1" fill="none" fill-rule="evenodd">
        <g id="icon-bollard-safety" transform="translate(15.000000, 6.000000)" fill="#000000" fill-rule="nonzero">
            <path d="M0,49.359375 L34,49.359375 L34,52 L0,52 L0,49.359375 Z M10.4457831,30.9765625 L23.8614458,30.9765625 L23.8614458,46.8203125 L10.4457831,46.8203125 L10.4457831,30.9765625 Z M17,0 C9.62650602,0 2.35542169,4.671875 2.35542169,4.671875 L2.35542169,46.8203125 L7.57831325,46.8203125 L7.57831325,28.3359375 L26.2168675,28.3359375 L26.2168675,46.8203125 L31.439759,46.8203125 L31.439759,4.671875 C31.6445783,4.671875 24.373494,0 17,0 Z M26.4216867,20.0078125 L7.57831325,20.0078125 L7.57831325,17.46875 L26.2168675,17.46875 L26.2168675,20.0078125 L26.4216867,20.0078125 Z M26.4216867,14.828125 L7.57831325,14.828125 L7.57831325,12.1875 L26.2168675,12.1875 L26.2168675,14.828125 L26.4216867,14.828125 Z M26.4216867,9.6484375 L7.57831325,9.6484375 L7.57831325,7.0078125 L26.2168675,7.0078125 L26.2168675,9.6484375 L26.4216867,9.6484375 Z" id="Shape"></path>
        </g>
    </g>
</svg>