<?xml version="1.0" encoding="UTF-8"?>
<svg width="64px" height="64px" viewBox="0 0 64 64" version="1.1" xmlns="http://www.w3.org/2000/svg" xmlns:xlink="http://www.w3.org/1999/xlink">
    <!-- Generator: Sketch 52.6 (67491) - http://www.bohemiancoding.com/sketch -->
    <title>bridge</title>
    <desc>Created with Sketch.</desc>
    <g id="bridge" stroke="none" stroke-width="1" fill="none" fill-rule="evenodd">
        <g id="icon-bridge" transform="translate(6.000000, 21.000000)" fill="#000000" fill-rule="nonzero">
            <path d="M14.2616034,17.8095238 C14.2616034,19.3227513 14.2616034,20.4867725 14.2616034,22 C13.4936709,22 12.6160338,22 11.7383966,22 C11.7383966,20.4867725 11.7383966,19.3227513 11.7383966,17.8095238 C7.89873418,17.8095238 3.94936709,17.8095238 0,17.8095238 C0,16.8783069 0,16.0634921 0,15.1322751 C1.09704641,15.1322751 2.19409283,15.1322751 3.40084388,15.1322751 C3.40084388,13.2698413 3.40084388,11.5238095 3.40084388,9.77777778 C2.19409283,10.010582 1.42616034,10.010582 0.219409283,10.3597884 C0.219409283,9.77777778 0.219409283,9.42857143 0.219409283,9.1957672 C1.64556962,8.61375661 3.40084388,8.26455026 4.71729958,7.68253968 C7.56962025,6.16931217 9.5443038,3.84126984 11.1898734,1.16402116 C11.5189873,0.465608466 12.0675105,0.232804233 12.6160338,0.232804233 C12.9451477,0.232804233 12.9451477,0.232804233 13.164557,0.232804233 C14.0421941,0.232804233 14.5907173,0.465608466 15.1392405,1.16402116 C16.2362869,3.14285714 17.6624473,5.00529101 19.6371308,6.51851852 C24.1350211,10.010582 29.1814346,10.010582 33.4599156,5.82010582 C34.7763713,4.42328042 36.2025316,2.91005291 37.2995781,1.16402116 C38.5063291,-0.116402116 40.1518987,-0.349206349 41.0295359,1.16402116 C42.1265823,2.56084656 43.5527426,4.42328042 44.978903,5.58730159 C46.8438819,7.68253968 49.3670886,8.61375661 52,8.84656085 C52,9.1957672 52,9.77777778 52,10.3597884 C50.7932489,10.010582 49.6962025,10.010582 48.5991561,9.77777778 C48.5991561,11.5238095 48.5991561,13.037037 48.5991561,14.7830688 C49.6962025,14.7830688 50.5738397,14.7830688 52,14.7830688 C52,15.7142857 52,16.6455026 52,17.4603175 C50.0253165,17.4603175 48.0506329,17.4603175 46.0759494,17.4603175 C44.1012658,17.4603175 42.1265823,17.4603175 40.1518987,17.4603175 C40.1518987,18.973545 40.1518987,20.4867725 40.1518987,22 C39.2742616,22 38.5063291,22 37.628692,22 C37.628692,20.4867725 37.628692,19.3227513 37.628692,17.8095238 C30.0590717,17.8095238 22.4894515,17.8095238 14.2616034,17.8095238 Z M37.9578059,1.97883598 C37.0801688,2.91005291 36.5316456,3.84126984 35.9831224,4.65608466 C35.9831224,5.00529101 35.6540084,5.00529101 35.6540084,5.23809524 C35.6540084,8.26455026 35.6540084,11.2910053 35.6540084,14.2010582 C35.6540084,14.5502646 35.9831224,14.7830688 35.9831224,14.7830688 C36.5316456,14.7830688 37.0801688,14.7830688 37.9578059,14.7830688 C37.9578059,10.5925926 37.9578059,6.51851852 37.9578059,1.97883598 Z M11.7383966,2.32804233 C11.1898734,2.91005291 10.6413502,3.84126984 10.092827,4.42328042 C9.87341772,5.00529101 9.5443038,5.58730159 9.5443038,5.82010582 C9.5443038,8.26455026 9.5443038,10.5925926 9.5443038,12.6878307 C9.5443038,13.2698413 9.5443038,14.2010582 9.5443038,14.7830688 C10.4219409,14.7830688 11.1898734,14.7830688 11.7383966,14.7830688 C11.7383966,10.5925926 11.7383966,6.51851852 11.7383966,2.32804233 Z M40.4810127,1.97883598 C40.4810127,6.51851852 40.4810127,10.5925926 40.4810127,14.7830688 C41.2489451,14.7830688 41.7974684,14.7830688 42.6751055,14.7830688 C42.6751055,14.5502646 42.6751055,14.2010582 42.6751055,14.2010582 C42.6751055,11.5238095 42.6751055,8.61375661 42.6751055,5.82010582 C42.6751055,5.58730159 42.6751055,5.23809524 42.6751055,5.00529101 C41.7974684,3.84126984 41.2489451,2.91005291 40.4810127,1.97883598 Z M14.5907173,15.1322751 C14.9198312,15.1322751 15.1392405,15.1322751 15.1392405,15.1322751 C16.8945148,15.1322751 16.5654008,15.1322751 16.5654008,13.6190476 C16.5654008,11.2910053 16.5654008,8.61375661 16.5654008,6.16931217 C16.5654008,5.82010582 16.5654008,5.58730159 16.2362869,5.23809524 C16.0168776,4.07407407 15.1392405,3.14285714 14.5907173,2.32804233 C14.5907173,6.51851852 14.5907173,10.5925926 14.5907173,15.1322751 Z M35.3248945,15.1322751 C35.3248945,11.8730159 35.3248945,8.84656085 35.3248945,5.82010582 C34.556962,6.51851852 33.6793249,7.33333333 33.1308017,7.91534392 C32.8016878,7.91534392 32.8016878,8.61375661 32.8016878,8.61375661 C32.8016878,10.3597884 32.8016878,12.1058201 32.8016878,13.968254 C32.8016878,14.2010582 32.8016878,14.7830688 32.8016878,15.1322751 C33.6793249,15.1322751 34.556962,15.1322751 35.3248945,15.1322751 Z M17.1139241,15.1322751 C17.9915612,15.1322751 18.5400844,15.1322751 19.0886076,15.1322751 C19.4177215,15.1322751 19.6371308,14.7830688 19.6371308,14.5502646 C19.6371308,12.4550265 19.6371308,10.3597884 19.6371308,8.26455026 C19.6371308,7.91534392 19.6371308,7.68253968 19.4177215,7.68253968 C18.7594937,7.1005291 17.9915612,6.51851852 17.1139241,5.58730159 C17.1139241,8.84656085 17.1139241,11.8730159 17.1139241,15.1322751 Z M8.99578059,5.58730159 C8.44725738,6.51851852 7.56962025,6.75132275 7.02109705,7.33333333 C6.69198312,7.68253968 6.69198312,8.26455026 6.69198312,8.61375661 C6.69198312,10.010582 6.69198312,11.8730159 6.69198312,13.2698413 C6.69198312,13.968254 6.69198312,14.5502646 6.69198312,15.1322751 C7.56962025,15.1322751 8.44725738,15.1322751 9.21518987,15.1322751 C8.99578059,11.8730159 8.99578059,8.84656085 8.99578059,5.58730159 Z M45.5274262,14.7830688 C45.5274262,13.6190476 45.5274262,12.6878307 45.5274262,11.8730159 C45.5274262,10.5925926 45.5274262,9.42857143 45.5274262,8.26455026 C45.5274262,7.91534392 45.5274262,7.68253968 45.1983122,7.68253968 C44.3206751,7.1005291 43.7721519,6.16931217 43.0042194,5.58730159 C43.0042194,8.84656085 43.0042194,11.8730159 43.0042194,14.7830688 C43.7721519,14.7830688 44.649789,14.7830688 45.5274262,14.7830688 Z M26.4388186,15.1322751 C27.535865,15.1322751 28.6329114,15.1322751 29.7299578,15.1322751 C29.7299578,13.2698413 29.7299578,11.5238095 29.7299578,9.77777778 C28.9620253,10.010582 27.7552743,10.010582 26.9873418,10.3597884 C26.6582278,10.3597884 26.4388186,10.5925926 26.4388186,10.5925926 C26.4388186,12.1058201 26.4388186,13.2698413 26.4388186,15.1322751 Z M25.7805907,15.1322751 C25.7805907,13.2698413 25.7805907,11.8730159 25.7805907,10.3597884 C24.6835443,10.010582 23.9156118,10.010582 22.7088608,9.77777778 C22.7088608,11.5238095 22.7088608,13.2698413 22.7088608,15.1322751 C23.9156118,15.1322751 25.0126582,15.1322751 25.7805907,15.1322751 Z M32.2531646,15.1322751 C32.2531646,12.6878307 32.2531646,10.5925926 32.2531646,8.26455026 C30.6075949,8.84656085 29.1814346,9.42857143 29.7299578,11.8730159 C29.7299578,12.4550265 29.7299578,13.037037 29.7299578,13.6190476 C29.7299578,14.2010582 29.7299578,14.5502646 29.7299578,15.1322751 C30.9367089,15.1322751 31.4852321,15.1322751 32.2531646,15.1322751 Z M19.9662447,15.1322751 C20.7341772,15.1322751 21.2827004,15.1322751 21.9409283,15.1322751 C22.4894515,15.1322751 22.4894515,14.7830688 22.4894515,14.5502646 C22.4894515,13.037037 22.4894515,11.5238095 22.4894515,10.010582 C22.4894515,9.77777778 22.4894515,9.42857143 22.1603376,9.42857143 C21.2827004,8.84656085 20.7341772,8.61375661 19.9662447,8.26455026 C19.9662447,10.3597884 19.9662447,12.6878307 19.9662447,15.1322751 Z M6.14345992,15.1322751 C6.14345992,12.6878307 6.14345992,10.5925926 6.14345992,8.26455026 C5.59493671,8.61375661 4.71729958,8.84656085 4.16877637,9.42857143 C3.94936709,9.42857143 3.94936709,9.77777778 3.94936709,9.77777778 C3.94936709,11.5238095 3.94936709,13.2698413 3.94936709,15.1322751 C4.71729958,15.1322751 5.37552743,15.1322751 6.14345992,15.1322751 Z M48.2700422,14.7830688 C48.2700422,13.037037 48.2700422,11.2910053 48.2700422,9.77777778 C48.2700422,9.42857143 48.0506329,9.42857143 48.0506329,9.1957672 C47.5021097,8.84656085 46.6244726,8.26455026 45.7468354,7.91534392 C45.7468354,10.3597884 45.7468354,12.4550265 45.7468354,14.7830688 C46.8438819,14.7830688 47.5021097,14.7830688 48.2700422,14.7830688 Z" id="Shape"></path>
        </g>
    </g>
</svg>