<?xml version="1.0" encoding="UTF-8"?>
<svg width="64px" height="64px" viewBox="0 0 64 64" version="1.1" xmlns="http://www.w3.org/2000/svg" xmlns:xlink="http://www.w3.org/1999/xlink">
    <!-- Generator: Sketch 52.6 (67491) - http://www.bohemiancoding.com/sketch -->
    <title>bridge-overbridge</title>
    <desc>Created with Sketch.</desc>
    <g id="bridge-overbridge" stroke="none" stroke-width="1" fill="none" fill-rule="evenodd">
        <g id="icon-bridge-overbridge" transform="translate(6.000000, 26.000000)" fill="#000000" fill-rule="nonzero">
            <path d="M2.48648649,5.32173913 C5.2972973,4.48695652 7.78378378,3.75652174 10.2702703,3.13043478 C11.3513514,2.92173913 12.7567568,2.60869565 14.0540541,2.4 C14.3783784,2.08695652 14.7027027,2.08695652 14.7027027,1.87826087 C14.7027027,1.56521739 14.7027027,1.04347826 14.7027027,0.730434783 C14.7027027,0.208695652 15.2432432,0 15.7837838,0 C16.3243243,0 16.8648649,0.208695652 16.8648649,0.730434783 C16.8648649,1.04347826 16.8648649,1.56521739 16.8648649,1.87826087 C22.9189189,1.04347826 29.0810811,1.04347826 35.1351351,1.87826087 C35.1351351,1.25217391 35.1351351,1.04347826 35.1351351,0.730434783 C35.1351351,0.208695652 35.4594595,0 36.2162162,0 C37.0810811,0 37.4054054,0.208695652 37.4054054,0.730434783 C37.4054054,1.04347826 37.4054054,1.56521739 37.4054054,1.87826087 C37.4054054,1.87826087 37.6216216,2.08695652 37.9459459,2.08695652 C42.0540541,2.60869565 45.9459459,3.75652174 49.8378378,5.32173913 C49.8378378,4.48695652 49.8378378,3.96521739 49.8378378,3.44347826 C49.8378378,2.92173913 50.0540541,2.60869565 50.9189189,2.60869565 C51.4594595,2.60869565 52,2.92173913 52,3.44347826 C52,6.15652174 52,8.76521739 52,11.4782609 C52,11.4782609 52,11.6869565 52,12 C51.4594595,12 50.9189189,12 50.3783784,12 C50.0540541,12 50.0540541,12 49.8378378,11.6869565 C48.6486486,10.1217391 46.8108108,9.6 44,9.28695652 C41.1891892,9.28695652 39.2432432,10.1217391 37.9459459,11.4782609 C37.9459459,11.6869565 37.6216216,11.6869565 37.4054054,11.6869565 C36.5405405,11.6869565 36,11.6869565 35.1351351,11.6869565 C35.1351351,11.6869565 34.8108108,11.4782609 34.8108108,11.4782609 C33.7297297,9.6 31.5675676,8.55652174 28.5405405,7.72173913 C23.7837838,6.88695652 18.4864865,8.55652174 17.1891892,11.1652174 C17.1891892,11.4782609 17.1891892,11.6869565 16.3243243,11.6869565 C15.4594595,11.6869565 14.7027027,12 14.0540541,11.4782609 C12.972973,10.1217391 11.027027,9.28695652 8.32432432,9.28695652 C5.83783784,9.28695652 3.56756757,10.1217391 2.48648649,11.4782609 C2.16216216,11.6869565 1.94594595,12 1.40540541,11.6869565 C0.864864865,11.6869565 0.540540541,11.6869565 0,11.6869565 C0,11.4782609 0,11.4782609 0,11.1652174 C0,8.55652174 0,5.84347826 0,3.13043478 C0,3.13043478 0,2.92173913 0,2.92173913 C0,2.60869565 0.540540541,2.4 1.08108108,2.4 C1.62162162,2.4 2.16216216,2.60869565 2.16216216,2.92173913 C2.16216216,3.44347826 2.16216216,3.75652174 2.16216216,4.27826087 C2.48648649,4.8 2.48648649,5.00869565 2.48648649,5.32173913 Z M16.8648649,4.48695652 C22.9189189,3.75652174 29.0810811,3.75652174 34.8108108,4.48695652 C35.4594595,3.13043478 35.1351351,3.13043478 33.1891892,2.92173913 C32.972973,2.92173913 32.6486486,2.92173913 32.6486486,2.92173913 C28.7567568,2.60869565 24.8648649,2.60869565 20.972973,2.92173913 C19.6756757,2.92173913 18.2702703,3.13043478 17.1891892,3.13043478 C16.8648649,3.75652174 16.8648649,3.96521739 16.8648649,4.48695652 Z M49.5135135,7.93043478 C49.5135135,7.72173913 49.5135135,7.72173913 49.5135135,7.40869565 C49.8378378,6.88695652 49.2972973,6.67826087 48.4324324,6.36521739 C46.4864865,5.84347826 44.5405405,5.00869565 42.3783784,4.48695652 C40.6486486,3.96521739 38.7027027,3.75652174 36.7567568,3.44347826 C36.7567568,3.75652174 36.7567568,3.96521739 36.7567568,4.27826087 C36.7567568,4.8 37.0810811,4.8 37.6216216,5.00869565 C40.1081081,5.53043478 42.5945946,6.15652174 45.0810811,6.67826087 C46.8108108,7.2 48.1081081,7.40869565 49.5135135,7.93043478 Z M14.7027027,3.44347826 C14.3783784,3.44347826 14.3783784,3.44347826 14.7027027,3.44347826 C14.0540541,3.44347826 14.0540541,3.44347826 13.8378378,3.44347826 C10.2702703,3.96521739 6.91891892,5.00869565 3.56756757,6.15652174 C2.16216216,6.67826087 2.16216216,6.88695652 2.48648649,7.93043478 C6.37837838,6.67826087 10.2702703,5.53043478 14.7027027,4.8 C14.7027027,4.48695652 14.7027027,3.96521739 14.7027027,3.44347826 Z" id="Shape"></path>
        </g>
    </g>
</svg>