<?xml version="1.0" encoding="UTF-8"?>
<svg width="64px" height="64px" viewBox="0 0 64 64" version="1.1" xmlns="http://www.w3.org/2000/svg" xmlns:xlink="http://www.w3.org/1999/xlink">
    <!-- Generator: Sketch 52.6 (67491) - http://www.bohemiancoding.com/sketch -->
    <title>budgets-money</title>
    <desc>Created with Sketch.</desc>
    <g id="budgets-money" stroke="none" stroke-width="1" fill="none" fill-rule="evenodd">
        <g id="icon-budgets-money" transform="translate(6.000000, 17.000000)" fill="#000000" fill-rule="nonzero">
            <path d="M49.3747573,13.0564784 C46.2446602,11.9601329 43.215534,11.9601329 40.2873786,13.0564784 C39.2776699,13.5548173 38.2679612,14.0531561 38.2679612,15.3488372 C38.2679612,16.5448505 39.2776699,17.0431894 40.2873786,17.641196 C43.215534,18.8372093 45.7398058,18.8372093 48.8699029,18.1395349 C50.1825243,17.8405316 51.3941748,17.0431894 52,15.8471761 C52,15.3488372 52,15.0498339 52,14.551495 C51.192233,14.0531561 50.384466,13.255814 49.3747573,13.0564784 Z M37.9650485,21.9269103 C37.9650485,23.7209302 38.4699029,24.717608 40.5902913,25.5149502 C43.215534,26.5116279 46.0427184,26.5116279 48.5669903,25.8139535 C49.8796117,25.5149502 50.8893204,24.717608 51.6970874,23.4219269 C51.6970874,22.923588 51.6970874,22.2259136 51.6970874,21.7275748 C47.0524272,24.717608 42.6097087,24.2192691 37.9650485,21.9269103 Z M37.9650485,25.5149502 C37.7631068,27.0099668 38.2679612,28.1063123 39.7825243,28.8039867 C42.1048544,30.0996678 44.7300971,30.0996678 47.2543689,29.6013289 C49.0718447,29.3023256 50.6873786,28.6046512 52,27.0099668 C52,26.5116279 52,25.8139535 52,25.2159468 C47.0524272,28.1063123 42.6097087,28.1063123 37.9650485,25.5149502 Z M38.4699029,18.3388704 C38.2679612,18.3388704 38.2679612,18.1395349 37.9650485,18.3388704 C37.9650485,20.1328904 38.2679612,20.9302326 40.0854369,21.7275748 C42.407767,22.7242525 44.7300971,22.7242525 47.0524272,22.4252492 C48.8699029,22.2259136 50.384466,21.4285714 51.6970874,19.9335548 C51.6970874,19.4352159 51.6970874,18.6378738 51.6970874,18.1395349 C51.192233,18.3388704 50.6873786,18.6378738 50.1825243,18.8372093 C46.2446602,20.4318937 42.1048544,20.6312292 38.4699029,18.3388704 Z M43.4174757,9.96677741 L44.2252427,9.96677741 L44.2252427,6.37873754 L41.0951456,6.37873754 C33.1184466,6.37873754 12.6213592,6.37873754 6.96699029,6.37873754 C6.46213592,6.37873754 5.95728155,6.37873754 5.95728155,7.17607973 C5.95728155,12.2591362 5.95728155,17.0431894 5.95728155,22.2259136 L5.95728155,26.3122924 L9.08737864,26.3122924 C17.568932,26.3122924 25.8485437,26.3122924 34.3300971,26.3122924 C35.1378641,26.3122924 35.1378641,26.013289 35.1378641,25.5149502 C35.1378641,22.4252492 35.1378641,19.1362126 35.1378641,16.0465116 C35.1378641,14.2524917 35.9456311,13.0564784 37.4601942,11.7607973 C38.7728155,10.6644518 40.2873786,10.166113 42.1048544,9.96677741 C42.6097087,9.96677741 43.215534,9.96677741 43.4174757,9.96677741 Z M40.792233,3.28903654 C40.792233,2.2923588 41.0951456,0.797342193 40.792233,0 L0,0.299003322 C0,6.67774086 0,13.0564784 0,19.4352159 L0,23.4219269 L3.13009709,23.4219269 L3.13009709,22.2259136 C3.13009709,16.345515 3.13009709,10.4651163 3.13009709,4.58471761 C3.13009709,3.58803987 3.33203883,3.58803987 4.44271845,3.58803987 C15.7514563,3.28903654 29.1805825,3.28903654 40.792233,3.28903654 Z" id="Shape"></path>
        </g>
    </g>
</svg>