<?xml version="1.0" encoding="UTF-8"?>
<svg width="64px" height="64px" viewBox="0 0 64 64" version="1.1" xmlns="http://www.w3.org/2000/svg" xmlns:xlink="http://www.w3.org/1999/xlink">
    <!-- Generator: Sketch 52.6 (67491) - http://www.bohemiancoding.com/sketch -->
    <title>budgets-bag-star</title>
    <desc>Created with Sketch.</desc>
    <g id="budgets-bag-star" stroke="none" stroke-width="1" fill="none" fill-rule="evenodd">
        <g id="icon-budgets-bag-star" transform="translate(11.000000, 6.000000)" fill="#000000" fill-rule="nonzero">
            <path d="M15.1734104,7.57847534 C14.3236994,7.57847534 13.716763,8.16143498 13.716763,8.97757848 C13.716763,9.9103139 14.3236994,10.4932735 15.1734104,10.4932735 L27.0693642,10.4932735 C27.9190751,10.4932735 28.5260116,9.9103139 28.5260116,8.97757848 C28.5260116,8.16143498 27.9190751,7.57847534 27.0693642,7.57847534 L15.1734104,7.57847534 Z M27.6763006,6.64573991 L31.3179191,2.79820628 C31.3179191,2.79820628 29.8612717,0.116591928 25.1271676,2.79820628 C22.0924855,1.51569507 23.3063584,-0.233183857 20.7572254,0.116591928 C18.6936416,0.116591928 18.9364162,3.03139013 17.7225434,3.03139013 C16.1445087,3.03139013 14.566474,0.116591928 11.1676301,2.79820628 L14.3236994,6.64573991 L27.6763006,6.64573991 Z M41.6358382,35.3273543 L41.6358382,34.9775785 C41.6358382,34.7443946 41.6358382,34.3946188 41.6358382,33.8116592 C41.6358382,31.3632287 41.0289017,29.0313901 40.0578035,26.9327354 C39.8150289,26.3497758 39.4508671,25.7668161 39.0867052,25.1838565 C37.6300578,22.5022422 34.2312139,16.7892377 28.5260116,11.426009 L13.716763,11.426009 C10.1965318,14.690583 4.61271676,20.9865471 2.1849711,26.5829596 C2.1849711,26.5829596 2.1849711,26.9327354 1.82080925,26.9327354 C0.971098266,29.0313901 0.242774566,31.3632287 0.242774566,33.8116592 C0.242774566,34.044843 0.242774566,34.3946188 0.242774566,34.9775785 L0.242774566,35.5605381 C0.242774566,35.9103139 0.242774566,36.1434978 0.242774566,36.4932735 L2.1849711,48.3856502 L0,52 L42,52 L39.0867052,47.8026906 L41.0289017,39.1748879 C41.2716763,38.0089686 41.6358382,36.7264574 41.6358382,35.3273543 Z M27.0693642,40.3408072 L20.7572254,36.1434978 L14.566474,40.3408072 L17.1156069,33.4618834 L11.1676301,29.0313901 L18.6936416,29.0313901 L21.1213873,22.1524664 L23.3063584,29.0313901 L30.7109827,29.264574 L24.5202312,33.4618834 L27.0693642,40.3408072 Z" id="Shape"></path>
        </g>
    </g>
</svg>