<?xml version="1.0" encoding="UTF-8"?>
<svg width="64px" height="64px" viewBox="0 0 64 64" version="1.1" xmlns="http://www.w3.org/2000/svg" xmlns:xlink="http://www.w3.org/1999/xlink">
    <!-- Generator: Sketch 52.6 (67491) - http://www.bohemiancoding.com/sketch -->
    <title>budgets</title>
    <desc>Created with Sketch.</desc>
    <g id="budgets" stroke="none" stroke-width="1" fill="none" fill-rule="evenodd">
        <g id="icon-budgets" transform="translate(8.000000, 6.000000)" fill="#000000" fill-rule="nonzero">
            <path d="M18.3980344,18.4166667 L26.1818182,0 L47.6461916,8.90740741 L43.4004914,18.4166667 L18.3980344,18.4166667 Z M22.8796069,2.76851852 L18.3980344,2.76851852 L14.5061425,18.4166667 L16.2751843,18.4166667 L22.8796069,2.76851852 Z M15.6855037,4.93518519 L12.029484,18.4166667 L10.4963145,18.4166667 L12.3832924,4.93518519 L15.6855037,4.93518519 Z M37.3857494,28.8888889 L46.4668305,28.8888889 L46.4668305,20.3425926 L6.01474201,20.3425926 C5.42506143,20.3425926 5.07125307,19.9814815 5.07125307,19.3796296 C5.07125307,18.7777778 5.42506143,18.4166667 6.01474201,18.4166667 L8.37346437,18.4166667 L8.37346437,14.4444444 L6.01474201,14.4444444 C2.71253071,14.4444444 0.235872236,16.9722222 0,20.3425926 L0,45.8611111 C0,49.2314815 2.71253071,52 6.01474201,52 L46.4668305,52 L46.4668305,43.4537037 L37.3857494,43.4537037 C33.4938575,43.4537037 30.4275184,40.3240741 30.4275184,36.3518519 C30.4275184,32.0185185 33.4938575,28.8888889 37.3857494,28.8888889 Z M37.97543,30.8148148 C34.6732187,30.8148148 32.9041769,33.2222222 32.9041769,35.9907407 C32.9041769,38.7592593 34.6732187,41.287037 37.97543,41.287037 L48,41.287037 L48,30.8148148 L37.97543,30.8148148 Z M38.3292383,38.1574074 C37.1498771,38.1574074 36.2063882,37.3148148 36.2063882,35.9907407 C36.2063882,34.787037 37.1498771,33.8240741 38.3292383,33.8240741 C39.5085995,33.8240741 40.4520885,34.787037 40.4520885,35.9907407 C40.4520885,37.3148148 39.5085995,38.1574074 38.3292383,38.1574074 Z" id="Shape"></path>
        </g>
    </g>
</svg>