<?xml version="1.0" encoding="UTF-8"?>
<svg width="64px" height="64px" viewBox="0 0 64 64" version="1.1" xmlns="http://www.w3.org/2000/svg" xmlns:xlink="http://www.w3.org/1999/xlink">
    <!-- Generator: Sketch 52.6 (67491) - http://www.bohemiancoding.com/sketch -->
    <title>budgets-bag</title>
    <desc>Created with Sketch.</desc>
    <g id="budgets-bag" stroke="none" stroke-width="1" fill="none" fill-rule="evenodd">
        <g id="icon-budgets-bag" transform="translate(11.000000, 6.000000)" fill="#000000" fill-rule="nonzero">
            <path d="M15.1734104,7.56152125 C14.3236994,7.56152125 13.716763,8.14317673 13.716763,9.0738255 C13.716763,10.0044743 14.3236994,10.5861298 15.1734104,10.5861298 L27.0693642,10.5861298 C27.9190751,10.5861298 28.5260116,10.0044743 28.5260116,9.0738255 C28.5260116,8.14317673 27.9190751,7.56152125 27.0693642,7.56152125 L15.1734104,7.56152125 Z M27.6763006,6.74720358 L31.3179191,2.79194631 C31.3179191,2.79194631 29.8612717,0.116331096 25.1271676,2.79194631 C22.0924855,1.62863535 23.3063584,-0.116331096 20.7572254,0.116331096 C18.3294798,0.465324385 18.9364162,3.1409396 17.3583815,3.1409396 C15.7803468,3.1409396 14.3236994,0.465324385 10.9248555,2.79194631 L13.9595376,6.74720358 L27.6763006,6.74720358 Z M41.6358382,35.2483221 L41.6358382,35.01566 C41.6358382,34.6666667 41.6358382,34.4340045 41.6358382,33.852349 C41.6358382,31.409396 41.0289017,29.082774 40.0578035,26.9888143 C39.8150289,26.4071588 39.4508671,25.7091723 39.0867052,25.1275168 C37.6300578,22.4519016 34.2312139,16.8680089 28.5260116,11.5167785 L13.716763,11.5167785 C10.5606936,14.7740492 4.61271676,20.9395973 2.1849711,26.639821 C2.1849711,26.639821 2.1849711,26.9888143 1.82080925,26.9888143 C0.971098266,29.082774 0.242774566,31.409396 0.242774566,33.852349 C0.242774566,34.0850112 0.242774566,34.4340045 0.242774566,35.01566 L0.242774566,35.5973154 C0.242774566,35.8299776 0.242774566,36.1789709 0.242774566,36.5279642 L2.1849711,48.393736 L0,52 L42,52 L39.0867052,47.8120805 L41.0289017,39.2035794 C41.2716763,37.9239374 41.6358382,36.7606264 41.6358382,35.2483221 Z" id="Shape"></path>
        </g>
    </g>
</svg>