<?xml version="1.0" encoding="UTF-8"?>
<svg width="64px" height="64px" viewBox="0 0 64 64" version="1.1" xmlns="http://www.w3.org/2000/svg" xmlns:xlink="http://www.w3.org/1999/xlink">
    <!-- Generator: Sketch 52.6 (67491) - http://www.bohemiancoding.com/sketch -->
    <title>budgets-bag-coins</title>
    <desc>Created with Sketch.</desc>
    <g id="budgets-bag-coins" stroke="none" stroke-width="1" fill="none" fill-rule="evenodd">
        <g id="icon-budgets-bag-coins" transform="translate(11.000000, 6.000000)" fill="#000000" fill-rule="nonzero">
            <path d="M15.1734104,7.57847534 C14.3236994,7.57847534 13.716763,8.16143498 13.716763,8.97757848 C13.716763,9.9103139 14.3236994,10.4932735 15.1734104,10.4932735 L27.0693642,10.4932735 C27.9190751,10.4932735 28.5260116,9.9103139 28.5260116,8.97757848 C28.5260116,8.16143498 27.9190751,7.57847534 27.0693642,7.57847534 L15.1734104,7.57847534 Z M27.6763006,6.64573991 L31.3179191,2.79820628 C31.3179191,2.79820628 29.8612717,0.116591928 25.1271676,2.79820628 C22.0924855,1.51569507 23.3063584,-0.233183857 20.7572254,0.116591928 C18.6936416,0.116591928 18.9364162,3.03139013 17.7225434,3.03139013 C16.1445087,3.03139013 14.566474,0.116591928 11.1676301,2.79820628 L14.3236994,6.64573991 L27.6763006,6.64573991 Z M41.6358382,35.3273543 L41.6358382,34.9775785 C41.6358382,34.7443946 41.6358382,34.3946188 41.6358382,33.8116592 C41.6358382,31.3632287 41.0289017,29.0313901 40.0578035,26.9327354 C39.8150289,26.3497758 39.4508671,25.7668161 39.0867052,25.1838565 C37.6300578,22.5022422 34.2312139,16.7892377 28.5260116,11.426009 L13.716763,11.426009 C10.1965318,14.690583 4.61271676,20.9865471 2.1849711,26.5829596 C2.1849711,26.5829596 2.1849711,26.9327354 1.82080925,26.9327354 C0.971098266,29.0313901 0.242774566,31.3632287 0.242774566,33.8116592 C0.242774566,34.044843 0.242774566,34.3946188 0.242774566,34.9775785 L0.242774566,35.5605381 C0.242774566,35.9103139 0.242774566,36.1434978 0.242774566,36.4932735 L2.1849711,48.3856502 L0,52 L42,52 L39.0867052,47.8026906 L41.0289017,39.1748879 C41.2716763,38.0089686 41.6358382,36.7264574 41.6358382,35.3273543 Z M29.4971098,40.9237668 C28.283237,42.7892377 26.4624277,43.6053812 24.2774566,43.955157 C21.1213873,44.1883408 18.3294798,44.1883408 15.5375723,43.0224215 C13.716763,42.206278 12.9884393,41.2735426 13.3526012,39.1748879 C18.9364162,42.206278 24.2774566,42.206278 29.4971098,39.1748879 C29.4971098,39.7578475 29.4971098,40.3408072 29.4971098,40.9237668 Z M29.4971098,36.7264574 C28.5260116,38.2421525 27.3121387,38.8251121 25.734104,39.5246637 C22.699422,40.3408072 19.300578,40.3408072 16.1445087,39.1748879 C13.716763,38.2421525 12.9884393,37.426009 13.3526012,34.9775785 C18.9364162,37.6591928 24.2774566,38.2421525 29.8612717,34.7443946 C29.4971098,35.3273543 29.4971098,35.9103139 29.4971098,36.7264574 Z M29.4971098,32.6457399 C28.283237,34.3946188 26.0982659,34.9775785 24.2774566,35.3273543 C21.1213873,35.9103139 18.3294798,35.5605381 15.5375723,34.3946188 C13.3526012,33.4618834 12.7456647,32.6457399 12.9884393,30.5470852 C13.3526012,30.1973094 13.3526012,30.5470852 13.716763,30.5470852 C18.3294798,33.2286996 22.9421965,33.2286996 27.6763006,31.1300448 C28.283237,30.7802691 28.8901734,30.5470852 29.4971098,30.1973094 C29.4971098,31.1300448 29.4971098,31.7130045 29.4971098,32.6457399 Z M29.4971098,28.0986547 C28.5260116,29.6143498 27.3121387,30.1973094 25.734104,30.7802691 C22.3352601,31.7130045 18.9364162,31.7130045 15.7803468,30.1973094 C14.566474,29.6143498 13.3526012,29.0313901 13.3526012,27.5156951 C13.3526012,26 14.566474,25.1838565 15.7803468,24.8340807 C19.5433526,23.3183857 22.9421965,23.3183857 26.7052023,24.8340807 C27.9190751,25.1838565 28.8901734,26 29.4971098,26.9327354 C29.4971098,27.2825112 29.4971098,27.5156951 29.4971098,28.0986547 Z" id="Shape"></path>
        </g>
    </g>
</svg>