<?xml version="1.0" encoding="UTF-8"?>
<svg width="64px" height="64px" viewBox="0 0 64 64" version="1.1" xmlns="http://www.w3.org/2000/svg" xmlns:xlink="http://www.w3.org/1999/xlink">
    <!-- Generator: Sketch 52.6 (67491) - http://www.bohemiancoding.com/sketch -->
    <title>buildings-building</title>
    <desc>Created with Sketch.</desc>
    <g id="buildings-building" stroke="none" stroke-width="1" fill="none" fill-rule="evenodd">
        <g id="icon-buildings-building" transform="translate(15.000000, 7.000000)" fill="#000000" fill-rule="nonzero">
            <path d="M13.6,52 C9.10153846,52 4.49846154,52 0,52 C0,51.4650206 0,50.9300412 0,50.3950617 C0,33.9176955 0,17.7613169 0,1.3909465 C0,0.748971193 0,0.21399177 0,0 C11.5076923,0 22.7015385,0 34,0 C34,0.534979424 34,1.06995885 34,1.60493827 C34,13.909465 34,26.3209877 34,38.6255144 C34,43.0123457 34,47.6131687 34,52 C29.3969231,52 24.8984615,52 20.2953846,52 C20.2953846,48.4691358 20.2953846,45.1522634 20.2953846,41.6213992 C17.8892308,41.6213992 15.7969231,41.6213992 13.6,41.6213992 C13.6,45.1522634 13.6,48.6831276 13.6,52 Z M9.83384615,5.13580247 C7.42769231,5.13580247 5.33538462,5.13580247 3.45230769,5.13580247 C3.45230769,8.77366255 3.45230769,11.9835391 3.45230769,15.3004115 C5.54461538,15.3004115 7.74153846,15.3004115 9.83384615,15.3004115 C9.83384615,11.9835391 9.83384615,8.77366255 9.83384615,5.13580247 Z M20.0861538,5.13580247 C17.68,5.13580247 15.4830769,5.13580247 13.6,5.13580247 C13.6,8.77366255 13.6,11.9835391 13.6,15.3004115 C15.7969231,15.3004115 17.8892308,15.3004115 20.0861538,15.3004115 C20.0861538,11.9835391 20.0861538,8.77366255 20.0861538,5.13580247 Z M30.2338462,15.6213992 C30.2338462,11.9835391 30.2338462,8.77366255 30.2338462,5.13580247 C28.1415385,5.13580247 25.9446154,5.13580247 23.8523077,5.13580247 C23.8523077,8.77366255 23.8523077,11.9835391 23.8523077,15.6213992 C25.9446154,15.6213992 28.1415385,15.6213992 30.2338462,15.6213992 Z M9.83384615,32.8477366 C9.83384615,29.3168724 9.83384615,26 9.83384615,22.6831276 C7.74153846,22.6831276 5.54461538,22.6831276 3.45230769,22.6831276 C3.45230769,26.3209877 3.45230769,29.5308642 3.45230769,32.8477366 C5.54461538,32.8477366 7.74153846,32.8477366 9.83384615,32.8477366 Z M13.6,22.6831276 C13.6,26.3209877 13.6,29.5308642 13.6,32.8477366 C15.7969231,32.8477366 17.8892308,32.8477366 20.2953846,32.8477366 C20.2953846,29.5308642 20.2953846,26 20.2953846,22.6831276 C17.8892308,22.6831276 15.7969231,22.6831276 13.6,22.6831276 Z M23.8523077,32.8477366 C26.2584615,32.8477366 28.3507692,32.8477366 30.2338462,32.8477366 C30.2338462,29.3168724 30.2338462,26 30.2338462,22.6831276 C28.1415385,22.6831276 25.9446154,22.6831276 23.8523077,22.6831276 C23.8523077,26 23.8523077,29.3168724 23.8523077,32.8477366 Z" id="Shape"></path>
        </g>
    </g>
</svg>