<?xml version="1.0" encoding="UTF-8"?>
<svg width="64px" height="64px" viewBox="0 0 64 64" version="1.1" xmlns="http://www.w3.org/2000/svg" xmlns:xlink="http://www.w3.org/1999/xlink">
    <!-- Generator: Sketch 52.6 (67491) - http://www.bohemiancoding.com/sketch -->
    <title>buildings-factory1</title>
    <desc>Created with Sketch.</desc>
    <g id="buildings-factory1" stroke="none" stroke-width="1" fill="none" fill-rule="evenodd">
        <g id="icon-buildings-factory1" transform="translate(6.000000, 9.000000)" fill="#000000" fill-rule="nonzero">
            <path d="M50.9322382,41.5194508 C50.0780287,41.7391304 49.8644764,41.1899314 49.8644764,40.3112128 C49.5441478,38.4439359 49.5441478,36.4668192 49.5441478,34.4897025 C49.3305955,30.2059497 49.0102669,26.0320366 48.6899384,21.8581236 C48.6899384,20.979405 48.6899384,20.1006865 48.476386,19.221968 C48.476386,19.221968 48.476386,19.0022883 48.476386,19.0022883 C45.7002053,18.6727689 43.2443532,18.6727689 40.5749487,19.0022883 C40.5749487,19.0022883 40.5749487,19.0022883 40.5749487,19.221968 C40.2546201,19.8810069 40.2546201,20.4302059 40.2546201,21.1990847 C39.4004107,24.0549199 39.7207392,27.1304348 39.4004107,29.98627 C39.1868583,31.6338673 38.8665298,33.2814645 38.8665298,35.0389016 C38.6529774,31.9633867 38.3326489,28.8878719 38.1190965,25.7025172 C37.798768,21.1990847 37.5852156,16.6956522 37.5852156,12.1922197 C37.5852156,11.423341 37.2648871,11.423341 36.4106776,11.423341 C34.4887064,11.423341 32.3531828,11.423341 30.4312115,11.423341 C29.5770021,11.423341 29.3634497,11.6430206 29.3634497,12.5217391 C29.0431211,15.3775744 29.0431211,17.9038902 28.8295688,20.6498856 C28.5092402,23.5057208 28.5092402,26.0320366 28.1889117,28.8878719 C25.1991786,27.6796339 22.2094456,26.5812357 19.5400411,25.4828375 C18.3655031,24.604119 17.0841889,23.7254005 16.2299795,24.0549199 C15.1622177,24.3844394 15.1622177,26.0320366 14.5215606,27.1304348 C14.3080082,28.228833 13.7741273,28.228833 12.7063655,28.0091533 C10.9979466,27.6796339 8.862423,26.9107551 6.94045175,26.5812357 C6.94045175,26.5812357 6.6201232,26.5812357 6.6201232,26.5812357 C5.23203285,25.7025172 3.95071869,25.7025172 2.56262834,25.4828375 C2.24229979,25.1533181 2.02874743,25.1533181 2.02874743,25.7025172 C2.02874743,26.2517162 2.02874743,26.9107551 2.02874743,27.4599542 C2.02874743,29.6567506 1.49486653,31.9633867 2.02874743,34.1601831 C1.70841889,35.2585812 1.70841889,36.1372998 1.70841889,37.2356979 C1.70841889,38.4439359 1.70841889,39.7620137 1.70841889,40.9702517 C0.320328542,40.6407323 -0.213552361,41.1899314 0.106776181,42.617849 C0.106776181,43.7162471 0.320328542,45.1441648 0.106776181,46.2425629 C-0.213552361,47.6704805 0.320328542,48 1.70841889,48 C12.386037,48 23.2772074,48 33.9548255,48 C39.4004107,48 45.1663244,48 50.6119097,48 C51.7864476,48 52,47.6704805 52,46.5720824 C52,45.1441648 52,43.7162471 52,42.2883295 C52,41.5194508 51.7864476,41.1899314 50.9322382,41.5194508 Z M11.8521561,37.5652174 C12.0657084,38.993135 11.5318275,39.2128146 10.2505133,39.2128146 C9.9301848,39.2128146 9.3963039,39.2128146 9.07597536,39.2128146 C8.32854209,39.2128146 7.68788501,38.993135 8.00821355,38.1144165 C8.00821355,37.5652174 8.00821355,36.6864989 8.00821355,36.1372998 C8.00821355,35.9176201 8.00821355,35.5881007 8.00821355,35.2585812 C8.00821355,33.2814645 8.00821355,33.2814645 10.2505133,33.0617849 C11.5318275,33.0617849 12.0657084,33.2814645 11.8521561,35.0389016 C11.8521561,35.9176201 11.8521561,36.6864989 11.8521561,37.5652174 Z M23.063655,37.0160183 C23.063655,39.2128146 23.063655,39.2128146 20.8213552,39.2128146 C19.5400411,39.2128146 19.2197125,38.993135 19.2197125,37.5652174 C19.2197125,36.4668192 19.2197125,35.0389016 19.2197125,33.9405034 C19.2197125,33.2814645 19.5400411,33.0617849 20.073922,33.0617849 C22.7433265,32.7322654 22.7433265,32.7322654 22.7433265,36.1372998 C23.063655,36.4668192 23.063655,36.6864989 23.063655,37.0160183 Z M8.862423,4.61327231 C11.8521561,7.1395881 15.37577,7.1395881 18.899384,7.798627 C19.5400411,7.798627 19.7535934,7.798627 20.2874743,7.798627 C20.6078029,7.798627 20.6078029,7.798627 20.8213552,7.798627 C21.1416838,7.798627 21.3552361,7.798627 21.3552361,7.798627 C21.6755647,7.798627 21.9958932,7.798627 22.2094456,7.798627 C22.5297741,7.798627 22.7433265,7.798627 22.7433265,7.798627 C23.063655,7.798627 23.5975359,7.798627 23.9178645,7.798627 C24.9856263,7.798627 26.0533881,8.01830664 27.1211499,8.01830664 C27.6550308,8.01830664 28.1889117,8.01830664 28.5092402,8.01830664 C29.0431211,8.01830664 29.5770021,8.34782609 30.4312115,8.34782609 C31.2854209,8.01830664 32.3531828,9.11670481 32.5667351,8.56750572 C33.2073922,8.01830664 32.0328542,7.1395881 31.8193018,6.37070938 C31.8193018,5.8215103 31.4989733,4.94279176 30.75154,4.39359268 C30.75154,4.39359268 30.4312115,4.39359268 30.4312115,4.39359268 C30.75154,4.06407323 30.4312115,3.84439359 30.110883,3.84439359 C28.1889117,1.3180778 26.0533881,0.109839817 23.063655,0.109839817 C20.2874743,-0.109839817 17.6180698,0.988558352 14.8418891,1.53775744 C12.0657084,2.08695652 9.07597536,3.51487414 6.6201232,0.109839817 C6.6201232,2.08695652 7.47433265,3.51487414 8.862423,4.61327231 Z" id="Shape"></path>
        </g>
    </g>
</svg>