<?xml version="1.0" encoding="UTF-8"?>
<svg width="64px" height="64px" viewBox="0 0 64 64" version="1.1" xmlns="http://www.w3.org/2000/svg" xmlns:xlink="http://www.w3.org/1999/xlink">
    <!-- Generator: Sketch 52.6 (67491) - http://www.bohemiancoding.com/sketch -->
    <title>buildings-factory</title>
    <desc>Created with Sketch.</desc>
    <g id="buildings-factory" stroke="none" stroke-width="1" fill="none" fill-rule="evenodd">
        <g id="icon-buildings-factory" transform="translate(13.000000, 7.000000)" fill="#000000" fill-rule="nonzero">
            <path d="M15.8705882,29.6519916 C18.2176471,31.9412998 20.7882353,33.9035639 23.3588235,36.4109015 C23.3588235,34.1215933 23.3588235,31.9412998 23.3588235,29.4339623 C25.9294118,31.9412998 28.1647059,33.9035639 30.5117647,36.4109015 C30.5117647,34.1215933 30.5117647,31.9412998 30.5117647,29.4339623 C31.4058824,30.197065 32.1882353,30.851153 32.7470588,31.3962264 C34.2,32.7044025 35.6529412,34.1215933 37.3294118,35.5387841 C38,36.0838574 38,36.6289308 38,37.1740042 C38,41.6436059 38,46.4402516 38,50.9098532 C38,51.7819706 37.6647059,52 36.7705882,52 C25.0352941,52 13.0764706,52 1.34117647,52 C0.447058824,52 0.223529412,51.7819706 0.223529412,50.9098532 C0.223529412,43.932914 -0.111764706,36.6289308 0.223529412,29.6519916 C0.447058824,24.0922432 1.00588235,18.5324948 1.9,13.1907757 C2.23529412,11.2285115 2.23529412,11.2285115 4.13529412,11.2285115 C7.04117647,11.2285115 7.04117647,11.2285115 7.37647059,14.0628931 C7.37647059,17.6603774 7.93529412,21.2578616 8.15882353,24.9643606 C8.15882353,25.509434 8.49411765,25.7274633 8.49411765,26.3815514 C8.49411765,28.5618449 9.38823529,30.197065 11.0647059,31.6142558 C11.9588235,32.4863732 12.7411765,33.3584906 13.6352941,34.1215933 C14.1941176,34.6666667 14.7529412,35.21174 15.6470588,35.8658281 C15.8705882,33.9035639 15.8705882,31.6142558 15.8705882,29.6519916 Z M15.3117647,3.70649895 C16.5411765,0.65408805 18.7764706,-0.4360587 21.9058824,0.327044025 C23.6941176,0.981132075 24.4764706,2.07127883 24.8117647,3.70649895 C25.0352941,4.25157233 25.0352941,4.57861635 25.5941176,4.57861635 C27.0470588,4.7966457 28.1647059,5.99580713 28.8352941,7.08595388 C29.6176471,9.04821803 27.9411765,11.2285115 25.3705882,11.7735849 C25.0352941,11.7735849 24.8117647,11.7735849 24.4764706,11.7735849 C23.0235294,11.7735849 21.6823529,11.5555556 20.2294118,12.427673 C19.1117647,13.1907757 17.3235294,12.6457023 16.5411765,11.2285115 C15.8705882,10.6834382 15.6470588,10.4654088 15.0882353,11.0104822 C12.7411765,12.427673 10.7294118,12.1006289 8.71764706,10.4654088 C8.49411765,9.92033543 8.15882353,9.92033543 7.6,9.92033543 C6.14705882,9.92033543 5.02941176,9.5932914 3.91176471,8.721174 C3.35294118,7.95807128 3.35294118,7.08595388 4.13529412,6.5408805 C5.02941176,5.99580713 5.92352941,5.6687631 7.04117647,5.6687631 C7.37647059,5.6687631 7.93529412,5.6687631 8.15882353,5.45073375 C11.0647059,2.28930818 11.6235294,2.07127883 15.3117647,3.70649895 Z" id="Shape"></path>
        </g>
    </g>
</svg>