<?xml version="1.0" encoding="UTF-8"?>
<svg width="64px" height="64px" viewBox="0 0 64 64" version="1.1" xmlns="http://www.w3.org/2000/svg" xmlns:xlink="http://www.w3.org/1999/xlink">
    <!-- Generator: Sketch 52.6 (67491) - http://www.bohemiancoding.com/sketch -->
    <title>buildings-sport-pitch</title>
    <desc>Created with Sketch.</desc>
    <g id="buildings-sport-pitch" stroke="none" stroke-width="1" fill="none" fill-rule="evenodd">
        <g id="icon-buildings-sport-pitch" transform="translate(6.000000, 7.000000)" fill="#000000" fill-rule="nonzero">
            <path d="M26,52 C11.5677966,52 0,40.4322034 0,26 C0,11.5677966 11.5677966,0 26,0 C40.4322034,0 52,11.5677966 52,26 C52,40.4322034 40.4322034,52 26,52 Z M43.5169492,13 C40.6525424,9.03389831 37.0169492,6.5 32.5,5.1779661 C32.720339,5.72881356 33.0508475,6.27966102 33.6016949,7.05084746 C33.6016949,7.05084746 33.3813559,7.05084746 33.3813559,7.38135593 C30.8474576,8.48305085 28.5338983,9.36440678 26,10.4661017 C25.6694915,10.4661017 25.4491525,10.4661017 25.4491525,10.4661017 C23.1355932,9.36440678 20.9322034,8.26271186 18.6186441,7.38135593 C18.6186441,7.38135593 18.3983051,7.38135593 18.3983051,7.05084746 C18.6186441,6.5 18.9491525,5.94915254 19.5,5.1779661 C16.0847458,5.72881356 9.03389831,10.7966102 8.48305085,13 C9.03389831,13 9.91525424,12.779661 10.4661017,12.779661 C10.4661017,12.779661 10.4661017,13 10.4661017,13 C10.7966102,15.5338983 11.0169492,18.3983051 11.0169492,20.9322034 C11.0169492,21.1525424 11.0169492,21.1525424 10.7966102,21.4830508 C10.2457627,22.3644068 9.69491525,23.1355932 8.81355932,24.0169492 C7.71186441,25.1186441 6.83050847,26.5508475 5.72881356,27.6525424 C5.1779661,27.1016949 4.51694915,26.5508475 3.96610169,26 C3.96610169,30.8474576 5.39830508,35.0338983 8.26271186,39 C8.26271186,38.1186441 8.48305085,37.5677966 8.48305085,36.6864407 C8.48305085,36.6864407 8.81355932,36.6864407 8.81355932,36.6864407 C11.3474576,37.2372881 13.8813559,37.8983051 16.4152542,38.4491525 C16.7457627,38.4491525 16.9661017,38.6694915 16.9661017,39 C18.3983051,41.2033898 19.5,43.1864407 20.9322034,45.5 C20.9322034,45.5 20.9322034,45.720339 21.1525424,45.720339 C20.6016949,46.0508475 19.8305085,46.2711864 19.279661,46.8220339 C24.0169492,48.2542373 28.2033898,48.2542373 33.0508475,46.8220339 C32.1694915,46.6016949 31.6186441,46.2711864 31.0677966,45.720339 C31.0677966,45.720339 31.0677966,45.5 31.0677966,45.5 C32.5,43.1864407 33.9322034,40.9830508 35.0338983,38.6694915 C35.0338983,38.4491525 35.2542373,38.4491525 35.5847458,38.4491525 C37.2372881,38.1186441 39,37.5677966 40.4322034,37.2372881 C41.2033898,37.0169492 42.3050847,36.6864407 43.1864407,36.6864407 C43.1864407,37.5677966 43.5169492,38.1186441 43.5169492,39 C46.2711864,35.0338983 47.7033898,30.8474576 47.7033898,26 C47.1525424,26.5508475 46.6016949,27.1016949 46.0508475,27.6525424 C44.2881356,25.6694915 42.3050847,23.4661017 40.6525424,21.4830508 C40.6525424,21.1525424 40.4322034,21.1525424 40.4322034,20.9322034 C40.6525424,18.6186441 40.6525424,16.7457627 40.9830508,14.4322034 C40.9830508,13.8813559 40.9830508,13.5508475 41.2033898,13 C42.3050847,13 42.9661017,13 43.5169492,13 Z M26,34.7033898 C24.3474576,34.7033898 22.5847458,34.7033898 20.9322034,34.7033898 C20.6016949,34.7033898 20.3813559,34.7033898 20.3813559,34.1525424 C19.279661,30.8474576 18.0677966,27.6525424 17.2966102,24.3474576 C17.2966102,24.0169492 17.2966102,23.7966102 17.5169492,23.7966102 C20.3813559,21.8135593 23.1355932,19.8305085 26,17.5169492 C26,17.2966102 26,17.2966102 26.3305085,17.5169492 C29.0847458,19.5 31.9491525,21.4830508 34.7033898,23.7966102 C35.0338983,24.0169492 35.0338983,24.0169492 35.0338983,24.3474576 C33.9322034,27.6525424 32.720339,30.8474576 31.9491525,34.1525424 C31.9491525,34.4830508 31.6186441,34.4830508 31.3983051,34.4830508 C29.4152542,34.7033898 27.6525424,34.7033898 26,34.7033898 Z" id="Shape"></path>
        </g>
    </g>
</svg>