<?xml version="1.0" encoding="UTF-8"?>
<svg width="64px" height="64px" viewBox="0 0 64 64" version="1.1" xmlns="http://www.w3.org/2000/svg" xmlns:xlink="http://www.w3.org/1999/xlink">
    <!-- Generator: Sketch 52.6 (67491) - http://www.bohemiancoding.com/sketch -->
    <title>buildings-store</title>
    <desc>Created with Sketch.</desc>
    <g id="buildings-store" stroke="none" stroke-width="1" fill="none" fill-rule="evenodd">
        <path d="M54.8999819,25 C54.9655697,24.6768901 55,24.3424658 55,24 L55,22 L53.5,22.3 L53.5,24 C53.5,25.9329966 51.9329966,27.5 50,27.5 C48.0670034,27.5 46.5,25.9329966 46.5,24 L44.5,24 C44.5,25.9329966 42.9329966,27.5 41,27.5 C39.0670034,27.5 37.5,25.9329966 37.5,24 L35.5,24 C35.5,25.9329966 33.9329966,27.5 32,27.5 C30.0670034,27.5 28.5,25.9329966 28.5,24 L26.5,24 C26.5,25.9329966 24.9329966,27.5 23,27.5 C21.0670034,27.5 19.5,25.9329966 19.5,24 L18.9997045,24 C18.9999013,23.9817128 19,23.9634021 19,23.9450684 L17.5,23.9450684 C17.5,25.878065 15.9329966,27.4450684 14,27.4450684 C12.0670034,27.4450684 10.5,25.878065 10.5,23.9450684 L10.5,22.2917603 L9,22 L9,23.9450684 C9,24.3069805 9.0384514,24.6599119 9.11149178,25 L6,25 L6,21 L9.71634461,11 L54.3171677,11 L58,21 L58,25 L54.8999819,25 Z M54,27.0004875 L54,53 L49,53 L49,39 L41,39 L41,53 L10,53 L10,26.9455558 C10.9122288,28.1597253 12.364401,28.9450684 14,28.9450684 C15.968305,28.9450684 17.6709698,27.8077277 18.4866584,26.1543825 C19.2914779,27.8374151 21.0099708,29 23,29 C24.9791009,29 26.6896396,27.8501488 27.5,26.1820626 C28.3103604,27.8501488 30.0208991,29 32,29 C33.9791009,29 35.6896396,27.8501488 36.5,26.1820626 C37.3103604,27.8501488 39.0208991,29 41,29 C42.9791009,29 44.6896396,27.8501488 45.5,26.1820626 C46.3103604,27.8501488 48.0208991,29 50,29 C51.635599,29 53.0877712,28.2146569 54,27.0004875 Z M15.1666667,33.0714286 L15.1666667,48.0714286 L36.1666667,48.0714286 L36.1666667,33.0714286 L15.1666667,33.0714286 Z" fill="#000000"></path>
    </g>
</svg>