<?xml version="1.0" encoding="UTF-8"?>
<svg width="64px" height="64px" viewBox="0 0 64 64" version="1.1" xmlns="http://www.w3.org/2000/svg" xmlns:xlink="http://www.w3.org/1999/xlink">
    <!-- Generator: Sketch 52.6 (67491) - http://www.bohemiancoding.com/sketch -->
    <title>bulb-led-on</title>
    <desc>Created with Sketch.</desc>
    <g id="bulb-led-on" stroke="none" stroke-width="1" fill="none" fill-rule="evenodd">
        <path d="M26.9878085,6 L36.9820072,6 L36.9820072,9 L26.9878085,9 L26.9878085,6 Z M26.9878085,11 L36.9820072,11 L36.9820072,14 L26.9878085,14 L26.9878085,11 Z M20.7493915,33 L26.9878085,18 L36.9820072,18 L43.2204243,33 L20.7493915,33 Z M43.9766833,35 C43.8826495,41.6437104 38.5497636,47 31.9849079,47 C25.4200522,47 20.0871663,41.6437104 19.9931324,35 L43.9766833,35 Z M30.4857781,50 L33.4840377,50 L33.4840377,57.995605 L30.4857781,57.995605 L30.4857781,50 Z M13.7035888,37.5804444 L14.4795955,40.4782219 L6.76091457,42.5476367 L5.98490788,39.6498592 L13.7035888,37.5804444 Z M49.4902203,40.4782219 L50.2662269,37.5804444 L57.9849079,39.6498592 L57.2089012,42.5476367 L49.4902203,40.4782219 Z M18.057963,45.8137084 L20.1780527,47.9350288 L14.5275861,53.5887753 L12.4074964,51.4674549 L18.057963,45.8137084 Z M43.7917631,47.9350288 L45.9118528,45.8137084 L51.5623194,51.4674549 L49.4422297,53.5887753 L43.7917631,47.9350288 Z" id="Combined-Shape" fill="#000000" fill-rule="nonzero"></path>
    </g>
</svg>