<?xml version="1.0" encoding="UTF-8"?>
<svg width="64px" height="64px" viewBox="0 0 64 64" version="1.1" xmlns="http://www.w3.org/2000/svg" xmlns:xlink="http://www.w3.org/1999/xlink">
    <!-- Generator: Sketch 52.6 (67491) - http://www.bohemiancoding.com/sketch -->
    <title>bulb-old-on</title>
    <desc>Created with Sketch.</desc>
    <g id="bulb-old-on" stroke="none" stroke-width="1" fill="none" fill-rule="evenodd">
        <g id="icon-bulb-old-on" transform="translate(8.000000, 6.000000)" fill="#000000" fill-rule="nonzero">
            <path d="M34.8903226,22.3732809 C33.5483871,20.5343811 31.6903226,18.6954813 31.1741935,16.345776 C31.1741935,15.8349705 30.6580645,16.1414538 30.1419355,16.1414538 C27.9741935,16.1414538 25.9096774,16.1414538 23.7419355,16.1414538 C21.6774194,16.1414538 19.5096774,16.1414538 17.4451613,16.1414538 C16.9290323,16.1414538 16.4129032,16.1414538 16.1032258,16.6522593 C15.5870968,18.1846758 14.7612903,19.3084479 13.7290323,20.3300589 C13.5225806,20.8408644 13.2129032,21.3516699 12.6967742,21.6581532 C7.9483871,28.4007859 10.5290323,38.3104126 18.4774194,41.4774067 C23.0193548,43.3163065 27.4580645,42.805501 31.483871,39.6385069 C37.5741935,35.4499018 38.2967742,27.3791749 34.8903226,22.3732809 Z M32.2064516,34.4282908 C31.6903226,36.2671906 30.1419355,37.5952849 28.8,38.9233792 C27.9741935,39.6385069 25.3935484,39.4341847 24.5677419,38.9233792 C23.5354839,38.1060904 23.2258065,36.7779961 23.7419355,35.2455796 C24.5677419,32.589391 27.2516129,30.7504912 29.6258065,30.7504912 C31.6903226,30.546169 33.0322581,32.3850688 32.2064516,34.4282908 Z M18.7870968,4.59724951 C20.3354839,4.59724951 21.9870968,4.59724951 23.5354839,4.59724951 C24.8774194,4.59724951 26.116129,4.59724951 27.4580645,4.59724951 C27.9741935,4.59724951 29.1096774,5.10805501 29.316129,4.39292731 C29.6258065,3.57563851 29.1096774,2.75834971 28.5935484,2.043222 C28.5935484,2.043222 28.283871,1.7367387 28.283871,1.7367387 C26.4258065,0.2043222 24.0516129,-0.306483301 21.3677419,0.408644401 C19.8193548,0.919449902 18.4774194,1.7367387 17.9612903,3.57563851 C17.7548387,4.39292731 17.7548387,4.90373281 18.7870968,4.59724951 Z M29.8322581,10.9312377 C28.5935484,11.1355599 27.2516129,11.1355599 25.9096774,11.4420432 C23.2258065,11.9528487 20.3354839,12.1571709 17.7548387,12.7701375 C16.9290323,12.7701375 16.4129032,13.4852652 16.4129032,14.302554 C16.6193548,15.1198428 17.1354839,15.6306483 17.9612903,15.324165 C21.9870968,14.8133595 26.116129,14.302554 30.1419355,13.7917485 C30.9677419,13.7917485 31.483871,12.9744597 31.483871,12.1571709 C31.483871,11.1355599 30.9677419,10.9312377 29.8322581,10.9312377 Z M17.7548387,10.4204322 C18.2709677,10.4204322 18.7870968,10.4204322 19.3032258,10.4204322 C23.0193548,9.80746562 26.7354839,9.29666012 30.1419355,8.78585462 C30.9677419,8.78585462 31.6903226,8.27504912 31.483871,7.25343811 C31.483871,6.43614931 30.6580645,5.92534381 29.8322581,5.92534381 C27.2516129,6.23182711 24.3612903,6.74263261 21.6774194,6.94695481 C20.3354839,7.25343811 18.9935484,7.45776031 17.7548387,7.76424361 C16.9290323,7.76424361 16.6193548,8.27504912 16.6193548,9.09233792 C16.6193548,9.80746562 16.9290323,10.4204322 17.7548387,10.4204322 Z M9.49677419,24.0078585 L1.34193548,21.8624754 L0.516129032,24.518664 L8.77419355,26.5618861 L9.49677419,24.0078585 Z M38.6064516,24.0078585 L46.8645161,21.8624754 L47.5870968,24.7229862 L39.4322581,26.8683694 L38.6064516,24.0078585 Z M32.516129,42.805501 L34.8903226,41.0687623 L39.7419355,47.913556 L37.3677419,49.6502947 L32.516129,42.805501 Z M39.1225806,36.0628684 L40.0516129,33.4066798 L48,36.2671906 L47.0709677,38.9233792 L39.1225806,36.0628684 Z M0,36.2671906 L7.9483871,33.4066798 L8.98064516,36.0628684 L1.03225806,38.9233792 L0,36.2671906 Z M8.46451613,48.0157171 L10.8387097,49.8546169 L15.5870968,42.805501 L13.5225806,41.2730845 L8.46451613,48.0157171 Z M22.1935484,44.1335953 L24.8774194,44.1335953 L24.8774194,52 L22.1935484,52 L22.1935484,44.1335953 Z" id="Shape"></path>
        </g>
    </g>
</svg>