<?xml version="1.0" encoding="UTF-8"?>
<svg width="64px" height="64px" viewBox="0 0 64 64" version="1.1" xmlns="http://www.w3.org/2000/svg" xmlns:xlink="http://www.w3.org/1999/xlink">
    <!-- Generator: Sketch 52.6 (67491) - http://www.bohemiancoding.com/sketch -->
    <title>bulb-on</title>
    <desc>Created with Sketch.</desc>
    <g id="bulb-on" stroke="none" stroke-width="1" fill="none" fill-rule="evenodd">
        <path d="M26.9839972,6 L36.976384,6 L36.976384,9 L26.9839972,9 L26.9839972,6 Z M26.9839972,11 L36.976384,11 L36.976384,14 L26.9839972,14 L26.9839972,11 Z M19.9893264,34.8214286 L26.9839972,18 L36.976384,18 L43.9710548,34.8214286 C43.9710548,41.5474678 38.6025621,47 31.9801906,47 C25.3578192,47 19.9893264,41.5474678 19.9893264,34.8214286 Z M30.4813326,50 L33.4790486,50 L33.4790486,57.995605 L30.4813326,57.995605 L30.4813326,50 Z M14.4731476,28.5217777 L13.6972816,31.4195552 L5.98,29.3501403 L6.75586601,26.4523628 L14.4731476,28.5217777 Z M13.6972816,37.5804444 L14.4731476,40.4782219 L6.75586601,42.5476367 L5.98,39.6498592 L13.6972816,37.5804444 Z M50.2627184,31.4195552 L49.4868524,28.5217777 L57.204134,26.4523628 L57.98,29.3501403 L50.2627184,31.4195552 Z M49.4868524,40.4782219 L50.2627184,37.5804444 L57.98,39.6498592 L57.204134,42.5476367 L49.4868524,40.4782219 Z M18.054547,45.8137084 L20.1742523,47.9350288 L14.5248101,53.5887753 L12.4051047,51.4674549 L18.054547,45.8137084 Z M43.7849053,47.9350288 L45.9046107,45.8137084 L51.5540529,51.4674549 L49.4343476,53.5887753 L43.7849053,47.9350288 Z" id="Combined-Shape" fill="#000000" fill-rule="nonzero"></path>
    </g>
</svg>