<?xml version="1.0" encoding="UTF-8"?>
<svg width="64px" height="64px" viewBox="0 0 64 64" version="1.1" xmlns="http://www.w3.org/2000/svg" xmlns:xlink="http://www.w3.org/1999/xlink">
    <!-- Generator: Sketch 52.6 (67491) - http://www.bohemiancoding.com/sketch -->
    <title>bulb-energy-off</title>
    <desc>Created with Sketch.</desc>
    <g id="bulb-energy-off" stroke="none" stroke-width="1" fill="none" fill-rule="evenodd">
        <path d="M38.9464379,16.9758605 C39.2115305,16.9758605 39.2115305,16.9758605 38.9464379,16.9758605 C39.2115305,16.9758605 39.2115305,16.9758605 38.9464379,16.9758605 Z M44,19.218298 L44,27.3002159 C44,28.7706889 42.8060927,29.9627428 41.3333333,29.9627428 L22.6666667,29.9627428 C21.1939073,29.9627428 20,28.7706889 20,27.3002159 L20,19.218298 C20,18.4603063 20.4285053,17.7674513 21.1066841,17.4288884 L25.3333333,15.3188444 L25.3333333,12.6563175 L38.6666667,12.6563175 L38.6666667,15.3188444 L42.8933159,17.4288884 C43.5714947,17.7674513 44,18.4603063 44,19.218298 Z M25.3333333,6 L38.6666667,6 L38.6666667,9.99379047 L25.3333333,9.99379047 L25.3333333,6 Z M28.2280106,33.3609671 L30.5395342,32.2824603 C31.5384802,31.8163737 32.7259046,32.2488117 33.1917208,33.2483376 C33.6575369,34.2478635 33.2253498,35.4359771 32.2264038,35.9020637 L23.7855621,39.8403775 C22.7866161,40.3064641 21.5991917,39.8740261 21.1333755,38.8745002 C20.6675593,37.8749743 21.0997465,36.6868607 22.0986925,36.2207741 L24.3767789,35.1578684 L24.3767789,33.9565333 C24.3767789,33.2212968 24.9724601,32.6252698 25.7072701,32.6252698 L27.0377612,32.6252698 C27.5586114,32.6252698 28.0095591,32.9247316 28.2280106,33.3609671 Z M42.8383969,36.0693567 C43.3042131,37.0688826 42.872026,38.2569962 41.87308,38.7230828 L23.7855621,47.1623267 C22.7866161,47.6284133 21.5991917,47.1959753 21.1333755,46.1964494 C20.6675593,45.1969235 21.0997465,44.0088099 22.0986925,43.5427233 L35.685954,37.2032015 L35.685954,32.6429832 C35.685954,31.9077466 36.2816352,31.3117197 37.0164451,31.3117197 L38.3469363,31.3117197 C38.9060515,31.4259626 39.2819008,31.7870477 39.5465462,32.3528374 C39.590879,32.4476172 39.6340629,32.5449355 39.6774275,32.6429832 L40.1862103,35.1034794 C41.1851564,34.6373928 42.3725807,35.0698308 42.8383969,36.0693567 Z M32.4402302,57.8093992 C31.4429597,58.2790641 30.2539944,57.850886 29.7846019,56.8530365 C29.3152094,55.8551871 29.7431392,54.6655316 30.7404098,54.1958667 L40.1797349,49.7504132 C41.1770055,49.2807483 42.3659708,49.7089265 42.8353633,50.7067759 C43.3047557,51.7046254 42.876826,52.8942808 41.8795554,53.3639458 L32.4402302,57.8093992 Z M23.7855621,54.4842759 C22.7866161,54.9503625 21.5991917,54.5179245 21.1333755,53.5183986 C20.6675593,52.5188727 21.0997465,51.3307591 22.0986925,50.8646725 L40.1862103,42.4254286 C41.1851564,41.959342 42.3725807,42.39178 42.8383969,43.3913059 C43.3042131,44.3908318 42.872026,45.5789454 41.87308,46.045032 L23.7855621,54.4842759 Z" id="Combined-Shape" fill="#000000"></path>
    </g>
</svg>