<?xml version="1.0" encoding="UTF-8"?>
<svg width="64px" height="64px" viewBox="0 0 64 64" version="1.1" xmlns="http://www.w3.org/2000/svg" xmlns:xlink="http://www.w3.org/1999/xlink">
    <!-- Generator: Sketch 52.6 (67491) - http://www.bohemiancoding.com/sketch -->
    <title>bulb-old-off</title>
    <desc>Created with Sketch.</desc>
    <g id="bulb-old-off" stroke="none" stroke-width="1" fill="none" fill-rule="evenodd">
        <g id="icon-bulb-old-off" transform="translate(16.000000, 6.000000)" fill="#000000" fill-rule="nonzero">
            <path d="M9.875,50.6282974 C15.375,52.8729017 20.75,52.2494005 25.625,48.383693 C32.625,43.0215827 33.625,33.0455635 29.5,27.3093525 C27.875,25.0647482 25.625,22.8201439 25,19.9520384 C25,19.3285372 24.375,19.7026379 23.625,19.7026379 C21.125,19.7026379 18.5,19.7026379 16,19.7026379 C13.5,19.7026379 10.875,19.7026379 8.375,19.7026379 C7.625,19.7026379 7,19.7026379 6.75,20.3261391 C6.125,22.1966427 5.125,23.5683453 3.875,24.8153477 C3.875,25.4388489 3.25,26.0623501 2.875,26.4364508 C-2.875,35.0407674 0.375,46.7625899 9.875,50.6282974 Z M16.375,43.0215827 C17.25,39.7793765 20.5,37.5347722 23.375,37.5347722 C25.875,37.5347722 27.25,39.7793765 26.5,42.3980815 C25.875,44.6426859 24,46.1390887 22.375,47.7601918 C21.5,48.7577938 18.25,48.383693 17.25,47.7601918 C16,46.5131894 15.625,44.8920863 16.375,43.0215827 Z M9.875,5.61151079 C12.125,5.61151079 14.125,5.61151079 16,5.61151079 C17.625,5.61151079 19.25,5.61151079 20.75,5.61151079 C21.5,5.61151079 22.75,6.23501199 23,5.36211031 C23.375,4.36450839 22.75,3.36690647 22.125,2.4940048 C22.125,2.4940048 21.75,2.11990408 21.75,2.11990408 C19.25,0.24940048 16.625,-0.374100719 13.5,0.498800959 C11.5,1.12230216 9.625,2.11990408 9,4.36450839 C9,5.36211031 9,5.98561151 9.875,5.61151079 Z M23.625,13.3429257 C22.125,13.5923261 20.5,13.5923261 18.875,13.9664269 C15.625,14.5899281 12.125,14.8393285 9,15.58753 C7.625,15.58753 7.375,16.4604317 7.375,17.4580336 C7.625,18.4556355 8.375,19.0791367 9.25,18.705036 C14.125,18.0815348 19.25,17.4580336 24,16.8345324 C25,16.8345324 25.625,15.8369305 25.625,14.8393285 C25.625,13.5923261 24.625,13.3429257 23.625,13.3429257 Z M9,12.7194245 C9.625,12.7194245 10.25,12.7194245 10.875,12.7194245 C15.375,11.971223 19.875,11.3477218 24,10.7242206 C25,10.7242206 25.875,10.1007194 25.625,8.85371703 C25.625,7.85611511 24.625,7.23261391 23.625,7.23261391 C20.5,7.60671463 17,8.23021583 13.75,8.47961631 C11.875,8.85371703 10.25,9.10311751 8.625,9.47721823 C7.625,9.47721823 7.375,10.1007194 7.375,11.0983213 C7.375,11.971223 8,12.7194245 9,12.7194245 Z" id="Shape"></path>
        </g>
    </g>
</svg>