<?xml version="1.0" encoding="UTF-8"?>
<svg width="64px" height="64px" viewBox="0 0 64 64" version="1.1" xmlns="http://www.w3.org/2000/svg" xmlns:xlink="http://www.w3.org/1999/xlink">
    <!-- Generator: Sketch 52.6 (67491) - http://www.bohemiancoding.com/sketch -->
    <title>bulb-energy-on</title>
    <desc>Created with Sketch.</desc>
    <g id="bulb-energy-on" stroke="none" stroke-width="1" fill="none" fill-rule="evenodd">
        <path d="M30.485488,50 L33.4837476,50 L33.4837476,57.995605 L30.485488,57.995605 L30.485488,50 Z M14.4795955,28.5217777 L13.7035888,31.4195552 L5.98490788,29.3501403 L6.76091457,26.4523628 L14.4795955,28.5217777 Z M13.7035888,37.5804444 L14.4795955,40.4782219 L6.76091457,42.5476367 L5.98490788,39.6498592 L13.7035888,37.5804444 Z M50.2662269,31.4195552 L49.4902203,28.5217777 L57.2089012,26.4523628 L57.9849079,29.3501403 L50.2662269,31.4195552 Z M49.4902203,40.4782219 L50.2662269,37.5804444 L57.9849079,39.6498592 L57.2089012,42.5476367 L49.4902203,40.4782219 Z M18.0576729,45.8137084 L20.1777626,47.9350288 L14.527296,53.5887753 L12.4072063,51.4674549 L18.0576729,45.8137084 Z M43.791473,47.9350288 L45.9115627,45.8137084 L51.5620293,51.4674549 L49.4419396,53.5887753 L43.791473,47.9350288 Z M37.1914239,14.2446943 C37.390128,14.2446943 37.390128,14.2446943 37.1914239,14.2446943 C37.390128,14.2446943 37.390128,14.2446943 37.1914239,14.2446943 Z M40.9793967,16.2357472 L40.9793967,22 C40.9793967,23.1045695 40.0844856,24 38.9805569,24 L24.9886787,24 C23.88475,24 22.989839,23.1045695 22.989839,22 L22.989839,16.2357472 C22.989839,15.4783703 23.4176567,14.785967 24.0949965,14.4471005 L26.9875185,13 L26.9875185,11 L36.9817172,11 L36.9817172,13 L39.8742391,14.4471005 C40.5515789,14.785967 40.9793967,15.4783703 40.9793967,16.2357472 Z M26.9875185,6 L36.9817172,6 L36.9817172,9 L26.9875185,9 L26.9875185,6 Z M29.1704416,26.5526308 L30.9067797,25.7424931 C31.6571541,25.3923847 32.549107,25.7172174 32.8990124,26.4680274 C33.2489177,27.2188373 32.9242734,28.111308 32.173899,28.4614165 L25.8334249,31.4197443 C25.0830505,31.7698527 24.1910976,31.44502 23.8411922,30.69421 C23.4912869,29.9434 23.8159312,29.0509294 24.5663056,28.7008209 L26.2775269,27.9024022 L26.2775269,27 C26.2775269,26.4477153 26.7249824,26 27.2769468,26 L28.2763666,26 C28.6676116,26 29.0063483,26.2249456 29.1704416,26.5526308 Z M40.1452685,28.5870813 C40.4951738,29.3378912 40.1705295,30.2303619 39.4201551,30.5804704 L25.8334249,36.9197443 C25.0830505,37.2698527 24.1910976,36.94502 23.8411922,36.19421 C23.4912869,35.4434 23.8159312,34.5509294 24.5663056,34.2008209 L34.7725958,29.4387871 L34.7725958,26.0133057 C34.7725958,25.4610209 35.2200513,25.0133057 35.7720157,25.0133057 L36.7714355,25.0133057 C37.1914239,25.0991211 37.4737491,25.3703559 37.6725418,25.795358 C37.7058431,25.8665534 37.7382813,25.9396556 37.7708554,26.0133057 L38.1530358,27.861547 C38.9034102,27.5114386 39.7953631,27.8362713 40.1452685,28.5870813 Z M32.3345182,44.9174642 C31.5854023,45.2702605 30.6922919,44.9486276 30.3397002,44.1990769 C29.9871085,43.4495263 30.3085548,42.5558974 31.0576707,42.203101 L38.1481717,38.8638271 C38.8972875,38.5110307 39.790398,38.8326637 40.1429897,39.5822143 C40.4955814,40.331765 40.174135,41.2253939 39.4250192,41.5781902 L32.3345182,44.9174642 Z M25.8334249,42.4197443 C25.0830505,42.7698527 24.1910976,42.44502 23.8411922,41.69421 C23.4912869,40.9434 23.8159312,40.0509294 24.5663056,39.7008209 L38.1530358,33.361547 C38.9034102,33.0114386 39.7953631,33.3362713 40.1452685,34.0870813 C40.4951738,34.8378912 40.1705295,35.7303619 39.4201551,36.0804704 L25.8334249,42.4197443 Z" id="Combined-Shape" fill="#000000"></path>
    </g>
</svg>