<?xml version="1.0" encoding="UTF-8"?>
<svg width="64px" height="64px" viewBox="0 0 64 64" version="1.1" xmlns="http://www.w3.org/2000/svg" xmlns:xlink="http://www.w3.org/1999/xlink">
    <!-- Generator: Sketch 52.6 (67491) - http://www.bohemiancoding.com/sketch -->
    <title>bus-lane</title>
    <desc>Created with Sketch.</desc>
    <g id="bus-lane" stroke="none" stroke-width="1" fill="none" fill-rule="evenodd">
        <g id="icon-bus-lane" transform="translate(6.000000, 21.000000)" fill="#000000" fill-rule="nonzero">
            <path d="M11.8615071,11.8627451 C10.5906314,11.8627451 9.21384929,12.9411765 9.21384929,14.5588235 C9.21384929,15.9607843 10.2729124,17.3627451 11.8615071,17.3627451 C13.2382892,17.3627451 14.6150713,16.2843137 14.6150713,14.5588235 C14.6150713,12.9411765 13.2382892,11.8627451 11.8615071,11.8627451 Z M11.8615071,15.745098 C11.1201629,15.745098 10.5906314,15.0980392 10.5906314,14.3431373 C10.5906314,13.4803922 11.1201629,12.9411765 11.8615071,12.9411765 C12.7087576,12.9411765 13.2382892,13.4803922 13.2382892,14.3431373 C13.2382892,15.0980392 12.7087576,15.745098 11.8615071,15.745098 Z M37.3849287,11.8627451 C36.0081466,11.8627451 34.6313646,12.9411765 34.6313646,14.5588235 C34.6313646,15.9607843 35.796334,17.3627451 37.3849287,17.3627451 C38.7617108,17.3627451 40.1384929,16.2843137 40.1384929,14.5588235 C40.1384929,12.9411765 38.9735234,11.8627451 37.3849287,11.8627451 Z M37.3849287,15.745098 C36.5376782,15.745098 36.0081466,15.0980392 36.0081466,14.3431373 C36.0081466,13.4803922 36.5376782,12.9411765 37.3849287,12.9411765 C38.2321792,12.9411765 38.7617108,13.4803922 38.7617108,14.3431373 C38.7617108,15.0980392 38.2321792,15.745098 37.3849287,15.745098 Z M48.5050916,0 L2.43584521,0 C2.11812627,0 1.37678208,0 1.37678208,1.07843137 L1.05906314,7.98039216 C1.05906314,7.98039216 0.529531568,7.98039216 0.529531568,8.51960784 C0.529531568,9.05882353 0.529531568,13.8039216 0.529531568,13.8039216 C0.529531568,13.8039216 0.529531568,15.4215686 1.90631365,15.4215686 L8.89613035,15.4215686 C8.89613035,15.0980392 8.89613035,14.8823529 8.89613035,14.5588235 C8.89613035,12.6176471 10.2729124,11.3235294 12.1792261,11.3235294 C14.0855397,11.3235294 15.4623218,12.6176471 15.4623218,14.5588235 C15.4623218,14.8823529 15.4623218,15.0980392 15.4623218,15.4215686 L34.6313646,15.4215686 C34.6313646,15.0980392 34.6313646,14.8823529 34.6313646,14.5588235 C34.6313646,12.6176471 36.0081466,11.3235294 37.9144603,11.3235294 C39.8207739,11.3235294 41.197556,12.6176471 41.197556,14.5588235 C41.197556,14.8823529 41.197556,15.0980392 41.197556,15.4215686 L52,13.1568627 L52,3.23529412 C51.4704684,2.15686275 50.4114053,0 48.5050916,0 Z M6.77800407,12.9411765 C6.77800407,13.1568627 6.46028513,13.8039216 5.93075356,13.8039216 L4.34215886,13.8039216 C4.02443992,13.8039216 3.49490835,13.4803922 3.49490835,12.9411765 L3.49490835,3.23529412 C3.49490835,3.01960784 3.81262729,2.69607843 4.34215886,2.69607843 L6.24847251,2.69607843 C6.46028513,2.69607843 6.77800407,3.01960784 6.77800407,3.23529412 L6.77800407,12.9411765 Z M18.1099796,6.57843137 C18.1099796,6.90196078 17.898167,7.44117647 17.3686354,7.44117647 L9.74338086,7.44117647 C9.42566191,7.11764706 8.89613035,6.90196078 8.89613035,6.57843137 L8.89613035,3.23529412 C8.89613035,3.01960784 9.42566191,2.69607843 9.74338086,2.69607843 L17.3686354,2.69607843 C17.5804481,2.69607843 18.1099796,3.01960784 18.1099796,3.23529412 L18.1099796,6.57843137 Z M28.700611,6.57843137 C28.700611,6.90196078 28.4887984,7.44117647 27.8533605,7.44117647 L20.3340122,7.44117647 C20.0162933,7.44117647 19.4867617,7.11764706 19.4867617,6.57843137 L19.4867617,3.23529412 C19.8044807,3.01960784 20.0162933,2.69607843 20.3340122,2.69607843 L27.8533605,2.69607843 C28.1710794,2.69607843 28.700611,3.01960784 28.700611,3.55882353 L28.700611,6.57843137 Z M38.9735234,6.57843137 C38.9735234,6.90196078 38.7617108,7.44117647 38.2321792,7.44117647 L30.6069246,7.44117647 C30.395112,7.44117647 29.7596741,7.11764706 29.7596741,6.57843137 L29.7596741,3.23529412 C29.7596741,3.01960784 30.0773931,2.48039216 30.6069246,2.48039216 L38.2321792,2.48039216 C38.4439919,2.48039216 38.9735234,2.69607843 38.9735234,3.23529412 L38.9735234,6.57843137 Z M49.5641548,6.57843137 C49.5641548,6.90196078 49.3523422,7.44117647 48.8228106,7.44117647 L41.197556,7.44117647 C40.8798371,7.44117647 40.3503055,7.11764706 40.3503055,6.57843137 L40.3503055,3.23529412 C40.3503055,3.01960784 40.6680244,2.48039216 41.197556,2.48039216 L47.4460285,2.48039216 C48.5050916,2.48039216 49.3523422,3.23529412 49.3523422,4.42156863 L49.3523422,6.57843137 L49.5641548,6.57843137 Z M0,19.8431373 L50.9409369,19.8431373 L50.9409369,22 L0,22 L0,19.8431373 Z" id="Shape"></path>
        </g>
    </g>
</svg>