<?xml version="1.0" encoding="UTF-8"?>
<svg width="64px" height="64px" viewBox="0 0 64 64" version="1.1" xmlns="http://www.w3.org/2000/svg" xmlns:xlink="http://www.w3.org/1999/xlink">
    <!-- Generator: Sketch 52.6 (67491) - http://www.bohemiancoding.com/sketch -->
    <title>bus-shelter</title>
    <desc>Created with Sketch.</desc>
    <g id="bus-shelter" stroke="none" stroke-width="1" fill="none" fill-rule="evenodd">
        <g transform="translate(6.000000, 10.000000)" fill="#000000" fill-rule="nonzero" id="Shape">
            <path d="M51.6763485,8.07416268 C51.4605809,6.13636364 50.2738589,4.4138756 48.8713693,3.12200957 C46.7136929,0.861244019 43.9087137,0 40.8879668,0 C30.9626556,0 21.0373444,0 10.7883817,0 C9.70954357,0 8.30705394,0.322966507 7.22821577,0.645933014 C4.42323651,1.18421053 2.4813278,3.12200957 1.18672199,5.27511962 C0.863070539,6.35167464 0.539419087,7.53588517 0.323651452,8.61244019 C0,9.1507177 0,9.68899522 0,10.2272727 C0.539419087,10.2272727 0.863070539,10.2272727 1.18672199,10.2272727 C16.9377593,10.2272727 32.3651452,10.2272727 48.1161826,10.2272727 C49.5186722,10.2272727 50.813278,10.2272727 52,10.2272727 C52,9.68899522 52,9.1507177 52,8.61244019 C52,8.61244019 51.6763485,8.28947368 51.6763485,8.07416268 Z M40.6721992,35.8492823 C35.7095436,35.8492823 30.9626556,35.8492823 26,35.8492823 C25.1369295,35.8492823 24.3817427,35.8492823 23.8423237,35.8492823 C19.6348548,35.8492823 15.5352697,35.8492823 11.3278008,35.8492823 C10.5726141,35.8492823 10.2489627,36.1722488 10.5726141,36.7105263 C10.5726141,36.9258373 10.5726141,36.9258373 10.5726141,37.2488038 C10.5726141,39.1866029 10.5726141,39.1866029 12.5145228,39.1866029 C12.5145228,39.1866029 12.5145228,39.1866029 12.7302905,39.1866029 C13.2697095,39.1866029 13.593361,39.5095694 13.593361,40.0478469 C13.593361,41.3397129 13.593361,41.7392344 13.593361,43.138756 C13.593361,43.6770335 13.8091286,44 14.3485477,44 C14.9958506,44 15.5352697,44 16.0746888,44 C16.6141079,44 16.9377593,43.6770335 16.9377593,43.138756 C16.9377593,41.7392344 16.9377593,41.3397129 16.9377593,39.7248804 C16.9377593,39.1866029 17.153527,38.8636364 17.6929461,38.8636364 C23.5186722,38.8636364 29.3443983,38.8636364 35.0622407,38.8636364 C35.7095436,38.8636364 35.9253112,39.1866029 35.9253112,39.7248804 C35.9253112,41.1244019 35.9253112,41.5239234 35.9253112,42.8157895 C35.9253112,43.6770335 36.2489627,44 36.7883817,43.6770335 C37.3278008,43.6770335 37.8672199,43.6770335 38.406639,43.6770335 C38.9460581,43.6770335 39.2697095,43.4617225 39.2697095,42.8157895 C39.2697095,41.5239234 39.2697095,41.1244019 39.2697095,39.7248804 C39.2697095,39.1866029 39.4854772,38.8636364 40.1327801,38.8636364 C40.6721992,38.8636364 40.8879668,38.8636364 41.4273859,38.8636364 C41.966805,38.8636364 42.2904564,38.6483254 41.966805,38.3253589 C41.966805,37.7870813 41.966805,37.2488038 41.966805,36.7105263 C41.7510373,35.8492823 41.7510373,35.8492823 40.6721992,35.8492823 Z M4.42323651,13.7799043 C3.66804979,13.7799043 3.12863071,13.7799043 2.26556017,13.7799043 C1.72614108,13.7799043 1.72614108,14.0932495 1.72614108,14.6154916 C1.72614108,19.4201184 1.72614108,24.0158484 1.72614108,28.8204752 C1.72614108,33.3117568 1.72614108,37.9074867 1.72614108,42.3987683 C1.72614108,44.0699429 1.07883817,43.7565976 3.34439834,43.7565976 C5.60995851,43.7565976 5.28630705,43.7565976 5.28630705,42.1898715 C5.28630705,32.7895147 5.28630705,23.7025031 5.28630705,14.4065948 C4.9626556,14.0932495 4.9626556,13.7799043 4.42323651,13.7799043 Z M49.5186722,13.7799043 C48.8713693,13.7799043 48.3319502,13.7799043 47.7925311,13.7799043 C47.253112,13.7799043 47.0373444,14.0902491 47.0373444,14.6074905 C47.0373444,23.0902491 47.0373444,31.5730078 47.0373444,40.2626629 C47.0373444,41.0902491 47.0373444,41.9178353 47.0373444,42.9523181 C47.0373444,43.4695595 47.253112,43.7799043 47.7925311,43.7799043 C48.3319502,43.7799043 48.8713693,43.7799043 49.5186722,43.7799043 C50.0580913,43.7799043 50.2738589,43.4695595 50.2738589,42.9523181 C50.2738589,38.1936974 50.2738589,33.4350767 50.2738589,28.8833526 C50.2738589,24.1247319 50.2738589,19.676456 50.2738589,14.9178353 C50.2738589,14.0902491 50.0580913,13.7799043 49.5186722,13.7799043 Z"></path>
        </g>
    </g>
</svg>