<?xml version="1.0" encoding="UTF-8"?>
<svg width="64px" height="64px" viewBox="0 0 64 64" version="1.1" xmlns="http://www.w3.org/2000/svg" xmlns:xlink="http://www.w3.org/1999/xlink">
    <!-- Generator: Sketch 52.6 (67491) - http://www.bohemiancoding.com/sketch -->
    <title>bus-lane-2</title>
    <desc>Created with Sketch.</desc>
    <g id="bus-lane-2" stroke="none" stroke-width="1" fill="none" fill-rule="evenodd">
        <g id="icon-bus-lane-2" transform="translate(6.000000, 8.000000)" fill="#000000" fill-rule="nonzero">
            <path d="M23.9914163,33.6 L19.416309,33.6 C19.193133,33.6 19.193133,33.9428571 19.193133,33.9428571 L19.193133,35.6571429 C19.193133,36 19.416309,36 19.416309,36 L23.7682403,36 C23.9914163,36 23.9914163,35.6571429 23.9914163,35.6571429 L23.9914163,33.9428571 C24.3261803,33.6 23.9914163,33.6 23.9914163,33.6 Z M30.0171674,33.6 L25.6652361,33.6 C25.4420601,33.6 25.4420601,33.9428571 25.4420601,33.9428571 L25.4420601,35.6571429 C25.4420601,36 25.6652361,36 25.6652361,36 L30.0171674,36 C30.2403433,36 30.2403433,35.6571429 30.2403433,35.6571429 L30.2403433,33.9428571 C30.2403433,33.6 30.0171674,33.6 30.0171674,33.6 Z M17.4077253,33.6 L16.2918455,33.6 C15.9570815,33.6 15.9570815,33.9428571 15.9570815,33.9428571 L15.9570815,39.5428571 C15.9570815,39.7714286 16.2918455,39.7714286 16.2918455,39.7714286 L17.4077253,39.7714286 C17.7424893,39.7714286 17.7424893,39.5428571 17.7424893,39.5428571 L17.7424893,33.9428571 C17.7424893,33.6 17.7424893,33.6 17.4077253,33.6 Z M36.2660944,40.3428571 C36.2660944,40.9142857 35.9313305,41.2571429 35.3733906,41.2571429 C34.9270386,41.2571429 34.5922747,40.9142857 34.5922747,40.3428571 C34.5922747,39.8857143 34.9270386,39.5428571 35.3733906,39.5428571 C35.9313305,39.5428571 36.2660944,39.8857143 36.2660944,40.3428571 Z M21.7596567,40.3428571 C21.7596567,40.9142857 21.3133047,41.2571429 20.8669528,41.2571429 C20.4206009,41.2571429 19.9742489,40.9142857 19.9742489,40.3428571 C19.9742489,39.8857143 20.4206009,39.5428571 20.8669528,39.5428571 C21.3133047,39.5428571 21.7596567,39.8857143 21.7596567,40.3428571 Z M36.0429185,33.6 L31.6909871,33.6 C31.4678112,33.6 31.4678112,33.9428571 31.4678112,33.9428571 L31.4678112,35.6571429 C31.4678112,36 31.6909871,36 31.6909871,36 L36.0429185,36 C36.2660944,36 36.2660944,35.6571429 36.2660944,35.6571429 L36.2660944,33.9428571 C36.2660944,33.6 36.0429185,33.6 36.0429185,33.6 Z M41.1759657,33.6 L37.3819742,33.6 C37.1587983,33.6 37.1587983,33.9428571 37.1587983,33.9428571 L37.1587983,35.6571429 C37.1587983,36 37.3819742,36 37.3819742,36 L41.7339056,36 C41.9570815,36 41.9570815,35.6571429 41.9570815,35.6571429 L41.9570815,34.8571429 C42.2918455,33.9428571 41.7339056,33.6 41.1759657,33.6 Z M37.1587983,0 L14.8412017,0 L0,48 L52,48 L37.1587983,0 Z M16.2918455,0.914285714 L17.4077253,0.914285714 L16.6266094,5.02857143 L15.1759657,5.02857143 L16.2918455,0.914285714 Z M14.2832618,7.88571429 L15.9570815,7.88571429 L14.6180258,15.2 L12.2746781,15.2 L14.2832618,7.88571429 Z M8.59227468,44.8 L4.5751073,44.8 L7.69957082,32.8 L10.8240343,32.8 L8.59227468,44.8 Z M11.7167382,29.8285714 L8.81545064,29.8285714 L11.7167382,18.1714286 L13.9484979,18.1714286 L11.7167382,29.8285714 Z M20.8669528,41.8285714 C19.9742489,41.8285714 19.416309,41.2571429 19.416309,40.3428571 C19.416309,39.5428571 19.9742489,38.9714286 20.8669528,38.9714286 C21.7596567,38.9714286 22.3175966,39.5428571 22.3175966,40.3428571 C22.3175966,40.9142857 21.7596567,41.8285714 20.8669528,41.8285714 Z M35.3733906,41.8285714 C34.5922747,41.8285714 34.0343348,41.2571429 34.0343348,40.3428571 C34.0343348,39.5428571 34.5922747,38.9714286 35.3733906,38.9714286 C36.2660944,38.9714286 36.8240343,39.5428571 36.8240343,40.3428571 C36.8240343,40.9142857 36.2660944,41.8285714 35.3733906,41.8285714 Z M37.1587983,40.6857143 C37.1587983,40.3428571 37.1587983,40.3428571 37.1587983,40.1142857 C37.1587983,38.9714286 36.2660944,38.2857143 35.3733906,38.2857143 C34.5922747,38.2857143 33.6995708,39.2 33.6995708,40.1142857 C33.6995708,40.3428571 33.6995708,40.3428571 33.6995708,40.6857143 L22.5407725,40.6857143 C22.5407725,40.3428571 22.5407725,40.3428571 22.5407725,40.1142857 C22.5407725,38.9714286 21.7596567,38.2857143 20.8669528,38.2857143 C19.751073,38.2857143 19.193133,39.2 19.193133,40.1142857 C19.193133,40.3428571 19.193133,40.3428571 19.193133,40.6857143 L15.1759657,40.6857143 C14.2832618,40.6857143 14.2832618,39.7714286 14.2832618,39.7714286 C14.2832618,39.7714286 14.2832618,37.1428571 14.2832618,36.9142857 C14.2832618,36.5714286 14.6180258,36.5714286 14.6180258,36.5714286 L14.6180258,32.8 C14.6180258,31.8857143 15.1759657,32.2285714 15.1759657,32.2285714 L41.3991416,32.2285714 C42.5150215,32.2285714 43.1845494,33.3714286 43.1845494,33.9428571 L43.1845494,39.5428571 L37.1587983,40.6857143 Z" id="Shape"></path>
        </g>
    </g>
</svg>