<?xml version="1.0" encoding="UTF-8"?>
<svg width="64px" height="64px" viewBox="0 0 64 64" version="1.1" xmlns="http://www.w3.org/2000/svg" xmlns:xlink="http://www.w3.org/1999/xlink">
    <!-- Generator: Sketch 52.6 (67491) - http://www.bohemiancoding.com/sketch -->
    <title>bus-stop</title>
    <desc>Created with Sketch.</desc>
    <g id="bus-stop" stroke="none" stroke-width="1" fill="none" fill-rule="evenodd">
        <g id="icon-bus-stop" transform="translate(6.000000, 8.000000)" fill="#000000" fill-rule="nonzero">
            <path d="M51.6953125,7.87904968 C51.4921875,5.49460043 49.359375,3.62850972 47.0234375,3.62850972 L38.1875,3.62850972 C37.6796875,1.03671706 36.359375,0 33.8203125,0 C33.0078125,0 32.5,0 31.6875,0 C28.640625,0 27.5234375,0.518358531 26.5078125,3.62850972 L18.1796875,3.62850972 C15.640625,3.62850972 13.5078125,5.80561555 13.5078125,8.50107991 L13.5078125,39.4989201 C13.5078125,41.8833693 15.3359375,44.0604752 17.671875,44.2678186 L17.671875,44.5788337 C17.671875,45.6155508 18.1796875,46.4449244 18.9921875,47.1706263 C19.1953125,47.4816415 19.5,47.6889849 19.8046875,47.6889849 C19.8046875,47.6889849 20.0078125,47.6889849 20.0078125,47.6889849 C20.0078125,47.6889849 20.3125,47.6889849 20.3125,47.6889849 C20.515625,47.6889849 20.8203125,48 21.0234375,48 C22.34375,48 23.15625,47.4816415 23.96875,46.4449244 C23.96875,46.4449244 23.96875,46.1339093 24.171875,46.1339093 C24.4765625,45.8228942 24.4765625,45.6155508 24.4765625,45.0971922 C24.4765625,44.7861771 24.6796875,44.5788337 24.6796875,44.2678186 L24.6796875,44.0604752 L40.5234375,44.0604752 L40.5234375,44.2678186 C40.5234375,45.8228942 41.640625,47.1706263 43.1640625,47.6889849 C43.1640625,47.6889849 43.46875,47.6889849 43.46875,47.6889849 C43.671875,47.6889849 43.671875,47.6889849 43.9765625,47.6889849 C44.9921875,47.6889849 45.8046875,47.1706263 46.515625,46.6522678 C47.328125,45.8228942 47.53125,45.0971922 47.53125,44.0604752 C49.6640625,44.0604752 51.4921875,42.1943844 52,40.0172786 C52,40.0172786 52,40.0172786 52,39.8099352 C52,39.4989201 52,39.4989201 52,39.187905 L52,8.50107991 C52,8.50107991 51.6953125,8.19006479 51.6953125,7.87904968 Z M18.9921875,38.462203 C17.46875,38.462203 15.84375,37.1144708 15.84375,35.2483801 C15.84375,33.3822894 17.1640625,32.0345572 18.6875,32.0345572 C20.3125,32.0345572 21.53125,33.3822894 21.8359375,35.0410367 C21.8359375,37.1144708 20.515625,38.462203 18.9921875,38.462203 Z M43.671875,35.5593952 C43.671875,33.6933045 44.9921875,32.5529158 46.8203125,32.5529158 C48.34375,32.5529158 49.6640625,33.9006479 49.6640625,35.5593952 C49.6640625,37.425486 48.34375,38.6695464 46.8203125,38.6695464 C44.9921875,38.462203 43.671875,37.1144708 43.671875,35.5593952 Z M49.359375,16.8984881 C49.359375,19.2829374 49.359375,21.7710583 49.359375,23.8444924 C49.359375,25.9179266 48.34375,26.7473002 46.515625,26.7473002 C41.84375,26.7473002 37.4765625,26.7473002 32.8046875,26.7473002 C28.3359375,26.7473002 23.96875,26.7473002 19.5,26.7473002 C17.1640625,26.7473002 16.1484375,25.9179266 16.1484375,23.3261339 C16.1484375,21.1490281 16.1484375,18.7645788 16.1484375,16.6911447 C16.1484375,15.1360691 16.859375,13.9956803 18.1796875,13.7883369 L47.0234375,13.7883369 C48.6484375,14.5140389 49.359375,15.3434125 49.359375,16.8984881 Z M49.359375,9.22678186 C49.359375,10.574514 48.8515625,11.6112311 47.53125,11.9222462 L17.9765625,11.9222462 C16.859375,11.6112311 16.1484375,10.574514 16.1484375,9.22678186 C16.1484375,7.36069114 17.1640625,6.32397408 19.1953125,6.32397408 C28.03125,6.32397408 37.171875,6.32397408 46.0078125,6.32397408 C48.34375,6.32397408 49.359375,7.36069114 49.359375,9.22678186 Z M5.9921875,8.70842333 C2.640625,8.70842333 0,11.4038877 0,14.825054 C0,18.0388769 2.3359375,20.4233261 5.1796875,20.9416847 C5.1796875,21.1490281 5.1796875,21.4600432 5.1796875,21.7710583 C5.1796875,29.1317495 5.1796875,36.5961123 5.1796875,44.0604752 C5.1796875,44.2678186 5.1796875,44.7861771 5.1796875,45.0971922 C2.84375,45.6155508 2.03125,46.1339093 2.3359375,47.6889849 C4.9765625,47.6889849 7.3125,47.6889849 9.8515625,47.6889849 C9.8515625,46.1339093 9.34375,45.6155508 7.0078125,45.0971922 C7.0078125,37.1144708 7.0078125,29.1317495 7.0078125,21.4600432 C7.0078125,21.4600432 7.0078125,21.1490281 7.0078125,21.1490281 C9.8515625,20.6306695 11.984375,18.2462203 11.984375,15.1360691 C12.1875,11.4038877 9.34375,8.70842333 5.9921875,8.70842333 Z" id="Shape"></path>
        </g>
    </g>
</svg>