<?xml version="1.0" encoding="UTF-8"?>
<svg width="64px" height="64px" viewBox="0 0 64 64" version="1.1" xmlns="http://www.w3.org/2000/svg" xmlns:xlink="http://www.w3.org/1999/xlink">
    <!-- Generator: Sketch 52.6 (67491) - http://www.bohemiancoding.com/sketch -->
    <title>bus</title>
    <desc>Created with Sketch.</desc>
    <g id="bus" stroke="none" stroke-width="1" fill="none" fill-rule="evenodd">
        <g id="icon-bus" transform="translate(6.000000, 23.000000)" fill="#000000" fill-rule="nonzero">
            <path d="M11.4958678,12.3333333 C10.2066116,12.3333333 8.80991736,13.4444444 8.80991736,15.2222222 C8.80991736,16.6666667 9.88429752,18 11.4958678,18 C12.892562,18 14.2892562,16.8888889 14.2892562,15.2222222 C14.2892562,13.4444444 12.892562,12.3333333 11.4958678,12.3333333 Z M11.4958678,16.3333333 C10.7438017,16.3333333 10.2066116,15.7777778 10.2066116,14.8888889 C10.2066116,14.1111111 10.7438017,13.4444444 11.4958678,13.4444444 C12.3553719,13.4444444 12.892562,14.1111111 12.892562,14.8888889 C12.892562,15.7777778 12.3553719,16.3333333 11.4958678,16.3333333 Z M37.3884298,12.3333333 C35.9917355,12.3333333 34.5950413,13.4444444 34.5950413,15.2222222 C34.5950413,16.6666667 35.7768595,18 37.3884298,18 C38.785124,18 40.1818182,16.8888889 40.1818182,15.2222222 C40.1818182,13.4444444 39,12.3333333 37.3884298,12.3333333 Z M37.3884298,16.3333333 C36.5289256,16.3333333 35.9917355,15.7777778 35.9917355,14.8888889 C35.9917355,14.1111111 36.5289256,13.4444444 37.3884298,13.4444444 C38.2479339,13.4444444 38.785124,14.1111111 38.785124,14.8888889 C38.785124,15.7777778 38.2479339,16.3333333 37.3884298,16.3333333 Z M48.6694215,0.111111111 L1.9338843,0.111111111 C1.9338843,0.111111111 0.752066116,-0.111111111 0.752066116,1.22222222 L0.537190083,8.11111111 C0.537190083,8.11111111 0,8.11111111 0,8.66666667 C0,9.22222222 0,14.1111111 0,14.1111111 C0,14.1111111 0,15.7777778 1.39669421,15.7777778 L8.48760331,15.7777778 C8.48760331,15.4444444 8.48760331,15.2222222 8.48760331,14.8888889 C8.48760331,12.8888889 9.88429752,11.5555556 11.8181818,11.5555556 C13.7520661,11.5555556 15.1487603,12.8888889 15.1487603,14.8888889 C15.1487603,15.2222222 15.1487603,15.4444444 15.1487603,15.7777778 L34.3801653,15.7777778 C34.3801653,15.4444444 34.3801653,15.2222222 34.3801653,14.8888889 C34.3801653,12.8888889 35.7768595,11.5555556 37.7107438,11.5555556 C39.5371901,11.5555556 40.9338843,12.8888889 40.9338843,14.8888889 C40.9338843,15.2222222 40.9338843,15.4444444 40.9338843,15.7777778 L52,13.4444444 L52,3.55555556 C51.677686,2.44444444 50.6033058,0.111111111 48.6694215,0.111111111 Z M6.33884298,13.4444444 C6.33884298,13.7777778 6.01652893,14.3333333 5.47933884,14.3333333 L3.8677686,14.3333333 C3.54545455,14.3333333 3.00826446,14.1111111 3.00826446,13.4444444 L3.00826446,3.77777778 C3.00826446,3.55555556 3.33057851,3 3.8677686,3 L5.80165289,3 C6.01652893,3 6.55371901,3.22222222 6.55371901,3.77777778 L6.55371901,13.4444444 L6.33884298,13.4444444 Z M17.8347107,7 C17.8347107,7.22222222 17.6198347,7.77777778 17.0826446,7.77777778 L9.34710744,7.77777778 C9.02479339,7.77777778 8.48760331,7.55555556 8.48760331,7 L8.48760331,3.77777778 C8.48760331,3.55555556 8.80991736,3 9.34710744,3 L17.0826446,3 C17.2975207,3 17.8347107,3.22222222 17.8347107,3.77777778 L17.8347107,7 Z M28.5785124,7 C28.5785124,7.22222222 28.2561983,7.77777778 27.7190083,7.77777778 L20.0909091,7.77777778 C19.768595,7.77777778 19.231405,7.55555556 19.231405,7 L19.231405,3.77777778 C19.231405,3.55555556 19.553719,3 20.0909091,3 L27.7190083,3 C28.0413223,3 28.5785124,3.22222222 28.5785124,3.77777778 L28.5785124,7 Z M39,7 C39,7.22222222 38.785124,7.77777778 38.2479339,7.77777778 L30.5123967,7.77777778 C30.1900826,7.77777778 29.6528926,7.55555556 29.6528926,7 L29.6528926,3.77777778 C29.6528926,3.55555556 29.9752066,3 30.5123967,3 L38.2479339,3 C38.4628099,3 39,3.22222222 39,3.77777778 L39,7 Z M49.7438017,7 C49.7438017,7.22222222 49.5289256,7.77777778 48.8842975,7.77777778 L41.2561983,7.77777778 C40.9338843,7.77777778 40.3966942,7.55555556 40.3966942,7 L40.3966942,3.77777778 C40.3966942,3.55555556 40.7190083,3 41.2561983,3 L47.5950413,3 C48.6694215,3 49.5289256,3.77777778 49.5289256,5 L49.5289256,7 L49.7438017,7 Z" id="Shape"></path>
        </g>
    </g>
</svg>