<?xml version="1.0" encoding="UTF-8"?>
<svg width="64px" height="64px" viewBox="0 0 64 64" version="1.1" xmlns="http://www.w3.org/2000/svg" xmlns:xlink="http://www.w3.org/1999/xlink">
    <!-- Generator: Sketch 63.1 (92452) - https://sketch.com -->
    <title>cluster</title>
    <desc>Created with Sketch.</desc>
    <g id="cluster" stroke="none" stroke-width="1" fill="none" fill-rule="evenodd">
        <path d="M13.9080721,42.3018868 C18.1571854,42.3018868 21.6981132,45.8428146 21.6981132,50.0919279 C21.6981132,54.4590722 18.1571854,58 13.9080721,58 C9.54092779,58 6,54.4590722 6,50.0919279 C6,45.8428146 9.54092779,42.3018868 13.9080721,42.3018868 Z M47.1780394,44.754717 C49.3616116,44.754717 51.1320755,46.5251809 51.1320755,48.6497376 C51.1320755,50.8333097 49.3616116,52.6037736 47.1780394,52.6037736 C45.0534828,52.6037736 43.2830189,50.8333097 43.2830189,48.6497376 C43.2830189,46.5251809 45.0534828,44.754717 47.1780394,44.754717 Z M32.9811321,23.1698113 C39.1022247,23.1698113 43.7735849,28.1633343 43.7735849,33.9622642 C43.7735849,39.761194 39.1022247,44.754717 32.9811321,44.754717 C27.1822022,44.754717 22.1886792,39.761194 22.1886792,33.9622642 C22.1886792,28.1633343 26.8600394,23.1698113 32.9811321,23.1698113 Z M54.045964,29.0566038 C56.1705206,29.0566038 58,30.7552802 58,32.9811321 C58,35.0898338 56.347567,36.9056604 54.045964,36.9056604 C51.9804228,36.9056604 50.1509434,35.2069839 50.1509434,32.9811321 C50.1509434,30.8724303 51.8033764,29.0566038 54.045964,29.0566038 Z M13.8269258,25.6226415 C15.4203433,25.6226415 16.7924528,26.8966488 16.7924528,28.5660377 C16.7924528,30.1475641 15.5531281,31.509434 13.8269258,31.509434 C12.2777699,31.509434 10.9056604,30.2354266 10.9056604,28.5660377 C10.9056604,26.9845114 12.1449851,25.6226415 13.8269258,25.6226415 Z M17.8178465,6 C21.0046815,6 23.6603774,8.65569584 23.6603774,11.9310541 C23.6603774,15.1178891 21.0046815,17.7735849 17.8178465,17.7735849 C14.5424883,17.7735849 11.8867925,15.1178891 11.8867925,11.9310541 C11.8867925,8.65569584 14.5424883,6 17.8178465,6 Z M32.9516243,9.43396226 C35.076181,9.43396226 36.9056604,11.1326387 36.9056604,13.3584906 C36.9056604,15.4671923 35.2532274,17.2830189 32.9516243,17.2830189 C30.8860831,17.2830189 29.0566038,15.5843424 29.0566038,13.3584906 C29.0566038,11.2497888 30.7090367,9.43396226 32.9516243,9.43396226 Z" fill="#000000" fill-rule="nonzero"></path>
    </g>
</svg>