<?xml version="1.0" encoding="UTF-8"?>
<svg width="64px" height="64px" viewBox="0 0 64 64" version="1.1" xmlns="http://www.w3.org/2000/svg" xmlns:xlink="http://www.w3.org/1999/xlink">
    <!-- Generator: Sketch 52.6 (67491) - http://www.bohemiancoding.com/sketch -->
    <title>collection-full</title>
    <desc>Created with Sketch.</desc>
    <g id="collection-full" stroke="none" stroke-width="1" fill="none" fill-rule="evenodd">
        <g id="icon-collection-full" transform="translate(6.000000, 8.000000)" fill="#000000" fill-rule="nonzero">
            <path d="M51.6953125,24.1555076 L39.8125,0 L11.171875,0 L0,24.1555076 L0,48 L52,48 L52,24.1555076 L51.6953125,24.1555076 Z M13.3046875,3.62850972 L37.6796875,3.62850972 L47.53125,24.1555076 L4.1640625,24.1555076 L13.3046875,3.62850972 Z M48.34375,44.0604752 L3.65625,44.0604752 L3.65625,28.0950324 L48.34375,28.0950324 L48.34375,44.0604752 Z M18.9921875,34.4190065 L33.0078125,34.4190065 L33.0078125,38.462203 L18.9921875,38.462203 L18.9921875,34.4190065 Z M37.171875,11.0928726 L14.5234375,11.0928726 L12.6953125,15.1360691 L39.3046875,15.1360691 L37.171875,11.0928726 Z M34.8359375,6.84233261 L16.65625,6.84233261 L15.640625,8.70842333 L35.8515625,8.70842333 L34.8359375,6.84233261 Z M40.5234375,17.2095032 L11.4765625,17.2095032 L9.6484375,21.1490281 L42.859375,21.4600432 L40.5234375,17.2095032 Z" id="Shape"></path>
        </g>
    </g>
</svg>