<?xml version="1.0" encoding="UTF-8"?>
<svg width="64px" height="64px" viewBox="0 0 64 64" version="1.1" xmlns="http://www.w3.org/2000/svg" xmlns:xlink="http://www.w3.org/1999/xlink">
    <!-- Generator: Sketch 52.6 (67491) - http://www.bohemiancoding.com/sketch -->
    <title>collection-card</title>
    <desc>Created with Sketch.</desc>
    <g id="collection-card" stroke="none" stroke-width="1" fill="none" fill-rule="evenodd">
        <g id="icon-collection-card" transform="translate(6.000000, 8.000000)" fill="#000000" fill-rule="nonzero">
            <path d="M52,24.1555076 L39.8125,0 L11.171875,0 L0,24.1555076 L0,48 L52,48 L52,24.1555076 Z M33.0078125,38.1511879 L18.9921875,38.1511879 L18.9921875,34.4190065 L33.0078125,34.4190065 L33.0078125,38.1511879 Z M4.1640625,24.1555076 L13.5078125,3.62850972 L37.984375,3.62850972 L47.8359375,24.1555076 L4.1640625,24.1555076 Z M14.5234375,11.0928726 L12.6953125,15.1360691 L39.3046875,15.1360691 L37.171875,11.0928726 L14.5234375,11.0928726 Z M35.34375,6.6349892 L16.3515625,6.6349892 L15.3359375,9.22678186 L36.15625,9.22678186 L35.34375,6.6349892 Z M9.6484375,21.1490281 L42.859375,21.4600432 L40.5234375,17.2095032 L11.4765625,17.2095032 L9.6484375,21.1490281 Z" id="Shape"></path>
        </g>
    </g>
</svg>