<?xml version="1.0" encoding="UTF-8"?>
<svg width="64px" height="64px" viewBox="0 0 64 64" version="1.1" xmlns="http://www.w3.org/2000/svg" xmlns:xlink="http://www.w3.org/1999/xlink">
    <!-- Generator: Sketch 53.2 (72643) - https://sketchapp.com -->
    <title>copy-to-clipboard</title>
    <desc>Created with Sketch.</desc>
    <g id="copy-to-clipboard" stroke="none" stroke-width="1" fill="none" fill-rule="evenodd">
        <path d="M20,45.1884058 L11,45.1884058 L11,10.9616222 L15.9646341,10.9616222 L15.9646341,17.9987793 L40.5353659,17.9987793 L40.5353659,10.9616222 L45.5,10.9616222 L45.5,25 L20,25 L20,45.1884058 Z M38.1792683,10.9616222 L38,10.9616222 L38,15.9232444 L18,15.9232444 L18,10.9616222 L23.2853659,10.9616222 C23.2853659,8.18647758 25.4731707,6 28.25,6 C31.0268293,6 33.2146341,8.18647758 33.2146341,10.9616222 L38.1792683,10.9616222 Z M28.25,13.3162904 C29.5121951,13.3162904 30.6060976,12.2230516 30.6060976,10.9616222 C30.6060976,9.70019282 29.5121951,8.60695403 28.25,8.60695403 C26.9878049,8.60695403 25.8939024,9.70019282 25.8939024,10.9616222 C25.8939024,12.2230516 26.9878049,13.3162904 28.25,13.3162904 Z M23,28 L53,28 L53,58 L23,58 L23,28 Z" id="Shape" fill="#000000" fill-rule="nonzero"></path>
    </g>
</svg>