<?xml version="1.0" encoding="UTF-8"?>
<svg width="64px" height="64px" viewBox="0 0 64 64" version="1.1" xmlns="http://www.w3.org/2000/svg" xmlns:xlink="http://www.w3.org/1999/xlink">
    <!-- Generator: Sketch 63.1 (92452) - https://sketch.com -->
    <title>copy-id</title>
    <desc>Created with Sketch.</desc>
    <g id="copy-id" stroke="none" stroke-width="1" fill="none" fill-rule="evenodd">
        <path d="M53,28 L53,58 L23,58 L23,28 L53,28 Z M41.6008188,35 L36.1627431,35 L36.1627431,51 L41.2461617,51 C43.8613232,51 45.8907297,50.277709 47.3344422,48.8331053 C48.7781546,47.3885017 49.5,45.3310667 49.5,42.6607387 C49.5,40.1801062 48.8139782,38.2831803 47.441914,36.9699042 C46.1351862,35.7191651 44.3069636,35.064025 41.9571956,35.0044669 L41.6008188,35 Z M32.7666325,35 L28.5,35 L28.5,51 L32.7666325,51 L32.7666325,35 Z M41.6438076,38.4911081 C42.8045094,38.4911081 43.6696491,38.8449577 44.2392528,39.5526676 C44.8088565,40.2603775 45.093654,41.3474619 45.093654,42.8139535 C45.093654,44.3825888 44.7927359,45.5481038 44.1908905,46.3105335 C43.6291681,47.0221346 42.7678729,47.4016502 41.6069816,47.4490896 L41.3536336,47.4541724 L40.4078813,47.4541724 L40.4078813,38.4911081 L41.6438076,38.4911081 Z M15.5,11 L15.5,18.5 L40.5,18.5 L40.5,11 L45,11 L45,25.5 L20.5,25.5 L20.5,45 L11,45 L11,11 L15.5,11 Z M28,6 C30.6887547,6 32.8818181,8.12230671 32.9953805,10.7831104 L33,11 L38,11 L38,16 L18,16 L18,11 L23,11 C23,8.23857625 25.2385763,6 28,6 Z M28,8.5 C26.6192881,8.5 25.5,9.61928813 25.5,11 C25.5,12.3807119 26.6192881,13.5 28,13.5 C29.3807119,13.5 30.5,12.3807119 30.5,11 C30.5,9.61928813 29.3807119,8.5 28,8.5 Z" id="Shape" fill="#000000"></path>
    </g>
</svg>