<?xml version="1.0" encoding="UTF-8"?>
<svg width="64px" height="64px" viewBox="0 0 64 64" version="1.1" xmlns="http://www.w3.org/2000/svg" xmlns:xlink="http://www.w3.org/1999/xlink">
    <!-- Generator: Sketch 52.6 (67491) - http://www.bohemiancoding.com/sketch -->
    <title>crossing-pedestrian-walking</title>
    <desc>Created with Sketch.</desc>
    <g id="crossing-pedestrian-walking" stroke="none" stroke-width="1" fill="none" fill-rule="evenodd">
        <g id="icon-crossing-pedestrian-walking" transform="translate(6.000000, 6.000000)" fill="#000000" fill-rule="nonzero">
            <path d="M22.2546973,16.0746888 C21.7118998,16.3983402 21.0605428,16.9377593 20.5177453,17.2614108 C20.3006263,17.4771784 19.7578288,17.8008299 19.4321503,18.0165975 C19.4321503,18.0165975 19.4321503,18.340249 19.4321503,18.340249 C18.8893528,20.4979253 18.3465553,22.439834 18.0208768,24.7053942 C17.8037578,25.4605809 17.4780793,26.1078838 16.7181628,26.1078838 C15.5240084,26.3236515 14.4384134,25.2448133 14.7640919,24.1659751 C14.9812109,22.2240664 15.5240084,20.4979253 15.8496868,18.5560166 C16.0668058,17.8008299 16.0668058,17.2614108 16.3924843,16.3983402 C16.3924843,16.0746888 16.7181628,15.5352697 16.9352818,15.5352697 C19.4321503,13.593361 21.9290188,11.4356846 24.4258873,9.17012448 C25.2943633,8.63070539 26.1628392,8.41493776 27.2484342,8.41493776 C28.3340292,8.41493776 29.2025052,8.95435685 29.9624217,9.81742739 C30.2881002,10.033195 30.2881002,10.3568465 30.6137787,10.5726141 C31.6993737,13.0539419 33.1106472,15.5352697 34.1962422,17.8008299 C34.1962422,17.8008299 34.1962422,18.0165975 34.4133612,18.0165975 C36.1503132,19.2033195 37.7787056,20.2821577 39.4070981,21.6846473 C40.0584551,22.2240664 40.2755741,22.7634855 40.2755741,23.626556 C40.0584551,24.3817427 39.4070981,24.9211618 38.8643006,24.9211618 C38.3215031,24.9211618 38.1043841,24.9211618 37.5615866,24.7053942 C35.6075157,23.3029046 33.6534447,22.2240664 31.6993737,20.8215768 C31.6993737,20.4979253 31.3736952,20.2821577 31.3736952,19.9585062 C30.8308977,19.2033195 30.6137787,18.340249 29.9624217,17.4771784 C29.9624217,17.4771784 29.9624217,17.4771784 29.9624217,17.2614108 C29.9624217,17.8008299 29.7453027,18.0165975 29.7453027,18.340249 C29.2025052,20.4979253 28.8768267,22.439834 28.3340292,24.7053942 C28.3340292,24.7053942 28.3340292,24.9211618 28.3340292,24.9211618 C29.7453027,26.6473029 30.8308977,27.9419087 32.2421712,29.6680498 C33.1106472,30.746888 34.1962422,31.8257261 34.9561587,33.0124481 C35.2818372,33.2282158 35.2818372,33.7676349 35.6075157,34.3070539 C35.8246347,36.033195 36.1503132,37.6514523 36.3674322,39.2697095 C36.6931106,40.6721992 36.9102296,42.0746888 37.2359081,43.6929461 C37.5615866,45.0954357 36.3674322,46.4979253 34.9561587,46.8215768 C33.6534447,47.0373444 32.4592902,45.9585062 32.2421712,44.5560166 C31.6993737,42.0746888 31.3736952,39.593361 30.8308977,37.1120332 C30.8308977,36.5726141 30.6137787,36.033195 30.6137787,35.4937759 C30.6137787,35.4937759 30.6137787,35.1701245 30.6137787,35.1701245 C29.2025052,33.5518672 27.4655532,31.8257261 26.1628392,30.2074689 C25.8371608,29.8838174 25.5114823,29.3443983 24.9686848,29.1286307 C24.9686848,29.3443983 24.9686848,29.6680498 24.7515658,29.8838174 C24.4258873,31.6099585 23.8830898,33.2282158 23.6659708,34.846473 C23.6659708,35.1701245 23.3402923,35.7095436 23.0146138,36.033195 C21.0605428,39.593361 19.2150313,42.3983402 17.4780793,45.4190871 C16.9352818,46.1742739 16.0668058,46.8215768 14.9812109,46.8215768 C13.8956159,46.8215768 13.0271399,45.9585062 12.8100209,45.0954357 C12.4843424,44.340249 12.4843424,43.4771784 13.0271399,42.9377593 C14.7640919,40.1327801 16.3924843,37.4356846 18.0208768,34.846473 C18.0208768,34.6307054 18.3465553,34.3070539 18.3465553,34.0912863 C19.2150313,29.1286307 20.3006263,24.3817427 21.3862213,19.7427386 C21.7118998,18.5560166 21.9290188,17.2614108 22.2546973,16.0746888 Z M28.0083507,7.87551867 C25.8371608,7.55186722 24.2087683,5.60995851 24.2087683,3.66804979 C24.2087683,1.51037344 26.1628392,-0.215767635 28.3340292,0.107883817 C30.6137787,0.323651452 31.9164927,2.04979253 31.9164927,4.20746888 C31.9164927,6.14937759 29.9624217,7.87551867 28.0083507,7.87551867 Z M16.0668058,51.7842324 C16.0668058,50.5975104 16.0668058,49.5186722 16.0668058,48.6556017 C16.0668058,48.6556017 16.0668058,48.6556017 16.3924843,48.6556017 C17.4780793,48.6556017 18.8893528,48.6556017 19.9749478,48.6556017 C20.3006263,48.6556017 20.3006263,48.6556017 20.3006263,48.9792531 C20.3006263,49.8423237 20.3006263,50.9211618 20.3006263,51.7842324 C20.3006263,51.7842324 20.3006263,52 19.9749478,52 C18.5636743,51.7842324 17.4780793,51.7842324 16.0668058,51.7842324 Z M52,48.439834 C52,49.5186722 52,50.5975104 52,51.4605809 C52,51.4605809 52,51.4605809 51.6743215,51.4605809 C50.5887265,51.4605809 49.177453,51.4605809 48.091858,51.4605809 C48.091858,51.4605809 47.7661795,51.4605809 47.7661795,51.2448133 C47.7661795,50.3817427 47.7661795,49.3029046 47.7661795,48.439834 C47.7661795,48.439834 47.7661795,48.1161826 48.091858,48.1161826 C49.5031315,48.439834 50.5887265,48.439834 52,48.439834 Z M28.0083507,51.7842324 C26.7056367,51.7842324 25.2943633,51.7842324 24.2087683,51.7842324 C24.2087683,50.5975104 24.2087683,49.5186722 24.2087683,48.6556017 C25.5114823,48.6556017 26.9227557,48.6556017 28.0083507,48.6556017 C28.0083507,49.5186722 28.0083507,50.5975104 28.0083507,51.7842324 Z M44.1837161,48.439834 C44.1837161,49.5186722 44.1837161,50.5975104 44.1837161,51.4605809 C42.7724426,51.4605809 41.3611691,51.4605809 40.2755741,51.4605809 C40.2755741,50.3817427 40.2755741,49.3029046 40.2755741,48.439834 C41.3611691,48.439834 42.7724426,48.439834 44.1837161,48.439834 Z M0,51.7842324 C0,50.5975104 0,49.5186722 0,48.6556017 C1.41127349,48.6556017 2.82254697,48.6556017 3.90814196,48.6556017 C3.90814196,49.8423237 3.90814196,50.9211618 3.90814196,51.7842324 C2.82254697,51.7842324 1.41127349,51.7842324 0,51.7842324 Z M11.9415449,51.7842324 C10.5302714,51.7842324 9.11899791,51.7842324 8.03340292,51.7842324 C8.03340292,50.5975104 8.03340292,49.5186722 8.03340292,48.6556017 C9.44467641,48.6556017 10.8559499,48.6556017 11.9415449,48.6556017 C11.9415449,49.5186722 11.9415449,50.5975104 11.9415449,51.7842324 Z M32.2421712,51.7842324 C32.2421712,50.5975104 32.2421712,49.5186722 32.2421712,48.6556017 C33.6534447,48.6556017 34.9561587,48.6556017 36.1503132,48.6556017 C36.1503132,49.8423237 36.1503132,50.9211618 36.1503132,51.7842324 C34.7390397,51.7842324 33.3277662,51.7842324 32.2421712,51.7842324 Z M52,36.7883817 C52,37.9751037 52,39.0539419 52,39.9170124 C50.5887265,39.9170124 49.177453,39.9170124 48.091858,39.9170124 C48.091858,39.9170124 48.091858,39.9170124 48.091858,39.593361 C48.091858,38.7302905 48.091858,37.6514523 48.091858,36.7883817 C48.091858,36.7883817 48.091858,36.5726141 48.308977,36.5726141 C49.5031315,36.7883817 50.5887265,36.7883817 52,36.7883817 Z M4.12526096,36.7883817 C4.12526096,37.9751037 4.12526096,39.0539419 4.12526096,39.9170124 C2.82254697,39.9170124 1.41127349,39.9170124 0.217118998,39.9170124 C0.217118998,38.7302905 0.217118998,37.6514523 0.217118998,36.7883817 C1.41127349,36.7883817 2.82254697,36.7883817 4.12526096,36.7883817 Z M8.03340292,36.7883817 C9.44467641,36.7883817 10.8559499,36.7883817 11.9415449,36.7883817 C11.9415449,37.9751037 11.9415449,39.0539419 11.9415449,39.9170124 C10.5302714,39.9170124 9.11899791,39.9170124 8.03340292,39.9170124 C8.03340292,39.0539419 8.03340292,37.9751037 8.03340292,36.7883817 Z M23.8830898,36.7883817 C25.2943633,36.7883817 26.7056367,36.7883817 27.7912317,36.7883817 C27.7912317,37.9751037 27.7912317,39.0539419 27.7912317,39.9170124 C26.3799582,39.9170124 24.9686848,39.9170124 23.8830898,39.9170124 C23.8830898,39.0539419 23.8830898,37.9751037 23.8830898,36.7883817 Z M44.1837161,36.7883817 C44.1837161,37.9751037 44.1837161,39.0539419 44.1837161,39.9170124 C42.7724426,39.9170124 41.3611691,39.9170124 40.2755741,39.9170124 C40.2755741,38.7302905 40.2755741,37.6514523 40.2755741,36.7883817 C41.3611691,36.7883817 42.7724426,36.7883817 44.1837161,36.7883817 Z" id="Shape"></path>
        </g>
    </g>
</svg>