<?xml version="1.0" encoding="UTF-8"?>
<svg width="64px" height="64px" viewBox="0 0 64 64" version="1.1" xmlns="http://www.w3.org/2000/svg" xmlns:xlink="http://www.w3.org/1999/xlink">
    <!-- Generator: Sketch 52.6 (67491) - http://www.bohemiancoding.com/sketch -->
    <title>crossing-road-top</title>
    <desc>Created with Sketch.</desc>
    <g id="crossing-road-top" stroke="none" stroke-width="1" fill="none" fill-rule="evenodd">
        <path d="M33,58 L33,55 L31,55 L31,58 L20,58 L20,6 L31,6 L31,9 L33,9 L33,6 L44,6 L44,58 L33,58 Z M31,14 L31,20 L33,20 L33,14 L31,14 Z M31,44 L31,50 L33,50 L33,44 L31,44 Z M22,26 L22,38 L24.5,38 L24.5,26 L22,26 Z M26.375,26 L26.375,38 L28.875,38 L28.875,26 L26.375,26 Z M30.75,26 L30.75,38 L33.25,38 L33.25,26 L30.75,26 Z M35.125,26 L35.125,38 L37.625,38 L37.625,26 L35.125,26 Z M39.5,26 L39.5,38 L42,38 L42,26 L39.5,26 Z M16,6 L18,6 L18,58 L16,58 L16,6 Z M46,6 L48,6 L48,58 L46,58 L46,6 Z" fill="#000000"></path>
    </g>
</svg>