<?xml version="1.0" encoding="UTF-8"?>
<svg width="64px" height="64px" viewBox="0 0 64 64" version="1.1" xmlns="http://www.w3.org/2000/svg" xmlns:xlink="http://www.w3.org/1999/xlink">
    <!-- Generator: Sketch 52.6 (67491) - http://www.bohemiancoding.com/sketch -->
    <title>crossing-pedestrian-top</title>
    <desc>Created with Sketch.</desc>
    <g id="crossing-pedestrian-top" stroke="none" stroke-width="1" fill="none" fill-rule="evenodd">
        <path d="M46,58 L46,40 L18,40 L18,58 L16,58 L16,6 L18,6 L18,24 L46,24 L46,6 L48,6 L48,58 L46,58 Z M31,6 L31,9 L33,9 L33,6 L44,6 L44,22 L20,22 L20,6 L31,6 Z M31,14 L31,20 L33,20 L33,14 L31,14 Z M33,58 L33,55 L31,55 L31,58 L20,58 L20,42 L44,42 L44,58 L33,58 Z M31,44 L31,50 L33,50 L33,44 L31,44 Z M18,26 L18,38 L20.5,38 L20.5,26 L18,26 Z M22.25,26 L22.25,38 L24.75,38 L24.75,26 L22.25,26 Z M26.5,26 L26.5,38 L29,38 L29,26 L26.5,26 Z M30.75,26 L30.75,38 L33.25,38 L33.25,26 L30.75,26 Z M35,26 L35,38 L37.5,38 L37.5,26 L35,26 Z M39.25,26 L39.25,38 L41.75,38 L41.75,26 L39.25,26 Z M43.5,26 L43.5,38 L46,38 L46,26 L43.5,26 Z" fill="#000000"></path>
    </g>
</svg>