<?xml version="1.0" encoding="UTF-8"?>
<svg width="64px" height="64px" viewBox="0 0 64 64" version="1.1" xmlns="http://www.w3.org/2000/svg" xmlns:xlink="http://www.w3.org/1999/xlink">
    <!-- Generator: Sketch 52.6 (67491) - http://www.bohemiancoding.com/sketch -->
    <title>crossing-train</title>
    <desc>Created with Sketch.</desc>
    <g id="crossing-train" stroke="none" stroke-width="1" fill="none" fill-rule="evenodd">
        <g id="icon-crossing-train" transform="translate(13.000000, 6.000000)" fill="#000000" fill-rule="nonzero">
            <path d="M34.8245125,0 C35.6713092,1.40248963 36.729805,2.80497925 37.7883008,4.42323651 C33.2367688,7.76763485 28.367688,11.1120332 23.4986072,14.6721992 C28.367688,18.0165975 32.9192201,21.253112 37.7883008,24.9211618 C36.729805,26.3236515 35.8830084,27.6182573 34.8245125,29.3443983 C30.4846797,26.3236515 26.1448468,23.1950207 21.5933148,19.9585062 C21.5933148,23.8423237 21.5933148,27.4024896 21.5933148,31.2863071 C22.3342618,31.2863071 23.1810585,31.2863071 24.0278552,31.2863071 C26.6740947,31.2863071 29.1086351,31.2863071 31.8607242,31.2863071 C34.8245125,31.5020747 37.2590529,33.7676349 37.7883008,36.4647303 C38.3175487,39.4854772 37.0473538,42.6141079 34.2952646,43.9087137 C31.5431755,45.3112033 28.367688,44.7717842 26.4623955,42.6141079 C24.2395543,40.3485477 24.0278552,37.3278008 25.4038997,34.5228216 C25.6155989,34.3070539 25.6155989,33.9834025 25.9331476,33.4439834 C24.5571031,33.4439834 23.1810585,33.4439834 21.8050139,33.4439834 C21.8050139,39.4854772 21.8050139,45.8506224 21.8050139,52 C20.2172702,52 18.3119777,52 16.724234,52 C16.724234,45.8506224 16.724234,39.8091286 16.724234,33.4439834 C15.3481894,33.4439834 13.9721448,33.4439834 12.913649,33.4439834 C13.1253482,34.846473 13.6545961,36.4647303 13.6545961,37.8672199 C13.6545961,41.4273859 10.6908078,44.2323651 7.19777159,44.5560166 C3.38718663,44.5560166 0.423398329,41.966805 0.105849582,38.1908714 C-0.105849582,34.846473 2.64623955,31.2863071 5.82172702,30.9626556 C8.78551532,30.746888 11.8551532,30.9626556 14.8189415,30.746888 C15.3481894,30.746888 15.8774373,30.746888 16.4066852,30.746888 C16.4066852,26.8630705 16.4066852,23.1950207 16.4066852,19.4190871 C11.8551532,22.6556017 7.51532033,26 3.17548747,29.0207469 C2.01114206,27.6182573 1.27019499,26.3236515 0.105849582,24.5975104 C5.08077994,21.253112 9.63231198,18.0165975 14.5013928,14.3485477 C9.63231198,11.1120332 5.08077994,7.76763485 0.105849582,4.20746888 C1.27019499,2.80497925 2.01114206,1.40248963 3.17548747,0 C3.17548747,0 3.38718663,0 3.38718663,0 C3.38718663,0 3.70473538,0.323651452 3.70473538,0.323651452 C7.7270195,3.12863071 11.5376045,6.14937759 15.5598886,8.84647303 C15.8774373,8.84647303 16.1949861,9.17012448 16.4066852,9.17012448 C16.4066852,8.63070539 16.4066852,8.09128631 16.4066852,7.4439834 C17.994429,7.4439834 19.6880223,7.4439834 21.275766,7.4439834 C21.275766,8.09128631 21.275766,8.63070539 21.5933148,9.17012448 C22.1225627,8.84647303 22.6518106,8.30705394 23.1810585,8.09128631 C26.9916435,5.60995851 30.8022284,2.80497925 34.8245125,0 C34.6128134,0 34.8245125,0 34.8245125,0 Z M4.44568245,37.6514523 C4.44568245,38.9460581 5.61002786,40.3485477 6.88022284,40.3485477 C8.25626741,40.3485477 9.42061281,39.2697095 9.63231198,37.8672199 C9.63231198,36.4647303 8.57381616,35.0622407 7.19777159,35.0622407 C5.61002786,35.0622407 4.44568245,36.2489627 4.44568245,37.6514523 Z M31.0139276,40.3485477 C32.3899721,40.3485477 33.448468,38.9460581 33.448468,37.6514523 C33.448468,36.2489627 32.3899721,35.0622407 31.0139276,35.0622407 C29.7437326,35.0622407 28.5793872,36.2489627 28.5793872,37.6514523 C28.367688,38.9460581 29.7437326,40.3485477 31.0139276,40.3485477 Z" id="Shape"></path>
        </g>
    </g>
</svg>