<?xml version="1.0" encoding="UTF-8"?>
<svg width="64px" height="64px" viewBox="0 0 64 64" version="1.1" xmlns="http://www.w3.org/2000/svg" xmlns:xlink="http://www.w3.org/1999/xlink">
    <!-- Generator: Sketch 52.6 (67491) - http://www.bohemiancoding.com/sketch -->
    <title>culvert</title>
    <desc>Created with Sketch.</desc>
    <g id="culvert" stroke="none" stroke-width="1" fill="none" fill-rule="evenodd">
        <g id="icon-culvert" transform="translate(6.000000, 21.000000)" fill="#000000">
            <path d="M52,12.5247525 C52,15.9009901 52,18.950495 52,22 C45.9459459,22 39.8918919,22 33.7297297,22 C33.7297297,19.8217822 33.7297297,17.8613861 33.7297297,15.6831683 C33.7297297,11.4356436 30.4864865,8.71287129 26.0540541,8.71287129 C21.6216216,8.71287129 18.2702703,11.7623762 18.2702703,15.6831683 C18.2702703,17.8613861 18.2702703,19.8217822 18.2702703,22 C12.2162162,22 6.05405405,22 0,22 C0,18.950495 0,15.9009901 0,12.5247525 C2.81081081,12.5247525 5.2972973,12.5247525 8,12.5247525 C8.86486486,12.5247525 9.40540541,12.3069307 9.72972973,11.4356436 C12.4324324,5.55445545 16.6486486,1.41584158 23.2432432,0.326732673 C30.1621622,-0.871287129 35.4594595,1.96039604 39.5675676,7.2970297 C40.6486486,8.71287129 41.5135135,10.019802 42.0540541,11.7623762 C42.3783784,12.5247525 42.9189189,12.8514851 43.6756757,12.8514851 C46.4864865,12.5247525 48.972973,12.5247525 52,12.5247525 Z" id="Path"></path>
        </g>
    </g>
</svg>