<?xml version="1.0" encoding="UTF-8"?>
<svg width="64px" height="64px" viewBox="0 0 64 64" version="1.1" xmlns="http://www.w3.org/2000/svg" xmlns:xlink="http://www.w3.org/1999/xlink">
    <!-- Generator: Sketch 63.1 (92452) - https://sketch.com -->
    <title>cup</title>
    <desc>Created with Sketch.</desc>
    <g id="cup" stroke="none" stroke-width="1" fill="none" fill-rule="evenodd">
        <path d="M55.4,8.6 L47.6,8.6 L47.6,6 L16.4,6 L16.4,8.6 L8.6,8.6 C7.04,8.6 6,9.64 6,11.2 L6,17.44 C6,23.42 10.42,28.36 16.4,29.14 L16.4,29.4 C16.4,36.94 21.6,43.18 28.62,44.74 L26.8,50.2 L20.82,50.2 C19.78,50.2 18.74,50.98 18.48,52.02 L16.4,58 L47.6,58 L45.52,52.02 C45.26,50.98 44.22,50.2 43.18,50.2 L37.2,50.2 L35.38,44.74 C42.4,43.18 47.6,36.94 47.6,29.4 L47.6,29.14 C53.58,28.36 58,23.42 58,17.44 L58,11.2 C58,9.64 56.96,8.6 55.4,8.6 Z M16.4,23.94 C13.54,23.16 11.2,20.56 11.2,17.44 L11.2,13.8 L16.4,13.8 L16.4,23.94 Z M37.2,32 L32,29.14 L26.8,32 L28.1,26.8 L24.2,21.6 L29.66,21.6 L32,16.4 L34.34,21.6 L39.8,21.6 L35.9,26.8 L37.2,32 Z M52.8,17.44 C52.8,20.56 50.46,23.42 47.6,23.94 L47.6,13.8 L52.8,13.8 L52.8,17.44 Z" id="Shape" fill="#000000" fill-rule="nonzero"></path>
    </g>
</svg>