<?xml version="1.0" encoding="UTF-8"?>
<svg width="64px" height="64px" viewBox="0 0 64 64" version="1.1" xmlns="http://www.w3.org/2000/svg" xmlns:xlink="http://www.w3.org/1999/xlink">
    <!-- Generator: Sketch 52.6 (67491) - http://www.bohemiancoding.com/sketch -->
    <title>currency-pound</title>
    <desc>Created with Sketch.</desc>
    <g id="currency-pound" stroke="none" stroke-width="1" fill="none" fill-rule="evenodd">
        <g id="icon-currency-pound" transform="translate(10.000000, 6.000000)" fill="#000000">
            <path d="M19.1872146,20.6589147 C21.6986301,20.6589147 23.8082192,20.6589147 25.8173516,20.6589147 C28.1278539,20.6589147 28.7305936,21.3643411 28.7305936,23.7829457 C28.7305936,24.2868217 28.7305936,24.7906977 28.7305936,25.2945736 C28.7305936,27.8139535 27.9269406,28.620155 25.6164384,28.620155 C23.5068493,28.620155 21.4977169,28.620155 19.3881279,28.620155 C19.3881279,33.5581395 19.3881279,37.8914729 19.3881279,42.8294574 C23.3059361,42.8294574 36.8675799,42.8294574 39.9817352,42.8294574 C41.7899543,42.8294574 42.5936073,43.6356589 42.5936073,45.4496124 C42.5936073,45.6511628 42.5936073,45.6511628 42.5936073,45.9534884 C42.5936073,52.1007752 42.5936073,51.8992248 36.8675799,51.8992248 C26.6210046,51.8992248 16.0730594,51.8992248 5.82648402,51.8992248 C2.71232877,51.8992248 1.9086758,51.0930233 1.9086758,47.9689922 C1.9086758,47.7674419 1.9086758,47.4651163 1.9086758,47.4651163 C1.9086758,43.3333333 1.9086758,43.1317829 6.32876712,42.8294574 C6.32876712,38.1937984 6.32876712,33.5581395 6.32876712,28.620155 C5.02283105,28.620155 3.71689498,28.620155 2.71232877,28.620155 C0.904109589,28.620155 0.100456621,27.8139535 0.100456621,26.1007752 C-0.100456621,20.6589147 -0.100456621,20.6589147 5.02283105,20.6589147 C5.52511416,20.6589147 5.82648402,20.6589147 6.32876712,20.6589147 C6.52968037,18.8449612 6.52968037,17.0310078 6.52968037,15.2170543 C7.13242009,9.06976744 10.4474886,5.13953488 15.5707763,2.62015504 C22.803653,-1.00775194 30.2374429,-0.503875969 37.4703196,2.31782946 C41.5890411,4.13178295 43.0958904,7.75968992 43.8995434,11.8914729 C44.1004566,13.4031008 43.2968037,14.2093023 41.7899543,14.2093023 C38.9771689,14.2093023 36.1643836,14.4108527 33.0502283,14.2093023 C32.2465753,14.2093023 31.2420091,13.2015504 30.739726,12.3953488 C29.2328767,9.27131783 27.6255708,7.96124031 25.1141553,8.26356589 C22,8.46511628 19.9908676,10.2790698 19.1872146,13.4031008 C19.3881279,14.2093023 19.1872146,14.9147287 19.1872146,15.5193798 C19.1872146,17.3333333 19.1872146,18.8449612 19.1872146,20.6589147 Z" id="Path"></path>
        </g>
    </g>
</svg>