<?xml version="1.0" encoding="UTF-8"?>
<svg width="64px" height="64px" viewBox="0 0 64 64" version="1.1" xmlns="http://www.w3.org/2000/svg" xmlns:xlink="http://www.w3.org/1999/xlink">
    <!-- Generator: Sketch 52.6 (67491) - http://www.bohemiancoding.com/sketch -->
    <title>currency-euro</title>
    <desc>Created with Sketch.</desc>
    <g id="currency-euro" stroke="none" stroke-width="1" fill="none" fill-rule="evenodd">
        <g id="icon-currency-euro" transform="translate(13.000000, 6.000000)" fill="#000000">
            <path d="M25.5026738,8.87058824 C22.657754,8.87058824 20.3208556,9.68627451 18.4919786,11.2156863 C16.6631016,12.8470588 15.342246,15.1921569 14.8342246,18.3529412 L28.855615,18.3529412 L28.855615,24.2666667 L14.5294118,24.2666667 L14.5294118,28.4470588 L26.8235294,28.4470588 L26.8235294,34.7686275 L15.1390374,34.7686275 C16.3582888,40.4784314 20.0160428,43.1294118 26.315508,43.1294118 C29.6684492,43.1294118 32.8181818,42.3137255 35.8663102,40.9882353 L35.8663102,49.8588235 C33.3262032,51.1843137 29.973262,52 25.8074866,52 C20.0160428,52 15.342246,50.3686275 11.684492,47.3098039 C8.02673797,44.1490196 5.68983957,39.9686275 4.67379679,34.4627451 L0,34.4627451 L0,28.2431373 L4.1657754,28.2431373 C4.1657754,27.7333333 4.1657754,24.2666667 4.1657754,24.2666667 L0,24.2666667 L0,18.3529412 L4.67379679,18.3529412 C5.48663102,12.5411765 7.82352941,8.15686275 11.684492,4.99607843 C15.342246,1.63137255 20.0160428,0 25.8074866,0 C30.1764706,0 34.0374332,1.12156863 38,2.95686275 L34.6470588,11.0117647 C33.0213904,10.1960784 31.4973262,9.68627451 30.1764706,9.48235294 C28.6524064,9.17647059 27.026738,8.87058824 25.5026738,8.87058824" id="Path"></path>
        </g>
    </g>
</svg>