<?xml version="1.0" encoding="UTF-8"?>
<svg width="64px" height="64px" viewBox="0 0 64 64" version="1.1" xmlns="http://www.w3.org/2000/svg" xmlns:xlink="http://www.w3.org/1999/xlink">
    <!-- Generator: Sketch 52.6 (67491) - http://www.bohemiancoding.com/sketch -->
    <title>currency-dollar</title>
    <desc>Created with Sketch.</desc>
    <g id="currency-dollar" stroke="none" stroke-width="1" fill="none" fill-rule="evenodd">
        <g id="icon-currency-dollar" transform="translate(15.000000, 6.000000)" fill="#000000">
            <path d="M19.7386018,47.328125 C19.4285714,48.6484375 19.118541,50.4765625 18.9118541,51.6953125 C18.9118541,52 17.5683891,52 17.0516717,52 C12.8145897,52 15.7082067,48.6484375 14.1580547,46.8203125 C12.8145897,46.515625 10.9544073,46.3125 9.09422492,45.8046875 C4.1337386,44.6875 1.44680851,41.3359375 0.103343465,36.6640625 C-0.103343465,35.140625 0.41337386,34.0234375 2.27355623,34.0234375 C3.30699088,34.0234375 4.34042553,34.0234375 5.37386018,34.0234375 C8.06079027,33.8203125 9.61094225,34.53125 10.9544073,37.171875 C12.5045593,40.3203125 17.0516717,41.3359375 20.2553191,39.8125 C22.8389058,38.4921875 23.6656535,35.34375 21.5987842,33.0078125 C19.9452888,30.9765625 17.8784195,30.671875 15.7082067,29.859375 C12.5045593,28.640625 9.40425532,28.03125 6.5106383,26.8125 C-0.930091185,23.359375 -1.96352584,14.3203125 4.1337386,9.34375 C6.5106383,7.515625 9.61094225,6.5 12.5045593,5.1796875 C13.1246201,4.9765625 13.8480243,4.9765625 14.3647416,4.9765625 C15.1914894,0 15.1914894,0 17.5683891,0 C21.2887538,0.3046875 18.6018237,3.1484375 19.9452888,4.671875 C21.5987842,5.1796875 23.3556231,5.484375 25.2158055,5.9921875 C29.2462006,7.3125 31.6231003,9.8515625 32.656535,14.015625 C32.9665653,15.640625 32.656535,16.859375 30.5896657,16.859375 C28.4194529,16.859375 26.3525836,16.859375 24.1823708,16.859375 C22.6322188,16.859375 22.1155015,15.640625 21.5987842,14.3203125 C20.7720365,12.1875 19.118541,10.96875 16.7416413,10.96875 C14.674772,10.96875 12.5045593,11.6796875 11.4711246,13.8125 C10.7477204,16.3515625 11.4711246,18.1796875 13.8480243,19.5 C16.224924,20.515625 18.9118541,21.328125 21.5987842,22.140625 C23.6656535,22.6484375 25.7325228,23.359375 27.5927052,24.171875 C31.8297872,26 34,29.3515625 34,33.515625 C34,38.1875 32.1398176,41.84375 27.9027356,43.9765625 C25.5258359,45.5 22.6322188,46.0078125 19.7386018,47.328125 Z" id="Path"></path>
        </g>
    </g>
</svg>