<?xml version="1.0" encoding="UTF-8"?>
<svg width="64px" height="64px" viewBox="0 0 64 64" version="1.1" xmlns="http://www.w3.org/2000/svg" xmlns:xlink="http://www.w3.org/1999/xlink">
    <!-- Generator: Sketch 52.6 (67491) - http://www.bohemiancoding.com/sketch -->
    <title>defect-important</title>
    <desc>Created with Sketch.</desc>
    <g id="defect-important" stroke="none" stroke-width="1" fill="none" fill-rule="evenodd">
        <g id="icon-defect-important" transform="translate(6.000000, 7.000000)" fill="#000000" fill-rule="nonzero">
            <path d="M22.0948617,13.1541502 L22.8142292,29.9051383 L29.1857708,29.9051383 L29.9051383,13.1541502 L22.0948617,13.1541502 Z M22.8142292,32.2687747 L29.1857708,32.2687747 L29.1857708,38.8458498 L22.8142292,38.8458498 L22.8142292,32.2687747 Z M14.3873518,9.14624506 C16.7509881,7.60474308 19.1146245,6.5770751 22.0948617,5.96047431 L22.0948617,0 C17.8814229,0.719367589 13.6679842,2.36363636 10.173913,4.93280632 L14.3873518,9.14624506 Z M5.96047431,22.3003953 C6.5770751,19.4229249 7.60474308,17.0592885 9.14624506,14.6956522 L4.93280632,10.4822134 C2.36363636,13.8735178 0.719367589,17.8814229 0,22.3003953 L5.96047431,22.3003953 Z M29.6996047,0 L29.6996047,5.96047431 C32.5770751,6.5770751 35.2490119,7.60474308 37.3043478,9.14624506 L41.826087,4.93280632 C38.3320158,2.36363636 34.1185771,0.719367589 29.6996047,0 Z M9.14624506,37.6126482 C7.60474308,35.2490119 6.5770751,32.8853755 5.96047431,29.9051383 L0,29.9051383 C0.719367589,34.1185771 2.36363636,38.3320158 4.93280632,41.826087 L9.14624506,37.6126482 Z M42.8537549,14.3873518 C44.3952569,16.7509881 45.4229249,19.4229249 46.0395257,22.0948617 L52,22.0948617 C51.2806324,17.8814229 49.6363636,13.6679842 47.0671937,10.173913 L42.8537549,14.3873518 Z M46.0395257,29.9051383 C45.4229249,32.8853755 44.3952569,35.4545455 42.8537549,37.6126482 L47.0671937,41.826087 C49.6363636,38.3320158 51.2806324,34.4268775 52,29.9051383 L46.0395257,29.9051383 Z M22.0948617,46.0395257 C19.1146245,45.4229249 16.7509881,44.3952569 14.3873518,42.8537549 L10.173913,47.0671937 C13.6679842,49.6363636 17.5731225,51.2806324 22.0948617,52 L22.0948617,46.0395257 Z M37.3043478,42.8537549 C34.9407115,44.3952569 32.5770751,45.4229249 29.6996047,46.0395257 L29.6996047,52 C34.1185771,51.486166 38.1264822,49.6363636 41.5177866,47.0671937 L37.3043478,42.8537549 Z" id="Shape"></path>
        </g>
    </g>
</svg>