<?xml version="1.0" encoding="UTF-8"?>
<svg width="64px" height="64px" viewBox="0 0 64 64" version="1.1" xmlns="http://www.w3.org/2000/svg" xmlns:xlink="http://www.w3.org/1999/xlink">
    <!-- Generator: Sketch 52.6 (67491) - http://www.bohemiancoding.com/sketch -->
    <title>defect-fire</title>
    <desc>Created with Sketch.</desc>
    <g id="defect-fire" stroke="none" stroke-width="1" fill="none" fill-rule="evenodd">
        <g id="icon-defect-fire" transform="translate(6.000000, 7.000000)" fill="#000000" fill-rule="nonzero">
            <path d="M14.3873518,9.14624506 C16.7509881,7.60474308 19.1146245,6.5770751 22.0948617,5.96047431 L22.0948617,0 C17.8814229,0.719367589 13.6679842,2.36363636 10.173913,4.93280632 L14.3873518,9.14624506 Z M5.96047431,22.3003953 C6.5770751,19.4229249 7.60474308,17.0592885 9.14624506,14.6956522 L4.93280632,10.4822134 C2.36363636,13.8735178 0.719367589,17.8814229 0,22.3003953 L5.96047431,22.3003953 Z M29.6996047,0 L29.6996047,5.96047431 C32.5770751,6.5770751 35.2490119,7.60474308 37.3043478,9.14624506 L41.826087,4.93280632 C38.3320158,2.36363636 34.1185771,0.719367589 29.6996047,0 Z M9.14624506,37.6126482 C7.60474308,35.2490119 6.5770751,32.8853755 5.96047431,29.9051383 L0,29.9051383 C0.719367589,34.1185771 2.36363636,38.3320158 4.93280632,41.826087 L9.14624506,37.6126482 Z M42.8537549,14.3873518 C44.3952569,16.7509881 45.4229249,19.4229249 46.0395257,22.0948617 L52,22.0948617 C51.2806324,17.8814229 49.6363636,13.6679842 47.0671937,10.173913 L42.8537549,14.3873518 Z M46.0395257,29.9051383 C45.4229249,32.8853755 44.3952569,35.4545455 42.8537549,37.6126482 L47.0671937,41.826087 C49.6363636,38.3320158 51.2806324,34.4268775 52,29.9051383 L46.0395257,29.9051383 Z M22.0948617,46.0395257 C19.1146245,45.4229249 16.7509881,44.3952569 14.3873518,42.8537549 L10.173913,47.0671937 C13.6679842,49.6363636 17.5731225,51.2806324 22.0948617,52 L22.0948617,46.0395257 Z M37.3043478,42.8537549 C34.9407115,44.3952569 32.5770751,45.4229249 29.6996047,46.0395257 L29.6996047,52 C34.1185771,51.486166 38.1264822,49.6363636 41.5177866,47.0671937 L37.3043478,42.8537549 Z M18.6007905,24.6640316 C21.2727273,21.2727273 23.3280632,18.0869565 23.6363636,13.8735178 C23.6363636,13.1541502 23.944664,13.1541502 24.458498,13.3596838 C27.3359684,14.9011858 28.8774704,17.5731225 29.9051383,20.4505929 C30.2134387,20.9644269 30.2134387,21.4782609 30.5217391,22.0948617 C31.5494071,20.9644269 31.5494071,20.7588933 31.2411067,17.8814229 C32.0632411,18.6007905 32.8853755,19.4229249 33.3992095,20.2450593 C34.6324111,22.0948617 35.7628458,23.944664 36.2766798,26.3083004 C37.0988142,29.3913043 36.2766798,32.0632411 34.4268775,34.4268775 C33.3992095,35.9683794 31.7549407,37.0988142 29.9051383,38.1264822 C31.7549407,32.0632411 29.9051383,27.3359684 25.486166,23.6363636 C25.486166,26 24.972332,28.3636364 23.3280632,30.5217391 C23.6363636,29.1857708 23.3280632,27.8498024 22.6086957,26.8221344 C22.0948617,29.1857708 20.9644269,30.7272727 19.9367589,32.5770751 C18.9090909,34.4268775 18.9090909,36.2766798 19.9367589,38.3320158 C17.3675889,36.7905138 15.2094862,35.2490119 14.3873518,32.2687747 C13.8735178,30.5217391 14.3873518,28.3636364 15.2094862,26.513834 C15.7233202,25.486166 16.2371542,24.458498 16.7509881,23.1225296 C17.0592885,22.3003953 17.3675889,21.4782609 17.5731225,20.4505929 C18.6007905,22.0948617 18.3952569,23.3280632 18.6007905,24.6640316 Z" id="Shape"></path>
        </g>
    </g>
</svg>