<?xml version="1.0" encoding="UTF-8"?>
<svg width="64px" height="64px" viewBox="0 0 64 64" version="1.1" xmlns="http://www.w3.org/2000/svg" xmlns:xlink="http://www.w3.org/1999/xlink">
    <!-- Generator: Sketch 52.6 (67491) - http://www.bohemiancoding.com/sketch -->
    <title>disabled</title>
    <desc>Created with Sketch.</desc>
    <g id="disabled" stroke="none" stroke-width="1" fill="none" fill-rule="evenodd">
        <g id="icon-disabled" transform="translate(6.000000, 6.000000)" fill="#000000" fill-rule="nonzero">
            <path d="M26,0 C11.6796875,0 0,11.6796875 0,26 C0,40.3203125 11.6796875,52 26,52 C40.3203125,52 52,40.3203125 52,26 C52,11.6796875 40.3203125,0 26,0 Z M45.8046875,26 C45.8046875,30.1640625 44.484375,33.8203125 42.3515625,36.96875 L15.03125,9.6484375 C18.1796875,7.515625 21.8359375,6.1953125 26,6.1953125 C36.96875,6.1953125 45.8046875,15.03125 45.8046875,26 Z M6.1953125,26 C6.1953125,21.8359375 7.515625,17.9765625 9.6484375,14.828125 L37.171875,42.1484375 C34.0234375,44.1796875 30.1640625,45.5 26,45.5 C15.03125,45.8046875 6.1953125,36.96875 6.1953125,26 Z" id="Shape"></path>
        </g>
    </g>
</svg>