<?xml version="1.0" encoding="UTF-8"?>
<svg width="64px" height="64px" viewBox="0 0 64 64" version="1.1" xmlns="http://www.w3.org/2000/svg" xmlns:xlink="http://www.w3.org/1999/xlink">
    <!-- Generator: Sketch 52.6 (67491) - http://www.bohemiancoding.com/sketch -->
    <title>display-row</title>
    <desc>Created with Sketch.</desc>
    <g id="display-row" stroke="none" stroke-width="1" fill="none" fill-rule="evenodd">
        <g id="icon-display-row" transform="translate(6.000000, 6.000000)" fill="#000000" fill-rule="nonzero">
            <path d="M50.3512195,0 L1.64878049,0 C1.01463415,0 0,0.634146341 0,1.64878049 L0,11.4146341 C0,12.302439 1.01463415,13.0634146 1.64878049,13.0634146 L50.3512195,13.0634146 C51.3658537,13.0634146 52,12.302439 52,11.4146341 L52,1.64878049 C52,0.634146341 51.3658537,0 50.3512195,0 Z M50.3512195,19.5317073 L1.64878049,19.5317073 C1.01463415,19.5317073 0,20.1658537 0,21.1804878 L0,30.8195122 C0,31.8341463 1.01463415,32.4682927 1.64878049,32.4682927 L50.3512195,32.4682927 C51.3658537,32.4682927 52,31.8341463 52,30.8195122 L52,21.1804878 C52,20.1658537 51.3658537,19.5317073 50.3512195,19.5317073 Z M50.3512195,38.9365854 L1.64878049,38.9365854 C0.634146341,38.9365854 0,39.697561 0,40.5853659 L0,50.3512195 C0,51.3658537 1.01463415,52 1.64878049,52 L50.3512195,52 C51.3658537,52 52,51.3658537 52,50.3512195 L52,40.5853659 C52,39.697561 51.3658537,38.9365854 50.3512195,38.9365854 Z" id="Shape"></path>
        </g>
    </g>
</svg>