<?xml version="1.0" encoding="UTF-8"?>
<svg width="64px" height="64px" viewBox="0 0 64 64" version="1.1" xmlns="http://www.w3.org/2000/svg" xmlns:xlink="http://www.w3.org/1999/xlink">
    <!-- Generator: Sketch 52.6 (67491) - http://www.bohemiancoding.com/sketch -->
    <title>display-list</title>
    <desc>Created with Sketch.</desc>
    <g id="display-list" stroke="none" stroke-width="1" fill="none" fill-rule="evenodd">
        <g id="icon-display-list" transform="translate(6.000000, 6.000000)" fill="#000000" fill-rule="nonzero">
            <path d="M11.4146341,0 L1.64878049,0 C0.76097561,0 0,0.634146341 0,1.64878049 L0,11.4146341 C0,12.302439 0.76097561,13.0634146 1.64878049,13.0634146 L11.4146341,13.0634146 C12.4292683,13.0634146 13.0634146,12.302439 13.0634146,11.4146341 L13.0634146,1.64878049 C13.0634146,0.634146341 12.4292683,0 11.4146341,0 Z M11.4146341,19.5317073 L1.64878049,19.5317073 C0.76097561,19.5317073 0,20.1658537 0,21.1804878 L0,30.8195122 C0,31.8341463 0.76097561,32.4682927 1.64878049,32.4682927 L11.4146341,32.4682927 C12.4292683,32.4682927 13.0634146,31.8341463 13.0634146,30.8195122 L13.0634146,21.1804878 C13.0634146,20.1658537 12.4292683,19.5317073 11.4146341,19.5317073 Z M11.4146341,38.9365854 L1.64878049,38.9365854 C0.76097561,38.9365854 0,39.697561 0,40.5853659 L0,50.3512195 C0,51.3658537 0.76097561,52 1.64878049,52 L11.4146341,52 C12.4292683,52 13.0634146,51.3658537 13.0634146,50.3512195 L13.0634146,40.5853659 C13.0634146,39.697561 12.4292683,38.9365854 11.4146341,38.9365854 Z M50.3512195,0 L21.1804878,0 C20.1658537,0 19.5317073,0.634146341 19.5317073,1.64878049 L19.5317073,11.4146341 C19.5317073,12.302439 20.1658537,13.0634146 21.1804878,13.0634146 L50.3512195,13.0634146 C51.3658537,13.0634146 52,12.302439 52,11.4146341 L52,1.64878049 C52,0.634146341 51.3658537,0 50.3512195,0 Z M50.3512195,19.5317073 L21.1804878,19.5317073 C20.1658537,19.5317073 19.5317073,20.1658537 19.5317073,21.1804878 L19.5317073,30.8195122 C19.5317073,31.8341463 20.1658537,32.4682927 21.1804878,32.4682927 L50.3512195,32.4682927 C51.3658537,32.4682927 52,31.8341463 52,30.8195122 L52,21.1804878 C52,20.1658537 51.3658537,19.5317073 50.3512195,19.5317073 Z M50.3512195,38.9365854 L21.1804878,38.9365854 C20.1658537,38.9365854 19.5317073,39.697561 19.5317073,40.5853659 L19.5317073,50.3512195 C19.5317073,51.3658537 20.1658537,52 21.1804878,52 L50.3512195,52 C51.3658537,52 52,51.3658537 52,50.3512195 L52,40.5853659 C52,39.697561 51.3658537,38.9365854 50.3512195,38.9365854 Z" id="Shape"></path>
        </g>
    </g>
</svg>