<?xml version="1.0" encoding="UTF-8"?>
<svg width="64px" height="64px" viewBox="0 0 64 64" version="1.1" xmlns="http://www.w3.org/2000/svg" xmlns:xlink="http://www.w3.org/1999/xlink">
    <!-- Generator: Sketch 52.6 (67491) - http://www.bohemiancoding.com/sketch -->
    <title>display-icons</title>
    <desc>Created with Sketch.</desc>
    <g id="display-icons" stroke="none" stroke-width="1" fill="none" fill-rule="evenodd">
        <g id="icon-display-icons" transform="translate(6.000000, 6.000000)" fill="#000000" fill-rule="nonzero">
            <path d="M11.3154034,0 L1.52567237,0 C0.88997555,0 0,0.634146341 0,1.64878049 L0,11.4146341 C0,12.302439 0.88997555,13.0634146 1.52567237,13.0634146 L11.3154034,13.0634146 C12.3325183,13.0634146 12.9682152,12.302439 12.9682152,11.4146341 L12.9682152,1.64878049 C12.9682152,0.634146341 12.3325183,0 11.3154034,0 Z M11.3154034,19.5317073 L1.52567237,19.5317073 C0.88997555,19.5317073 0,20.1658537 0,21.1804878 L0,30.8195122 C0,31.8341463 0.88997555,32.4682927 1.52567237,32.4682927 L11.3154034,32.4682927 C12.3325183,32.4682927 12.9682152,31.8341463 12.9682152,30.8195122 L12.9682152,21.1804878 C12.9682152,20.1658537 12.3325183,19.5317073 11.3154034,19.5317073 Z M11.3154034,38.9365854 L1.52567237,38.9365854 C0.635696822,38.9365854 0,39.697561 0,40.5853659 L0,50.3512195 C0,51.3658537 0.88997555,52 1.52567237,52 L11.3154034,52 C12.3325183,52 12.9682152,51.3658537 12.9682152,50.3512195 L12.9682152,40.5853659 C12.9682152,39.697561 12.3325183,38.9365854 11.3154034,38.9365854 Z M30.8948655,0 L21.1051345,0 C20.4694377,0 19.4523227,0.634146341 19.4523227,1.64878049 L19.4523227,11.4146341 C19.4523227,12.302439 20.4694377,13.0634146 21.1051345,13.0634146 L30.8948655,13.0634146 C31.7848411,13.0634146 32.5476773,12.302439 32.5476773,11.4146341 L32.5476773,1.64878049 C32.5476773,0.634146341 31.7848411,0 30.8948655,0 Z M30.8948655,19.5317073 L21.1051345,19.5317073 C20.4694377,19.5317073 19.4523227,20.1658537 19.4523227,21.1804878 L19.4523227,30.8195122 C19.4523227,31.8341463 20.4694377,32.4682927 21.1051345,32.4682927 L30.8948655,32.4682927 C31.7848411,32.4682927 32.5476773,31.8341463 32.5476773,30.8195122 L32.5476773,21.1804878 C32.5476773,20.1658537 31.7848411,19.5317073 30.8948655,19.5317073 Z M30.8948655,38.9365854 L21.1051345,38.9365854 C20.0880196,38.9365854 19.4523227,39.697561 19.4523227,40.5853659 L19.4523227,50.3512195 C19.4523227,51.3658537 20.4694377,52 21.1051345,52 L30.8948655,52 C31.7848411,52 32.5476773,51.3658537 32.5476773,50.3512195 L32.5476773,40.5853659 C32.5476773,39.697561 31.7848411,38.9365854 30.8948655,38.9365854 Z M50.3471883,0 L40.6845966,0 C39.6674817,0 39.0317848,0.634146341 39.0317848,1.64878049 L39.0317848,11.4146341 C39.0317848,12.302439 39.9217604,13.0634146 40.6845966,13.0634146 L50.3471883,13.0634146 C51.3643032,13.0634146 52,12.302439 52,11.4146341 L52,1.64878049 C52,0.634146341 51.3643032,0 50.3471883,0 Z M50.3471883,19.5317073 L40.6845966,19.5317073 C39.6674817,19.5317073 39.0317848,20.1658537 39.0317848,21.1804878 L39.0317848,30.8195122 C39.0317848,31.8341463 39.6674817,32.4682927 40.6845966,32.4682927 L50.3471883,32.4682927 C51.3643032,32.4682927 52,31.8341463 52,30.8195122 L52,21.1804878 C52,20.1658537 51.3643032,19.5317073 50.3471883,19.5317073 Z M50.3471883,38.9365854 L40.6845966,38.9365854 C39.6674817,38.9365854 39.0317848,39.697561 39.0317848,40.5853659 L39.0317848,50.3512195 C39.0317848,51.3658537 39.6674817,52 40.6845966,52 L50.3471883,52 C51.3643032,52 52,51.3658537 52,50.3512195 L52,40.5853659 C52,39.697561 51.3643032,38.9365854 50.3471883,38.9365854 Z" id="Shape"></path>
        </g>
    </g>
</svg>