<?xml version="1.0" encoding="UTF-8"?>
<svg width="64px" height="64px" viewBox="0 0 64 64" version="1.1" xmlns="http://www.w3.org/2000/svg" xmlns:xlink="http://www.w3.org/1999/xlink">
    <!-- Generator: Sketch 52.6 (67491) - http://www.bohemiancoding.com/sketch -->
    <title>display-grid</title>
    <desc>Created with Sketch.</desc>
    <g id="display-grid" stroke="none" stroke-width="1" fill="none" fill-rule="evenodd">
        <g id="icon-display-grid" transform="translate(6.000000, 6.000000)" fill="#000000" fill-rule="nonzero">
            <path d="M21.1051345,0 L1.52567237,0 C0.88997555,0 0,0.634146341 0,1.64878049 L0,21.1804878 C0,22.0682927 0.88997555,22.702439 1.52567237,22.702439 L21.1051345,22.702439 C22.1222494,22.702439 22.7579462,22.0682927 22.7579462,21.1804878 L22.7579462,1.64878049 C22.7579462,0.634146341 22.1222494,0 21.1051345,0 Z M50.3471883,0 L30.8948655,0 C29.8777506,0 29.2420538,0.634146341 29.2420538,1.64878049 L29.2420538,21.1804878 C29.2420538,22.0682927 30.2591687,22.702439 30.8948655,22.702439 L50.3471883,22.702439 C51.3643032,22.702439 52,22.0682927 52,21.1804878 L52,1.64878049 C52,0.634146341 51.3643032,0 50.3471883,0 Z M21.1051345,29.297561 L1.52567237,29.297561 C0.635696822,29.297561 0,29.9317073 0,30.8195122 L0,50.3512195 C0,51.3658537 0.88997555,52 1.52567237,52 L21.1051345,52 C22.1222494,52 22.7579462,51.3658537 22.7579462,50.3512195 L22.7579462,30.8195122 C22.7579462,29.9317073 22.1222494,29.297561 21.1051345,29.297561 Z M50.3471883,29.297561 L30.8948655,29.297561 C29.8777506,29.297561 29.2420538,29.9317073 29.2420538,30.8195122 L29.2420538,50.3512195 C29.2420538,51.3658537 29.8777506,52 30.8948655,52 L50.3471883,52 C51.3643032,52 52,51.3658537 52,50.3512195 L52,30.8195122 C52,29.9317073 51.3643032,29.297561 50.3471883,29.297561 Z" id="Shape"></path>
        </g>
    </g>
</svg>