<?xml version="1.0" encoding="UTF-8"?>
<svg width="64px" height="64px" viewBox="0 0 64 64" version="1.1" xmlns="http://www.w3.org/2000/svg" xmlns:xlink="http://www.w3.org/1999/xlink">
    <!-- Generator: Sketch 52.6 (67491) - http://www.bohemiancoding.com/sketch -->
    <title>drainage-drain</title>
    <desc>Created with Sketch.</desc>
    <g id="drainage-drain" stroke="none" stroke-width="1" fill="none" fill-rule="evenodd">
        <g id="icon-drainage-drain" transform="translate(6.000000, 7.000000)" fill="#000000" fill-rule="nonzero">
            <path d="M26,0 C11.6796875,0 0,11.6796875 0,26 C0,40.3203125 11.6796875,52 26,52 C40.3203125,52 52,40.3203125 52,26 C52,11.6796875 40.3203125,0 26,0 Z M26,47.53125 C14.015625,47.53125 4.46875,37.984375 4.46875,26 C4.46875,14.015625 14.015625,4.46875 26,4.46875 C37.984375,4.46875 47.53125,14.015625 47.53125,26 C47.53125,37.984375 37.984375,47.53125 26,47.53125 Z M31.484375,6.8046875 C30.46875,6.5 29.859375,6.5 29.65625,7.8203125 C29.1484375,9.34375 27.828125,10.15625 26,10.15625 C24.4765625,10.15625 23.15625,9.34375 22.6484375,7.8203125 C22.140625,6.1953125 21.53125,6.5 20.515625,6.8046875 C11.984375,9.140625 5.9921875,17.1640625 5.9921875,26.3046875 C6.1953125,35.34375 12.1875,43.1640625 20.8203125,45.1953125 C21.53125,45.5 22.140625,45.8046875 22.34375,44.484375 C22.8515625,42.859375 24.171875,42.1484375 26,42.1484375 C27.828125,42.1484375 29.1484375,42.859375 29.65625,44.484375 C30.1640625,45.5 30.46875,45.5 31.484375,45.1953125 C40.015625,42.859375 46.0078125,35.140625 46.0078125,26 C46.0078125,17.1640625 40.015625,9.140625 31.484375,6.8046875 Z M22.140625,35.8515625 L14.015625,35.8515625 C13,34.53125 12.1875,33.3125 11.6796875,31.9921875 L22.140625,31.9921875 C23.15625,31.9921875 24.171875,32.8046875 24.171875,34.0234375 C23.96875,35.140625 23.15625,35.8515625 22.140625,35.8515625 Z M22.140625,28.03125 L10.6640625,28.03125 C10.6640625,27.5234375 10.6640625,26.8125 10.6640625,26.3046875 C10.6640625,25.4921875 10.6640625,24.984375 10.96875,24.171875 L22.34375,24.171875 C23.359375,24.171875 24.4765625,24.984375 24.4765625,26.3046875 C23.96875,27.015625 23.15625,28.03125 22.140625,28.03125 Z M22.140625,20.0078125 L11.6796875,20.0078125 C12.1875,18.484375 13.3046875,17.1640625 14.015625,16.1484375 L21.8359375,16.1484375 C22.8515625,16.1484375 23.96875,16.859375 23.96875,18.1796875 C23.96875,19.5 23.15625,20.0078125 22.140625,20.0078125 Z M29.859375,16.1484375 L37.6796875,16.1484375 C38.6953125,17.46875 39.5078125,18.6875 40.015625,20.0078125 L29.65625,20.0078125 C28.640625,20.0078125 27.5234375,19.1953125 27.5234375,17.9765625 C27.5234375,16.65625 28.84375,16.1484375 29.859375,16.1484375 Z M37.984375,35.8515625 L29.859375,35.8515625 C28.84375,35.8515625 27.828125,35.140625 27.828125,33.8203125 C27.828125,32.8046875 28.640625,31.6875 29.859375,31.6875 L40.3203125,31.6875 C39.8125,33.515625 39,34.8359375 37.984375,35.8515625 Z M29.859375,28.03125 C28.84375,28.03125 27.828125,27.3203125 27.828125,26 C27.828125,24.984375 28.640625,23.96875 29.859375,23.96875 L41.3359375,23.96875 C41.3359375,24.6796875 41.640625,25.1875 41.640625,26 C41.640625,26.5078125 41.640625,27.3203125 41.640625,27.828125 L29.859375,27.828125 L29.859375,28.03125 Z" id="Shape"></path>
        </g>
    </g>
</svg>