<?xml version="1.0" encoding="UTF-8"?>
<svg width="64px" height="64px" viewBox="0 0 64 64" version="1.1" xmlns="http://www.w3.org/2000/svg" xmlns:xlink="http://www.w3.org/1999/xlink">
    <!-- Generator: Sketch 52.6 (67491) - http://www.bohemiancoding.com/sketch -->
    <title>drainage-culvert-outfall</title>
    <desc>Created with Sketch.</desc>
    <g id="drainage-culvert-outfall" stroke="none" stroke-width="1" fill="none" fill-rule="evenodd">
        <path d="M28.6427685,44.9292515 L28.6430307,44.9376211 C28.6967748,44.8983985 28.7500446,44.8583575 28.8048223,44.8204686 C28.7514345,44.8577682 28.6974129,44.8940315 28.6427685,44.9292515 Z M28.7075693,47.5303982 C28.7468193,48.9535177 28.7796174,49.337951 28.8038296,50.6432183 C28.8255571,51.8145349 28.8398821,52.897893 28.8458125,53.8757288 C28.8489584,54.4053385 28.8499008,54.6115394 28.8499008,54.8831881 C28.8499008,57.0422775 26.7892246,58.2595547 24.493158,57.9531894 C22.1611786,57.6420322 20.3001252,55.9091433 19.9819367,53.282652 C19.9409926,52.9433282 19.4228713,52.6807387 18.1780863,52.513175 C18.0245534,52.4925076 17.8619664,52.4733071 17.6690509,52.4526059 C17.5462776,52.4394314 17.4118642,52.4256954 17.1563893,52.3997085 C16.4948299,52.3315605 16.1529922,52.2826804 15.8217548,52.1891662 C15.1142478,51.9894244 14.6043523,51.5898071 14.6059023,50.8165569 C14.6059023,50.2681266 14.6059642,49.5320607 14.6061567,48.7829803 C14.6064876,47.4952663 14.6070231,47.7873044 14.6080503,47.7338826 L14.7370716,38.7171323 C11.870386,34.8282671 9.98797648,29.9604178 10.0000578,25.6900185 C10.0102336,22.2791316 11.2241991,19.8828691 13.1759058,18.7594622 C13.1698003,18.7635288 13.1626773,18.7655622 13.1565719,18.7686121 L22.1295379,13.8469717 C24.0954906,12.7062816 26.8144479,12.8638636 29.8091677,14.5911652 C35.7680801,18.0284852 40.5954504,26.3884624 40.5761165,33.2295529 C40.5659407,36.6262066 39.3611333,39.0184025 37.42062,40.145876 L28.6437463,44.9605064 C28.6655634,45.6578572 28.6870526,46.7865112 28.7075693,47.5303982 Z M15.8466876,36.1724075 L27.5369113,29.2444472 C26.0077317,26.274844 23.718162,23.626533 21.1608077,22.1510327 C16.549163,19.4914558 12.786175,21.6345705 12.7719289,26.9272911 C12.7632659,29.9358473 13.9638058,33.3210182 15.8466876,36.1724075 Z M28.9232253,30.9488778 C29.3375031,31.8772734 29.6398052,32.6189329 29.7625481,33.0261047 C30.1793242,34.4056764 30.3935817,35.7496864 30.3899016,36.9896972 C30.3863289,38.1934942 30.1784973,39.2222578 29.7950275,40.0352941 C29.6585869,40.3243535 29.4996655,40.5858344 29.3194764,40.820116 L30.9332145,42.0590301 C31.2030972,41.708129 31.4378106,41.3219438 31.6358847,40.9023094 C32.1537532,39.8043198 32.4206254,38.4833059 32.4250403,36.9957263 C32.4293454,35.5451465 32.1834975,34.0029745 31.7110557,32.4391442 C31.5556638,31.9236663 31.2308267,31.12672 30.7820109,30.1209249 L28.9232253,30.9488778 Z M38.7007279,6.60612432 C40.3308812,5.65961589 42.5858248,5.78974809 45.0707401,7.22221895 C50.0120787,10.0739441 54.0162317,17.0075504 53.9999505,22.6815177 C53.9918099,25.4986765 52.9925524,27.4842092 51.3837682,28.4185177 L41.5000216,34.7021308 C41.5575213,34.2020351 41.5879728,33.7174371 41.5895157,33.2318712 L41.0807313,33.2302575 L41.5895161,33.2317332 C41.6103973,26.0456725 36.5688131,17.3180036 30.3137559,13.7103992 C29.6272696,13.314177 28.9339165,12.9878684 28.2413755,12.7335314 L38.7007279,6.60612432 Z" fill="#000000" fill-rule="nonzero"></path>
    </g>
</svg>