<?xml version="1.0" encoding="UTF-8"?>
<svg width="64px" height="64px" viewBox="0 0 64 64" version="1.1" xmlns="http://www.w3.org/2000/svg" xmlns:xlink="http://www.w3.org/1999/xlink">
    <!-- Generator: Sketch 52.6 (67491) - http://www.bohemiancoding.com/sketch -->
    <title>drainage-channel</title>
    <desc>Created with Sketch.</desc>
    <g id="drainage-channel" stroke="none" stroke-width="1" fill="none" fill-rule="evenodd">
        <g id="icon-drainage-channel" transform="translate(6.000000, 18.000000)" fill="#000000" fill-rule="nonzero">
            <path d="M0,0 L0,30 L52,30 L52,0 L0,0 Z M8.0234375,23.9361702 L4.1640625,23.9361702 L4.1640625,6.06382979 L8.0234375,6.06382979 L8.0234375,23.9361702 Z M16.1484375,23.9361702 L11.984375,23.9361702 L11.984375,6.06382979 L15.84375,6.06382979 L15.84375,23.9361702 L16.1484375,23.9361702 Z M23.96875,23.9361702 L20.0078125,23.9361702 L20.0078125,5.74468085 L23.96875,5.74468085 L23.96875,23.9361702 Z M31.9921875,23.9361702 L28.03125,23.9361702 L28.03125,6.06382979 L31.9921875,6.06382979 L31.9921875,23.9361702 Z M40.015625,23.9361702 L36.15625,23.9361702 L36.15625,6.06382979 L40.015625,6.06382979 L40.015625,23.9361702 Z M48.140625,23.9361702 L44.1796875,23.9361702 L44.1796875,5.74468085 L48.140625,5.74468085 L48.140625,23.9361702 Z" id="Shape"></path>
        </g>
    </g>
</svg>