<?xml version="1.0" encoding="UTF-8"?>
<svg width="64px" height="64px" viewBox="0 0 64 64" version="1.1" xmlns="http://www.w3.org/2000/svg" xmlns:xlink="http://www.w3.org/1999/xlink">
    <!-- Generator: Sketch 52.6 (67491) - http://www.bohemiancoding.com/sketch -->
    <title>drainage-pipe</title>
    <desc>Created with Sketch.</desc>
    <g id="drainage-pipe" stroke="none" stroke-width="1" fill="none" fill-rule="evenodd">
        <g id="icon-drainage-pipe" transform="translate(16.000000, 7.000000)" fill="#000000" fill-rule="nonzero">
            <path d="M23.6698413,35.7120623 C23.8730159,36.5214008 24.1777778,37.0272374 24.3809524,37.5330739 C25.4984127,39.6575875 26.7174603,41.4785992 28.0380952,43.2996109 C29.3587302,45.0194553 29.3587302,47.3463035 28.0380952,49.4708171 C26.7174603,51.2918288 24.3809524,52.3035019 22.3492063,51.7976654 C20.215873,51.2918288 18.6920635,49.4708171 18.184127,47.3463035 C17.8793651,45.8287938 18.184127,44.5136187 19.2,43.5019455 C20.215873,41.9844358 21.5365079,40.1634241 22.3492063,38.5447471 C22.8571429,37.3307393 23.1619048,36.5214008 23.6698413,35.7120623 Z M32,28.2256809 C32,27.922179 32,27.922179 32,28.2256809 C31.1873016,27.922179 30.6793651,27.922179 30.1714286,27.922179 C29.8666667,27.922179 29.8666667,27.922179 29.8666667,27.7198444 C29.8666667,24.077821 29.8666667,20.233463 29.8666667,16.5914397 C29.8666667,16.0856031 29.8666667,15.2762646 29.8666667,14.770428 C29.3587302,10.92607 27.5301587,7.9922179 24.6857143,5.66536965 C22.0444444,3.64202335 19.2,2.83268482 16.0507937,2.83268482 L3.86031746,2.63035019 C3.65714286,2.63035019 3.65714286,2.63035019 3.65714286,2.32684825 C3.65714286,1.82101167 3.65714286,1.01167315 3.65714286,0.505836576 C3.65714286,0.303501946 3.65714286,0.303501946 3.35238095,0.303501946 C2.33650794,0.303501946 1.52380952,0.303501946 0.507936508,0.303501946 C0.203174603,0.303501946 0.203174603,0 0.203174603,0 L0,0 L0,18.9182879 C1.01587302,18.9182879 2.33650794,18.9182879 3.35238095,18.9182879 C3.65714286,18.9182879 3.65714286,18.9182879 3.65714286,18.614786 C3.65714286,17.9066148 3.65714286,17.4007782 3.65714286,16.5914397 C3.65714286,16.2879377 3.65714286,16.2879377 3.86031746,16.2879377 C7.00952381,16.2879377 10.3619048,16.2879377 13.5111111,16.2879377 C14.831746,16.2879377 16.0507937,17.4007782 16.0507937,18.9182879 C16.0507937,21.7509728 16.0507937,24.8871595 16.0507937,27.7198444 C16.0507937,27.922179 16.0507937,27.922179 15.847619,27.922179 C15.3396825,27.922179 14.831746,27.922179 14.2222222,27.922179 C14.0190476,27.922179 14.0190476,27.922179 14.0190476,28.2256809 C14.0190476,29.2373541 14.0190476,30.5525292 14.0190476,31.5642023 C14.0190476,31.8677043 14.0190476,31.8677043 14.2222222,31.8677043 C17.168254,31.8677043 20.0126984,31.8677043 22.8571429,31.8677043 C25.7015873,31.8677043 28.5460317,31.8677043 31.3904762,31.8677043 C31.6952381,31.8677043 31.6952381,31.8677043 31.6952381,31.5642023 C32,30.5525292 32,29.2373541 32,28.2256809 Z" id="Shape"></path>
        </g>
    </g>
</svg>