<?xml version="1.0" encoding="UTF-8"?>
<svg width="64px" height="64px" viewBox="0 0 64 64" version="1.1" xmlns="http://www.w3.org/2000/svg" xmlns:xlink="http://www.w3.org/1999/xlink">
    <!-- Generator: Sketch 52.6 (67491) - http://www.bohemiancoding.com/sketch -->
    <title>drainage-sewers</title>
    <desc>Created with Sketch.</desc>
    <g id="drainage-sewers" stroke="none" stroke-width="1" fill="none" fill-rule="evenodd">
        <g id="icon-drainage-sewers" transform="translate(6.000000, 10.000000)" fill="#000000" fill-rule="nonzero">
            <path d="M18.6875,17.3526786 C18.6875,17.8660714 19.5,20.4330357 21.8359375,22.0758929 C24.171875,23.9241071 27.3203125,24.1294643 29.859375,22.5892857 C30.671875,22.0758929 31.1796875,21.4598214 31.6875,20.9464286 C32.8046875,19.7142857 33.3125,18.3794643 33.3125,18.3794643 C33.3125,18.3794643 34.0234375,16.53125 33.3125,14.375 C31.9921875,12.5267857 26,0 26,0 C26,0 19.8046875,12.8348214 19.1953125,14.375 C18.484375,16.0178571 18.6875,16.7366071 18.6875,17.3526786 Z M32.1953125,5.95535714 C33.3125,7.80357143 34.0234375,9.95982143 34.8359375,11.8080357 L46.515625,11.8080357 L46.515625,17.5580357 L36.359375,17.5580357 C36.359375,19.7142857 35.6484375,21.4598214 34.328125,23.3080357 L46.3125,23.3080357 L46.3125,29.1607143 L29.1484375,29.1607143 L29.1484375,26.7991071 C27.3203125,27.3125 25.1875,27.3125 23.359375,26.7991071 L23.359375,29.1607143 L5.9921875,29.1607143 L5.9921875,23.1026786 L18.1796875,23.1026786 C16.65625,21.4598214 15.84375,19.7142857 15.84375,17.5580357 L5.6875,17.5580357 L5.6875,11.8080357 L17.1640625,11.8080357 C17.9765625,9.95982143 18.6875,7.80357143 19.8046875,5.95535714 L0,5.95535714 L0,46 L52,46 L52,5.95535714 L32.1953125,5.95535714 Z M23.359375,40.1473214 L5.9921875,40.1473214 L5.9921875,34.3973214 L23.359375,34.3973214 L23.359375,40.1473214 Z M46.3125,40.1473214 L29.1484375,40.1473214 L29.1484375,34.3973214 L46.3125,34.3973214 L46.3125,40.1473214 Z" id="Shape"></path>
        </g>
    </g>
</svg>