<?xml version="1.0" encoding="UTF-8"?>
<svg width="64px" height="64px" viewBox="0 0 64 64" version="1.1" xmlns="http://www.w3.org/2000/svg" xmlns:xlink="http://www.w3.org/1999/xlink">
    <!-- Generator: Sketch 52.6 (67491) - http://www.bohemiancoding.com/sketch -->
    <title>drainage-ditch</title>
    <desc>Created with Sketch.</desc>
    <g id="drainage-ditch" stroke="none" stroke-width="1" fill="none" fill-rule="evenodd">
        <g id="icon-drainage-ditch" transform="translate(6.000000, 21.000000)" fill="#000000" fill-rule="nonzero">
            <path d="M33.233871,16.1454545 L37.5322581,4.14545455 L35.4354839,4.14545455 C35.4354839,4.14545455 34.8064516,3.6 32.1854839,2.50909091 C32.1854839,2.50909091 31.8709677,3.6 30.6129032,4.14545455 C30.2983871,3.92727273 29.7741935,3.38181818 27.5725806,2.50909091 C27.5725806,2.50909091 27.5725806,3.38181818 26.5241935,3.92727273 C26.3145161,3.6 25.4758065,3.05454545 23.9032258,2.50909091 C23.9032258,2.50909091 23.5887097,3.6 22.5403226,3.92727273 C22.016129,3.6 21.3870968,3.38181818 19.6048387,2.50909091 C19.6048387,2.50909091 19.2903226,3.92727273 17.4032258,4.14545455 L14.6774194,4.14545455 L19.8145161,16.1454545 L33.233871,16.1454545 Z M42.1451613,0 L42.1451613,0.327272727 L35.1209677,19.3090909 L17.9274194,19.3090909 L9.85483871,0.327272727 L9.85483871,0 L0,0 L0,4.69090909 L6.91935484,4.69090909 L14.9919355,23.7818182 L37.8467742,23.7818182 L38.0564516,24 L45.2903226,4.69090909 L52,4.69090909 L52,0 L42.1451613,0 Z" id="Shape"></path>
        </g>
    </g>
</svg>