<?xml version="1.0" encoding="UTF-8"?>
<svg width="64px" height="64px" viewBox="0 0 64 64" version="1.1" xmlns="http://www.w3.org/2000/svg" xmlns:xlink="http://www.w3.org/1999/xlink">
    <!-- Generator: Sketch 52.6 (67491) - http://www.bohemiancoding.com/sketch -->
    <title>drainage-catchpit</title>
    <desc>Created with Sketch.</desc>
    <g id="drainage-catchpit" stroke="none" stroke-width="1" fill="none" fill-rule="evenodd">
        <g id="icon-drainage-catchpit" transform="translate(6.000000, 8.000000)" fill="#000000" fill-rule="nonzero">
            <path d="M48.140625,15.2017354 L48.140625,17.9088937 L41.640625,17.9088937 L41.640625,0 L9.6484375,0 L9.6484375,17.9088937 L3.859375,17.9088937 L3.859375,15.2017354 L0,15.2017354 L0,33.6312364 L4.1640625,33.6312364 L4.1640625,30.9240781 L9.6484375,30.9240781 L9.6484375,48 L41.640625,48 L41.640625,30.9240781 L48.140625,30.9240781 L48.140625,33.6312364 L52,33.6312364 L52,15.2017354 L48.140625,15.2017354 Z M36.96875,43.4186551 L14.3203125,43.4186551 L14.3203125,4.5813449 L36.96875,4.5813449 L36.96875,43.4186551 Z M34.53125,29.362256 C34.328125,29.362256 33.8203125,28.8416486 31.1796875,27.6963124 C31.1796875,27.6963124 30.9765625,28.8416486 29.65625,29.362256 C29.3515625,29.0498915 28.84375,28.5292842 26.8125,27.6963124 C26.8125,27.6963124 26.8125,28.5292842 25.6953125,29.0498915 C25.4921875,28.8416486 24.6796875,28.2169197 23.15625,27.6963124 C23.15625,27.6963124 22.8515625,28.8416486 21.8359375,29.0498915 C21.53125,28.8416486 20.8203125,28.2169197 18.9921875,27.6963124 C18.9921875,27.6963124 18.6875,29.0498915 16.859375,29.362256 L16.3515625,29.362256 L16.3515625,40.8156182 L34.53125,40.8156182 L34.53125,29.362256 Z" id="Shape"></path>
        </g>
    </g>
</svg>