<?xml version="1.0" encoding="UTF-8"?>
<svg width="64px" height="64px" viewBox="0 0 64 64" version="1.1" xmlns="http://www.w3.org/2000/svg" xmlns:xlink="http://www.w3.org/1999/xlink">
    <!-- Generator: Sketch 52.6 (67491) - http://www.bohemiancoding.com/sketch -->
    <title>drainage-pipe-control</title>
    <desc>Created with Sketch.</desc>
    <g id="drainage-pipe-control" stroke="none" stroke-width="1" fill="none" fill-rule="evenodd">
        <g id="icon-drainage-pipe-control" transform="translate(12.000000, 7.000000)" fill="#000000" fill-rule="nonzero">
            <path d="M16.9509044,12.1400778 C16.9509044,12.1400778 16.6408269,12.1400778 16.9509044,12.1400778 C16.6408269,11.4319066 16.6408269,10.92607 16.6408269,10.3190661 C16.6408269,10.1167315 16.6408269,10.1167315 16.4341085,10.1167315 C15.6072351,10.1167315 14.7803618,10.1167315 14.0568475,10.1167315 C13.74677,10.1167315 13.74677,10.1167315 13.74677,9.81322957 C13.74677,7.78988327 13.74677,5.9688716 13.74677,3.84435798 C13.74677,3.64202335 13.74677,3.64202335 14.0568475,3.64202335 C15.6072351,3.64202335 17.1576227,3.64202335 18.8113695,3.64202335 C20.1550388,3.64202335 20.878553,2.32684825 20.6718346,1.3151751 C20.3617571,0.505836576 19.5348837,0 18.501292,0 C14.2635659,0 10.3359173,0 6.09819121,0 C6.09819121,0 5.7881137,0 5.7881137,0 C4.75452196,0 3.92764858,0.809338521 3.92764858,1.82101167 C3.92764858,2.83268482 4.75452196,3.84435798 5.7881137,3.84435798 C7.44186047,3.84435798 8.99224806,3.84435798 10.3359173,3.84435798 C10.5426357,3.84435798 10.5426357,3.84435798 10.5426357,4.14785992 C10.5426357,6.17120623 10.5426357,7.9922179 10.5426357,10.1167315 C10.5426357,10.3190661 10.5426357,10.3190661 10.3359173,10.3190661 C9.81912145,10.3190661 8.99224806,10.3190661 8.16537468,10.3190661 C7.95865633,10.3190661 7.95865633,10.3190661 7.95865633,10.6225681 C7.95865633,11.1284047 7.95865633,11.6342412 7.95865633,12.1400778 C7.95865633,12.4435798 7.95865633,12.4435798 7.64857881,12.4435798 C5.27131783,12.4435798 2.6873385,12.4435798 0.310077519,12.4435798 C0,12.4435798 0,12.4435798 0,12.6459144 C0,16.0856031 0,19.7276265 0,23.0661479 C0,23.2684825 0,23.2684825 0.310077519,23.2684825 C2.6873385,23.2684825 5.27131783,23.2684825 7.64857881,23.2684825 C7.64857881,23.2684825 7.95865633,23.2684825 7.95865633,23.2684825 C7.95865633,23.8754864 7.95865633,24.381323 7.95865633,24.8871595 C7.95865633,25.0894942 7.95865633,25.0894942 8.16537468,25.0894942 C11.1627907,25.0894942 14.0568475,25.0894942 16.6408269,25.0894942 C16.9509044,25.0894942 16.9509044,25.0894942 16.9509044,24.8871595 C16.9509044,24.381323 16.9509044,23.8754864 16.9509044,23.2684825 C16.6408269,23.2684825 16.9509044,23.2684825 16.9509044,23.2684825 C19.5348837,23.2684825 22.2222222,23.2684825 24.9095607,23.2684825 C25.9431525,23.2684825 26.9767442,24.077821 26.9767442,25.3929961 C26.9767442,27.7198444 26.9767442,30.0466926 26.9767442,32.6770428 C26.9767442,32.8793774 26.9767442,32.8793774 26.7700258,32.8793774 C26.1498708,32.8793774 25.9431525,32.8793774 25.4263566,32.8793774 C25.1162791,32.8793774 25.1162791,32.8793774 25.1162791,33.1828794 C25.1162791,33.8910506 25.1162791,35.0038911 25.1162791,35.7120623 C25.1162791,36.0155642 25.1162791,36.0155642 25.4263566,36.0155642 C27.8036176,36.0155642 30.1808786,36.0155642 32.5581395,36.0155642 C34.9354005,36.0155642 37.3126615,36.0155642 39.6899225,36.0155642 C39.6899225,36.0155642 40,36.0155642 40,35.7120623 C40,34.7003891 40,33.8910506 40,32.8793774 C40,32.6770428 40,32.6770428 39.6899225,32.6770428 C39.1731266,32.6770428 38.8630491,32.6770428 38.3462532,32.6770428 C38.1395349,32.6770428 38.1395349,32.6770428 38.1395349,32.3735409 C38.1395349,29.2373541 38.1395349,26.4046693 38.1395349,23.2684825 C38.1395349,22.7626459 38.1395349,22.2568093 38.1395349,21.7509728 C37.8294574,18.614786 36.2790698,16.2879377 33.9018088,14.2645914 C31.7312661,12.6459144 29.3540052,11.9377432 26.7700258,11.9377432 L16.9509044,12.1400778 Z M32.5581395,38.848249 C32.7648579,39.3540856 33.0749354,39.8599222 33.3850129,40.3657588 C34.1085271,41.9844358 35.1421189,43.5019455 36.2790698,45.0194553 C37.3126615,46.6381323 37.3126615,48.459144 36.2790698,49.9766537 C35.1421189,51.4941634 33.3850129,52.3035019 31.5245478,51.7976654 C29.6640827,51.2918288 28.3204134,49.9766537 28.0103359,48.155642 C27.8036176,46.8404669 28.0103359,45.8287938 28.8372093,45.0194553 C29.6640827,43.8054475 30.6976744,42.4902724 31.5245478,40.8715953 C32.0413437,40.1634241 32.248062,39.6575875 32.5581395,38.848249 Z" id="Shape"></path>
        </g>
    </g>
</svg>