<?xml version="1.0" encoding="UTF-8"?>
<svg width="64px" height="64px" viewBox="0 0 64 64" version="1.1" xmlns="http://www.w3.org/2000/svg" xmlns:xlink="http://www.w3.org/1999/xlink">
    <!-- Generator: Sketch 52.6 (67491) - http://www.bohemiancoding.com/sketch -->
    <title>drainage-pond</title>
    <desc>Created with Sketch.</desc>
    <g id="drainage-pond" stroke="none" stroke-width="1" fill="none" fill-rule="evenodd">
        <g id="icon-drainage-pond" transform="translate(6.000000, 11.000000)" fill="#000000" fill-rule="nonzero">
            <path d="M26,0 C29.3515625,6.30023095 32.5,11.9907621 34.53125,18.2909931 C35.8515625,22.4572748 34.53125,26.3187067 30.9765625,28.6558891 C27.3203125,30.6882217 22.8515625,30.4849885 19.8046875,27.8429561 C17.1640625,25.5057737 16.1484375,22.1524249 17.1640625,18.4942263 C19.1953125,11.9907621 22.6484375,5.99538106 26,0 Z M26,32.0092379 C11.6796875,32.0092379 0,34.6512702 0,38.0046189 C0,41.3579677 11.6796875,44 26,44 C40.3203125,44 52,41.3579677 52,38.0046189 C52,34.6512702 40.3203125,32.0092379 26,32.0092379 Z M26,41.6628176 C15.84375,41.6628176 7.8203125,40.1385681 7.8203125,38.0046189 C7.8203125,35.9722864 15.84375,34.3464203 26,34.3464203 C36.15625,34.3464203 44.1796875,35.9722864 44.1796875,38.0046189 C44.1796875,40.1385681 36.15625,41.6628176 26,41.6628176 Z" id="Shape"></path>
        </g>
    </g>
</svg>