<?xml version="1.0" encoding="UTF-8"?>
<svg width="64px" height="64px" viewBox="0 0 64 64" version="1.1" xmlns="http://www.w3.org/2000/svg" xmlns:xlink="http://www.w3.org/1999/xlink">
    <!-- Generator: Sketch 52.6 (67491) - http://www.bohemiancoding.com/sketch -->
    <title>drainage-gully</title>
    <desc>Created with Sketch.</desc>
    <g id="drainage-gully" stroke="none" stroke-width="1" fill="none" fill-rule="evenodd">
        <g id="icon-drainage-gully" transform="translate(6.000000, 13.000000)" fill="#000000" fill-rule="nonzero">
            <path d="M0,0 L0,40 L52,40 L52,0 L0,0 Z M5.6875,5.84615385 L23.15625,5.84615385 L23.15625,11.5897436 L5.6875,11.5897436 L5.6875,5.84615385 Z M23.359375,34.1538462 L5.9921875,34.1538462 L5.9921875,28.4102564 L23.359375,28.4102564 L23.359375,34.1538462 Z M23.359375,22.8717949 L5.9921875,22.8717949 L5.9921875,17.1282051 L23.359375,17.1282051 L23.359375,22.8717949 Z M46.3125,34.1538462 L29.1484375,34.1538462 L29.1484375,28.4102564 L46.3125,28.4102564 L46.3125,34.1538462 Z M46.3125,22.8717949 L29.1484375,22.8717949 L29.1484375,17.1282051 L46.3125,17.1282051 L46.3125,22.8717949 Z M28.640625,11.5897436 L28.640625,5.84615385 L46.3125,5.84615385 L46.3125,11.5897436 L28.640625,11.5897436 Z" id="Shape"></path>
        </g>
    </g>
</svg>