<?xml version="1.0" encoding="UTF-8"?>
<svg width="64px" height="64px" viewBox="0 0 64 64" version="1.1" xmlns="http://www.w3.org/2000/svg" xmlns:xlink="http://www.w3.org/1999/xlink">
    <!-- Generator: Sketch 52.6 (67491) - http://www.bohemiancoding.com/sketch -->
    <title>element-water</title>
    <desc>Created with Sketch.</desc>
    <g id="element-water" stroke="none" stroke-width="1" fill="none" fill-rule="evenodd">
        <g id="icon-element-water" transform="translate(15.000000, 7.000000)" fill="#000000" fill-rule="nonzero">
            <path d="M26.8100358,18.5381166 C22.4229391,10.7264574 16.8172043,0 16.8172043,0 C16.8172043,0 11.4551971,10.7264574 6.82437276,18.5381166 C2.19354839,26.3497758 0,27.7488789 0,36.7264574 C0,45.7040359 5.60573477,52 17.1827957,52 C28.3942652,52 34,45.7040359 34,36.7264574 C33.6344086,27.7488789 31.4408602,26.3497758 26.8100358,18.5381166 Z M5.84946237,29.0313901 C5.60573477,39.7578475 9.38351254,41.8565022 12.1863799,46.6367713 C-1.58422939,40.573991 5.84946237,29.0313901 5.84946237,29.0313901 Z M23.6415771,45.3542601 C27.0537634,36.1434978 22.1792115,27.1659193 19.2544803,20.8699552 C16.8172043,14.690583 18.0358423,12.0089686 18.0358423,12.0089686 C20.8387097,20.2869955 29.2473118,26.5829596 29.9784946,32.8789238 C30.5878136,39.4080717 27.7849462,42.6726457 23.6415771,45.3542601 Z" id="Shape"></path>
        </g>
    </g>
</svg>