<?xml version="1.0" encoding="UTF-8"?>
<svg width="64px" height="64px" viewBox="0 0 64 64" version="1.1" xmlns="http://www.w3.org/2000/svg" xmlns:xlink="http://www.w3.org/1999/xlink">
    <!-- Generator: Sketch 52.6 (67491) - http://www.bohemiancoding.com/sketch -->
    <title>element-fire</title>
    <desc>Created with Sketch.</desc>
    <g id="element-fire" stroke="none" stroke-width="1" fill="none" fill-rule="evenodd">
        <g id="icon-element-fire" transform="translate(9.000000, 7.000000)" fill="#000000">
            <path d="M8.84615385,23.6765957 C13.9326923,16.8170213 18.7980769,10.2893617 18.7980769,1.54893617 C18.7980769,-0.221276596 19.3509615,-0.221276596 20.4567308,0.663829787 C26.0961538,4.09361702 29.7451923,9.51489362 32.0673077,15.3787234 C32.2884615,16.5957447 32.9519231,17.7021277 33.1730769,18.8085106 C35.1634615,16.5957447 35.1634615,15.9319149 34.9423077,10.0680851 C36.6009615,11.3957447 38.0384615,13.1659574 39.1442308,14.8255319 C42.0192308,18.4765957 44.2307692,22.4595745 45.3365385,27.3276596 C46.7740385,33.5234043 45.6682692,39.1659574 41.3557692,44.2553191 C38.8125,47.4638298 36.0480769,49.6765957 32.2884615,51.6680851 C36.2692308,39.4978723 32.6201923,29.5404255 23.3317308,21.6851064 C23.3317308,26.7744681 22.1153846,31.3106383 19.0192308,35.8468085 C19.3509615,32.9702128 19.0192308,30.7574468 17.5817308,28.1021277 C16.8076923,32.6382979 14.2644231,36.4 11.9423077,39.7191489 C9.73076923,43.4808511 9.73076923,47.4638298 11.7211538,52 C6.63461538,48.7914894 1.76923077,45.693617 0.331730769,39.7191489 C-0.442307692,35.1829787 0.331730769,31.5319149 1.76923077,27.5489362 C2.875,25.3361702 3.98076923,23.012766 5.19711538,20.8 C5.75,19.3617021 6.30288462,17.3702128 6.63461538,15.3787234 C8.51442308,17.9234043 8.29326923,20.4680851 8.84615385,23.6765957 Z" id="Path"></path>
        </g>
    </g>
</svg>