<?xml version="1.0" encoding="UTF-8"?>
<svg width="64px" height="64px" viewBox="0 0 64 64" version="1.1" xmlns="http://www.w3.org/2000/svg" xmlns:xlink="http://www.w3.org/1999/xlink">
    <!-- Generator: Sketch 52.6 (67491) - http://www.bohemiancoding.com/sketch -->
    <title>element-electricity</title>
    <desc>Created with Sketch.</desc>
    <g id="element-electricity" stroke="none" stroke-width="1" fill="none" fill-rule="evenodd">
        <g id="icon-element-electricity" transform="translate(12.000000, 7.000000)" fill="#000000">
            <path d="M6.53061224,16.9587426 L6.53061224,1.8388998 L12.8571429,0 L12.8571429,16.9587426 L26.9387755,16.9587426 L26.9387755,0 L32.6530612,1.021611 L32.6530612,16.9587426 L40,16.9587426 L40,22.9862475 L36.8367347,22.9862475 C36.8367347,22.9862475 38.6734694,31.6699411 35,37.1866405 C31.6326531,42.6011788 26.4285714,44.9508841 26.4285714,44.9508841 L26.4285714,52 L14.3877551,52 L14.3877551,45.2573674 C14.3877551,45.2573674 2.95918367,41.8860511 2.95918367,24.1100196 C0.612244898,24.1100196 0,24.1100196 0,24.1100196 L0,17.5717092 L6.53061224,16.9587426 Z" id="Path"></path>
        </g>
    </g>
</svg>