<?xml version="1.0" encoding="UTF-8"?>
<svg width="64px" height="64px" viewBox="0 0 64 64" version="1.1" xmlns="http://www.w3.org/2000/svg" xmlns:xlink="http://www.w3.org/1999/xlink">
    <!-- Generator: Sketch 52.6 (67491) - http://www.bohemiancoding.com/sketch -->
    <title>element-wind</title>
    <desc>Created with Sketch.</desc>
    <g id="element-wind" stroke="none" stroke-width="1" fill="none" fill-rule="evenodd">
        <g id="icon-element-wind" transform="translate(6.000000, 14.000000)" fill="#000000" fill-rule="nonzero">
            <path d="M34.7014028,7.64130435 C34.7014028,3.4076087 31.1583166,0 26.8857715,0 C22.6132265,0 19.1743487,3.4076087 19.1743487,7.64130435 L22.9258517,7.64130435 C22.9258517,5.47282609 24.488978,3.92391304 26.6773547,3.92391304 C28.761523,3.92391304 30.4288577,5.47282609 30.4288577,7.64130435 C30.4288577,9.70652174 28.761523,11.3586957 26.6773547,11.3586957 L3.75150301,11.3586957 L3.75150301,15.076087 L26.8857715,15.076087 C31.1583166,15.2826087 34.7014028,11.875 34.7014028,7.64130435 Z M44.2885772,7.64130435 C40.0160321,7.64130435 36.5771543,11.048913 36.5771543,15.2826087 L40.2244489,15.2826087 C40.2244489,13.2173913 41.8917836,11.5652174 43.9759519,11.5652174 C46.1643287,11.5652174 47.7274549,13.2173913 47.7274549,15.2826087 C47.7274549,17.451087 46.3727455,19 44.2885772,19 L0,19 L0,22.7173913 L44.2885772,22.7173913 C48.5611222,22.7173913 52,19.3097826 52,15.076087 C52,10.8423913 48.5611222,7.64130435 44.2885772,7.64130435 Z M38.3486974,26.6413043 L11.4629259,26.6413043 L11.4629259,30.3586957 L38.3486974,30.3586957 C39.49499,30.3586957 40.2244489,31.1847826 40.2244489,32.2173913 C40.2244489,33.25 39.49499,34.076087 38.3486974,34.076087 C37.3066132,34.076087 36.5771543,33.25 36.5771543,32.2173913 L32.8256513,32.2173913 C32.8256513,35.4184783 35.2224449,38 38.6613226,38 C42.1002004,38 44.496994,35.625 44.496994,32.2173913 C44.496994,28.8097826 41.8917836,26.6413043 38.3486974,26.6413043 Z" id="Shape"></path>
        </g>
    </g>
</svg>