<?xml version="1.0" encoding="UTF-8"?>
<svg width="64px" height="64px" viewBox="0 0 64 64" version="1.1" xmlns="http://www.w3.org/2000/svg" xmlns:xlink="http://www.w3.org/1999/xlink">
    <!-- Generator: Sketch 52.6 (67491) - http://www.bohemiancoding.com/sketch -->
    <title>explorer</title>
    <desc>Created with Sketch.</desc>
    <g id="explorer" stroke="none" stroke-width="1" fill="none" fill-rule="evenodd">
        <g id="icon-explorer" transform="translate(7.000000, 6.000000)" fill="#000000" fill-rule="nonzero">
            <path d="M0,0 L13.6734694,0 L13.6734694,6.8046875 L0,6.8046875 L0,0 Z M0,45.1953125 L13.6734694,45.1953125 L13.6734694,52 L0,52 L0,45.1953125 Z M18.1632653,0 L50,0 L50,6.8046875 L18.1632653,6.8046875 L18.1632653,0 Z M18.1632653,45.1953125 L50,45.1953125 L50,52 L18.1632653,52 L18.1632653,45.1953125 Z M0,11.2734375 L13.6734694,11.2734375 L13.6734694,18.078125 L0,18.078125 L0,11.2734375 Z M0,22.6484375 L13.6734694,22.6484375 L13.6734694,29.3515625 L0,29.3515625 L0,22.6484375 Z M0,33.921875 L13.6734694,33.921875 L13.6734694,40.7265625 L0,40.7265625 L0,33.921875 Z M18.1632653,22.6484375 L31.8367347,22.6484375 L31.8367347,29.3515625 L18.1632653,29.3515625 L18.1632653,22.6484375 Z M18.1632653,13.609375 L31.8367347,13.609375 L31.8367347,15.84375 L18.1632653,15.84375 L18.1632653,13.609375 Z M18.1632653,36.15625 L31.8367347,36.15625 L31.8367347,38.390625 L18.1632653,38.390625 L18.1632653,36.15625 Z M36.3265306,13.609375 L50,13.609375 L50,15.84375 L36.3265306,15.84375 L36.3265306,13.609375 Z M36.3265306,24.8828125 L50,24.8828125 L50,27.1171875 L36.3265306,27.1171875 L36.3265306,24.8828125 Z M36.3265306,36.15625 L50,36.15625 L50,38.390625 L36.3265306,38.390625 L36.3265306,36.15625 Z" id="Shape"></path>
        </g>
    </g>
</svg>