<?xml version="1.0" encoding="UTF-8"?>
<svg width="64px" height="64px" viewBox="0 0 64 64" version="1.1" xmlns="http://www.w3.org/2000/svg" xmlns:xlink="http://www.w3.org/1999/xlink">
    <!-- Generator: Sketch 52.6 (67491) - http://www.bohemiancoding.com/sketch -->
    <title>fence-gate-08</title>
    <desc>Created with Sketch.</desc>
    <g id="fence-gate-08" stroke="none" stroke-width="1" fill="none" fill-rule="evenodd">
        <g id="icon-fence-gate-08" transform="translate(6.000000, 15.000000)" fill="#000000" fill-rule="nonzero">
            <path d="M52,14.8205128 L52,10.8974359 L50.5677966,10.8974359 L50.5677966,8.60897436 L47.4830508,4.46794872 L44.0677966,8.60897436 L44.0677966,34 L50.5677966,34 L50.5677966,30.0769231 L52,30.0769231 L52,25.9358974 L50.5677966,25.9358974 L50.5677966,14.8205128 L52,14.8205128 Z M1.43220339,8.60897436 L1.43220339,10.8974359 L0,10.8974359 L0,14.8205128 L1.43220339,14.8205128 L1.43220339,25.9358974 L0,25.9358974 L0,30.0769231 L1.43220339,30.0769231 L1.43220339,34 L8.26271186,34 L8.26271186,8.60897436 L4.84745763,4.46794872 L1.43220339,8.60897436 Z M10.7966102,34 L41.5338983,34 L41.5338983,0 L10.7966102,0 L10.7966102,34 Z M29.4152542,5.88461538 L31.9491525,5.88461538 L31.9491525,15.5833333 L29.4152542,15.5833333 L29.4152542,5.88461538 Z M24.5677966,5.88461538 L27.1016949,5.88461538 L27.1016949,15.5833333 L24.5677966,15.5833333 L24.5677966,5.88461538 Z M20.0508475,5.88461538 L22.5847458,5.88461538 L22.5847458,15.5833333 L20.0508475,15.5833333 L20.0508475,5.88461538 Z" id="Shape"></path>
        </g>
    </g>
</svg>