<?xml version="1.0" encoding="UTF-8"?>
<svg width="64px" height="64px" viewBox="0 0 64 64" version="1.1" xmlns="http://www.w3.org/2000/svg" xmlns:xlink="http://www.w3.org/1999/xlink">
    <!-- Generator: Sketch 52.6 (67491) - http://www.bohemiancoding.com/sketch -->
    <title>file-table</title>
    <desc>Created with Sketch.</desc>
    <g id="file-table" stroke="none" stroke-width="1" fill="none" fill-rule="evenodd">
        <g id="icon-file-table" transform="translate(12.000000, 6.000000)" fill="#000000" fill-rule="nonzero">
            <path d="M26.1458333,0 L0,0 L0,52 L40,52 L40,12.4921875 L26.1458333,0 Z M18.125,41.84375 L7.5,41.84375 L7.5,37.171875 L18.125,37.171875 L18.125,41.84375 Z M18.125,34.8359375 L7.5,34.8359375 L7.5,30.1640625 L18.125,30.1640625 L18.125,34.8359375 Z M18.125,27.828125 L7.5,27.828125 L7.5,23.15625 L18.125,23.15625 L18.125,27.828125 Z M31.7708333,41.640625 L21.0416667,41.640625 L21.0416667,36.96875 L31.7708333,36.96875 L31.7708333,41.640625 Z M31.7708333,34.53125 L21.0416667,34.53125 L21.0416667,29.859375 L31.7708333,29.859375 L31.7708333,34.53125 Z M31.7708333,27.828125 L21.0416667,27.828125 L21.0416667,23.15625 L31.7708333,23.15625 L31.7708333,27.828125 Z M26.1458333,12.6953125 L26.1458333,4.1640625 L35.2083333,12.6953125 L26.1458333,12.6953125 Z" id="Shape"></path>
        </g>
    </g>
</svg>