<?xml version="1.0" encoding="UTF-8"?>
<svg width="64px" height="64px" viewBox="0 0 64 64" version="1.1" xmlns="http://www.w3.org/2000/svg" xmlns:xlink="http://www.w3.org/1999/xlink">
    <!-- Generator: Sketch 52.6 (67491) - http://www.bohemiancoding.com/sketch -->
    <title>file-bill</title>
    <desc>Created with Sketch.</desc>
    <g id="file-bill" stroke="none" stroke-width="1" fill="none" fill-rule="evenodd">
        <g id="icon-file-bill" transform="translate(12.000000, 6.000000)" fill="#000000" fill-rule="nonzero">
            <path d="M13.1233596,39 C12.3884514,39 11.5485564,39.8125 11.5485564,40.5234375 C11.5485564,41.3359375 12.3884514,42.1484375 13.1233596,42.1484375 C13.9632546,42.1484375 14.8031496,41.3359375 14.8031496,40.5234375 C14.8031496,39.5078125 13.9632546,39 13.1233596,39 Z M26.351706,0 L0,0 L0,52 L40,52 L40,12.4921875 L26.351706,0 Z M24.9868766,34.8359375 C24.4619423,34.8359375 23.6220472,34.8359375 23.0971129,34.53125 L16.9028871,40.5234375 C16.9028871,42.65625 15.328084,44.1796875 13.1233596,44.1796875 C11.023622,44.1796875 9.4488189,42.3515625 9.4488189,40.5234375 C9.4488189,38.4921875 11.023622,36.96875 13.1233596,36.96875 L19.3175853,30.9765625 C19.1076115,30.46875 19.1076115,29.859375 19.1076115,29.1484375 C19.1076115,26 21.7322835,23.359375 24.9868766,23.359375 C25.8267717,23.359375 26.5616798,23.6640625 27.4015748,23.96875 C27.4015748,23.96875 27.4015748,24.171875 27.4015748,24.171875 L23.9370079,27.5234375 C23.9370079,28.3359375 24.1469816,28.84375 24.7769029,29.3515625 C25.3018373,29.859375 26.0367454,30.1640625 26.5616798,30.1640625 L30.1312336,26.8125 C30.1312336,26.8125 30.3412073,26.8125 30.3412073,26.8125 C30.656168,27.5234375 30.8661417,28.3359375 30.8661417,29.1484375 C30.8661417,32.1953125 28.2414698,34.8359375 24.9868766,34.8359375 Z M26.351706,12.6953125 L26.351706,4.1640625 L35.4855643,12.6953125 L26.351706,12.6953125 Z" id="Shape"></path>
        </g>
    </g>
</svg>