<?xml version="1.0" encoding="UTF-8"?>
<svg width="64px" height="64px" viewBox="0 0 64 64" version="1.1" xmlns="http://www.w3.org/2000/svg" xmlns:xlink="http://www.w3.org/1999/xlink">
    <!-- Generator: Sketch 52.6 (67491) - http://www.bohemiancoding.com/sketch -->
    <title>file-edit</title>
    <desc>Created with Sketch.</desc>
    <g id="file-edit" stroke="none" stroke-width="1" fill="none" fill-rule="evenodd">
        <g id="icon-file-edit" transform="translate(10.000000, 6.000000)" fill="#000000" fill-rule="nonzero">
            <path d="M40.0642202,9.8515625 L44,14.015625 L40.3669725,17.671875 L36.2293578,13.8125 L40.0642202,9.8515625 Z M12.412844,42.1484375 L14.0275229,36.359375 L18.1651376,40.5234375 L12.412844,42.1484375 Z M16.3486239,33.8203125 L33.9082569,16.3515625 L38.2477064,20.3125 L20.6880734,37.984375 L16.3486239,33.8203125 Z M20.6880734,42.65625 L9.58715596,45.8046875 L11.4036697,35.140625 L36.4311927,10.359375 L39.0550459,7.8203125 L39.0550459,0 L13.5229358,0 L0,12.4921875 L0,52 L38.7522936,52 L38.7522936,23.359375 L20.6880734,42.65625 Z M13.5229358,4.1640625 L13.5229358,12.6953125 L4.44036697,12.6953125 L13.5229358,4.1640625 Z" id="Shape"></path>
        </g>
    </g>
</svg>