<?xml version="1.0" encoding="UTF-8"?>
<svg width="64px" height="64px" viewBox="0 0 64 64" version="1.1" xmlns="http://www.w3.org/2000/svg" xmlns:xlink="http://www.w3.org/1999/xlink">
    <!-- Generator: Sketch 52.6 (67491) - http://www.bohemiancoding.com/sketch -->
    <title>file-code</title>
    <desc>Created with Sketch.</desc>
    <g id="file-code" stroke="none" stroke-width="1" fill="none" fill-rule="evenodd">
        <g id="icon-file-code" transform="translate(12.000000, 6.000000)" fill="#000000" fill-rule="nonzero">
            <path d="M26.0367454,0 L0,0 L0,52 L40,52 L40,12.3320158 L26.0367454,0 Z M15.0131234,38.8458498 L13.648294,40.6956522 L8.29396325,37.6126482 L8.29396325,35.4545455 L14.488189,32.8853755 L15.5380577,34.6324111 L10.7086614,36.2766798 L15.0131234,38.8458498 Z M15.8530184,42.5454545 L21.2073491,30.5217391 L23.832021,30.5217391 L18.2677165,42.5454545 L15.8530184,42.5454545 Z M31.1811024,38.1264822 L24.671916,40.6956522 L23.6220472,38.8458498 L28.4514436,37.3043478 L24.1469816,34.6324111 L25.511811,32.8853755 L31.1811024,35.9683794 L31.1811024,38.1264822 Z M26.0367454,12.5375494 L26.0367454,4.21343874 L35.1706037,12.8458498 L26.0367454,12.8458498 L26.0367454,12.5375494 Z" id="Shape"></path>
        </g>
    </g>
</svg>