<?xml version="1.0" encoding="UTF-8"?>
<svg width="64px" height="64px" viewBox="0 0 64 64" version="1.1" xmlns="http://www.w3.org/2000/svg" xmlns:xlink="http://www.w3.org/1999/xlink">
    <!-- Generator: Sketch 52.6 (67491) - http://www.bohemiancoding.com/sketch -->
    <title>file-picture</title>
    <desc>Created with Sketch.</desc>
    <g id="file-picture" stroke="none" stroke-width="1" fill="none" fill-rule="evenodd">
        <g id="icon-file-picture" transform="translate(12.000000, 6.000000)" fill="#000000" fill-rule="nonzero">
            <path d="M26.1458333,0 L0,0 L0,52 L40,52 L40,12.4921875 L26.1458333,0 Z M10.9375,18.1796875 C13.0208333,18.1796875 14.8958333,20.0078125 14.8958333,22.140625 C14.8958333,24.171875 13.0208333,26 10.9375,26 C8.75,26 6.97916667,24.171875 6.97916667,22.140625 C6.97916667,19.8046875 8.75,18.1796875 10.9375,18.1796875 Z M32.5,44.484375 L7.1875,44.484375 L7.1875,33.515625 L15.4166667,27.3203125 L20.8333333,33.515625 L24.7916667,31.6875 L32.5,34.8359375 L32.5,44.484375 Z M26.1458333,12.796875 L26.1458333,4.1640625 L35.2083333,12.796875 L26.1458333,12.796875 Z" id="Shape"></path>
        </g>
    </g>
</svg>