<?xml version="1.0" encoding="UTF-8"?>
<svg width="64px" height="64px" viewBox="0 0 64 64" version="1.1" xmlns="http://www.w3.org/2000/svg" xmlns:xlink="http://www.w3.org/1999/xlink">
    <!-- Generator: Sketch 52.6 (67491) - http://www.bohemiancoding.com/sketch -->
    <title>file-unknown</title>
    <desc>Created with Sketch.</desc>
    <g id="file-unknown" stroke="none" stroke-width="1" fill="none" fill-rule="evenodd">
        <g id="icon-file-unknown" transform="translate(12.000000, 6.000000)" fill="#000000" fill-rule="nonzero">
            <path d="M26.1458333,0 L0,0 L0,52 L40,52 L40,12.390625 L26.1458333,0 Z M20.8333333,42.046875 C20.3125,42.5546875 19.4791667,42.859375 18.6458333,42.5546875 C17.9166667,42.5546875 17.0833333,42.3515625 16.25,41.84375 C15.7291667,41.3359375 15.4166667,40.5234375 15.4166667,40.015625 C15.4166667,39.203125 15.7291667,38.390625 16.25,37.8828125 C16.7708333,37.375 17.9166667,37.171875 18.6458333,37.171875 C19.4791667,37.171875 20.3125,37.375 20.8333333,37.8828125 C21.3541667,38.390625 21.5625,39.203125 21.5625,40.015625 C21.5625,40.7265625 21.3541667,41.5390625 20.8333333,42.046875 Z M25.625,29.5546875 C24.7916667,30.671875 23.9583333,31.3828125 22.9166667,31.890625 C22.0833333,32.1953125 21.5625,32.703125 21.0416667,33.2109375 C20.8333333,33.515625 20.5208333,34.0234375 20.5208333,34.2265625 L20.5208333,35.0390625 L16.0416667,35.0390625 L16.0416667,33.71875 C16.0416667,33.0078125 16.25,32.1953125 16.5625,31.3828125 C17.0833333,30.671875 17.9166667,30.1640625 18.6458333,29.5546875 C19.1666667,29.3515625 20,28.84375 20.5208333,28.3359375 C20.8333333,28.03125 21.0416667,27.5234375 21.0416667,27.015625 C21.0416667,26.5078125 20.8333333,26.203125 20.5208333,26 C20,25.6953125 19.4791667,25.6953125 18.9583333,25.6953125 C17.0833333,25.6953125 15.4166667,26.203125 13.8541667,27.21875 L11.7708333,23.359375 C14.1666667,22.0390625 16.5625,21.2265625 19.4791667,21.2265625 C21.3541667,21.2265625 22.9166667,21.53125 24.5833333,22.546875 C25.8333333,23.359375 26.3541667,24.8828125 26.3541667,26.203125 C26.3541667,27.5234375 26.1458333,28.5390625 25.625,29.5546875 Z M26.1458333,12.6953125 L26.1458333,4.1640625 L35.2083333,12.6953125 L26.1458333,12.6953125 Z" id="Shape"></path>
        </g>
    </g>
</svg>