<?xml version="1.0" encoding="UTF-8"?>
<svg width="64px" height="64px" viewBox="0 0 64 64" version="1.1" xmlns="http://www.w3.org/2000/svg" xmlns:xlink="http://www.w3.org/1999/xlink">
    <!-- Generator: Sketch 52.6 (67491) - http://www.bohemiancoding.com/sketch -->
    <title>file-system</title>
    <desc>Created with Sketch.</desc>
    <g id="file-system" stroke="none" stroke-width="1" fill="none" fill-rule="evenodd">
        <g id="icon-file-system" transform="translate(12.000000, 6.000000)" fill="#000000" fill-rule="nonzero">
            <path d="M26.351706,0 L0,0 L0,52 L40,52 L40,12.4921875 L26.351706,0 Z M30.656168,32.5 L27.9265092,32.8046875 C27.7165354,33.8203125 27.191601,34.8359375 26.5616798,35.6484375 L28.4514436,37.4765625 L26.351706,39.5078125 L24.4619423,37.6796875 C23.6220472,38.1875 22.5721785,38.4921875 21.5223097,38.6953125 L21.5223097,41.640625 L18.7926509,41.640625 L18.7926509,38.6953125 C17.7427822,38.6953125 16.9028871,38.1875 16.167979,37.6796875 L13.9632546,39.8125 L11.8635171,37.6796875 L13.9632546,35.6484375 C13.1233596,34.8359375 12.9133858,33.8203125 12.5984252,32.8046875 L9.65879265,32.8046875 L9.65879265,29.859375 L12.9133858,29.859375 C12.9133858,28.84375 13.4383202,27.828125 13.9632546,27.015625 L11.8635171,24.984375 L13.7532808,23.15625 L15.8530184,24.984375 C16.6929134,24.4765625 17.7427822,24.171875 18.7926509,24.171875 L18.7926509,21.328125 L21.5223097,21.328125 L21.5223097,23.96875 C22.5721785,23.96875 23.6220472,24.4765625 24.4619423,24.984375 L26.351706,23.15625 L28.4514436,24.984375 L26.5616798,26.8125 C27.4015748,27.5234375 27.7165354,28.640625 27.9265092,29.65625 L30.656168,29.65625 L30.656168,32.5 Z M26.351706,12.6953125 L26.351706,4.1640625 L35.4855643,12.6953125 L26.351706,12.6953125 Z M20.1574803,27.015625 C17.7427822,27.015625 15.5380577,29.1484375 15.5380577,31.484375 C15.5380577,33.8203125 17.7427822,35.8515625 20.1574803,35.8515625 C20.4724409,35.8515625 20.4724409,35.8515625 20.6824147,35.8515625 C23.0971129,35.8515625 24.9868766,33.8203125 24.7769029,31.484375 C24.7769029,29.1484375 22.5721785,27.015625 20.1574803,27.015625 Z M20.1574803,33.3125 C19.1076115,33.3125 18.0577428,32.1953125 18.0577428,31.1796875 C18.0577428,30.1640625 19.1076115,29.1484375 20.1574803,29.1484375 C21.2073491,29.1484375 22.2572178,30.1640625 22.2572178,31.1796875 C22.2572178,32.1953125 21.2073491,33.3125 20.1574803,33.3125 Z" id="Shape"></path>
        </g>
    </g>
</svg>