<?xml version="1.0" encoding="UTF-8"?>
<svg width="64px" height="64px" viewBox="0 0 64 64" version="1.1" xmlns="http://www.w3.org/2000/svg" xmlns:xlink="http://www.w3.org/1999/xlink">
    <!-- Generator: Sketch 52.6 (67491) - http://www.bohemiancoding.com/sketch -->
    <title>folder-required</title>
    <desc>Created with Sketch.</desc>
    <g id="folder-required" stroke="none" stroke-width="1" fill="none" fill-rule="evenodd">
        <g id="icon-folder-required" transform="translate(6.000000, 11.000000)" fill="#000000" fill-rule="nonzero">
            <path d="M25.6953125,4.71219512 L22.140625,0 L10.96875,0 L7.3125,4.71219512 L0,4.71219512 L0,42 L52,42 L52,4.71219512 L25.6953125,4.71219512 Z M35.6484375,21.3073171 L30.46875,24.1756098 L35.6484375,27.0439024 C35.8515625,27.2487805 35.8515625,27.5560976 35.8515625,27.8634146 L34.328125,30.7317073 C34.0234375,30.9365854 33.8203125,30.9365854 33.515625,30.9365854 L28.640625,28.0682927 L28.640625,34.1121951 C28.640625,34.4195122 28.3359375,34.6243902 28.03125,34.6243902 L24.4765625,34.6243902 C24.171875,34.6243902 23.96875,34.4195122 23.96875,34.1121951 C23.96875,34.1121951 23.96875,34.1121951 23.96875,33.804878 L23.96875,28.0682927 L18.6875,30.9365854 C18.484375,31.2439024 18.1796875,30.9365854 17.9765625,30.7317073 L16.3515625,27.8634146 C16.1484375,27.5560976 16.3515625,27.2487805 16.65625,27.0439024 L21.53125,24.1756098 L16.3515625,21.3073171 C16.1484375,21 16.1484375,20.6926829 16.1484375,20.4878049 L17.671875,17.6195122 C17.9765625,17.3121951 18.1796875,17.3121951 18.6875,17.3121951 L23.96875,20.1804878 L23.96875,14.4439024 C23.96875,14.1365854 24.171875,13.9317073 24.4765625,13.9317073 L27.828125,13.9317073 C28.03125,13.9317073 28.3359375,14.1365854 28.3359375,14.4439024 L28.3359375,20.4878049 L33.515625,17.6195122 C33.8203125,17.3121951 34.0234375,17.6195122 34.328125,17.8243902 L35.8515625,20.6926829 C35.8515625,20.6926829 35.8515625,21 35.6484375,21.3073171 Z" id="Shape"></path>
        </g>
    </g>
</svg>