<?xml version="1.0" encoding="UTF-8"?>
<svg width="64px" height="64px" viewBox="0 0 64 64" version="1.1" xmlns="http://www.w3.org/2000/svg" xmlns:xlink="http://www.w3.org/1999/xlink">
    <!-- Generator: Sketch 52.6 (67491) - http://www.bohemiancoding.com/sketch -->
    <title>folder-locked</title>
    <desc>Created with Sketch.</desc>
    <g id="folder-locked" stroke="none" stroke-width="1" fill="none" fill-rule="evenodd">
        <g id="icon-folder-locked" transform="translate(6.000000, 11.000000)" fill="#000000" fill-rule="nonzero">
            <path d="M25.6953125,15.7756098 C24.171875,15.7756098 23.359375,16.4926829 23.359375,18.3365854 L23.359375,21.8195122 L28.03125,21.8195122 L28.03125,18.3365854 C28.03125,16.4926829 27.015625,15.7756098 25.6953125,15.7756098 Z M25.6953125,4.71219512 L22.140625,0 L10.96875,0 L7.3125,4.71219512 L0,4.71219512 L0,42 L52,42 L52,4.71219512 L25.6953125,4.71219512 Z M33.8203125,32.2682927 C33.8203125,32.7804878 33.3125,33.6 32.8046875,33.804878 L31.484375,34.1121951 C30.9765625,34.4195122 29.859375,34.4195122 29.1484375,34.4195122 L22.34375,34.4195122 C21.8359375,34.4195122 20.8203125,34.1121951 20.0078125,34.1121951 L18.6875,33.6 C18.1796875,33.2926829 17.671875,32.7804878 17.671875,32.0634146 L17.671875,22.8439024 C17.671875,22.3317073 18.1796875,21.5121951 18.9921875,21.5121951 L21.328125,21.5121951 L21.328125,18.6439024 C21.328125,15.2634146 22.8515625,13.1121951 26,13.1121951 C29.1484375,13.1121951 30.671875,15.2634146 30.671875,18.6439024 L30.671875,21.5121951 L32.8046875,21.5121951 C33.3125,21.5121951 34.0234375,22.3317073 34.0234375,22.8439024 L34.0234375,32.2682927 L33.8203125,32.2682927 Z" id="Shape"></path>
        </g>
    </g>
</svg>