<?xml version="1.0" encoding="UTF-8"?>
<svg width="64px" height="64px" viewBox="0 0 64 64" version="1.1" xmlns="http://www.w3.org/2000/svg" xmlns:xlink="http://www.w3.org/1999/xlink">
    <!-- Generator: Sketch 52.6 (67491) - http://www.bohemiancoding.com/sketch -->
    <title>folder-user</title>
    <desc>Created with Sketch.</desc>
    <g id="folder-user" stroke="none" stroke-width="1" fill="none" fill-rule="evenodd">
        <g id="icon-folder-user" transform="translate(6.000000, 11.000000)" fill="#000000" fill-rule="nonzero">
            <path d="M25.6953125,4.71219512 L52,4.71219512 L52,42 L0,42 L0,4.71219512 L7.3125,4.71219512 L10.96875,0 L22.140625,0 L25.6953125,4.71219512 Z M34.328125,28.8878049 C33.8203125,28.5804878 33.2109375,28.4780488 32.703125,28.3756098 C31.7890625,28.1707317 31.078125,28.1707317 30.265625,27.8634146 C28.4375,27.2487805 28.1328125,25.7121951 29.453125,24.2780488 C29.859375,23.7658537 30.265625,23.1512195 30.3671875,22.5365854 C30.7734375,21.3073171 30.875,20.2829268 30.875,19.0536585 C30.875,18.9512195 30.875,18.9512195 30.875,18.8487805 C30.875,18.3365854 30.875,17.8243902 30.7734375,17.4146341 C30.5703125,15.0585366 28.7421875,13.4195122 26.40625,13.1121951 C26.3046875,13.1121951 26.1015625,13.1121951 26,13.1121951 C25.8984375,13.1121951 25.8984375,13.1121951 25.796875,13.1121951 C25.796875,13.1121951 25.59375,13.1121951 25.59375,13.1121951 C23.0546875,13.1121951 21.125,14.7512195 20.71875,17.2097561 C20.6171875,18.5414634 20.6171875,19.5658537 20.71875,20.6926829 C20.8203125,22.1268293 21.328125,23.4585366 22.4453125,24.6878049 C23.4609375,25.7121951 23.2578125,27.2487805 21.734375,27.7609756 C20.8203125,28.1707317 19.6015625,28.1707317 18.6875,28.4780488 C17.7734375,28.6829268 16.859375,29.0926829 16.1484375,29.8097561 C15.234375,30.7317073 15.5390625,31.9609756 16.65625,32.5756098 C17.265625,32.8829268 17.9765625,33.0878049 18.484375,33.2926829 C20.4140625,33.497561 22.4453125,33.9073171 24.375,34.1121951 C27.7265625,34.2146341 30.875,34.1121951 34.125,32.8829268 C34.8359375,32.5756098 35.75,32.1658537 35.75,31.2439024 C35.75,30.1170732 35.140625,29.4 34.328125,28.8878049 Z" id="Shape"></path>
        </g>
    </g>
</svg>