<?xml version="1.0" encoding="UTF-8"?>
<svg width="64px" height="64px" viewBox="0 0 64 64" version="1.1" xmlns="http://www.w3.org/2000/svg" xmlns:xlink="http://www.w3.org/1999/xlink">
    <!-- Generator: Sketch 52.6 (67491) - http://www.bohemiancoding.com/sketch -->
    <title>folder-system</title>
    <desc>Created with Sketch.</desc>
    <g id="folder-system" stroke="none" stroke-width="1" fill="none" fill-rule="evenodd">
        <g id="icon-folder-system" transform="translate(6.000000, 11.000000)" fill="#000000" fill-rule="nonzero">
            <path d="M25.6953125,4.71219512 L22.140625,0 L10.96875,0 L7.3125,4.71219512 L0,4.71219512 L0,42 L52,42 L52,4.71219512 L25.6953125,4.71219512 Z M36.15625,25.7121951 L33.515625,25.7121951 C33.3125,26.7365854 33.0078125,27.8634146 32.1953125,28.5804878 L34.0234375,30.4243902 L31.9921875,32.5756098 L30.1640625,30.7317073 C29.3515625,31.2439024 28.3359375,31.7560976 27.3203125,31.7560976 L27.3203125,34.6243902 L24.6796875,34.6243902 L24.6796875,31.7560976 C23.6640625,31.4487805 22.8515625,31.2439024 22.140625,30.7317073 L20.0078125,32.7804878 L17.9765625,30.7317073 L20.0078125,28.5804878 C19.5,27.8634146 18.9921875,26.7365854 18.6875,25.7121951 L15.84375,25.7121951 L15.84375,22.8439024 L18.6875,22.8439024 C18.9921875,21.8195122 19.1953125,21 19.8046875,19.9756098 L17.9765625,18.1317073 L20.0078125,15.9804878 L22.140625,18.1317073 C22.8515625,17.6195122 23.96875,17.1073171 24.984375,16.8 L24.984375,14.1365854 L27.828125,14.1365854 L27.828125,16.8 C28.84375,17.1073171 29.859375,17.3121951 30.671875,17.8243902 L32.5,15.9804878 L34.53125,18.1317073 L32.8046875,19.9756098 C33.3125,20.6926829 33.8203125,21.8195122 34.0234375,22.8439024 L36.6640625,22.8439024 L36.6640625,25.7121951 L36.15625,25.7121951 Z M26,19.9756098 C23.359375,19.9756098 21.53125,22.0243902 21.53125,24.6878049 C21.53125,27.2487805 23.6640625,29.0926829 26,29.0926829 C28.640625,29.0926829 30.46875,27.0439024 30.46875,24.6878049 C30.671875,21.8195122 28.640625,19.9756098 26,19.9756098 Z M26,26.5317073 C24.984375,26.5317073 23.96875,25.5073171 23.96875,24.3804878 C23.96875,23.3560976 24.984375,22.3317073 26,22.3317073 C27.015625,22.3317073 28.03125,23.3560976 28.03125,24.3804878 C28.03125,25.5073171 27.015625,26.5317073 26,26.5317073 Z" id="Shape"></path>
        </g>
    </g>
</svg>