<?xml version="1.0" encoding="UTF-8"?>
<svg width="64px" height="64px" viewBox="0 0 64 64" version="1.1" xmlns="http://www.w3.org/2000/svg" xmlns:xlink="http://www.w3.org/1999/xlink">
    <!-- Generator: Sketch 52.6 (67491) - http://www.bohemiancoding.com/sketch -->
    <title>folder-files</title>
    <desc>Created with Sketch.</desc>
    <g id="folder-files" stroke="none" stroke-width="1" fill="none" fill-rule="evenodd">
        <g id="icon-folder-files" transform="translate(6.000000, 7.000000)" fill="#000000" fill-rule="nonzero">
            <path d="M7.515625,20.951417 L0,47.1659919 L0,50 L43.1640625,50 L52,20.951417 L7.515625,20.951417 Z M16.1484375,19.1295547 L18.9921875,8.29959514 L10.96875,8.29959514 L7.3125,12.9554656 L0,12.9554656 L0,39.3724696 L5.484375,19.1295547 L16.1484375,19.1295547 Z M43.1640625,19.1295547 L44.6875,19.1295547 L46.3125,13.9676113 L40.3203125,4.4534413 L38.6953125,3.84615385 L26.5078125,0.506072874 L24.984375,0 L24.4765625,1.51821862 L22.34375,8.80566802 L19.1953125,19.1295547 L43.1640625,19.1295547 Z M39.5078125,6.78137652 L43.46875,13.2591093 L42.859375,13.2591093 L42.859375,12.9554656 L42.3515625,12.9554656 L37.984375,11.6396761 L39.5078125,6.78137652 Z" id="Shape"></path>
        </g>
    </g>
</svg>