<?xml version="1.0" encoding="UTF-8"?>
<svg width="64px" height="64px" viewBox="0 0 64 64" version="1.1" xmlns="http://www.w3.org/2000/svg" xmlns:xlink="http://www.w3.org/1999/xlink">
    <!-- Generator: Sketch 52.6 (67491) - http://www.bohemiancoding.com/sketch -->
    <title>footway-tacticle</title>
    <desc>Created with Sketch.</desc>
    <g id="footway-tacticle" stroke="none" stroke-width="1" fill="none" fill-rule="evenodd">
        <g id="icon-footway-tacticle" transform="translate(10.000000, 6.000000)" fill="#000000" fill-rule="nonzero">
            <path d="M43.89,12.7161572 C44.22,17.1441048 42.24,21.4585153 38.83,25.5458515 C38.28,26.4541485 36.85,27.0218341 36.08,27.0218341 C33.22,27.2489083 30.69,26.4541485 28.38,24.9781659 C27.61,24.4104803 26.51,23.1615721 26.51,22.0262009 C25.08,15.1004367 26.73,8.96943231 31.24,3.74672489 C32.12,2.61135371 33.22,1.70305677 34.32,1.13537118 C37.4,-0.908296943 40.81,0.227074236 42.79,3.40611354 C43.67,6.01746725 43.89,8.62882096 43.89,12.7161572 Z M0,23.5021834 C0.55,21.1179039 0.88,18.8471616 1.65,16.5764192 C3.41,11.9213974 7.59,10.6724891 11.22,13.6244541 C16.28,17.9388646 19.14,23.5021834 18.59,30.768559 C18.59,31.3362445 18.26,31.9039301 18.26,32.4716157 C18.26,35.4235808 17.16,37.1266376 14.63,38.0349345 C12.98,38.6026201 11,38.9432314 9.24,39.1703057 C7.59,39.510917 6.49,38.9432314 5.39,37.6943231 C1.65,33.3799127 0.22,29.2925764 0,23.5021834 Z M21.12,43.8253275 C21.12,47.9126638 19.14,50.8646288 16.06,51.6593886 C13.2,52.5676856 9.79,50.8646288 8.14,47.9126638 C7.92,47.3449782 7.59,47.0043668 7.59,46.4366812 C6.49,43.2576419 7.04,42.349345 10.12,41.5545852 C12.43,41.2139738 14.3,40.6462882 16.28,39.7379913 C19.47,38.6026201 20.24,38.9432314 21.12,42.349345 C21.12,43.2576419 21.12,43.8253275 21.12,43.8253275 Z M29.81,40.0786026 C25.63,40.0786026 22.22,35.4235808 23.1,30.768559 C23.1,30.2008734 23.32,29.860262 23.32,29.2925764 C23.87,27.2489083 25.08,26.6812227 26.73,27.5895197 C29.59,28.7248908 32.34,29.6331878 35.2,29.860262 C37.18,30.2008734 37.73,31.1091703 37.18,33.0393013 C36.3,37.1266376 33.22,40.0786026 29.81,40.0786026 Z" id="Shape"></path>
        </g>
    </g>
</svg>