<?xml version="1.0" encoding="UTF-8"?>
<svg width="64px" height="64px" viewBox="0 0 64 64" version="1.1" xmlns="http://www.w3.org/2000/svg" xmlns:xlink="http://www.w3.org/1999/xlink">
    <title>graffiti-can </title>
    <g id="graffiti-can-" stroke="none" stroke-width="1" fill="none" fill-rule="evenodd">
        <path d="M40,27.5 L40,56.0133464 L38.0558268,58 L20.0400391,58 L18,56.0083008 L18,27.5 L40,27.5 Z M23.5,48 L20.5,48 L20.5,53 L23.5,53 L23.5,48 Z M23.5,30 L20.5,30 L20.5,46 L23.5,46 L23.5,30 Z M34.0632501,18.5 C34.6568098,18.5 35.219705,18.763646 35.5996927,19.2196312 L40,24.5 L18,24.5 L22.4003073,19.2196312 C22.780295,18.763646 23.3431902,18.5 23.9367499,18.5 L34.0632501,18.5 Z M45.5,16 C46.3284271,16 47,16.6715729 47,17.5 C47,18.3284271 46.3284271,19 45.5,19 C44.6715729,19 44,18.3284271 44,17.5 C44,16.6715729 44.6715729,16 45.5,16 Z M40.5,13.5 C41.3284271,13.5 42,14.1715729 42,15 C42,15.8284271 41.3284271,16.5 40.5,16.5 C39.6715729,16.5 39,15.8284271 39,15 C39,14.1715729 39.6715729,13.5 40.5,13.5 Z M32,10 L32,11 C31.1715729,11 30.5,11.6715729 30.5,12.5 C30.5,13.3284271 31.1715729,14 32,14 L32,15.5 L26,15.5 L26,12 C26,10.8954305 26.8954305,10 28,10 L32,10 Z M35.5,11 C36.3284271,11 37,11.6715729 37,12.5 C37,13.3284271 36.3284271,14 35.5,14 C34.6715729,14 34,13.3284271 34,12.5 C34,11.6715729 34.6715729,11 35.5,11 Z M45.5,11 C46.3284271,11 47,11.6715729 47,12.5 C47,13.3284271 46.3284271,14 45.5,14 C44.6715729,14 44,13.3284271 44,12.5 C44,11.6715729 44.6715729,11 45.5,11 Z M40.5,8.5 C41.3284271,8.5 42,9.17157288 42,10 C42,10.8284271 41.3284271,11.5 40.5,11.5 C39.6715729,11.5 39,10.8284271 39,10 C39,9.17157288 39.6715729,8.5 40.5,8.5 Z M45.5,6 C46.3284271,6 47,6.67157288 47,7.5 C47,8.32842712 46.3284271,9 45.5,9 C44.6715729,9 44,8.32842712 44,7.5 C44,6.67157288 44.6715729,6 45.5,6 Z" id="Combined-Shape" fill="#000000"></path>
    </g>
</svg>