<?xml version="1.0" encoding="UTF-8"?>
<svg width="64px" height="64px" viewBox="0 0 64 64" version="1.1" xmlns="http://www.w3.org/2000/svg" xmlns:xlink="http://www.w3.org/1999/xlink">
    <!-- Generator: Sketch 52.6 (67491) - http://www.bohemiancoding.com/sketch -->
    <title>hydrant</title>
    <desc>Created with Sketch.</desc>
    <g id="hydrant" stroke="none" stroke-width="1" fill="none" fill-rule="evenodd">
        <g id="icon-hydrant" transform="translate(14.000000, 6.000000)" fill="#000000" fill-rule="nonzero">
            <path d="M2.2170088,52 C2.2170088,50.6315789 2.2170088,49.2631579 2.2170088,47.8947368 C12.7741935,47.8947368 23.542522,47.8947368 34.0997067,47.8947368 C34.0997067,49.2631579 34.0997067,50.6315789 34.0997067,52 C23.542522,52 12.7741935,52 2.2170088,52 Z M28.9266862,24.2105263 C30.0879765,24.2105263 31.143695,24.2105263 31.9882698,24.2105263 C31.9882698,22.8421053 31.9882698,21.4736842 31.9882698,20.2105263 C33.255132,20.2105263 34.627566,20.2105263 36,20.2105263 C36,25.5789474 36,30.7368421 36,36.1052632 C34.627566,36.1052632 33.255132,36.1052632 31.9882698,36.1052632 C31.9882698,34.7368421 31.9882698,33.3684211 31.9882698,32 C30.8269795,32 29.771261,32 28.9266862,32 C28.9266862,36.6315789 28.9266862,41.1578947 28.9266862,45.7894737 C21.6422287,45.7894737 14.3577713,45.7894737 7.07331378,45.7894737 C7.07331378,41.1578947 7.07331378,36.6315789 7.07331378,32 C6.01759531,32 5.17302053,32 4.11730205,32 C4.11730205,33.3684211 4.11730205,34.7368421 4.11730205,36.1052632 C2.74486804,36.1052632 1.37243402,36.1052632 0,36.1052632 C0,30.7368421 0,25.5789474 0,20.2105263 C1.37243402,20.2105263 2.74486804,20.2105263 3.80058651,20.2105263 C3.80058651,21.4736842 3.80058651,22.8421053 3.80058651,24 C4.96187683,24 5.70087977,24 6.75659824,24 C6.75659824,21.2631579 6.75659824,18.8421053 6.75659824,16.1052632 C6.54545455,16.1052632 6.228739,16.1052632 6.01759531,16.1052632 C4.96187683,16.1052632 4.11730205,15.3684211 4.11730205,14.2105263 C4.11730205,13.1578947 4.96187683,12.1052632 6.01759531,12.3157895 C7.07331378,12.3157895 7.60117302,12.1052632 7.91788856,11.0526316 C9.50146628,7.47368421 11.9296188,5.36842105 15.4134897,4.52631579 C15.7302053,4.52631579 15.7302053,4.52631579 16.0469208,4.31578947 C16.0469208,3.47368421 16.0469208,2.94736842 16.0469208,2.10526316 C16.0469208,0.736842105 16.7859238,0 17.8416422,0 C19.0029326,0 19.7419355,0.736842105 19.7419355,2.10526316 C19.7419355,2.63157895 19.7419355,3.47368421 19.7419355,4 C19.7419355,4.31578947 19.7419355,4.31578947 20.058651,4.52631579 C24.0703812,5.57894737 26.8152493,8 28.1876833,11.7894737 C28.1876833,12.1052632 28.398827,12.1052632 28.7155425,12.1052632 C28.9266862,12.1052632 29.5601173,12.1052632 29.771261,12.1052632 C30.8269795,12.1052632 31.6715543,12.9473684 31.6715543,14 C31.6715543,15.0526316 30.8269795,15.8947368 29.771261,15.8947368 C28.7155425,15.8947368 28.7155425,15.8947368 28.7155425,16.9473684 C28.7155425,19.0526316 28.7155425,20.9473684 28.7155425,23.1578947 C28.9266862,23.6842105 28.9266862,24 28.9266862,24.2105263 Z M26.28739,28.2105263 C26.28739,24 22.8035191,20.2105263 18.1583578,20.2105263 C13.829912,20.2105263 10.0293255,23.6842105 10.3460411,28.2105263 C10.3460411,32.5263158 14.1466276,36.3157895 18.4750733,36.3157895 C22.4868035,36.1052632 26.28739,32.5263158 26.28739,28.2105263 Z M14.1466276,28.2105263 C14.1466276,26.1052632 15.7302053,24.2105263 18.1583578,24.2105263 C20.2697947,24.2105263 22.170088,26.1052632 22.170088,28.2105263 C22.170088,30.4210526 20.2697947,32.3157895 18.1583578,32.3157895 C16.0469208,32 14.1466276,30.4210526 14.1466276,28.2105263 Z" id="Shape"></path>
        </g>
    </g>
</svg>