<?xml version="1.0" encoding="UTF-8"?>
<svg width="64px" height="64px" viewBox="0 0 64 64" version="1.1" xmlns="http://www.w3.org/2000/svg" xmlns:xlink="http://www.w3.org/1999/xlink">
    <!-- Generator: Sketch 52.6 (67491) - http://www.bohemiancoding.com/sketch -->
    <title>import-done</title>
    <desc>Created with Sketch.</desc>
    <g id="import-done" stroke="none" stroke-width="1" fill="none" fill-rule="evenodd">
        <g id="icon-import-done" transform="translate(6.000000, 10.000000)" fill="#000000" fill-rule="nonzero">
            <path d="M46.8404669,14.2236842 C46.8404669,6.15350877 40.3657588,0 32.5758755,0 C27.4163424,0 22.7626459,2.8245614 20.1322957,6.96052632 C19.1206226,6.75877193 17.8054475,6.45614035 16.7937743,6.45614035 C12.3424125,6.45614035 8.49805447,9.28070175 7.18287938,13.4166667 C3.03501946,14.4254386 0,18.3596491 0,22.6973684 C0,28.1447368 4.35019455,32.5833333 9.81322957,32.5833333 C10.0155642,32.5833333 10.6225681,32.5833333 10.8249027,32.5833333 C11.3307393,24.5131579 17.8054475,18.3596491 26.1011673,18.3596491 C34.0933852,18.3596491 40.8715953,24.5131579 41.3774319,32.5833333 L42.1867704,32.5833333 C47.6498054,32.5833333 52,28.1447368 52,22.6973684 C52,19.0657895 49.9766537,15.7368421 46.8404669,14.2236842 Z M26.0443335,20.6041667 C18.8749288,20.6041667 13,26.2366699 13,33.1102331 C13,39.9837963 18.8749288,45.5208333 26.0443335,45.5208333 C33.1141631,45.5208333 38.989092,39.9837963 38.989092,33.1102331 C39.2878172,26.2366699 33.4128883,20.6041667 26.0443335,20.6041667 Z M23.2684825,40.3648758 L16.7937743,33.8469672 L19.4241245,32.0958873 L23.5719844,36.5708693 L32.8793774,27.1344942 L34.9027237,29.0801386 L23.2684825,40.3648758 Z" id="Shape"></path>
        </g>
    </g>
</svg>