<?xml version="1.0" encoding="UTF-8"?>
<svg width="64px" height="64px" viewBox="0 0 64 64" version="1.1" xmlns="http://www.w3.org/2000/svg" xmlns:xlink="http://www.w3.org/1999/xlink">
    <!-- Generator: Sketch 52.6 (67491) - http://www.bohemiancoding.com/sketch -->
    <title>import-file</title>
    <desc>Created with Sketch.</desc>
    <g id="import-file" stroke="none" stroke-width="1" fill="none" fill-rule="evenodd">
        <g id="icon-import-file" transform="translate(6.000000, 9.000000)" fill="#000000" fill-rule="nonzero">
            <path d="M30,15.3373984 L13.4,15.3373984 L13.4,48 L39.2,48 L39.2,22.9715567 L30,15.3373984 Z M30,17.8272358 L35.9,23.504065 L30,23.504065 L30,17.8272358 Z M46.6,14.0426829 C46.6,6.17479675 40.2,0 32.6,0 C27.4,0 22.8,2.78861789 20.3,6.87195122 C19,6.67276423 18,6.37398374 16.7,6.37398374 C12.3,6.37398374 8.5,9.16260163 7.2,13.245935 C3.1,14.3414634 0,18.1260163 0,22.5081301 C0,27.7865854 4.4,32.1686992 9.8,32.1686992 C10,32.1686992 10.5,32.1686992 10.8,32.1686992 C10.8,31.3719512 11.1,30.5752033 11.3,29.8780488 L11.3,13.046748 L32.3,13.046748 L41.3,21.2134146 L41,29.8780488 C41.3,30.5752033 41.3,31.3719512 41.5,32.1686992 L42.3,32.1686992 C47.7,32.1686992 52,27.7865854 52,22.5081301 C51.8,18.9227642 49.7,15.5365854 46.6,14.0426829 Z" id="Shape"></path>
        </g>
    </g>
</svg>