<?xml version="1.0" encoding="UTF-8"?>
<svg width="64px" height="64px" viewBox="0 0 64 64" version="1.1" xmlns="http://www.w3.org/2000/svg" xmlns:xlink="http://www.w3.org/1999/xlink">
    <!-- Generator: Sketch 52.6 (67491) - http://www.bohemiancoding.com/sketch -->
    <title>import-block</title>
    <desc>Created with Sketch.</desc>
    <g id="import-block" stroke="none" stroke-width="1" fill="none" fill-rule="evenodd">
        <g id="icon-import-block" transform="translate(6.000000, 9.000000)" fill="#000000" fill-rule="nonzero">
            <path d="M46.9612403,14.0086393 C46.9612403,14.0086393 46.9612403,13.7105832 46.9612403,14.0086393 C46.9612403,6.06047516 40.5116279,0 32.8527132,0 C27.6124031,0 22.9767442,2.78185745 20.4573643,6.85529158 C19.1472868,6.65658747 18.1395349,6.35853132 16.8294574,6.35853132 C12.3953488,6.35853132 8.56589147,9.14038877 7.25581395,13.2138229 C3.12403101,14.2073434 0,18.0820734 0,22.3542117 C0,27.7192225 4.43410853,32.0907127 9.87596899,32.0907127 C10.0775194,32.0907127 10.5813953,32.0907127 10.8837209,32.0907127 C11.3875969,24.1425486 18.1395349,18.0820734 26.1007752,18.0820734 C34.0620155,18.0820734 40.8139535,24.1425486 41.3178295,32.0907127 L42.124031,32.0907127 C47.4651163,32.0907127 51.8992248,27.7192225 51.8992248,22.3542117 C52.2015504,18.7775378 50.0852713,15.4989201 46.9612403,14.0086393 Z M26.1007752,20.0691145 C18.8449612,20.0691145 12.8992248,25.9308855 12.8992248,33.0842333 C12.8992248,40.237581 18.8449612,46 26.1007752,46 C33.3565891,46 39.3023256,40.237581 39.3023256,33.0842333 C39.3023256,25.9308855 33.3565891,20.0691145 26.1007752,20.0691145 Z M26.1007752,41.4298056 C21.4651163,41.4298056 17.8372093,37.8531317 17.8372093,33.2829374 C17.8372093,31.4946004 18.3410853,30.0043197 19.3488372,28.712743 L31.0387597,40.237581 C29.4263566,40.9330454 27.9147287,41.4298056 26.1007752,41.4298056 Z M33.0542636,37.6544276 L21.4651163,26.2289417 C22.7751938,25.4341253 24.2868217,24.6393089 26.1007752,24.6393089 C30.7364341,24.6393089 34.3643411,28.2159827 34.3643411,32.7861771 C34.3643411,34.8725702 33.8604651,36.362851 33.0542636,37.6544276 Z" id="Shape"></path>
        </g>
    </g>
</svg>