<?xml version="1.0" encoding="UTF-8"?>
<svg width="64px" height="64px" viewBox="0 0 64 64" version="1.1" xmlns="http://www.w3.org/2000/svg" xmlns:xlink="http://www.w3.org/1999/xlink">
    <!-- Generator: Sketch 52.6 (67491) - http://www.bohemiancoding.com/sketch -->
    <title>import-export</title>
    <desc>Created with Sketch.</desc>
    <g id="import-export" stroke="none" stroke-width="1" fill="none" fill-rule="evenodd">
        <g id="icon-import-export" transform="translate(6.000000, 10.000000)" fill="#000000" fill-rule="nonzero">
            <path d="M46.9612403,14.0086393 C46.9612403,14.0086393 46.9612403,13.7105832 46.9612403,14.0086393 C46.9612403,6.06047516 40.5116279,0 32.8527132,0 C27.6124031,0 22.9767442,2.78185745 20.4573643,6.85529158 C19.1472868,6.65658747 18.1395349,6.35853132 16.8294574,6.35853132 C12.3953488,6.35853132 8.56589147,9.14038877 7.25581395,13.2138229 C3.12403101,14.2073434 0,18.0820734 0,22.3542117 C0,27.7192225 4.43410853,32.0907127 9.87596899,32.0907127 C10.0775194,32.0907127 10.5813953,32.0907127 10.8837209,32.0907127 C11.3875969,24.1425486 18.1395349,18.0820734 26.1007752,18.0820734 C34.0620155,18.0820734 40.8139535,24.1425486 41.3178295,32.0907127 L42.124031,32.0907127 C47.4651163,32.0907127 51.8992248,27.7192225 51.8992248,22.3542117 C52.2015504,18.7775378 50.0852713,15.4989201 46.9612403,14.0086393 Z M26.1007752,20.0691145 C18.8449612,20.0691145 12.8992248,25.9308855 12.8992248,33.0842333 C12.8992248,40.237581 18.8449612,46 26.1007752,46 C33.3565891,46 39.3023256,40.237581 39.3023256,33.0842333 C39.3023256,25.9308855 33.3565891,20.0691145 26.1007752,20.0691145 Z M19.6511628,31.2958963 L24.2868217,35.8660907 L24.0852713,24.1425486 L27.6124031,24.1425486 L27.6124031,35.8660907 L32.248062,31.2958963 L34.5658915,33.5809935 L26.1007752,41.9265659 L17.6356589,33.5809935 L19.6511628,31.2958963 Z" id="Shape"></path>
        </g>
    </g>
</svg>