<?xml version="1.0" encoding="UTF-8"?>
<svg width="64px" height="64px" viewBox="0 0 64 64" version="1.1" xmlns="http://www.w3.org/2000/svg" xmlns:xlink="http://www.w3.org/1999/xlink">
    <!-- Generator: Sketch 52.6 (67491) - http://www.bohemiancoding.com/sketch -->
    <title>import-cloud-empty</title>
    <desc>Created with Sketch.</desc>
    <g id="import-cloud-empty" stroke="none" stroke-width="1" fill="none" fill-rule="evenodd">
        <path d="M52.5686654,30.0124224 C55.6866538,31.5031056 57.6982592,34.7826087 58,38.3602484 C58,43.7267081 53.5744681,48 48.1431335,48 L17.0638298,48 C16.5609284,48 16.2591876,48 15.7562863,48 C10.3249516,48 6,43.7267081 6,38.3602484 C6,33.9875776 9.01740812,30.2111801 13.1411992,29.2173913 C14.4487427,25.1428571 18.270793,22.3602484 22.696325,22.3602484 C23.7021277,22.3602484 25.0096712,22.5590062 26.0154739,22.8571429 C28.6305609,18.7826087 33.2572534,16 38.3868472,16 C46.131528,16 52.5686654,22.0621118 52.5686654,30.0124224 Z M27.9595847,26.5 L22.5,26.5 C19.4624339,26.5 17,28.9624339 17,32 C17,32.3414966 17.0311233,32.6757239 17.0906882,33 L15.5,33 C12.4624339,33 10,35.4624339 10,38.5 C10,41.5375661 12.4624339,44 15.5,44 L48,44 L48,43.9775785 C48.164681,43.9924187 48.3314552,44 48.5,44 C51.5375661,44 54,41.5375661 54,38.5 C54,35.5688232 51.7070365,33.1731966 48.8169702,33.008981 C48.9371773,32.3576192 49,31.6861461 49,31 C49,24.9248678 44.0751322,20 38,20 C33.528101,20 29.6794633,22.6684992 27.9595847,26.5 Z" fill="#000000"></path>
    </g>
</svg>