<?xml version="1.0" encoding="UTF-8"?>
<svg width="64px" height="64px" viewBox="0 0 64 64" version="1.1" xmlns="http://www.w3.org/2000/svg" xmlns:xlink="http://www.w3.org/1999/xlink">
    <!-- Generator: Sketch 63.1 (92452) - https://sketch.com -->
    <title>infinity</title>
    <desc>Created with Sketch.</desc>
    <g id="infinity" stroke="none" stroke-width="1" fill="none" fill-rule="evenodd">
        <path d="M45.3333333,19 C45.7635549,19 46.1913815,19.0218775 46.6172352,19.0654308 C47.0350502,19.1082777 47.452885,19.1740661 47.8778468,19.2626965 C48.2881504,19.3491938 48.6899208,19.4546955 49.0870414,19.5806607 C49.4797018,19.7055721 49.867196,19.8509119 50.2552644,20.0186047 C50.6324921,20.1827754 50.998689,20.3628833 51.363163,20.5648181 C51.7264004,20.7678849 52.0734696,20.9834993 52.3987485,21.2094608 C52.7350276,21.4414902 53.0602874,21.6896545 53.3815683,21.9602827 C53.695313,22.2266921 53.9926544,22.5027744 54.2742114,22.7907305 C54.5579608,23.0809286 54.8294311,23.3870372 55.0910378,23.7104785 C55.3501888,24.0311305 55.5942138,24.3646805 55.8229388,24.7108396 C56.0517254,25.0570921 56.2644789,25.4152995 56.4619571,25.786971 C56.6577397,26.1566305 56.836184,26.5352145 56.9983748,26.9266547 C57.1587912,27.316155 57.3009678,27.7121344 57.4297999,28.132004 C57.5541806,28.5460287 57.6581597,28.9602037 57.7405636,29.3746694 C57.8252486,29.7982267 57.8898772,30.230379 57.9345552,30.6742156 C57.977835,31.1168497 58,31.5584492 58,32 C58,32.4415508 57.977835,32.8831503 57.9336682,33.3347223 C57.8900477,33.7679274 57.8256399,34.1977179 57.7412132,34.6211632 C57.6579356,35.0400141 57.5536455,35.4551328 57.4251529,35.8815015 C57.3012372,36.2863397 57.158401,36.6841564 56.9971254,37.0745563 C56.8373903,37.4612268 56.6586198,37.8407987 56.4600659,38.215685 C56.2644789,38.5837914 56.0517254,38.9419988 55.8203273,39.2921969 C55.5921056,39.6364155 55.3500015,39.9679266 55.0869574,40.2945591 C54.8261161,40.6158681 54.5559031,40.9202667 54.2742114,41.2083604 C53.9926544,41.4963165 53.695313,41.7723988 53.3726428,42.0463563 C53.0630339,42.3071232 52.7398302,42.5540113 52.4005726,42.7892796 C52.063498,43.0222407 51.7149414,43.2387792 51.3535055,43.4396473 C50.9926309,43.6395636 50.6239079,43.8212079 50.2484694,43.9834329 C49.867196,44.148179 49.4797018,44.2935188 49.0847983,44.4191427 C48.682974,44.5465989 48.2788829,44.6530039 47.8719047,44.7376403 C47.4602951,44.8234794 47.044189,44.8887032 46.6164753,44.9337379 C46.1879704,44.9775623 45.7605851,45 45.3333333,45 C44.9060816,45 44.4786963,44.9775623 44.0418355,44.9328706 C43.6208195,44.8885286 43.202428,44.8230815 42.7953963,44.7379575 C42.3868949,44.6530039 41.9828038,44.5465989 41.5787364,44.4184302 C41.1875297,44.2939812 40.8010796,44.1491406 40.4135373,43.9821856 C40.1628755,43.8735458 39.9153471,43.7564275 39.6718563,43.6313297 L39.3097613,43.4377608 L39.1816831,43.3665802 L39.0611269,43.2824163 C37.9711074,42.5214404 36.839481,41.596494 35.6573149,40.5148222 C34.2643036,39.240229 32.8201645,37.766976 31.2803616,36.0737541 L29.9439751,34.5811444 C29.149929,33.6819185 28.4692383,32.8816025 27.0595844,31.1981749 L24.8889702,28.6078596 C23.9398598,27.4881094 23.4070384,26.8970169 23.1956575,26.717074 L23.0664683,26.6127199 C22.9667097,26.5286987 22.0768221,25.9144896 21.9673834,25.8532837 C21.7704913,25.7442099 21.5681536,25.6446158 21.3621973,25.5552511 C21.1520717,25.4644569 20.9404481,25.385082 20.7303128,25.3182336 C20.5153957,25.2500633 20.2919887,25.1914401 20.0661196,25.1436842 C19.8343261,25.0952094 19.6060108,25.0593104 19.3818759,25.0363874 C19.1464679,25.0122463 18.9069848,25 18.6666667,25 C18.4257771,25 18.186937,25.0122134 17.9498086,25.0364652 C17.7272368,25.0592282 17.4994262,25.0950725 17.2707357,25.142758 C17.0406751,25.1912578 16.819341,25.2494197 16.6030205,25.3182336 C16.3913722,25.3853672 16.1805068,25.464399 15.9770422,25.5523044 C15.763377,25.6452921 15.56069,25.7450582 15.3688088,25.8516977 C15.170015,25.9621228 14.983189,26.0781871 14.7978596,26.2069029 C14.6134193,26.334165 14.4371794,26.4687503 14.2717525,26.6085944 C14.0950572,26.7580796 13.9312113,26.9100652 13.7832373,27.0613937 C13.6259727,27.222881 13.4756709,27.3921816 13.3337045,27.5677033 C13.1946332,27.7397786 13.0635472,27.9189559 12.9402721,28.105524 C12.8204775,28.2868248 12.705343,28.4809378 12.5997348,28.6784835 C12.4929812,28.8800464 12.3962879,29.0851888 12.3130415,29.2860726 C12.224538,29.5009642 12.1477743,29.7151935 12.0834843,29.9265766 C12.0174578,30.1443042 11.9613717,30.3677094 11.9156747,30.5944215 C11.8705094,30.8203181 11.8356173,31.0536317 11.8127774,31.2803298 C11.7894995,31.5183998 11.7777778,31.7581618 11.7777778,32 C11.7777778,32.2418382 11.7894995,32.4816002 11.8118905,32.7107322 C11.8354401,32.9446091 11.8702156,33.1766642 11.9147302,33.3999644 C11.9613686,33.631366 12.0172853,33.8539379 12.0834843,34.0716052 C12.1480787,34.2846103 12.2241984,34.4970422 12.311792,34.7090801 C12.3967598,34.9147616 12.4929062,35.118903 12.5943474,35.3104816 C12.705343,35.5181531 12.8204775,35.7122661 12.9376606,35.8896213 C13.0647097,36.0812449 13.1980135,36.2637767 13.329624,36.4272591 C13.4746278,36.6058773 13.6261808,36.7764236 13.7791003,36.9334577 C13.9312113,37.0890257 14.0950572,37.2410113 14.2709067,37.3897813 C14.4370253,37.5302103 14.6149117,37.6662141 14.7996837,37.7943567 C14.9856617,37.922891 15.1727417,38.0391132 15.3693498,38.1476937 C15.5655631,38.2567409 15.7664334,38.355773 15.9702471,38.4438398 C16.1805068,38.5346919 16.3913722,38.6137238 16.6052636,38.6815698 C16.8249536,38.7514566 17.0438646,38.8091412 17.2647936,38.8550869 C17.4934512,38.9027723 17.7242226,38.9389204 17.9498086,38.9626257 C18.1927802,38.9874751 18.4313499,39 18.6666667,39 C18.9014186,39 19.1406678,38.9874394 19.3750598,38.963411 C19.609069,38.9388314 19.8402231,38.9026482 20.0676508,38.8550869 C20.2886418,38.8090004 20.5097264,38.7508259 20.7280697,38.6815698 C20.9404481,38.6140089 21.1520717,38.534634 21.365066,38.4426022 C21.5653641,38.3563168 21.7654897,38.2576518 21.9639835,38.1476937 C22.1595821,38.0389881 22.3496453,37.9209127 22.5327608,37.7943567 C22.6550858,37.7098147 22.7747978,37.6212824 22.8895137,37.5308149 L23.0575428,37.3939191 C23.2703712,37.2132006 23.3776535,37.1172865 23.4479216,37.0452402 L23.6304137,36.8574851 L25.8957471,34.7302124 L29.7958085,39.1570604 L27.5925185,41.224 L27.5583295,41.2624764 C27.3570065,41.4742351 27.1620153,41.6543715 26.8836893,41.8944116 L26.7059762,42.0463563 C26.3928456,42.3100893 26.0689934,42.5576919 25.7339059,42.7892796 C25.3968313,43.0222407 25.0482748,43.2387792 24.6868388,43.4396473 C24.3230153,43.6411972 23.9544772,43.8228921 23.5818027,43.9834329 C23.2005294,44.148179 22.8130351,44.2935188 22.4181317,44.4191427 C22.0180583,44.5460435 21.6134358,44.6525128 21.2067693,44.7373205 C20.7956621,44.823295 20.3778774,44.888692 19.9496797,44.9336601 C19.5221974,44.9774983 19.0935944,45 18.6666667,45 C18.2394149,45 17.8120296,44.9775623 17.3759487,44.9329526 C16.9557372,44.8888149 16.5393719,44.8235954 16.1287296,44.7379575 C15.7191511,44.65278 15.3142201,44.5460778 14.9152017,44.4191427 C14.5214075,44.2942337 14.1332042,44.148736 13.7506418,43.9834329 C13.3734311,43.8204423 13.0035225,43.6380717 12.6498799,43.4415197 C12.2905499,43.243095 11.9406526,43.0257237 11.5947457,42.7866538 C11.2570267,42.552448 10.9326665,42.304457 10.6224698,42.0422307 C10.3075136,41.7757759 10.0085093,41.4984157 9.72076272,41.2041209 C9.4390068,40.9147996 9.16907007,40.6110333 8.9047096,40.2853519 C8.64910965,39.9679266 8.40700548,39.6364155 8.17617234,39.2882513 C7.95094439,38.9473846 7.74027474,38.5922025 7.53715404,38.2121199 C7.34049135,37.8407987 7.16172077,37.4612268 7.00198574,37.0745563 C6.83911657,36.6802989 6.69569619,36.2800467 6.57323915,35.8762316 C6.44944177,35.4691833 6.34507906,35.0537758 6.25822143,34.6227881 C6.17347125,34.1977179 6.1090634,33.7679274 6.06455591,33.3257844 C6.02161163,32.8865816 6,32.4445254 6,32 C6,31.5554746 6.02161163,31.1134184 6.06544286,30.6652777 C6.10923393,30.230379 6.17386247,29.7982267 6.25949205,29.3699644 C6.34484621,28.9464704 6.44894798,28.5318067 6.57323915,28.1219502 C6.69595361,27.7184626 6.838709,27.3200663 7.00324485,26.9205823 C7.16292706,26.5352145 7.34137142,26.1566305 7.54254148,25.7768452 C7.74027474,25.4068884 7.95094439,25.0517063 8.17617234,24.7108396 C8.40489727,24.3646805 8.64892231,24.0311305 8.90877867,23.7096061 C9.16589737,23.3917139 9.43690698,23.0864476 9.72489967,22.7907305 C10.0085093,22.5006752 10.3075136,22.223315 10.6233155,21.9561449 C10.9353713,21.6923474 11.2618656,21.4430205 11.5929493,21.214593 C11.9303927,20.9801991 12.2798163,20.763122 12.6430946,20.5613301 C12.9976237,20.3642975 13.3647997,20.1835671 13.7506418,20.015658 C14.1332042,19.8503549 14.5214075,19.7048572 14.9129586,19.5806607 C15.307385,19.4551875 15.709853,19.3494273 16.1272064,19.2614506 C16.5467732,19.173952 16.9648267,19.1081744 17.3835247,19.065353 C17.8086185,19.0218775 18.2364451,19 18.6666667,19 C19.0965707,19 19.5255512,19.0219365 19.9489197,19.065353 C20.3686893,19.108284 20.7883979,19.1742767 21.2127217,19.2630219 C21.622944,19.3497436 22.0249279,19.4552264 22.4203747,19.5806607 C22.8130351,19.7055721 23.2005294,19.8509119 23.5857176,20.0173532 C23.9626589,20.1809021 24.329202,20.361321 24.6964963,20.5648181 C25.0295709,20.7510225 25.8044137,21.2755366 26.3216731,21.6560874 C26.4246592,21.7318549 26.5174346,21.8019156 26.5944797,21.8624632 L26.7059762,21.9527346 L26.7037037,21.955 L26.7631037,22.008262 C27.9835798,23.1441427 32.8816042,28.9720412 34.5665907,30.9252921 L34.9928523,31.4133755 C36.6080013,33.2154769 38.089545,34.7435226 39.4769695,36.0130041 C40.3566068,36.8178646 41.1850934,37.5057716 41.9572101,38.069208 L42.1573333,38.212 L42.2336864,38.2533852 C42.30001,38.2874781 42.3666652,38.3203865 42.4333456,38.3519696 L42.6331563,38.4426022 C42.8461502,38.5343568 43.0587117,38.6140244 43.2687983,38.6808573 C43.4909168,38.7513118 43.7105418,38.8091434 43.9329915,38.8554067 C44.157927,38.9024473 44.3902132,38.9387827 44.6164753,38.9626257 C44.8594468,38.9874751 45.0980165,39 45.3333333,39 C45.5686501,39 45.8072198,38.9874751 46.0418355,38.963493 C46.2747356,38.9389637 46.5057674,38.9027499 46.7358407,38.8547697 C46.955236,38.8091434 47.174861,38.7513118 47.3947364,38.6815698 C47.6071148,38.6140089 47.8187383,38.534634 48.028864,38.4438398 C48.232614,38.3558006 48.434633,38.2562798 48.6306502,38.1476937 C48.8262488,38.0389881 49.0163119,37.9209127 49.1956346,37.7969825 C49.3841044,37.66628 49.5635205,37.5292281 49.7242094,37.3939191 C49.903168,37.2419604 50.0681048,37.0888161 50.2200108,36.9334577 C50.3717821,36.7782371 50.5212574,36.6098512 50.6620429,36.4364663 C50.8010976,36.2637767 50.9344014,36.0812449 51.058839,35.8935669 C51.1815801,35.7078068 51.2960047,35.5151532 51.3993763,35.3206074 C51.5062049,35.118903 51.6023513,34.9147616 51.6873191,34.7090801 C51.7748529,34.497187 51.852047,34.2821918 51.914912,34.0769108 C51.9831548,33.85041 52.0390325,33.6279934 52.0831103,33.4063028 C52.1288955,33.1766642 52.163671,32.9446091 52.1863337,32.7196702 C52.2102016,32.475567 52.2222222,32.2360761 52.2222222,32 C52.2222222,31.7639239 52.2102016,31.524433 52.1872206,31.2892678 C52.1634938,31.0536317 52.1286017,30.8203181 52.0827868,30.5911632 C52.0390349,30.3711096 51.9830152,30.1479688 51.9195822,29.9366272 C51.8523422,29.7175876 51.7744977,29.5007809 51.6885782,29.292145 C51.6028232,29.0851888 51.5061299,28.8800464 51.4012675,28.6820486 C51.2960047,28.4839378 51.1815801,28.2912841 51.058839,28.105524 C50.9355639,27.9189559 50.8044779,27.7397786 50.666112,27.5685758 C50.5203163,27.3883193 50.371982,27.2210583 50.2200108,27.0656332 C50.0681048,26.9102748 49.903168,26.7571305 49.7331349,26.6127199 C49.5633454,26.4697154 49.3856157,26.3341125 49.1938382,26.2017706 C49.0186971,26.0801147 48.8294457,25.9625435 48.6340501,25.8532837 C48.4396159,25.7455716 48.2356733,25.6452657 48.028864,25.5552511 C47.8187383,25.4644569 47.6071148,25.385082 47.3969795,25.3182336 C47.1805485,25.2495831 46.9584293,25.1912564 46.7343175,25.144004 C46.4997852,25.0950934 46.271695,25.0591805 46.0501914,25.0364652 C45.813063,25.0122134 45.5742229,25 45.3333333,25 C45.0924437,25 44.8536037,25.0122134 44.6172352,25.0363874 C44.3933471,25.0593471 44.1638068,25.095414 43.9374023,25.142758 C43.7073485,25.1912564 43.4852292,25.2495831 43.2710414,25.3175211 C43.0587117,25.3850665 42.8461502,25.4647341 42.6457137,25.5510431 C42.4306934,25.6449059 42.2271713,25.7451612 42.0388676,25.8498105 C41.8355922,25.9630868 41.6472577,26.0799917 41.460735,26.2095144 C41.281112,26.3330296 41.1067079,26.4663311 40.9384191,26.6085944 L40.6402708,26.8678358 L40.5322274,26.9733289 L37.767783,29.554238 L34.0406615,25.4639438 L36.3223606,22.8639721 C36.6125974,22.5461133 36.8690275,22.3122749 37.2899822,21.9561449 C37.6054303,21.6894797 37.9325182,21.439478 38.2596159,21.214593 C38.5940919,20.9822604 38.9426043,20.7659281 39.3097613,20.5613301 C39.662697,20.3651831 40.0287299,20.1848747 40.4192882,20.0144204 C40.8010796,19.8499503 41.1875297,19.7051097 41.5809795,19.5799482 C41.9758569,19.4546955 42.3776273,19.3491938 42.7923418,19.2617704 C43.2096462,19.1744999 43.630138,19.1084293 44.0501914,19.065353 C44.4752852,19.0218775 44.9031118,19 45.3333333,19 Z" id="Path" fill="#000000" fill-rule="nonzero"></path>
    </g>
</svg>