<?xml version="1.0" encoding="UTF-8"?>
<svg width="64px" height="64px" viewBox="0 0 64 64" version="1.1" xmlns="http://www.w3.org/2000/svg" xmlns:xlink="http://www.w3.org/1999/xlink">
    <!-- Generator: Sketch 52.6 (67491) - http://www.bohemiancoding.com/sketch -->
    <title>information-board</title>
    <desc>Created with Sketch.</desc>
    <g id="information-board" stroke="none" stroke-width="1" fill="none" fill-rule="evenodd">
        <g id="icon-information-board" transform="translate(6.000000, 11.000000)" fill="#000000" fill-rule="nonzero">
            <path d="M52,22.9908257 C52,17.7247706 52,12.4587156 52,6.93577982 C52,4.62385321 51.1207729,3.59633028 48.8599034,3.59633028 C46.8502415,3.59633028 45.3429952,3.59633028 43.3333333,3.59633028 C41.4492754,3.59633028 41.4492754,3.59633028 41.4492754,1.66972477 C41.4492754,0.642201835 41.0724638,0 40.1932367,0 C38.8115942,0 38.5603865,0.385321101 38.5603865,1.66972477 C38.5603865,2.05504587 38.5603865,2.31192661 38.5603865,2.69724771 C38.8115942,3.59633028 38.1835749,3.59633028 37.5555556,3.59633028 C30.5217391,3.59633028 23.1111111,3.59633028 16.0772947,3.59633028 C14.0676329,3.59633028 14.0676329,3.59633028 14.0676329,1.66972477 C14.0676329,0 13.8164251,0 12.4347826,0 C11.178744,0 10.9275362,0.385321101 10.9275362,1.66972477 C10.9275362,2.05504587 10.9275362,2.31192661 10.9275362,2.69724771 C10.9275362,3.59633028 10.5507246,3.59633028 9.92270531,3.59633028 C7.66183575,3.59633028 5.40096618,3.59633028 3.14009662,3.59633028 C0.879227053,3.59633028 0,4.62385321 0,6.55045872 C0,17.4678899 0,28.6422018 0,39.4311927 C0,39.8165138 0,40.0733945 0.251207729,40.0733945 C0.879227053,41.7431193 2.26086957,42.1284404 3.76811594,41.7431193 C5.40096618,41.7431193 7.03381643,41.7431193 8.66666667,41.7431193 C10.2995169,41.7431193 11.8067633,41.7431193 13.4396135,41.7431193 C15.0724638,41.7431193 16.705314,41.7431193 18.3381643,41.7431193 C19.8454106,41.7431193 21.8550725,41.7431193 23.4879227,41.7431193 C24.9951691,41.7431193 26.6280193,41.7431193 27.884058,41.7431193 C30.1449275,41.7431193 32.7826087,41.7431193 35.0434783,41.7431193 C39.5652174,41.7431193 43.7101449,41.7431193 48.2318841,41.7431193 C50.4927536,41.7431193 52,41.1009174 52,37.8899083 C52,33.266055 52,28 52,22.9908257 Z M48.8599034,40.8440367 C44.3381643,40.8440367 39.5652174,40.8440367 35.0434783,40.8440367 C32.4057971,40.8440367 30.1449275,40.8440367 27.6328502,40.8440367 C23.7391304,41.1009174 19.5942029,40.8440367 15.7004831,40.8440367 C14.0676329,40.8440367 12.1835749,41.1009174 10.5507246,40.8440367 C8.28985507,40.8440367 6.02898551,40.8440367 3.76811594,40.8440367 C3.14009662,40.8440367 2.88888889,40.8440367 2.26086957,40.8440367 C1.50724638,40.4587156 0.879227053,39.8165138 0.879227053,38.7889908 C0.879227053,28 0.879227053,17.4678899 0.879227053,6.55045872 C0.879227053,5.00917431 1.25603865,4.62385321 3.14009662,4.62385321 C10.9275362,4.62385321 18.3381643,4.62385321 26,4.62385321 C33.6618357,4.62385321 41.0724638,4.62385321 48.8599034,4.62385321 C50.4927536,4.62385321 51.1207729,5.00917431 51.1207729,6.93577982 C51.1207729,17.4678899 51.1207729,28 51.1207729,38.5321101 C51.1207729,40.4587156 50.4927536,40.8440367 48.8599034,40.8440367 Z M48.8599034,35.5779817 C48.8599034,26.3302752 48.8599034,17.4678899 48.8599034,8.22018349 C48.8599034,7.19266055 48.4830918,6.93577982 47.8550725,7.19266055 C33.410628,7.19266055 18.9661836,7.19266055 4.39613527,7.19266055 C3.51690821,6.93577982 3.14009662,7.19266055 3.14009662,8.22018349 C3.14009662,16.8256881 3.14009662,25.0458716 3.14009662,33.5229358 C3.14009662,35.1926606 3.14009662,36.4770642 3.14009662,38.146789 C3.14009662,38.7889908 3.14009662,38.7889908 3.76811594,38.7889908 C6.02898551,38.7889908 8.28985507,38.7889908 10.5507246,38.7889908 C15.7004831,38.7889908 20.8502415,38.7889908 26,38.7889908 C26.6280193,38.7889908 27.6328502,38.7889908 28.2608696,38.7889908 C34.4154589,38.7889908 40.1932367,38.7889908 46.2222222,38.7889908 C49.1111111,38.7889908 49.1111111,38.7889908 48.8599034,35.8348624 C48.8599034,35.8348624 48.8599034,35.5779817 48.8599034,35.5779817 Z M7.66183575,10.2752294 C10.5507246,10.2752294 13.4396135,10.2752294 16.705314,10.2752294 C19.5942029,10.2752294 22.4830918,10.2752294 25.3719807,10.2752294 C26,10.2752294 26.6280193,10.2752294 26.6280193,11.1743119 C26.6280193,12.2018349 26.3768116,12.4587156 25.3719807,12.4587156 C19.5942029,12.4587156 13.8164251,12.4587156 7.66183575,12.4587156 C6.65700483,12.4587156 6.4057971,12.4587156 6.4057971,11.559633 C6.4057971,10.5321101 7.03381643,10.2752294 7.66183575,10.2752294 Z M13.8164251,15.7981651 C17.5845411,15.7981651 21.4782609,15.7981651 25.3719807,15.7981651 C26.3768116,15.7981651 26.6280193,16.1834862 26.6280193,17.0825688 C26.6280193,17.7247706 26.3768116,18.4954128 25.6231884,18.4954128 C23.7391304,18.4954128 21.8550725,18.4954128 19.8454106,18.4954128 C17.9613527,18.4954128 16.0772947,18.4954128 14.0676329,18.4954128 C12.8115942,18.4954128 12.8115942,17.7247706 13.1884058,17.4678899 C13.1884058,16.8256881 12.4347826,15.7981651 13.8164251,15.7981651 Z M7.66183575,15.7981651 C8.28985507,15.7981651 8.9178744,15.7981651 9.92270531,15.7981651 C11.178744,15.7981651 11.8067633,16.8256881 11.178744,18.1100917 C11.178744,18.4954128 10.9275362,18.4954128 10.5507246,18.4954128 C9.92270531,18.4954128 9.54589372,18.4954128 8.9178744,18.4954128 C8.66666667,18.4954128 8.28985507,18.4954128 7.66183575,18.4954128 C6.65700483,18.4954128 6.4057971,18.1100917 6.4057971,17.0825688 C6.4057971,16.440367 6.65700483,15.7981651 7.66183575,15.7981651 Z M25.3719807,35.5779817 C22.7342995,35.5779817 20.47343,35.5779817 17.9613527,35.5779817 C14.4444444,35.5779817 10.9275362,35.5779817 7.41062802,35.5779817 C6.4057971,35.5779817 6.4057971,34.9357798 6.4057971,34.1651376 C6.4057971,33.5229358 6.65700483,33.266055 7.41062802,33.266055 C10.2995169,33.266055 13.4396135,33.266055 16.3285024,33.266055 C19.2173913,33.266055 22.1062802,33.266055 24.9951691,33.266055 C26,33.266055 26.3768116,33.5229358 26.3768116,34.5504587 C26.6280193,35.1926606 26,35.5779817 25.3719807,35.5779817 Z M6.4057971,28.6422018 C6.4057971,27.6146789 7.03381643,27.3577982 7.66183575,27.3577982 C8.28985507,27.3577982 8.9178744,27.3577982 9.92270531,27.3577982 C10.2995169,27.3577982 10.9275362,26.9724771 11.178744,27.6146789 C11.5555556,28.2568807 11.178744,28.8990826 11.178744,29.6697248 C11.178744,29.9266055 10.9275362,29.9266055 10.5507246,29.9266055 C9.92270531,29.9266055 9.54589372,29.9266055 8.9178744,29.9266055 C8.66666667,29.9266055 8.28985507,29.9266055 7.66183575,29.9266055 C7.03381643,29.9266055 6.4057971,29.6697248 6.4057971,28.6422018 Z M13.8164251,27.3577982 C17.5845411,27.3577982 21.4782609,27.3577982 25.3719807,27.3577982 C26.3768116,27.3577982 26.3768116,27.6146789 26.3768116,28.6422018 C26.3768116,29.2844037 26,29.9266055 25.3719807,29.6697248 C23.4879227,29.6697248 21.4782609,29.6697248 19.5942029,29.6697248 C17.5845411,29.6697248 15.7004831,29.6697248 13.8164251,29.6697248 C12.8115942,29.6697248 12.8115942,29.2844037 12.8115942,28.6422018 C13.1884058,28.2568807 12.4347826,27.3577982 13.8164251,27.3577982 Z M25.3719807,24.0183486 C19.5942029,24.0183486 13.8164251,24.0183486 7.66183575,24.0183486 C6.65700483,24.0183486 6.4057971,23.6330275 6.4057971,22.733945 C6.4057971,21.706422 7.03381643,21.4495413 7.66183575,21.4495413 C10.5507246,21.4495413 13.4396135,21.4495413 16.3285024,21.4495413 C19.2173913,21.4495413 22.1062802,21.4495413 24.9951691,21.4495413 C26,21.4495413 26.3768116,21.4495413 26.3768116,22.733945 C26.6280193,23.6330275 26,24.0183486 25.3719807,24.0183486 Z M41.7004831,34.1651376 C40.4444444,34.5504587 39.1884058,34.9357798 37.5555556,34.9357798 C35.0434783,34.9357798 33.6618357,33.266055 34.0386473,30.5688073 C34.4154589,28.6422018 35.9227053,23.3761468 35.9227053,22.733945 C35.9227053,21.706422 35.6714976,21.0642202 34.6666667,21.0642202 C34.0386473,21.0642202 33.410628,21.0642202 32.7826087,21.0642202 C32.7826087,20.4220183 32.7826087,19.7798165 33.6618357,19.7798165 C35.294686,19.1376147 36.9275362,18.4954128 38.8115942,19.1376147 C40.4444444,19.3944954 41.4492754,20.4220183 41.4492754,22.3486239 C41.0724638,24.4036697 39.8164251,29.6697248 39.5652174,30.5688073 C39.1884058,32.2385321 39.8164251,32.8807339 41.4492754,32.6238532 C42.0772947,32.6238532 42.4541063,32.6238532 43.0821256,32.2385321 C42.705314,33.5229358 42.4541063,33.9082569 41.7004831,34.1651376 Z M40.1932367,16.440367 C38.5603865,16.440367 36.9275362,15.1559633 37.3043478,13.4862385 C37.3043478,11.8165138 38.5603865,10.9174312 40.4444444,10.9174312 C42.0772947,10.9174312 43.3333333,12.2018349 43.3333333,13.8715596 C43.0821256,15.412844 41.7004831,16.440367 40.1932367,16.440367 Z" id="Shape"></path>
        </g>
    </g>
</svg>