<?xml version="1.0" encoding="UTF-8"?>
<svg width="64px" height="64px" viewBox="0 0 64 64" version="1.1" xmlns="http://www.w3.org/2000/svg" xmlns:xlink="http://www.w3.org/1999/xlink">
    <title>injection-needle</title>
    <g id="injection-needle" stroke="none" stroke-width="1" fill="none" fill-rule="evenodd">
        <path d="M47.5979797,7.29289322 L57.4974747,17.1923882 C57.887999,17.5829124 57.887999,18.2160774 57.4974747,18.6066017 L55.3761543,20.7279221 L51.8406959,17.1937269 L49.512,19.521 L53.0477272,23.0563492 L30.0667568,46.0373196 C28.745483,47.3585934 26.6306393,47.4026359 25.2564608,46.169447 L25.1170094,46.0373196 L24.0563492,44.9766594 L21.9350288,47.0979797 C21.5445046,47.488504 20.9113396,47.488504 20.5208153,47.0979797 L19.8140381,46.3919576 L8.47487373,57.7297077 L6,57.3761543 L18.3998245,44.977744 L17.6923882,44.2695526 C17.3018639,43.8790283 17.3018639,43.2458634 17.6923882,42.8553391 L19.8137085,40.7340187 L18.7530483,39.6733585 C17.4317745,38.3520847 17.387732,36.237241 18.6209209,34.8630625 L18.7530483,34.7236111 L41.7340187,11.7426407 L45.27,15.278 L47.5980553,12.9510862 L44.0624458,9.41421356 L46.1837662,7.29289322 C46.5742905,6.90236893 47.2074555,6.90236893 47.5979797,7.29289322 Z M41.7340187,15.9852814 L40.1727269,17.5465731 L42.7444264,20.1170094 L40.623106,22.2383297 L38.0514066,19.6678935 L36.3444508,21.3748493 L38.9159992,23.9454365 L36.7946789,26.0667568 L34.2231305,23.4961696 L32.5161747,25.2031254 L35.0875721,27.7738636 L32.9662518,29.895184 L30.3948544,27.3244457 L25.8237386,31.8955615 L38.1977777,33.663658 L48.8050865,23.0563492 L41.7340187,15.9852814 Z" id="Shape" fill="#000000"></path>
    </g>
</svg>