<?xml version="1.0" encoding="UTF-8"?>
<svg width="64px" height="64px" viewBox="0 0 64 64" version="1.1" xmlns="http://www.w3.org/2000/svg" xmlns:xlink="http://www.w3.org/1999/xlink">
    <!-- Generator: Sketch 52.6 (67491) - http://www.bohemiancoding.com/sketch -->
    <title>inspection-fire</title>
    <desc>Created with Sketch.</desc>
    <g id="inspection-fire" stroke="none" stroke-width="1" fill="none" fill-rule="evenodd">
        <g id="icon-inspection-fire" transform="translate(9.000000, 6.000000)" fill="#000000" fill-rule="nonzero">
            <path d="M29.6195122,6.48602151 C29.6195122,2.79569892 26.702439,0 23,0 C19.297561,0 16.3804878,2.79569892 16.3804878,6.48602151 L10.097561,6.48602151 L10.097561,13.083871 L36.2390244,13.083871 L36.2390244,6.48602151 L29.6195122,6.48602151 Z M23,9.72903226 C21.3170732,9.72903226 19.8585366,8.27526882 19.8585366,6.48602151 C19.8585366,4.80860215 21.3170732,3.35483871 23,3.35483871 C24.6829268,3.35483871 26.1414634,4.80860215 26.1414634,6.48602151 C26.1414634,8.27526882 24.6829268,9.72903226 23,9.72903226 Z M39.3804878,6.48602151 L39.3804878,16.2150538 L6.6195122,16.2150538 L6.6195122,6.48602151 L0,6.48602151 L0,52 L46,52 L46,6.48602151 L39.3804878,6.48602151 Z M30.5170732,40.5935484 C29.6195122,41.711828 28.1609756,42.9419355 26.702439,43.5010753 C28.497561,38.5806452 26.702439,34.5548387 23,31.4236559 C23,33.4365591 22.6634146,35.4494624 21.3170732,37.1268817 C21.5414634,36.0086022 21.3170732,35.1139785 20.7560976,33.9956989 C20.4195122,36.0086022 19.297561,37.1268817 18.4,38.916129 C17.502439,40.3698925 17.502439,42.0473118 18.4,43.7247312 C16.3804878,42.2709677 14.3609756,41.1526882 13.8,38.916129 C13.5756098,37.1268817 13.8,35.7849462 14.3609756,33.9956989 C14.697561,33.2129032 15.2585366,32.3182796 15.8195122,31.2 C16.1560976,30.5290323 16.3804878,29.7462366 16.3804878,28.8516129 C16.9414634,29.9698925 16.9414634,31.2 17.2780488,32.3182796 C19.297561,29.4107527 21.3170732,26.8387097 21.3170732,23.372043 C21.3170732,22.5892473 21.5414634,22.5892473 22.102439,22.8129032 C24.4585366,24.2666667 25.9170732,26.2795699 26.702439,28.8516129 C27.0390244,29.4107527 27.0390244,29.7462366 27.2634146,30.3053763 C28.1609756,29.4107527 28.1609756,29.1870968 27.9365854,26.8387097 C28.7219512,27.3978495 29.0585366,27.9569892 29.6195122,28.8516129 C30.7414634,30.3053763 31.6390244,31.9827957 32.2,33.772043 C32.7609756,36.344086 32.2,38.5806452 30.5170732,40.5935484 Z" id="Shape"></path>
        </g>
    </g>
</svg>