<?xml version="1.0" encoding="UTF-8"?>
<svg width="64px" height="64px" viewBox="0 0 64 64" version="1.1" xmlns="http://www.w3.org/2000/svg" xmlns:xlink="http://www.w3.org/1999/xlink">
    <!-- Generator: Sketch 52.6 (67491) - http://www.bohemiancoding.com/sketch -->
    <title>inspection-setup</title>
    <desc>Created with Sketch.</desc>
    <g id="inspection-setup" stroke="none" stroke-width="1" fill="none" fill-rule="evenodd">
        <g id="icon-inspection-setup" transform="translate(9.000000, 6.000000)" fill="#000000" fill-rule="nonzero">
            <path d="M29.6195122,6.48602151 C29.6195122,2.79569892 26.702439,0 23,0 C19.297561,0 16.3804878,2.79569892 16.3804878,6.48602151 L10.097561,6.48602151 L10.097561,13.083871 L36.2390244,13.083871 L36.2390244,6.48602151 L29.6195122,6.48602151 Z M23,9.72903226 C21.3170732,9.72903226 19.8585366,8.27526882 19.8585366,6.48602151 C19.8585366,4.80860215 21.3170732,3.35483871 23,3.35483871 C24.6829268,3.35483871 26.1414634,4.80860215 26.1414634,6.48602151 C26.1414634,8.27526882 24.6829268,9.72903226 23,9.72903226 Z M27.9365854,33.2129032 C27.9365854,35.8967742 25.6926829,38.0215054 23,38.0215054 C20.3073171,38.0215054 18.0634146,35.8967742 18.0634146,33.2129032 C18.0634146,30.4172043 20.3073171,28.2924731 23,28.2924731 C25.6926829,28.2924731 27.9365854,30.4172043 27.9365854,33.2129032 Z M39.3804878,6.48602151 L39.3804878,16.2150538 L6.6195122,16.2150538 L6.6195122,6.48602151 L0,6.48602151 L0,52 L46,52 L46,6.48602151 L39.3804878,6.48602151 Z M34.2195122,34.5548387 L31.302439,34.5548387 C31.0780488,35.7849462 30.7414634,36.9032258 29.8439024,37.6860215 L31.8634146,39.6989247 L29.6195122,42.0473118 L27.6,40.0344086 C26.702439,40.5935484 25.5804878,41.1526882 24.4585366,41.1526882 L24.4585366,44.283871 L21.5414634,44.283871 L21.5414634,41.1526882 C20.4195122,40.9290323 19.5219512,40.5935484 18.7365854,40.0344086 L16.3804878,42.2709677 L14.1365854,40.3698925 L16.3804878,38.0215054 C15.8195122,37.1268817 15.2585366,36.0086022 14.9219512,34.8903226 L11.7804878,34.8903226 L11.7804878,31.7591398 L14.9219512,31.7591398 C15.2585366,30.5290323 15.4829268,29.7462366 16.1560976,28.627957 L14.1365854,26.2795699 L16.3804878,24.0430108 L18.4,26.055914 C19.297561,25.7204301 20.4195122,25.3849462 21.5414634,25.1612903 L21.5414634,22.2537634 L24.6829268,22.2537634 L24.6829268,25.1612903 C25.9170732,25.3849462 26.702439,25.7204301 27.9365854,26.2795699 L29.8439024,24.2666667 L32.2,26.2795699 L30.1804878,28.2924731 C30.7414634,29.1870968 31.302439,30.3053763 31.6390244,31.4236559 L34.4439024,31.4236559 L34.4439024,34.5548387 L34.2195122,34.5548387 Z" id="Shape"></path>
        </g>
    </g>
</svg>