<?xml version="1.0" encoding="UTF-8"?>
<svg width="64px" height="64px" viewBox="0 0 64 64" version="1.1" xmlns="http://www.w3.org/2000/svg" xmlns:xlink="http://www.w3.org/1999/xlink">
    <!-- Generator: Sketch 52.6 (67491) - http://www.bohemiancoding.com/sketch -->
    <title>inspection-unknown</title>
    <desc>Created with Sketch.</desc>
    <g id="inspection-unknown" stroke="none" stroke-width="1" fill="none" fill-rule="evenodd">
        <g id="icon-inspection-unknown" transform="translate(9.000000, 6.000000)" fill="#000000" fill-rule="nonzero">
            <path d="M29.6195122,6.48602151 C29.6195122,2.79569892 26.702439,0 23,0 C19.297561,0 16.3804878,2.79569892 16.3804878,6.48602151 L10.097561,6.48602151 L10.097561,13.083871 L36.2390244,13.083871 L36.2390244,6.48602151 L29.6195122,6.48602151 Z M23,9.72903226 C21.3170732,9.72903226 19.8585366,8.27526882 19.8585366,6.48602151 C19.8585366,4.80860215 21.3170732,3.35483871 23,3.35483871 C24.6829268,3.35483871 26.1414634,4.80860215 26.1414634,6.48602151 C26.1414634,8.27526882 24.6829268,9.72903226 23,9.72903226 Z M39.3804878,6.48602151 L39.3804878,16.2150538 L6.6195122,16.2150538 L6.6195122,6.48602151 L0,6.48602151 L0,52 L46,52 L46,6.48602151 L39.3804878,6.48602151 Z M22.6634146,46.855914 C20.9804878,46.855914 19.5219512,45.7376344 19.5219512,44.0602151 C19.5219512,42.2709677 20.9804878,40.9290323 22.6634146,40.9290323 C24.4585366,40.9290323 25.9170732,42.2709677 25.9170732,44.0602151 C25.9170732,45.5139785 24.4585366,46.855914 22.6634146,46.855914 Z M28.7219512,32.5419355 C27.9365854,33.4365591 27.2634146,33.9956989 26.4780488,34.8903226 C25.5804878,35.7849462 25.0195122,36.5677419 24.6829268,37.6860215 C24.4585366,38.916129 23.5609756,39.4752688 22.4390244,39.4752688 C21.3170732,39.4752688 20.7560976,38.5806452 20.7560976,37.1268817 C20.7560976,35.4494624 21.3170732,33.9956989 22.6634146,32.8774194 C23.5609756,32.3182796 24.1219512,31.7591398 24.6829268,30.8645161 C25.5804878,29.9698925 25.9170732,29.1870968 25.2439024,28.2924731 C24.6829268,27.3978495 23.5609756,27.1741935 22.4390244,27.3978495 C21.3170732,27.7333333 20.4195122,28.627957 20.0829268,29.7462366 C19.8585366,30.5290323 19.297561,31.2 18.4,31.4236559 C16.7170732,31.7591398 15.4829268,30.3053763 15.8195122,28.627957 C16.3804878,26.055914 18.0634146,24.6021505 20.4195122,23.7075269 C21.3170732,23.372043 22.102439,23.372043 23,23.1483871 C24.6829268,23.1483871 26.1414634,23.7075269 27.6,24.6021505 C30.5170732,26.6150538 31.0780488,29.9698925 28.7219512,32.5419355 Z" id="Shape"></path>
        </g>
    </g>
</svg>