<?xml version="1.0" encoding="UTF-8"?>
<svg width="64px" height="64px" viewBox="0 0 64 64" version="1.1" xmlns="http://www.w3.org/2000/svg" xmlns:xlink="http://www.w3.org/1999/xlink">
    <!-- Generator: Sketch 52.6 (67491) - http://www.bohemiancoding.com/sketch -->
    <title>inspection-electric</title>
    <desc>Created with Sketch.</desc>
    <g id="inspection-electric" stroke="none" stroke-width="1" fill="none" fill-rule="evenodd">
        <g id="icon-inspection-electric" transform="translate(9.000000, 6.000000)" fill="#000000" fill-rule="nonzero">
            <path d="M29.6195122,6.48602151 C29.6195122,2.79569892 26.702439,0 23,0 C19.297561,0 16.3804878,2.79569892 16.3804878,6.48602151 L10.097561,6.48602151 L10.097561,13.083871 L36.2390244,13.083871 L36.2390244,6.48602151 L29.6195122,6.48602151 Z M23,9.72903226 C21.3170732,9.72903226 19.8585366,8.27526882 19.8585366,6.48602151 C19.8585366,4.80860215 21.3170732,3.35483871 23,3.35483871 C24.6829268,3.35483871 26.1414634,4.80860215 26.1414634,6.48602151 C26.1414634,8.27526882 24.6829268,9.72903226 23,9.72903226 Z M39.3804878,6.48602151 L39.3804878,16.2150538 L6.6195122,16.2150538 L6.6195122,6.48602151 L0,6.48602151 L0,52 L46,52 L46,6.48602151 L39.3804878,6.48602151 Z M18.7365854,46.6322581 C18.4,46.2967742 23,37.1268817 22.6634146,36.5677419 C22.4390244,36.344086 17.8390244,34.5548387 17.502439,33.9956989 C17.2780488,33.2129032 26.702439,22.5892473 27.0390244,22.5892473 C27.2634146,22.8129032 23,31.9827957 23,32.5419355 C23,32.8774194 27.9365854,34.3311828 28.1609756,35.1139785 C28.497561,36.0086022 18.9609756,46.855914 18.7365854,46.6322581 Z" id="Shape"></path>
        </g>
    </g>
</svg>