<?xml version="1.0" encoding="UTF-8"?>
<svg width="64px" height="64px" viewBox="0 0 64 64" version="1.1" xmlns="http://www.w3.org/2000/svg" xmlns:xlink="http://www.w3.org/1999/xlink">
    <!-- Generator: Sketch 52.6 (67491) - http://www.bohemiancoding.com/sketch -->
    <title>inspection-special</title>
    <desc>Created with Sketch.</desc>
    <g id="inspection-special" stroke="none" stroke-width="1" fill="none" fill-rule="evenodd">
        <g id="icon-inspection-special" transform="translate(9.000000, 6.000000)" fill="#000000" fill-rule="nonzero">
            <path d="M29.6195122,6.48602151 C29.6195122,2.79569892 26.702439,0 23,0 C19.297561,0 16.3804878,2.79569892 16.3804878,6.48602151 L10.097561,6.48602151 L10.097561,13.083871 L36.2390244,13.083871 L36.2390244,6.48602151 L29.6195122,6.48602151 Z M23,9.72903226 C21.3170732,9.72903226 19.8585366,8.27526882 19.8585366,6.48602151 C19.8585366,4.80860215 21.3170732,3.35483871 23,3.35483871 C24.6829268,3.35483871 26.1414634,4.80860215 26.1414634,6.48602151 C26.1414634,8.27526882 24.6829268,9.72903226 23,9.72903226 Z M39.3804878,6.48602151 L39.3804878,16.2150538 L6.6195122,16.2150538 L6.6195122,6.48602151 L0,6.48602151 L0,52 L46,52 L46,6.48602151 L39.3804878,6.48602151 Z M32.7609756,31.9827957 L27.6,34.8903226 L32.7609756,37.6860215 C33.097561,38.0215054 33.097561,38.3569892 33.097561,38.5806452 L31.302439,41.488172 C31.0780488,41.711828 30.7414634,41.711828 30.5170732,41.711828 L25.5804878,38.916129 L25.5804878,44.8430108 C25.5804878,45.1784946 25.2439024,45.5139785 25.0195122,45.5139785 L21.3170732,45.5139785 C20.9804878,45.5139785 20.7560976,45.1784946 20.7560976,44.8430108 L20.7560976,39.1397849 L15.4829268,42.0473118 C15.2585366,42.2709677 14.9219512,42.0473118 14.697561,42.0473118 L12.902439,39.1397849 C12.6780488,38.916129 12.902439,38.5806452 13.2390244,38.3569892 L18.4,35.4494624 L13.2390244,32.5419355 C12.902439,32.3182796 12.902439,31.9827957 12.902439,31.7591398 L14.697561,28.8516129 C14.9219512,28.2924731 15.2585366,27.9569892 15.4829268,28.2924731 L20.7560976,31.2 L20.7560976,25.1612903 C20.7560976,24.8258065 20.9804878,24.6021505 21.3170732,24.6021505 L24.4585366,24.6021505 C24.6829268,24.6021505 25.0195122,24.8258065 25.0195122,25.1612903 L25.0195122,31.2 L30.1804878,28.2924731 C30.5170732,27.9569892 30.7414634,28.2924731 31.0780488,28.627957 L32.7609756,31.4236559 C33.097561,31.4236559 32.7609756,31.9827957 32.7609756,31.9827957 Z" id="Shape"></path>
        </g>
    </g>
</svg>