<?xml version="1.0" encoding="UTF-8"?>
<svg width="64px" height="64px" viewBox="0 0 64 64" version="1.1" xmlns="http://www.w3.org/2000/svg" xmlns:xlink="http://www.w3.org/1999/xlink">
    <!-- Generator: Sketch 52.6 (67491) - http://www.bohemiancoding.com/sketch -->
    <title>inspection-canceled</title>
    <desc>Created with Sketch.</desc>
    <g id="inspection-canceled" stroke="none" stroke-width="1" fill="none" fill-rule="evenodd">
        <g id="icon-inspection-canceled" transform="translate(9.000000, 6.000000)" fill="#000000" fill-rule="nonzero">
            <path d="M36.2390244,6.48602151 L29.6195122,6.48602151 C29.6195122,2.79569892 26.702439,0 23,0 C19.297561,0 16.3804878,2.79569892 16.3804878,6.48602151 L10.097561,6.48602151 L10.097561,13.083871 L36.2390244,13.083871 L36.2390244,6.48602151 Z M23,9.72903226 C21.3170732,9.72903226 19.8585366,8.27526882 19.8585366,6.48602151 C19.8585366,4.80860215 21.3170732,3.35483871 23,3.35483871 C24.6829268,3.35483871 26.1414634,4.80860215 26.1414634,6.48602151 C26.1414634,8.27526882 24.6829268,9.72903226 23,9.72903226 Z M39.3804878,6.48602151 L39.3804878,16.2150538 L6.6195122,16.2150538 L6.6195122,6.48602151 L0,6.48602151 L0,52 L46,52 L46,6.48602151 L39.3804878,6.48602151 Z M29.6195122,45.1784946 L23,38.5806452 L16.3804878,45.1784946 L12.6780488,41.488172 L19.297561,34.8903226 L12.3414634,28.2924731 L16.1560976,24.6021505 L23,31.2 L29.6195122,24.6021505 L33.3219512,28.2924731 L26.702439,34.8903226 L33.3219512,41.488172 L29.6195122,45.1784946 Z" id="Shape"></path>
        </g>
    </g>
</svg>