<?xml version="1.0" encoding="UTF-8"?>
<svg width="64px" height="64px" viewBox="0 0 64 64" version="1.1" xmlns="http://www.w3.org/2000/svg" xmlns:xlink="http://www.w3.org/1999/xlink">
    <!-- Generator: Sketch 52.6 (67491) - http://www.bohemiancoding.com/sketch -->
    <title>inspection-nightpatrol</title>
    <desc>Created with Sketch.</desc>
    <g id="inspection-nightpatrol" stroke="none" stroke-width="1" fill="none" fill-rule="evenodd">
        <g id="icon-inspection-nightpatrol" transform="translate(9.000000, 6.000000)" fill="#000000" fill-rule="nonzero">
            <path d="M29.6195122,6.48602151 C29.6195122,2.79569892 26.702439,0 23,0 C19.297561,0 16.3804878,2.79569892 16.3804878,6.48602151 L10.097561,6.48602151 L10.097561,13.083871 L36.2390244,13.083871 L36.2390244,6.48602151 L29.6195122,6.48602151 Z M23,9.72903226 C21.3170732,9.72903226 19.8585366,8.27526882 19.8585366,6.48602151 C19.8585366,4.80860215 21.3170732,3.35483871 23,3.35483871 C24.6829268,3.35483871 26.1414634,4.80860215 26.1414634,6.48602151 C26.1414634,8.27526882 24.6829268,9.72903226 23,9.72903226 Z M39.3804878,6.48602151 L39.3804878,16.2150538 L6.6195122,16.2150538 L6.6195122,6.48602151 L0,6.48602151 L0,52 L46,52 L46,6.48602151 L39.3804878,6.48602151 Z M24.4585366,45.1784946 C17.8390244,45.1784946 12.3414634,39.6989247 12.3414634,33.2129032 C12.3414634,27.9569892 15.4829268,23.7075269 20.0829268,22.0301075 C18.4,24.0430108 17.2780488,26.8387097 17.2780488,29.9698925 C17.2780488,36.5677419 22.6634146,42.0473118 29.2829268,42.0473118 C30.7414634,42.0473118 32.4243902,41.711828 33.6585366,41.1526882 C31.302439,43.7247312 28.1609756,45.1784946 24.4585366,45.1784946 Z" id="Shape"></path>
        </g>
    </g>
</svg>