<?xml version="1.0" encoding="UTF-8"?>
<svg width="64px" height="64px" viewBox="0 0 64 64" version="1.1" xmlns="http://www.w3.org/2000/svg" xmlns:xlink="http://www.w3.org/1999/xlink">
    <!-- Generator: Sketch 52.6 (67491) - http://www.bohemiancoding.com/sketch -->
    <title>inspection-water</title>
    <desc>Created with Sketch.</desc>
    <g id="inspection-water" stroke="none" stroke-width="1" fill="none" fill-rule="evenodd">
        <g id="icon-inspection-water" transform="translate(9.000000, 6.000000)" fill="#000000" fill-rule="nonzero">
            <path d="M29.6195122,6.48602151 C29.6195122,2.79569892 26.702439,0 23,0 C19.297561,0 16.3804878,2.79569892 16.3804878,6.48602151 L10.097561,6.48602151 L10.097561,13.083871 L36.2390244,13.083871 L36.2390244,6.48602151 L29.6195122,6.48602151 Z M23,9.72903226 C21.3170732,9.72903226 19.8585366,8.27526882 19.8585366,6.48602151 C19.8585366,4.80860215 21.3170732,3.35483871 23,3.35483871 C24.6829268,3.35483871 26.1414634,4.80860215 26.1414634,6.48602151 C26.1414634,8.27526882 24.6829268,9.72903226 23,9.72903226 Z M21.3170732,43.5010753 C20.0829268,41.711828 18.9609756,40.9290323 18.9609756,36.5677419 C18.9609756,36.5677419 16.1560976,40.9290323 21.3170732,43.5010753 Z M39.3804878,6.48602151 L39.3804878,16.2150538 L6.6195122,16.2150538 L6.6195122,6.48602151 L0,6.48602151 L0,52 L46,52 L46,6.48602151 L39.3804878,6.48602151 Z M23,45.5139785 C18.4,45.5139785 15.8195122,42.9419355 15.8195122,38.916129 C15.8195122,34.8903226 16.7170732,34.3311828 18.7365854,31.2 C20.7560976,27.9569892 23,23.1483871 23,23.1483871 C23,23.1483871 25.2439024,27.7333333 27.0390244,31.2 C28.7219512,34.5548387 29.8439024,35.1139785 29.8439024,38.916129 C29.8439024,42.6064516 27.6,45.5139785 23,45.5139785 Z" id="Shape"></path>
        </g>
    </g>
</svg>