<?xml version="1.0" encoding="UTF-8"?>
<svg width="64px" height="64px" viewBox="0 0 64 64" version="1.1" xmlns="http://www.w3.org/2000/svg" xmlns:xlink="http://www.w3.org/1999/xlink">
    <!-- Generator: Sketch 52.6 (67491) - http://www.bohemiancoding.com/sketch -->
    <title>inspection</title>
    <desc>Created with Sketch.</desc>
    <g id="inspection" stroke="none" stroke-width="1" fill="none" fill-rule="evenodd">
        <g id="icon-inspection" transform="translate(9.000000, 6.000000)" fill="#000000" fill-rule="nonzero">
            <path d="M36.2390244,6.58369099 L29.6195122,6.58369099 C29.6195122,2.90128755 26.702439,0 23,0 C19.297561,0 16.3804878,2.90128755 16.3804878,6.58369099 L9.76097561,6.58369099 L9.76097561,13.167382 L35.902439,13.167382 L35.902439,6.58369099 L36.2390244,6.58369099 Z M23,9.70815451 C21.3170732,9.70815451 19.8585366,8.25751073 19.8585366,6.58369099 C19.8585366,4.90987124 21.3170732,3.45922747 23,3.45922747 C24.6829268,3.45922747 26.1414634,4.90987124 26.1414634,6.58369099 C26.1414634,8.25751073 24.6829268,9.70815451 23,9.70815451 Z M39.3804878,6.58369099 L39.3804878,16.2918455 L6.6195122,16.2918455 L6.6195122,6.58369099 L0,6.58369099 L0,52 L46,52 L46,6.58369099 L39.3804878,6.58369099 Z" id="Shape"></path>
        </g>
    </g>
</svg>