<?xml version="1.0" encoding="UTF-8"?>
<svg width="64px" height="64px" viewBox="0 0 64 64" version="1.1" xmlns="http://www.w3.org/2000/svg" xmlns:xlink="http://www.w3.org/1999/xlink">
    <!-- Generator: Sketch 52.6 (67491) - http://www.bohemiancoding.com/sketch -->
    <title>inspection-visual</title>
    <desc>Created with Sketch.</desc>
    <g id="inspection-visual" stroke="none" stroke-width="1" fill="none" fill-rule="evenodd">
        <g id="icon-inspection-visual" transform="translate(9.000000, 6.000000)" fill="#000000" fill-rule="nonzero">
            <path d="M35.902439,6.58369099 L29.2829268,6.58369099 C29.6195122,2.90128755 26.702439,0 23,0 C19.297561,0 16.3804878,2.90128755 16.3804878,6.58369099 L9.76097561,6.58369099 L9.76097561,13.167382 L35.902439,13.167382 L35.902439,6.58369099 Z M23,9.70815451 C21.3170732,9.70815451 19.8585366,8.25751073 19.8585366,6.58369099 C19.8585366,4.90987124 21.3170732,3.45922747 23,3.45922747 C24.6829268,3.45922747 26.1414634,4.90987124 26.1414634,6.58369099 C26.1414634,8.25751073 24.6829268,9.70815451 23,9.70815451 Z M23,28.0085837 C19.5219512,28.0085837 16.9414634,30.5751073 16.9414634,34.0343348 C16.9414634,37.1587983 19.8585366,39.9484979 23,39.9484979 C26.4780488,39.9484979 29.0585366,37.3819742 29.0585366,34.0343348 C29.0585366,30.5751073 26.4780488,28.0085837 23,28.0085837 Z M23,36.8240343 C21.3170732,36.8240343 19.8585366,35.3733906 19.8585366,34.0343348 C19.8585366,32.248927 21.3170732,31.1330472 23,31.1330472 C23.897561,31.1330472 22.4390244,33.4763948 23,34.0343348 C23.5609756,34.5922747 26.1414634,33.1416309 26.1414634,34.0343348 C26.1414634,35.3733906 24.6829268,36.8240343 23,36.8240343 Z M39.3804878,6.58369099 L39.3804878,16.2918455 L6.6195122,16.2918455 L6.6195122,6.58369099 L0,6.58369099 L0,52 L46,52 L46,6.58369099 L39.3804878,6.58369099 Z M23,41.3991416 C13.8,41.3991416 9.2,34.8154506 9.2,33.6995708 C9.2,32.583691 14.1365854,26 23,26 C32.2,26 36.8,32.583691 36.8,33.6995708 C36.8,34.8154506 32.2,41.3991416 23,41.3991416 Z" id="Shape"></path>
        </g>
    </g>
</svg>