<?xml version="1.0" encoding="UTF-8"?>
<svg width="64px" height="64px" viewBox="0 0 64 64" version="1.1" xmlns="http://www.w3.org/2000/svg" xmlns:xlink="http://www.w3.org/1999/xlink">
    <!-- Generator: Sketch 52.6 (67491) - http://www.bohemiancoding.com/sketch -->
    <title>intersection-closure</title>
    <desc>Created with Sketch.</desc>
    <g id="intersection-closure" stroke="none" stroke-width="1" fill="none" fill-rule="evenodd">
        <g id="icon-intersection-closure" transform="translate(6.000000, 6.000000)" fill="#000000" fill-rule="nonzero">
            <path d="M38.785124,13.0539419 C43.1900826,13.0539419 47.3801653,13.0539419 51.785124,13.0539419 C51.785124,17.153527 51.785124,21.0373444 51.785124,25.1369295 C47.5950413,25.1369295 43.1900826,25.1369295 39.107438,25.1369295 C39.107438,25.6763485 39.107438,26 39.107438,26.5394191 C43.1900826,26.5394191 47.5950413,26.5394191 51.785124,26.5394191 C51.785124,30.746888 51.785124,34.846473 51.785124,38.9460581 C47.5950413,38.9460581 43.1900826,38.9460581 39.107438,38.9460581 C39.107438,43.3692946 39.107438,47.5767635 39.107438,52 C34.9173554,52 31.1570248,52 26.7520661,52 C26.7520661,47.7925311 26.7520661,43.3692946 26.7520661,39.2697095 C25.3553719,38.7302905 25.3553719,39.4854772 25.3553719,40.3485477 C25.3553719,44.2323651 25.3553719,48.1161826 25.3553719,52 C21.1652893,52 17.4049587,52 13.214876,52 C13.214876,47.7925311 13.214876,43.3692946 13.214876,38.9460581 C8.80991736,38.9460581 4.72727273,38.9460581 0.32231405,38.9460581 C0.32231405,34.846473 0.32231405,30.9626556 0.32231405,26.8630705 C0.859504132,26.8630705 1.39669421,26.8630705 1.9338843,26.8630705 C5.26446281,26.8630705 8.59504132,26.8630705 12.1404959,26.8630705 C13,26.8630705 13.5371901,26.5394191 13.214876,25.4605809 C9.1322314,25.4605809 4.94214876,25.4605809 0.537190083,25.4605809 C0.537190083,21.253112 0.537190083,17.4771784 0.537190083,13.2697095 C4.72727273,13.2697095 9.1322314,13.2697095 13.5371901,13.2697095 C13.5371901,8.84647303 13.5371901,4.74688797 13.5371901,0.539419087 C17.6198347,0.539419087 21.4876033,0.539419087 25.892562,0.539419087 C25.892562,1.18672199 25.892562,1.94190871 25.892562,2.4813278 C25.892562,5.82572614 25.892562,8.84647303 25.892562,12.1908714 C25.892562,13.0539419 26.214876,13.593361 27.2892562,13.2697095 C27.2892562,9.17012448 27.2892562,4.9626556 27.2892562,0.539419087 C31.3719008,0.539419087 35.2396694,0.539419087 39.322314,0.539419087 C38.785124,4.20746888 38.785124,8.63070539 38.785124,13.0539419 Z M51.785124,8.84647303 C51.785124,9.38589212 51.785124,10.033195 51.785124,10.2489627 C48.4545455,10.2489627 44.9090909,10.2489627 41.5785124,10.2489627 C41.5785124,6.68879668 41.5785124,3.34439834 41.5785124,0 C42.1157025,0 42.4380165,0 42.9752066,0 C42.9752066,3.12863071 42.9752066,5.82572614 42.9752066,8.84647303 C45.9834711,8.84647303 48.6694215,8.84647303 51.785124,8.84647303 Z M10.5289256,51.6763485 C9.99173554,51.6763485 9.66942149,51.6763485 9.1322314,51.6763485 C9.1322314,48.6556017 9.1322314,45.8506224 9.1322314,42.8298755 C6.12396694,42.8298755 3.11570248,42.8298755 0.32231405,42.8298755 C0.32231405,42.2904564 0.32231405,41.966805 0.32231405,41.4273859 C3.8677686,41.4273859 7.19834711,41.4273859 10.7438017,41.4273859 C10.5289256,44.7717842 10.5289256,48.3319502 10.5289256,51.6763485 Z M0.32231405,8.84647303 C3.33057851,8.84647303 6.12396694,8.84647303 9.1322314,8.84647303 C9.1322314,5.82572614 9.1322314,3.12863071 9.1322314,0 C9.66942149,0 9.99173554,0 10.5289256,0 C10.5289256,3.66804979 10.5289256,6.90456432 10.5289256,10.5726141 C7.19834711,10.5726141 3.8677686,10.5726141 0.537190083,10.5726141 C0.537190083,10.5726141 0.32231405,9.70954357 0,9.38589212 C0,9.17012448 0.32231405,9.17012448 0.32231405,8.84647303 Z M42.9752066,42.8298755 C42.9752066,45.8506224 42.9752066,48.8713693 42.9752066,51.6763485 C42.9752066,51.6763485 42.6528926,52 42.6528926,52 C42.4380165,51.6763485 41.5785124,51.4605809 41.5785124,51.1369295 C41.5785124,47.7925311 41.5785124,44.7717842 41.5785124,41.4273859 C45.1239669,41.4273859 48.4545455,41.4273859 52,41.4273859 C52,41.966805 52,42.2904564 52,42.8298755 C48.9917355,42.8298755 45.9834711,42.8298755 42.9752066,42.8298755 Z" id="Shape"></path>
        </g>
    </g>
</svg>