<?xml version="1.0" encoding="UTF-8"?>
<svg width="64px" height="64px" viewBox="0 0 64 64" version="1.1" xmlns="http://www.w3.org/2000/svg" xmlns:xlink="http://www.w3.org/1999/xlink">
    <!-- Generator: Sketch 52.6 (67491) - http://www.bohemiancoding.com/sketch -->
    <title>intesection-simple</title>
    <desc>Created with Sketch.</desc>
    <g id="intesection-simple" stroke="none" stroke-width="1" fill="none" fill-rule="evenodd">
        <g id="icon-intesection-simple" transform="translate(6.000000, 6.000000)" fill="#000000">
            <path d="M39.1362683,12.9451477 C43.60587,12.9451477 47.7484277,12.9451477 52,12.9451477 C52,17.1139241 52,21.0632911 52,25.2320675 C47.7484277,25.2320675 43.60587,25.2320675 39.1362683,25.2320675 C39.1362683,25.7805907 39.1362683,26.1097046 39.1362683,26.6582278 C43.278826,26.6582278 47.5303983,26.6582278 52,26.6582278 C52,30.9367089 52,34.7763713 52,39.0548523 C47.7484277,39.0548523 43.60587,39.0548523 39.1362683,39.0548523 C39.1362683,43.5527426 39.1362683,47.721519 39.1362683,52 C34.884696,52 31.0691824,52 26.8176101,52 C26.8176101,47.721519 26.8176101,43.2236287 26.8176101,39.0548523 C25.4004193,38.5063291 25.4004193,39.2742616 25.4004193,40.1518987 C25.4004193,44.1012658 25.4004193,47.721519 25.4004193,52 C21.2578616,52 17.3333333,52 13.1907757,52 C13.1907757,47.721519 13.1907757,43.5527426 13.1907757,39.0548523 C8.721174,39.0548523 4.46960168,39.0548523 0,39.0548523 C0,34.7763713 0,30.9367089 0,26.6582278 C0.65408805,26.6582278 1.19916143,26.6582278 1.7442348,26.6582278 C5.12368973,26.6582278 8.39412998,26.6582278 11.7735849,26.6582278 C12.6457023,26.6582278 13.1907757,26.4388186 12.8637317,25.2320675 C8.721174,25.2320675 4.46960168,25.2320675 0,25.2320675 C0,21.0632911 0,17.1139241 0,12.9451477 C4.25157233,12.9451477 8.721174,12.9451477 12.8637317,12.9451477 C12.8637317,8.44725738 12.8637317,4.16877637 12.8637317,0 C17.115304,0 20.9308176,0 25.1823899,0 C25.1823899,0.548523207 25.1823899,1.42616034 25.1823899,1.97468354 C25.1823899,5.37552743 25.1823899,8.44725738 25.1823899,11.7383966 C25.1823899,12.6160338 25.4004193,13.164557 26.5995807,12.9451477 C26.5995807,8.66666667 26.5995807,4.4978903 26.5995807,0 C30.7421384,0 34.6666667,0 38.8092243,0 C39.1362683,4.16877637 39.1362683,8.44725738 39.1362683,12.9451477 Z" id="Path"></path>
        </g>
    </g>
</svg>