<?xml version="1.0" encoding="UTF-8"?>
<svg width="64px" height="64px" viewBox="0 0 64 64" version="1.1" xmlns="http://www.w3.org/2000/svg" xmlns:xlink="http://www.w3.org/1999/xlink">
    <!-- Generator: Sketch 52.6 (67491) - http://www.bohemiancoding.com/sketch -->
    <title>intersection</title>
    <desc>Created with Sketch.</desc>
    <g id="intersection" stroke="none" stroke-width="1" fill="none" fill-rule="evenodd">
        <g id="icon-intersection" transform="translate(6.000000, 6.000000)" fill="#000000" fill-rule="nonzero">
            <path d="M24.7932489,51.7805907 C22.8185654,51.7805907 20.8438819,51.7805907 18.5400844,51.7805907 C18.5400844,45.5274262 18.5400844,39.6033755 18.5400844,33.4599156 C12.3966245,33.4599156 6.25316456,33.4599156 0,33.4599156 C0,31.4852321 0,29.2911392 0,27.3164557 C0.658227848,27.3164557 1.20675105,27.3164557 1.75527426,27.3164557 C1.75527426,26.4388186 1.75527426,25.5611814 1.75527426,24.7932489 C1.20675105,24.7932489 0.658227848,24.7932489 0,24.7932489 C0,22.8185654 0,20.8438819 0,18.5400844 C6.25316456,18.5400844 12.3966245,18.5400844 18.5400844,18.5400844 C18.5400844,12.3966245 18.5400844,6.25316456 18.5400844,0 C20.5147679,0 22.4894515,0 24.7932489,0 C24.7932489,0.658227848 24.7932489,1.20675105 24.7932489,1.75527426 C25.5611814,1.75527426 26.4388186,1.75527426 27.3164557,1.75527426 C27.3164557,1.20675105 27.3164557,0.658227848 27.3164557,0 C29.2911392,0 31.2658228,0 33.4599156,0 C33.4599156,6.25316456 33.4599156,12.3966245 33.4599156,18.5400844 C39.6033755,18.5400844 45.8565401,18.5400844 52,18.5400844 C52,20.5147679 52,22.4894515 52,24.7932489 C51.4514768,24.7932489 50.9029536,24.7932489 50.0253165,24.7932489 C50.0253165,25.5611814 50.0253165,26.4388186 50.0253165,27.3164557 C50.5738397,27.3164557 51.1223629,27.3164557 52,27.3164557 C52,29.2911392 52,31.2658228 52,33.4599156 C45.8565401,33.4599156 39.6033755,33.4599156 33.4599156,33.4599156 C33.4599156,39.6033755 33.4599156,45.8565401 33.4599156,52 C31.4852321,52 29.2911392,52 27.3164557,52 C27.3164557,51.4514768 27.3164557,50.9029536 27.3164557,50.3544304 C26.4388186,50.3544304 25.5611814,50.3544304 24.7932489,50.3544304 C24.7932489,50.5738397 24.7932489,51.1223629 24.7932489,51.7805907 Z M27.3164557,32.9113924 C27.3164557,30.9367089 27.3164557,28.9620253 27.3164557,26.9873418 C29.2911392,26.9873418 31.2658228,26.9873418 32.9113924,26.9873418 C32.9113924,26.2194093 32.9113924,25.3417722 32.9113924,24.464135 C30.9367089,24.464135 28.9620253,24.464135 27.3164557,24.464135 C27.3164557,22.4894515 27.3164557,20.5147679 27.3164557,18.8691983 C26.4388186,18.8691983 25.5611814,18.8691983 24.7932489,18.8691983 C24.7932489,20.8438819 24.7932489,22.8185654 24.7932489,24.464135 C22.8185654,24.464135 20.8438819,24.464135 19.1983122,24.464135 C19.1983122,25.3417722 19.1983122,26.2194093 19.1983122,26.9873418 C21.0632911,26.9873418 23.0379747,26.9873418 24.7932489,26.9873418 C24.7932489,28.9620253 24.7932489,30.9367089 24.7932489,32.5822785 C25.5611814,32.9113924 26.4388186,32.9113924 27.3164557,32.9113924 Z M24.7932489,8.77637131 C25.5611814,8.77637131 26.4388186,8.77637131 27.3164557,8.77637131 C27.3164557,7.67932489 27.3164557,6.80168776 27.3164557,5.92405063 C26.4388186,5.92405063 25.5611814,5.92405063 24.7932489,5.92405063 C24.7932489,6.80168776 24.7932489,7.67932489 24.7932489,8.77637131 Z M8.77637131,24.7932489 C7.67932489,24.7932489 6.80168776,24.7932489 5.92405063,24.7932489 C5.92405063,25.5611814 5.92405063,26.4388186 5.92405063,27.3164557 C7.02109705,27.3164557 7.89873418,27.3164557 8.77637131,27.3164557 C8.77637131,26.2194093 8.77637131,25.5611814 8.77637131,24.7932489 Z M46.0759494,24.7932489 C44.978903,24.7932489 44.1012658,24.7932489 43.0042194,24.7932489 C43.0042194,25.5611814 43.0042194,26.4388186 43.0042194,26.9873418 C44.1012658,26.9873418 44.978903,26.9873418 46.0759494,26.9873418 C46.0759494,26.2194093 46.0759494,25.5611814 46.0759494,24.7932489 Z M24.7932489,43.0042194 C24.7932489,44.1012658 24.7932489,44.978903 24.7932489,46.0759494 C25.5611814,46.0759494 26.4388186,46.0759494 26.9873418,46.0759494 C26.9873418,44.978903 26.9873418,44.1012658 26.9873418,43.0042194 C26.4388186,43.0042194 25.5611814,43.0042194 24.7932489,43.0042194 Z M24.7932489,12.7257384 C24.7932489,13.8227848 24.7932489,14.7004219 24.7932489,15.4683544 C25.5611814,15.4683544 26.4388186,15.4683544 26.9873418,15.4683544 C26.9873418,14.371308 26.9873418,13.4936709 26.9873418,12.7257384 C26.4388186,12.7257384 25.5611814,12.7257384 24.7932489,12.7257384 Z M15.7974684,24.7932489 C14.7004219,24.7932489 13.8227848,24.7932489 12.9451477,24.7932489 C12.9451477,25.5611814 12.9451477,26.4388186 12.9451477,27.3164557 C14.0421941,27.3164557 14.9198312,27.3164557 15.7974684,27.3164557 C15.7974684,26.2194093 15.7974684,25.5611814 15.7974684,24.7932489 Z M36.3122363,24.7932489 C36.3122363,25.5611814 36.3122363,26.4388186 36.3122363,26.9873418 C37.4092827,26.9873418 38.2869198,26.9873418 39.0548523,26.9873418 C39.0548523,26.2194093 39.0548523,25.3417722 39.0548523,24.7932489 C38.2869198,24.7932489 37.0801688,24.7932489 36.3122363,24.7932489 Z M27.3164557,39.0548523 C27.3164557,37.9578059 27.3164557,37.0801688 27.3164557,35.9831224 C26.4388186,35.9831224 25.5611814,35.9831224 24.7932489,35.9831224 C24.7932489,37.0801688 24.7932489,37.9578059 24.7932489,39.0548523 C25.5611814,39.0548523 26.4388186,39.0548523 27.3164557,39.0548523 Z" id="Shape"></path>
        </g>
    </g>
</svg>