<?xml version="1.0" encoding="UTF-8"?>
<svg width="64px" height="64px" viewBox="0 0 64 64" version="1.1" xmlns="http://www.w3.org/2000/svg" xmlns:xlink="http://www.w3.org/1999/xlink">
    <!-- Generator: Sketch 52.6 (67491) - http://www.bohemiancoding.com/sketch -->
    <title>intersection-outline</title>
    <desc>Created with Sketch.</desc>
    <g id="intersection-outline" stroke="none" stroke-width="1" fill="none" fill-rule="evenodd">
        <g transform="translate(6.000000, 6.000000)" fill="#000000" fill-rule="nonzero" id="Shape">
            <path d="M34.9876543,34.9876543 C34.9876543,40.7654321 34.9876543,46.2222222 34.9876543,52 C28.9958848,52 23.0041152,52 17.0123457,52 C17.0123457,46.2222222 17.0123457,40.7654321 17.0123457,34.9876543 C11.2345679,34.9876543 5.77777778,34.9876543 0,34.9876543 C0,28.9958848 0,23.0041152 0,17.0123457 C5.77777778,17.0123457 11.2345679,17.0123457 17.0123457,17.0123457 C17.0123457,11.2345679 17.0123457,5.77777778 17.0123457,0 C23.0041152,0 28.9958848,0 34.9876543,0 C34.9876543,5.77777778 34.9876543,11.2345679 34.9876543,17.0123457 C40.7654321,17.0123457 46.2222222,17.0123457 52,17.0123457 C52,23.0041152 52,28.9958848 52,34.9876543 C46.2222222,34.9876543 40.7654321,34.9876543 34.9876543,34.9876543 Z M24.9300412,49.8600823 C24.9300412,49.3251029 24.9300412,48.6831276 24.9300412,48.1481481 C25.6790123,48.1481481 26.3209877,48.1481481 27.0699588,48.1481481 C27.0699588,48.6831276 27.0699588,49.3251029 27.0699588,49.8600823 C28.9958848,49.8600823 30.9218107,49.8600823 32.8477366,49.8600823 C32.8477366,44.0823045 32.8477366,38.6255144 32.8477366,32.8477366 C38.6255144,32.8477366 44.0823045,32.8477366 49.8600823,32.8477366 C49.8600823,30.9218107 49.8600823,28.9958848 49.8600823,27.0699588 C49.3251029,27.0699588 48.6831276,27.0699588 48.1481481,27.0699588 C48.1481481,26.3209877 48.1481481,25.6790123 48.1481481,24.9300412 C48.6831276,24.9300412 49.3251029,24.9300412 49.8600823,24.9300412 C49.8600823,23.0041152 49.8600823,21.0781893 49.8600823,19.1522634 C44.0823045,19.1522634 38.3045267,19.1522634 32.8477366,19.1522634 C32.8477366,13.3744856 32.8477366,7.91769547 32.8477366,2.1399177 C30.9218107,2.1399177 28.9958848,2.1399177 27.0699588,2.1399177 C27.0699588,2.67489712 27.0699588,3.31687243 27.0699588,3.85185185 C26.3209877,3.85185185 25.6790123,3.85185185 24.9300412,3.85185185 C24.9300412,3.31687243 24.9300412,2.67489712 24.9300412,2.1399177 C23.0041152,2.1399177 21.0781893,2.1399177 19.1522634,2.1399177 C19.1522634,7.91769547 19.1522634,13.3744856 19.1522634,19.1522634 C13.3744856,19.1522634 7.91769547,19.1522634 2.1399177,19.1522634 C2.1399177,21.0781893 2.1399177,23.0041152 2.1399177,24.9300412 C2.67489712,24.9300412 3.31687243,24.9300412 3.85185185,24.9300412 C3.85185185,25.6790123 3.85185185,26.3209877 3.85185185,27.0699588 C3.31687243,27.0699588 2.67489712,27.0699588 2.1399177,27.0699588 C2.1399177,28.9958848 2.1399177,30.9218107 2.1399177,32.8477366 C7.91769547,32.8477366 13.3744856,32.8477366 19.1522634,32.8477366 C19.1522634,38.6255144 19.1522634,44.0823045 19.1522634,49.8600823 C21.0781893,49.8600823 23.0041152,49.8600823 24.9300412,49.8600823 Z M27.0699588,32.3127572 C26.3209877,32.3127572 25.6790123,32.3127572 24.9300412,32.3127572 C24.9300412,30.7078189 24.9300412,28.781893 24.9300412,27.0699588 C23.218107,27.0699588 21.2921811,27.0699588 19.6872428,27.0699588 C19.6872428,26.3209877 19.6872428,25.6790123 19.6872428,24.9300412 C21.2921811,24.9300412 23.218107,24.9300412 24.9300412,24.9300412 C24.9300412,23.218107 24.9300412,21.2921811 24.9300412,19.6872428 C25.6790123,19.6872428 26.3209877,19.6872428 27.0699588,19.6872428 C27.0699588,21.2921811 27.0699588,23.218107 27.0699588,24.9300412 C28.9958848,24.9300412 30.7078189,24.9300412 32.3127572,24.9300412 C32.3127572,25.6790123 32.3127572,26.3209877 32.3127572,27.0699588 C30.7078189,27.0699588 28.781893,27.0699588 27.0699588,27.0699588 C27.0699588,28.9958848 27.0699588,30.7078189 27.0699588,32.3127572 Z M24.9300412,10.1646091 C24.9300412,9.30864198 24.9300412,8.4526749 24.9300412,7.38271605 C25.6790123,7.38271605 26.3209877,7.38271605 27.0699588,7.38271605 C27.0699588,8.23868313 27.0699588,8.98765432 27.0699588,10.1646091 C26.3209877,10.1646091 25.6790123,10.1646091 24.9300412,10.1646091 Z M10.1646091,24.9300412 C10.1646091,25.6790123 10.1646091,26.3209877 10.1646091,27.0699588 C9.30864198,27.0699588 8.23868313,27.0699588 7.38271605,27.0699588 C7.38271605,26.3209877 7.38271605,25.6790123 7.38271605,24.9300412 C8.23868313,24.9300412 9.30864198,24.9300412 10.1646091,24.9300412 Z M44.617284,24.9300412 C44.617284,25.6790123 44.617284,26.3209877 44.617284,27.0699588 C43.7613169,27.0699588 42.691358,27.0699588 41.8353909,27.0699588 C41.8353909,26.3209877 41.8353909,25.6790123 41.8353909,24.9300412 C42.691358,24.9300412 43.5473251,24.9300412 44.617284,24.9300412 Z M24.9300412,41.8353909 C25.6790123,41.8353909 26.3209877,41.8353909 27.0699588,41.8353909 C27.0699588,42.691358 27.0699588,43.7613169 27.0699588,44.617284 C26.3209877,44.617284 25.6790123,44.617284 24.9300412,44.617284 C24.9300412,43.5473251 24.9300412,42.691358 24.9300412,41.8353909 Z M24.9300412,13.909465 C25.6790123,13.909465 26.3209877,13.909465 27.0699588,13.909465 C27.0699588,14.7654321 27.0699588,15.8353909 27.0699588,16.691358 C26.3209877,16.691358 25.6790123,16.691358 24.9300412,16.691358 C24.9300412,15.6213992 24.9300412,14.7654321 24.9300412,13.909465 Z M16.3703704,24.9300412 C16.3703704,25.6790123 16.3703704,26.3209877 16.3703704,27.0699588 C15.6213992,27.0699588 14.4444444,27.0699588 13.6954733,27.0699588 C13.6954733,26.3209877 13.6954733,25.6790123 13.6954733,24.9300412 C14.7654321,24.9300412 15.6213992,24.9300412 16.3703704,24.9300412 Z M35.308642,24.9300412 C36.1646091,24.9300412 36.9135802,24.9300412 38.090535,24.9300412 C38.090535,25.6790123 38.090535,26.3209877 38.090535,27.0699588 C37.2345679,27.0699588 36.3786008,27.0699588 35.308642,27.0699588 C35.308642,26.3209877 35.308642,25.6790123 35.308642,24.9300412 Z M27.0699588,38.090535 C26.3209877,38.090535 25.6790123,38.090535 24.9300412,38.090535 C24.9300412,37.2345679 24.9300412,36.1646091 24.9300412,35.308642 C25.6790123,35.308642 26.3209877,35.308642 27.0699588,35.308642 C27.0699588,36.3786008 27.0699588,37.2345679 27.0699588,38.090535 Z"></path>
        </g>
    </g>
</svg>