<?xml version="1.0" encoding="UTF-8"?>
<svg width="64px" height="64px" viewBox="0 0 64 64" version="1.1" xmlns="http://www.w3.org/2000/svg" xmlns:xlink="http://www.w3.org/1999/xlink">
    <!-- Generator: Sketch 52.6 (67491) - http://www.bohemiancoding.com/sketch -->
    <title>item-duplicate</title>
    <desc>Created with Sketch.</desc>
    <g id="item-duplicate" stroke="none" stroke-width="1" fill="none" fill-rule="evenodd">
        <g id="icon-item-duplicate" transform="translate(6.000000, 6.000000)" fill="#000000" fill-rule="nonzero">
            <path d="M46.0078125,0 L18.1796875,0 C14.828125,0 12.1875,2.640625 12.1875,5.9921875 L12.1875,34.328125 C12.1875,37.6796875 14.828125,40.3203125 18.1796875,40.3203125 L46.0078125,40.3203125 C49.359375,40.3203125 52,37.6796875 52,34.328125 L52,5.9921875 C52,2.84375 49.359375,0 46.0078125,0 Z M47.0234375,33.0078125 C47.0234375,34.328125 46.0078125,35.34375 44.6875,35.34375 L19.5,35.34375 C18.1796875,35.34375 17.1640625,34.328125 17.1640625,33.0078125 L17.1640625,7.515625 C17.1640625,6.1953125 18.1796875,5.1796875 19.5,5.1796875 L44.6875,5.1796875 C46.0078125,5.1796875 47.0234375,6.1953125 47.0234375,7.515625 L47.0234375,33.0078125 Z M34.8359375,45.1953125 C34.53125,46.3125 33.515625,47.0234375 32.5,47.0234375 L7.3125,47.0234375 C5.9921875,47.0234375 4.9765625,46.0078125 4.9765625,44.6875 L4.9765625,19.1953125 C4.9765625,18.1796875 5.484375,17.46875 6.1953125,17.1640625 L6.1953125,11.984375 L5.9921875,11.984375 C2.640625,11.984375 0,14.5234375 0,17.671875 L0,46.0078125 C0,49.359375 2.640625,52 5.9921875,52 L33.8203125,52 C37.171875,52 39.8125,49.359375 39.8125,46.0078125 L39.8125,45.1953125 L34.8359375,45.1953125 Z" id="Shape"></path>
        </g>
    </g>
</svg>