<?xml version="1.0" encoding="UTF-8"?>
<svg width="64px" height="64px" viewBox="0 0 64 64" version="1.1" xmlns="http://www.w3.org/2000/svg" xmlns:xlink="http://www.w3.org/1999/xlink">
    <!-- Generator: Sketch 52.6 (67491) - http://www.bohemiancoding.com/sketch -->
    <title>item-edit</title>
    <desc>Created with Sketch.</desc>
    <g id="item-edit" stroke="none" stroke-width="1" fill="none" fill-rule="evenodd">
        <g id="icon-item-edit" transform="translate(6.000000, 6.000000)" fill="#000000" fill-rule="nonzero">
            <path d="M47.328125,0.8125 L52,5.484375 L47.8359375,9.6484375 L43.1640625,4.9765625 L47.328125,0.8125 Z M15.640625,37.171875 L17.1640625,30.9765625 L21.8359375,35.6484375 L15.640625,37.171875 Z M20.0078125,28.03125 L40.3203125,7.8203125 L44.9921875,12.4921875 L24.984375,32.5 L20.0078125,28.03125 Z M47.0234375,26 L47.0234375,44.6875 C47.0234375,46.0078125 46.0078125,47.0234375 44.6875,47.0234375 L7.3125,47.0234375 C5.9921875,47.0234375 4.9765625,46.0078125 4.9765625,44.6875 L4.9765625,7.3125 C4.9765625,5.9921875 5.9921875,4.9765625 7.3125,4.9765625 L26.8125,4.9765625 L26.8125,0 L5.9921875,0 C2.640625,0 0,2.640625 0,5.9921875 L0,46.0078125 C0,49.359375 2.640625,52 5.9921875,52 L46.0078125,52 C49.359375,52 52,49.359375 52,46.0078125 L52,26 L47.0234375,26 Z" id="Shape"></path>
        </g>
    </g>
</svg>