<?xml version="1.0" encoding="UTF-8"?>
<svg width="64px" height="64px" viewBox="0 0 64 64" version="1.1" xmlns="http://www.w3.org/2000/svg" xmlns:xlink="http://www.w3.org/1999/xlink">
    <!-- Generator: Sketch 52.6 (67491) - http://www.bohemiancoding.com/sketch -->
    <title>item-notification</title>
    <desc>Created with Sketch.</desc>
    <g id="item-notification" stroke="none" stroke-width="1" fill="none" fill-rule="evenodd">
        <g id="icon-item-notification" transform="translate(6.000000, 6.000000)" fill="#000000" fill-rule="nonzero">
            <path d="M43.46875,0 C38.6953125,0 34.8359375,3.859375 34.8359375,8.53125 C34.8359375,13.3046875 38.6953125,17.1640625 43.46875,17.1640625 C48.140625,17.1640625 52,13.3046875 52,8.53125 C52,3.859375 48.140625,0 43.46875,0 Z M47.0234375,44.6875 C47.0234375,46.0078125 46.0078125,47.0234375 44.6875,47.0234375 L7.3125,47.0234375 C5.9921875,47.0234375 4.9765625,46.0078125 4.9765625,44.6875 L4.9765625,7.3125 C4.9765625,5.9921875 5.9921875,4.9765625 7.3125,4.9765625 L29.65625,4.9765625 L29.65625,0 L5.9921875,0 C2.640625,0 0,2.640625 0,5.9921875 L0,46.0078125 C0,49.359375 2.640625,52 5.9921875,52 L46.0078125,52 C49.359375,52 52,49.359375 52,46.0078125 L52,22.34375 L47.0234375,22.34375 L47.0234375,44.6875 Z" id="Shape"></path>
        </g>
    </g>
</svg>