<?xml version="1.0" encoding="UTF-8"?>
<svg width="64px" height="64px" viewBox="0 0 64 64" version="1.1" xmlns="http://www.w3.org/2000/svg" xmlns:xlink="http://www.w3.org/1999/xlink">
    <!-- Generator: Sketch 52.6 (67491) - http://www.bohemiancoding.com/sketch -->
    <title>item-multiply</title>
    <desc>Created with Sketch.</desc>
    <g id="item-multiply" stroke="none" stroke-width="1" fill="none" fill-rule="evenodd">
        <g id="icon-item-multiply" transform="translate(6.000000, 8.000000)" fill="#000000" fill-rule="nonzero">
            <path d="M45.9724951,0 L25.3359528,0 C21.9646365,0 19.3084479,2.67811159 19.3084479,6.07725322 L19.3084479,22.4549356 C19.3084479,25.8540773 21.9646365,28.5321888 25.3359528,28.5321888 L45.9724951,28.5321888 C49.3438114,28.5321888 52,25.8540773 52,22.4549356 L52,6.07725322 C52,2.88412017 49.3438114,0 45.9724951,0 Z M46.9941061,21.1158798 C46.9941061,22.4549356 45.9724951,23.4849785 44.6444008,23.4849785 L26.6640472,23.4849785 C25.3359528,23.4849785 24.3143418,22.4549356 24.3143418,21.1158798 L24.3143418,7.41630901 C24.3143418,6.07725322 25.3359528,5.0472103 26.6640472,5.0472103 L44.6444008,5.0472103 C45.9724951,5.0472103 46.9941061,6.07725322 46.9941061,7.41630901 L46.9941061,21.1158798 Z M42.2946955,33.2703863 C41.78389,36.1545064 39.4341847,38.2145923 36.5736739,38.2145923 L15.6306483,38.2145923 C12.259332,38.2145923 9.60314342,35.639485 9.60314342,32.1373391 L9.60314342,15.8626609 C9.60314342,12.8755365 11.7485265,10.3004292 14.6090373,9.99141631 L14.302554,30.9012876 C14.302554,32.1373391 15.4263261,33.2703863 16.6522593,33.2703863 L42.2946955,33.2703863 Z M32.6915521,42.9527897 C32.0785855,45.8369099 29.7288802,48 26.8683694,48 L5.92534381,48 C2.5540275,48 0,45.3218884 0,41.9227468 L0,25.5450644 C0,22.6609442 2.043222,20.0858369 4.90373281,19.776824 L4.90373281,40.583691 C4.90373281,41.9227468 5.92534381,42.9527897 7.25343811,42.9527897 L32.6915521,42.9527897 Z" id="Shape"></path>
        </g>
    </g>
</svg>