<?xml version="1.0" encoding="UTF-8"?>
<svg width="64px" height="64px" viewBox="0 0 64 64" version="1.1" xmlns="http://www.w3.org/2000/svg" xmlns:xlink="http://www.w3.org/1999/xlink">
    <!-- Generator: Sketch 52.6 (67491) - http://www.bohemiancoding.com/sketch -->
    <title>item-share</title>
    <desc>Created with Sketch.</desc>
    <g id="item-share" stroke="none" stroke-width="1" fill="none" fill-rule="evenodd">
        <g id="icon-item-share" transform="translate(6.000000, 6.000000)" fill="#000000" fill-rule="nonzero">
            <path d="M11.984375,37.6796875 C12.6953125,37.6796875 16.1484375,37.6796875 17.1640625,37.6796875 C17.1640625,13.5078125 29.859375,16.3515625 42.3515625,16.3515625 C41.03125,17.671875 34.328125,24.4765625 34.328125,24.4765625 L37.6796875,27.828125 L52,14.015625 L37.984375,0 L34.53125,3.3515625 C34.53125,3.3515625 40.5234375,9.34375 42.65625,11.4765625 C28.640625,11.4765625 11.984375,8.53125 11.984375,37.6796875 Z M47.0234375,44.6875 C47.0234375,46.0078125 46.0078125,47.0234375 44.6875,47.0234375 L7.3125,47.0234375 C5.9921875,47.0234375 4.9765625,46.0078125 4.9765625,44.6875 L4.9765625,7.3125 C4.9765625,5.9921875 5.9921875,4.9765625 7.3125,4.9765625 L26,4.9765625 L26,0 L5.9921875,0 C2.640625,0 0,2.640625 0,5.9921875 L0,46.0078125 C0,49.359375 2.640625,52 5.9921875,52 L46.0078125,52 C49.359375,52 52,49.359375 52,46.0078125 L52,32.1953125 L47.0234375,32.1953125 L47.0234375,44.6875 Z" id="Shape"></path>
        </g>
    </g>
</svg>