<?xml version="1.0" encoding="UTF-8"?>
<svg width="64px" height="64px" viewBox="0 0 64 64" version="1.1" xmlns="http://www.w3.org/2000/svg" xmlns:xlink="http://www.w3.org/1999/xlink">
    <!-- Generator: Sketch 52.6 (67491) - http://www.bohemiancoding.com/sketch -->
    <title>item-checked</title>
    <desc>Created with Sketch.</desc>
    <g id="item-checked" stroke="none" stroke-width="1" fill="none" fill-rule="evenodd">
        <g id="icon-item-checked" transform="translate(6.000000, 6.000000)" fill="#000000" fill-rule="nonzero">
            <path d="M47.328125,4.1640625 L52,9.140625 L24.6796875,36.359375 L9.8515625,20.8203125 L14.3203125,17.46875 L24.171875,28.640625 L47.328125,4.1640625 Z M47.0234375,44.6875 C47.0234375,46.0078125 46.0078125,47.0234375 44.6875,47.0234375 L7.3125,47.0234375 C5.9921875,47.0234375 4.9765625,46.0078125 4.9765625,44.6875 L4.9765625,7.3125 C4.9765625,5.9921875 5.9921875,4.9765625 7.3125,4.9765625 L22.34375,4.9765625 L22.34375,0 L5.9921875,0 C2.640625,0 0,2.640625 0,5.9921875 L0,46.0078125 C0,49.359375 2.640625,52 5.9921875,52 L46.0078125,52 C49.359375,52 52,49.359375 52,46.0078125 L52,29.65625 L47.0234375,29.65625 L47.0234375,44.6875 Z" id="Shape"></path>
        </g>
    </g>
</svg>