<?xml version="1.0" encoding="UTF-8"?>
<svg width="64px" height="64px" viewBox="0 0 64 64" version="1.1" xmlns="http://www.w3.org/2000/svg" xmlns:xlink="http://www.w3.org/1999/xlink">
    <!-- Generator: Sketch 55.1 (78136) - https://sketchapp.com -->
    <title>job-work-item</title>
    <desc>Created with Sketch.</desc>
    <g id="job-work-item" stroke="none" stroke-width="1" fill="none" fill-rule="evenodd">
        <path d="M11.4032631,38.4682927 L7.64878049,38.4682927 C6.76097561,38.4682927 6,37.8341463 6,36.8195122 L6,27.1804878 C6,26.1658537 6.76097561,25.5317073 7.64878049,25.5317073 L17.4146341,25.5317073 C18.4292683,25.5317073 19.0634146,26.1658537 19.0634146,27.1804878 L19.0634146,33.0113208 L18.5081213,33.5703661 C15.4804375,34.0970016 12.9036606,35.9175156 11.4032631,38.4682927 Z M10.0740719,44.9365854 C10.6381449,49.7071136 14.3606163,53.364079 19.0634146,53.9251514 L19.0634146,56.3512195 C19.0634146,57.3658537 18.4292683,58 17.4146341,58 L7.64878049,58 C6.76097561,58 6,57.3658537 6,56.3512195 L6,46.5853659 C6,45.697561 6.76097561,44.9365854 7.64878049,44.9365854 L10.0740719,44.9365854 Z M27.041145,19.0585212 C26.1081278,18.9922156 25.5317073,18.2610669 25.5317073,17.4146341 L25.5317073,7.64878049 C25.5317073,6.63414634 26.1658537,6 27.1804878,6 L56.3512195,6 C57.3658537,6 58,6.63414634 58,7.64878049 L58,17.4146341 C58,18.302439 57.3658537,19.0634146 56.3512195,19.0634146 L53.0665893,19.0634146 C52.9660459,18.8038508 52.8575498,18.5435198 52.7411837,18.2816961 L52.4395403,17.6029986 L51.9143646,17.0778229 C51.2367804,16.4002386 50.4443934,16.0248975 49.6243083,15.8608804 C49.3772727,15.8114733 49.1475781,15.7853056 48.9204404,15.7733509 C48.7944836,15.7667216 48.6887523,15.7652325 48.59375,15.765625 L48.137197,15.765625 C48.1776089,15.5297065 48.1992188,15.2793518 48.1992188,15.0107422 C48.1992188,13.172867 47.0292813,11.6869197 45.4451934,11.1400746 C43.6770959,10.3886165 41.9659556,10 40.0859375,10 C34.081577,10 29.0044493,13.7770145 27.041145,19.0585212 L27.041145,19.0585212 Z M53.9047739,25.5317073 L56.3512195,25.5317073 C57.3658537,25.5317073 58,26.1658537 58,27.1804878 L58,36.8195122 C58,37.8341463 57.3658537,38.4682927 56.3512195,38.4682927 L37.5006766,38.4682927 L38.2778261,37.6963589 C38.8786997,37.7832472 39.4884937,37.828125 40.0859375,37.828125 C47.1624628,37.828125 53.0908858,32.4071748 53.9047739,25.5317073 Z M25.5317073,52.5423467 C28.039386,51.0300974 29.8770811,48.4727842 30.4203226,45.5011275 L30.9886792,44.9365854 L56.3512195,44.9365854 C57.3658537,44.9365854 58,45.697561 58,46.5853659 L58,56.3512195 C58,57.3658537 57.3658537,58 56.3512195,58 L27.1804878,58 C26.1658537,58 25.5317073,57.3658537 25.5317073,56.3512195 L25.5317073,52.5423467 Z M17.4146341,6 C18.4292683,6 19.0634146,6.63414634 19.0634146,7.64878049 L19.0634146,17.4146341 C19.0634146,18.302439 18.4292683,19.0634146 17.4146341,19.0634146 L7.64878049,19.0634146 C6.76097561,19.0634146 6,18.302439 6,17.4146341 L6,7.64878049 C6,6.63414634 6.76097561,6 7.64878049,6 L17.4146341,6 Z M48.59375,19.765625 C48.734375,19.765625 48.9453125,19.765625 49.0859375,19.90625 C49.6484375,21.171875 50,22.4375 50,23.9140625 C50,29.328125 45.5,33.828125 40.0859375,33.828125 C39.03125,33.828125 37.90625,33.6171875 37.0625,33.265625 L26.5859375,43.671875 C26.5859375,47.1171875 23.703125,50 20.328125,50 C16.8828125,50 14,47.328125 14,43.671875 C14,40.0859375 16.8828125,37.4140625 20.328125,37.4140625 L30.734375,26.9375 C30.3828125,25.8828125 30.171875,24.96875 30.171875,23.9140625 C30.171875,18.5 34.53125,14 40.0859375,14 C41.5625,14 42.828125,14.3515625 44.09375,14.9140625 C44.234375,14.9140625 44.234375,15.0546875 44.09375,15.265625 L38.328125,21.03125 C38.328125,22.296875 38.6796875,23.3515625 39.59375,24.265625 C40.4375,25.1796875 41.703125,25.53125 42.828125,25.53125 L48.59375,19.765625 Z M23,43.671875 C23,42.265625 21.734375,41 20.328125,41 C18.8515625,41 17.5859375,42.265625 17.5859375,43.671875 C17.5859375,45.1484375 18.8515625,46.4140625 20.328125,46.4140625 C21.734375,46.4140625 23,45.1484375 23,43.671875 Z" id="Shape" fill="#000000" fill-rule="nonzero"></path>
    </g>
</svg>