<?xml version="1.0" encoding="UTF-8"?>
<svg width="64px" height="64px" viewBox="0 0 64 64" version="1.1" xmlns="http://www.w3.org/2000/svg" xmlns:xlink="http://www.w3.org/1999/xlink">
    <!-- Generator: Sketch 52.6 (67491) - http://www.bohemiancoding.com/sketch -->
    <title>lanes-top</title>
    <desc>Created with Sketch.</desc>
    <g id="lanes-top" stroke="none" stroke-width="1" fill="none" fill-rule="evenodd">
        <path d="M10,6 L10,58 L6,58 L6,6 L10,6 Z M12,6 L52,6 L52,58 L12,58 L12,6 Z M54,6 L58,6 L58,58 L54,58 L54,6 Z M31,9 L31,21 L33,21 L33,9 L31,9 Z M31,26 L31,38 L33,38 L33,26 L31,26 Z M31,43 L31,55 L33,55 L33,43 L31,43 Z" id="Combined-Shape" fill="#000000"></path>
    </g>
</svg>