<?xml version="1.0" encoding="UTF-8"?>
<svg width="64px" height="64px" viewBox="0 0 64 64" version="1.1" xmlns="http://www.w3.org/2000/svg" xmlns:xlink="http://www.w3.org/1999/xlink">
    <!-- Generator: Sketch 52.6 (67491) - http://www.bohemiancoding.com/sketch -->
    <title>lanes-perspective</title>
    <desc>Created with Sketch.</desc>
    <g id="lanes-perspective" stroke="none" stroke-width="1" fill="none" fill-rule="evenodd">
        <g id="icon-lanes-perspective" transform="translate(6.000000, 12.000000)" fill="#000000" fill-rule="nonzero">
            <path d="M35.1834862,0 C37.3302752,0 39.1192661,0 40.9082569,0 C41.266055,0 41.8623853,0.589970501 41.8623853,1.179941 C43.6513761,8.14159292 45.559633,15.1032448 47.3486239,22.0648968 C48.8990826,27.4926254 50.4495413,33.1563422 51.6422018,38.5840708 C51.6422018,38.9380531 51.6422018,39.2920354 52,39.5280236 C48.8990826,39.5280236 46.1559633,39.5280236 43.412844,39.5280236 C43.0550459,39.5280236 42.4587156,38.5840708 42.4587156,38.3480826 C41.266055,32.5663717 40.3119266,26.9026549 39.1192661,21.120944 C37.9266055,14.5132743 36.3761468,7.55162242 35.1834862,0 Z M0,39.8820059 C1.90825688,32.5663717 3.69724771,25.6047198 5.48623853,18.6430678 C7.03669725,12.979351 8.58715596,7.19764012 10.1376147,1.5339233 C10.3761468,0.235988201 10.733945,0 11.9266055,0 C13.4770642,0 15.266055,0 17.1743119,0 C15.9816514,5.07374631 15.266055,9.67551622 14.4311927,14.5132743 C12.8807339,22.6548673 11.3302752,30.4424779 9.77981651,38.5840708 C9.5412844,39.5280236 8.94495413,40.1179941 7.63302752,39.8820059 C5.24770642,39.8820059 2.74311927,39.8820059 0,39.8820059 Z" id="Shape"></path>
        </g>
    </g>
</svg>