<?xml version="1.0" encoding="UTF-8"?>
<svg width="64px" height="64px" viewBox="0 0 64 64" version="1.1" xmlns="http://www.w3.org/2000/svg" xmlns:xlink="http://www.w3.org/1999/xlink">
    <!-- Generator: Sketch 52.6 (67491) - http://www.bohemiancoding.com/sketch -->
    <title>lay-by</title>
    <desc>Created with Sketch.</desc>
    <g id="lay-by" stroke="none" stroke-width="1" fill="none" fill-rule="evenodd">
        <g id="icon-lay-by" transform="translate(15.000000, 6.000000)" fill="#000000" fill-rule="nonzero">
            <path d="M10.242236,41.704 C10.242236,40.976 10.5590062,40.664 11.2981366,40.456 C15.6273292,39.104 19.7453416,37.232 24.0745342,36.192 C25.3416149,35.88 26.5031056,35.048 27.7701863,34.84 C28.4037267,34.528 28.4037267,34.32 28.4037267,33.8 C28.4037267,28.704 28.4037267,23.92 28.4037267,18.824 C28.4037267,18.096 28.0869565,17.576 27.242236,17.264 C23.757764,15.912 20.2732919,14.56 16.4720497,13.312 C14.5714286,13 12.9875776,12.168 11.0869565,11.648 C10.242236,11.44 10.242236,11.128 10.242236,10.608 C10.242236,7.384 10.242236,4.472 10.242236,1.248 C10.242236,0.52 10.5590062,0.208 11.2981366,0.208 C12.3540373,0.208 13.7267081,0.208 14.8881988,0.208 C15.6273292,0.208 15.9440994,0.52 15.9440994,1.248 C15.9440994,3.12 15.6273292,5.304 16.1552795,7.176 C16.1552795,4.992 16.1552795,2.912 16.1552795,0.52 C16.1552795,2.6 16.6832298,4.992 16.1552795,7.176 C18.0559006,8.216 19.9565217,8.736 21.8571429,9.568 C23.4409938,10.296 25.3416149,10.92 27.242236,11.44 C27.5590062,11.128 27.7701863,10.92 28.0869565,11.44 C29.9875776,12.168 31.8881988,13 33.7888199,13.832 C34,14.04 34,14.352 34,14.56 C34,22.36 34,29.744 34,37.544 C34,37.544 34,37.752 34,37.752 C34,37.752 33.7888199,37.752 33.7888199,37.752 C33.2608696,38.272 32.4161491,38.272 31.8881988,38.584 C29.9875776,39.312 28.4037267,39.936 26.5031056,40.664 C26.5031056,40.664 26.7142857,40.664 26.7142857,40.664 C27.0310559,40.976 26.7142857,40.976 26.5031056,40.976 C26.1863354,40.976 25.8695652,41.184 25.8695652,40.664 C22.9130435,41.704 19.7453416,42.848 16.6832298,44.2 C16.1552795,46.592 16.6832298,48.984 16.1552795,51.376 C16.1552795,48.984 16.1552795,46.592 16.1552795,44.2 C15.6273292,46.28 15.9440994,48.152 15.9440994,50.232 C15.9440994,51.584 15.6273292,52.104 14.2546584,51.896 C12.9875776,51.584 11.0869565,52.416 10.5590062,51.584 C9.92546584,50.856 10.242236,49.192 10.242236,47.84 C10.242236,46.28 10.242236,44.2 10.242236,41.704 Z M1.58385093,0.208 C2.95652174,0.208 4.85714286,-0.312 5.59627329,0.52 C6.44099379,1.248 5.91304348,3.12 5.91304348,4.472 C5.91304348,5.824 5.91304348,7.384 5.91304348,8.736 C5.91304348,9.256 6.22981366,9.776 5.59627329,10.088 C5.06832298,10.296 4.85714286,10.296 4.32919255,10.088 C4.01242236,10.088 3.80124224,10.088 3.48447205,10.088 C2.42857143,10.296 1.37267081,10.608 0.211180124,9.776 C0.211180124,7.176 0.211180124,4.264 0.211180124,1.56 C0.211180124,0.52 0.527950311,4.16333634e-17 1.58385093,0.208 Z M0.211180124,15.08 C0.211180124,14.352 0.527950311,14.352 1.05590062,14.352 C2.63975155,14.352 4.32919255,14.352 5.59627329,14.352 C6.22981366,14.56 6.22981366,14.872 6.22981366,15.08 C6.22981366,17.784 6.22981366,20.696 6.22981366,23.4 C6.22981366,23.608 6.22981366,23.92 5.59627329,24.232 C3.80124224,24.752 2.11180124,24.752 0.211180124,24.232 C-6.9388939e-17,21.008 0.211180124,18.096 0.211180124,15.08 Z M0.211180124,27.872 C1.37267081,27.144 2.42857143,27.664 3.48447205,27.664 C4.01242236,27.664 4.54037267,27.664 5.06832298,27.664 C5.59627329,27.664 5.91304348,27.872 5.91304348,28.704 C5.91304348,31.616 5.91304348,34.528 5.91304348,37.544 C5.91304348,37.752 5.91304348,38.064 5.59627329,38.064 C3.80124224,38.584 2.11180124,38.584 0.211180124,38.064 C5.55111512e-17,34.528 5.55111512e-17,31.408 0.211180124,27.872 Z M0,42.536 C0,42.328 0.211180124,42.328 0.211180124,42.016 C0.211180124,42.016 0.211180124,41.704 0.211180124,41.704 C1.90062112,41.704 3.48447205,41.704 5.06832298,41.704 C5.06832298,41.704 5.06832298,42.016 5.06832298,42.016 C5.38509317,42.328 5.59627329,42.328 5.59627329,42.536 C6.22981366,42.536 6.22981366,42.848 6.22981366,42.848 C6.22981366,45.448 6.22981366,48.36 6.22981366,51.064 C6.22981366,51.376 6.22981366,51.584 5.91304348,51.896 C4.32919255,51.896 2.63975155,51.896 1.05590062,51.896 C0.739130435,51.896 0.211180124,51.896 0.211180124,51.376 C0,48.36 0,45.448 0,42.536 Z" id="Shape"></path>
        </g>
    </g>
</svg>