<?xml version="1.0" encoding="UTF-8"?>
<svg width="64px" height="64px" viewBox="0 0 64 64" version="1.1" xmlns="http://www.w3.org/2000/svg" xmlns:xlink="http://www.w3.org/1999/xlink">
    <!-- Generator: Sketch 52.6 (67491) - http://www.bohemiancoding.com/sketch -->
    <title>leaves-truncate</title>
    <desc>Created with Sketch.</desc>
    <g id="leaves-truncate" stroke="none" stroke-width="1" fill="none" fill-rule="evenodd">
        <g id="icon-leaves-truncate" transform="translate(6.000000, 19.000000)" fill="#000000">
            <path d="M51.502924,13.7 C52.2982456,13.2 51.7017544,11.9 51.502924,11.7 C51.005848,11.4 48.2163743,12.4 46.128655,12.4 C43.8421053,12.4 42.3508772,12.7 41.3567251,11.9 C40.5614035,11.2 36.9824561,7.3 28.1345029,4.5 C19.4853801,1.4 13.122807,-0.1 9.24561404,0.1 C5.46783626,0.7 0.596491228,1.7 0.397660819,6.8 C0.0994152047,11.9 -0.198830409,19.3 0.397660819,21.1 C0.894736842,22.9 2.88304094,26 11.3333333,26 C19.6842105,26 28.3333333,23.7 31.4152047,21.6 C34.497076,19.9 39.5672515,15.5 40.5614035,14.5 C41.5555556,13.5 41.5555556,13.2 42.6491228,13.2 C43.6432749,13.2 47.7192982,13.2 48.7134503,13.2 C49.5087719,13.7 51.2046784,14 51.502924,13.7 Z" id="Path"></path>
        </g>
    </g>
</svg>