<?xml version="1.0" encoding="UTF-8"?>
<svg width="64px" height="64px" viewBox="0 0 64 64" version="1.1" xmlns="http://www.w3.org/2000/svg" xmlns:xlink="http://www.w3.org/1999/xlink">
    <!-- Generator: Sketch 52.6 (67491) - http://www.bohemiancoding.com/sketch -->
    <title>leaves-lobate</title>
    <desc>Created with Sketch.</desc>
    <g id="leaves-lobate" stroke="none" stroke-width="1" fill="none" fill-rule="evenodd">
        <g id="icon-leaves-lobate" transform="translate(6.000000, 18.000000)" fill="#000000">
            <path d="M0,28 L52,28 L52,1.74358974 C52,1.74358974 48.140625,10.3589744 45.8046875,10.3589744 C42.3515625,10.3589744 41.3359375,-0.102564103 35.140625,0.102564103 C30.1640625,0.102564103 27.015625,4.61538462 27.015625,8.30769231 C26.8125,13.5384615 28.84375,16.1025641 28.640625,19.5897436 C28.3359375,21.9487179 26.8125,22.1538462 24.171875,22.1538462 C20.0078125,22.1538462 20.0078125,21.1282051 19.5,19.0769231 C18.9921875,17.7435897 19.8046875,15.8974359 19.8046875,14.3589744 C19.8046875,11.3846154 16.65625,10.6666667 14.828125,10.3589744 C9.8515625,9.84615385 0,17.9487179 0,17.9487179 L0,28 Z" id="Path"></path>
        </g>
    </g>
</svg>