<?xml version="1.0" encoding="UTF-8"?>
<svg width="64px" height="64px" viewBox="0 0 64 64" version="1.1" xmlns="http://www.w3.org/2000/svg" xmlns:xlink="http://www.w3.org/1999/xlink">
    <!-- Generator: Sketch 52.6 (67491) - http://www.bohemiancoding.com/sketch -->
    <title>leaves-palmate-10</title>
    <desc>Created with Sketch.</desc>
    <g id="leaves-palmate-10" stroke="none" stroke-width="1" fill="none" fill-rule="evenodd">
        <g id="icon-leaves-palmate-10" transform="translate(6.000000, 17.000000)" fill="#000000">
            <path d="M52,14.1 L52,12.3 C52,13.4 40.3203125,14.6 34.53125,13.4 C33.515625,13.1 32.8046875,13.6 31.9921875,11.6 C31.1796875,9.5 32.8046875,5.9 31.9921875,4.7 C30.9765625,3.1 28.640625,0.6 27.828125,0.1 C26.5078125,-1 27.3203125,8 26.3046875,8 C24.6796875,8 15.3359375,-0.7 14.015625,0.1 C12.1875,0.6 16.1484375,7 14.5234375,9.5 C12.6953125,12.1 0,11.8 0,13.6 C0,16.4 12.6953125,16.7 14.5234375,19.8 C16.1484375,22.3 12.4921875,28 13.5078125,29.7 C14.828125,31.8 23.359375,21.6 26,21.3 C27.5234375,21 27.5234375,26.4 29.1484375,27.7 C29.65625,28.2 32.1953125,23.9 32.8046875,21.8 C33.0078125,20 32.1953125,17.5 31.9921875,15.9 C31.9921875,14.6 33.0078125,14.6 33.8203125,14.6 C37.984375,14.6 51.4921875,15.2 52,14.1 Z" id="Path"></path>
        </g>
    </g>
</svg>