<?xml version="1.0" encoding="UTF-8"?>
<svg width="64px" height="64px" viewBox="0 0 64 64" version="1.1" xmlns="http://www.w3.org/2000/svg" xmlns:xlink="http://www.w3.org/1999/xlink">
    <!-- Generator: Sketch 52.6 (67491) - http://www.bohemiancoding.com/sketch -->
    <title>leaves-lanceolate</title>
    <desc>Created with Sketch.</desc>
    <g id="leaves-lanceolate" stroke="none" stroke-width="1" fill="none" fill-rule="evenodd">
        <g id="icon-leaves-lanceolate" transform="translate(6.000000, 26.000000)" fill="#000000">
            <path d="M0,6.43636364 C0,5.89090909 19.3488372,0 27.3100775,0 C35.0697674,0 36.379845,1.41818182 40.5116279,3.05454545 C44.6434109,4.8 45.4496124,5.01818182 47.7674419,5.01818182 C50.0852713,5.01818182 51.0930233,3.38181818 51.5968992,3.70909091 C52.1007752,3.92727273 51.2945736,5.01818182 51.8992248,5.89090909 C52.1007752,6.43636364 49.5813953,5.56363636 48.4728682,5.89090909 C47.4651163,6.21818182 46.9612403,5.89090909 42.8294574,8.07272727 C39,10.3636364 35.5736434,12 29.4263566,12 C23.1782946,12 15.5193798,10.6909091 12.3953488,9.81818182 C9.27131783,9.27272727 6.95348837,7.85454545 5.13953488,7.52727273 C3.12403101,6.98181818 0,6.76363636 0,6.43636364 Z" id="Path"></path>
        </g>
    </g>
</svg>