<?xml version="1.0" encoding="UTF-8"?>
<svg width="64px" height="64px" viewBox="0 0 64 64" version="1.1" xmlns="http://www.w3.org/2000/svg" xmlns:xlink="http://www.w3.org/1999/xlink">
    <!-- Generator: Sketch 52.6 (67491) - http://www.bohemiancoding.com/sketch -->
    <title>leaves-linear</title>
    <desc>Created with Sketch.</desc>
    <g id="leaves-linear" stroke="none" stroke-width="1" fill="none" fill-rule="evenodd">
        <g id="icon-leaves-linear" transform="translate(6.000000, 27.000000)" fill="#000000">
            <path d="M0,5.42553191 C0,5.42553191 5.98050682,1.59574468 13.2787524,1.06382979 C20.4756335,0.212765957 33.754386,-0.319148936 37.9103314,0.425531915 C41.7621832,1.27659574 44.6003899,2.9787234 45.7153996,4.04255319 C46.7290448,5.10638298 47.7426901,5.10638298 48.7563353,5.10638298 C49.871345,5.10638298 52.4054581,3.72340426 51.8986355,4.25531915 C51.5945419,4.78723404 51.5945419,5.42553191 51.8986355,6.17021277 C51.8986355,6.4893617 49.871345,5.63829787 49.2631579,5.63829787 C48.7563353,5.63829787 47.2358674,5.42553191 45.9181287,6.17021277 C44.9044834,7.0212766 43.5867446,9.14893617 35.5789474,9.78723404 C27.4697856,10.3191489 11.6569201,9.46808511 8.51461988,8.93617021 C0.810916179,7.23404255 0,5.42553191 0,5.42553191 Z" id="Path"></path>
        </g>
    </g>
</svg>