<?xml version="1.0" encoding="UTF-8"?>
<svg width="64px" height="64px" viewBox="0 0 64 64" version="1.1" xmlns="http://www.w3.org/2000/svg" xmlns:xlink="http://www.w3.org/1999/xlink">
    <!-- Generator: Sketch 52.6 (67491) - http://www.bohemiancoding.com/sketch -->
    <title>leaves-serrulate</title>
    <desc>Created with Sketch.</desc>
    <g id="leaves-serrulate" stroke="none" stroke-width="1" fill="none" fill-rule="evenodd">
        <g id="icon-leaves-serrulate" transform="translate(6.000000, 19.000000)" fill="#000000">
            <path d="M0,26 L52,26 L52,0 L49.956778,2.08396947 L49.956778,0 L48.4243615,1.78625954 L48.6286837,0.297709924 L46.0746562,2.28244275 L46.0746562,0.79389313 L43.9292731,2.58015267 L43.9292731,0.79389313 L42.3968566,2.58015267 L41.5795678,1.09160305 L40.0471513,3.07633588 L40.0471513,1.29007634 L37.1866405,3.57251908 C37.1866405,3.57251908 37.1866405,2.08396947 37.697446,1.78625954 C38.2082515,1.58778626 36.0628684,3.3740458 35.5520629,3.87022901 C34.7347741,4.36641221 35.3477407,2.28244275 35.3477407,2.28244275 L32.3850688,4.66412214 L32.3850688,2.8778626 C32.3850688,2.8778626 31.3634578,3.57251908 30.6483301,4.36641221 C29.524558,5.35877863 29.8310413,3.57251908 29.8310413,3.57251908 L27.6856582,5.65648855 L27.9921415,3.57251908 L25.6424361,5.85496183 L25.8467583,4.36641221 C25.8467583,4.36641221 23.497053,5.85496183 22.9862475,6.94656489 C22.2711198,7.44274809 22.2711198,5.35877863 22.2711198,5.35877863 L20.6365422,7.44274809 L20.43222,5.65648855 L18.7976424,7.44274809 L18.7976424,5.65648855 L16.7544204,8.4351145 C16.7544204,8.4351145 16.2436149,7.14503817 16.4479371,6.94656489 C16.4479371,6.35114504 14.4047151,7.9389313 14.6090373,8.93129771 C14.9155206,9.92366412 14.0982318,7.9389313 14.0982318,7.64122137 C14.0982318,7.44274809 12.7701375,10.7175573 12.7701375,10.7175573 L12.0550098,8.13740458 L10.7269155,11.7099237 L10.21611,9.42748092 L8.37721022,13 L8.37721022,10.7175573 L6.23182711,13.7938931 L6.02750491,12.5038168 L4.49508841,14.7862595 L3.88212181,13 L2.043222,15.2824427 L1.8388998,13.7938931 C1.8388998,13.7938931 0,14.9847328 0,17.0687023 L0,26 Z" id="Path"></path>
        </g>
    </g>
</svg>