<?xml version="1.0" encoding="UTF-8"?>
<svg width="64px" height="64px" viewBox="0 0 64 64" version="1.1" xmlns="http://www.w3.org/2000/svg" xmlns:xlink="http://www.w3.org/1999/xlink">
    <!-- Generator: Sketch 52.6 (67491) - http://www.bohemiancoding.com/sketch -->
    <title>leaves-pinnatisect</title>
    <desc>Created with Sketch.</desc>
    <g id="leaves-pinnatisect" stroke="none" stroke-width="1" fill="none" fill-rule="evenodd">
        <g id="icon-leaves-pinnatisect" transform="translate(6.000000, 23.000000)" fill="#000000">
            <path d="M51.8988327,7.45856354 C51.8988327,7.45856354 51.0894942,5.86740331 50.8871595,5.66850829 C50.5836576,5.66850829 46.7392996,5.37016575 42.5914397,5.66850829 C38.4435798,5.86740331 32.9805447,6.36464088 32.9805447,6.16574586 C32.9805447,5.86740331 33.2840467,3.38121547 32.9805447,3.38121547 C32.1712062,3.38121547 31.463035,4.87292818 30.6536965,6.16574586 C30.1478599,5.17127072 30.9571984,2.08839779 30.6536965,2.08839779 C29.1361868,3.08287293 28.0233463,4.37569061 27.0116732,6.16574586 C26,4.07734807 26.3035019,0.596685083 26,0.298342541 C23.3696498,0.79558011 22.155642,6.36464088 21.5486381,6.16574586 L20.3346304,0.298342541 L20.0311284,0 C17.5019455,0.298342541 16.3891051,6.66298343 13.5564202,6.16574586 C11.0272374,5.66850829 10.2178988,4.37569061 10.4202335,3.38121547 C10.7237354,2.28729282 11.0272374,0.79558011 10.7237354,0.79558011 C10.4202335,0.596685083 7.38521401,0.596685083 5.76653696,1.29281768 C4.55252918,2.08839779 -0.20233463,6.96132597 0.101167315,9.24861878 C0.404669261,11.5359116 1.92217899,13.5248619 4.75486381,15.6132597 C7.58754864,17.6022099 9.71206226,18.0994475 10.2178988,17.9005525 C10.7237354,17.6022099 10.7237354,17.3038674 10.4202335,16.3093923 C10.2178988,15.3149171 9.91439689,14.0220994 10.4202335,13.3259669 C11.0272374,12.5303867 12.2412451,10.441989 13.5564202,10.2430939 C14.5680934,9.94475138 14.5680934,9.44751381 15.6809339,11.7348066 C16.692607,13.8232044 19.8287938,17.6022099 20.3346304,17.3038674 C20.8404669,17.1049724 20.8404669,9.94475138 21.5486381,9.74585635 C22.3579767,9.74585635 24.4824903,15.0165746 26.3035019,14.8176796 C26.5058366,14.519337 26.3035019,10.7403315 27.5175097,8.95027624 C28.3268482,10.2430939 29.1361868,11.5359116 30.4513619,12.0331492 C30.9571984,12.0331492 29.844358,9.24861878 30.6536965,8.6519337 C31.6653696,9.44751381 32.7782101,9.94475138 34.2957198,9.94475138 C33.4863813,9.24861878 32.7782101,8.15469613 32.9805447,7.65745856 C39.4552529,6.96132597 45.4241245,5.66850829 51.8988327,7.45856354 Z" id="Path"></path>
        </g>
    </g>
</svg>