<?xml version="1.0" encoding="UTF-8"?>
<svg width="64px" height="64px" viewBox="0 0 64 64" version="1.1" xmlns="http://www.w3.org/2000/svg" xmlns:xlink="http://www.w3.org/1999/xlink">
    <!-- Generator: Sketch 52.6 (67491) - http://www.bohemiancoding.com/sketch -->
    <title>leaves-unfoliate</title>
    <desc>Created with Sketch.</desc>
    <g id="leaves-unfoliate" stroke="none" stroke-width="1" fill="none" fill-rule="evenodd">
        <g id="icon-leaves-unfoliate" transform="translate(6.000000, 22.000000)" fill="#000000">
            <path d="M51.6953125,13.7113402 C51.6953125,13.7113402 46.0078125,5.77319588 43.1640625,4.22680412 C40.3203125,2.57731959 38.1875,1.34020619 32.8046875,0.206185567 C27.5234375,-0.515463918 24.984375,1.03092784 23.6640625,2.06185567 C22.6484375,3.09278351 20.8203125,4.94845361 19.8046875,5.25773196 C18.9921875,5.25773196 15.03125,4.74226804 12.6953125,5.77319588 C10.359375,6.80412371 8.0234375,10.8247423 6.8046875,11.8556701 C5.6875,12.8865979 0,16.2886598 0,17.1134021 C0,17.628866 2.640625,20 9.34375,20 C16.1484375,20 20.0078125,17.628866 21.328125,16.5979381 C22.6484375,15.5670103 25.1875,11.8556701 25.1875,10 C25.1875,8.1443299 24.6796875,6.59793814 24.984375,5.46391753 C25.1875,4.43298969 26,1.54639175 29.3515625,1.54639175 C32.8046875,1.54639175 37.4765625,2.57731959 40.3203125,3.91752577 C42.859375,5.25773196 46.0078125,7.93814433 48.6484375,11.5463918 C51.1875,15.257732 51.4921875,15.0515464 51.4921875,15.0515464 C51.4921875,15.0515464 52,15.257732 52,14.742268 C52,14.2268041 52,13.7113402 51.6953125,13.7113402 Z" id="Path"></path>
        </g>
    </g>
</svg>