<?xml version="1.0" encoding="UTF-8"?>
<svg width="64px" height="64px" viewBox="0 0 64 64" version="1.1" xmlns="http://www.w3.org/2000/svg" xmlns:xlink="http://www.w3.org/1999/xlink">
    <!-- Generator: Sketch 52.6 (67491) - http://www.bohemiancoding.com/sketch -->
    <title>leaves-spiny</title>
    <desc>Created with Sketch.</desc>
    <g id="leaves-spiny" stroke="none" stroke-width="1" fill="none" fill-rule="evenodd">
        <g id="icon-leaves-spiny" transform="translate(6.000000, 18.000000)" fill="#000000">
            <path d="M0,27.8955224 L52,27.8955224 L52,6.1641791 C52,6.1641791 50.984375,6.47761194 50.4765625,6.47761194 C49.96875,6.1641791 47.53125,4.80597015 46.3125,4.80597015 C44.6875,4.80597015 42.859375,5.11940299 41.640625,3.76119403 C40.3203125,2.40298507 40.3203125,0 40.3203125,0 C40.3203125,0 38.1875,4.28358209 36.359375,5.43283582 C34.53125,6.47761194 32.1953125,7 31.484375,7.52238806 C30.671875,8.04477612 27.5234375,11.2835821 26.3046875,11.2835821 C25.1875,11.2835821 20.8203125,10.761194 19.8046875,10.4477612 C18.6875,10.238806 16.1484375,10.4477612 15.03125,9.08955224 C13.8125,7.8358209 13.3046875,5.95522388 13.5078125,5.11940299 C13.5078125,4.28358209 13.5078125,4.28358209 13.5078125,4.28358209 C13.5078125,4.28358209 12.4921875,8.35820896 9.34375,10.4477612 C6.5,12.3283582 4.1640625,13.3731343 2.84375,15.5671642 C1.5234375,17.4477612 0,22.2537313 0,22.7761194 C0,23.6119403 0,28.1044776 0,27.8955224 Z" id="Path"></path>
        </g>
    </g>
</svg>