<?xml version="1.0" encoding="UTF-8"?>
<svg width="64px" height="64px" viewBox="0 0 64 64" version="1.1" xmlns="http://www.w3.org/2000/svg" xmlns:xlink="http://www.w3.org/1999/xlink">
    <!-- Generator: Sketch 52.6 (67491) - http://www.bohemiancoding.com/sketch -->
    <title>leaves-spearshaped</title>
    <desc>Created with Sketch.</desc>
    <g id="leaves-spearshaped" stroke="none" stroke-width="1" fill="none" fill-rule="evenodd">
        <g id="icon-leaves-spearshaped" transform="translate(6.000000, 23.000000)" fill="#000000">
            <path d="M49.0661479,10.0465116 C49.0661479,10.0465116 51.5953307,8.37209302 51.8988327,8.1627907 C52.2023346,7.63953488 43.0972763,9 36.6225681,8.68604651 C36.6225681,8.68604651 34.2957198,8.37209302 34.8015564,6.80232558 C35.307393,5.23255814 38.9494163,0.627906977 38.9494163,0.418604651 C38.4435798,-0.73255814 26.3035019,1.46511628 22.8638132,1.46511628 C19.2217899,1.46511628 16.692607,1.15116279 14.8715953,1.46511628 C12.7470817,1.46511628 -0.20233463,7.3255814 0.101167315,9 C0.404669261,10.5697674 8.09338521,15.0697674 17.1984436,16.4302326 C26.3035019,17.7906977 38.1400778,18.1046512 38.1400778,17.7906977 C38.4435798,16.744186 34.4980545,14.0232558 34.4980545,12.1395349 C34.8015564,10.255814 36.1167315,9.73255814 36.6225681,9.52325581 C37.1284047,9.20930233 46.233463,9.20930233 47.2451362,9.52325581 C48.2568093,9.73255814 49.8754864,9.73255814 49.0661479,10.0465116 Z" id="Path"></path>
        </g>
    </g>
</svg>