<?xml version="1.0" encoding="UTF-8"?>
<svg width="64px" height="64px" viewBox="0 0 64 64" version="1.1" xmlns="http://www.w3.org/2000/svg" xmlns:xlink="http://www.w3.org/1999/xlink">
    <!-- Generator: Sketch 52.6 (67491) - http://www.bohemiancoding.com/sketch -->
    <title>leaves-rhomboid</title>
    <desc>Created with Sketch.</desc>
    <g id="leaves-rhomboid" stroke="none" stroke-width="1" fill="none" fill-rule="evenodd">
        <g id="icon-leaves-rhomboid" transform="translate(6.000000, 19.000000)" fill="#000000">
            <path d="M51.7976654,13.9686275 C52.1011673,13.6627451 51.7976654,12.6431373 51.7976654,11.827451 C52.1011673,11.1137255 49.7743191,12.8470588 48.9649805,12.8470588 C47.9533074,12.8470588 36.8249027,12.8470588 36.5214008,12.6431373 C36.2178988,12.3372549 35.2062257,12.8470588 33.385214,9.99215686 C31.3618677,6.93333333 28.5291829,4.28235294 23.0661479,0.407843137 C23.0661479,0.407843137 21.4474708,-0.71372549 22.0544747,1.12156863 C22.2568093,1.63137255 19.1206226,3.2627451 15.7821012,3.46666667 C13.4552529,3.77254902 15.5797665,4.28235294 15.2762646,4.58823529 C14.9727626,5.09803922 10.6225681,7.1372549 8.80155642,6.93333333 C6.77821012,6.62745098 7.78988327,7.1372549 8.29571984,7.44313725 C10.1167315,8.15686275 0,12.3372549 0,12.6431373 C0,12.8470588 6.47470817,15.4980392 9.307393,18.1490196 C9.307393,18.1490196 7.28404669,18.8627451 8.49805447,18.8627451 C11.9377432,19.1686275 15.5797665,20.6980392 15.5797665,21.2078431 C15.5797665,22.0235294 14.770428,22.3294118 15.2762646,22.3294118 C15.7821012,22.3294118 21.4474708,23.8588235 21.7509728,24.6745098 C21.7509728,25.1843137 21.4474708,26.5098039 22.5603113,25.6941176 C23.2684825,25.1843137 32.8793774,15.8039216 34.7003891,14.9882353 C36.5214008,14.172549 41.4785992,13.9686275 45.6264591,13.9686275 C49.7743191,14.172549 51.4941634,14.172549 51.7976654,13.9686275 Z" id="Path"></path>
        </g>
    </g>
</svg>