<?xml version="1.0" encoding="UTF-8"?>
<svg width="64px" height="64px" viewBox="0 0 64 64" version="1.1" xmlns="http://www.w3.org/2000/svg" xmlns:xlink="http://www.w3.org/1999/xlink">
    <!-- Generator: Sketch 52.6 (67491) - http://www.bohemiancoding.com/sketch -->
    <title>leaves-palmate-41</title>
    <desc>Created with Sketch.</desc>
    <g id="leaves-palmate-41" stroke="none" stroke-width="1" fill="none" fill-rule="evenodd">
        <g id="icon-leaves-palmate-41" transform="translate(6.000000, 6.000000)" fill="#000000">
            <path d="M7.04061896,51.1017274 C6.73887814,51.1017274 6.43713733,51.4011516 6.43713733,51.1017274 C6.43713733,50.1036468 7.04061896,47.6084453 7.54352031,47.0095969 C5.23017408,47.3090211 2.91682785,48.1074856 0.301740812,48.6065259 C-0.201160542,48.6065259 0.301740812,48.1074856 0.301740812,47.8080614 C3.11798839,46.5105566 6.43713733,46.8099808 9.35396518,45.3128599 C10.3597679,44.2149712 13.4777563,43.0172745 14.483559,41.7197697 C14.1818182,41.7197697 8.24758221,41.7197697 7.54352031,41.7197697 C4.1237911,41.7197697 2.61508704,43.2168906 0.603481625,44.5143954 L0.301740812,42.21881 C1.10638298,40.621881 5.23017408,39.4241843 7.2417795,39.4241843 C4.1237911,38.1266795 1.10638298,37.328215 0.301740812,37.1285988 C0.301740812,35.3320537 5.93423598,37.6276392 8.04642166,38.6257198 C9.85686654,39.6238004 11.868472,39.1247601 13.9806576,39.4241843 C16.2940039,39.6238004 18.3056093,39.9232246 18.6073501,39.9232246 C18.8085106,39.9232246 19.1102515,39.9232246 19.1102515,39.9232246 C16.4951644,36.0307102 11.1644101,34.0345489 6.73887814,32.7370441 C5.23017408,31.9385797 0.804642166,32.7370441 0.301740812,30.7408829 C1.30754352,28.6449136 5.23017408,30.940499 7.2417795,30.7408829 C5.23017408,27.3474088 2.61508704,24.8522073 0.301740812,22.756238 C0.301740812,22.5566219 2.77555756e-17,21.7581574 0.603481625,22.0575816 C3.41972921,24.0537428 5.93423598,26.8483685 8.04642166,29.6429942 C9.05222437,30.940499 9.55512573,31.4395393 11.1644101,31.9385797 C16.7969052,33.7351248 20.6189555,38.1266795 20.6189555,38.1266795 C13.9806576,25.0518234 15.9922631,25.0518234 13.6789168,24.5527831 C9.35396518,23.8541267 8.54932302,22.756238 0.603481625,17.4664107 C0.301740812,17.1669866 0.301740812,16.6679463 0.603481625,16.3685221 C6.73887814,20.2610365 9.05222437,22.5566219 14.1818182,23.5547025 C10.5609284,17.1669866 6.73887814,13.3742802 0.301740812,10.4798464 L0.301740812,8.68330134 C9.35396518,13.074856 9.55512573,14.8714012 13.1760155,18.9635317 C13.1760155,12.7754319 11.1644101,9.48176583 7.04061896,6.9865643 C4.92843327,5.38963532 2.31334623,5.38963532 0.301740812,4.09213052 C0.301740812,3.8925144 0.603481625,3.59309021 0.804642166,3.59309021 C2.61508704,3.59309021 4.42553191,4.69097889 6.23597679,4.89059501 C5.43133462,3.59309021 4.72727273,2.29558541 3.92263056,1.09788868 C3.62088975,0.798464491 3.92263056,0.598848369 4.1237911,0.598848369 C4.72727273,0.598848369 5.43133462,2.09596929 6.43713733,3.8925144 C7.54352031,5.38963532 8.75048356,6.9865643 9.55512573,7.48560461 C12.8742747,9.98080614 13.9806576,13.8733205 13.9806576,17.9654511 C13.9806576,19.9616123 15.1876209,22.756238 16.2940039,24.8522073 C17.8027079,27.8464491 18.6073501,31.7389635 20.6189555,35.5316699 L20.6189555,28.6449136 C20.6189555,24.8522073 20.9206963,19.7619962 21.1218569,16.8675624 C21.4235977,12.5758157 21.4235977,12.0767754 20.9206963,11.2783109 C20.1160542,9.78119002 18.8085106,7.98464491 17.2998066,6.68714012 C13.6789168,5.19001919 9.55512573,4.3915547 7.74468085,0.798464491 C7.74468085,0.598848369 8.24758221,0.798464491 8.54932302,0.798464491 C10.5609284,3.39347409 13.4777563,4.69097889 16.4951644,5.38963532 C16.7969052,4.09213052 15.1876209,2.09596929 15.4893617,0.798464491 C15.4893617,0.598848369 15.9922631,1.09788868 16.2940039,0.798464491 C17.6015474,2.29558541 17.6015474,4.69097889 18.6073501,6.18809981 C19.6131528,7.68522073 20.417795,8.98272553 21.926499,10.4798464 C22.4294004,8.68330134 22.4294004,6.9865643 22.4294004,4.89059501 L22.4294004,0.598848369 L24.5415861,0.598848369 C24.2398453,5.19001919 24.5415861,8.98272553 24.0386847,14.0729367 C30.1740812,7.18618042 29.8723404,4.89059501 28.3636364,0.798464491 C27.860735,0 28.8665377,0.798464491 28.6653772,0.299424184 C30.4758221,2.09596929 30.1740812,5.88867562 29.3694391,8.18426104 C28.8665377,9.48176583 27.860735,11.0786948 26.3520309,12.7754319 C24.0386847,15.3704415 23.7369439,15.8694818 23.7369439,17.1669866 C23.4352031,18.1650672 23.2340426,22.0575816 23.2340426,25.5508637 L22.9323017,32.2380038 L24.5415861,29.4433781 C25.245648,27.8464491 27.5589942,24.5527831 29.1682785,21.7581574 C30.9787234,18.9635317 32.9903288,16.168906 34.2978723,15.0710173 C35.6054159,14.0729367 36.3094778,12.5758157 37.1141199,11.0786948 C37.9187621,9.48176583 38.1199226,8.48368522 37.9187621,7.98464491 C36.3094778,5.38963532 33.9961315,3.39347409 33.4932302,0.299424184 C33.4932302,0 33.794971,0.299424184 33.9961315,0.299424184 C35.303675,2.29558541 36.6112186,4.69097889 38.4216634,6.18809981 C38.622824,4.89059501 38.622824,1.59692898 38.622824,0.299424184 C38.622824,0 39.2263056,0 39.4274662,0 C40.2321083,4.09213052 39.9303675,8.18426104 37.9187621,12.0767754 C37.9187621,12.0767754 38.622824,11.5777351 39.729207,11.0786948 C40.7350097,10.4798464 42.2437137,9.48176583 43.3500967,8.98272553 C44.3558994,8.48368522 45.0599613,7.68522073 45.3617021,7.18618042 C45.6634429,6.68714012 45.8646035,5.19001919 45.8646035,3.59309021 C46.1663443,1.59692898 46.1663443,0.299424184 46.3675048,0.299424184 C46.8704062,0.299424184 46.8704062,1.59692898 46.8704062,4.09213052 C46.8704062,5.88867562 46.6692456,7.18618042 46.8704062,7.18618042 C46.8704062,7.18618042 47.9767892,6.38771593 48.9825919,5.6890595 C49.9883946,4.89059501 51.4970986,4.3915547 51.7988395,4.3915547 C51.7988395,4.89059501 51.7988395,5.38963532 51.7988395,5.88867562 C51.7988395,6.38771593 50.4912959,6.9865643 49.1837524,7.98464491 C43.8529981,11.5777351 37.9187621,13.8733205 33.4932302,18.6641075 L32.4874275,20.2610365 C35.1025145,20.2610365 37.9187621,20.2610365 38.1199226,19.7619962 C39.9303675,18.4644914 42.2437137,16.3685221 44.0541586,15.0710173 C44.55706,14.8714012 45.0599613,14.0729367 45.6634429,13.3742802 C46.8704062,11.2783109 48.9825919,9.78119002 51.2959381,9.28214971 C51.4970986,9.28214971 51.4970986,9.48176583 51.4970986,9.78119002 C49.787234,10.7792706 47.9767892,11.7773512 46.6692456,13.3742802 C47.172147,13.5738964 49.4854932,12.7754319 51.2959381,12.7754319 C51.4970986,12.7754319 51.2959381,13.3742802 51.4970986,13.5738964 C49.787234,14.0729367 47.6750484,14.3723608 45.8646035,15.3704415 C43.3500967,16.8675624 44.0541586,15.8694818 38.622824,20.7600768 C37.9187621,21.2591171 34.2978723,20.9596929 31.9845261,21.2591171 L29.6711799,24.8522073 C28.3636364,26.8483685 26.8549323,29.6429942 26.0502901,30.940499 C25.5473888,32.2380038 24.7427466,34.0345489 24.7427466,34.5335893 L24.5415861,35.5316699 C27.3578337,33.2360845 30.1740812,31.4395393 33.794971,30.2418426 C35.8065764,29.4433781 36.6112186,28.9443378 37.6170213,27.8464491 C38.4216634,27.1477927 39.729207,25.3512476 40.2321083,23.8541267 C42.2437137,18.9635317 46.3675048,15.8694818 51.4970986,17.4664107 C51.7988395,17.4664107 52.1005803,17.9654511 51.7988395,17.9654511 C44.8588008,17.4664107 42.2437137,21.7581574 41.237911,24.0537428 C44.55706,22.756238 47.9767892,22.2571977 51.2959381,21.2591171 C51.7988395,21.2591171 51.7988395,21.4587332 51.7988395,21.7581574 C51.7988395,22.0575816 51.2959381,22.5566219 50.7930368,22.756238 C47.3733075,23.8541267 42.7466151,23.5547025 39.9303675,26.3493282 C39.9303675,26.6487524 39.4274662,27.1477927 38.622824,28.1458733 C37.6170213,29.1439539 37.6170213,29.4433781 38.1199226,29.4433781 C38.4216634,29.4433781 39.729207,29.1439539 40.7350097,28.9443378 C41.7408124,28.6449136 44.55706,28.6449136 46.8704062,28.6449136 L51.4970986,28.9443378 L51.4970986,29.6429942 C51.4970986,30.4414587 51.2959381,30.2418426 47.9767892,30.2418426 C46.1663443,30.2418426 44.55706,30.2418426 44.3558994,30.4414587 C45.3617021,31.4395393 46.8704062,31.9385797 47.3733075,33.2360845 C48.4796905,34.2341651 49.9883946,34.8330134 50.9941973,35.3320537 C51.2959381,35.3320537 51.2959381,35.5316699 50.9941973,35.831094 C49.1837524,36.0307102 46.8704062,34.8330134 46.6692456,33.7351248 C46.1663443,32.7370441 45.0599613,31.9385797 41.5396518,30.4414587 C37.4158607,30.2418426 24.7427466,34.8330134 24.7427466,39.6238004 C24.7427466,39.6238004 25.245648,39.6238004 26.0502901,39.4241843 C29.6711799,38.3262956 33.4932302,39.9232246 37.1141199,40.1228407 C41.237911,39.6238004 48.6808511,38.1266795 51.7988395,38.6257198 C51.7988395,38.925144 52.3017408,39.4241843 51.4970986,39.4241843 C48.1779497,39.9232246 43.0483559,40.1228407 39.9303675,40.9213052 C44.8588008,43.7159309 46.8704062,43.0172745 51.4970986,46.3109405 C51.4970986,46.5105566 51.7988395,47.3090211 51.4970986,47.6084453 C49.787234,47.0095969 47.3733075,46.0115163 45.8646035,45.512476 C46.1663443,46.5105566 47.3733075,50.1036468 47.3733075,51.4011516 C47.3733075,51.7005758 46.8704062,51.4011516 46.6692456,51.7005758 C45.3617021,48.1074856 45.3617021,47.3090211 44.3558994,45.8119002 C43.5512573,45.0134357 42.7466151,44.2149712 40.9361702,43.7159309 C36.3094778,42.4184261 30.6769826,39.9232246 26.0502901,41.7197697 C25.5473888,41.9193858 25.0444874,42.4184261 24.7427466,43.0172745 C24.5415861,45.512476 25.0444874,49.1055662 25.0444874,51.7005758 C24.2398453,51.9001919 22.4294004,52.1996161 21.926499,51.7005758 C21.6247582,48.6065259 21.6247582,43.7159309 18.1044487,42.7178503 C14.6847195,43.5163148 11.3655706,45.512476 9.05222437,47.8080614 C7.74468085,48.1074856 8.04642166,50.403071 7.04061896,51.1017274 Z" id="Path"></path>
        </g>
    </g>
</svg>