<?xml version="1.0" encoding="UTF-8"?>
<svg width="64px" height="64px" viewBox="0 0 64 64" version="1.1" xmlns="http://www.w3.org/2000/svg" xmlns:xlink="http://www.w3.org/1999/xlink">
    <!-- Generator: Sketch 52.6 (67491) - http://www.bohemiancoding.com/sketch -->
    <title>leaves-digitate</title>
    <desc>Created with Sketch.</desc>
    <g id="leaves-digitate" stroke="none" stroke-width="1" fill="none" fill-rule="evenodd">
        <g id="icon-leaves-digitate" transform="translate(6.000000, 11.000000)" fill="#000000">
            <path d="M51.0894942,19.4482759 C44.614786,20.1724138 38.4435798,20.1724138 32.1712062,19.9655172 C32.1712062,19.9655172 42.0856031,12.5172414 39.4552529,9.82758621 C36.92607,7.44827586 30.9571984,17.7931034 30.9571984,17.7931034 C30.9571984,17.7931034 36.6225681,0.620689655 31.463035,0.103448276 C26.3035019,-0.413793103 28.8326848,17.5862069 28.8326848,17.5862069 C28.8326848,17.5862069 22.8638132,-2.5862069 18.5136187,1.13793103 C10.7237354,7.44827586 27.3151751,18.9310345 27.3151751,18.9310345 C27.3151751,18.9310345 1.41634241,7.44827586 0.101167315,15.7241379 C-1.21400778,24.2068966 27.5175097,20.4827586 27.5175097,20.4827586 C27.5175097,20.4827586 -0.404669261,27.9310345 3.43968872,34.7586207 C6.87937743,41.1724138 28.3268482,22.3448276 28.3268482,22.3448276 C28.3268482,22.3448276 18.2101167,40.3448276 25.1906615,41.8965517 C32.1712062,43.5517241 30.6536965,23.0689655 30.6536965,23.0689655 C30.6536965,23.0689655 35.6108949,36.1034483 38.9494163,33.7241379 C43.6031128,30.3103448 31.6653696,21.3103448 31.6653696,21.3103448 C38.9494163,20.6896552 52.2023346,23.0689655 51.8988327,22.3448276 C51.8988327,21.8275862 50.8871595,21.3103448 50.5836576,20.6896552 C50.5836576,20.1724138 51.3929961,19.4482759 51.0894942,19.4482759 Z" id="Path"></path>
        </g>
    </g>
</svg>