<?xml version="1.0" encoding="UTF-8"?>
<svg width="64px" height="64px" viewBox="0 0 64 64" version="1.1" xmlns="http://www.w3.org/2000/svg" xmlns:xlink="http://www.w3.org/1999/xlink">
    <!-- Generator: Sketch 52.6 (67491) - http://www.bohemiancoding.com/sketch -->
    <title>leaves-elliptic</title>
    <desc>Created with Sketch.</desc>
    <g id="leaves-elliptic" stroke="none" stroke-width="1" fill="none" fill-rule="evenodd">
        <g id="icon-leaves-elliptic" transform="translate(6.000000, 20.000000)" fill="#000000">
            <path d="M0.101167315,12.5263158 C0.404669261,10.4210526 10.7237354,-0.105263158 23.1673152,0.105263158 C35.307393,0.421052632 39.9610895,7.15789474 41.7821012,8.73684211 C42.7937743,9.57894737 43.9066148,10.4210526 45.7276265,10.4210526 C50.381323,9.89473684 51.0894942,7.36842105 51.8988327,8.52631579 C52.4046693,9.05263158 50.5836576,9.89473684 50.5836576,10.6315789 C50.5836576,11.1578947 51.8988327,11.6842105 51.5953307,11.6842105 C50.381323,12.3157895 47.4474708,11.4736842 45.9299611,11.4736842 C43.6031128,11.4736842 42.0856031,12 41.7821012,13.5789474 C39.7587549,23.3684211 30.9571984,23.5789474 24.4824903,23.8947368 C9.71206226,24.1052632 -0.20233463,15.2631579 0.101167315,12.5263158 Z" id="Path"></path>
        </g>
    </g>
</svg>