<?xml version="1.0" encoding="UTF-8"?>
<svg width="64px" height="64px" viewBox="0 0 64 64" version="1.1" xmlns="http://www.w3.org/2000/svg" xmlns:xlink="http://www.w3.org/1999/xlink">
    <!-- Generator: Sketch 52.6 (67491) - http://www.bohemiancoding.com/sketch -->
    <title>leaves-denticulate</title>
    <desc>Created with Sketch.</desc>
    <g id="leaves-denticulate" stroke="none" stroke-width="1" fill="none" fill-rule="evenodd">
        <g id="icon-leaves-denticulate" transform="translate(6.000000, 18.000000)" fill="#000000">
            <path d="M0.302912621,28 L52,28 L52,0.526315789 C50.6873786,-1.05263158 50.6873786,1.57894737 50.6873786,1.57894737 C47.8601942,-1.05263158 48.8699029,2.42105263 48.6679612,2.10526316 C46.3456311,-0.315789474 47.0524272,1.89473684 46.0427184,2.94736842 C44.5281553,1.36842105 44.2252427,1.36842105 44.023301,3.26315789 C41.9029126,1.57894737 41.7009709,2.42105263 41.0951456,3.78947368 C39.8834951,2.94736842 39.5805825,1.57894737 39.0757282,4.52631579 C36.4504854,3.26315789 36.4504854,3.47368421 35.9456311,5.36842105 C34.431068,4.31578947 34.431068,4.52631579 33.623301,6.21052632 C32.1087379,5.15789474 32.3106796,5.36842105 31.3009709,6.94736842 C30.2912621,6.94736842 29.7864078,5.89473684 28.9786408,7.78947368 C27.6660194,7.26315789 26.9592233,7.26315789 26.6563107,8.63157895 C25.1417476,7.78947368 24.838835,7.26315789 24.6368932,9.15789474 C23.3242718,8.63157895 23.0213592,7.78947368 22.0116505,9.68421053 C21.2038835,8.84210526 21.0019417,9.15789474 20.1941748,10.2105263 C19.3864078,9.68421053 19.184466,9.36842105 18.1747573,10.7368421 C17.3669903,10 17.0640777,10.2105263 16.0543689,11.5789474 C14.7417476,10.7368421 14.7417476,10.7368421 14.2368932,12.4210526 C13.5300971,11.5789474 12.9242718,11.2631579 12.2174757,12.9473684 C11.7126214,12.1052632 11.207767,11.5789474 10.4,13.6842105 C8.78446602,12.6315789 8.78446602,13.6842105 8.27961165,14.5263158 C7.06796117,13.6842105 6.76504854,14 6.46213592,15.3684211 C5.25048544,14.5263158 5.45242718,14.8421053 4.44271845,16.1052632 C3.43300971,15.5789474 3.43300971,15.3684211 2.12038835,16.9473684 C1.61553398,15.5789474 1.31262136,16.4210526 0,17.7894737 L0.302912621,28 Z" id="Path"></path>
        </g>
    </g>
</svg>