<?xml version="1.0" encoding="UTF-8"?>
<svg width="64px" height="64px" viewBox="0 0 64 64" version="1.1" xmlns="http://www.w3.org/2000/svg" xmlns:xlink="http://www.w3.org/1999/xlink">
    <!-- Generator: Sketch 52.6 (67491) - http://www.bohemiancoding.com/sketch -->
    <title>leaves-aristate</title>
    <desc>Created with Sketch.</desc>
    <g id="leaves-aristate" stroke="none" stroke-width="1" fill="none" fill-rule="evenodd">
        <g id="icon-leaves-aristate" transform="translate(6.000000, 23.000000)" fill="#000000">
            <path d="M0,10.1694915 C0,10.1694915 8.36078431,10.1694915 10.4,8.84745763 C12.5411765,7.83050847 18.7607843,2.84745763 24.7764706,1.3220339 C30.7921569,-0.305084746 36.2980392,-0.508474576 38.6431373,1.3220339 C41.1921569,2.84745763 43.8431373,6.50847458 44.3529412,6.81355932 C44.8627451,7.01694915 44.8627451,8.03389831 47.0039216,7.83050847 C48.8392157,7.83050847 49.8588235,7.52542373 50.3686275,7.01694915 C51.1843137,6.50847458 51.6941176,6.20338983 51.8980392,6.20338983 C52.2039216,6.50847458 51.3882353,7.01694915 51.3882353,7.52542373 C51.3882353,8.03389831 52.2039216,8.54237288 51.8980392,8.84745763 C51.8980392,9.15254237 50.3686275,8.84745763 48.5333333,8.84745763 C46.6980392,8.84745763 44.6588235,8.84745763 44.3529412,9.86440678 C44.1490196,10.8813559 42.8235294,16.8813559 37.1137255,17.6949153 C31.6078431,18.5084746 22.7372549,17.1864407 18.5568627,15.3559322 C14.3764706,13.5254237 10.4,11.6949153 8.87058824,11.4915254 C7.54509804,10.8813559 0,10.1694915 0,10.1694915 Z" id="Path"></path>
        </g>
    </g>
</svg>