<?xml version="1.0" encoding="UTF-8"?>
<svg width="64px" height="64px" viewBox="0 0 64 64" version="1.1" xmlns="http://www.w3.org/2000/svg" xmlns:xlink="http://www.w3.org/1999/xlink">
    <!-- Generator: Sketch 52.6 (67491) - http://www.bohemiancoding.com/sketch -->
    <title>leaves-orbicular</title>
    <desc>Created with Sketch.</desc>
    <g id="leaves-orbicular" stroke="none" stroke-width="1" fill="none" fill-rule="evenodd">
        <g id="icon-leaves-orbicular" transform="translate(6.000000, 14.000000)" fill="#000000">
            <path d="M49.0604288,15.643454 C48.0467836,16.1448468 47.7426901,17.1476323 45.411306,16.9470752 C43.079922,16.6462396 40.4444444,16.9470752 40.2417154,16.6462396 C38.619883,14.8412256 38.619883,0 20.4756335,0 C6.48732943,0 0,9.7270195 0,17.9498607 C0,25.8718663 10.1364522,36.4011142 19.9688109,35.8997214 C31.625731,35.3983287 38.9239766,28.178273 40.2417154,20.5571031 C40.2417154,20.5571031 40.4444444,19.7548747 40.9512671,19.2534819 C42.2690058,18.2506964 47.7426901,19.7548747 49.2631579,19.9554318 C50.8849903,20.2562674 51.8986355,20.5571031 51.5945419,20.2562674 C51.5945419,19.9554318 49.871345,18.7520891 50.0740741,18.4512535 C50.3781676,17.9498607 51.5945419,16.1448468 51.8986355,15.643454 C52.202729,15.1420613 50.0740741,14.8412256 49.0604288,15.643454 Z" id="Path"></path>
        </g>
    </g>
</svg>