<?xml version="1.0" encoding="UTF-8"?>
<svg width="64px" height="64px" viewBox="0 0 64 64" version="1.1" xmlns="http://www.w3.org/2000/svg" xmlns:xlink="http://www.w3.org/1999/xlink">
    <!-- Generator: Sketch 52.6 (67491) - http://www.bohemiancoding.com/sketch -->
    <title>leaves-parallel</title>
    <desc>Created with Sketch.</desc>
    <g id="leaves-parallel" stroke="none" stroke-width="1" fill="none" fill-rule="evenodd">
        <g id="icon-leaves-parallel" transform="translate(6.000000, 6.000000)" fill="#000000" fill-rule="nonzero">
            <path d="M9.34375,0 C9.34375,0 8.0234375,6.1953125 7.515625,10.359375 C7.0078125,14.5234375 7.515625,20.0078125 8.328125,23.96875 C9.140625,27.828125 10.6640625,36.359375 11.4765625,42.65625 C12.4921875,48.8515625 13.3046875,51.1875 13.3046875,51.1875 L14.3203125,51.6953125 C14.3203125,51.6953125 13,49.15625 11.984375,42.3515625 C10.96875,35.6484375 10.359375,32.5 10.359375,32.5 C10.359375,32.5 7.8203125,18.6875 8.0234375,13.3046875 C8.0234375,7.8203125 10.359375,0.3046875 10.359375,0.3046875 L9.34375,0 Z M24.984375,0 L23.6640625,0 C23.6640625,0 23.6640625,0.3046875 24.171875,2.84375 C24.6796875,5.6875 24.4765625,15.03125 24.4765625,23.96875 C24.171875,32.8046875 23.15625,39.3046875 23.359375,43.46875 C23.6640625,47.53125 23.6640625,51.1875 23.6640625,51.1875 L24.984375,51.4921875 C24.984375,51.4921875 24.171875,42.65625 24.984375,35.34375 C25.4921875,28.03125 26,17.46875 25.6953125,10.15625 C25.4921875,2.84375 24.984375,0 24.984375,0 Z M3.859375,0.3046875 C3.859375,0.3046875 3.3515625,5.484375 2.84375,9.6484375 C2.3359375,13.5078125 3.1484375,19.1953125 3.859375,26 C4.671875,32.8046875 4.671875,34.328125 5.484375,41.03125 C6.1953125,48.140625 8.0234375,51.6953125 8.0234375,51.6953125 L9.8515625,52 C9.8515625,52 9.140625,49.96875 8.328125,46.515625 C7.515625,43.1640625 6.5,36.6640625 5.6875,30.1640625 C4.9765625,23.359375 4.46875,17.9765625 4.46875,17.9765625 C4.46875,17.9765625 4.46875,17.9765625 3.859375,12.6953125 C3.3515625,7.8203125 5.484375,0.3046875 5.484375,0.3046875 L3.859375,0.3046875 Z M40.015625,0.3046875 L39.3046875,0.5078125 C39.3046875,0.5078125 39.8125,1.5234375 40.828125,3.859375 C41.84375,6.5 42.65625,11.6796875 42.65625,15.84375 C42.859375,20.0078125 41.03125,26.3046875 40.015625,28.640625 C39.3046875,30.9765625 39,34.0234375 38.1875,36.359375 C37.4765625,38.6953125 35.8515625,44.6875 34.8359375,47.328125 C33.8203125,49.96875 32.8046875,51.6953125 32.8046875,51.6953125 L33.515625,51.6953125 C33.515625,51.6953125 33.8203125,51.4921875 34.8359375,49.359375 C35.8515625,47.328125 36.6640625,44.9921875 37.171875,42.859375 C37.6796875,40.828125 39,37.984375 40.3203125,31.9921875 C41.640625,26 42.859375,22.6484375 43.46875,16.1484375 C43.9765625,9.6484375 40.015625,0.3046875 40.015625,0.3046875 Z M44.484375,0.3046875 L42.859375,0.5078125 C42.859375,0.5078125 43.46875,1.015625 44.484375,3.1484375 C45.1953125,5.1796875 45.8046875,9.8515625 45.8046875,14.5234375 C46.0078125,19.1953125 43.1640625,39.3046875 41.84375,43.46875 C40.828125,47.53125 36.96875,51.6953125 36.96875,51.6953125 L39,51.6953125 C39,51.6953125 39.5078125,52 42.65625,45.8046875 C43.9765625,43.46875 47.0234375,22.34375 47.0234375,13.5078125 C46.8203125,4.46875 44.484375,0.3046875 44.484375,0.3046875 Z M15.84375,0.3046875 L14.3203125,0.3046875 C14.3203125,0.3046875 14.828125,5.6875 14.5234375,9.140625 C14.5234375,12.6953125 14.015625,20.515625 14.015625,24.6796875 C14.015625,28.84375 14.828125,33.8203125 15.3359375,36.96875 C15.84375,40.3203125 15.3359375,42.65625 15.3359375,45.1953125 C15.03125,47.8359375 16.1484375,51.1875 16.1484375,51.1875 L17.671875,51.1875 C17.671875,51.1875 17.1640625,49.359375 17.1640625,47.0234375 C16.859375,44.6875 17.46875,45.5 17.46875,40.828125 C16.859375,36.6640625 15.3359375,27.5234375 15.3359375,23.359375 C15.03125,18.9921875 16.1484375,13.5078125 16.3515625,9.140625 C16.3515625,4.9765625 15.84375,0.3046875 15.84375,0.3046875 Z M17.1640625,0.3046875 C17.1640625,0.3046875 16.859375,4.1640625 17.1640625,10.15625 C17.671875,15.84375 17.46875,17.671875 17.46875,22.8515625 C17.46875,28.03125 17.1640625,31.9921875 17.46875,36.15625 C17.9765625,40.3203125 17.671875,45.1953125 17.671875,47.53125 C17.671875,49.96875 18.484375,51.6953125 18.484375,51.6953125 L19.5,52 C19.5,52 17.9765625,48.6484375 18.1796875,42.3515625 C18.484375,36.15625 17.1640625,30.671875 17.671875,24.984375 C18.1796875,18.9921875 18.484375,15.03125 17.9765625,10.359375 C17.46875,5.6875 18.1796875,0.3046875 18.1796875,0.3046875 L17.1640625,0.3046875 Z M29.859375,0.3046875 C29.859375,0.3046875 29.859375,1.015625 30.671875,3.65625 C31.484375,6.1953125 31.6875,13.8125 31.6875,18.6875 C31.6875,23.6640625 30.1640625,35.8515625 29.859375,38.4921875 C29.65625,41.03125 29.1484375,43.671875 28.84375,46.515625 C28.640625,49.6640625 27.828125,51.1875 27.828125,51.1875 L28.640625,51.1875 C28.640625,51.1875 29.1484375,50.171875 29.3515625,48.6484375 C29.65625,47.0234375 29.859375,44.1796875 29.859375,43.1640625 C29.859375,42.1484375 31.9921875,28.3359375 32.5,18.9921875 C33.0078125,9.6484375 30.671875,0 30.671875,0 L29.859375,0.3046875 Z M48.8515625,0.3046875 L48.140625,0.3046875 C48.140625,0.3046875 49.6640625,8.53125 49.96875,10.15625 C50.171875,11.6796875 49.359375,27.828125 49.15625,32.8046875 C48.8515625,37.6796875 47.53125,41.3359375 46.8203125,43.46875 C46.0078125,45.8046875 45.5,47.53125 44.9921875,49.359375 C44.484375,50.984375 43.9765625,51.4921875 43.9765625,51.4921875 L44.6875,51.6953125 C44.6875,51.6953125 47.8359375,46.3125 49.15625,39.5078125 C50.4765625,32.8046875 50.6796875,17.671875 50.6796875,11.984375 C50.4765625,5.9921875 48.8515625,0.3046875 48.8515625,0.3046875 Z M20.515625,0.3046875 C20.515625,0.3046875 20.515625,5.9921875 20.515625,11.984375 C20.515625,17.9765625 20.8203125,27.5234375 20.8203125,30.9765625 C20.8203125,34.328125 20.515625,35.140625 20.3125,40.5234375 C20.3125,46.0078125 20.8203125,51.4921875 20.8203125,51.4921875 L21.53125,51.6953125 C21.53125,51.6953125 21.0234375,47.328125 20.8203125,44.6875 C20.515625,42.1484375 21.0234375,34.53125 21.328125,33.3125 C21.53125,31.9921875 21.0234375,18.6875 21.0234375,15.03125 C20.8203125,11.4765625 21.0234375,0.5078125 21.0234375,0.5078125 L20.515625,0.5078125 L20.515625,0.3046875 Z M26.5078125,0.3046875 C26.5078125,0.3046875 27.015625,2.03125 27.015625,7.3125 C27.015625,12.4921875 28.03125,15.03125 28.3359375,23.96875 C28.84375,32.8046875 25.4921875,51.4921875 25.4921875,51.4921875 L26.5078125,51.6953125 C26.5078125,51.6953125 28.84375,31.6875 28.84375,25.1875 C29.1484375,18.484375 27.5234375,11.6796875 27.5234375,8.0234375 C27.5234375,4.46875 27.3203125,0.3046875 27.3203125,0.3046875 L26.5078125,0.3046875 Z M35.8515625,0.3046875 L34.328125,0.3046875 C34.328125,0.3046875 34.8359375,1.828125 36.15625,7.3125 C37.4765625,12.4921875 36.359375,21.8359375 35.6484375,26.5078125 C35.140625,30.9765625 34.8359375,33.515625 34.53125,35.6484375 C34.328125,37.6796875 31.6875,44.484375 31.1796875,46.8203125 C30.9765625,49.15625 29.3515625,51.4921875 29.3515625,51.4921875 C29.3515625,51.4921875 30.671875,51.6953125 31.1796875,50.4765625 C31.6875,49.15625 31.9921875,49.359375 34.0234375,41.640625 C36.15625,33.8203125 37.4765625,27.3203125 37.6796875,17.1640625 C38.4921875,7.3125 35.8515625,0.3046875 35.8515625,0.3046875 Z M0.5078125,33.0078125 L0,36.359375 C0,36.359375 1.828125,46.515625 2.3359375,47.8359375 C2.84375,49.15625 4.671875,51.4921875 4.671875,51.4921875 L5.9921875,51.6953125 C5.9921875,51.6953125 4.1640625,50.984375 3.1484375,47.8359375 C2.3359375,44.484375 0.5078125,33.0078125 0.5078125,33.0078125 Z M52,38.4921875 C52,38.4921875 51.4921875,40.015625 50.6796875,42.65625 C49.96875,45.1953125 47.53125,50.4765625 46.8203125,51.4921875 L47.328125,51.6953125 L51.4921875,42.859375 L52,38.4921875 Z" id="Shape"></path>
        </g>
    </g>
</svg>