<?xml version="1.0" encoding="UTF-8"?>
<svg width="64px" height="64px" viewBox="0 0 64 64" version="1.1" xmlns="http://www.w3.org/2000/svg" xmlns:xlink="http://www.w3.org/1999/xlink">
    <!-- Generator: Sketch 52.6 (67491) - http://www.bohemiancoding.com/sketch -->
    <title>leaves-pedate</title>
    <desc>Created with Sketch.</desc>
    <g id="leaves-pedate" stroke="none" stroke-width="1" fill="none" fill-rule="evenodd">
        <g id="icon-leaves-pedate" transform="translate(6.000000, 13.000000)" fill="#000000">
            <path d="M52.0714738,17.9128065 C52.0714738,17.9128065 38.6699747,19.2588556 37.953864,18.119891 C37.1354519,17.3950954 37.1354519,16.2561308 38.4653716,15.013624 C39.7952914,13.6675749 47.0586993,8.07629428 46.5471917,7.04087193 C45.217272,4.65940054 39.4883868,9.42234332 37.953864,12.6321526 C37.953864,12.6321526 40.511402,2.79564033 38.4653716,1.76021798 C34.9871199,0.414168937 34.4756123,15.7384196 35.2940245,17.6021798 C30.076647,11.493188 25.8822846,-0.621253406 24.8592694,0.103542234 C23.0178421,1.13896458 23.0178421,8.38692098 24.3477618,10.7683924 C26.0868877,14.7029973 32.634185,18.119891 32.634185,18.119891 C26.9052998,17.6021798 23.2224451,15.7384196 18.5165752,15.7384196 C10.6393581,16.0490463 -1.12531672,20.8119891 0.204603041,23.1934605 C1.73912584,26.0926431 29.2582348,19.9836512 29.2582348,19.9836512 C29.2582348,19.9836512 26.9052998,21.0190736 23.7339527,26.9209809 C20.6649071,32.719346 20.1533995,36.7574932 21.1764147,37.7929155 C22.7109375,39.346049 28.7467272,30.1307902 29.2582348,23.7111717 C29.5651394,20.8119891 34.7825169,19.4659401 34.9871199,19.9836512 C34.9871199,19.9836512 33.2479941,21.640327 32.634185,24.0217984 C32.1226774,26.4032698 27.928315,37.2752044 29.5651394,37.4822888 C31.0996622,37.7929155 32.634185,35.1008174 33.7595017,32.5122616 C34.7825169,29.8201635 35.2940245,24.5395095 35.2940245,24.5395095 C35.2940245,24.5395095 36.8285473,28.4741144 38.1584671,29.8201635 C41.0229096,32.2016349 45.5241765,36.9645777 46.8540963,35.6185286 C48.0817145,34.5831063 45.5241765,30.6485014 42.659734,27.9564033 C39.7952914,25.2643052 36.3170397,24.0217984 36.6239443,22.6757493 C36.8285473,21.3297003 36.8285473,20.5013624 38.1584671,20.2942779 C39.4883868,19.9836512 51.5599662,20.5013624 51.7645693,19.9836512 C52.0714738,19.7765668 51.7645693,19.2588556 52.2760769,19.2588556 L52.0714738,17.9128065 Z" id="Path"></path>
        </g>
    </g>
</svg>