<?xml version="1.0" encoding="UTF-8"?>
<svg width="64px" height="64px" viewBox="0 0 64 64" version="1.1" xmlns="http://www.w3.org/2000/svg" xmlns:xlink="http://www.w3.org/1999/xlink">
    <!-- Generator: Sketch 52.6 (67491) - http://www.bohemiancoding.com/sketch -->
    <title>leaves-opposite</title>
    <desc>Created with Sketch.</desc>
    <g id="leaves-opposite" stroke="none" stroke-width="1" fill="none" fill-rule="evenodd">
        <g id="icon-leaves-opposite" transform="translate(6.000000, 17.000000)" fill="#000000">
            <path d="M52,15.6953642 L50.9823875,14.1059603 C50.9823875,14.1059603 34.8023483,14.9006623 33.7847358,14.602649 C32.7671233,14.4039735 31.9530333,14.602649 31.444227,14.1059603 C30.9354207,13.6092715 29.816047,12.615894 29.816047,12.3178808 C37.1428571,4.17218543 20.7592955,-1.09271523 18.4187867,0.198675497 C14.2465753,3.97350993 18.1135029,13.410596 24.1174168,13.9072848 C26.9667319,14.1059603 27.9843444,13.1125828 28.5949119,13.1125828 C29.1037182,13.1125828 30.4266145,14.602649 30.4266145,14.602649 C30.4266145,14.602649 21.4716243,14.602649 17.9099804,14.602649 C14.4500978,14.4039735 13.7377691,14.4039735 13.2289628,13.6092715 C12.4148728,13.1125828 11.9060665,12.615894 12.109589,12.3178808 C16.5870841,6.25827815 7.22504892,1.68874172 1.72994129,2.18543046 C-1.11937378,5.9602649 2.54403131,16.3907285 10.888454,13.1125828 C11.3972603,12.9139073 12.6183953,14.4039735 12.6183953,14.602649 C12.6183953,14.9006623 12.6183953,15.397351 12.109589,15.8940397 C11.6007828,16.3907285 10.5831703,16.6887417 10.5831703,16.3907285 C10.2778865,16.192053 7.93737769,15.8940397 7.42857143,15.8940397 C3.56164384,15.397351 -1.42465753,22.7483444 0.40704501,26.3245033 C4.88454012,28.1125828 12.9236791,24.0397351 13.4324853,20.7615894 C13.7377691,19.2715232 12.109589,18.4768212 12.4148728,17.6821192 C12.4148728,16.8874172 13.7377691,15.6953642 14.7553816,15.397351 C16.0782779,15.397351 30.9354207,15.397351 30.9354207,15.6953642 C30.9354207,15.8940397 29.6125245,17.4834437 29.1037182,17.4834437 C28.2896282,17.4834437 25.9491194,16.8874172 24.6262231,16.6887417 C19.1311155,15.8940397 14.4500978,25.0331126 17.4011742,29.1059603 C21.776908,31.6887417 31.444227,27.615894 31.9530333,22.7483444 C32.1565558,21.2582781 29.816047,19.2715232 30.1213307,18.4768212 C30.4266145,17.9801325 31.444227,16.3907285 33.4794521,15.8940397 C35.6164384,15.397351 34.4970646,15.1986755 42.332681,15.397351 C49.964775,15.397351 51.6947162,15.8940397 52,15.6953642 Z" id="Path"></path>
        </g>
    </g>
</svg>