<?xml version="1.0" encoding="UTF-8"?>
<svg width="64px" height="64px" viewBox="0 0 64 64" version="1.1" xmlns="http://www.w3.org/2000/svg" xmlns:xlink="http://www.w3.org/1999/xlink">
    <!-- Generator: Sketch 52.6 (67491) - http://www.bohemiancoding.com/sketch -->
    <title>leaves-hastate</title>
    <desc>Created with Sketch.</desc>
    <g id="leaves-hastate" stroke="none" stroke-width="1" fill="none" fill-rule="evenodd">
        <g id="icon-leaves-hastate" transform="translate(3.000000, 20.000000)" fill="#000000">
            <path d="M0,12.4843049 C0,12.4843049 8.79462572,8.28699552 15.696737,7.53363229 C20.2610365,6.9955157 21.596929,7.74887892 28.7216891,6.9955157 C32.1727447,6.67264574 32.7293666,6.67264574 35.2898273,3.65919283 C38.184261,0.107623318 38.7408829,-0.215246637 39.6314779,0.107623318 C40.4107486,0.322869955 41.0786948,1.39910314 41.0786948,3.33632287 C41.0786948,5.2735426 41.0786948,6.9955157 41.3013436,7.74887892 C41.8579655,10.2242152 41.8579655,10.5470852 42.9712092,11.6233184 C43.8618042,12.4843049 46.4222649,12.161435 51.3205374,12.161435 C55.8848369,12.161435 58.1113244,11.6233184 57.8886756,11.9461883 C57.8886756,12.161435 56.6641075,12.6995516 56.6641075,12.6995516 C56.6641075,13.0224215 58.1113244,13.5605381 57.8886756,13.8834081 C57.8886756,14.0986547 55.5508637,13.8834081 54.1036468,13.5605381 C52.6564299,13.3452915 50.0959693,13.0224215 47.3128599,13.0224215 C44.4184261,13.0224215 43.6391555,12.4843049 42.1919386,14.6367713 C40.7447217,16.896861 40.1880998,18.2959641 39.8541267,20.7713004 C39.8541267,23.2466368 39.2975048,24 38.7408829,24 C38.184261,24 36.7370441,22.9237668 35.0671785,20.4484305 C33.2859885,17.9730942 32.5067179,16.896861 27.6084453,17.1121076 C22.8214971,17.4349776 17.3666027,17.4349776 12.2456814,16.3587444 C7.12476008,15.1748879 0.222648752,12.6995516 0,12.4843049 Z" id="Path"></path>
        </g>
    </g>
</svg>