<?xml version="1.0" encoding="UTF-8"?>
<svg width="64px" height="64px" viewBox="0 0 64 64" version="1.1" xmlns="http://www.w3.org/2000/svg" xmlns:xlink="http://www.w3.org/1999/xlink">
    <!-- Generator: Sketch 52.6 (67491) - http://www.bohemiancoding.com/sketch -->
    <title>leaves-falcate</title>
    <desc>Created with Sketch.</desc>
    <g id="leaves-falcate" stroke="none" stroke-width="1" fill="none" fill-rule="evenodd">
        <g id="icon-leaves-falcate" transform="translate(6.000000, 25.000000)" fill="#000000">
            <path d="M0,3.13432836 C0,3.13432836 7.515625,4.80597015 13.5078125,4.49253731 C19.5,4.49253731 21.53125,3.65671642 27.015625,1.56716418 C32.5,-0.626865672 37.171875,-0.313432836 40.015625,1.56716418 C42.859375,3.44776119 43.1640625,5.53731343 47.328125,5.53731343 C49.96875,5.53731343 50.171875,5.32835821 50.6796875,5.01492537 C51.4921875,4.17910448 52,4.17910448 52,4.49253731 C52,4.80597015 51.1875,5.01492537 51.1875,5.53731343 C51.1875,6.05970149 51.6953125,6.58208955 51.6953125,6.89552239 C51.4921875,7.20895522 49.96875,6.37313433 47.53125,6.37313433 C45.1953125,6.37313433 44.6875,6.05970149 43.671875,7.41791045 C42.65625,8.7761194 38.4921875,14.1044776 29.1484375,13.8955224 C14.015625,13.8955224 0,3.13432836 0,3.13432836 Z" id="Path"></path>
        </g>
    </g>
</svg>