<?xml version="1.0" encoding="UTF-8"?>
<svg width="64px" height="64px" viewBox="0 0 64 64" version="1.1" xmlns="http://www.w3.org/2000/svg" xmlns:xlink="http://www.w3.org/1999/xlink">
    <!-- Generator: Sketch 52.6 (67491) - http://www.bohemiancoding.com/sketch -->
    <title>leaves-obtuse</title>
    <desc>Created with Sketch.</desc>
    <g id="leaves-obtuse" stroke="none" stroke-width="1" fill="none" fill-rule="evenodd">
        <g id="icon-leaves-obtuse" transform="translate(6.000000, 18.000000)" fill="#000000">
            <path d="M51.592955,14.3065693 C51.7964775,14 50.778865,13.1824818 50.778865,12.6715328 C51.0841487,11.9562044 52.407045,10.8321168 51.7964775,10.6277372 C50.2700587,10.1167883 50.5753425,12.4671533 45.0802348,12.6715328 C41.925636,12.6715328 41.925636,11.649635 41.7221135,10.3211679 C39.890411,4.2919708 32.5636008,0.613138686 23.2015656,0.102189781 C15.3659491,-0.408759124 7.53033268,3.7810219 3.35812133,8.78832117 C1.83170254,10.6277372 0,12.1605839 0,13.1824818 C0,14.3065693 4.98630137,20.0291971 7.53033268,22.379562 C10.9902153,26.0583942 17.7064579,28.1021898 22.6927593,27.8978102 C33.5812133,27.3868613 39.890411,22.5839416 41.4168297,15.8394161 C41.7221135,14.5109489 43.2485323,14.3065693 45.5890411,14.3065693 C48.7436399,14 51.0841487,15.0218978 51.592955,14.3065693 Z" id="Path"></path>
        </g>
    </g>
</svg>