<?xml version="1.0" encoding="UTF-8"?>
<svg width="64px" height="64px" viewBox="0 0 64 64" version="1.1" xmlns="http://www.w3.org/2000/svg" xmlns:xlink="http://www.w3.org/1999/xlink">
    <!-- Generator: Sketch 52.6 (67491) - http://www.bohemiancoding.com/sketch -->
    <title>leaves-obovate</title>
    <desc>Created with Sketch.</desc>
    <g id="leaves-obovate" stroke="none" stroke-width="1" fill="none" fill-rule="evenodd">
        <g id="icon-leaves-obovate" transform="translate(6.000000, 19.000000)" fill="#000000">
            <path d="M51.502924,12.5338645 C52.497076,12.7410359 51.7017544,9.84063745 51.2046784,10.1513944 C50.0116959,10.6693227 46.128655,10.9800797 44.3391813,10.9800797 C43.1461988,10.9800797 40.8596491,11.187251 39.7660819,10.1513944 C37.7777778,8.28685259 26.5438596,-0.207171315 12.5263158,0.103585657 C4.97076023,0.103585657 -0.198830409,3.00398406 0.0994152047,12.7410359 C0.397660819,22.063745 4.1754386,25.7928287 12.5263158,26 C21.7719298,26 33.7017544,20.1992032 40.0643275,13.3625498 C41.0584795,12.2231076 42.6491228,12.0159363 44.3391813,12.2231076 C46.4269006,12.2231076 50.5087719,12.5338645 51.502924,12.5338645 Z" id="Path"></path>
        </g>
    </g>
</svg>