<?xml version="1.0" encoding="UTF-8"?>
<svg width="64px" height="64px" viewBox="0 0 64 64" version="1.1" xmlns="http://www.w3.org/2000/svg" xmlns:xlink="http://www.w3.org/1999/xlink">
    <!-- Generator: Sketch 52.6 (67491) - http://www.bohemiancoding.com/sketch -->
    <title>leaves-venulate</title>
    <desc>Created with Sketch.</desc>
    <g id="leaves-venulate" stroke="none" stroke-width="1" fill="none" fill-rule="evenodd">
        <g id="icon-leaves-venulate" transform="translate(6.000000, 6.000000)" fill="#000000" fill-rule="nonzero">
            <path d="M5.72200772,52 C3.91505792,52 0.803088803,49.9766537 0.501930502,47.9533074 L0.501930502,46.3346304 L2.81081081,48.459144 C2.81081081,46.1322957 3.11196911,43.5019455 2.61003861,41.9844358 C1.80694981,41.4785992 0.301158301,39.6575875 0.301158301,38.0389105 C0.301158301,36.2178988 1.003861,36.5214008 1.80694981,36.2178988 L6.42471042,36.2178988 C5.11969112,34.7003891 3.91505792,32.8793774 2.61003861,31.0583658 C1.30501931,29.0350195 0,28.2256809 0,27.2140078 C0,26.1011673 0,24.5836576 1.80694981,27.4163424 C1.80694981,25.5953307 2.30888031,22.5603113 2.61003861,21.4474708 C3.11196911,20.233463 3.11196911,20.233463 1.80694981,18.4124514 C1.003861,16.2879377 0.301158301,16.2879377 0.501930502,13.7587549 L0.501930502,10.3190661 C0.803088803,12.1400778 1.80694981,14.2645914 2.61003861,15.7821012 C3.11196911,13.7587549 2.81081081,11.1284047 3.91505792,9.10505837 C4.91891892,7.28404669 4.91891892,7.28404669 4.41698842,5.66536965 C3.91505792,4.6536965 3.61389961,3.3385214 3.61389961,2.63035019 C3.41312741,1.51750973 3.61389961,1.01167315 3.91505792,1.01167315 L11.3436293,3.3385214 C11.3436293,2.63035019 10.3397683,0.20233463 11.5444015,0.505836576 C12.8494208,2.32684825 12.6486486,5.66536965 13.8532819,7.48638132 C15.6602317,3.64202335 15.6602317,4.95719844 14.6563707,0 C15.1583012,0.505836576 15.6602317,0.809338521 15.96139,0.505836576 C16.4633205,3.64202335 18.2702703,7.78988327 19.7760618,10.3190661 C20.0772201,8.80155642 20.5791506,7.28404669 21.3822394,5.66536965 C22.0849421,4.35019455 21.3822394,3.13618677 21.0810811,1.82101167 C21.0810811,1.51750973 21.3822394,1.3151751 21.5830116,1.3151751 L26.2007722,3.64202335 C26,2.83268482 25.6988417,2.32684825 25.4980695,1.51750973 C24.996139,0.505836576 26.2007722,0.809338521 26.5019305,0.809338521 C27.8069498,3.3385214 28.8108108,5.9688716 30.8185328,7.28404669 L30.8185328,1.01167315 L32.9266409,1.01167315 L32.9266409,6.98054475 C33.9305019,5.66536965 34.9343629,4.35019455 35.7374517,2.83268482 C36.5405405,1.51750973 36.7413127,1.01167315 37.5444015,1.01167315 C38.8494208,1.01167315 37.2432432,3.13618677 37.2432432,3.84435798 C38.8494208,4.14785992 40.8571429,3.13618677 41.6602317,1.51750973 C41.6602317,1.01167315 41.96139,0.809338521 42.4633205,0.809338521 C42.965251,0.809338521 43.1660232,0.809338521 43.1660232,1.01167315 C47.0810811,4.6536965 45.976834,8.29571984 46.7799228,11.6342412 C48.3861004,9.61089494 49.8918919,6.6770428 51.1969112,4.35019455 C51.6988417,3.64202335 51.6988417,5.46303502 51.6988417,5.9688716 C51.3976834,8.49805447 49.0888031,8.29571984 49.5907336,10.8249027 C50.8957529,13.151751 49.3899614,19.9299611 50.0926641,18.9182879 C52.2007722,16.2879377 50.8957529,17.9066148 51.6988417,19.1206226 C51.1969112,21.7509728 48.0849421,23.0661479 46.2779923,24.077821 C44.4710425,24.8871595 44.4710425,26.1011673 43.969112,27.7198444 C45.4749035,28.5291829 49.3899614,24.8871595 51.1969112,23.7743191 C51.1969112,23.7743191 51.3976834,24.8871595 51.3976834,25.3929961 L48.3861004,27.922179 C49.3899614,27.922179 50.0926641,27.922179 51.1969112,28.2256809 C52.2007722,28.5291829 51.8996139,29.2373541 51.8996139,29.540856 C49.5907336,29.7431907 47.7837838,27.7198444 44.4710425,29.7431907 C42.4633205,30.5525292 42.1621622,30.8560311 41.6602317,32.0700389 C41.1583012,33.8910506 39.8532819,35.2062257 39.3513514,36.7237354 C39.3513514,36.7237354 40.6563707,36.5214008 42.1621622,35.7120623 C45.7760618,35.0038911 48.0849421,32.0700389 51.1969112,30.5525292 C51.3976834,30.5525292 51.3976834,30.8560311 51.3976834,31.3618677 C51.3976834,31.8677043 50.8957529,32.5758755 49.8918919,33.1828794 C47.5830116,34.3968872 48.3861004,34.3968872 48.0849421,35.7120623 C47.7837838,37.5330739 46.7799228,39.0505837 46.7799228,40.8715953 C48.5868726,40.6692607 49.5907336,39.0505837 51.1969112,38.3424125 C51.3976834,38.3424125 51.3976834,38.848249 51.3976834,39.3540856 C49.5907336,43.1984436 43.4671815,43.8054475 40.1544402,45.3229572 L37.5444015,48.6614786 C42.4633205,48.459144 46.5791506,45.8287938 50.8957529,44.5136187 C51.1969112,44.5136187 51.3976834,44.8171206 51.3976834,45.3229572 C48.0849421,48.459144 40.6563707,49.4708171 35.7374517,50.4824903 C31.4208494,50.9883268 28.8108108,51.4941634 21.0810811,51.4941634 C15.1583012,51.4941634 11.042471,51.7976654 11.042471,51.7976654 C10.8416988,50.9883268 11.5444015,50.9883268 11.042471,50.4824903 C9.03474903,49.1673152 6.22393822,46.6381323 4.41698842,44.5136187 L4.41698842,49.6731518 L8.03088803,52 L5.72200772,52 Z M36.5405405,48.459144 C36.7413127,47.3463035 38.046332,46.3346304 38.5482625,45.5252918 C31.9227799,47.3463035 26.5019305,46.8404669 19.0733591,47.6498054 C18.5714286,48.155642 16.965251,49.9766537 16.965251,49.9766537 C20.8803089,49.9766537 33.9305019,50.4824903 36.5405405,48.459144 Z M12.8494208,49.4708171 C14.4555985,48.9649805 16.2625483,47.3463035 17.4671815,46.1322957 C14.6563707,44.5136187 9.53667954,39.6575875 7.72972973,37.5330739 C5.42084942,37.3307393 3.11196911,36.7237354 1.30501931,37.5330739 C2.10810811,39.0505837 3.11196911,40.6692607 4.11583012,41.9844358 C6.42471042,44.8171206 9.03474903,48.459144 12.8494208,49.4708171 Z M28.3088803,44.5136187 C29.3127413,42.9961089 32.1235521,42.4902724 32.4247104,40.6692607 C29.8146718,40.8715953 25.4980695,41.6809339 22.6872587,41.6809339 L20.2779923,45.5252918 C22.6872587,45.3229572 26.5019305,46.6381323 28.3088803,44.5136187 Z M44.972973,41.9844358 C45.4749035,39.8599222 46.2779923,38.0389105 46.5791506,36.0155642 C46.5791506,36.0155642 44.7722008,36.5214008 42.4633205,37.3307393 C40.3552124,38.0389105 37.5444015,39.0505837 36.2393822,39.6575875 C33.9305019,40.3657588 33.9305019,40.3657588 33.4285714,41.4785992 C32.6254826,43.1984436 30.6177606,44.0077821 29.3127413,45.0194553 C34.7335907,45.0194553 40.1544402,43.5019455 44.972973,41.9844358 Z M18.2702703,44.8171206 C19.0733591,43.5019455 21.5830116,41.1750973 20.8803089,39.6575875 C17.2664093,37.5330739 14.6563707,33.385214 11.042471,31.3618677 C10.8416988,33.688716 10.5405405,36.5214008 11.3436293,38.848249 C13.1505792,41.1750973 15.6602317,43.1984436 18.2702703,44.8171206 Z M35.2355212,38.3424125 C37.042471,37.8365759 37.5444015,37.5330739 38.046332,36.5214008 C38.8494208,35.0038911 40.1544402,33.385214 40.6563707,31.5642023 C40.6563707,31.5642023 39.0501931,31.8677043 37.042471,32.0700389 C35.2355212,32.3735409 32.1235521,32.8793774 30.6177606,32.8793774 L27.3050193,33.1828794 C26,35.5097276 24.6949807,37.8365759 23.6911197,40.1634241 C27.5057915,40.3657588 31.6216216,39.0505837 35.2355212,38.3424125 Z M21.8841699,38.3424125 C22.6872587,37.0272374 25.1969112,34.3968872 24.6949807,33.1828794 C17.7683398,30.2490272 14.1544402,23.2684825 14.1544402,23.2684825 C12.3474903,23.7743191 10.3397683,23.7743191 8.53281853,24.381323 C9.53667954,29.0350195 17.969112,35.7120623 21.8841699,38.3424125 Z M9.83783784,29.7431907 L6.92664093,25.3929961 C4.91891892,22.0544747 4.11583012,21.4474708 3.91505792,21.7509728 C3.11196911,24.381323 3.41312741,26.7081712 3.41312741,29.0350195 C5.11969112,31.8677043 6.72586873,34.7003891 9.23552124,37.0272374 L9.83783784,29.7431907 Z M25.1969112,31.3618677 C25.4980695,31.3618677 26,30.5525292 26.7027027,29.2373541 C27.3050193,27.922179 27.5057915,27.2140078 27.3050193,26.9105058 C24.1930502,25.3929961 21.8841699,23.0661479 19.5752896,20.7392996 C16.4633205,17.9066148 15.6602317,17.0972763 14.6563707,17.0972763 C13.6525097,16.7937743 12.6486486,16.2879377 11.5444015,16.5914397 C14.957529,22.5603113 18.7722008,28.7315175 25.1969112,31.3618677 Z M32.9266409,31.0583658 L34.9343629,27.4163424 C33.1274131,28.2256809 30.8185328,27.4163424 29.3127413,28.2256809 C29.1119691,28.7315175 28.5096525,30.2490272 28.3088803,30.8560311 C28.3088803,31.5642023 32.1235521,31.0583658 32.9266409,31.0583658 Z M34.9343629,30.8560311 C37.2432432,30.2490272 39.8532819,29.7431907 42.1621622,29.0350195 L43.6679537,25.0894942 C41.3590734,26.1011673 38.8494208,26.4046693 36.2393822,27.2140078 C35.7374517,28.2256809 33.7297297,31.0583658 34.9343629,30.8560311 Z M40.6563707,24.381323 C41.3590734,22.7626459 41.96139,20.9416342 42.1621622,18.614786 C38.8494208,20.4357977 35.5366795,22.2568093 31.6216216,22.7626459 C30.3166023,23.0661479 30.8185328,23.0661479 30.1158301,25.5953307 C32.9266409,25.8988327 38.3474903,25.8988327 40.6563707,24.381323 Z M27.8069498,25.5953307 C28.3088803,24.5836576 28.8108108,23.2684825 28.8108108,22.0544747 C22.0849421,18.9182879 19.2741313,12.4435798 16.2625483,5.66536965 C15.96139,6.17120623 15.4594595,8.29571984 15.1583012,9.10505837 C14.957529,15.7821012 22.6872587,22.7626459 27.8069498,25.5953307 Z M48.0849421,20.7392996 C48.8880309,18.1089494 48.5868726,14.9727626 48.3861004,12.4435798 C46.5791506,14.9727626 44.4710425,16.7937743 43.4671815,17.9066148 C43.4671815,19.4241245 42.965251,22.5603113 42.4633205,24.077821 C44.2702703,24.077821 46.7799228,22.2568093 48.0849421,20.7392996 Z M12.8494208,21.4474708 L5.42084942,8.80155642 C3.91505792,10.3190661 4.41698842,14.9727626 4.11583012,18.1089494 L7.22779923,23.0661479 C8.03088803,22.7626459 13.6525097,23.0661479 12.8494208,21.4474708 Z M37.2432432,18.1089494 C37.5444015,16.7937743 37.5444015,15.2762646 36.7413127,14.2645914 C35.5366795,15.2762646 34.2316602,17.0972763 31.6216216,17.6031128 L30.8185328,21.4474708 C33.4285714,20.9416342 36.7413127,20.7392996 37.2432432,18.1089494 Z M29.8146718,17.6031128 C28.8108108,15.5797665 27.003861,12.4435798 25.1969112,10.6225681 C24.6949807,12.6459144 24.1930502,15.7821012 25.4980695,17.6031128 L29.3127413,20.7392996 C29.6138996,19.6264591 29.6138996,18.614786 29.8146718,17.6031128 Z M45.2741313,13.9610895 C45.4749035,9.307393 45.4749035,4.95719844 42.965251,3.13618677 C41.96139,6.17120623 40.1544402,9.81322957 38.046332,12.4435798 C38.5482625,13.9610895 39.0501931,15.7821012 38.5482625,18.614786 L45.2741313,13.9610895 Z M14.957529,15.7821012 C15.4594595,15.7821012 15.1583012,15.2762646 14.1544402,12.9494163 C12.6486486,10.6225681 12.8494208,6.6770428 10.5405405,4.6536965 C9.03474903,3.84435798 6.92664093,3.13618677 5.11969112,3.13618677 C5.11969112,3.13618677 5.42084942,4.14785992 5.72200772,5.46303502 C6.92664093,8.49805447 8.53281853,11.6342412 10.3397683,14.4669261 C11.5444015,15.5797665 13.3513514,15.5797665 14.957529,15.7821012 Z M32.4247104,15.5797665 C34.2316602,14.4669261 35.7374517,12.9494163 37.042471,11.1284047 C38.3474903,9.10505837 39.8532819,6.98054475 40.6563707,4.95719844 C39.5521236,4.95719844 37.2432432,5.46303502 36.03861,5.46303502 C34.4324324,6.47470817 34.7335907,7.78988327 32.6254826,9.307393 C32.9266409,10.6225681 31.6216216,14.9727626 32.4247104,15.5797665 Z M23.3899614,14.9727626 C23.3899614,13.4552529 23.1891892,11.9377432 23.8918919,10.3190661 C24.6949807,8.80155642 23.3899614,6.98054475 22.3861004,6.17120623 C21.8841699,7.78988327 21.3822394,9.61089494 21.0810811,11.1284047 C21.3822394,12.6459144 22.0849421,14.2645914 23.3899614,14.9727626 Z M30.6177606,8.80155642 C28.3088803,8.49805447 28.8108108,5.15953307 23.1891892,3.64202335 C24.996139,6.98054475 27.3050193,10.8249027 29.6138996,13.9610895 C31.1196911,15.2762646 30.6177606,10.8249027 30.6177606,8.80155642 Z" id="Shape"></path>
        </g>
    </g>
</svg>