<?xml version="1.0" encoding="UTF-8"?>
<svg width="64px" height="64px" viewBox="0 0 64 64" version="1.1" xmlns="http://www.w3.org/2000/svg" xmlns:xlink="http://www.w3.org/1999/xlink">
    <!-- Generator: Sketch 52.6 (67491) - http://www.bohemiancoding.com/sketch -->
    <title>leaves-dichotomous</title>
    <desc>Created with Sketch.</desc>
    <g id="leaves-dichotomous" stroke="none" stroke-width="1" fill="none" fill-rule="evenodd">
        <g id="icon-leaves-dichotomous" transform="translate(6.000000, 6.000000)" fill="#000000" fill-rule="nonzero">
            <path d="M9.84063745,51.3870334 C9.32270916,51.3870334 7.66533865,50.6719057 6.11155378,49.8546169 C4.55776892,49.0373281 3.41832669,47.7092338 2.90039841,48.0157171 C2.1752988,48.3222004 0.828685259,49.5481336 0.310756972,49.8546169 C-8.32667268e-17,49.8546169 0.310756972,49.0373281 0.310756972,48.8330059 C1.03585657,48.3222004 1.55378486,47.5049116 2.38247012,47.1984283 L1.55378486,45.6660118 C1.03585657,44.6444008 0.310756972,41.9882122 0.310756972,41.4774067 C0.310756972,40.6601179 1.34661355,41.9882122 2.38247012,44.3379175 C3.21115538,45.6660118 4.03984064,47.1984283 4.24701195,47.5049116 C6.42231076,49.0373281 6.11155378,47.7092338 10.876494,51.3870334 C10.876494,51.3870334 10.3585657,51.3870334 9.84063745,51.3870334 Z M30.247012,51.3870334 C26.310757,48.5265226 22.5816733,45.6660118 18.5418327,42.4990177 C15.6414343,40.1493124 12.4302789,38.3104126 11.7051793,38.1060904 C10.3585657,37.5952849 9.32270916,37.0844794 5.80079681,37.2888016 C3.41832669,37.2888016 0.828685259,37.5952849 0.517928287,37.5952849 C0.310756972,37.5952849 0.310756972,36.7779961 0.310756972,36.4715128 C0.310756972,36.2671906 1.86454183,36.4715128 4.24701195,36.4715128 C6.11155378,36.4715128 7.97609562,36.2671906 9.01195219,36.4715128 C10.876494,36.4715128 10.876494,36.7779961 10.3585657,36.2671906 C7.66533865,33.4066798 5.07569721,29.7288802 2.69322709,26.3575639 C2.1752988,26.5618861 0.828685259,27.0726916 0.310756972,26.5618861 C0.310756972,25.540275 3.21115538,26.0510806 1.55378486,24.518664 C1.34661355,24.0078585 0.310756972,22.6797642 0.310756972,22.3732809 C0.310756972,21.8624754 7.21644966e-16,21.0451866 0.517928287,21.3516699 C0.828685259,21.5559921 2.69322709,24.0078585 3.41832669,25.2337917 C5.80079681,28.9115914 8.4940239,32.2829077 11.7051793,35.4499018 C12.7410359,37.0844794 15.6414343,39.1277014 17.5059761,40.4557957 C22.063745,44.1335953 27.0358566,47.5049116 31.2828685,51.3870334 C31.2828685,51.3870334 30.5577689,51.3870334 30.247012,51.3870334 Z M37.3944223,51.6935167 C32.940239,44.6444008 27.8645418,36.2671906 22.5816733,30.546169 C14.2948207,25.540275 8.80478088,26.5618861 0,16.8565815 C1.03585657,16.345776 4.24701195,19.8192534 5.28286853,20.5343811 C5.07569721,18.6954813 4.24701195,17.1630648 4.03984064,15.324165 C3.72908367,13.4852652 1.55378486,12.9744597 0.517928287,11.9528487 C0.517928287,11.6463654 0.310756972,10.9312377 0.310756972,10.6247544 L3.72908367,12.9744597 C3.21115538,10.1139489 1.03585657,7.76424361 0.310756972,6.74263261 C0.310756972,6.12966601 0,5.61886051 0.828685259,6.12966601 C4.55776892,9.29666012 4.55776892,11.9528487 5.07569721,14.5068762 C5.28286853,16.345776 6.11155378,18.6954813 6.62948207,20.0235756 C7.14741036,21.3516699 8.18326693,22.3732809 9.01195219,22.8840864 C12.7410359,25.0294695 15.6414343,26.0510806 19.8884462,28.0943026 C21.2350598,28.9115914 23.0996016,29.9332024 23.0996016,29.4223969 C22.063745,26.0510806 21.2350598,23.1905697 19.8884462,20.0235756 C19.059761,18.6954813 18.3346614,17.4695481 17.8167331,16.8565815 C17.2988048,16.345776 15.123506,14.5068762 13.0517928,13.4852652 C9.52988048,10.9312377 5.80079681,9.60314342 2.69322709,7.25343811 C1.86454183,6.74263261 0,5.41453831 0,5.10805501 C0,4.90373281 0,4.39292731 0,4.39292731 L4.76494024,7.76424361 L4.03984064,5.92534381 C3.41832669,5.10805501 2.90039841,3.77996071 2.90039841,3.06483301 C2.38247012,1.9410609 2.1752988,0.408644401 2.69322709,0.408644401 C3.21115538,0.408644401 3.72908367,1.9410609 3.72908367,2.75834971 C3.72908367,3.26915521 4.55776892,4.90373281 5.07569721,6.12966601 C6.94023904,9.60314342 9.32270916,9.60314342 13.7768924,12.9744597 C12.2231076,10.1139489 10.0478088,6.12966601 8.18326693,4.90373281 C6.42231076,2.75834971 5.07569721,0.408644401 5.28286853,0.408644401 C5.5936255,0.2043222 7.45816733,2.5540275 8.18326693,3.26915521 L9.84063745,5.10805501 C9.84063745,4.39292731 9.32270916,0.408644401 10.0478088,0.408644401 C10.6693227,0.408644401 10.876494,2.5540275 10.876494,4.39292731 C10.876494,5.41453831 11.7051793,7.25343811 11.9123506,8.27504912 C13.2589641,11.1355599 15.4342629,13.4852652 17.8167331,15.6306483 C19.3705179,16.6522593 20.1992032,18.4911591 20.7171315,19.5127701 C22.2709163,23.1905697 23.0996016,27.0726916 24.6533865,30.7504912 C26.8286853,34.1218075 34.7011952,44.848723 38.4302789,51.6935167 C38.4302789,51.8978389 37.7051793,51.6935167 37.3944223,51.6935167 Z M45.5776892,51.8978389 C41.3306773,40.6601179 36.3585657,27.8899804 29.2111554,17.1630648 C26.5179283,14.5068762 23.3067729,12.4636542 20.1992032,10.6247544 C18.5418327,9.80746562 17.2988048,8.78585462 16.4701195,7.76424361 C15.6414343,6.74263261 14.6055777,5.41453831 14.0876494,4.90373281 C13.7768924,4.08644401 13.0517928,3.26915521 12.4302789,3.06483301 C11.9123506,2.75834971 11.3944223,0.715127701 11.3944223,0.408644401 C11.3944223,0.2043222 13.0517928,1.9410609 13.0517928,1.7367387 C13.5697211,0.919449902 14.2948207,-0.1021611 14.0876494,0.408644401 C14.812749,5.41453831 16.1593625,5.61886051 17.2988048,6.94695481 C17.5059761,6.94695481 17.2988048,6.12966601 16.9880478,5.10805501 C16.9880478,4.39292731 16.4701195,0.919449902 16.4701195,0.715127701 C16.4701195,0.2043222 16.9880478,0.715127701 17.2988048,0.715127701 C18.0239044,2.75834971 17.8167331,5.10805501 19.059761,7.76424361 C19.6812749,8.78585462 19.6812749,8.78585462 20.7171315,9.60314342 C23.3067729,10.9312377 25.689243,12.4636542 28.0717131,14.302554 L30.247012,16.345776 L29.7290837,13.9960707 C29.4183267,12.6679764 28.9003984,9.80746562 28.6932271,7.96856582 L28.3824701,4.39292731 L25.689243,3.26915521 C23.6175299,2.2475442 22.2709163,0.715127701 23.0996016,0.715127701 C24.6533865,1.2259332 26,2.75834971 28.0717131,3.26915521 C28.0717131,3.26915521 28.0717131,0.919449902 28.0717131,0.408644401 C28.0717131,-0.1021611 28.6932271,0.408644401 28.9003984,0.408644401 C29.2111554,0.408644401 29.2111554,3.06483301 29.4183267,6.74263261 C29.7290837,9.29666012 30.247012,12.6679764 30.5577689,13.9960707 C35.0119522,26.5618861 38.7410359,28.7072692 46.7171315,51.8978389 C46.7171315,52.2043222 46.1992032,51.6935167 45.5776892,51.8978389 Z M52,36.7779961 L51.689243,38.8212181 C47.752988,26.3575639 46.7171315,20.0235756 44.0239044,15.6306483 C40.812749,11.4420432 39.5697211,9.80746562 33.1474104,4.39292731 C31.2828685,2.5540275 29.7290837,0.408644401 30.247012,0.408644401 C30.5577689,0.408644401 30.7649402,0.408644401 31.2828685,0.919449902 C32.1115538,1.7367387 33.9760956,4.08644401 34.1832669,3.77996071 C34.4940239,3.57563851 34.7011952,0.919449902 34.7011952,0.408644401 C34.7011952,-0.1021611 35.3227092,0.408644401 35.8406375,0.408644401 L35.3227092,5.10805501 C40.812749,9.29666012 41.9521912,11.9528487 44.3346614,13.7917485 C43.8167331,12.1571709 43.1952191,6.43614931 45.059761,0.2043222 C45.5776892,0.2043222 46.4063745,-0.1021611 46.1992032,0.2043222 C45.059761,3.57563851 44.8525896,8.27504912 45.059761,11.9528487 C45.3705179,13.4852652 46.1992032,16.6522593 46.9243028,19.0019646 C48.5816733,24.2121807 51.1713147,31.56778 52,36.7779961 Z" id="Shape"></path>
        </g>
    </g>
</svg>