<?xml version="1.0" encoding="UTF-8"?>
<svg width="64px" height="64px" viewBox="0 0 64 64" version="1.1" xmlns="http://www.w3.org/2000/svg" xmlns:xlink="http://www.w3.org/1999/xlink">
    <!-- Generator: Sketch 52.6 (67491) - http://www.bohemiancoding.com/sketch -->
    <title>leaves-evenpinnate</title>
    <desc>Created with Sketch.</desc>
    <g id="leaves-evenpinnate" stroke="none" stroke-width="1" fill="none" fill-rule="evenodd">
        <g id="icon-leaves-evenpinnate" transform="translate(6.000000, 14.000000)" fill="#000000" fill-rule="nonzero">
            <path d="M45.8046875,17.8504155 C45.8046875,17.8504155 45.8046875,16.1551247 46.3125,15.8559557 C49.15625,14.0609418 51.4921875,6.88088643 49.6640625,2.79224377 C45.5,6.38227147 44.9921875,10.9695291 45.8046875,15.5567867 L45.1953125,17.8504155 L45.8046875,17.8504155 Z M40.5234375,18.1495845 L40.5234375,16.1551247 C44.484375,10.7700831 42.3515625,4.08864266 40.828125,1.79501385 C37.4765625,7.67867036 37.6796875,12.265928 39.8125,16.3545706 L39.8125,18.6481994 L40.5234375,18.1495845 Z M34.8359375,18.4487535 L34.53125,15.3573407 C37.4765625,13.2631579 37.4765625,5.88365651 34.0234375,0.498614958 C31.9921875,5.08587258 29.859375,9.47368421 34.0234375,15.3573407 L34.328125,18.6481994 L34.8359375,18.4487535 Z M28.3359375,18.1495845 L28.03125,15.0581717 C32.1953125,10.9695291 29.65625,3.09141274 27.3203125,0.498614958 C24.984375,4.58725762 23.6640625,9.97229917 27.5234375,15.3573407 L27.5234375,17.8504155 L28.3359375,17.8504155 L28.3359375,18.1495845 Z M22.140625,17.3518006 L21.53125,14.8587258 C24.6796875,11.468144 23.15625,5.38504155 19.5,0 C17.1640625,5.08587258 16.859375,10.2714681 21.0234375,15.0581717 L21.53125,17.6509695 L22.140625,17.3518006 Z M15.640625,17.1523546 L14.828125,14.5595568 C17.9765625,11.468144 14.5234375,5.38504155 11.6796875,1.59556787 C10.6640625,5.88365651 9.34375,10.2714681 14.3203125,15.0581717 L14.828125,17.3518006 L15.640625,17.1523546 Z M11.171875,17.1523546 L9.8515625,15.5567867 C9.6484375,12.066482 6.8046875,8.97506925 2.03125,6.38227147 C1.828125,8.97506925 5.1796875,15.0581717 9.34375,15.5567867 L11.171875,17.6509695 L11.171875,17.1523546 Z M22.140625,18.4487535 L21.0234375,20.7423823 C24.171875,24.232687 18.1796875,32.2105263 15.3359375,35.0027701 C14.828125,31.2132964 14.5234375,24.8310249 20.3125,20.7423823 L21.328125,18.1495845 L22.140625,18.4487535 Z M15.84375,17.8504155 L14.3203125,20.7423823 C16.3515625,23.534626 11.6796875,29.1191136 6.5,32.9085873 C6.8046875,27.8227147 8.328125,23.2354571 13.5078125,20.1440443 L15.03125,17.6509695 L15.84375,17.8504155 Z M11.4765625,17.8504155 L9.8515625,19.4459834 C10.6640625,24.033241 2.640625,28.6204986 0,28.9196676 C0.5078125,27.3240997 0.5078125,22.5373961 9.34375,18.9473684 L11.4765625,17.1523546 L11.4765625,17.8504155 Z M28.03125,18.6481994 L27.828125,21.2409972 C31.484375,26.3268698 27.3203125,34.0055402 25.4921875,35.800554 C23.96875,30.9141274 22.8515625,26.0277008 27.3203125,21.2409972 L27.828125,18.4487535 L28.03125,18.6481994 Z M34.53125,18.6481994 L34.328125,21.2409972 C37.6796875,25.0304709 34.8359375,32.9085873 31.9921875,36 C31.1796875,34.5041551 28.03125,26.5263158 33.515625,21.2409972 L33.8203125,18.4487535 L34.53125,18.6481994 Z M40.5234375,18.6481994 L40.5234375,21.2409972 C43.1640625,23.0360111 42.1484375,30.1163435 39.8125,35.0027701 C38.1875,32.2105263 36.359375,25.5290859 40.015625,21.2409972 L39.8125,18.6481994 L40.5234375,18.6481994 Z M46.0078125,18.6481994 L46.3125,21.2409972 C49.15625,23.0360111 48.8515625,30.1163435 47.0234375,34.0055402 C45.5,30.1163435 43.1640625,26.8254848 45.8046875,21.4404432 L45.5,18.6481994 L46.0078125,18.6481994 Z M51.4921875,18.9473684 C52.3046875,18.6481994 52,17.1523546 51.4921875,17.1523546 C51.4921875,17.1523546 38.1875,18.1495845 32.1953125,17.6509695 C26.5078125,17.1523546 10.96875,16.8531856 10.96875,16.8531856 L11.171875,17.3518006 L11.4765625,18.1495845 C11.4765625,18.1495845 33.0078125,19.1468144 36.6640625,19.4459834 C40.3203125,19.4459834 51.6953125,18.9473684 51.4921875,18.9473684 Z" id="Shape"></path>
        </g>
    </g>
</svg>