<?xml version="1.0" encoding="UTF-8"?>
<svg width="64px" height="64px" viewBox="0 0 64 64" version="1.1" xmlns="http://www.w3.org/2000/svg" xmlns:xlink="http://www.w3.org/1999/xlink">
    <!-- Generator: Sketch 52.6 (67491) - http://www.bohemiancoding.com/sketch -->
    <title>leaves-obcordate</title>
    <desc>Created with Sketch.</desc>
    <g id="leaves-obcordate" stroke="none" stroke-width="1" fill="none" fill-rule="evenodd">
        <g id="icon-leaves-obcordate" transform="translate(6.000000, 21.000000)" fill="#000000">
            <path d="M3.2248062,11 C3.2248062,11 0.100775194,7.47572816 0.100775194,4.69902913 C0.100775194,2.5631068 2.11627907,0.32038835 6.85271318,0.106796117 C11.6899225,-0.213592233 23.2790698,0.854368932 27.9147287,2.5631068 C32.6511628,4.16504854 35.6744186,6.08737864 37.7906977,8.00970874 C39.8062016,9.93203883 39.8062016,10.1456311 44.4418605,10.1456311 C48.875969,10.1456311 50.1860465,9.0776699 50.8914729,9.0776699 C51.6976744,9.39805825 52.2015504,11.3203883 51.6976744,11.5339806 C51.1937984,11.8543689 48.875969,11 44.744186,11.3203883 C40.6124031,11.3203883 40.6124031,11 39.6046512,11.8543689 C38.496124,12.6019417 33.1550388,17.8349515 23.5813953,20.2912621 C15.8217054,22.2135922 10.1782946,21.8932039 6.5503876,21.8932039 C4.73643411,21.8932039 -0.201550388,20.6116505 0.100775194,16.4466019 C0.100775194,14.3106796 1.91472868,11.5339806 3.2248062,11 Z" id="Path"></path>
        </g>
    </g>
</svg>