<?xml version="1.0" encoding="UTF-8"?>
<svg width="64px" height="64px" viewBox="0 0 64 64" version="1.1" xmlns="http://www.w3.org/2000/svg" xmlns:xlink="http://www.w3.org/1999/xlink">
    <!-- Generator: Sketch 52.6 (67491) - http://www.bohemiancoding.com/sketch -->
    <title>leaves-cuneate-copy</title>
    <desc>Created with Sketch.</desc>
    <g id="leaves-cuneate-copy" stroke="none" stroke-width="1" fill="none" fill-rule="evenodd">
        <g id="icon-leaves-cuneate-copy" transform="translate(6.000000, 18.000000)" fill="#000000">
            <path d="M51.8988327,15.7689531 C51.8988327,15.2635379 51.0894942,15.465704 51.0894942,14.9602888 C51.3929961,14.4548736 52.2023346,14.2527076 51.8988327,13.9494585 C51.3929961,13.6462094 49.8754864,13.1407942 49.0661479,13.4440433 C48.2568093,13.9494585 37.4319066,14.7581227 36.6225681,14.2527076 C35.8132296,13.6462094 34.4980545,14.4548736 34.2957198,11.6245487 C33.9922179,8.79422383 33.7898833,4.3465704 32.7782101,3.33574007 C31.9688716,2.32490975 29.6420233,0 24.4824903,0 C19.2217899,0.202166065 18.7159533,0.505415162 14.0622568,4.3465704 C9.71206226,8.49097473 -0.20233463,13.1407942 0.101167315,15.465704 C0.404669261,17.7906137 3.43968872,18.3971119 7.38521401,19.9133574 C11.229572,21.4296029 19.8287938,26.8880866 21.3463035,27.3935018 C23.1673152,27.898917 28.6303502,28.4043321 29.844358,27.1913357 C31.463035,25.8772563 32.7782101,23.7545126 33.4863813,20.4187726 C34.4980545,17.0830325 34.4980545,15.9711191 35.8132296,15.7689531 C37.1284047,15.465704 43.6031128,15.465704 46.233463,15.7689531 C49.0661479,15.9711191 51.5953307,16.2743682 51.8988327,15.7689531 Z" id="Path"></path>
        </g>
    </g>
</svg>