<?xml version="1.0" encoding="UTF-8"?>
<svg width="64px" height="64px" viewBox="0 0 64 64" version="1.1" xmlns="http://www.w3.org/2000/svg" xmlns:xlink="http://www.w3.org/1999/xlink">
    <!-- Generator: Sketch 52.6 (67491) - http://www.bohemiancoding.com/sketch -->
    <title>leaves-trifoliate</title>
    <desc>Created with Sketch.</desc>
    <g id="leaves-trifoliate" stroke="none" stroke-width="1" fill="none" fill-rule="evenodd">
        <g id="icon-leaves-trifoliate" transform="translate(6.000000, 8.000000)" fill="#000000">
            <path d="M28.1245136,25.1234043 C28.1245136,25.1234043 41.3774319,24.306383 45.2217899,25.1234043 C49.1673152,25.8382979 52,27.1659574 52,24.8170213 C52,22.4680851 50.6848249,22.2638298 46.8404669,22.7744681 C42.8949416,23.2851064 38.7470817,23.7957447 34.0933852,23.4893617 C29.2373541,23.2851064 28.7315175,22.9787234 28.7315175,22.9787234 C28.7315175,22.9787234 27.922179,19.6085106 29.2373541,17.5659574 C30.5525292,15.4212766 34.0933852,9.39574468 33.8910506,6.84255319 C33.5875486,4.18723404 31.0583658,0 27.4163424,0 C23.7743191,0 22.2568093,1.53191489 21.6498054,1.53191489 C20.6381323,1.53191489 18.8171206,0.306382979 17.6031128,0.510638298 C16.4902724,0.510638298 12.848249,4.49361702 13.151751,7.55744681 C13.6575875,10.7234043 15.9844358,14.9106383 19.6264591,16.4425532 C22.9649805,18.0765957 24.077821,17.7702128 24.7859922,18.7914894 C25.5953307,19.9148936 26.4046693,22.2638298 26.4046693,22.2638298 C26.4046693,22.2638298 22.7626459,21.9574468 21.9533074,21.1404255 C21.1439689,20.4255319 20.1322957,18.0765957 19.3229572,17.2595745 C18.614786,16.4425532 16.7937743,14.6042553 14.1634241,13.3787234 C11.6342412,12.0510638 9.307393,11.5404255 7.48638132,11.7446809 C5.66536965,11.7446809 2.0233463,13.5829787 1.01167315,15.2170213 C0.20233463,16.7489362 -0.101167315,17.7702128 0.20233463,19.0978723 C0.505836576,20.4255319 1.01167315,22.2638298 1.01167315,22.9787234 C1.01167315,23.7957447 -0.303501946,25.6340426 0.20233463,27.6765957 C0.708171206,29.8212766 3.3385214,35.0297872 6.98054475,35.0297872 C10.5214008,35.0297872 13.4552529,34.5191489 16.9961089,31.1489362 C20.4357977,27.6765957 21.6498054,26.4510638 23.4708171,25.6340426 C25.5953307,24.8170213 25.5953307,25.1234043 25.5953307,25.1234043 C25.5953307,25.1234043 25.5953307,27.6765957 25.0894942,28.493617 C24.5836576,29.3106383 20.9416342,30.3319149 18.614786,33.1914894 C16.4902724,36.0510638 14.4669261,39.7276596 15.9844358,43.7106383 C17.8054475,47.5914894 20.9416342,48.1021277 21.6498054,47.8978723 C22.459144,47.5914894 24.077821,46.2638298 25.0894942,46.2638298 C26.1011673,46.2638298 28.1245136,47.8978723 29.9455253,47.0808511 C32.0700389,46.2638298 35.9143969,43.7106383 35.7120623,40.5446809 C35.4085603,37.3787234 33.385214,33.7021277 31.0583658,31.1489362 C28.9338521,28.493617 28.1245136,28.8 28.1245136,27.1659574 C28.4280156,25.6340426 28.4280156,25.3276596 28.1245136,25.1234043 Z" id="Path"></path>
        </g>
    </g>
</svg>