<?xml version="1.0" encoding="UTF-8"?>
<svg width="64px" height="64px" viewBox="0 0 64 64" version="1.1" xmlns="http://www.w3.org/2000/svg" xmlns:xlink="http://www.w3.org/1999/xlink">
    <!-- Generator: Sketch 52.6 (67491) - http://www.bohemiancoding.com/sketch -->
    <title>leaves-flabellate</title>
    <desc>Created with Sketch.</desc>
    <g id="leaves-flabellate" stroke="none" stroke-width="1" fill="none" fill-rule="evenodd">
        <g id="icon-leaves-flabellate" transform="translate(6.000000, 18.000000)" fill="#000000">
            <path d="M50.7906977,13.7560976 C50.7906977,13.5609756 51.8992248,12.7804878 51.2945736,12.5853659 C50.7906977,12.2926829 45.4496124,13.5609756 36.8837209,13.7560976 C28.4186047,14.0487805 28.1162791,14.0487805 28.1162791,14.0487805 C28.1162791,14.0487805 24.9922481,14.0487805 24.4883721,9.75609756 C23.9844961,5.26829268 24.4883721,2.53658537 24.2868217,1.85365854 C23.9844961,1.26829268 23.1782946,0.292682927 21.1627907,0.0975609756 C19.0465116,-0.195121951 0,2.53658537 0,13.7560976 C0,24.7804878 15.7209302,28.7804878 21.6666667,27.804878 C24.2868217,27.3170732 24.4883721,24.7804878 24.4883721,22.0487805 C24.4883721,19.3170732 24.2868217,15.5121951 27.8139535,15.3170732 C31.4418605,15.0243902 36.0775194,14.5365854 40.2093023,14.8292683 C44.3410853,15.0243902 51.2945736,15.3170732 51.8992248,15.0243902 C52.1007752,14.8292683 50.7906977,13.7560976 50.7906977,13.7560976 Z" id="Path"></path>
        </g>
    </g>
</svg>