<?xml version="1.0" encoding="UTF-8"?>
<svg width="64px" height="64px" viewBox="0 0 64 64" version="1.1" xmlns="http://www.w3.org/2000/svg" xmlns:xlink="http://www.w3.org/1999/xlink">
    <!-- Generator: Sketch 52.6 (67491) - http://www.bohemiancoding.com/sketch -->
    <title>leaves-reniform</title>
    <desc>Created with Sketch.</desc>
    <g id="leaves-reniform" stroke="none" stroke-width="1" fill="none" fill-rule="evenodd">
        <g id="icon-leaves-reniform" transform="translate(8.000000, 6.000000)" fill="#000000">
            <path d="M48,43.079922 C48,43.079922 46.2111801,42.0662768 45.1180124,39.4307992 C44.1242236,36.8966862 41.8385093,32.1325536 39.3540373,30.1052632 C36.7701863,27.9766082 33.1925466,25.9493177 31.2049689,25.9493177 C29.1180124,25.9493177 28.9192547,25.9493177 28.9192547,25.9493177 C28.9192547,25.9493177 36.4720497,18.9551657 37.7639752,16.6237817 C39.0559006,14.2923977 40.0496894,7.29824561 35.7763975,3.64912281 C31.4037267,0 25.3416149,0 23.0559006,0 C17.3913043,0 0.894409938,9.32553606 0.099378882,25.9493177 C-0.596273292,42.7758285 6.95652174,52.9122807 16.8944099,51.8986355 C26.8322981,51.0877193 29.6149068,45.9181287 29.6149068,39.9376218 C29.6149068,33.957115 28.4223602,28.5847953 28.4223602,28.5847953 C28.4223602,28.5847953 33.9875776,28.2807018 36.4720497,30.6120858 C39.0559006,32.9434698 40.8447205,35.7816764 42.8322981,40.748538 C44.9192547,45.7153996 46.7080745,44.3976608 46.7080745,44.3976608 L48,43.079922 Z" id="Path"></path>
        </g>
    </g>
</svg>