<?xml version="1.0" encoding="UTF-8"?>
<svg width="64px" height="64px" viewBox="0 0 64 64" version="1.1" xmlns="http://www.w3.org/2000/svg" xmlns:xlink="http://www.w3.org/1999/xlink">
    <!-- Generator: Sketch 52.6 (67491) - http://www.bohemiancoding.com/sketch -->
    <title>leaves-cuneate</title>
    <desc>Created with Sketch.</desc>
    <g id="leaves-cuneate" stroke="none" stroke-width="1" fill="none" fill-rule="evenodd">
        <g id="icon-leaves-cuneate" transform="translate(6.000000, 24.000000)" fill="#000000">
            <path d="M51.4921875,9.47770701 C51.6953125,8.96815287 51.1875,8.45859873 51.4921875,8.25477707 C51.6953125,7.6433121 52,7.13375796 52,6.92993631 C51.6953125,6.62420382 50.984375,7.13375796 49.96875,7.13375796 C48.8515625,7.13375796 46.0078125,7.94904459 42.3515625,6.62420382 C39,5.29936306 25.1875,0.407643312 16.65625,0.101910828 C9.8515625,-0.101910828 6.5,1.93630573 4.671875,2.95541401 C2.84375,4.28025478 0,6.42038217 0,7.6433121 C0,8.96815287 2.640625,11.3121019 3.65625,12.433121 C4.46875,13.1464968 7.8203125,16 13.5078125,16 C19.1953125,16 35.8515625,10.8025478 39,9.98726115 C42.1484375,8.96815287 43.1640625,8.45859873 45.1953125,8.45859873 C47.53125,8.45859873 51.1875,9.78343949 51.4921875,9.47770701 Z" id="Path"></path>
        </g>
    </g>
</svg>