<?xml version="1.0" encoding="UTF-8"?>
<svg width="64px" height="64px" viewBox="0 0 64 64" version="1.1" xmlns="http://www.w3.org/2000/svg" xmlns:xlink="http://www.w3.org/1999/xlink">
    <!-- Generator: Sketch 52.6 (67491) - http://www.bohemiancoding.com/sketch -->
    <title>leaves-longitudinal</title>
    <desc>Created with Sketch.</desc>
    <g id="leaves-longitudinal" stroke="none" stroke-width="1" fill="none" fill-rule="evenodd">
        <g id="icon-leaves-longitudinal" transform="translate(6.000000, 6.000000)" fill="#000000" fill-rule="nonzero">
            <path d="M10.5238095,51.6947162 C10.0079365,51.6947162 9.49206349,51.6947162 9.18253968,51.4911937 C8.97619048,51.18591 7.84126984,49.964775 7.63492063,49.964775 C7.32539683,49.964775 6.29365079,49.3542074 5.77777778,48.8454012 C4.23015873,46.5048924 3.4047619,43.9608611 2.37301587,41.6203523 C1.75396825,40.297456 0.206349206,37.9569472 0.206349206,37.6516634 C0.206349206,37.4481409 0.515873016,37.1428571 0.515873016,37.4481409 C0.722222222,37.4481409 2.06349206,39.4833659 2.88888889,40.8062622 C4.23015873,43.146771 4.74603175,45.7925636 5.98412698,48.1330724 C6.6031746,48.8454012 8.15079365,50.1682975 7.32539683,48.3365949 C7.11904762,47.5225049 6.29365079,45.9960861 5.98412698,44.9784736 C5.77777778,43.9608611 4.74603175,36.9393346 3.92063492,29.816047 C2.88888889,22.7945205 1.75396825,16.2818004 1.54761905,14.9589041 C1.03174603,11.0919765 0,10.2778865 0,10.5831703 L0.515873016,8.24266145 C3.92063492,13.9412916 3.0952381,15.2641879 5.26190476,28.5949119 C7.11904762,43.146771 7.11904762,44.6731898 10.5238095,51.6947162 Z M15.2698413,51.6947162 C13.7222222,50.4735812 13.2063492,48.6418787 12.5873016,46.8101761 C12.3809524,45.4872798 11.3492063,40.297456 10.2142857,35.6164384 C9.49206349,30.630137 8.66666667,25.4403131 8.35714286,23.9138943 C8.35714286,22.2857143 7.84126984,19.741683 7.11904762,17.6046967 C6.29365079,15.7729941 5.46825397,13.2289628 5.46825397,11.9060665 C5.46825397,10.5831703 5.26190476,9.05675147 4.95238095,8.44618395 C3.61111111,6.10567515 2.57936508,3.25636008 2.06349206,0.40704501 C2.06349206,0.203522505 2.57936508,0.40704501 2.57936508,0.40704501 C3.0952381,0.915851272 4.74603175,8.24266145 5.26190476,6.4109589 C5.46825397,4.37573386 5.77777778,2.54403131 6.29365079,0.40704501 C6.29365079,0.203522505 6.80952381,0.40704501 7.11904762,0.40704501 C7.63492063,0.40704501 7.63492063,1.22113503 7.32539683,2.74755382 C5.77777778,11.9060665 7.32539683,14.9589041 8.97619048,18.6223092 L9.6984127,17.0958904 L13.7222222,12.109589 L13.7222222,6.71624266 L13.4126984,0.203522505 L14.9603175,0.203522505 C15.5793651,6.91976517 14.9603175,13.9412916 16.3015873,20.7592955 C16.6111111,20.7592955 16.8174603,20.2504892 17.1269841,19.4363992 C17.4365079,13.4324853 17.4365079,6.4109589 17.1269841,0.712328767 C17.4365079,0.712328767 17.952381,0.203522505 18.1587302,0.915851272 C18.1587302,0.915851272 18.6746032,15.7729941 18.468254,19.1311155 C18.468254,20.4540117 21.5634921,25.1350294 24.0396825,26.9667319 L23.2142857,22.590998 C22.9047619,16.7906067 21.8730159,9.56555773 21.047619,0.40704501 L22.9047619,0.40704501 C23.2142857,6.10567515 24.5555556,10.5831703 25.0714286,23.9138943 L25.7936508,47.0136986 C27.6507937,43.9608611 28.7857143,40.5009785 29.5079365,37.1428571 C31.1587302,27.9843444 29.5079365,18.927593 27.6507937,10.074364 C26.9285714,5.90215264 25.7936508,0.712328767 25.7936508,0.203522505 C26.4126984,0.203522505 26.9285714,-0.101761252 27.4444444,0.203522505 C27.4444444,0.915851272 28.4761905,5.90215264 29.3015873,9.05675147 C29.8174603,10.5831703 29.8174603,13.9412916 30.8492063,14.9589041 C31.8809524,13.2289628 32.3968254,11.3972603 32.7063492,9.56555773 C32.7063492,9.05675147 33.015873,6.91976517 33.015873,5.39334638 C33.015873,3.76516634 32.3968254,0.712328767 32.3968254,0.40704501 C33.015873,-0.101761252 34.047619,-0.101761252 34.2539683,0.40704501 C34.047619,0.915851272 35.3888889,6.71624266 36.1111111,10.2778865 C36.9365079,13.9412916 37.7619048,18.4187867 37.968254,19.9452055 C38.2777778,21.776908 38.7936508,23.6086106 39.3095238,24.6262231 C40.1349206,26.2544031 40.1349206,26.2544031 40.3412698,25.6438356 C40.3412698,25.1350294 40.8571429,22.7945205 41.1666667,19.9452055 C41.9920635,15.2641879 41.9920635,14.9589041 41.3730159,12.109589 C40.8571429,7.93737769 39,4.37573386 37.968254,0.203522505 C38.7936508,0.203522505 39,0.203522505 39.8253968,0.203522505 C41.1666667,4.57925636 42.5079365,8.75146771 43.2301587,13.2289628 C44.3650794,20.2504892 44.3650794,27.2720157 45.3968254,34.2935421 C50.968254,23.3033268 48.8015873,10.888454 44.0555556,0.203522505 C44.5714286,-0.101761252 45.0873016,0.203522505 45.6031746,0.40704501 C47.2539683,3.76516634 47.7698413,7.73385519 49.1111111,11.3972603 C49.8333333,7.73385519 48.8015873,3.76516634 48.2857143,0.203522505 C48.2857143,0.203522505 49.1111111,0.203522505 49.3174603,0.40704501 C49.8333333,4.0704501 50.6587302,8.24266145 50.1428571,11.9060665 C49.8333333,13.2289628 49.6269841,15.7729941 49.6269841,18.1135029 C49.6269841,24.1174168 48.5952381,31.444227 45.9126984,35.3111546 C44.8809524,36.9393346 44.5714286,37.6516634 44.5714286,38.9745597 C44.5714286,41.0097847 44.0555556,43.4520548 44.0555556,45.4872798 C45.6031746,43.6555773 46.7380952,41.6203523 47.7698413,39.4833659 C49.1111111,36.9393346 49.1111111,36.9393346 49.1111111,32.7671233 C49.1111111,28.5949119 49.8333333,24.4227006 51.484127,20.7592955 C52,19.9452055 52,19.9452055 52,20.4540117 C50.968254,25.1350294 49.6269841,29.6125245 50.1428571,34.2935421 C50.6587302,33.7847358 52,30.4266145 52,31.6477495 C52,32.1565558 50.968254,34.4970646 49.8333333,37.1428571 C47.9761905,40.297456 46.7380952,44.1643836 44.0555556,46.8101761 C43.8492063,47.0136986 43.5396825,47.5225049 43.5396825,47.8277886 C43.2301587,49.1506849 43.2301587,50.6771037 42.1984127,51.6947162 C41.6825397,51.6947162 41.3730159,50.6771037 41.6825397,49.964775 C41.6825397,49.3542074 42.1984127,47.5225049 42.5079365,45.7925636 C42.7142857,43.9608611 43.0238095,42.332681 43.0238095,42.332681 C40.8571429,44.4696673 37.968254,46.5048924 37.2460317,49.3542074 C36.9365079,50.4735812 36.6269841,52 36.4206349,52 C36.1111111,52 36.1111111,50.6771037 36.4206349,49.3542074 C36.6269841,48.3365949 36.6269841,46.8101761 36.9365079,45.7925636 C36.9365079,44.6731898 37.2460317,43.4520548 36.9365079,42.8414873 L36.6269841,41.6203523 L35.3888889,42.8414873 C33.2222222,45.1819961 30.0238095,45.9960861 27.4444444,47.5225049 C26.4126984,48.3365949 26.1031746,48.6418787 26.1031746,49.6594912 C26.1031746,50.9823875 26.6190476,51.6947162 25.7936508,51.6947162 C25.0714286,51.6947162 24.2460317,52.3052838 24.2460317,51.4911937 C24.2460317,50.9823875 23.7301587,46.5048924 23.7301587,43.6555773 L23.4206349,38.4657534 C19.1904762,37.6516634 17.952381,32.9706458 17.4365079,31.1389432 C17.1269841,33.7847358 16.8174603,36.3287671 16.8174603,38.9745597 C16.3015873,46.5048924 20.8412698,51.18591 20.8412698,51.6947162 C18.984127,52.5088063 16.6111111,45.9960861 16.0952381,42.332681 C16.0952381,41.3150685 15.5793651,39.7886497 15.2698413,39.2798434 C14.7539683,38.4657534 11.8650794,35.6164384 12.0714286,36.3287671 C12.8968254,41.8238748 13.2063492,47.5225049 16.6111111,51.4911937 L15.2698413,51.4911937 L15.2698413,51.6947162 Z M28.4761905,45.9960861 C31.1587302,45.1819961 33.2222222,43.6555773 35.0793651,41.8238748 C38.484127,38.4657534 39.8253968,33.9882583 39.6190476,29.6125245 C39.3095238,28.5949119 39,26.9667319 38.7936508,26.4579256 C37.968254,24.4227006 38.7936508,31.444227 37.7619048,34.4970646 C35.9047619,38.4657534 31.3650794,39.9921722 29.3015873,43.9608611 C28.7857143,44.9784736 28.1666667,45.9960861 28.4761905,45.9960861 Z M42.1984127,41.3150685 C43.0238095,39.9921722 43.0238095,39.7886497 43.0238095,36.6340509 C42.5079365,31.444227 43.0238095,25.9491194 41.9920635,20.7592955 C41.6825397,20.4540117 41.3730159,21.776908 41.3730159,23.3033268 C40.8571429,29.1037182 41.9920635,34.4970646 37.968254,40.5009785 C37.968254,41.8238748 38.2777778,43.4520548 37.968254,45.9960861 C39.3095238,44.6731898 40.8571429,43.146771 42.1984127,41.3150685 Z M31.3650794,38.9745597 C33.2222222,37.6516634 34.7698413,36.3287671 35.9047619,34.2935421 C37.2460317,30.4266145 36.4206349,25.9491194 36.1111111,22.0821918 C35.9047619,19.741683 35.3888889,15.2641879 34.5634921,12.109589 C33.531746,6.91976517 33.531746,6.71624266 33.2222222,7.93737769 C33.015873,11.0919765 32.1904762,13.9412916 30.3333333,16.5870841 C31.6746032,23.6086106 31.8809524,30.630137 30.8492063,37.6516634 C30.8492063,39.2798434 30.8492063,39.2798434 31.3650794,38.9745597 Z M16.0952381,33.9882583 C16.3015873,29.3072407 16.3015873,29.3072407 15.5793651,25.4403131 C14.9603175,23.0998043 14.4444444,19.741683 14.2380952,17.6046967 L13.7222222,13.7377691 C11.3492063,16.2818004 10.2142857,19.1311155 10.0079365,22.7945205 C10.0079365,24.4227006 10.2142857,27.2720157 10.5238095,29.1037182 C10.8333333,30.9354207 11.5555556,33.2759295 11.8650794,33.9882583 C12.3809524,36.3287671 13.9285714,37.4481409 15.5793651,38.4657534 L16.0952381,33.9882583 Z M23.4206349,36.6340509 C23.4206349,33.7847358 23.7301587,30.9354207 23.4206349,28.2896282 C20.531746,25.4403131 18.6746032,23.0998043 17.6428571,20.7592955 C16.8174603,21.2681018 16.3015873,22.0821918 16.3015873,23.0998043 C16.3015873,23.6086106 16.8174603,25.1350294 17.4365079,26.7632094 C18.6746032,30.1213307 19.5,35.3111546 23.4206349,36.6340509 Z" id="Shape"></path>
        </g>
    </g>
</svg>