<?xml version="1.0" encoding="UTF-8"?>
<svg width="64px" height="64px" viewBox="0 0 64 64" version="1.1" xmlns="http://www.w3.org/2000/svg" xmlns:xlink="http://www.w3.org/1999/xlink">
    <!-- Generator: Sketch 52.6 (67491) - http://www.bohemiancoding.com/sketch -->
    <title>leaves-alternate</title>
    <desc>Created with Sketch.</desc>
    <g id="leaves-alternate" stroke="none" stroke-width="1" fill="none" fill-rule="evenodd">
        <g id="icon-leaves-alternate" transform="translate(6.000000, 22.000000)" fill="#000000">
            <path d="M45.3333333,11.7948718 C47.1794872,11.4871795 52.2051282,9.94871795 51.8974359,9.94871795 C51.8974359,9.64102564 51.6923077,8.61538462 51.3846154,8.92307692 C50.8717949,8.92307692 46.4615385,10.7692308 44.6153846,10.7692308 C42.7692308,10.7692308 38.0512821,9.64102564 37.025641,9.64102564 C36.7179487,9.64102564 36.2051282,9.64102564 35.3846154,9.94871795 C34.5641026,9.64102564 34.0512821,9.12820513 33.5384615,8.61538462 C32.2051282,1.33333333 25.4358974,0 22.5641026,0 C22.7692308,4.41025641 29.8461538,12 33.3333333,8.92307692 L34.5641026,9.94871795 C32.2051282,10.4615385 28.8205128,11.2820513 27.4871795,11.2820513 C25.6410256,11.2820513 20.4102564,9.94871795 18.8717949,9.94871795 C18.5641026,9.94871795 18.5641026,9.94871795 18.3589744,9.94871795 L17.025641,8.61538462 C16,2.87179487 12.3076923,1.84615385 8.92307692,0.512820513 C8.92307692,4.41025641 13.8461538,10.7692308 16.5128205,8.92307692 L17.5384615,9.94871795 C15.1794872,9.94871795 11.2820513,10.7692308 10.1538462,10.7692308 C8.92307692,10.7692308 1.53846154,8.61538462 1.23076923,8.61538462 C1.02564103,8.61538462 0.717948718,9.12820513 0.717948718,9.12820513 C1.02564103,9.12820513 5.43589744,10.7692308 8.1025641,11.2820513 C7.79487179,11.4871795 7.58974359,11.7948718 7.28205128,11.7948718 C2.87179487,10.7692308 0.205128205,15.1794872 0,16.8205128 C3.8974359,17.025641 7.07692308,15.4871795 7.58974359,12.3076923 L8.92307692,11.2820513 C9.12820513,11.2820513 9.43589744,11.2820513 9.43589744,11.2820513 C10.974359,11.2820513 17.5384615,10.4615385 18.8717949,10.4615385 C19.8974359,10.4615385 24.1025641,11.7948718 26.4615385,12.3076923 C26.2564103,12.6153846 25.9487179,12.8205128 25.4358974,12.8205128 C20.4102564,10.4615385 15.1794872,17.8461538 15.6923077,18.8717949 C18.8717949,19.8974359 25.1282051,17.8461538 25.4358974,13.3333333 L26.974359,12.3076923 C27.2820513,12.3076923 27.4871795,12.3076923 27.4871795,12.3076923 C28.6153846,12.3076923 35.8974359,10.2564103 37.5384615,10.4615385 C38.7692308,10.4615385 42.4615385,11.2820513 44.6153846,11.4871795 L43.5897436,12 C38.2564103,9.64102564 32.5128205,17.025641 32.2051282,19.6923077 C35.3846154,20.7179487 44.3076923,17.8461538 43.5897436,12.8205128 C44.3076923,12.3076923 44.8205128,12 45.3333333,11.7948718 Z" id="Path"></path>
        </g>
    </g>
</svg>