<?xml version="1.0" encoding="UTF-8"?>
<svg width="64px" height="64px" viewBox="0 0 64 64" version="1.1" xmlns="http://www.w3.org/2000/svg" xmlns:xlink="http://www.w3.org/1999/xlink">
    <!-- Generator: Sketch 52.6 (67491) - http://www.bohemiancoding.com/sketch -->
    <title>leaves-sinuate</title>
    <desc>Created with Sketch.</desc>
    <g id="leaves-sinuate" stroke="none" stroke-width="1" fill="none" fill-rule="evenodd">
        <g id="icon-leaves-sinuate" transform="translate(6.000000, 18.000000)" fill="#000000">
            <path d="M0,28 L52,28 L52,1.76296296 C52,0.103703704 49.96875,-1.45185185 47.8359375,2.48888889 C47.0234375,3.83703704 44.9921875,6.53333333 43.1640625,3.31851852 C42.3515625,1.76296296 40.015625,-0.103703704 38.4921875,3.62962963 C37.984375,4.87407407 36.359375,7.88148148 33.515625,4.87407407 C32.5,3.83703704 29.1484375,0.933333333 28.3359375,6.74074074 C27.828125,9.95555556 26.3046875,11.3037037 23.15625,8.91851852 C20.8203125,7.05185185 17.9765625,6.53333333 17.9765625,10.4740741 C17.9765625,13.6888889 15.84375,14.2074074 13.5078125,12.6518519 C9.8515625,9.95555556 8.328125,11.8222222 8.53125,14.5185185 C8.8359375,17.4222222 7.3125,17.9407407 5.1796875,17.1111111 C3.1484375,16.0740741 0.5078125,16.9037037 0,21.8814815 L0,28 Z" id="Path"></path>
        </g>
    </g>
</svg>