<?xml version="1.0" encoding="UTF-8"?>
<svg width="64px" height="64px" viewBox="0 0 64 64" version="1.1" xmlns="http://www.w3.org/2000/svg" xmlns:xlink="http://www.w3.org/1999/xlink">
    <!-- Generator: Sketch 52.6 (67491) - http://www.bohemiancoding.com/sketch -->
    <title>leaves-dentate</title>
    <desc>Created with Sketch.</desc>
    <g id="leaves-dentate" stroke="none" stroke-width="1" fill="none" fill-rule="evenodd">
        <g id="icon-leaves-dentate" transform="translate(6.000000, 18.000000)" fill="#000000">
            <path d="M0,28 L52,28 L52,2.97260274 L48.5868726,0 C46.2779923,1.7260274 43.969112,4.4109589 41.96139,6.61643836 C40.3552124,5.17808219 38.5482625,3.64383562 36.5405405,2.20547945 C34.4324324,4.69863014 33.2277992,7.09589041 31.9227799,9.30136986 C30.1158301,7.8630137 28.3088803,6.90410959 26.5019305,5.94520548 C26.5019305,5.94520548 21.8841699,12.5616438 21.0810811,12.5616438 C20.8803089,12.5616438 15.96139,8.63013699 15.96139,8.63013699 C14.4555985,10.5479452 12.8494208,12.7534247 11.1428571,15.7260274 C9.53667954,14.2876712 8.53281853,13.2328767 7.72972973,12.0821918 C4.91891892,14 2.10810811,19.6575342 2.10810811,19.8493151 L0.301158301,22.0547945 L0.301158301,28 L0,28 Z" id="Path"></path>
        </g>
    </g>
</svg>