<?xml version="1.0" encoding="UTF-8"?>
<svg width="64px" height="64px" viewBox="0 0 64 64" version="1.1" xmlns="http://www.w3.org/2000/svg" xmlns:xlink="http://www.w3.org/1999/xlink">
    <!-- Generator: Sketch 52.6 (67491) - http://www.bohemiancoding.com/sketch -->
    <title>leaves-doubly-serrate</title>
    <desc>Created with Sketch.</desc>
    <g id="leaves-doubly-serrate" stroke="none" stroke-width="1" fill="none" fill-rule="evenodd">
        <g id="icon-leaves-doubly-serrate" transform="translate(6.000000, 18.000000)" fill="#000000">
            <path d="M0.294339623,28 L50.2339623,28 L50.2339623,6.42465753 C49.7433962,4.4109589 49.7433962,2.49315068 52,0 C50.8226415,0.287671233 49.2528302,1.7260274 47.4867925,4.12328767 L47.4867925,2.68493151 C46.0150943,3.45205479 45.0339623,4.89041096 44.2490566,6.1369863 L43.954717,4.69863014 C42.9735849,5.65753425 42.2867925,6.61643836 40.5207547,8.82191781 C40.7169811,7.57534247 41.5018868,5.36986301 41.5018868,4.89041096 C41.5018868,4.12328767 41.6981132,2.68493151 41.6981132,1.43835616 C39.245283,2.49315068 38.4603774,4.4109589 37.1849057,6.1369863 L37.1849057,4.69863014 C36.4981132,5.36986301 35.7132075,6.1369863 35.2226415,7.09589041 C34.9283019,7.8630137 33.9471698,8.82191781 33.9471698,8.82191781 L33.9471698,6.90410959 C32.6716981,7.57534247 31.9849057,8.82191781 31.3962264,9.78082192 C30.709434,11.5068493 29.1396226,11.7945205 29.1396226,11.7945205 C28.9433962,9.30136986 28.9433962,6.90410959 29.4339623,4.4109589 C27.9622642,5.36986301 26.6867925,7.57534247 25.4113208,9.5890411 L25.4113208,7.38356164 C23.154717,9.10958904 23.154717,10.260274 22.1735849,11.7945205 C22.1735849,11.3150685 22.1735849,10.5479452 22.1735849,9.5890411 C20.4075472,11.7945205 19.9169811,13.0410959 18.6415094,14.4794521 C18.3471698,12.7534247 18.3471698,11.7945205 18.6415094,10.8356164 C18.6415094,9.5890411 18.3471698,8.05479452 18.3471698,8.05479452 C17.6603774,9.10958904 16.3849057,9.30136986 15.8943396,10.8356164 C15.4037736,11.5068493 14.6188679,13.5205479 14.6188679,13.5205479 L14.1283019,11.3150685 C13.3433962,12.5616438 12.8528302,13.7123288 12.3622642,15.2465753 L12.0679245,14 C11.5773585,14.7671233 11.0867925,15.7260274 11.0867925,16.3972603 C11.0867925,17.1643836 10.3018868,17.4520548 10.3018868,17.4520548 C9.1245283,16.3972603 9.1245283,14.1917808 8.83018868,11.5068493 C7.35849057,12.7534247 6.57358491,14 6.27924528,15.2465753 C5.78867925,16.2054795 5.10188679,16.9726027 5.10188679,16.9726027 C4.80754717,16.3972603 4.80754717,15.9178082 4.61132075,15.4383562 C3.82641509,16.9726027 3.04150943,18.4109589 2.25660377,19.1780822 L1.56981132,17.4520548 C0.78490566,18.6986301 0.294339623,20.3287671 0,22.8219178 L0,28 L0.294339623,28 Z" id="Path"></path>
        </g>
    </g>
</svg>