<?xml version="1.0" encoding="UTF-8"?>
<svg width="64px" height="64px" viewBox="0 0 64 64" version="1.1" xmlns="http://www.w3.org/2000/svg" xmlns:xlink="http://www.w3.org/1999/xlink">
    <!-- Generator: Sketch 52.6 (67491) - http://www.bohemiancoding.com/sketch -->
    <title>leaves-arcuate</title>
    <desc>Created with Sketch.</desc>
    <g id="leaves-arcuate" stroke="none" stroke-width="1" fill="none" fill-rule="evenodd">
        <g id="icon-leaves-arcuate" transform="translate(6.000000, 6.000000)" fill="#000000" fill-rule="nonzero">
            <path d="M48.140625,0 L47.328125,0.80776699 C47.328125,0.80776699 47.0234375,0.504854369 47.328125,1.00970874 C47.53125,1.31262136 47.53125,1.81747573 47.8359375,2.3223301 C48.34375,3.33203883 48.6484375,4.64466019 48.6484375,5.14951456 C48.8515625,6.96699029 49.359375,10.9048544 49.359375,12.9242718 C49.359375,14.9436893 49.96875,17.3669903 48.6484375,21.7087379 C47.0234375,26.1514563 46.515625,28.6757282 43.46875,31.3009709 C40.3203125,33.8252427 36.359375,37.2582524 33.515625,37.9650485 C31.9921875,38.4699029 30.46875,39.0757282 29.1484375,39.2776699 C28.3359375,39.5805825 27.5234375,39.7825243 27.015625,39.7825243 L26.8125,33.623301 C27.015625,33.623301 27.3203125,33.623301 27.5234375,33.623301 C28.640625,33.623301 30.1640625,33.1184466 32.1953125,32.3106796 C36.359375,30.4932039 39.5078125,27.161165 41.03125,25.0407767 C41.84375,24.031068 42.65625,22.2135922 42.859375,20.3961165 C43.46875,18.5786408 43.671875,16.761165 43.671875,15.5495146 C43.671875,14.438835 43.671875,12.4194175 43.46875,10.6019417 C43.1640625,8.78446602 43.1640625,6.96699029 42.65625,5.65436893 C41.84375,3.8368932 40.3203125,0 40.3203125,0 L39,0.504854369 C39,0.504854369 40.5234375,4.44271845 41.3359375,5.95728155 C41.640625,6.46213592 41.84375,8.4815534 42.1484375,10.2990291 C42.3515625,12.1165049 42.3515625,14.2368932 42.3515625,15.2466019 C42.3515625,16.2563107 42.1484375,18.0737864 41.640625,19.6893204 C41.03125,21.4058252 40.5234375,23.223301 39.8125,24.031068 C38.4921875,25.8485437 35.34375,29.1805825 31.484375,30.7961165 C29.65625,31.5029126 28.03125,31.8058252 27.015625,32.007767 C26.8125,32.007767 26.5078125,32.007767 26.5078125,32.007767 L26.3046875,26.3533981 C26.5078125,26.3533981 26.8125,26.3533981 27.015625,26.3533981 C28.03125,26.3533981 29.1484375,26.1514563 30.1640625,25.8485437 C32.1953125,25.0407767 34.53125,22.5165049 35.6484375,17.8718447 C36.6640625,13.4291262 37.171875,9.08737864 36.96875,6.1592233 C37.171875,3.33203883 36.359375,0.302912621 36.359375,0.302912621 L35.140625,0.504854369 C35.140625,0.504854369 35.8515625,3.63495146 36.15625,6.46213592 C36.359375,9.28932039 35.8515625,13.4291262 34.8359375,17.8718447 C33.8203125,22.0116505 31.484375,24.3339806 30.1640625,24.838835 C29.3515625,25.0407767 28.3359375,25.3436893 27.5234375,25.3436893 C27.3203125,25.3436893 27.015625,25.3436893 26.8125,25.3436893 L26.5078125,19.6893204 C27.3203125,19.0834951 28.640625,18.8815534 29.3515625,18.0737864 C30.46875,17.0640777 32.8046875,13.9339806 33.515625,10.2990291 C33.515625,8.78446602 33.8203125,6.96699029 33.8203125,5.65436893 C33.8203125,4.44271845 33.8203125,3.33203883 33.8203125,2.3223301 C33.3125,1.00970874 33.0078125,0 33.0078125,0 L31.6875,0.504854369 C31.6875,0.504854369 32.1953125,1.51456311 32.5,2.82718447 C32.5,3.33203883 32.8046875,4.44271845 32.5,5.65436893 C32.5,6.96699029 32.1953125,8.4815534 31.9921875,10.0970874 C31.484375,13.2271845 29.1484375,16.2563107 28.3359375,17.0640777 C27.828125,17.568932 27.015625,17.8718447 26.3046875,17.8718447 L25.6953125,9.08737864 C26.8125,8.78446602 27.5234375,8.27961165 28.03125,7.26990291 C28.3359375,6.76504854 28.3359375,5.95728155 28.640625,5.45242718 C28.84375,4.64466019 28.84375,3.33203883 28.84375,2.3223301 C28.84375,1.81747573 28.84375,1.31262136 28.84375,1.00970874 C28.84375,0.80776699 28.84375,0.504854369 28.84375,0.504854369 C28.3359375,0.80776699 27.828125,0.504854369 27.5234375,0.504854369 C27.5234375,0.80776699 27.5234375,2.01941748 27.5234375,2.62524272 C27.5234375,3.63495146 27.5234375,4.94757282 27.3203125,5.14951456 C27.015625,5.95728155 27.015625,6.46213592 26.8125,6.96699029 C26.5078125,7.26990291 26,7.47184466 25.4921875,7.77475728 L25.1875,0 L22.6484375,0.302912621 L23.15625,8.27961165 C22.6484375,8.27961165 22.34375,8.27961165 21.8359375,7.97669903 C21.0234375,7.26990291 20.8203125,6.1592233 20.515625,5.45242718 C20.515625,4.94757282 20.8203125,3.63495146 20.8203125,2.62524272 C21.0234375,1.51456311 21.0234375,0.504854369 21.0234375,0.504854369 L19.8046875,0.302912621 C19.8046875,0.302912621 19.5,1.31262136 19.5,2.3223301 C19.5,3.63495146 19.1953125,4.64466019 19.1953125,5.45242718 C19.1953125,6.1592233 19.5,6.76504854 19.8046875,7.47184466 C20.0078125,8.27961165 20.515625,8.78446602 21.0234375,9.28932039 C21.53125,9.79417476 22.34375,9.79417476 23.15625,9.59223301 L23.6640625,19.3864078 C23.359375,19.3864078 23.359375,19.6893204 23.15625,19.6893204 C23.15625,19.6893204 23.359375,19.6893204 23.359375,19.6893204 C23.359375,19.6893204 22.8515625,19.6893204 21.53125,18.8815534 C19.1953125,17.3669903 17.46875,15.5495146 16.65625,13.7320388 C15.84375,11.4097087 15.640625,8.27961165 15.84375,5.95728155 C16.3515625,3.63495146 17.1640625,0.80776699 17.1640625,0.80776699 L16.1484375,0.302912621 C16.1484375,0.302912621 15.03125,3.13009709 14.828125,5.65436893 C14.3203125,8.27961165 14.828125,11.6116505 15.640625,13.9339806 C16.3515625,16.5592233 18.6875,18.376699 21.0234375,19.8912621 C22.140625,20.6990291 22.8515625,20.9009709 23.359375,20.9009709 C23.359375,20.9009709 23.359375,20.9009709 23.6640625,20.9009709 L23.96875,27.161165 C23.6640625,27.161165 23.15625,27.161165 22.34375,27.161165 C21.328125,27.161165 19.8046875,26.8582524 19.1953125,26.3533981 C17.46875,25.3436893 13.3046875,23.5262136 11.984375,19.8912621 C10.359375,16.0543689 10.359375,12.4194175 10.6640625,9.28932039 C10.6640625,6.46213592 11.6796875,0.302912621 11.6796875,0.302912621 L10.15625,0.302912621 C10.15625,0.302912621 9.34375,6.46213592 9.140625,9.28932039 C9.140625,12.1165049 9.140625,16.0543689 10.6640625,20.1941748 C12.1875,24.5359223 16.859375,26.3533981 18.6875,27.3631068 C19.8046875,27.8679612 21.328125,28.1708738 22.34375,28.1708738 C22.8515625,28.1708738 23.359375,28.1708738 23.96875,28.1708738 C23.96875,28.1708738 23.96875,28.1708738 24.171875,28.1708738 L24.4765625,33.1184466 C23.96875,33.1184466 22.6484375,32.815534 20.3125,32.3106796 C15.640625,31.5029126 9.6484375,26.3533981 7.515625,24.031068 C6.5,22.7184466 5.9921875,22.0116505 5.484375,20.6990291 C5.1796875,19.3864078 5.1796875,17.568932 4.671875,14.7417476 C4.46875,11.9145631 4.671875,8.27961165 5.1796875,5.45242718 C5.484375,2.62524272 5.9921875,0.504854369 5.9921875,0.504854369 L4.9765625,0.302912621 C4.9765625,0.302912621 4.1640625,2.3223301 3.859375,5.45242718 C3.65625,8.4815534 2.84375,11.9145631 3.3515625,14.7417476 C3.65625,17.568932 3.859375,19.3864078 4.1640625,20.6990291 C4.46875,22.2135922 5.1796875,23.223301 6.1953125,24.5359223 C8.53125,27.161165 14.5234375,32.3106796 19.8046875,33.623301 C22.140625,34.1281553 23.359375,34.3300971 24.171875,34.3300971 L24.4765625,40.0854369 C23.15625,40.0854369 21.328125,40.0854369 18.6875,39.5805825 C15.03125,38.7728155 10.6640625,36.4504854 8.53125,34.6330097 C6.5,32.6135922 1.5234375,26.6563107 1.3203125,26.3533981 C1.015625,25.5456311 0.8125,25.5456311 0.8125,25.5456311 L0.5078125,27.161165 C0.5078125,27.161165 5.484375,33.3203883 7.8203125,35.6427184 C10.15625,37.9650485 14.828125,40.0854369 18.6875,41.0951456 C21.328125,41.6 23.15625,41.6 24.6796875,41.6 L24.984375,47.5572816 C24.171875,47.5572816 23.6640625,47.5572816 23.359375,47.5572816 C22.8515625,47.5572816 21.328125,47.0524272 19.5,46.7495146 C17.671875,46.2446602 15.84375,45.7398058 14.5234375,45.5378641 C13.3046875,44.9320388 10.96875,43.9223301 8.8359375,42.6097087 C6.5,41.6 4.46875,40.2873786 3.3515625,39.7825243 C2.3359375,39.0757282 1.828125,38.7728155 1.5234375,38.2679612 C1.3203125,37.9650485 1.3203125,37.9650485 1.3203125,37.9650485 L0,38.4699029 C0,38.4699029 0.3046875,38.7728155 0.5078125,39.0757282 C0.8125,39.2776699 1.5234375,39.7825243 2.3359375,40.5902913 C3.3515625,41.3980583 5.6875,42.407767 7.8203125,43.7203883 C10.15625,44.7300971 12.4921875,46.0427184 13.8125,46.5475728 C15.03125,47.0524272 17.1640625,47.5572816 18.9921875,48.0621359 C20.8203125,48.5669903 22.34375,48.8699029 22.8515625,48.8699029 C23.359375,48.8699029 24.171875,48.8699029 24.984375,48.8699029 L24.984375,51.192233 L27.5234375,50.8893204 L27.5234375,48.5669903 C28.3359375,48.5669903 29.1484375,48.5669903 29.859375,48.5669903 C31.6875,48.5669903 33.8203125,48.3650485 35.34375,47.8601942 C39,46.5475728 37.6796875,47.0524272 41.640625,45.5378641 C44.9921875,44.2252427 47.328125,41.6 48.6484375,40.0854369 C49.359375,39.2776699 49.96875,37.9650485 50.6796875,36.9553398 C51.1875,35.9456311 51.6953125,34.9359223 51.6953125,34.9359223 L52,33.1184466 C52,33.1184466 50.171875,35.1378641 49.6640625,36.1475728 C49.15625,37.2582524 48.34375,38.4699029 47.8359375,39.2776699 C46.8203125,40.5902913 44.484375,42.9126214 41.3359375,44.2252427 C37.6796875,46.0427184 38.6953125,45.5378641 35.34375,46.5475728 C33.8203125,46.7495146 31.6875,47.2543689 30.1640625,47.2543689 C29.3515625,47.2543689 28.640625,47.2543689 27.828125,47.2543689 L27.3203125,41.3980583 C27.828125,41.0951456 28.84375,41.0951456 29.65625,40.792233 C30.9765625,40.2873786 32.5,40.0854369 34.0234375,39.5805825 C37.4765625,38.4699029 41.3359375,35.1378641 44.484375,32.3106796 C47.53125,29.4834951 48.34375,26.8582524 49.96875,22.2135922 C51.4921875,17.568932 50.984375,14.7417476 50.6796875,12.9242718 C50.6796875,10.9048544 49.96875,6.96699029 49.96875,5.14951456 C49.96875,4.13980583 49.359375,2.82718447 48.8515625,1.81747573 C48.6484375,1.31262136 48.34375,0.80776699 48.34375,0.504854369 C48.34375,0.302912621 48.140625,0 48.140625,0 Z M1.015625,45.5378641 L0.5078125,46.7495146 C0.5078125,46.7495146 5.484375,48.8699029 7.0078125,49.3747573 C7.515625,49.6776699 8.328125,49.8796117 9.6484375,50.1825243 C10.6640625,50.384466 12.1875,50.6873786 13.5078125,50.8893204 C16.1484375,51.3941748 18.484375,52 18.484375,52 L21.328125,51.192233 C21.328125,51.192233 16.3515625,50.1825243 13.8125,49.6776699 C12.4921875,49.3747573 11.171875,49.0718447 10.15625,48.8699029 C9.140625,48.5669903 8.0234375,48.3650485 7.8203125,48.3650485 C5.9921875,47.2543689 1.015625,45.5378641 1.015625,45.5378641 Z" id="Shape"></path>
        </g>
    </g>
</svg>