<?xml version="1.0" encoding="UTF-8"?>
<svg width="64px" height="64px" viewBox="0 0 64 64" version="1.1" xmlns="http://www.w3.org/2000/svg" xmlns:xlink="http://www.w3.org/1999/xlink">
    <!-- Generator: Sketch 52.6 (67491) - http://www.bohemiancoding.com/sketch -->
    <title>leaves-cordate</title>
    <desc>Created with Sketch.</desc>
    <g id="leaves-cordate" stroke="none" stroke-width="1" fill="none" fill-rule="evenodd">
        <g id="icon-leaves-cordate" transform="translate(6.000000, 14.000000)" fill="#000000">
            <path d="M51.796875,18.3509749 C51.796875,18.3509749 43.265625,18.8523677 41.9453125,18.551532 C40.421875,18.3509749 38.796875,18.0501393 39.1015625,17.5487465 C39.609375,17.0473538 44.28125,10.8300836 44.28125,8.82451253 C44.28125,6.71866295 40.1171875,-0.401114206 29.453125,0.100278552 C18.7890625,0.601671309 14.9296875,2.40668524 10.765625,8.82451253 C7.921875,13.1364903 -0.203125,18.8523677 0.1015625,19.0529248 C0.40625,19.5543175 10.765625,26.7743733 14.1171875,30.5849582 C15.9453125,32.6908078 25.59375,36 32.296875,36 C37.578125,36 42.453125,31.3871866 42.25,27.7771588 C41.9453125,24.4679666 38.0859375,20.0557103 38.796875,20.356546 C39.609375,20.6573816 44.7890625,20.0557103 46.6171875,20.6573816 C48.4453125,21.1587744 51.2890625,22.9637883 51.796875,22.6629526 C52.40625,22.1615599 50.578125,20.6573816 50.78125,20.0557103 C51.0859375,19.5543175 52.1015625,18.551532 51.796875,18.3509749 Z" id="Path"></path>
        </g>
    </g>
</svg>