<?xml version="1.0" encoding="UTF-8"?>
<svg width="64px" height="64px" viewBox="0 0 64 64" version="1.1" xmlns="http://www.w3.org/2000/svg" xmlns:xlink="http://www.w3.org/1999/xlink">
    <!-- Generator: Sketch 52.6 (67491) - http://www.bohemiancoding.com/sketch -->
    <title>leaves-pinnate-24</title>
    <desc>Created with Sketch.</desc>
    <g id="leaves-pinnate-24" stroke="none" stroke-width="1" fill="none" fill-rule="evenodd">
        <g id="icon-leaves-pinnate-24" transform="translate(6.000000, 17.000000)" fill="#000000">
            <path d="M51.5945419,15.2922078 C49.5672515,15.2922078 35.0721248,15.7792208 35.0721248,15.7792208 C34.7680312,15.487013 34.7680312,14.512987 35.0721248,13.7337662 C39.4307992,12.4675325 36.8966862,5.55194805 33.2475634,2.82467532 C31.625731,5.06493506 28.7875244,9.74025974 34.4639376,14.025974 L34.4639376,15.487013 L26.7602339,15.2922078 C26.2534113,14.2207792 26.2534113,13.7337662 26.2534113,13.0519481 C31.4230019,11.0064935 28.5847953,3.31168831 23.1111111,0.292207792 C21.7933723,1.75324675 17.1306043,8.47402597 25.6452242,13.538961 C25.9493177,13.7337662 25.9493177,14.2207792 25.6452242,15 L17.9415205,14.512987 C17.4346979,14.025974 17.1306043,13.2467532 16.8265107,12.2727273 C20.7797271,4.77272727 14.4951267,1.55844156 11.9610136,0 C8.81871345,3.50649351 10.3391813,12.7597403 16.3196881,12.4675325 L17.1306043,14.2207792 L13.4814815,14.7077922 C9.12280702,9.05844156 3.14230019,11.7857143 0,14.512987 C2.33138402,18.2142857 11.6569201,20.7467532 13.2787524,15.487013 L16.6237817,15.487013 L16.1169591,17.5324675 C8.51461988,18.5064935 8.51461988,24.4480519 9.32553606,28.4415584 C12.9746589,28.4415584 20.7797271,23.1818182 16.6237817,17.7272727 C17.1306043,16.9480519 17.4346979,15.974026 18.1442495,15.7792208 L25.6452242,15.974026 C26.2534113,16.7532468 25.6452242,17.5324675 25.1384016,18.0194805 C18.1442495,19.4805195 19.4619883,26.9805195 20.4756335,30 C24.1247563,28.9285714 30.9161793,22.2077922 25.9493177,18.2142857 C26.2534113,17.5324675 26.4561404,16.7532468 26.962963,16.2662338 L34.7680312,16.2662338 L34.7680312,17.5324675 C29.0916179,20.2597403 31.1189084,26.2012987 33.2475634,28.9285714 C35.7816764,27.4675325 40.9512671,19.9675325 35.2748538,17.5324675 C35.2748538,16.9480519 35.2748538,16.7532468 35.5789474,16.2662338 C35.5789474,16.2662338 49.2631579,15.974026 51.8986355,16.461039 C51.8986355,16.9480519 52.202729,15.2922078 51.5945419,15.2922078 Z" id="Path"></path>
        </g>
    </g>
</svg>