<?xml version="1.0" encoding="UTF-8"?>
<svg width="64px" height="64px" viewBox="0 0 64 64" version="1.1" xmlns="http://www.w3.org/2000/svg" xmlns:xlink="http://www.w3.org/1999/xlink">
    <!-- Generator: Sketch 52.6 (67491) - http://www.bohemiancoding.com/sketch -->
    <title>leaves-acicular</title>
    <desc>Created with Sketch.</desc>
    <g id="leaves-acicular" stroke="none" stroke-width="1" fill="none" fill-rule="evenodd">
        <g id="icon-leaves-acicular" transform="translate(6.000000, 31.000000)" fill="#000000">
            <path d="M51.4921875,0.787878788 C51.4921875,0.787878788 51.6953125,0.909090909 51.6953125,1.09090909 C51.6953125,1.27272727 50.6796875,0.909090909 47.328125,1.09090909 C45.1953125,1.09090909 37.4765625,2 31.6875,2 C26,2 16.1484375,1.27272727 8.0234375,1.09090909 C0,1.09090909 0,1.09090909 0,1.09090909 C0,1.09090909 19.1953125,0 28.84375,0 C38.4921875,0 42.3515625,0.606060606 46.3125,0.787878788 C49.96875,0.787878788 52,0.303030303 52,0.484848485 C52,0.606060606 51.4921875,0.787878788 51.4921875,0.787878788 Z" id="Path"></path>
        </g>
    </g>
</svg>