<?xml version="1.0" encoding="UTF-8"?>
<svg width="64px" height="64px" viewBox="0 0 64 64" version="1.1" xmlns="http://www.w3.org/2000/svg" xmlns:xlink="http://www.w3.org/1999/xlink">
    <!-- Generator: Sketch 52.6 (67491) - http://www.bohemiancoding.com/sketch -->
    <title>leaves-acuminate</title>
    <desc>Created with Sketch.</desc>
    <g id="leaves-acuminate" stroke="none" stroke-width="1" fill="none" fill-rule="evenodd">
        <g id="icon-leaves-acuminate" transform="translate(3.000000, 23.000000)" fill="#000000">
            <path d="M0,9.33333333 C0,9.11111111 12.6525097,7.88888889 19.4826255,5.66666667 C26.3127413,3.33333333 29.5598456,0.222222222 36.3899614,0 C43.2200772,0 47.2509653,3.33333333 48.1467181,4.55555556 C49.042471,5.66666667 50.1621622,7.88888889 52.4015444,7.88888889 C54.976834,7.88888889 56.2084942,6.77777778 56.7683398,6.55555556 C56.992278,6.22222222 58.2239382,6.55555556 57.8880309,6.55555556 C57.8880309,6.77777778 56.7683398,7.33333333 56.7683398,7.88888889 C56.7683398,8.44444444 57.8880309,9.33333333 57.5521236,9.33333333 C57.3281853,9.33333333 54.1930502,8.77777778 52.96139,8.77777778 C51.0579151,8.77777778 49.8262548,8.77777778 49.2664093,11.3333333 C48.4826255,14.2222222 47.027027,17.5555556 37.5096525,17.8888889 C28.1042471,18.1111111 28.3281853,15.5555556 19.1467181,12.7777778 C10.6370656,9.66666667 0,9.88888889 0,9.33333333 Z" id="Path"></path>
        </g>
    </g>
</svg>