<?xml version="1.0" encoding="UTF-8"?>
<svg width="64px" height="64px" viewBox="0 0 64 64" version="1.1" xmlns="http://www.w3.org/2000/svg" xmlns:xlink="http://www.w3.org/1999/xlink">
    <!-- Generator: Sketch 52.6 (67491) - http://www.bohemiancoding.com/sketch -->
    <title>leaves-lobed</title>
    <desc>Created with Sketch.</desc>
    <g id="leaves-lobed" stroke="none" stroke-width="1" fill="none" fill-rule="evenodd">
        <g id="icon-leaves-lobed" transform="translate(6.000000, 13.000000)" fill="#000000">
            <path d="M51.8982387,24.5585106 C52.2035225,24.5585106 51.6947162,24.0531915 51.6947162,23.5478723 C51.6947162,22.9414894 52.2035225,22.7393617 51.8982387,22.7393617 C50.6771037,22.7393617 42.5362035,23.5478723 41.518591,23.2446809 C40.5009785,22.9414894 38.1604697,20.4148936 38.1604697,19.1010638 C38.1604697,17.5851064 39.4833659,12.3297872 39.4833659,11.3191489 C39.4833659,10.3085106 36.5322896,6.16489362 35.0058708,6.16489362 C33.4794521,6.16489362 31.1389432,9.5 31.3424658,11.1170213 C31.3424658,12.6329787 34.1917808,19.1010638 33.6829746,19.4042553 C33.1741683,19.606383 30.630137,19.606383 29.5107632,18.0904255 C28.7984344,16.4734043 28.1878669,17.2819149 28.1878669,14.1489362 C28.1878669,11.1170213 29.0019569,6.97340426 27.1702544,5.15425532 C25.6438356,3.33510638 20.962818,0.20212766 20.4540117,0 C19.9452055,0 18.1135029,6.16489362 18.3170254,7.98404255 C18.3170254,9.80319149 18.8258317,11.8244681 21.1663405,13.9468085 C23.5068493,15.9680851 25.1350294,17.0797872 24.1174168,17.787234 C23.3033268,18.5957447 22.2857143,18.5957447 21.1663405,18.2925532 C20.148728,18.2925532 16.9941292,14.4521277 13.6360078,14.6542553 C10.2778865,14.9574468 0.40704501,18.2925532 0.101761252,19.4042553 C-0.203522505,20.4148936 2.95107632,24.7606383 4.2739726,25.5691489 C5.59686888,26.3776596 11.295499,26.3776596 13.1272016,25.5691489 C14.9589041,24.7606383 18.3170254,23.2446809 19.1311155,23.2446809 C19.9452055,23.2446809 20.962818,24.2553191 20.4540117,24.5585106 C19.9452055,25.0638298 14.4500978,30.0159574 13.9412916,32.037234 C13.4324853,34.0585106 12.6183953,37.1914894 13.4324853,37.6968085 C14.1448141,38.2021277 18.8258317,38.2021277 21.6751468,35.6755319 C24.8297456,32.8457447 29.816047,25.8723404 31.3424658,25.8723404 C32.9706458,25.8723404 33.4794521,26.8829787 32.9706458,27.0851064 C32.3600783,27.3882979 29.3072407,30.7234043 29.3072407,32.5425532 C29.3072407,34.3617021 30.8336595,38 31.851272,38 C32.9706458,38 36.3287671,33.5531915 36.8375734,32.8457447 C37.3463796,32.037234 37.8551859,25.2659574 40.5009785,24.7606383 C42.0273973,24.2553191 49.3542074,24.0531915 51.8982387,24.5585106 Z" id="Path"></path>
        </g>
    </g>
</svg>