<?xml version="1.0" encoding="UTF-8"?>
<svg width="64px" height="64px" viewBox="0 0 64 64" version="1.1" xmlns="http://www.w3.org/2000/svg" xmlns:xlink="http://www.w3.org/1999/xlink">
    <!-- Generator: Sketch 52.6 (67491) - http://www.bohemiancoding.com/sketch -->
    <title>leaves-rotate</title>
    <desc>Created with Sketch.</desc>
    <g id="leaves-rotate" stroke="none" stroke-width="1" fill="none" fill-rule="evenodd">
        <g id="icon-leaves-rotate" transform="translate(6.000000, 5.000000)" fill="#000000">
            <path d="M0.820512821,53.4777563 C0.307692308,53.4777563 0,53.1644101 0,52.9555126 C3.38461538,50.762089 7.38461538,50.0309478 10.2564103,47.3152805 C11.0769231,46.4796905 12.3076923,44.9129594 13.4358974,43.3462282 C14.1538462,41.6750484 14.974359,40.6305609 14.974359,40.4216634 C14.974359,40.4216634 14.1538462,40.4216634 13.4358974,40.6305609 C10.5641026,41.1528046 1.84615385,46.4796905 0.307692308,45.4352031 C5.23076923,42.8239845 10.7692308,40.4216634 16,38.5415861 L21.5384615,30.4990329 C18.1538462,30.7079304 14.4615385,29.9767892 11.0769231,31.0212766 C10.2564103,31.3346228 8.41025641,32.065764 7.07692308,32.5880077 C4.71794872,33.7369439 4.71794872,33.9458414 3.38461538,36.3481625 C2.87179487,37.3926499 1.33333333,41.1528046 0,40.9439072 C0.820512821,39.0638298 2.35897436,37.3926499 2.66666667,35.303675 L0,36.6615087 L0,35.8259188 C0,34.9903288 0.512820513,34.7814313 2.15384615,33.7369439 L6.87179487,31.0212766 C4.71794872,30.4990329 0.820512821,30.4990329 0.307692308,27.7833656 L0.307692308,27.0522244 C3.69230769,29.1411992 7.58974359,29.6634429 11.5897436,28.827853 C11.0769231,27.7833656 9.23076923,26.2166344 7.8974359,25.3810445 C6.05128205,23.2920696 1.84615385,25.3810445 0.307692308,23.2920696 C0.307692308,22.7698259 0.307692308,22.7698259 1.02564103,22.9787234 C2.66666667,22.9787234 5.74358974,23.8143133 7.38461538,23.5009671 C5.23076923,19.7408124 0.512820513,15.2495164 0,14.205029 C3.38461538,15.4584139 6.35897436,19.2185687 7.58974359,22.7698259 C7.8974359,23.8143133 8.71794872,24.8588008 8.92307692,25.172147 L12.9230769,28.827853 C14.4615385,28.6189555 21.5384615,29.4545455 21.2307692,28.3056093 C18.6666667,23.5009671 16,19.2185687 12.6153846,15.2495164 C10.2564103,12.5338491 9.23076923,11.8027079 7.38461538,10.967118 C6.35897436,9.92263056 4.20512821,9.08704062 2.66666667,8.25145068 C0.307692308,7.20696325 0,6.99806576 0,6.16247582 C0,5.64023211 0,5.32688588 0.307692308,5.32688588 C1.33333333,5.84912959 2.15384615,6.68471954 3.38461538,6.68471954 C4.20512821,4.59574468 3.69230769,2.08897485 4.51282051,0 C4.71794872,0 4.71794872,0.522243714 5.02564103,0.835589942 C5.74358974,2.40232108 3.69230769,6.37137331 5.02564103,7.52030948 C6.56410256,8.04255319 8.1025641,9.08704062 9.74358974,9.60928433 C9.74358974,9.60928433 9.74358974,7.52030948 9.94871795,4.80464217 C9.94871795,0.313346228 9.94871795,0 10.7692308,0.313346228 C11.5897436,0.313346228 11.5897436,0.522243714 11.5897436,5.64023211 L11.5897436,10.967118 C17.6410256,20.5764023 16,6.37137331 15.2820513,1.04448743 C15.2820513,0.313346228 15.2820513,0 15.4871795,0 C17.1282051,4.59574468 17.1282051,10.131528 16.5128205,14.4139265 C16.3076923,16.0851064 16.3076923,16.2940039 17.1282051,17.3384913 C19.4871795,20.5764023 20.7179487,24.0232108 23.0769231,27.2611219 C24.7179487,25.6943907 25.7435897,22.9787234 25.7435897,20.5764023 C25.7435897,17.3384913 24.9230769,14.7272727 24.4102564,11.8027079 C23.3846154,8.04255319 21.2307692,4.80464217 20,1.56673114 C19.4871795,0 19.4871795,0 20.2051282,0 C20.7179487,0 21.2307692,0.313346228 21.5384615,1.56673114 L24.4102564,7.20696325 C25.2307692,4.28239845 26.7692308,1.88007737 29.4358974,0.313346228 C29.6410256,0.313346228 29.9487179,0.522243714 29.9487179,0.522243714 C28.1025641,3.44680851 25.4358974,5.84912959 25.7435897,9.92263056 C25.7435897,10.6537718 26.0512821,11.8027079 26.0512821,11.8027079 C30.2564103,10.967118 32.3076923,5.32688588 33.6410256,1.88007737 C34.1538462,0.835589942 34.3589744,0 34.6666667,0 C34.974359,0 34.974359,0.522243714 34.974359,1.35783366 C33.1282051,8.25145068 29.4358974,11.4893617 26.5641026,13.0560928 C27.0769231,15.4584139 27.5897436,17.9651838 27.5897436,20.3675048 C27.7948718,22.4564797 26.7692308,24.0232108 26.2564103,25.9032882 C28.4102564,25.3810445 30.2564103,24.6499033 32.3076923,23.5009671 C33.8461538,21.4119923 35.4871795,18.696325 36.5128205,16.0851064 C37.025641,14.7272727 37.3333333,12.0116054 37.8461538,7.20696325 C38.0512821,3.44680851 38.3589744,0.522243714 38.5641026,0.313346228 C38.3589744,0.313346228 38.5641026,0 38.8717949,0 C39.1794872,0 39.1794872,0.522243714 39.1794872,1.56673114 C38.8717949,2.71566731 38.8717949,4.59574468 38.5641026,5.84912959 C38.3589744,8.25145068 38.3589744,8.25145068 39.1794872,8.04255319 C42.2564103,7.20696325 48.6153846,6.99806576 50.974359,3.23791103 C50.974359,2.9245648 51.1794872,2.9245648 51.1794872,2.9245648 C51.4871795,2.9245648 51.4871795,3.23791103 51.4871795,3.44680851 C48.8205128,7.72920696 42.5641026,8.25145068 38.3589744,9.92263056 C37.8461538,17.6518375 36,19.7408124 33.6410256,23.2920696 C36.5128205,22.1431335 39.6923077,22.7698259 42.2564103,21.6208897 L46.7692308,18.1740812 C46.2564103,13.8916828 47.7948718,9.60928433 51.1794872,6.99806576 C51.1794872,6.99806576 51.4871795,7.20696325 51.4871795,7.52030948 C48.3076923,10.6537718 47.4871795,13.8916828 47.7948718,16.8162476 L51.4871795,13.0560928 L51.4871795,14.205029 C51.4871795,14.9361702 50.974359,15.7717602 49.1282051,17.9651838 L43.8974359,22.9787234 C46.2564103,23.8143133 48.3076923,24.3365571 50.1538462,25.9032882 C51.1794872,27.0522244 51.4871795,27.5744681 51.4871795,28.6189555 L51.4871795,29.9767892 C48.6153846,25.9032882 43.3846154,24.0232108 38.5641026,24.6499033 C40.2051282,25.6943907 45.9487179,29.1411992 49.1282051,30.7079304 C50.1538462,31.3346228 51.1794872,32.065764 51.1794872,32.065764 C51.1794872,32.3791103 50.974359,32.3791103 49.9487179,32.065764 C43.3846154,29.1411992 39.3846154,23.8143133 31.4871795,26.2166344 C29.9487179,26.7388781 28.1025641,27.5744681 27.0769231,28.0967118 C25.4358974,28.827853 25.4358974,28.827853 26.5641026,28.827853 C29.4358974,29.9767892 32.3076923,30.7079304 35.1794872,32.901354 C38.0512821,32.5880077 40.9230769,32.065764 43.8974359,32.065764 C46.4615385,32.3791103 49.6410256,33.4235977 51.4871795,35.5125725 C51.4871795,35.8259188 51.4871795,36.139265 51.1794872,36.139265 C48.8205128,34.7814313 46.4615385,33.4235977 43.8974359,33.1102515 C41.2307692,33.4235977 38.5641026,32.901354 36.2051282,33.9458414 C36.2051282,34.2591876 37.025641,34.7814313 37.8461538,35.303675 C38.5641026,35.8259188 40.2051282,36.3481625 42.0512821,36.8704062 C44.9230769,37.3926499 47.4871795,38.5415861 50.1538462,39.5860735 C51.1794872,40.1083172 51.6923077,40.4216634 51.6923077,40.9439072 C51.6923077,41.1528046 51.4871795,41.6750484 51.4871795,41.6750484 C48.6153846,40.1083172 47.7948718,40.1083172 43.0769231,39.0638298 L41.5384615,38.7504836 C43.8974359,40.6305609 44.6153846,43.868472 47.4871795,45.2263056 C48.6153846,45.7485493 49.6410256,46.270793 50.6666667,47.8375242 C51.4871795,48.8820116 52,50.0309478 52,50.0309478 C51.6923077,50.2398453 50.974359,49.5087041 50.1538462,48.3597679 C49.3333333,47.6286267 47.7948718,45.7485493 46.974359,46.270793 C47.7948718,48.6731141 48.8205128,51.3887814 49.3333333,53.7911025 C49.3333333,54 49.1282051,54 48.6153846,54 C45.9487179,45.2263056 41.7435897,36.6615087 25.4358974,31.0212766 C25.7435897,35.303675 26.2564103,40.1083172 30.4615385,41.6750484 C31.2820513,41.9883946 32.6153846,42.8239845 33.3333333,43.5551257 C36.8205128,46.4796905 41.7435897,48.3597679 43.8974359,52.4332689 C44.1025641,52.9555126 44.1025641,53.7911025 44.1025641,53.7911025 C43.8974359,54 43.5897436,53.7911025 43.3846154,53.1644101 C41.5384615,50.5531915 39.1794872,48.3597679 36.5128205,47.106383 C37.025641,48.8820116 38.0512821,50.762089 39.1794872,52.1199226 C39.6923077,52.6421663 39.8974359,53.4777563 39.6923077,53.4777563 C39.3846154,53.4777563 38.8717949,53.1644101 38.3589744,52.4332689 C36.5128205,50.0309478 35.4871795,47.106383 33.6410256,44.7040619 C32.3076923,43.3462282 30.7692308,42.5106383 29.1282051,41.6750484 C28.4102564,41.4661509 28.4102564,41.4661509 28.9230769,43.868472 C29.1282051,45.2263056 29.9487179,46.7930368 30.4615385,47.6286267 C31.7948718,49.7176015 33.8461538,51.0754352 34.974359,53.1644101 C34.974359,53.4777563 34.6666667,53.4777563 34.1538462,53.4777563 L28.9230769,48.3597679 C28.1025641,50.5531915 26.7692308,53.1644101 24.4102564,53.4777563 C23.8974359,53.4777563 23.3846154,53.1644101 23.3846154,53.1644101 C25.4358974,50.762089 27.2820513,49.5087041 27.2820513,45.9574468 C26.0512821,42.1972921 24.7179487,34.7814313 23.0769231,31.5435203 C21.025641,36.3481625 16.5128205,39.794971 15.2820513,44.7040619 C14.1538462,45.9574468 15.2820513,49.5087041 17.3333333,53.4777563 L16.3076923,53.4777563 C14.974359,51.5976789 13.6410256,50.2398453 13.1282051,46.270793 C9.94871795,50.2398453 5.53846154,52.4332689 0.820512821,53.4777563 Z" id="Path"></path>
        </g>
    </g>
</svg>