<?xml version="1.0" encoding="UTF-8"?>
<svg width="64px" height="64px" viewBox="0 0 64 64" version="1.1" xmlns="http://www.w3.org/2000/svg" xmlns:xlink="http://www.w3.org/1999/xlink">
    <!-- Generator: Sketch 52.6 (67491) - http://www.bohemiancoding.com/sketch -->
    <title>leaves-ovate</title>
    <desc>Created with Sketch.</desc>
    <g id="leaves-ovate" stroke="none" stroke-width="1" fill="none" fill-rule="evenodd">
        <g id="icon-leaves-ovate" transform="translate(6.000000, 20.000000)" fill="#000000">
            <path d="M51.5881188,13.9746835 C51.5881188,13.9746835 50.3524752,13.2658228 50.5584158,12.4556962 C50.8673267,11.6455696 52.1029703,10.6329114 51.8970297,10.6329114 C51.5881188,10.4303797 50.3524752,10.6329114 49.7346535,10.6329114 C49.5287129,10.9367089 47.6752475,12.7594937 44.9980198,12.7594937 C42.4237624,12.7594937 41.9089109,12.4556962 41.6,11.9493671 C41.6,11.443038 39.2316832,0.303797468 26.5663366,0 C17.0930693,0 0,6.78481013 0,12.2531646 C0.205940594,18.7341772 17.6079208,24.1012658 26.360396,23.8987342 C38.7168317,23.5949367 41.2910891,15.0886076 41.2910891,15.0886076 C41.2910891,15.0886076 41.9089109,14.278481 42.629703,14.278481 C43.4534653,14.278481 47.8811881,14.278481 49.0138614,14.5822785 C50.0435644,14.7848101 51.0732673,14.7848101 51.3821782,14.5822785 C51.5881188,14.278481 51.5881188,13.9746835 51.5881188,13.9746835 Z" id="Path"></path>
        </g>
    </g>
</svg>