<?xml version="1.0" encoding="UTF-8"?>
<svg width="64px" height="64px" viewBox="0 0 64 64" version="1.1" xmlns="http://www.w3.org/2000/svg" xmlns:xlink="http://www.w3.org/1999/xlink">
    <!-- Generator: Sketch 52.6 (67491) - http://www.bohemiancoding.com/sketch -->
    <title>leaves-serrate</title>
    <desc>Created with Sketch.</desc>
    <g id="leaves-serrate" stroke="none" stroke-width="1" fill="none" fill-rule="evenodd">
        <g id="icon-leaves-serrate" transform="translate(6.000000, 16.000000)" fill="#000000">
            <path d="M0,32 L52,32 L51.6953125,2.53465347 C48.8515625,3.06270627 42.859375,6.33663366 42.3515625,6.33663366 C41.3359375,6.33663366 42.1484375,0.105610561 41.640625,0.105610561 C38.6953125,-0.422442244 32.1953125,8.76567657 31.484375,8.76567657 C30.46875,8.76567657 29.65625,4.11881188 30.1640625,3.90759076 C30.671875,3.37953795 27.5234375,4.11881188 25.1875,6.54785479 C22.34375,8.97689769 20.0078125,13.3069307 19.5,13.3069307 C18.6875,13.3069307 17.9765625,8.44884488 17.9765625,8.44884488 C12.6953125,9.82178218 8.8359375,19.5379538 8.328125,19.3267327 C7.3125,19.3267327 7.0078125,14.9966997 7.3125,14.9966997 C4.1640625,16.5808581 1.3203125,19.5379538 0,24.7128713 L0,32 Z" id="Path"></path>
        </g>
    </g>
</svg>