<?xml version="1.0" encoding="UTF-8"?>
<svg width="64px" height="64px" viewBox="0 0 64 64" version="1.1" xmlns="http://www.w3.org/2000/svg" xmlns:xlink="http://www.w3.org/1999/xlink">
    <!-- Generator: Sketch 52.6 (67491) - http://www.bohemiancoding.com/sketch -->
    <title>leaves-bipinnate</title>
    <desc>Created with Sketch.</desc>
    <g id="leaves-bipinnate" stroke="none" stroke-width="1" fill="none" fill-rule="evenodd">
        <g id="icon-leaves-bipinnate" transform="translate(6.000000, 16.000000)" fill="#000000" fill-rule="nonzero">
            <path d="M50.2,13.9 C50.2,13.9 49.4,14.6 47.6,14.9 C46.8,15.1 39.9,15.1 34,15.4 C34,15.1 34,14.9 33.8,14.4 C34.3,14.4 34.6,14.4 34.6,14.4 C34.8,14.4 35.3,14.9 36.4,14.9 C37.4,14.9 39.7,13.9 39.7,13.9 C39.7,13.9 37.9,13.3 36.6,13.3 C35.3,13.3 35.1,13.9 34.8,14.1 C34.8,14.1 34.3,14.1 33.8,14.1 C33.8,14.1 33.8,13.9 33.8,13.9 C33.8,13.6 33.8,13.1 33.8,12.6 C34,12.6 34.6,12.6 34.6,12.8 C34.8,12.8 35.1,13.1 36.1,13.3 C37.1,13.3 39.2,12.6 39.2,12.3 C39.2,12.3 37.6,11.8 36.6,11.8 C35.6,11.8 34.6,12.6 34.6,12.6 C34.6,12.6 34.3,12.6 34,12.6 C34,12.1 34,11.3 34,10.8 C34.6,10.8 34.8,10.8 34.8,10.8 C34.8,10.8 35.6,11.3 36.4,11.3 C37.1,11.3 39.4,10.3 39.4,10.3 C39.4,10.3 38.1,9.5 36.9,9.8 C35.8,9.8 34.8,10.5 34.8,10.5 C34.8,10.5 34.3,10.5 34,10.5 C34,9.8 34,9.2 34,8.7 C34.3,8.7 34.8,8.7 34.8,8.7 C34.8,8.7 35.1,9.2 36.4,9.2 C37.6,9.2 39.4,8.2 39.4,8.2 C39.4,8.2 37.6,7.7 36.9,7.7 C36.1,7.7 35.1,8.5 34.8,8.5 C34.8,8.5 34.6,8.5 34,8.5 C34,8.2 34,8 34,8 C34,7.7 34,7.5 34,7.2 L34.8,7.2 C34.8,7.2 35.6,7.7 36.6,7.7 C37.6,7.7 39.4,6.4 39.4,6.4 C39.4,6.4 37.6,5.9 36.6,6.2 C35.6,6.4 34.8,7.2 34.8,7.2 L34,7.2 C34,6.7 34,6.4 34,5.9 L34.8,5.7 C34.8,5.7 35.6,6.2 36.1,5.9 C36.6,5.7 38.1,5.4 38.7,4.9 C39.2,4.4 39.4,4.1 39.4,4.1 C39.4,4.1 37.6,3.9 36.6,4.1 C35.6,4.4 34.8,5.4 34.8,5.4 L34,5.7 C34,5.1 34,4.9 34,4.6 L34.8,4.1 C34.8,4.1 36.1,3.9 37.1,3.1 C38.1,2.3 38.9,0.8 38.9,0.5 C38.9,0.5 37.6,0.5 36.4,1.6 C34.8,2.1 34.6,3.1 34.6,3.1 L33.8,3.6 L33.3,3.4 C33.3,3.4 33.3,2.6 32,1.6 C30.7,0.5 29.2,0 29.2,0 C29.2,0 29.4,1.3 31,2.6 C32.5,3.9 33,3.6 33,3.6 L33.5,3.9 C33.5,4.1 33.5,4.4 33.5,4.9 L33,4.9 C33,4.9 32.8,4.4 31.7,3.6 C30.7,2.8 28.7,2.6 28.7,2.6 C28.7,2.6 29.4,3.9 30.5,4.4 C31.5,5.1 32.8,5.4 32.8,5.4 C32.8,5.4 33.3,5.4 33.5,5.4 C33.5,5.9 33.5,6.2 33.5,6.7 L32.8,6.7 C32.8,6.7 32.5,5.9 31.2,5.4 C30,4.9 28.2,5.1 28.2,5.1 C28.2,5.1 28.4,6.2 30.2,6.7 C32,7.2 32.8,6.9 32.8,6.9 L33.5,6.9 C33.5,7.5 33.5,8 33.5,8.2 C33.5,8.2 33.5,8.5 33.5,8.5 C33,8.5 32.8,8.5 32.8,8.5 C32.8,8.5 32,7.5 30.7,7.5 C29.2,7.5 28.4,7.7 28.4,7.7 C28.4,7.7 29.2,9 31,9 C32.8,9 33,8.7 33,8.7 C33,8.7 33.3,8.7 33.8,8.7 C33.8,9.2 33.8,10 33.8,10.5 C33.5,10.5 33.3,10.5 33.3,10.5 C33,10.3 32.5,9.8 31.5,9.8 C30.5,9.8 28.4,10 28.4,10 C28.4,10 29.4,10.8 30.7,11 C31.7,11.3 33,10.8 33,10.8 C33,10.8 33.3,10.8 33.5,10.8 C33.5,11.3 33.5,12.1 33.5,12.6 L32.8,12.3 C32.8,12.3 32.3,11.8 31,11.5 C29.7,11.3 28.2,11.8 28.2,11.8 C28.2,11.8 29.2,12.8 30.7,12.8 C32.3,13.1 32.8,12.6 32.8,12.6 C32.8,12.6 33,12.6 33.5,12.6 C33.5,12.8 33.5,13.3 33.5,13.3 C33.5,13.6 33.5,13.9 33.5,14.1 C33.3,14.1 33,14.1 33,14.1 C32.8,14.1 31.5,13.3 30.5,13.3 C29.7,13.3 28.4,13.6 27.9,13.9 C27.6,13.9 25.9,13.3 24.6,13.6 C23.3,13.6 23.3,14.1 23,14.4 C23,14.4 22.5,14.4 22,14.4 C22,14.4 22,14.4 22,14.1 C22,14.1 21.8,13.6 21.5,13.3 C21.8,13.3 22.3,13.3 22.3,13.3 C22.5,13.3 22.8,13.6 23.8,13.6 C24.8,13.6 26.6,12.6 26.6,12.6 C26.6,12.6 24.8,12.1 23.8,12.3 C22.8,12.3 22,13.1 22,13.1 C22,13.1 21.8,13.1 21.5,13.1 C21.2,12.6 21,12.1 21,11.5 C21.5,11.5 21.8,11.5 21.8,11.5 C21.8,11.5 22.8,12.1 23.6,12.1 C24.3,12.1 26.1,11 26.1,11 C26.1,11 24.6,10.5 23.6,10.5 C22.5,10.5 22,11.3 21.8,11.3 C21.8,11.3 21.5,11.3 21,11.3 C20.5,10.8 20.2,10 20.2,9.8 C20.5,9.8 21,9.8 21,9.8 C21.2,9.8 21.5,10.3 22.8,10.3 C24.1,10.3 25.3,9.2 25.3,9.2 C25.3,9.2 23.3,8.5 22.5,8.7 C21.8,8.7 21,9.5 20.7,9.5 C20.7,9.5 20.5,9.5 20,9.5 C20,9.2 19.7,9 19.7,9 C19.7,8.7 19.5,8.5 19.5,8.2 L20.2,8.2 C20.2,8.2 21,8.5 22,8.5 C23,8.2 24.3,6.9 24.3,6.9 C24.3,6.9 22.3,6.7 21.5,6.9 C20.5,7.2 20.2,8 20.2,8 L19.5,8 C19.2,7.5 18.9,7.2 18.9,6.7 L19.5,6.4 C19.5,6.4 20.5,6.7 21,6.7 C21.5,6.4 22.8,6.2 23,5.7 C23.3,5.4 23.6,4.9 23.6,4.9 C23.6,4.9 21.8,4.6 20.7,5.1 C20,5.4 19.5,6.2 19.5,6.2 L18.7,6.4 C18.4,5.9 18.4,5.7 18.4,5.4 L18.9,4.9 C18.9,4.9 20.2,4.6 20.7,3.9 C21.2,3.1 21.5,1.6 21.5,1.6 C21.5,1.6 20.2,1.6 19.5,2.6 C18.4,3.9 18.7,4.6 18.7,4.6 L17.9,5.1 L17.2,4.9 C17.2,4.9 16.9,4.1 15.4,3.4 C13.8,2.6 12,2.3 12,2.3 C12,2.3 12.8,3.6 14.8,4.6 C16.9,5.7 17.4,5.4 17.4,5.4 L17.9,5.4 C17.9,5.7 18.2,6.2 18.2,6.4 L17.7,6.4 C17.7,6.4 17.2,5.9 15.9,5.4 C14.6,4.9 12.3,4.6 12.3,4.6 C12.3,4.6 13.6,5.7 14.8,6.2 C16.1,6.7 17.4,6.9 17.7,6.9 C17.7,6.9 18.2,6.9 18.4,6.9 C18.7,7.2 18.7,7.7 18.9,8 L18.2,8 C18.2,8 17.7,7.5 16.1,6.9 C14.8,6.7 13.1,6.9 13.1,6.9 C13.1,6.9 13.8,8 15.6,8.2 C17.7,8.5 18.2,8.2 18.2,8.2 L18.9,8.2 C19.2,8.7 19.5,9 19.5,9.2 C19.5,9.2 19.5,9.2 19.5,9.5 C18.9,9.5 18.7,9.5 18.7,9.5 C18.7,9.5 17.4,8.7 16.1,8.7 C14.8,8.7 14.1,9.2 14.1,9.2 C14.1,9.2 15.4,10.3 17.2,10.3 C18.9,10.3 19.2,9.8 19.2,9.8 C19.2,9.8 19.5,9.8 20,9.8 C20,10 20.2,10.8 20.5,11.3 C20.2,11.3 20,11.3 19.7,11.3 C19.5,11.3 18.9,10.8 17.9,10.8 C16.9,10.8 14.8,11.3 14.8,11.3 C14.8,11.3 16.4,12.1 17.7,12.1 C18.9,12.1 19.7,11.5 20,11.5 C20,11.5 20.2,11.5 20.5,11.5 C20.7,12.1 21,12.6 21,13.1 L20.2,12.8 C20.2,12.8 19.5,12.3 18.2,12.3 C16.9,12.3 15.4,12.8 15.4,12.8 C15.4,12.8 16.6,13.6 18.4,13.6 C20,13.6 20.5,13.1 20.5,13.1 C20.5,13.1 20.7,13.1 21.2,13.1 C21.2,13.3 21.5,13.6 21.5,13.9 C21.5,14.1 21.8,14.4 21.8,14.6 C21.5,14.6 21.2,14.6 21.2,14.6 C20.7,14.6 19.5,14.1 18.4,14.1 C17.4,14.1 16.1,14.6 16.1,14.9 C16.1,14.9 18.4,15.6 19.7,15.4 C20.7,15.4 21.2,14.9 21.2,14.9 C21.2,14.9 21.8,14.9 22,14.9 C22,15.1 22.3,15.4 22.3,15.6 C19.5,15.9 16.4,16.2 14.6,16.2 C14.3,16.2 14.1,15.9 13.3,15.4 C13.1,15.1 12.8,14.9 12.3,14.6 C12.5,14.6 12.8,14.6 12.8,14.6 C13.1,14.6 13.3,14.6 13.8,14.6 C14.3,14.4 14.8,13.3 14.8,13.3 C14.8,13.3 13.6,13.3 13.1,13.6 C12.5,13.6 12.5,14.4 12.5,14.4 C12.5,14.4 12.3,14.4 12.3,14.4 C11.8,14.1 11.3,13.9 10.8,13.3 C11,13.3 11.3,13.1 11.3,13.1 C11.3,13.1 12,13.1 12.5,13.1 C12.8,13.1 13.3,11.8 13.1,11.8 C13.1,11.8 11.8,11.8 11.3,12.1 C11,12.3 11,13.1 11,13.1 C11,13.1 10.8,13.1 10.8,13.3 C10,12.8 9.5,12.3 9.2,12.1 C9.5,12.1 9.5,11.8 9.7,11.8 C9.7,11.8 10.2,12.1 11,11.8 C11.8,11.5 11.8,10.5 11.8,10.5 C11.8,10.5 10.2,10.5 9.7,10.8 C9.5,11 9.5,11.5 9.5,11.8 C9.5,11.8 9.2,11.8 9.2,12.1 C8.7,11.8 8.7,11.5 8.4,11.5 C8.2,11.5 7.9,11.3 7.7,11 L8.2,10.8 C8.2,10.8 9,10.8 9.5,10.5 C10,10.3 10,9 10,9 C10,9 8.7,9 8.2,9.5 C7.9,10 8.2,10.5 8.2,10.5 L7.7,10.8 C7.4,10.5 6.9,10.3 6.7,10 L6.9,9.8 C6.9,9.8 7.7,9.8 7.9,9.5 C7.9,9.2 8.4,8.7 8.4,8.2 C8.4,8 8.2,7.7 8.2,7.5 C8.2,7.5 6.9,7.7 6.7,8.2 C6.4,8.7 6.7,9.5 6.7,9.5 L6.4,9.8 C6.1,9.5 5.6,9.2 5.6,9 L5.6,8.5 C5.6,8.5 6.1,8 5.9,7.2 C5.6,6.7 4.9,5.4 4.9,5.4 C4.9,5.4 4.4,5.7 4.4,6.7 C4.6,7.7 5.1,8.5 5.1,8.5 L5.1,9 L4.6,9 C4.6,9 4.1,8.5 2.6,8.2 C1.3,7.7 0,7.7 0,7.7 C0,7.7 1,8.5 2.8,9 C4.6,9.5 4.6,9 4.6,9 L5.1,9 C5.4,9.2 5.6,9.2 5.9,9.8 L5.6,9.8 C5.6,9.8 5.1,9.5 3.8,9.2 C2.8,9 1.5,9.2 1.5,9.2 C1.5,9.2 2.8,9.8 3.8,10 C4.9,10.3 5.6,10 5.9,10 C5.9,10 6.1,10 6.4,10 C6.7,10.3 7.2,10.5 7.4,10.8 L7.2,11 C7.2,11 6.4,10.8 5.4,10.8 C4.4,10.8 3.6,11.3 3.6,11.3 C3.6,11.3 4.6,11.8 5.9,11.8 C7.2,11.8 7.4,11.3 7.4,11.3 L7.7,11 C8.2,11.3 8.4,11.5 8.7,11.8 C8.7,11.8 8.7,11.8 9,11.8 C8.7,11.8 8.4,12.1 8.4,12.1 C8.4,12.1 7.4,11.8 6.7,12.1 C5.6,12.6 5.6,12.8 5.6,12.8 C5.6,12.8 6.9,13.3 7.9,12.8 C9,12.3 8.7,12.1 8.7,12.1 C8.7,12.1 9,12.1 9,11.8 C9.5,12.3 10,12.8 10.5,13.3 C10.2,13.3 10.2,13.3 10,13.3 C10,13.3 9.2,13.1 8.4,13.3 C7.9,13.3 7.2,14.1 7.2,14.1 C7.2,14.1 8.4,14.4 9.2,14.1 C10,14.1 10.2,13.6 10.2,13.6 C10.2,13.6 10.5,13.6 10.5,13.3 C11,13.9 11.5,14.1 11.8,14.4 L11,14.4 C11,14.4 10.2,14.1 9.5,14.4 C9,14.6 8.4,15.4 8.4,15.4 C8.4,15.4 9.7,15.6 10.8,15.4 C11.8,15.1 11.5,14.6 11.5,14.6 C11.5,14.6 11.8,14.6 12,14.6 C12.3,14.9 12.5,15.1 12.8,15.1 C12.8,15.4 13.1,15.6 13.3,15.6 C13.3,15.6 13.1,15.6 13.1,15.6 C12.8,15.9 11.5,15.6 11,15.9 C10.5,16.2 9.5,16.7 9.7,16.9 C9.7,16.9 11.5,17.2 12.5,16.9 C12.8,16.9 13.3,16.9 13.8,16.9 C14.1,16.9 14.6,16.9 14.8,16.9 C14.6,17.2 14.1,17.7 13.8,17.9 C13.6,18.2 12.8,19 12,19.7 C11.8,19.7 11.8,19.5 11.8,19.5 C11.8,19.5 11.5,18.7 10.8,18.5 C10,18.2 8.7,18.5 8.7,18.5 C8.7,18.5 9.5,19.5 10.2,19.7 C10.8,20 11.5,19.7 11.8,19.7 C11.8,19.7 12,19.7 12,20 C11.5,20.5 11.3,20.8 10.8,21.3 C10.5,21 10.2,21 10.2,21 C10.2,21 10.2,20.8 9.2,20.3 C8.2,19.7 7.2,20.3 7.2,20.3 C7.2,20.3 7.4,20.8 8.2,21.3 C9.2,21 10.2,20.8 10.2,20.8 C10.2,20.8 10.5,20.8 10.8,21 C10.5,21.3 10.2,21.5 10,21.8 L9.7,21.5 C9.7,21.5 9.5,21 8.2,21 C6.9,20.8 6.1,21.3 6.1,21.3 C6.1,21.3 6.9,22 7.9,22 C9,22 9.5,21.8 9.5,21.8 L10,22 C9.7,22.3 9.5,22.6 9.2,22.8 C9,22.8 8.7,22.8 8.7,22.6 C8.7,22.6 7.7,22.3 6.9,22.3 C5.9,22.3 4.9,22.8 4.9,22.8 C4.9,22.8 6.1,23.3 7.2,23.1 C8.2,22.8 8.7,22.6 8.7,22.6 L9,22.8 C8.2,23.3 7.9,23.6 7.7,23.8 L7.2,23.8 C7.2,23.8 6.9,23.6 5.4,23.8 C3.8,24.1 2.8,24.9 2.8,24.9 C2.8,24.9 4.1,25.1 5.4,24.9 C6.7,24.6 7.2,24.1 7.2,24.1 L7.7,24.1 L7.7,24.6 C7.7,24.6 7.2,25.4 7.2,26.4 C7.2,27.4 7.9,27.9 7.9,27.9 C7.9,27.9 8.4,26.7 8.4,25.9 C8.4,25.1 7.9,24.6 7.9,24.6 L7.9,23.8 C8.2,23.6 8.2,23.6 8.7,23.1 L9,23.6 C9,23.6 9,24.3 9.2,24.9 C9.5,25.4 10.8,25.6 10.8,25.6 C10.8,25.6 11,25.4 10.8,24.9 C10.8,24.6 10.2,23.8 10.2,23.6 C10,23.3 9.2,23.3 9.2,23.3 L9,23.1 C9.2,22.8 9.5,22.6 9.7,22.3 L10.2,22.6 C10.2,22.6 10.2,23.3 10.5,23.6 C11,24.1 12.3,24.3 12.3,24.3 C12.3,24.3 12,23.1 11.5,22.6 C11,22.3 10.2,22.3 10.2,22.3 L9.7,22 C10.2,21.8 10.2,21.5 10.5,21.5 C10.5,21.5 10.8,21.3 11,21.3 C11.3,21.3 11.3,21.5 11.3,21.5 C11.3,21.5 11.5,22.3 11.8,22.6 C12.3,22.8 13.6,23.1 13.6,23.1 C13.6,23.1 13.3,21.8 12.8,21.3 C12,21 11.5,21 11.5,21.3 C11.5,21.3 11.3,21.3 11,21 C11.3,20.8 11.8,20.3 12.3,19.7 C12.5,19.7 12.5,20 12.5,20 C12.5,20 12.5,20.8 13.1,21.3 C13.6,21.5 14.6,21.8 14.6,21.8 C14.3,21.8 14.3,22 14.3,22 C14.3,22 15.1,22.6 16.6,22.6 C18.2,22.8 19.2,22.3 19.2,22.3 C19.2,22.3 19.5,22.3 20,22.3 C20,22.3 20,22.3 20,22.6 C19.7,22.8 19.7,23.1 19.5,23.6 L18.7,23.6 C18.7,23.6 18.2,23.3 16.1,23.3 C14.1,23.6 13.6,24.3 13.6,24.3 C13.6,24.3 15.1,24.9 16.6,24.6 C18.2,24.1 18.7,23.6 18.7,23.6 L19.5,23.6 C19.2,23.8 19.2,24.3 18.9,24.6 C18.7,24.6 18.2,24.6 18.2,24.6 C17.9,24.6 16.6,24.6 15.4,24.9 C14.1,25.4 13.1,26.1 13.1,26.1 C13.1,26.1 15.4,26.1 16.4,25.9 C17.7,25.4 18.2,24.9 18.2,24.9 L18.7,24.9 C18.4,25.1 18.4,25.6 18.2,25.6 L17.7,26.1 C17.7,26.1 17.2,25.9 15.1,26.7 C13.1,27.4 12.5,28.7 12.5,28.7 C12.5,28.7 14.3,28.4 15.9,27.9 C17.4,27.2 17.9,26.4 17.9,26.4 L18.7,26.4 L19.2,26.9 C19.2,26.9 18.9,27.7 20,29 C20.7,30 22,30.2 22,30.2 C22,30.2 21.8,28.7 21.2,27.9 C20.7,27.2 19.5,26.7 19.5,26.7 L18.9,25.9 C18.9,25.6 19.2,25.4 19.2,25.1 L20,25.4 C20,25.4 20.5,26.1 21.2,26.7 C22,27.2 24.1,27.2 24.1,27.2 C24.1,27.2 24.1,26.9 23.6,26.4 C23.3,25.9 22,25.4 21.5,25.1 C21,24.9 20,25.1 20,25.1 L19.5,24.9 C19.7,24.6 19.7,24.1 20,23.8 L20.7,23.8 C20.7,23.8 21.2,24.6 22,24.9 C23,25.4 24.8,25.1 24.8,25.1 C24.8,25.1 23.6,23.8 22.5,23.6 C21.5,23.3 20.7,23.6 20.7,23.6 L20,23.6 C20.2,23.3 20.2,23.1 20.2,22.8 C20.2,22.8 20.5,22.6 20.5,22.3 C20.7,22.3 21,22.3 21.2,22.3 C21.5,22.3 22,23.1 23,23.3 C23.8,23.3 25.9,23.3 25.9,23.3 C25.9,23.3 24.6,22.3 23.3,22 C22,21.8 21.5,22.3 21.5,22.3 C21.5,22.3 21.2,22.3 20.7,22.3 C21,21.8 21.2,21.3 21.5,20.8 C21.8,20.8 22.3,21 22.3,21 C22.3,21 23,21.8 24.1,22 C25.1,22.3 26.6,22 26.6,22 C26.6,22 24.8,20.8 24.1,20.8 C23.3,20.8 22.5,21 22.3,21 C22.3,21 21.8,21 21.5,21 C21.8,20.5 22,20 22,19.5 C22.3,19.5 22.5,19.5 22.5,19.5 C22.5,19.5 23.3,20.3 24.3,20.5 C25.3,20.8 27.1,20.5 27.1,20.5 C27.1,20.5 25.6,19.5 24.3,19.2 C23.3,19 22.8,19.2 22.8,19.2 C22.8,19.2 22.3,19.2 22,19.2 C22.3,18.7 22.3,18.5 22.5,17.9 C22.5,17.9 22.5,17.9 22.5,17.7 C23,17.7 23.6,17.9 23.6,17.9 C23.8,17.9 23.8,18.5 25.1,18.7 C26.4,19 28.4,18.7 28.4,18.7 C28.4,18.7 26.6,17.4 25.6,17.4 C24.6,17.2 23.8,17.7 23.6,17.7 C23.6,17.7 23,17.7 22.8,17.7 C22.8,16.7 23,16.4 23,16.2 C24.6,16.2 26.4,16.2 28.4,16.2 C29.4,16.2 31.5,16.2 33.8,16.2 C33.8,16.4 33.8,16.7 33.5,17.2 C33,17.2 32.8,17.2 32.8,17.2 C32.8,17.2 32.3,16.7 31.2,16.7 C30.2,16.7 27.9,17.4 27.9,17.7 C27.9,17.7 29.4,18.5 30.5,18.5 C31.5,18.5 32.8,17.7 33.3,17.7 C33.3,17.7 33.5,17.7 33.8,17.7 C33.8,17.9 33.8,18.2 33.5,18.5 C33.5,18.7 33.5,19 33.3,19.2 C32.8,19.2 32.5,19.2 32.5,19.2 C32.5,19.2 32,18.7 30.5,19 C28.9,19.2 27.6,20 27.6,20 C27.6,20 29.2,20.5 30.5,20.3 C31.7,20 32.3,19.5 32.3,19.5 L33.3,19.2 C33.3,19.7 33,20.3 33,21 C32.8,21 32.5,21 32.5,21 C32.5,21 31.5,20.5 30.2,20.8 C28.9,21 27.6,21.8 27.6,21.8 C27.6,21.8 29.7,22.3 30.7,22 C31.7,22 32.3,21.3 32.5,21.3 C32.5,21.3 32.8,21.3 33,21.3 C32.8,22 32.8,22.6 32.5,23.1 C32,23.1 31.7,23.1 31.7,23.1 C31.7,23.1 31.5,22.8 29.7,22.8 C27.9,22.8 26.9,24.1 26.9,24.1 C26.9,24.1 27.6,24.3 29.2,24.3 C30.7,24.3 31.7,23.6 31.7,23.6 C31.7,23.6 32,23.6 32.5,23.6 C32.5,23.6 32.5,23.8 32.5,23.8 C32.5,24.1 32.3,24.6 32.3,25.1 L31.5,25.1 C31.5,25.1 31,24.9 28.9,25.4 C27.1,25.9 26.4,26.9 26.4,26.9 C26.4,26.9 27.9,27.2 29.4,26.7 C30.7,26.1 31.2,25.4 31.2,25.4 L32,25.4 C32,25.9 31.7,26.1 31.7,26.7 C31.5,26.7 31,26.9 31,26.7 C30.7,26.7 29.4,26.9 28.4,27.7 C27.4,28.4 26.4,29.5 26.4,29.5 C26.4,29.5 28.7,29.2 29.7,28.4 C31,27.7 31.2,27.2 31.2,27.2 L31.7,27.2 C31.7,27.7 31.5,27.9 31.5,28.2 L31,28.4 C31,28.4 30.5,28.2 28.7,29.5 C26.9,30.7 26.4,32 26.4,32 C26.4,32 28.2,31.5 29.4,30.5 C31,29.5 31,28.7 31,28.7 L31.7,28.4 L32.5,29 C32.5,29 32.5,30 33.5,31 C34.6,32 35.8,32 35.8,32 C35.8,32 35.3,30.5 34.8,29.5 C34,28.7 32.8,28.4 32.8,28.4 L32.3,27.9 C32.3,27.7 32.5,27.4 32.5,26.9 L33.3,27.2 C33.3,27.2 33.8,28.2 34.8,28.4 C35.8,28.7 37.6,28.4 37.6,28.4 C37.6,28.4 37.6,27.9 37.1,27.7 C36.6,27.2 35.3,26.9 34.8,26.7 C34.3,26.4 33.3,26.9 33.3,26.9 L32.5,26.7 C32.5,26.1 32.8,25.9 32.8,25.4 L33.5,25.4 C33.5,25.4 34,26.1 35.1,26.4 C36.1,26.7 37.9,26.1 37.9,26.1 C37.9,26.1 36.4,24.9 35.3,24.9 C34.3,24.9 33.5,25.4 33.5,25.4 L32.8,25.4 C32.8,25.1 33,24.6 33,24.6 C33,24.3 33,24.3 33.3,24.1 C33.5,24.1 33.8,24.1 34,24.1 C34.3,24.1 35.1,24.9 35.8,24.9 C36.6,24.9 38.7,24.3 38.7,24.3 C38.7,24.3 37.1,23.3 35.8,23.3 C34.6,23.3 34.3,23.8 34,23.8 C34,23.8 33.8,23.8 33.3,23.8 C33.3,23.3 33.5,22.6 33.8,22 C34,22 34.6,22 34.6,22 C34.6,22 35.3,22.8 36.4,22.8 C37.4,22.8 38.9,22.3 38.9,22.3 C38.9,22.3 36.9,21.3 36.1,21.3 C35.3,21.3 34.6,21.8 34.6,21.8 C34.6,21.8 34,21.8 33.8,21.8 C34,21.3 34,20.5 34.3,20 C34.6,20 34.8,20 34.8,20 C34.8,20 35.6,20.8 36.6,20.8 C37.6,20.8 39.4,20.3 39.4,20.3 C39.4,20.3 37.6,19.2 36.6,19.2 C35.6,19.2 35.3,19.5 35.1,19.7 C35.1,19.7 34.6,19.7 34.3,20 C34.3,19.5 34.6,19 34.6,18.7 C34.6,18.7 34.6,18.5 34.6,18.5 C35.1,18.5 35.6,18.5 35.6,18.5 C35.8,18.5 35.8,19 37.1,19.2 C38.4,19.2 40.4,18.7 40.4,18.7 C40.4,18.7 38.4,17.7 37.4,17.7 C36.4,17.7 35.6,18.2 35.6,18.2 C35.6,18.2 35.1,18.2 34.8,18.2 C35.1,17.7 35.1,17.2 35.3,17.2 C39.7,17.2 45.1,17.2 46.6,17.4 C49.2,17.4 51.7,16.9 52,16.7 C51.5,14.9 50.7,13.6 50.2,13.9 Z M13.1,16.4 C13.1,16.2 13.3,16.2 13.6,15.9 C13.8,16.2 13.8,16.2 14.1,16.4 C13.3,16.4 13.1,16.4 13.1,16.4 Z M20.2,22 C19.7,22 19.5,21.8 19.5,21.8 C19.5,21.8 19.2,21.5 17.4,21.3 C16.1,21 15.4,21.5 14.8,21.8 C14.8,21.8 14.3,20.5 13.8,20.3 C13.6,19.7 12.8,20 12.8,20 C12.8,20 12.5,20 12.3,19.7 C12.8,19.2 13.1,19 13.6,18.5 C13.6,18.5 13.8,18.5 13.8,18.5 C13.8,18.5 13.8,19.2 14.6,19.7 C15.1,20 16.4,20.3 16.4,20.3 C16.9,20.5 17.9,20.8 18.4,20.8 C19.5,20.8 20.2,20.5 20.5,20.3 C20.5,20.3 20.7,20.3 21,20.3 C20.7,21 20.5,21.5 20.2,22 Z M21.8,17.9 C21.8,18.2 21.5,18.5 21.5,18.7 C21,18.7 20.7,18.7 20.7,18.7 C20.7,18.7 20.5,17.9 18.9,17.9 C17.4,17.9 16.1,18.5 16.1,18.5 C16.1,18.5 17.7,19 18.7,19.2 C20,19.2 20.7,19 20.7,19 L21.8,19 C21.5,19.5 21.5,20 21.2,20.5 C21,20.5 20.7,20.5 20.7,20.5 C20.7,20.5 19.7,20 18.4,20 C17.7,20 16.9,20.3 16.4,20.3 C16.1,20 15.9,19.5 15.6,19.2 C14.6,18.5 14.1,18.5 14.1,18.5 C14.1,18.5 13.8,18.5 13.6,18.2 C13.8,17.9 14.1,17.7 14.3,17.4 C15.1,16.7 15.4,16.4 15.6,16.4 C15.9,16.4 16.4,16.4 16.6,16.4 C17.2,16.7 17.9,16.9 18.7,17.2 C19.7,17.4 21,16.9 21.5,16.9 C21.5,16.9 21.8,16.9 22,16.9 C22,17.4 22,17.7 21.8,17.9 Z M22.3,16.9 C21.8,16.9 21.5,16.7 21.5,16.7 C21.5,16.7 21.2,16.4 20.7,16.2 C21.2,16.2 22,16.2 22.5,16.2 C22.3,16.4 22.3,16.7 22.3,16.9 Z M25.6,15.6 C24.8,15.6 23.8,15.6 22.8,15.6 C22.8,15.4 22.5,15.1 22.3,14.9 C22.8,14.9 23,14.9 23,14.9 C23.3,14.9 24.1,15.4 25.1,15.4 C25.9,15.4 27.4,14.6 27.9,14.4 C27.9,14.6 30,15.4 31,15.4 C32,15.4 32.5,14.9 32.8,14.9 C32.8,14.9 33.3,14.9 33.5,14.9 C33.5,15.1 33.5,15.6 33.5,15.9 C30.2,15.6 27.1,15.6 25.6,15.6 Z" id="Shape"></path>
        </g>
    </g>
</svg>