<?xml version="1.0" encoding="UTF-8"?>
<svg width="64px" height="64px" viewBox="0 0 64 64" version="1.1" xmlns="http://www.w3.org/2000/svg" xmlns:xlink="http://www.w3.org/1999/xlink">
    <!-- Generator: Sketch 52.6 (67491) - http://www.bohemiancoding.com/sketch -->
    <title>leaves-pinnate-43</title>
    <desc>Created with Sketch.</desc>
    <g id="leaves-pinnate-43" stroke="none" stroke-width="1" fill="none" fill-rule="evenodd">
        <g id="icon-leaves-pinnate-43" transform="translate(6.000000, 6.000000)" fill="#000000" fill-rule="nonzero">
            <path d="M19.1904762,51.4931774 C11.5555556,48.1481481 10.2142857,50.9863548 0.515873016,45.5126706 C0.206349206,45.208577 0.206349206,44.7017544 0.515873016,44.4990253 C10.5238095,50.4795322 17.4365079,47.539961 20.8412698,51.4931774 C20.8412698,51.4931774 19.8095238,51.4931774 19.1904762,51.4931774 Z M24.0396825,52 C24.0396825,52 21.8730159,52 21.8730159,51.6959064 L22.3888889,44.4990253 C14.2380952,42.877193 7.11904762,41.8635478 0.515873016,36.3898635 C0.515873016,36.1871345 0.206349206,35.3762183 0.515873016,35.3762183 C7.32539683,40.8499025 22.9047619,44.1949318 22.6984127,42.6744639 C23.2142857,40.0389864 23.7301587,37.7076023 23.7301587,35.1734893 C18.984127,33.3489279 12.8968254,30.7134503 7.84126984,28.6861598 C4.74603175,27.3684211 2.06349206,26.0506823 0.515873016,25.2397661 C0.515873016,25.037037 0.515873016,24.2261209 0.722222222,24.2261209 C7.32539683,28.0779727 10.5238095,28.6861598 12.5873016,29.3957115 C14.4444444,30.2066277 18.6746032,32.2339181 24.0396825,33.8557505 C24.2460317,31.7270955 24.0396825,27.0643275 23.7301587,25.7465887 C8.97619048,19.8674464 10.2142857,24.5302144 0.206349206,15.91423 C0.206349206,15.711501 0.206349206,15.1033138 0.515873016,15.1033138 C10.0079365,22.4015595 14.9603175,20.374269 23.4206349,24.5302144 L23.7301587,18.245614 C12.3809524,11.0487329 7.11904762,11.5555556 0,1.62183236 C0,1.41910331 0.206349206,0.912280702 0.206349206,0.912280702 C9.6984127,11.5555556 15.5793651,11.251462 23.4206349,16.4210526 C23.7301587,14.0896686 24.2460317,10.2378168 22.9047619,8.10916179 C19.5,5.77777778 13.9285714,3.95321637 11.0396825,0.40545809 C11.0396825,-0.202729045 11.8650794,0.101364522 12.0714286,0.101364522 C16.0952381,3.24366472 20.3253968,5.27095517 24.2460317,7.60233918 L24.2460317,3.24366472 C22.6984127,2.73684211 20.531746,1.92592593 19.1904762,0.912280702 C19.1904762,0.608187135 20.015873,0.912280702 20.531746,0.912280702 C21.5634921,1.11500975 24.0396825,2.43274854 24.2460317,1.92592593 C24.2460317,0.912280702 24.5555556,0.608187135 25.0714286,0.608187135 C25.2777778,0.608187135 26.1031746,0.912280702 25.7936508,1.92592593 C26.4126984,2.43274854 27.9603175,0.40545809 29.5079365,0.40545809 C30.3333333,0.912280702 26.6190476,2.73684211 25.7936508,3.24366472 C25.7936508,3.95321637 25.2777778,7.39961014 26.1031746,7.90643275 C30.8492063,6.58869396 33.531746,6.28460039 43.5396825,0.912280702 C43.8492063,0.608187135 44.8809524,0.608187135 45.0873016,0.608187135 C43.2301587,2.73684211 33.7380952,6.89278752 25.7936508,9.42690058 C25.0714286,11.7582846 25.5873016,14.0896686 25.2777778,16.2183236 C25.0714286,17.7387914 25.2777778,17.7387914 25.7936508,17.7387914 C36.1111111,16.2183236 43.8492063,7.60233918 51.484127,1.41910331 C52.2063492,0.608187135 51.6904762,1.92592593 51.6904762,2.43274854 C44.0555556,9.22417154 37.7619048,16.4210526 25.5873016,19.0565302 C25.5873016,20.8810916 25.2777778,22.4015595 25.5873016,24.2261209 C25.7936508,25.037037 25.7936508,25.037037 27.1349206,24.5302144 C34.5634921,21.5906433 46.2222222,14.5964912 51.6904762,11.5555556 C51.6904762,11.7582846 52,12.5692008 51.6904762,12.5692008 C43.0238095,17.2319688 35.5952381,22.705653 25.5873016,26.0506823 L25.5873016,34.0584795 C39.3095238,26.3547758 47.2539683,24.2261209 51.6904762,20.0701754 L51.6904762,20.8810916 C49.3174603,24.7329435 35.3888889,28.6861598 25.5873016,35.6803119 C25.5873016,38.0116959 24.5555556,40.8499025 24.2460317,42.877193 C25.7936508,42.6744639 32.7063492,39.8362573 38.7936508,36.3898635 C44.8809524,33.3489279 51.484127,30.7134503 51.484127,31.0175439 C51.484127,31.5243665 52.2063492,31.2202729 51.484127,31.7270955 C49.1111111,33.0448343 43.2301587,35.3762183 39,37.5048733 C34.7698413,39.5321637 29.5079365,42.1676413 23.7301587,44.1949318 C23.4206349,45.8167641 23.2142857,48.1481481 23.2142857,49.668616 C31.3650794,43.6881092 42.7142857,45.005848 51.1746032,39.5321637 C51.484127,39.5321637 51.484127,40.3430799 51.484127,40.545809 C46.2222222,45.5126706 30.6428571,46.8304094 24.0396825,52 Z M40.1349206,51.1890838 C39.3095238,51.1890838 37.452381,51.1890838 37.7619048,51.1890838 C46.7380952,48.8576998 47.9761905,47.337232 51.6904762,45.5126706 C51.6904762,45.208577 52,45.8167641 52,46.0194932 C49.1111111,48.6549708 43.8492063,50.9863548 40.1349206,51.1890838 Z" id="Shape"></path>
        </g>
    </g>
</svg>