<?xml version="1.0" encoding="UTF-8"?>
<svg width="64px" height="64px" viewBox="0 0 64 64" version="1.1" xmlns="http://www.w3.org/2000/svg" xmlns:xlink="http://www.w3.org/1999/xlink">
    <!-- Generator: Sketch 52.6 (67491) - http://www.bohemiancoding.com/sketch -->
    <title>leaves-tripinnate</title>
    <desc>Created with Sketch.</desc>
    <g id="leaves-tripinnate" stroke="none" stroke-width="1" fill="none" fill-rule="evenodd">
        <g id="icon-leaves-tripinnate" transform="translate(6.000000, 15.000000)" fill="#000000">
            <path d="M34.328125,17 C39.8125,16.7988166 45.1953125,16.7988166 46.515625,16.7988166 C48.6484375,16.7988166 52,16.4970414 52,16.4970414 L52,15.4911243 C52,15.4911243 44.1796875,16.1952663 38.4921875,16.1952663 C37.4765625,16.1952663 35.8515625,16.1952663 34.328125,16.1952663 C34.0234375,15.6923077 33.8203125,14.6863905 33.515625,13.6804734 C33.515625,13.3786982 33.515625,12.6745562 33.515625,11.8698225 C34.0234375,11.8698225 34.328125,11.5680473 34.8359375,11.5680473 C35.6484375,11.3668639 36.6640625,11.3668639 37.4765625,11.0650888 C37.4765625,11.3668639 37.6796875,11.3668639 37.6796875,11.5680473 C36.359375,12.8757396 38.1875,13.8816568 39.8125,13.8816568 C40.015625,12.6745562 40.5234375,11.3668639 37.984375,11.3668639 L37.6796875,10.8639053 C38.1875,10.8639053 39,10.5621302 39.8125,10.5621302 C39.8125,10.5621302 40.015625,10.5621302 40.015625,10.5621302 C40.3203125,10.8639053 40.5234375,10.8639053 40.5234375,11.0650888 C39.8125,12.8757396 41.84375,13.8816568 43.671875,13.8816568 C43.671875,12.8757396 43.671875,10.8639053 41.03125,10.8639053 C40.828125,10.5621302 40.5234375,10.5621302 40.3203125,10.3609467 C40.828125,10.3609467 41.03125,10.0591716 41.3359375,10.0591716 C43.9765625,11.5680473 45.1953125,9.75739645 46.0078125,9.25443787 C44.484375,8.24852071 42.859375,8.24852071 41.03125,9.75739645 C40.828125,9.75739645 40.3203125,9.75739645 40.015625,10.0591716 L40.3203125,9.55621302 C42.65625,8.24852071 42.3515625,6.9408284 41.03125,5.63313609 C39,6.9408284 38.6953125,8.24852071 40.015625,9.55621302 C40.015625,9.75739645 39.8125,10.0591716 39.5078125,10.3609467 C39,10.3609467 38.4921875,10.5621302 38.1875,10.5621302 C37.984375,10.5621302 37.4765625,10.5621302 37.171875,10.8639053 L37.171875,10.3609467 C38.4921875,9.55621302 39.5078125,8.75147929 37.984375,6.9408284 C35.8515625,8.24852071 35.8515625,9.25443787 36.96875,10.3609467 L36.96875,10.8639053 C35.8515625,10.8639053 35.140625,11.0650888 33.8203125,11.3668639 C34.0234375,11.0650888 33.8203125,11.3668639 33.515625,11.3668639 C33.515625,10.3609467 33.515625,9.25443787 33.3125,8.24852071 L33.8203125,8.24852071 C35.34375,8.75147929 36.6640625,8.55029586 37.4765625,6.43786982 C35.140625,5.43195266 34.328125,6.43786982 33.515625,7.74556213 L33.0078125,7.74556213 C33.0078125,6.9408284 33.0078125,6.23668639 33.0078125,5.43195266 C33.3125,5.13017751 33.515625,4.92899408 33.8203125,4.92899408 C35.8515625,5.63313609 37.171875,5.13017751 38.1875,3.1183432 C36.359375,2.31360947 34.53125,2.31360947 33.8203125,4.62721893 L33.3125,5.13017751 C33.3125,4.92899408 33.3125,4.4260355 33.3125,4.4260355 C33.3125,4.4260355 33.3125,4.12426036 33.3125,4.12426036 C34.8359375,2.31360947 34.328125,1.00591716 32.8046875,0 C31.9921875,0.804733728 30.46875,2.31360947 33.0078125,4.4260355 C33.0078125,4.62721893 33.0078125,4.92899408 33.0078125,5.43195266 C32.8046875,5.13017751 32.5,5.13017751 31.9921875,4.92899408 C31.484375,2.61538462 29.1484375,3.31952663 27.828125,3.31952663 C28.3359375,5.13017751 30.1640625,6.43786982 31.9921875,5.43195266 C32.1953125,5.43195266 32.5,5.63313609 32.8046875,5.93491124 C32.8046875,6.43786982 32.8046875,7.24260355 32.8046875,8.04733728 L32.1953125,8.04733728 C31.484375,5.93491124 30.1640625,6.43786982 28.640625,7.24260355 C29.1484375,8.75147929 30.9765625,9.75739645 31.9921875,8.55029586 C32.1953125,8.55029586 32.5,8.55029586 32.8046875,8.55029586 C32.8046875,9.75739645 32.8046875,10.8639053 32.8046875,11.8698225 C31.9921875,12.0710059 31.1796875,12.0710059 30.46875,12.0710059 C29.859375,12.0710059 29.1484375,12.0710059 28.3359375,12.0710059 L28.3359375,11.5680473 C29.1484375,10.3609467 28.84375,9.25443787 26.8125,8.55029586 C25.4921875,10.3609467 26.3046875,11.0650888 27.828125,11.5680473 L27.828125,12.0710059 C27.3203125,11.5680473 26.3046875,11.3668639 26,11.3668639 C26,11.3668639 25.6953125,11.3668639 25.6953125,11.3668639 C25.4921875,11.0650888 25.1875,11.0650888 25.1875,10.8639053 C26.3046875,9.25443787 25.6953125,8.04733728 23.6640625,7.24260355 C22.6484375,8.55029586 22.34375,10.0591716 24.984375,10.8639053 L25.1875,11.3668639 C24.984375,11.3668639 24.4765625,11.3668639 24.171875,11.5680473 C22.34375,10.0591716 20.515625,10.5621302 19.1953125,11.5680473 C20.0078125,12.0710059 21.8359375,13.6804734 24.171875,11.8698225 C24.4765625,11.8698225 24.6796875,11.8698225 25.1875,12.0710059 C24.984375,12.0710059 24.6796875,12.3727811 24.4765625,12.6745562 C21.8359375,12.8757396 22.34375,14.9881657 22.34375,15.9940828 C24.4765625,15.6923077 26,14.4852071 25.1875,12.6745562 C25.1875,12.3727811 25.4921875,12.0710059 25.6953125,12.0710059 C26.5078125,12.0710059 27.3203125,12.3727811 28.03125,12.3727811 L28.03125,12.6745562 C25.6953125,12.8757396 26,14.183432 26.5078125,15.1893491 C28.03125,14.9881657 29.65625,13.6804734 28.3359375,12.6745562 C28.3359375,12.3727811 28.3359375,12.3727811 28.3359375,12.0710059 C29.1484375,12.0710059 29.859375,12.0710059 30.9765625,12.0710059 C31.6875,12.0710059 32.5,12.0710059 32.8046875,12.0710059 C32.8046875,12.3727811 32.8046875,12.8757396 32.8046875,13.1775148 C33.0078125,14.6863905 33.3125,15.9940828 33.3125,16.4970414 C26.5078125,16.4970414 16.65625,16.7988166 15.03125,16.7988166 C14.3203125,16.7988166 12.6953125,16.7988166 11.171875,16.7988166 C11.171875,15.9940828 10.6640625,14.6863905 10.15625,12.6745562 C10.96875,12.3727811 11.4765625,12.0710059 12.1875,12.0710059 C12.6953125,12.0710059 13,11.8698225 13.3046875,11.8698225 C13.3046875,11.8698225 13.5078125,12.0710059 13.5078125,12.0710059 C13,13.1775148 13.3046875,13.6804734 15.3359375,14.183432 C15.640625,13.3786982 15.84375,12.3727811 13.8125,12.0710059 L13.5078125,11.8698225 C14.015625,11.5680473 14.5234375,11.5680473 15.03125,11.3668639 C15.03125,11.3668639 15.3359375,11.3668639 15.3359375,11.3668639 C15.640625,11.3668639 15.640625,11.5680473 15.640625,11.5680473 C15.640625,13.1775148 16.3515625,13.8816568 18.1796875,13.8816568 C18.1796875,12.3727811 17.46875,11.3668639 16.1484375,11.3668639 L15.640625,11.3668639 C15.84375,11.3668639 16.1484375,11.0650888 16.3515625,11.0650888 C16.65625,11.8698225 19.1953125,11.3668639 19.5,10.3609467 C18.1796875,9.25443787 16.3515625,10.3609467 16.1484375,10.8639053 C16.1484375,10.8639053 15.84375,10.8639053 15.640625,11.0650888 L15.640625,10.8639053 C17.46875,9.75739645 16.65625,8.24852071 16.1484375,7.74556213 C14.828125,8.55029586 14.3203125,9.25443787 15.3359375,10.5621302 C15.3359375,10.8639053 15.3359375,11.0650888 15.03125,11.0650888 C14.828125,11.3668639 14.5234375,11.3668639 14.015625,11.3668639 C14.015625,11.3668639 13.8125,11.3668639 13.8125,11.3668639 L13.8125,10.8639053 C15.3359375,9.75739645 14.015625,9.05325444 13.8125,8.55029586 C12.4921875,9.55621302 12.1875,10.3609467 13.3046875,11.0650888 C13.3046875,11.0650888 13.3046875,11.3668639 13.3046875,11.5680473 C12.1875,11.8698225 11.171875,12.3727811 10.15625,12.6745562 C9.8515625,11.8698225 9.8515625,10.8639053 9.6484375,10.0591716 C9.6484375,10.0591716 9.8515625,9.75739645 9.8515625,9.75739645 C10.96875,10.5621302 11.6796875,10.3609467 12.4921875,8.24852071 C11.6796875,8.04733728 10.359375,7.44378698 9.8515625,9.25443787 L9.6484375,9.55621302 C9.34375,9.05325444 9.34375,8.24852071 9.34375,7.74556213 C9.6484375,7.44378698 9.6484375,7.44378698 9.8515625,7.44378698 C11.4765625,8.04733728 12.4921875,7.24260355 13,5.43195266 C10.96875,5.43195266 9.6484375,5.93491124 9.6484375,7.24260355 L9.140625,7.44378698 C9.140625,7.24260355 9.140625,6.9408284 8.8359375,6.73964497 C9.6484375,6.23668639 9.140625,4.12426036 8.0234375,3.62130178 C6.8046875,4.62721893 8.0234375,6.9408284 8.8359375,6.9408284 C8.8359375,7.24260355 8.8359375,7.44378698 8.8359375,7.74556213 L8.328125,7.44378698 C7.3125,5.63313609 5.484375,6.23668639 4.9765625,6.43786982 C5.6875,7.74556213 6.8046875,8.55029586 8.328125,7.74556213 C8.53125,7.74556213 8.8359375,7.74556213 9.140625,8.04733728 C9.140625,8.55029586 9.34375,9.05325444 9.34375,9.55621302 L8.8359375,9.55621302 C7.8203125,8.04733728 6.5,8.75147929 5.9921875,9.05325444 C6.8046875,10.3609467 7.8203125,10.8639053 8.8359375,9.75739645 C8.8359375,9.75739645 9.140625,9.75739645 9.34375,9.75739645 C9.6484375,10.8639053 9.8515625,11.8698225 9.8515625,12.6745562 C8.53125,12.8757396 7.3125,12.8757396 6.1953125,13.1775148 C6.1953125,13.1775148 5.9921875,12.8757396 5.9921875,12.8757396 C6.8046875,11.8698225 5.9921875,11.3668639 4.671875,10.8639053 C4.46875,11.0650888 3.859375,12.3727811 5.6875,12.6745562 L5.9921875,13.1775148 C5.484375,13.1775148 4.9765625,13.1775148 4.46875,13.1775148 C4.1640625,13.1775148 3.859375,12.8757396 3.859375,12.6745562 C4.46875,11.3668639 3.3515625,10.5621302 1.828125,10.3609467 C1.828125,10.8639053 1.5234375,12.3727811 3.65625,12.8757396 L3.859375,13.1775148 C3.65625,13.1775148 3.3515625,13.1775148 3.1484375,13.1775148 C3.1484375,12.6745562 0.5078125,12.0710059 0,13.3786982 C0.8125,14.183432 2.84375,14.183432 3.1484375,13.3786982 C3.3515625,13.3786982 3.65625,13.3786982 3.859375,13.3786982 L3.859375,13.8816568 C2.640625,14.183432 2.3359375,15.1893491 2.84375,16.7988166 C4.46875,15.9940828 4.9765625,14.9881657 4.1640625,13.8816568 C4.1640625,13.8816568 4.1640625,13.6804734 4.46875,13.3786982 C4.671875,13.3786982 4.671875,13.3786982 4.9765625,13.3786982 C5.484375,13.3786982 5.6875,13.3786982 6.1953125,13.3786982 L6.1953125,13.6804734 C4.1640625,14.6863905 4.9765625,15.4911243 5.484375,15.9940828 C7.0078125,14.9881657 7.0078125,14.183432 6.1953125,13.6804734 C6.1953125,13.6804734 6.1953125,13.3786982 6.1953125,13.3786982 C7.3125,13.3786982 8.328125,13.1775148 8.8359375,13.1775148 C9.140625,13.1775148 9.34375,12.8757396 9.6484375,12.8757396 C9.6484375,12.8757396 9.6484375,13.1775148 9.6484375,13.1775148 C10.15625,14.183432 10.6640625,15.9940828 10.6640625,16.4970414 C8.328125,16.4970414 6.1953125,16.4970414 5.6875,16.4970414 C4.671875,16.4970414 4.46875,17.3017751 4.9765625,17.3017751 C5.1796875,17.3017751 7.515625,17.3017751 10.6640625,17.3017751 C10.359375,18.0059172 10.15625,19.6153846 9.8515625,20.6213018 C9.8515625,20.6213018 9.8515625,20.9230769 9.8515625,20.9230769 C9.6484375,20.9230769 9.34375,20.9230769 9.140625,20.6213018 C8.328125,20.3195266 7.515625,20.3195266 6.5,20.3195266 C6.5,20.3195266 6.1953125,20.1183432 6.5,20.1183432 C7.3125,19.3136095 7.3125,18.8106509 5.6875,17.8047337 C5.1796875,18.3076923 4.671875,19.3136095 6.1953125,20.1183432 L6.5,20.3195266 C5.9921875,20.3195266 5.6875,20.3195266 5.1796875,20.3195266 C4.9765625,20.3195266 4.9765625,20.3195266 4.671875,20.3195266 C4.671875,20.1183432 4.46875,20.1183432 4.46875,19.816568 C5.1796875,18.5088757 4.671875,17.8047337 3.1484375,17 C2.640625,18.5088757 2.84375,19.6153846 4.1640625,19.816568 L4.46875,20.1183432 C4.1640625,20.1183432 3.859375,20.1183432 3.65625,20.1183432 C3.3515625,19.3136095 1.015625,19.3136095 0.5078125,20.1183432 C1.3203125,21.4260355 3.859375,20.9230769 3.65625,20.3195266 C3.859375,20.3195266 4.1640625,20.3195266 4.46875,20.3195266 L4.1640625,20.6213018 C2.03125,21.1242604 2.3359375,22.6331361 2.640625,23.2366864 C4.1640625,22.9349112 4.9765625,22.1301775 4.46875,20.6213018 C4.46875,20.3195266 4.671875,20.3195266 4.671875,20.1183432 C5.1796875,20.1183432 5.484375,20.1183432 6.1953125,20.1183432 L5.9921875,20.6213018 C4.46875,21.1242604 4.9765625,22.1301775 5.1796875,22.6331361 C6.5,22.1301775 7.3125,21.6272189 6.5,20.6213018 C6.5,20.6213018 6.5,20.3195266 6.8046875,20.1183432 C8.0234375,20.1183432 9.140625,20.3195266 10.359375,20.3195266 C10.359375,21.1242604 10.15625,22.1301775 9.8515625,23.2366864 C9.6484375,23.2366864 9.6484375,23.2366864 9.34375,23.2366864 C8.328125,22.1301775 7.3125,22.6331361 6.5,23.9408284 C7.0078125,24.2426036 8.328125,25.2485207 9.140625,23.739645 L9.6484375,23.739645 C9.6484375,24.2426036 9.34375,24.7455621 9.34375,25.2485207 C9.140625,25.2485207 8.8359375,25.5502959 8.53125,25.5502959 C7.0078125,24.7455621 5.9921875,25.5502959 5.1796875,26.7573964 C5.9921875,27.0591716 7.8203125,27.5621302 8.8359375,25.7514793 L9.34375,25.5502959 C9.34375,25.7514793 9.34375,26.0532544 9.34375,26.2544379 C8.8359375,26.2544379 7.515625,28.5680473 9.140625,29.6745562 C10.15625,29.0710059 10.6640625,26.7573964 9.6484375,26.556213 C9.6484375,26.2544379 9.6484375,26.0532544 9.8515625,25.7514793 L10.15625,26.0532544 C10.359375,27.3609467 11.4765625,27.8639053 13.5078125,27.5621302 C13,25.7514793 11.984375,25.2485207 10.359375,25.7514793 C10.359375,25.7514793 10.15625,25.7514793 9.8515625,25.5502959 C9.8515625,24.9467456 10.15625,24.443787 10.15625,23.739645 L10.359375,23.9408284 C11.171875,25.7514793 12.1875,25.2485207 13.3046875,24.9467456 C12.4921875,23.2366864 11.6796875,22.9349112 10.6640625,23.739645 C10.6640625,23.739645 10.359375,23.739645 10.359375,23.4378698 C10.6640625,22.6331361 10.6640625,21.6272189 10.96875,20.9230769 C11.984375,21.1242604 12.6953125,21.4260355 14.015625,21.6272189 C14.015625,21.9289941 14.015625,21.9289941 14.015625,22.1301775 C12.6953125,22.9349112 13.3046875,23.739645 14.5234375,24.443787 C15.03125,23.9408284 16.1484375,23.2366864 14.5234375,22.1301775 L14.5234375,21.6272189 C14.5234375,21.6272189 14.828125,21.6272189 14.828125,21.6272189 C15.3359375,21.6272189 15.640625,21.9289941 16.1484375,21.9289941 C15.640625,22.6331361 15.640625,22.9349112 15.640625,23.2366864 C14.5234375,24.443787 15.03125,25.2485207 16.65625,26.0532544 C16.859375,25.5502959 17.9765625,23.9408284 15.84375,23.2366864 L15.84375,22.9349112 C16.1484375,22.9349112 16.3515625,23.2366864 16.65625,23.2366864 C16.65625,23.739645 18.6875,24.7455621 20.0078125,23.739645 C19.8046875,22.6331361 17.1640625,22.1301775 16.859375,22.9349112 C16.65625,22.9349112 16.3515625,22.6331361 16.1484375,22.6331361 L16.3515625,22.4319527 C17.9765625,22.4319527 18.484375,21.4260355 18.484375,19.816568 C16.65625,20.1183432 15.84375,20.9230769 16.1484375,22.1301775 C16.1484375,22.1301775 16.1484375,22.4319527 15.84375,22.4319527 C15.84375,22.4319527 15.640625,22.4319527 15.640625,22.4319527 C15.03125,22.4319527 14.5234375,22.1301775 14.015625,22.1301775 L14.015625,21.6272189 C16.1484375,21.1242604 15.640625,20.3195266 15.3359375,19.6153846 C13.3046875,20.1183432 13,20.9230769 13.5078125,21.6272189 C13.5078125,21.6272189 13.5078125,21.9289941 13.3046875,21.9289941 C13.3046875,21.6272189 12.6953125,21.6272189 12.4921875,21.6272189 C11.6796875,21.6272189 11.171875,21.4260355 10.359375,21.1242604 C10.6640625,19.3136095 11.171875,18.0059172 11.171875,17.5029586 C16.1484375,17.5029586 22.8515625,17.3017751 26.3046875,17.3017751 C28.03125,17.3017751 30.9765625,17.3017751 33.8203125,17 C33.515625,17.5029586 33.3125,18.5088757 32.8046875,20.1183432 C32.8046875,20.3195266 32.5,20.6213018 32.5,21.1242604 C31.9921875,21.1242604 31.484375,21.1242604 30.671875,21.1242604 C29.859375,21.1242604 28.84375,21.1242604 28.03125,21.4260355 C28.03125,21.4260355 28.03125,21.1242604 28.03125,20.9230769 C29.65625,19.816568 28.3359375,18.5088757 26.8125,18.3076923 C26,19.6153846 25.4921875,20.6213018 27.5234375,21.1242604 L27.5234375,21.4260355 C26.8125,21.4260355 26,21.6272189 25.1875,21.6272189 C24.984375,21.4260355 24.6796875,21.4260355 24.984375,21.1242604 C26.3046875,19.3136095 24.6796875,18.0059172 22.6484375,18.0059172 C22.34375,19.112426 21.53125,21.1242604 24.171875,21.1242604 C24.4765625,21.4260355 24.6796875,21.6272189 24.6796875,21.6272189 C24.4765625,21.6272189 23.96875,21.6272189 23.6640625,21.9289941 C21.53125,20.1183432 19.5,21.6272189 18.6875,22.1301775 C19.8046875,23.2366864 21.53125,23.4378698 23.6640625,22.1301775 C23.96875,22.1301775 24.171875,22.1301775 24.6796875,22.1301775 L24.4765625,22.6331361 C21.53125,23.739645 21.53125,25.2485207 22.34375,26.556213 C24.6796875,25.5502959 25.4921875,24.2426036 24.6796875,22.6331361 C24.984375,22.4319527 24.984375,22.4319527 25.1875,22.1301775 C25.1875,22.1301775 25.4921875,22.1301775 25.4921875,22.1301775 C25.6953125,22.1301775 26.8125,21.9289941 28.03125,21.9289941 L27.828125,22.4319527 C26.3046875,22.9349112 25.1875,23.9408284 26.3046875,25.7514793 C28.640625,24.7455621 29.1484375,23.739645 28.3359375,22.4319527 L28.3359375,21.9289941 C29.1484375,21.9289941 29.859375,21.6272189 30.46875,21.6272189 C31.1796875,21.6272189 31.6875,21.6272189 32.5,21.9289941 C32.1953125,22.9349112 31.9921875,24.2426036 31.6875,25.2485207 C31.484375,25.2485207 31.484375,25.2485207 30.9765625,25.2485207 C30.1640625,23.9408284 28.03125,25.2485207 27.3203125,26.7573964 C28.640625,27.3609467 29.859375,27.8639053 30.9765625,25.7514793 L31.484375,25.7514793 C31.1796875,26.556213 31.1796875,27.0591716 31.1796875,27.8639053 C30.9765625,28.0650888 30.671875,28.3668639 30.1640625,28.3668639 C28.3359375,27.5621302 26.3046875,28.8698225 25.4921875,30.6804734 C26.8125,30.6804734 28.84375,31.183432 29.859375,29.0710059 C30.1640625,28.8698225 30.671875,28.5680473 30.9765625,28.5680473 C30.9765625,28.8698225 30.9765625,29.3727811 30.671875,29.6745562 C27.828125,31.6863905 29.1484375,33.1952663 29.65625,34 C31.1796875,32.9940828 32.1953125,31.3846154 30.9765625,29.6745562 C30.9765625,29.6745562 30.9765625,29.3727811 30.9765625,29.3727811 C30.9765625,29.3727811 30.9765625,29.0710059 31.1796875,28.5680473 L31.6875,29.0710059 C32.1953125,31.3846154 34.0234375,31.183432 35.8515625,30.6804734 C35.34375,28.5680473 34.0234375,28.0650888 31.9921875,29.0710059 C31.6875,28.8698225 31.484375,28.8698225 31.484375,28.5680473 C31.6875,28.0650888 31.6875,27.3609467 31.9921875,26.2544379 L32.5,26.2544379 C32.8046875,27.5621302 33.515625,28.5680473 36.15625,27.3609467 C35.6484375,25.2485207 34.328125,25.2485207 32.8046875,25.7514793 L32.1953125,25.7514793 C32.5,24.7455621 32.8046875,23.4378698 33.0078125,22.4319527 C33.3125,22.4319527 33.515625,22.4319527 34.0234375,22.6331361 C35.140625,22.9349112 36.15625,22.9349112 36.96875,22.9349112 L36.6640625,23.4378698 C35.6484375,24.443787 35.34375,25.7514793 37.171875,26.7573964 C39,24.9467456 38.4921875,24.2426036 37.171875,23.4378698 L37.171875,22.9349112 C37.4765625,22.9349112 37.984375,22.9349112 38.1875,22.9349112 C38.6953125,22.9349112 39,22.9349112 39.5078125,23.2366864 C39.8125,23.4378698 39.8125,23.739645 40.015625,23.9408284 C38.4921875,25.5502959 38.6953125,26.7573964 40.5234375,27.8639053 C41.84375,26.556213 42.65625,24.9467456 40.3203125,23.9408284 L40.015625,23.4378698 C40.5234375,23.4378698 40.828125,23.4378698 41.03125,23.4378698 C42.3515625,24.9467456 44.1796875,24.7455621 46.0078125,23.739645 C45.5,22.9349112 44.1796875,21.4260355 41.3359375,22.9349112 C41.03125,22.9349112 40.828125,22.9349112 40.3203125,22.6331361 C40.5234375,22.4319527 40.828125,22.4319527 41.03125,22.1301775 C43.671875,22.1301775 43.9765625,20.1183432 44.1796875,19.112426 C42.1484375,19.112426 40.015625,20.3195266 40.5234375,22.1301775 C40.5234375,22.4319527 40.015625,22.6331361 39.8125,22.6331361 C39.8125,22.6331361 39.5078125,22.6331361 39.5078125,22.6331361 C38.6953125,22.6331361 37.984375,22.6331361 37.4765625,22.4319527 L37.6796875,21.9289941 C40.015625,21.6272189 40.015625,20.3195266 40.015625,19.112426 C38.1875,19.3136095 36.359375,20.3195266 37.4765625,21.6272189 C37.4765625,21.9289941 37.171875,22.1301775 37.171875,22.1301775 C36.15625,22.1301775 35.34375,21.9289941 34.53125,21.6272189 C34.0234375,21.6272189 33.515625,21.4260355 33.3125,21.4260355 C33.515625,20.6213018 33.515625,19.816568 33.8203125,19.6153846 C33.515625,18.3076923 34.0234375,17.5029586 34.328125,17 Z" id="Path"></path>
        </g>
    </g>
</svg>