<?xml version="1.0" encoding="UTF-8"?>
<svg width="64px" height="64px" viewBox="0 0 64 64" version="1.1" xmlns="http://www.w3.org/2000/svg" xmlns:xlink="http://www.w3.org/1999/xlink">
    <!-- Generator: Sketch 52.6 (67491) - http://www.bohemiancoding.com/sketch -->
    <title>leaves-reticulate</title>
    <desc>Created with Sketch.</desc>
    <g id="leaves-reticulate" stroke="none" stroke-width="1" fill="none" fill-rule="evenodd">
        <g id="icon-leaves-reticulate" transform="translate(6.000000, 6.000000)" fill="#000000" fill-rule="nonzero">
            <path d="M48.34375,0 C47.328125,1.31262136 46.515625,2.82718447 44.6875,3.63495146 C42.859375,3.13009709 40.828125,2.82718447 38.1875,2.82718447 C38.4921875,2.3223301 38.6953125,1.31262136 39.3046875,0.302912621 L38.1875,0.302912621 C37.984375,3.33203883 36.15625,4.94757282 33.8203125,6.1592233 C33.8203125,5.95728155 33.8203125,5.95728155 33.8203125,5.65436893 C33.8203125,3.63495146 34.328125,0.302912621 34.328125,0.302912621 L33.0078125,0.302912621 C33.0078125,0.302912621 32.8046875,2.3223301 32.8046875,4.13980583 L28.03125,4.13980583 C29.3515625,3.33203883 29.3515625,2.01941748 29.1484375,0.80776699 L28.3359375,0.504854369 C28.03125,1.31262136 28.3359375,2.62524272 27.5234375,2.82718447 C26.8125,1.81747573 25.6953125,1.31262136 24.6796875,0.504854369 L23.96875,0.80776699 C24.984375,1.51456311 26.3046875,2.01941748 27.015625,3.33203883 L24.6796875,5.45242718 C24.171875,4.13980583 23.359375,3.63495146 22.6484375,2.62524272 C23.15625,1.81747573 23.359375,1.31262136 23.96875,0.504854369 L22.8515625,0.504854369 C21.53125,3.8368932 19.8046875,4.94757282 17.671875,4.94757282 C18.6875,2.62524272 20.0078125,0.80776699 19.8046875,0.80776699 L17.671875,0.504854369 C17.671875,0.504854369 16.859375,2.62524272 16.1484375,4.44271845 C15.03125,4.13980583 14.3203125,3.63495146 13.5078125,2.82718447 C13.8125,2.01941748 14.3203125,1.31262136 14.3203125,0.302912621 L13,0.302912621 C13,1.81747573 11.984375,3.13009709 10.6640625,4.13980583 C10.96875,2.01941748 10.96875,0.302912621 10.96875,0.302912621 L9.6484375,0.302912621 C9.6484375,0.302912621 9.6484375,3.33203883 9.34375,4.94757282 C7.515625,3.33203883 6.5,1.81747573 6.8046875,0.302912621 L5.9921875,0.302912621 C6.1953125,1.00970874 6.1953125,1.81747573 6.8046875,2.62524272 C6.5,2.62524272 5.9921875,2.82718447 5.484375,2.62524272 C5.484375,1.31262136 5.1796875,0.302912621 5.1796875,0.302912621 L4.1640625,0.302912621 C4.1640625,0.302912621 4.46875,3.13009709 5.1796875,5.95728155 L3.1484375,5.45242718 C3.3515625,3.33203883 2.84375,1.81747573 2.03125,0.504854369 L1.3203125,0.504854369 C2.03125,1.81747573 2.84375,3.13009709 2.640625,5.14951456 L0.5078125,4.64466019 L0.5078125,5.95728155 L3.65625,6.76504854 C3.859375,8.27961165 4.1640625,10.0970874 4.671875,11.4097087 C2.84375,9.59223301 1.5234375,8.4815534 0.5078125,8.4815534 L0.5078125,9.28932039 C2.03125,9.79417476 3.1484375,11.1067961 4.46875,12.4194175 L3.3515625,13.9339806 C1.828125,12.6213592 0,11.1067961 0,11.1067961 L0,12.4194175 C0,12.4194175 3.3515625,15.7514563 3.859375,16.5592233 C3.859375,17.0640777 3.3515625,17.8718447 3.1484375,18.5786408 C2.03125,17.568932 1.3203125,17.0640777 0.5078125,16.5592233 L0.5078125,17.3669903 C1.015625,17.568932 2.03125,18.0737864 2.84375,19.0834951 L1.828125,20.3961165 C1.3203125,19.6893204 0.8125,19.3864078 0.5078125,19.0834951 L0.5078125,19.8912621 C0.5078125,19.8912621 1.5234375,21.4058252 1.5234375,22.7184466 C1.5234375,23.8291262 3.859375,25.5456311 4.671875,26.1514563 C4.46875,26.6563107 4.46875,27.161165 4.1640625,27.8679612 C2.3359375,26.6563107 1.5234375,26.1514563 0.3046875,25.5456311 L0.3046875,26.6563107 C1.3203125,27.161165 2.640625,27.6660194 3.65625,28.6757282 C3.3515625,29.4834951 3.1484375,30.4932039 2.84375,32.007767 C2.84375,32.007767 2.84375,31.8058252 2.640625,31.8058252 C1.5234375,29.6854369 0,28.6757282 0,28.6757282 L0,29.9883495 C0,29.9883495 1.828125,31.8058252 2.84375,33.1184466 C2.3359375,35.9456311 2.03125,38.7728155 1.828125,41.3980583 L0.3046875,40.2873786 L0,41.6 L1.5234375,42.6097087 C1.3203125,47.5572816 1.3203125,51.192233 1.3203125,51.192233 L3.1484375,51.3941748 C3.1484375,51.3941748 2.640625,48.5669903 2.640625,44.4271845 C4.46875,44.7300971 6.1953125,45.2349515 7.8203125,46.2446602 C6.5,48.0621359 4.9765625,48.8699029 4.671875,50.8893204 L5.484375,50.8893204 C5.6875,49.8796117 5.9921875,49.0718447 7.0078125,48.3650485 C7.8203125,49.0718447 7.515625,50.384466 7.8203125,51.192233 L8.8359375,51.192233 C8.328125,48.3650485 7.3125,47.8601942 8.8359375,46.7495146 C10.359375,47.8601942 11.6796875,49.3747573 12.4921875,51.192233 L13.8125,51.192233 C13.5078125,50.384466 13.3046875,49.8796117 12.6953125,49.3747573 C14.828125,49.0718447 17.1640625,48.3650485 18.6875,50.8893204 L19.8046875,50.8893204 C17.1640625,47.0524272 16.1484375,48.3650485 11.984375,48.0621359 C11.6796875,47.8601942 11.4765625,47.5572816 11.171875,47.2543689 C13,47.2543689 14.828125,47.2543689 16.65625,46.5475728 C17.9765625,47.5572816 19.1953125,48.5669903 21.0234375,48.8699029 L22.140625,51.192233 L23.15625,50.8893204 C22.6484375,50.384466 22.140625,49.6776699 21.8359375,48.5669903 C23.6640625,48.5669903 24.6796875,48.0621359 26,47.5572816 C26.3046875,47.8601942 26.5078125,47.8601942 26.5078125,48.0621359 L26.5078125,50.8893204 L27.3203125,51.192233 L27.3203125,48.5669903 C28.3359375,49.3747573 29.1484375,49.8796117 29.65625,50.384466 C30.9765625,51.3941748 33.0078125,51.3941748 32.8046875,51.3941748 C32.8046875,51.3941748 31.9921875,50.6873786 30.671875,50.1825243 C30.9765625,49.0718447 31.1796875,47.8601942 31.9921875,47.8601942 C33.8203125,47.5572816 35.6484375,47.8601942 36.96875,50.1825243 L36.359375,51.192233 L37.984375,51.3941748 L38.6953125,49.8796117 L41.640625,51.6970874 L42.65625,51.6970874 L38.6953125,49.0718447 L38.6953125,47.0524272 L43.1640625,47.2543689 C44.484375,48.3650485 45.8046875,49.0718447 45.8046875,49.0718447 L47.8359375,52 L48.34375,51.6970874 C48.34375,51.6970874 48.34375,50.8893204 47.53125,49.6776699 C48.8515625,49.6776699 49.96875,49.3747573 51.4921875,50.384466 L51.4921875,49.3747573 C48.6484375,48.8699029 48.140625,46.5475728 46.8203125,44.9320388 C48.34375,44.9320388 49.96875,45.5378641 51.1875,45.7398058 L51.1875,44.4271845 C49.96875,44.2252427 48.6484375,44.2252427 47.0234375,43.9223301 L47.328125,42.6097087 C48.8515625,42.9126214 49.96875,42.1048544 51.1875,41.3980583 L51.1875,40.2873786 C49.96875,41.0951456 48.6484375,42.1048544 47.328125,41.6 L46.8203125,40.5902913 C48.140625,39.7825243 48.8515625,38.4699029 49.359375,36.9553398 C50.4765625,36.9553398 50.984375,36.9553398 50.984375,36.9553398 L50.984375,35.6427184 C50.984375,35.6427184 49.96875,35.6427184 47.8359375,35.4407767 C48.6484375,34.3300971 48.6484375,33.1184466 48.8515625,31.8058252 C50.4765625,32.007767 51.1875,32.007767 51.1875,32.007767 L51.1875,30.7961165 C51.1875,30.7961165 48.140625,30.4932039 45.5,29.9883495 C42.859375,29.4834951 42.1484375,28.9786408 42.1484375,28.9786408 C42.1484375,28.9786408 43.9765625,27.161165 46.515625,26.8582524 C49.15625,26.6563107 51.1875,26.3533981 51.1875,26.3533981 L51.1875,25.3436893 C51.1875,25.3436893 50.6796875,25.3436893 49.6640625,25.3436893 C49.15625,24.838835 48.6484375,24.5359223 48.140625,24.031068 L49.359375,21.7087379 C50.171875,22.0116505 51.1875,22.5165049 51.1875,22.5165049 L51.1875,21.2038835 C51.1875,21.2038835 48.6484375,19.6893204 45.8046875,18.376699 C47.53125,16.761165 49.359375,18.0737864 51.1875,18.0737864 L52,17.568932 C50.4765625,17.3669903 49.359375,17.0640777 48.34375,16.761165 C49.359375,15.7514563 49.6640625,14.7417476 49.6640625,13.4291262 C50.4765625,13.7320388 50.984375,13.9339806 51.6953125,14.2368932 L51.6953125,12.9242718 C51.4921875,12.9242718 50.984375,12.6213592 50.6796875,12.6213592 L49.359375,10.9048544 L51.4921875,9.79417476 L51.4921875,8.78446602 L48.8515625,10.0970874 L47.8359375,9.28932039 L50.171875,7.77475728 L52,8.78446602 L52,7.47184466 L49.15625,6.1592233 L51.6953125,3.8368932 L51.6953125,2.01941748 L48.140625,5.65436893 L44.6875,4.94757282 C46.8203125,3.8368932 48.34375,2.62524272 49.359375,0.302912621 L48.34375,0 Z M22.140625,3.33203883 C22.8515625,4.13980583 23.6640625,4.94757282 24.171875,5.95728155 L22.140625,7.97669903 C21.328125,7.97669903 20.515625,7.77475728 19.8046875,7.77475728 C17.9765625,7.77475728 16.3515625,7.77475728 15.84375,7.77475728 C16.1484375,7.26990291 16.3515625,6.76504854 16.859375,5.95728155 C18.6875,5.65436893 20.515625,5.95728155 22.140625,3.33203883 Z M7.515625,3.63495146 C8.0234375,4.13980583 8.8359375,5.14951456 9.6484375,5.95728155 C9.140625,6.96699029 8.328125,8.4815534 7.8203125,9.08737864 C7.515625,8.27961165 7.3125,7.77475728 7.0078125,6.96699029 C6.5,5.95728155 6.1953125,4.64466019 5.9921875,3.63495146 C6.5,3.63495146 7.0078125,3.63495146 7.515625,3.63495146 Z M13,3.63495146 C14.015625,4.13980583 14.828125,4.64466019 15.640625,5.14951456 C15.640625,5.14951456 15.640625,5.45242718 15.640625,5.45242718 C15.03125,6.46213592 14.3203125,7.97669903 13.3046875,9.79417476 C12.1875,8.78446602 10.96875,7.77475728 9.8515625,7.26990291 C9.8515625,6.96699029 10.15625,6.96699029 10.15625,6.76504854 C10.15625,6.46213592 10.359375,6.1592233 10.359375,6.1592233 L13,3.63495146 Z M40.3203125,3.8368932 C41.640625,3.8368932 42.859375,3.8368932 43.9765625,4.44271845 C41.84375,6.46213592 39.8125,9.08737864 37.984375,9.79417476 L34.8359375,8.4815534 C34.8359375,8.4815534 34.53125,8.27961165 34.0234375,7.77475728 C35.6484375,6.46213592 37.171875,5.45242718 37.984375,4.13980583 C38.4921875,3.8368932 39.3046875,3.8368932 40.3203125,3.8368932 Z M27.015625,4.94757282 C27.828125,4.94757282 28.84375,4.94757282 29.65625,5.14951456 L30.46875,8.78446602 C29.65625,8.78446602 28.84375,8.78446602 27.828125,8.78446602 C26,8.78446602 24.4765625,8.4815534 23.15625,8.27961165 C24.171875,6.96699029 25.6953125,5.95728155 27.015625,4.94757282 Z M32.8046875,5.14951456 C33.0078125,6.76504854 33.515625,8.4815534 33.515625,8.4815534 C33.515625,8.4815534 33.0078125,8.78446602 31.6875,8.78446602 C31.1796875,7.26990291 30.671875,5.95728155 30.9765625,5.14951456 L32.8046875,5.14951456 Z M43.671875,5.65436893 C43.9765625,5.65436893 43.9765625,5.65436893 43.671875,5.65436893 C44.1796875,5.65436893 44.484375,5.95728155 44.484375,5.95728155 C45.8046875,5.95728155 45.1953125,6.96699029 45.1953125,8.27961165 C45.1953125,9.28932039 43.671875,10.6019417 43.1640625,11.4097087 C42.1484375,11.4097087 41.03125,11.4097087 40.015625,11.4097087 L39,10.2990291 C40.3203125,9.79417476 42.3515625,6.96699029 43.46875,5.95728155 C43.46875,5.95728155 43.671875,5.65436893 43.671875,5.65436893 Z M46.3125,6.1592233 L49.15625,7.26990291 L46.515625,8.78446602 L46.3125,6.1592233 Z M4.46875,6.96699029 L5.6875,7.26990291 C5.9921875,7.77475728 5.9921875,7.97669903 6.1953125,8.27961165 L5.1796875,10.6019417 C4.671875,9.59223301 4.671875,8.27961165 4.46875,6.96699029 Z M9.34375,7.97669903 C10.6640625,8.4815534 11.984375,9.28932039 13,10.6019417 C12.4921875,11.6116505 11.984375,12.6213592 11.171875,13.9339806 C11.171875,13.7320388 9.8515625,12.1165049 8.53125,10.0970874 C8.8359375,9.59223301 9.140625,8.78446602 9.34375,7.97669903 Z M15.3359375,8.78446602 C15.640625,8.78446602 16.3515625,8.78446602 16.859375,8.78446602 C16.65625,11.9145631 17.9765625,13.4291262 20.3125,13.9339806 C20.515625,14.438835 20.3125,15.2466019 20.0078125,16.0543689 C18.9921875,16.5592233 18.1796875,16.761165 17.46875,16.761165 C16.859375,16.761165 16.65625,16.5592233 16.3515625,16.2563107 C15.3359375,15.5495146 12.6953125,14.9436893 12.1875,14.7417476 C13.3046875,12.6213592 14.3203125,10.9048544 14.828125,9.59223301 C15.03125,9.28932039 15.03125,9.08737864 15.3359375,8.78446602 Z M17.46875,8.78446602 C18.1796875,8.78446602 18.9921875,8.78446602 20.0078125,9.08737864 C20.0078125,9.79417476 19.8046875,10.6019417 19.8046875,11.6116505 C19.8046875,12.9242718 20.0078125,13.4291262 20.0078125,13.4291262 C18.1796875,13.2271845 17.46875,10.9048544 17.46875,8.78446602 Z M21.0234375,9.28932039 C21.53125,9.28932039 22.34375,9.59223301 22.8515625,9.59223301 C23.96875,9.79417476 24.6796875,9.79417476 25.4921875,9.79417476 C24.6796875,13.2271845 22.8515625,14.7417476 21.0234375,15.7514563 C21.0234375,15.2466019 21.0234375,14.438835 20.8203125,13.7320388 C20.3125,12.6213592 20.3125,11.4097087 20.515625,10.2990291 C20.8203125,9.79417476 20.8203125,9.59223301 21.0234375,9.28932039 Z M46.3125,9.28932039 C47.53125,9.79417476 49.15625,10.9048544 49.359375,12.1165049 C47.8359375,11.6116505 46.3125,11.4097087 44.484375,11.4097087 L46.3125,9.28932039 Z M6.8046875,9.28932039 C8.328125,12.4194175 9.6484375,13.9339806 10.6640625,14.7417476 C10.6640625,15.2466019 10.359375,15.7514563 10.15625,16.0543689 C9.140625,14.9436893 8.0234375,14.2368932 7.0078125,13.7320388 C7.0078125,12.1165049 6.5,11.4097087 6.1953125,10.2990291 L6.8046875,9.28932039 Z M33.8203125,9.59223301 C37.4765625,11.1067961 40.015625,10.6019417 39.8125,15.2466019 L31.6875,15.2466019 C31.9921875,13.7320388 30.9765625,11.9145631 30.46875,10.2990291 L33.8203125,9.59223301 Z M26.5078125,9.79417476 C28.3359375,10.0970874 29.3515625,9.79417476 29.3515625,9.79417476 C29.3515625,9.79417476 29.859375,11.4097087 30.46875,12.9242718 L25.1875,13.2271845 L26.5078125,9.79417476 Z M5.6875,11.4097087 C6.1953125,12.6213592 6.5,14.438835 5.6875,17.8718447 C5.484375,16.761165 5.1796875,16.2563107 4.671875,15.7514563 C4.671875,15.5495146 4.1640625,14.9436893 3.859375,14.438835 L5.6875,11.4097087 Z M42.3515625,12.1165049 C44.484375,12.1165049 46.515625,12.4194175 48.6484375,12.9242718 C48.6484375,16.0543689 46.8203125,16.761165 44.9921875,17.8718447 C42.65625,16.5592233 41.03125,14.9436893 41.03125,14.9436893 L40.828125,11.9145631 C41.640625,12.4194175 42.1484375,12.1165049 42.3515625,12.1165049 Z M30.671875,13.9339806 C30.671875,14.438835 30.9765625,14.7417476 30.671875,14.9436893 C30.671875,16.0543689 29.1484375,17.3669903 29.1484375,17.3669903 C29.1484375,17.3669903 27.015625,18.0737864 24.171875,18.0737864 C22.6484375,18.0737864 20.515625,17.8718447 18.9921875,17.3669903 C26.3046875,14.7417476 21.328125,14.2368932 30.671875,13.9339806 Z M7.0078125,14.7417476 C7.515625,14.7417476 8.53125,15.7514563 9.6484375,17.0640777 C8.8359375,18.376699 8.328125,19.6893204 7.515625,20.9009709 C7.0078125,20.3961165 6.8046875,19.6893204 6.5,18.8815534 C6.8046875,17.568932 7.0078125,16.2563107 7.0078125,14.7417476 Z M11.6796875,15.5495146 C12.4921875,15.7514563 13,16.0543689 13.5078125,16.0543689 C14.015625,16.2563107 15.03125,17.3669903 17.46875,18.0737864 C16.65625,20.6990291 14.828125,22.5165049 12.4921875,24.3339806 C10.359375,23.223301 8.8359375,22.5165049 8.328125,22.2135922 C9.34375,20.1941748 10.6640625,17.8718447 11.6796875,15.5495146 Z M31.6875,16.0543689 L35.34375,16.0543689 C35.34375,17.8718447 35.8515625,19.8912621 31.484375,20.6990291 C30.1640625,19.0834951 29.65625,18.0737864 29.65625,18.0737864 L31.6875,16.0543689 Z M36.6640625,16.0543689 L40.828125,16.0543689 C40.828125,16.0543689 41.03125,16.5592233 41.84375,17.0640777 C40.015625,18.376699 38.1875,19.3864078 36.359375,18.8815534 C36.359375,18.5786408 36.6640625,17.0640777 36.6640625,16.0543689 Z M4.671875,17.8718447 C5.1796875,18.8815534 5.9921875,20.6990291 7.0078125,22.0116505 C5.9921875,23.8291262 5.1796875,24.5359223 4.9765625,25.3436893 C4.1640625,24.838835 2.3359375,23.0213592 2.3359375,22.2135922 C2.3359375,21.4058252 4.1640625,18.5786408 4.671875,17.8718447 Z M42.3515625,17.8718447 C42.3515625,17.8718447 42.65625,18.0737864 42.65625,18.0737864 C42.65625,19.3864078 42.65625,20.3961165 42.1484375,21.7087379 C40.828125,21.4058252 39.8125,21.2038835 39.3046875,20.1941748 C40.015625,19.3864078 40.828125,18.5786408 42.3515625,17.8718447 Z M18.1796875,18.376699 C19.1953125,18.5786408 20.3125,18.8815534 21.53125,18.8815534 C21.53125,18.8815534 21.53125,18.8815534 21.8359375,18.8815534 C21.8359375,19.3864078 21.53125,20.1941748 21.53125,20.6990291 C20.3125,20.3961165 18.6875,20.3961165 17.1640625,20.6990291 C17.671875,19.8912621 17.9765625,19.0834951 18.1796875,18.376699 Z M28.640625,18.5786408 C28.640625,18.5786408 29.3515625,20.3961165 31.1796875,22.5165049 C30.9765625,22.7184466 30.671875,23.223301 30.1640625,23.5262136 C28.84375,23.0213592 27.5234375,22.7184466 26.5078125,22.0116505 C27.3203125,20.9009709 27.828125,19.8912621 27.828125,18.5786408 C28.3359375,18.5786408 28.640625,18.5786408 28.640625,18.5786408 Z M43.46875,18.5786408 C43.671875,18.8815534 43.9765625,18.8815534 44.1796875,18.8815534 C44.484375,19.0834951 45.1953125,19.3864078 45.8046875,19.6893204 C45.1953125,20.9009709 44.484375,22.0116505 43.46875,22.7184466 L42.859375,22.5165049 C42.859375,21.4058252 43.46875,20.3961165 43.46875,18.5786408 Z M26.8125,18.8815534 C26.3046875,21.7087379 24.984375,22.7184466 22.8515625,23.5262136 C22.34375,23.223301 22.140625,23.0213592 21.8359375,23.0213592 C22.34375,21.4058252 22.8515625,20.1941748 23.15625,18.8815534 C24.6796875,18.8815534 26,18.8815534 26.8125,18.8815534 Z M37.171875,19.8912621 C37.6796875,19.8912621 38.1875,19.8912621 38.4921875,19.8912621 C37.171875,20.9009709 37.171875,22.2135922 37.4765625,23.5262136 L33.8203125,23.5262136 C33.3125,23.0213592 32.5,22.2135922 32.1953125,21.7087379 C33.515625,21.2038835 34.53125,20.6990291 35.6484375,19.8912621 C36.15625,19.8912621 36.6640625,19.8912621 37.171875,19.8912621 Z M46.515625,20.1941748 C47.328125,20.3961165 48.140625,20.9009709 48.8515625,21.2038835 C48.34375,23.8291262 46.8203125,24.3339806 45.1953125,24.838835 C44.6875,24.3339806 44.484375,23.8291262 43.9765625,23.5262136 C44.9921875,22.7184466 46.0078125,21.4058252 46.515625,20.1941748 Z M38.6953125,20.9009709 C39.5078125,21.7087379 40.3203125,22.2135922 41.84375,22.5165049 C40.828125,23.223301 39.5078125,23.5262136 38.4921875,23.8291262 C37.984375,22.2135922 38.1875,21.4058252 38.6953125,20.9009709 Z M18.9921875,20.9009709 C19.8046875,20.9009709 20.515625,20.9009709 21.328125,21.2038835 C21.328125,21.7087379 21.0234375,22.2135922 20.8203125,22.7184466 C20.8203125,22.7184466 20.8203125,22.7184466 20.515625,22.7184466 C20.0078125,22.7184466 19.5,22.7184466 18.9921875,23.0213592 C18.1796875,22.5165049 17.1640625,22.0116505 15.84375,22.2135922 C16.1484375,22.0116505 16.65625,21.4058252 16.859375,21.2038835 C17.46875,20.9009709 18.1796875,20.9009709 18.9921875,20.9009709 Z M26,22.7184466 C27.015625,23.223301 28.03125,23.8291262 29.3515625,24.3339806 C28.640625,24.5359223 27.828125,24.838835 26.8125,24.838835 C25.1875,24.5359223 24.171875,24.3339806 23.359375,23.8291262 C24.4765625,23.8291262 25.1875,23.223301 26,22.7184466 Z M15.3359375,22.7184466 C16.3515625,22.7184466 17.46875,23.0213592 18.484375,23.5262136 C17.9765625,24.031068 17.46875,24.5359223 16.859375,24.838835 C16.3515625,25.0407767 15.3359375,25.3436893 14.828125,25.5456311 C14.3203125,25.3436893 13.8125,25.0407767 13.3046875,24.838835 C14.015625,24.3339806 15.3359375,22.7184466 15.3359375,22.7184466 Z M7.8203125,23.0213592 C8.53125,23.8291262 9.6484375,24.031068 10.6640625,24.5359223 C9.6484375,27.161165 8.328125,29.4834951 10.6640625,32.007767 L9.6484375,35.6427184 C9.34375,35.4407767 8.8359375,35.4407767 8.53125,35.4407767 C7.3125,35.1378641 5.484375,34.6330097 4.1640625,33.3203883 C4.671875,29.9883495 5.484375,26.8582524 6.1953125,25.5456311 C6.8046875,24.838835 7.3125,24.031068 7.8203125,23.0213592 Z M42.3515625,23.223301 C43.46875,24.031068 44.1796875,25.0407767 44.9921875,26.3533981 C42.859375,27.161165 41.3359375,28.4737864 41.3359375,28.4737864 C41.3359375,28.4737864 38.6953125,27.6660194 35.34375,24.838835 C37.4765625,24.838835 40.015625,24.5359223 42.3515625,23.223301 Z M31.9921875,23.5262136 C32.5,24.031068 33.0078125,24.5359223 33.8203125,25.0407767 C34.53125,25.5456311 35.34375,26.1514563 36.359375,26.8582524 C34.328125,29.1805825 31.484375,29.4834951 28.3359375,29.1805825 L27.828125,25.8485437 C29.65625,25.3436893 31.1796875,24.031068 31.9921875,23.5262136 Z M20.8203125,23.8291262 C21.53125,23.8291262 22.34375,24.838835 23.96875,25.5456311 C23.359375,26.6563107 21.8359375,27.6660194 20.3125,28.4737864 C18.9921875,27.6660194 17.46875,27.161165 15.84375,26.3533981 C16.1484375,26.3533981 16.3515625,26.3533981 16.859375,26.3533981 C18.1796875,25.8485437 19.8046875,23.8291262 20.8203125,23.8291262 Z M48.140625,24.5359223 C48.6484375,24.838835 48.8515625,25.0407767 49.359375,25.5456311 C48.34375,25.5456311 47.0234375,25.8485437 45.8046875,26.1514563 C46.3125,25.5456311 47.0234375,25.0407767 48.140625,24.5359223 Z M11.4765625,24.838835 C11.984375,25.0407767 12.4921875,25.3436893 13,25.5456311 C13.3046875,25.5456311 13.5078125,25.8485437 13.8125,26.1514563 C12.1875,27.8679612 11.984375,29.6854369 11.171875,31.3009709 C8.8359375,29.4834951 10.6640625,27.161165 11.4765625,24.838835 Z M24.984375,25.8485437 C25.1875,25.8485437 25.6953125,26.1514563 26.3046875,26.1514563 C26.5078125,26.1514563 26.8125,26.1514563 27.015625,26.1514563 L27.3203125,32.007767 C26.8125,31.8058252 26.3046875,31.5029126 25.6953125,31.3009709 C25.1875,29.4834951 24.6796875,27.8679612 24.171875,27.161165 C24.4765625,26.6563107 24.6796875,26.1514563 24.984375,25.8485437 Z M14.5234375,26.3533981 C15.03125,26.6563107 15.84375,27.161165 16.3515625,27.3631068 C15.84375,28.1708738 15.3359375,28.9786408 14.828125,29.6854369 L13,29.1805825 C13,27.8679612 13.8125,27.161165 14.5234375,26.3533981 Z M37.171875,27.3631068 C37.4765625,27.6660194 37.6796875,27.6660194 37.984375,27.8679612 L37.984375,30.7961165 L35.140625,31.8058252 C34.53125,30.7961165 34.0234375,30.4932039 33.515625,30.2912621 L37.171875,27.3631068 Z M23.359375,27.3631068 C24.171875,28.1708738 24.4765625,29.1805825 24.6796875,30.4932039 C24.4765625,30.2912621 23.96875,30.2912621 23.6640625,29.9883495 C23.15625,29.6854369 22.34375,29.1805825 21.328125,28.6757282 C22.140625,28.4737864 22.6484375,28.1708738 23.359375,27.3631068 Z M17.1640625,27.6660194 C17.46875,27.6660194 17.671875,27.8679612 17.9765625,27.8679612 L16.65625,30.9980583 L15.640625,29.9883495 L17.1640625,27.6660194 Z M39,28.1708738 C39.8125,28.4737864 40.5234375,28.9786408 41.03125,29.1805825 L39.8125,30.9980583 L38.6953125,30.2912621 L39,28.1708738 Z M18.6875,28.6757282 C19.8046875,29.1805825 20.515625,29.6854369 21.53125,30.2912621 L20.3125,35.6427184 C20.0078125,35.6427184 19.8046875,35.6427184 19.5,35.6427184 C18.6875,35.6427184 17.671875,35.6427184 16.859375,35.6427184 C16.65625,33.1184466 17.671875,30.7961165 18.6875,28.6757282 Z M41.84375,29.6854369 C42.859375,30.2912621 43.9765625,30.4932039 44.9921875,30.7961165 L43.1640625,34.1281553 C42.65625,34.1281553 42.1484375,34.1281553 41.640625,34.1281553 L40.5234375,32.007767 L41.84375,29.6854369 Z M32.8046875,29.9883495 C34.0234375,30.9980583 35.34375,32.3106796 36.15625,34.3300971 C33.515625,34.1281553 30.9765625,33.3203883 28.640625,32.6135922 L28.3359375,30.2912621 L32.8046875,29.9883495 Z M13.3046875,30.2912621 C14.828125,30.2912621 15.640625,30.9980583 16.1484375,31.8058252 L15.640625,34.1281553 C14.015625,33.8252427 12.6953125,33.3203883 11.171875,33.1184466 C11.171875,32.007767 11.6796875,31.3009709 12.1875,30.4932039 C13,30.2912621 13.3046875,30.2912621 13.3046875,30.2912621 Z M23.15625,30.9980583 C24.984375,32.007767 26.8125,32.815534 27.828125,33.623301 C27.5234375,35.4407767 26.5078125,36.7533981 24.984375,37.4601942 C24.4765625,36.7533981 24.171875,36.1475728 23.96875,36.1475728 C23.6640625,35.9456311 22.6484375,35.6427184 21.53125,35.6427184 L23.15625,30.9980583 Z M46.515625,31.3009709 C46.515625,31.3009709 46.8203125,31.3009709 46.515625,31.3009709 C47.328125,31.5029126 47.8359375,31.5029126 48.34375,31.5029126 C48.34375,32.815534 48.140625,34.1281553 47.328125,35.1378641 C46.8203125,35.1378641 46.3125,34.9359223 45.8046875,34.9359223 C44.9921875,34.6330097 44.484375,34.6330097 44.1796875,34.3300971 L46.515625,31.3009709 Z M38.1875,31.5029126 C38.4921875,31.5029126 38.4921875,31.5029126 38.6953125,31.5029126 C39,31.5029126 39,31.5029126 39.3046875,31.5029126 C40.015625,31.8058252 40.5234375,33.3203883 40.828125,34.1281553 C40.015625,34.1281553 39,34.1281553 37.6796875,34.1281553 L35.8515625,31.8058252 C35.6484375,32.007767 37.171875,31.8058252 38.1875,31.5029126 Z M11.171875,33.8252427 L15.640625,34.6330097 L15.640625,35.9456311 C13.8125,36.1475728 12.4921875,36.4504854 11.6796875,36.4504854 C11.171875,36.1475728 10.96875,35.9456311 10.6640625,35.9456311 L11.171875,33.8252427 Z M28.84375,34.1281553 C30.46875,34.9359223 31.484375,35.1378641 32.8046875,35.1378641 C33.0078125,35.6427184 33.3125,36.1475728 33.8203125,36.9553398 C30.46875,39.0757282 29.3515625,37.4601942 28.03125,35.9456311 L28.84375,34.1281553 Z M3.859375,34.6330097 C4.46875,34.9359223 5.6875,35.4407767 7.0078125,35.9456311 C5.6875,36.7533981 4.46875,37.4601942 3.3515625,38.2679612 C3.65625,36.9553398 3.859375,35.6427184 3.859375,34.6330097 Z M40.015625,35.4407767 C41.84375,35.4407767 43.671875,35.4407767 45.1953125,35.9456311 C42.3515625,37.7631068 39.3046875,39.0757282 35.8515625,38.7728155 C35.140625,37.4601942 34.328125,36.1475728 34.0234375,35.6427184 C35.34375,35.6427184 36.6640625,35.6427184 37.984375,35.6427184 C38.6953125,35.4407767 39.5078125,35.4407767 40.015625,35.4407767 Z M46.3125,35.9456311 C46.3125,35.9456311 46.515625,35.9456311 46.515625,35.9456311 C47.328125,36.1475728 48.140625,36.4504854 48.8515625,36.4504854 C48.34375,37.4601942 46.8203125,39.7825243 45.8046875,39.2776699 C44.6875,39.0757282 43.1640625,37.4601942 43.1640625,37.4601942 L46.3125,35.9456311 Z M8.53125,36.1475728 C8.8359375,36.1475728 9.140625,36.4504854 9.34375,36.4504854 C8.8359375,37.2582524 8.0234375,38.2679612 8.53125,39.2776699 C7.0078125,40.0854369 5.6875,41.9029126 4.46875,43.4174757 C3.859375,43.215534 3.3515625,43.215534 2.84375,42.9126214 C2.84375,41.9029126 3.1484375,40.792233 3.1484375,39.5805825 C4.9765625,38.4699029 6.5,36.9553398 8.53125,36.1475728 Z M20.515625,36.7533981 C24.984375,36.7533981 24.984375,39.0757282 25.4921875,40.792233 L24.984375,41.9029126 C20.8203125,36.9553398 21.0234375,38.7728155 19.8046875,37.9650485 C19.1953125,37.7631068 18.9921875,37.2582524 18.6875,36.9553398 C19.1953125,36.9553398 20.0078125,36.9553398 20.515625,36.7533981 Z M10.15625,36.9553398 C10.6640625,37.2582524 11.4765625,37.7631068 12.1875,38.2679612 C12.1875,38.7728155 11.984375,39.2776699 11.6796875,39.5805825 C10.6640625,39.2776699 9.8515625,39.2776699 9.140625,39.2776699 C8.8359375,37.7631068 9.34375,37.2582524 10.15625,36.9553398 Z M18.1796875,36.9553398 C19.5,38.2679612 19.5,39.7825243 19.1953125,41.3980583 C17.1640625,39.7825243 15.03125,38.4699029 13.3046875,37.4601942 C14.015625,37.2582524 15.84375,36.9553398 18.1796875,36.9553398 Z M27.5234375,37.2582524 L29.65625,38.7728155 L29.1484375,42.1048544 C28.3359375,41.9029126 27.5234375,41.6 27.3203125,41.3980583 C27.015625,41.0951456 26.3046875,39.7825243 25.6953125,38.7728155 L27.5234375,37.2582524 Z M34.328125,37.9650485 C35.140625,39.2776699 36.15625,40.792233 37.171875,41.9029126 C36.359375,42.1048544 35.140625,42.6097087 33.8203125,42.9126214 C32.8046875,43.215534 31.484375,42.9126214 30.1640625,42.407767 L30.671875,39.0757282 L34.328125,37.9650485 Z M42.1484375,38.2679612 C42.65625,38.7728155 43.1640625,39.5805825 43.671875,39.7825243 C42.859375,40.5902913 42.859375,41.0951456 42.859375,41.3980583 C42.1484375,41.0951456 41.640625,40.792233 40.828125,40.792233 C40.828125,40.0854369 40.3203125,39.7825243 40.015625,39.2776699 C40.828125,39.0757282 41.640625,38.7728155 42.1484375,38.2679612 Z M13.5078125,38.7728155 C14.015625,39.2776699 14.828125,39.5805825 15.640625,40.0854369 C14.3203125,41.0951456 12.6953125,42.9126214 11.6796875,42.6097087 C12.4921875,40.792233 13,39.7825243 13.5078125,38.7728155 Z M19.8046875,38.7728155 C21.0234375,39.2776699 22.34375,39.7825243 24.4765625,42.6097087 C24.4765625,43.4174757 23.96875,43.9223301 23.6640625,44.7300971 C22.6484375,43.9223301 21.53125,43.215534 20.3125,42.407767 C20.0078125,42.407767 20.0078125,42.1048544 19.8046875,42.1048544 C20.0078125,40.792233 20.3125,39.7825243 19.8046875,38.7728155 Z M38.6953125,39.5805825 C38.6953125,39.5805825 39,39.5805825 39,39.5805825 C39.3046875,39.5805825 39.3046875,39.5805825 39.5078125,39.5805825 C40.5234375,40.792233 40.3203125,41.9029126 39.8125,42.6097087 C39,42.1048544 38.4921875,41.6 37.984375,41.0951456 C37.6796875,40.792233 37.4765625,40.2873786 37.171875,40.0854369 C37.4765625,39.7825243 38.1875,39.5805825 38.6953125,39.5805825 Z M10.6640625,39.7825243 C10.96875,39.7825243 11.4765625,39.7825243 11.6796875,39.7825243 C10.6640625,41.9029126 9.140625,43.4174757 7.0078125,44.2252427 C6.5,43.9223301 5.9921875,43.7203883 5.484375,43.7203883 C7.3125,42.407767 7.8203125,39.7825243 10.6640625,39.7825243 Z M44.9921875,40.5902913 C45.5,40.5902913 46.0078125,40.5902913 46.515625,40.792233 C47.0234375,41.6 47.0234375,42.6097087 46.8203125,43.7203883 C46.515625,43.7203883 46.0078125,43.7203883 45.8046875,43.7203883 C45.5,43.7203883 45.1953125,43.7203883 45.1953125,43.7203883 C44.6875,43.215534 44.484375,42.407767 43.671875,41.9029126 C43.671875,41.0951456 43.9765625,40.5902913 44.484375,40.5902913 C44.484375,40.5902913 44.6875,40.5902913 44.9921875,40.5902913 Z M16.3515625,40.5902913 C17.1640625,41.0951456 18.1796875,41.6 18.9921875,42.407767 C17.46875,45.7398058 14.3203125,46.5475728 10.15625,46.2446602 C9.6484375,45.7398058 8.8359375,45.5378641 8.328125,44.9320388 C9.140625,44.4271845 9.8515625,43.9223301 10.6640625,43.215534 C12.6953125,44.4271845 14.5234375,42.407767 16.3515625,40.5902913 Z M26,41.9029126 C26.5078125,42.6097087 27.3203125,43.215534 28.3359375,43.4174757 C28.3359375,43.7203883 28.3359375,44.2252427 28.03125,44.9320388 C27.3203125,44.9320388 26.5078125,45.5378641 25.6953125,46.0427184 C25.4921875,45.7398058 24.984375,45.5378641 24.6796875,45.2349515 C24.984375,43.9223301 25.1875,42.6097087 26,41.9029126 Z M40.828125,41.9029126 C42.65625,41.9029126 43.46875,42.9126214 43.9765625,43.7203883 C43.1640625,43.7203883 42.3515625,43.9223301 41.3359375,43.9223301 C41.03125,43.7203883 40.5234375,43.4174757 40.3203125,43.215534 L40.828125,41.9029126 Z M38.1875,42.9126214 C39,43.4174757 40.3203125,44.4271845 41.640625,45.5378641 C39.3046875,46.0427184 37.4765625,45.2349515 35.6484375,43.9223301 C36.96875,43.4174757 37.6796875,43.215534 38.1875,42.9126214 Z M19.8046875,42.9126214 C20.515625,43.4174757 21.328125,43.9223301 21.8359375,44.4271845 C22.6484375,45.2349515 23.6640625,46.0427184 24.6796875,46.7495146 C22.140625,47.8601942 19.8046875,48.0621359 17.671875,46.0427184 C18.484375,45.2349515 19.1953125,44.2252427 19.8046875,42.9126214 Z M29.3515625,43.7203883 C29.859375,43.9223301 30.671875,43.9223301 31.484375,43.9223301 C31.484375,44.4271845 31.1796875,45.2349515 30.9765625,46.0427184 C30.46875,45.5378641 29.65625,45.2349515 29.1484375,44.9320388 L29.3515625,43.7203883 Z M34.8359375,43.9223301 L35.8515625,44.9320388 L35.140625,46.7495146 L32.1953125,46.5475728 C32.5,45.5378641 32.8046875,44.7300971 32.8046875,43.9223301 C33.515625,44.2252427 34.0234375,44.2252427 34.8359375,43.9223301 Z M46.0078125,44.4271845 L48.6484375,48.0621359 L46.8203125,48.0621359 C46.515625,47.8601942 46.3125,47.5572816 46.0078125,47.2543689 C44.9921875,46.5475728 43.9765625,45.7398058 42.65625,44.9320388 C43.9765625,44.7300971 44.9921875,44.4271845 46.0078125,44.4271845 Z M28.3359375,45.7398058 C29.1484375,45.7398058 29.859375,46.0427184 30.671875,46.7495146 L29.3515625,49.0718447 C28.640625,48.5669903 27.5234375,47.8601942 26.3046875,46.7495146 C27.015625,46.2446602 27.5234375,45.7398058 28.3359375,45.7398058 Z M36.359375,46.0427184 L37.984375,46.5475728 C37.984375,47.5572816 37.984375,48.3650485 37.4765625,49.0718447 C36.6640625,48.5669903 36.15625,48.0621359 35.8515625,47.5572816 L36.359375,46.0427184 Z" id="Shape"></path>
        </g>
    </g>
</svg>