<?xml version="1.0" encoding="UTF-8"?>
<svg width="64px" height="64px" viewBox="0 0 64 64" version="1.1" xmlns="http://www.w3.org/2000/svg" xmlns:xlink="http://www.w3.org/1999/xlink">
    <!-- Generator: Sketch 52.6 (67491) - http://www.bohemiancoding.com/sketch -->
    <title>link</title>
    <desc>Created with Sketch.</desc>
    <g id="link" stroke="none" stroke-width="1" fill="none" fill-rule="evenodd">
        <g id="icon-link" transform="translate(6.000000, 6.000000)" fill="#000000" fill-rule="nonzero">
            <path d="M25.4921875,35.2784314 C22.8515625,37.9294118 20.3125,40.4784314 17.671875,43.1294118 C15.640625,44.9647059 14.015625,44.9647059 11.984375,43.1294118 C10.96875,42.1098039 9.6484375,40.7843137 8.53125,39.7647059 C6.1953125,37.4196078 6.1953125,35.7882353 8.53125,33.4431373 C11.171875,30.8941176 13.8125,28.2431373 16.3515625,25.5921569 C18.1796875,24.0627451 18.1796875,22.5333333 16.3515625,20.6980392 C14.828125,19.0666667 13.3046875,18.8627451 11.4765625,20.6980392 C8.53125,23.2470588 5.9921875,26.2039216 3.3515625,28.7529412 C1.3203125,30.8941176 0,33.4431373 0,36.2980392 C0,41.6 5.9921875,49.3490196 11.6796875,51.1843137 C12.6953125,51.4901961 13.8125,51.6941176 14.828125,52 C18.1796875,52 20.8203125,50.6745098 23.15625,48.3294118 C25.6953125,45.7803922 28.3359375,43.1294118 30.9765625,40.4784314 C33.0078125,38.4392157 33.0078125,37.1137255 31.1796875,35.2784314 C29.1484375,33.4431373 27.5234375,33.4431373 25.4921875,35.2784314 Z M49.359375,8.66666667 C47.53125,6.32156863 45.1953125,4.28235294 42.859375,2.14117647 C39.5078125,-0.71372549 33.8203125,-0.71372549 30.46875,2.14117647 C26.8125,5.30196078 23.6640625,8.66666667 20.3125,12.0313725 C18.9921875,13.3568627 19.1953125,14.8862745 20.3125,16.2117647 C22.140625,18.3529412 23.6640625,18.5568627 25.6953125,16.5176471 C28.3359375,13.8666667 30.9765625,11.0117647 33.8203125,8.36078431 C35.8515625,6.62745098 37.6796875,6.62745098 39.5078125,8.36078431 C40.5234375,9.48235294 41.640625,10.5019608 42.859375,11.827451 C45.1953125,14.172549 45.1953125,16.0078431 42.859375,18.0470588 C40.3203125,20.6980392 37.4765625,23.2470588 34.8359375,26.2039216 C33.3125,27.7333333 33.515625,29.2627451 35.140625,30.8941176 C36.6640625,32.4235294 38.1875,32.7294118 39.8125,31.0980392 C42.859375,27.9372549 46.0078125,24.8784314 49.15625,21.7176471 C50.984375,19.8823529 51.4921875,17.5372549 52,14.6823529 C51.1875,12.5411765 50.6796875,10.1960784 49.359375,8.66666667 Z M16.859375,35.0745098 C18.6875,36.9098039 20.0078125,36.9098039 21.8359375,35.2784314 C26.5078125,30.8941176 30.9765625,26.2039216 35.34375,21.4117647 C35.8515625,20.9019608 36.15625,20.1882353 36.359375,19.6784314 C36.15625,17.3333333 34.53125,16.2117647 33.0078125,15.1921569 C31.6875,14.3764706 30.671875,15.1921569 29.65625,16.0078431 C25.4921875,20.6980392 20.8203125,25.3882353 16.3515625,29.772549 C14.5234375,31.4039216 14.828125,32.9333333 16.859375,35.0745098 Z" id="Shape"></path>
        </g>
    </g>
</svg>