<?xml version="1.0" encoding="UTF-8"?>
<svg width="64px" height="64px" viewBox="0 0 64 64" version="1.1" xmlns="http://www.w3.org/2000/svg" xmlns:xlink="http://www.w3.org/1999/xlink">
    <!-- Generator: Sketch 53.2 (72643) - https://sketchapp.com -->
    <title>load</title>
    <desc>Created with Sketch.</desc>
    <g id="load" stroke="none" stroke-width="1" fill="none" fill-rule="evenodd">
        <path d="M45.2060858,36.886543 L45.2060858,44.0305807 C45.2060858,51.7456779 38.990967,58 31.3242296,58 C23.6574921,58 17.4423734,51.7456779 17.4423734,44.0305807 L21.4423734,44.0305807 C21.4423734,49.5226043 25.8666311,53.974769 31.3242296,53.974769 C36.781828,53.974769 41.2060858,49.5226043 41.2060858,44.0305807 L41.2060858,36.8139163 L36.1705382,41.8812268 L33.342111,39.0349587 L43.17,29.145078 L52.997889,39.0349587 L50.1694618,41.8812268 L45.2060858,36.886543 Z M18.9620244,27.1383304 L19.090602,19.7256631 C19.224405,12.0117409 25.5470459,5.8675244 33.2126157,6.00217142 C40.8781855,6.13681843 46.9838888,12.4993409 46.8500858,20.2132631 L42.850695,20.1430131 C42.9459433,14.651826 38.5995733,10.1226383 33.1428061,10.0267893 C27.6860388,9.93094028 23.185241,14.304726 23.0899928,19.7959131 L22.9674947,26.8580911 L27.8762618,22.0878489 L30.6548953,24.9833578 L20.6569829,34.69913 L11.002111,24.6381533 L13.8794702,21.8419929 L18.9620244,27.1383304 Z" id="Shape" fill="#000000" fill-rule="nonzero"></path>
    </g>
</svg>