<?xml version="1.0" encoding="UTF-8"?>
<svg width="64px" height="64px" viewBox="0 0 64 64" version="1.1" xmlns="http://www.w3.org/2000/svg" xmlns:xlink="http://www.w3.org/1999/xlink">
    <!-- Generator: Sketch 52.6 (67491) - http://www.bohemiancoding.com/sketch -->
    <title>location-orientation-empty</title>
    <desc>Created with Sketch.</desc>
    <g id="location-orientation-empty" stroke="none" stroke-width="1" fill="none" fill-rule="evenodd">
        <g id="icon-location-orientation-empty" transform="translate(6.000000, 6.000000)" fill="#000000" fill-rule="nonzero">
            <path d="M7.63209393,44.4124514 C17.8082192,54.5291829 34.1917808,54.5291829 44.3679061,44.4124514 C54.5440313,34.2957198 54.5440313,18.0077821 44.3679061,7.89105058 C34.4970646,-2.52918288 17.8082192,-2.52918288 7.63209393,7.58754864 C-2.54403131,17.7042802 -2.54403131,34.2957198 7.63209393,44.4124514 Z M10.2778865,41.7821012 C1.42465753,32.9805447 1.42465753,19.0194553 10.2778865,10.2178988 C19.1311155,1.41634241 33.1741683,1.41634241 42.0273973,10.2178988 C50.8806262,19.0194553 50.8806262,32.9805447 42.0273973,41.7821012 C33.1741683,50.5836576 19.1311155,50.5836576 10.2778865,41.7821012 Z M12.8219178,40.4669261 L30.0195695,29.844358 L40.704501,12.7470817 L39.4833659,11.5330739 L22.2857143,22.155642 L11.6007828,39.2529183 L12.8219178,40.4669261 Z" id="Shape"></path>
        </g>
    </g>
</svg>