<?xml version="1.0" encoding="UTF-8"?>
<svg width="64px" height="64px" viewBox="0 0 64 64" version="1.1" xmlns="http://www.w3.org/2000/svg" xmlns:xlink="http://www.w3.org/1999/xlink">
    <!-- Generator: Sketch 52.6 (67491) - http://www.bohemiancoding.com/sketch -->
    <title>location-target</title>
    <desc>Created with Sketch.</desc>
    <g id="location-target" stroke="none" stroke-width="1" fill="none" fill-rule="evenodd">
        <g id="icon-location-target" transform="translate(6.000000, 6.000000)" fill="#000000" fill-rule="nonzero">
            <path d="M26,0 C11.6796875,0 0,11.6796875 0,26 C0,40.3203125 11.6796875,52 26,52 C40.3203125,52 52,40.3203125 52,26 C52,11.6796875 40.3203125,0 26,0 Z M28.640625,46.3125 L28.640625,34.0234375 L23.359375,34.0234375 L23.359375,46.3125 C14.3203125,44.9921875 7.0078125,37.6796875 5.6875,28.640625 L17.9765625,28.640625 L17.9765625,23.359375 L5.6875,23.359375 C6.8046875,14.015625 14.015625,6.8046875 23.359375,5.6875 L23.359375,17.9765625 L28.640625,17.9765625 L28.640625,5.6875 C37.6796875,7.0078125 44.9921875,14.3203125 46.3125,23.359375 L34.0234375,23.359375 L34.0234375,28.640625 L46.3125,28.640625 C45.1953125,37.984375 37.984375,45.1953125 28.640625,46.3125 Z" id="Shape"></path>
        </g>
    </g>
</svg>