<?xml version="1.0" encoding="UTF-8"?>
<svg width="64px" height="64px" viewBox="0 0 64 64" version="1.1" xmlns="http://www.w3.org/2000/svg" xmlns:xlink="http://www.w3.org/1999/xlink">
    <!-- Generator: Sketch 52.6 (67491) - http://www.bohemiancoding.com/sketch -->
    <title>lock-group</title>
    <desc>Created with Sketch.</desc>
    <g id="lock-group" stroke="none" stroke-width="1" fill="none" fill-rule="evenodd">
        <g id="icon-lock-group" transform="translate(11.000000, 6.000000)" fill="#000000" fill-rule="nonzero">
            <path d="M37.8347107,20.2347826 L32.5123967,20.2347826 L32.5123967,13.226087 C32.5123967,4.86086957 28.6942149,0 20.7107438,0 C12.7272727,0 8.90909091,4.86086957 8.90909091,13.226087 L8.90909091,14.4695652 L14.8099174,14.4695652 L14.8099174,12.0956522 C14.8099174,8.02608696 17.1239669,5.76521739 20.7107438,5.76521739 C24.2975207,5.76521739 26.6115702,8.02608696 26.6115702,12.0956522 L26.6115702,20.2347826 L2.89256198,20.2347826 C1.15702479,20.2347826 0,21.9304348 0,23.7391304 L0,46.2347826 C0,47.7043478 1.15702479,49.4 2.89256198,49.9652174 L6.47933884,51.2086957 C7.98347107,51.773913 10.6446281,52 12.3801653,52 L29.6198347,52 C31.1239669,52 33.785124,51.773913 35.5206612,51.2086957 L39.107438,49.9652174 C40.6115702,49.4 42,47.7043478 42,46.2347826 L42,23.7391304 C41.4214876,21.9304348 39.6859504,20.2347826 37.8347107,20.2347826 Z M26.0330579,45.4434783 C22.7933884,46.573913 19.553719,46.573913 16.3140496,46.573913 C14.231405,46.573913 12.1487603,46.0086957 10.2975207,45.6695652 C9.71900826,45.6695652 9.14049587,45.4434783 8.56198347,45.1043478 C7.40495868,44.5391304 7.05785124,43.4086957 7.98347107,42.5043478 C8.56198347,41.9391304 9.71900826,41.6 10.6446281,41.0347826 C11.5702479,40.8086957 12.7272727,40.8086957 13.8842975,40.4695652 C15.3884298,39.9043478 15.6198347,38.4347826 14.4628099,37.5304348 C13.3057851,36.4 12.7272727,35.2695652 12.7272727,33.8 C12.7272727,32.6695652 12.3801653,31.7652174 12.7272727,30.6347826 C12.9586777,28.2608696 15.0413223,26.5652174 17.7024793,26.5652174 C17.7024793,26.5652174 17.7024793,26.5652174 18.0495868,26.5652174 C18.0495868,26.5652174 18.3966942,26.5652174 18.3966942,26.5652174 C18.6280992,26.5652174 18.6280992,26.5652174 18.9752066,26.5652174 C21.2892562,26.9043478 23.0247934,28.2608696 23.3719008,30.6347826 C23.3719008,30.973913 23.7190083,31.5391304 23.7190083,31.7652174 C23.7190083,31.7652174 23.7190083,31.7652174 23.7190083,32.1043478 C23.7190083,33.2347826 23.3719008,34.3652174 23.0247934,35.2695652 C22.7933884,35.8347826 22.446281,36.4 22.214876,36.9652174 C20.7107438,38.4347826 21.2892562,39.9043478 23.0247934,40.4695652 C23.9504132,40.8086957 24.5289256,40.8086957 25.4545455,40.8086957 C26.0330579,40.8086957 26.6115702,41.0347826 27.1900826,41.373913 C28.1157025,41.9391304 28.6942149,42.5043478 28.4628099,43.6347826 C27.5371901,44.7652174 26.6115702,45.1043478 26.0330579,45.4434783 Z M33.2066116,41.373913 C31.9338843,41.9391304 30.7768595,41.9391304 29.6198347,42.1652174 C29.2727273,42.1652174 29.0413223,41.9391304 29.0413223,41.9391304 C27.768595,40.1304348 26.0330579,39.5652174 23.9504132,39.3391304 C23.3719008,39.3391304 22.7933884,39 22.446281,39 C25.107438,34.9304348 25.4545455,31.2 23.3719008,26.9043478 C24.8760331,26 26.3801653,25.6608696 28.1157025,26.5652174 C29.6198347,27.1304348 30.4297521,28.6 30.4297521,30.0695652 C30.4297521,30.973913 30.4297521,31.7652174 30.1983471,32.6695652 C29.8512397,33.573913 29.6198347,34.1391304 29.2727273,34.7043478 C28.4628099,35.8347826 28.4628099,36.9652174 29.8512397,37.5304348 C30.4297521,37.8695652 31.1239669,37.8695652 31.3553719,37.8695652 C32.2809917,37.8695652 33.4380165,38.2086957 34.0165289,39 C34.3636364,39.9043478 34.3636364,40.8086957 33.2066116,41.373913 Z" id="Shape"></path>
        </g>
    </g>
</svg>