<?xml version="1.0" encoding="UTF-8"?>
<svg width="64px" height="64px" viewBox="0 0 64 64" version="1.1" xmlns="http://www.w3.org/2000/svg" xmlns:xlink="http://www.w3.org/1999/xlink">
    <!-- Generator: Sketch 52.6 (67491) - http://www.bohemiancoding.com/sketch -->
    <title>lock-invisible</title>
    <desc>Created with Sketch.</desc>
    <g id="lock-invisible" stroke="none" stroke-width="1" fill="none" fill-rule="evenodd">
        <g id="icon-lock-invisible" transform="translate(11.000000, 6.000000)" fill="#000000" fill-rule="nonzero">
            <path d="M37.8347107,20.2347826 L32.5123967,20.2347826 L32.5123967,13.226087 C32.5123967,4.86086957 28.6942149,0 20.7107438,0 C12.7272727,0 8.90909091,4.86086957 8.90909091,13.226087 L8.90909091,20.2347826 L2.89256198,20.2347826 C1.15702479,20.2347826 0,21.9304348 0,23.7391304 L0,46.2347826 C0,47.7043478 1.15702479,49.4 2.89256198,49.9652174 L6.47933884,51.2086957 C7.98347107,51.773913 10.6446281,52 12.3801653,52 L29.6198347,52 C31.1239669,52 33.785124,51.773913 35.5206612,51.2086957 L39.107438,49.9652174 C40.6115702,49.4 42,47.7043478 42,46.2347826 L42,23.7391304 C41.4214876,21.9304348 39.6859504,20.2347826 37.8347107,20.2347826 Z M14.8099174,12.0956522 C14.8099174,8.02608696 17.1239669,5.76521739 20.7107438,5.76521739 C24.2975207,5.76521739 26.6115702,8.02608696 26.6115702,12.0956522 L26.6115702,20.2347826 L14.8099174,20.2347826 L14.8099174,12.0956522 Z M33.4380165,37.5304348 C26.9586777,46.573913 12.9586777,45.4434783 7.98347107,35.4956522 L7.98347107,34.7043478 C14.4628099,25.6608696 28.4628099,26.9043478 33.4380165,36.7391304 L33.4380165,37.5304348 Z M21.2892562,30.6347826 C18.0495868,30.2956522 15.3884298,32.6695652 15.0413223,35.8347826 C14.8099174,39 17.1239669,41.6 20.3636364,41.9391304 C23.7190083,42.1652174 26.3801653,39.9043478 26.6115702,36.7391304 C26.9586777,33.573913 24.5289256,30.973913 21.2892562,30.6347826 Z M21.0578512,39 C19.553719,39 18.0495868,37.8695652 18.0495868,36.173913 C18.0495868,34.7043478 19.2066116,33.2347826 21.0578512,33.2347826 C22.446281,33.2347826 23.9504132,34.3652174 23.9504132,36.173913 C23.9504132,37.8695652 22.446281,39 21.0578512,39 Z" id="Shape"></path>
        </g>
    </g>
</svg>