<?xml version="1.0" encoding="UTF-8"?>
<svg width="64px" height="64px" viewBox="0 0 64 64" version="1.1" xmlns="http://www.w3.org/2000/svg" xmlns:xlink="http://www.w3.org/1999/xlink">
    <!-- Generator: Sketch 52.6 (67491) - http://www.bohemiancoding.com/sketch -->
    <title>lock-key-old</title>
    <desc>Created with Sketch.</desc>
    <g id="lock-key-old" stroke="none" stroke-width="1" fill="none" fill-rule="evenodd">
        <g id="icon-lock-key-old" transform="translate(6.000000, 17.000000)" fill="#000000" fill-rule="nonzero">
            <path d="M28.03125,11.1702128 C26.5078125,4.89361702 20.8203125,0 14.3203125,0 C6.1953125,0 0,6.80851064 0,15 C0,23.1914894 6.1953125,30 14.3203125,30 C21.328125,30 27.015625,24.5744681 28.3359375,17.7659574 L33.8203125,17.7659574 L33.8203125,25.8510638 L39.8125,25.8510638 L39.8125,17.7659574 L42.65625,17.7659574 L42.65625,29.6808511 L48.6484375,29.6808511 L48.6484375,17.7659574 L52,17.7659574 L52,11.1702128 L28.03125,11.1702128 Z M14.3203125,22.8723404 C10.15625,22.8723404 6.8046875,19.3617021 6.8046875,15 C6.8046875,10.6382979 10.15625,7.12765957 14.3203125,7.12765957 C18.484375,7.12765957 21.8359375,10.6382979 21.8359375,15 C21.8359375,19.3617021 18.484375,22.8723404 14.3203125,22.8723404 Z" id="Shape"></path>
        </g>
    </g>
</svg>