<?xml version="1.0" encoding="UTF-8"?>
<svg width="64px" height="64px" viewBox="0 0 64 64" version="1.1" xmlns="http://www.w3.org/2000/svg" xmlns:xlink="http://www.w3.org/1999/xlink">
    <!-- Generator: Sketch 52.6 (67491) - http://www.bohemiancoding.com/sketch -->
    <title>lock-public</title>
    <desc>Created with Sketch.</desc>
    <g id="lock-public" stroke="none" stroke-width="1" fill="none" fill-rule="evenodd">
        <g id="icon-lock-public" transform="translate(6.000000, 6.000000)" fill="#000000" fill-rule="nonzero">
            <path d="M26,0 C11.6796875,0 0,11.6796875 0,26 C0,40.3203125 11.6796875,52 26,52 C40.3203125,52 52,40.3203125 52,26 C52,11.6796875 40.3203125,0 26,0 Z M18.484375,44.484375 C15.84375,43.46875 13.8125,41.84375 11.984375,40.015625 C10.15625,38.1875 8.53125,35.8515625 7.515625,33.515625 C6.8046875,31.6875 6.1953125,29.859375 6.1953125,28.03125 C5.9921875,26.3046875 5.9921875,24.4765625 6.5,22.34375 C6.5,22.8515625 7.0078125,23.359375 7.515625,23.96875 C9.8515625,26.3046875 12.1875,26.8125 15.3359375,27.828125 C15.640625,27.828125 15.640625,28.03125 15.84375,28.3359375 C16.1484375,28.640625 16.3515625,28.84375 16.859375,29.1484375 C16.859375,29.3515625 16.859375,29.65625 16.859375,29.859375 C16.859375,30.1640625 16.859375,30.671875 16.859375,31.484375 C16.859375,33.515625 18.6875,35.140625 19.1953125,36.96875 C18.6875,39.5078125 18.6875,42.1484375 18.484375,44.484375 Z M40.5234375,39.5078125 C38.1875,42.1484375 35.34375,43.9765625 32.1953125,44.9921875 C28.84375,46.0078125 25.6953125,46.3125 22.140625,45.8046875 C22.6484375,44.6875 23.15625,43.46875 23.6640625,42.3515625 C23.6640625,41.84375 23.6640625,41.3359375 23.96875,41.03125 C24.6796875,39.5078125 25.6953125,39 27.015625,37.6796875 C28.640625,36.359375 28.640625,34.8359375 28.640625,32.8046875 C28.640625,31.484375 26.5078125,30.671875 25.6953125,29.859375 C23.359375,28.640625 22.140625,26.5078125 18.9921875,27.015625 C17.9765625,27.015625 17.671875,27.3203125 16.859375,26.8125 L16.65625,26.5078125 L16.859375,26.3046875 C17.1640625,26 16.65625,25.4921875 16.1484375,25.4921875 C16.1484375,25.4921875 15.84375,25.4921875 15.84375,25.4921875 C15.84375,24.984375 15.3359375,24.4765625 15.3359375,23.96875 C15.84375,24.4765625 16.3515625,24.6796875 16.65625,24.6796875 C16.859375,24.984375 17.46875,24.984375 17.671875,25.1875 C17.9765625,25.1875 18.1796875,25.4921875 18.484375,25.1875 C18.9921875,25.1875 18.9921875,24.6796875 19.1953125,23.96875 C19.1953125,23.15625 19.1953125,22.34375 19.1953125,21.328125 C19.1953125,21.0234375 19.5,21.0234375 19.5,20.8203125 C19.8046875,18.6875 20.8203125,19.1953125 22.34375,18.6875 C22.6484375,18.484375 22.6484375,18.484375 22.6484375,18.1796875 C23.15625,18.1796875 23.359375,17.46875 23.96875,16.65625 C23.6640625,15.84375 22.8515625,15.3359375 22.140625,14.828125 C21.53125,14.3203125 20.0078125,14.5234375 19.8046875,13.8125 C19.5,13.8125 19.1953125,13.8125 18.9921875,13.5078125 C17.671875,12.6953125 16.859375,10.96875 15.3359375,10.359375 C14.828125,10.359375 14.015625,10.359375 13.5078125,10.359375 C15.3359375,8.8359375 17.46875,7.8203125 19.5,7.0078125 C20.515625,7.515625 21.53125,8.0234375 22.8515625,8.53125 C24.171875,9.140625 25.4921875,9.34375 26.8125,9.34375 C27.828125,9.34375 28.640625,9.140625 29.3515625,8.53125 C30.1640625,8.0234375 30.9765625,7.8203125 31.9921875,7.8203125 C33.0078125,7.8203125 34.0234375,8.328125 35.140625,8.328125 C36.359375,9.140625 37.6796875,9.8515625 39,10.96875 C38.4921875,10.96875 37.6796875,10.96875 36.96875,11.171875 C36.15625,11.171875 35.6484375,11.4765625 34.8359375,11.6796875 C34.0234375,11.984375 33.515625,12.1875 33.0078125,12.4921875 C32.5,12.6953125 31.9921875,13.3046875 31.6875,13.5078125 C31.1796875,14.3203125 30.9765625,14.828125 30.9765625,15.03125 C30.671875,16.1484375 30.671875,17.46875 29.859375,18.1796875 C29.65625,18.1796875 29.65625,18.484375 29.3515625,18.484375 C29.3515625,18.6875 29.1484375,18.6875 29.1484375,18.9921875 C29.1484375,19.1953125 29.3515625,19.5 29.3515625,20.0078125 C29.3515625,20.3125 29.65625,20.515625 29.65625,21.0234375 C30.46875,21.0234375 30.9765625,21.0234375 31.6875,20.515625 L35.8515625,20.8203125 C36.96875,19.8046875 37.984375,19.8046875 38.6953125,20.8203125 C39,21.0234375 39.3046875,21.53125 39.8125,22.140625 L38.1875,23.15625 C37.984375,23.15625 37.4765625,22.8515625 36.96875,22.34375 C36.6640625,22.140625 36.359375,22.140625 36.15625,21.8359375 C34.53125,21.0234375 31.6875,21.8359375 30.1640625,22.140625 C29.859375,22.6484375 29.859375,22.8515625 29.3515625,23.15625 C29.3515625,23.359375 29.3515625,23.6640625 29.3515625,23.96875 C28.640625,24.984375 28.3359375,26.3046875 28.640625,27.3203125 C29.1484375,29.1484375 29.859375,30.1640625 31.484375,30.1640625 L32.1953125,30.1640625 C33.0078125,30.1640625 33.515625,30.1640625 33.8203125,30.1640625 C34.0234375,30.1640625 34.328125,30.1640625 34.328125,30.46875 C34.0234375,30.9765625 34.0234375,31.1796875 34.0234375,31.484375 C34.328125,32.1953125 34.8359375,33.0078125 34.8359375,33.8203125 C34.8359375,34.8359375 34.328125,35.8515625 34.8359375,36.96875 C35.34375,37.984375 35.8515625,39.3046875 36.15625,40.3203125 C36.359375,40.5234375 36.6640625,40.828125 36.96875,40.828125 C37.6796875,40.828125 38.4921875,40.5234375 39.3046875,39.5078125 C40.015625,38.6953125 40.3203125,37.984375 40.5234375,36.96875 C40.828125,36.15625 41.3359375,35.34375 41.640625,34.53125 L41.640625,33.8203125 C41.84375,33.515625 41.84375,33.0078125 42.1484375,32.8046875 C42.3515625,32.1953125 42.3515625,31.6875 42.3515625,30.9765625 C42.859375,30.46875 43.46875,29.859375 43.9765625,29.1484375 C44.1796875,28.640625 44.1796875,28.3359375 44.1796875,28.03125 C44.1796875,28.03125 44.1796875,27.828125 43.9765625,27.828125 L43.1640625,27.5234375 C43.1640625,27.015625 43.9765625,27.3203125 44.484375,27.3203125 L46.515625,26 C46.515625,28.640625 46.0078125,30.9765625 44.9921875,33.3125 C43.671875,35.6484375 42.3515625,37.6796875 40.5234375,39.5078125 Z" id="Shape"></path>
        </g>
    </g>
</svg>