<?xml version="1.0" encoding="UTF-8"?>
<svg width="64px" height="64px" viewBox="0 0 64 64" version="1.1" xmlns="http://www.w3.org/2000/svg" xmlns:xlink="http://www.w3.org/1999/xlink">
    <!-- Generator: Sketch 52.6 (67491) - http://www.bohemiancoding.com/sketch -->
    <title>lock</title>
    <desc>Created with Sketch.</desc>
    <g id="lock" stroke="none" stroke-width="1" fill="none" fill-rule="evenodd">
        <g id="icon-lock" transform="translate(11.000000, 6.000000)" fill="#000000" fill-rule="nonzero">
            <path d="M37.8461538,20.2347826 L32.5384615,20.2347826 L32.5384615,13.226087 C32.5384615,4.86086957 28.6153846,0 20.6538462,0 C12.6923077,0 8.88461538,4.86086957 8.88461538,13.226087 L8.88461538,20.2347826 L3,20.2347826 C1.15384615,20.2347826 0,21.9304348 0,23.7391304 L0,46.2347826 C0,47.7043478 1.15384615,49.4 3,49.9652174 L6.46153846,51.2086957 C7.96153846,51.773913 10.6153846,52 12.4615385,52 L29.5384615,52 C31.0384615,52 33.6923077,51.773913 35.4230769,51.2086957 L39,49.9652174 C40.5,49.4 42,47.7043478 42,46.2347826 L42,23.7391304 C41.4230769,21.9304348 39.5769231,20.2347826 37.8461538,20.2347826 Z M26.6538462,20.2347826 L14.7692308,20.2347826 L14.7692308,12.0956522 C14.7692308,8.02608696 17.1923077,5.76521739 20.6538462,5.76521739 C24.2307692,5.76521739 26.6538462,8.02608696 26.6538462,12.0956522 L26.6538462,20.2347826 Z" id="Shape"></path>
        </g>
    </g>
</svg>