<?xml version="1.0" encoding="UTF-8"?>
<svg width="64px" height="64px" viewBox="0 0 64 64" version="1.1" xmlns="http://www.w3.org/2000/svg" xmlns:xlink="http://www.w3.org/1999/xlink">
    <!-- Generator: Sketch 52.6 (67491) - http://www.bohemiancoding.com/sketch -->
    <title>marker-flag</title>
    <desc>Created with Sketch.</desc>
    <g id="marker-flag" stroke="none" stroke-width="1" fill="none" fill-rule="evenodd">
        <g id="icon-marker-flag" transform="translate(6.000000, 9.000000)" fill="#000000">
            <path d="M38.2205029,0.903930131 C38.2205029,0.903930131 29.6711799,5.02183406 20.9206963,1.90829694 C11.6673114,-1.40611354 7.34235977,-0.100436681 3.41972921,4.72052402 C2.71566731,4.51965066 1.91102515,4.51965066 1.10638298,4.72052402 C0.100580271,5.52401747 -0.201160542,6.82969432 0.402321083,7.83406114 L23.2340426,44.8951965 C23.8375242,45.5982533 24.3404255,45.8995633 25.0444874,45.8995633 C25.5473888,45.8995633 25.8491296,45.8995633 26.3520309,45.5982533 C27.3578337,44.8951965 27.6595745,43.5895197 27.1566731,42.5851528 L17.098646,26.1135371 C21.2224371,21.1921397 25.3462282,19.8864629 34.5996132,23.30131 C43.1489362,26.3144105 51.8994197,22.1965066 51.8994197,22.1965066 L38.2205029,0.903930131 Z" id="Path"></path>
        </g>
    </g>
</svg>