<?xml version="1.0" encoding="UTF-8"?>
<svg width="64px" height="64px" viewBox="0 0 64 64" version="1.1" xmlns="http://www.w3.org/2000/svg" xmlns:xlink="http://www.w3.org/1999/xlink">
    <!-- Generator: Sketch 52.6 (67491) - http://www.bohemiancoding.com/sketch -->
    <title>market-camp</title>
    <desc>Created with Sketch.</desc>
    <g id="market-camp" stroke="none" stroke-width="1" fill="none" fill-rule="evenodd">
        <g id="icon-market-camp" transform="translate(6.000000, 6.000000)" fill="#000000" fill-rule="nonzero">
            <path d="M39.9449902,48.6484375 L39.9449902,30.671875 L50.1611002,32.5 L45.4616896,25.4921875 L49.6502947,26.5078125 L45.4616896,18.9921875 L47.8113949,19.5 L37.0844794,0 L26.3575639,19.5 L28.7072692,18.9921875 L24.518664,26.5078125 L28.7072692,25.4921875 L24.0078585,32.5 L34.2239686,30.671875 L34.2239686,48.6484375 L25.8467583,48.6484375 L25.8467583,40.828125 L31.0569745,40.828125 L31.0569745,37.984375 L22.6797642,37.984375 C22.6797642,37.984375 22.9862475,37.6796875 22.9862475,37.4765625 C22.9862475,37.171875 22.6797642,36.6640625 22.475442,36.6640625 C21.9646365,36.6640625 21.6581532,36.96875 21.6581532,36.96875 C21.1473477,36.6640625 17.7760314,36.359375 16.9587426,36.359375 C16.9587426,33.8203125 15.9371316,31.9921875 15.4263261,31.484375 C16.4479371,31.1796875 17.2652259,30.1640625 17.2652259,29.1484375 C17.2652259,27.828125 16.1414538,26.5078125 14.6090373,26.5078125 C13.280943,26.5078125 11.9528487,27.5234375 11.9528487,29.1484375 C11.9528487,29.859375 12.259332,30.46875 12.7701375,30.9765625 C11.9528487,31.6875 7.55992141,36.6640625 7.55992141,40.3203125 C7.55992141,41.3359375 7.76424361,42.3515625 9.39882122,43.671875 L5.41453831,43.671875 L5.41453831,45.5 L9.90962672,45.5 L9.90962672,48.6484375 L0,48.6484375 L0,52 L52,52 L52,48.6484375 L39.9449902,48.6484375 Z M16.6522593,48.6484375 L12.259332,48.6484375 L12.259332,45.5 L16.1414538,45.5 L16.1414538,43.671875 C16.1414538,43.671875 16.6522593,43.9765625 16.6522593,44.484375 C16.6522593,44.6875 16.6522593,48.6484375 16.6522593,48.6484375 Z M22.1689587,48.6484375 L20.3300589,48.6484375 C20.6365422,48.6484375 20.8408644,48.34375 20.8408644,48.140625 C20.8408644,47.8359375 20.6365422,47.53125 20.6365422,47.53125 L19.0019646,47.0234375 C19.0019646,47.0234375 19.0019646,43.671875 19.0019646,42.65625 C19.0019646,41.84375 17.9803536,41.3359375 17.9803536,41.3359375 C17.9803536,41.3359375 15.1198428,40.5234375 14.302554,40.015625 C13.5874263,39.8125 13.5874263,38.6953125 13.5874263,38.6953125 C13.5874263,38.6953125 13.5874263,38.4921875 13.7917485,38.4921875 C14.0982318,38.4921875 14.302554,37.6796875 14.302554,37.4765625 C14.6090373,37.4765625 15.1198428,36.6640625 15.1198428,36.6640625 C15.9371316,37.6796875 17.4695481,37.6796875 17.4695481,37.6796875 L17.4695481,40.5234375 L22.6797642,40.5234375 L22.6797642,48.6484375 L22.1689587,48.6484375 Z" id="Shape"></path>
        </g>
    </g>
</svg>