<?xml version="1.0" encoding="UTF-8"?>
<svg width="64px" height="64px" viewBox="0 0 64 64" version="1.1" xmlns="http://www.w3.org/2000/svg" xmlns:xlink="http://www.w3.org/1999/xlink">
    <!-- Generator: Sketch 52.6 (67491) - http://www.bohemiancoding.com/sketch -->
    <title>marker-coffee</title>
    <desc>Created with Sketch.</desc>
    <g id="marker-coffee" stroke="none" stroke-width="1" fill="none" fill-rule="evenodd">
        <g id="icon-marker-coffee" transform="translate(6.000000, 13.000000)" fill="#000000" fill-rule="nonzero">
            <path d="M42.0772947,1.88741722 C39.1884058,1.88741722 38.1835749,2.51655629 35.9227053,4.15231788 L35.9227053,0 L0,0 L0,16.7350993 C0,24.7880795 5.14975845,33.4701987 10.5507246,38 L26,38 C28.8888889,35.4834437 32.1545894,30.3245033 32.7826087,28.6887417 C33.6618357,26.6754967 34.6666667,26.4238411 35.0434783,26.4238411 C35.294686,26.4238411 36.9275362,26.6754967 37.3043478,26.6754967 C43.7101449,26.6754967 52,21.8940397 52,13.4635762 C52,4.78145695 45.3429952,1.88741722 42.0772947,1.88741722 Z M34.4154589,23.5298013 C35.294686,20.8874172 35.9227053,17.7417219 35.9227053,13.4635762 C35.9227053,9.68874172 37.3043478,5.41059603 41.7004831,5.41059603 C44.9661836,5.41059603 45.9710145,7.67549669 46.8502415,9.68874172 C47.6038647,10.9470199 47.8550725,12.5827815 47.8550725,13.8410596 C48.2318841,18.3708609 43.3333333,24.7880795 34.4154589,23.5298013 Z" id="Shape"></path>
        </g>
    </g>
</svg>