<?xml version="1.0" encoding="UTF-8"?>
<svg width="64px" height="64px" viewBox="0 0 64 64" version="1.1" xmlns="http://www.w3.org/2000/svg" xmlns:xlink="http://www.w3.org/1999/xlink">
    <!-- Generator: Sketch 52.6 (67491) - http://www.bohemiancoding.com/sketch -->
    <title>marker-station</title>
    <desc>Created with Sketch.</desc>
    <g id="marker-station" stroke="none" stroke-width="1" fill="none" fill-rule="evenodd">
        <g id="icon-marker-station" transform="translate(9.000000, 6.000000)" fill="#000000" fill-rule="nonzero">
            <path d="M25.4341253,20.6990291 C24.1425486,20.6990291 22.8509719,19.6893204 22.8509719,18.0737864 L22.8509719,7.77475728 C22.8509719,6.46213592 23.8444924,5.14951456 25.4341253,5.14951456 L38.1511879,5.14951456 C39.3434125,5.14951456 40.6349892,6.1592233 40.6349892,7.77475728 L40.6349892,18.0737864 C40.6349892,19.6893204 39.3434125,20.6990291 38.1511879,20.6990291 L25.4341253,20.6990291 Z M11.425486,44.9320388 C11.425486,47.5572816 9.33909287,49.6776699 6.85529158,49.6776699 C4.27213823,49.6776699 2.28509719,47.5572816 2.28509719,44.9320388 C2.28509719,44.2252427 2.4838013,43.7203883 2.78185745,42.9126214 L11.1274298,26.6563107 L11.1274298,44.9320388 L11.425486,44.9320388 Z M11.425486,15.7514563 L10.1339093,23.5262136 L0.695464363,41.6 C0,42.6097087 0,43.7203883 0,44.9320388 C0,48.8699029 2.98056156,52 6.85529158,52 C10.9287257,52 13.9092873,48.8699029 13.9092873,44.9320388 L13.9092873,15.7514563 L17.7840173,15.7514563 L17.7840173,48.0621359 L20.2678186,48.0621359 L20.2678186,52 L43.4168467,52 L43.4168467,48.0621359 L46,48.0621359 L46,2.62524272 C46,1.31262136 45.0064795,0 43.4168467,0 L20.2678186,0 C19.075594,0 17.7840173,1.31262136 17.7840173,2.62524272 L17.7840173,5.14951456 L13.9092873,5.14951456 C12.7170626,5.14951456 11.425486,6.1592233 11.425486,7.77475728 L11.425486,15.7514563 Z" id="Shape"></path>
        </g>
    </g>
</svg>