<?xml version="1.0" encoding="UTF-8"?>
<svg width="64px" height="64px" viewBox="0 0 64 64" version="1.1" xmlns="http://www.w3.org/2000/svg" xmlns:xlink="http://www.w3.org/1999/xlink">
    <!-- Generator: Sketch 52.6 (67491) - http://www.bohemiancoding.com/sketch -->
    <title>markings-hatchedroad</title>
    <desc>Created with Sketch.</desc>
    <g id="markings-hatchedroad" stroke="none" stroke-width="1" fill="none" fill-rule="evenodd">
        <g id="icon-markings-hatchedroad" transform="translate(6.000000, 12.000000)" fill="#000000" fill-rule="nonzero">
            <path d="M19.6348548,5.54347826 L34.846473,13.9130435 L32.5809129,17.173913 L17.6929461,8.58695652 L19.6348548,5.54347826 Z M19.6348548,5.54347826 L34.846473,13.9130435 L32.5809129,17.173913 L17.6929461,8.58695652 L19.6348548,5.54347826 Z M19.6348548,5.54347826 L34.846473,13.9130435 L32.5809129,17.173913 L17.6929461,8.58695652 L19.6348548,5.54347826 Z M17.4771784,22.826087 L38.9460581,34.4565217 L35.9253112,39.2391304 L14.6721992,27.2826087 L17.4771784,22.826087 Z M17.4771784,22.826087 L38.9460581,34.4565217 L35.9253112,39.2391304 L14.6721992,27.2826087 L17.4771784,22.826087 Z M17.4771784,22.826087 L38.9460581,34.4565217 L35.9253112,39.2391304 L14.6721992,27.2826087 L17.4771784,22.826087 Z M10.7883817,0 L17.153527,0 L9.70954357,40 L0,40 L10.7883817,0 Z M41.2116183,0 L34.5228216,0 L41.966805,40 L52,40 L41.2116183,0 Z" id="Shape"></path>
        </g>
    </g>
</svg>