<?xml version="1.0" encoding="UTF-8"?>
<svg width="64px" height="64px" viewBox="0 0 64 64" version="1.1" xmlns="http://www.w3.org/2000/svg" xmlns:xlink="http://www.w3.org/1999/xlink">
    <!-- Generator: Sketch 52.6 (67491) - http://www.bohemiancoding.com/sketch -->
    <title>marker-historical</title>
    <desc>Created with Sketch.</desc>
    <g id="marker-historical" stroke="none" stroke-width="1" fill="none" fill-rule="evenodd">
        <g id="icon-marker-historical" transform="translate(6.000000, 8.000000)" fill="#000000" fill-rule="nonzero">
            <path d="M47.53125,41.9645094 L47.53125,9.74112735 L41.640625,9.74112735 L41.640625,17.6179541 L36.359375,17.6179541 L36.359375,9.74112735 L30.46875,9.74112735 L30.46875,17.6179541 L26,17.6179541 L26,0.306889353 L20.0078125,0.306889353 L20.0078125,6.36534447 L14.828125,6.36534447 L14.828125,-2.27373675e-13 L8.53125,-2.27373675e-13 L8.53125,11.3778706 L4.46875,11.3778706 L4.46875,41.9645094 L0,45.3402923 L0,48 L52,48 L52,45.3402923 L47.53125,41.9645094 Z M15.84375,41.2484342 L8.8359375,41.2484342 C8.8359375,41.2484342 8.8359375,39.9185804 8.8359375,36.2359081 C8.8359375,32.8601253 12.4921875,30.7118998 12.4921875,30.7118998 C12.4921875,30.7118998 16.1484375,32.8601253 16.1484375,36.2359081 C15.84375,39.611691 15.84375,41.2484342 15.84375,41.2484342 Z M16.65625,22.8350731 C16.3515625,22.8350731 16.1484375,22.6304802 15.84375,22.3235908 L12.6953125,22.3235908 L12.6953125,25.4947808 C13,25.6993737 13,26.006263 13,26.3131524 C13,26.8246347 12.6953125,27.0292276 12.1875,27.0292276 C11.6796875,27.0292276 11.4765625,26.8246347 11.4765625,26.3131524 C11.4765625,26.006263 11.6796875,25.6993737 11.984375,25.4947808 L11.984375,22.3235908 L8.53125,22.3235908 C8.53125,22.6304802 8.328125,22.8350731 7.8203125,22.8350731 C7.3125,22.8350731 7.0078125,22.6304802 7.0078125,22.1189979 C7.0078125,21.6075157 7.515625,20.993737 7.8203125,20.993737 C8.0234375,20.993737 8.328125,21.3006263 8.53125,21.6075157 L11.6796875,21.6075157 L11.6796875,18.4363257 C11.4765625,18.1294363 11.4765625,17.9248434 11.4765625,17.6179541 C11.4765625,17.1064718 11.6796875,16.7995825 12.1875,16.7995825 C12.6953125,16.5949896 13,17.1064718 13,17.6179541 C13,17.9248434 13,18.1294363 12.6953125,18.4363257 L12.6953125,21.6075157 L15.84375,21.6075157 C16.1484375,21.3006263 16.3515625,20.993737 16.65625,20.993737 C17.1640625,20.993737 17.46875,21.3006263 17.46875,21.8121086 C17.46875,22.3235908 17.1640625,22.8350731 16.65625,22.8350731 Z M38.6953125,29.8935282 L34.328125,29.8935282 C34.328125,29.8935282 34.328125,29.6889353 34.328125,27.3361169 C34.328125,24.9832985 36.359375,23.6534447 36.359375,23.6534447 C36.359375,23.6534447 38.4921875,24.9832985 38.4921875,27.3361169 C38.6953125,29.6889353 38.6953125,29.8935282 38.6953125,29.8935282 Z" id="Shape"></path>
        </g>
    </g>
</svg>