<?xml version="1.0" encoding="UTF-8"?>
<svg width="64px" height="64px" viewBox="0 0 64 64" version="1.1" xmlns="http://www.w3.org/2000/svg" xmlns:xlink="http://www.w3.org/1999/xlink">
    <!-- Generator: Sketch 52.6 (67491) - http://www.bohemiancoding.com/sketch -->
    <title>math-sum</title>
    <desc>Created with Sketch.</desc>
    <g id="math-sum" stroke="none" stroke-width="1" fill="none" fill-rule="evenodd">
        <g id="icon-math-sum" transform="translate(13.000000, 6.000000)" fill="#000000">
            <path d="M12.9361702,3.65625 L24.8617021,22.140625 L24.8617021,24.171875 L10.106383,44.484375 L26.1755319,44.484375 C27.1861702,44.484375 28.1968085,44.484375 28.7021277,44.1796875 C29.5106383,43.9765625 30.0159574,43.9765625 30.5212766,43.46875 C31.0265957,43.1640625 31.3297872,42.65625 31.8351064,42.1484375 C32.1382979,41.640625 32.643617,40.828125 32.8457447,40.015625 C33.1489362,39 33.3510638,37.984375 33.6542553,36.6640625 L38,36.6640625 L36.787234,52 L0,52 L0,49.96875 L16.5744681,27.015625 L1.0106383,2.640625 L1.0106383,0 L36.9893617,0 L36.9893617,12.6953125 L32.8457447,12.6953125 C32.3404255,10.6640625 31.8351064,9.140625 31.3297872,7.8203125 C30.8244681,6.8046875 30.3191489,5.6875 29.8138298,5.1796875 C29.2074468,4.671875 28.7021277,4.1640625 27.9946809,3.859375 C27.1861702,3.65625 26.3776596,3.65625 25.0638298,3.65625 L12.9361702,3.65625 Z" id="Path"></path>
        </g>
    </g>
</svg>