<?xml version="1.0" encoding="UTF-8"?>
<svg width="64px" height="64px" viewBox="0 0 64 64" version="1.1" xmlns="http://www.w3.org/2000/svg" xmlns:xlink="http://www.w3.org/1999/xlink">
    <!-- Generator: Sketch 52.6 (67491) - http://www.bohemiancoding.com/sketch -->
    <title>math-ab</title>
    <desc>Created with Sketch.</desc>
    <g id="math-ab" stroke="none" stroke-width="1" fill="none" fill-rule="evenodd">
        <g id="icon-math-ab" transform="translate(6.000000, 7.000000)" fill="#000000" fill-rule="nonzero">
            <path d="M6.48441247,22.5247525 C11.3477218,16.460396 16.0863309,13.2425743 20.9496403,13.2425743 C22.8201439,13.2425743 24.441247,13.8613861 25.3141487,14.8514851 C25.6882494,15.8415842 26.3117506,16.7079208 26.6858513,18.6881188 L27.9328537,14.6039604 L35.9136691,13.8613861 L30.8009592,31.9306931 C30.177458,34.529703 29.5539568,36.3861386 29.1798561,37.9950495 C28.5563549,40.470297 28.1822542,42.450495 28.1822542,43.3168317 C28.1822542,43.6881188 28.1822542,44.0594059 28.5563549,44.3069307 C28.9304556,44.6782178 28.9304556,44.6782178 29.1798561,44.6782178 C29.5539568,44.6782178 30.177458,44.3069307 30.4268585,44.0594059 C30.8009592,43.6881188 31.4244604,43.0693069 32.0479616,42.450495 C32.4220624,42.0792079 32.6714628,41.460396 33.294964,40.8415842 C34.0431655,40.2227723 34.2925659,39.6039604 34.9160671,38.9851485 L36.5371703,40.2227723 C34.2925659,43.3168317 32.4220624,45.5445545 30.4268585,47.5247525 C28.5563549,49.1336634 26.6858513,50 24.6906475,50 C23.4436451,50 22.4460432,49.7524752 21.1990408,48.7623762 C20.2014388,47.7722772 19.5779376,46.5346535 19.5779376,44.9257426 C19.5779376,44.3069307 19.9520384,42.6980198 20.5755396,40.2227723 C20.5755396,40.2227723 20.5755396,40.2227723 20.2014388,40.8415842 C20.2014388,40.8415842 19.9520384,41.460396 19.3285372,42.450495 C18.0815348,44.3069307 16.4604317,46.2871287 14.4652278,47.5247525 C12.5947242,49.1336634 10.7242206,49.7524752 8.47961631,49.7524752 C6.48441247,49.7524752 4.61390887,49.1336634 2.74340528,47.5247525 C0.748201439,45.9158416 0.12470024,43.3168317 0.12470024,39.6039604 C-0.12470024,34.1584158 2.11990408,28.2178218 6.48441247,22.5247525 Z M24.6906475,18.3168317 C24.0671463,17.0792079 23.1942446,16.460396 21.822542,16.460396 C18.9544365,16.460396 16.0863309,19.5544554 13.2182254,26.2376238 C10.7242206,31.9306931 9.35251799,36.7574257 9.35251799,39.6039604 C9.35251799,40.8415842 9.72661871,41.8316832 10.3501199,42.6980198 C10.9736211,43.6881188 11.5971223,44.0594059 12.9688249,44.0594059 C15.4628297,44.0594059 18.3309353,40.470297 21.5731415,33.9108911 C23.8177458,28.2178218 25.0647482,23.7623762 25.0647482,20.2970297 C25.0647482,19.5544554 24.6906475,18.9356436 24.6906475,18.3168317 Z M37.7841727,18.9356436 L42.0239808,4.08415842 C42.0239808,3.71287129 42.0239808,3.46534653 42.2733813,3.46534653 C42.2733813,3.09405941 42.2733813,3.09405941 42.2733813,2.84653465 C42.2733813,2.47524752 42.2733813,2.22772277 42.0239808,2.22772277 C41.6498801,2.22772277 41.2757794,2.22772277 40.4028777,2.22772277 L40.4028777,0.866336634 L43.5203837,0.618811881 L46.7625899,0 L44.1438849,9.77722772 C44.8920863,8.78712871 45.5155875,8.16831683 46.1390887,7.92079208 C46.7625899,7.54950495 47.7601918,7.3019802 48.383693,7.3019802 C49.2565947,7.3019802 50.2541966,7.54950495 50.8776978,8.16831683 C51.501199,8.78712871 51.8752998,9.77722772 51.8752998,11.0148515 C51.8752998,13.2425743 50.8776978,15.470297 49.0071942,17.6980198 C47.1366906,20.2970297 44.5179856,21.1633663 42.0239808,21.1633663 C41.0263789,21.1633663 40.028777,20.9158416 39.1558753,20.5445545 C38.1582734,20.2970297 37.7841727,19.5544554 37.7841727,19.3069307 C37.7841727,19.5544554 37.7841727,19.3069307 37.7841727,18.9356436 Z M47.3860911,9.77722772 C47.1366906,9.52970297 46.7625899,9.15841584 46.3884892,9.15841584 C45.764988,9.15841584 44.8920863,9.77722772 44.1438849,11.0148515 C43.8944844,11.6336634 43.5203837,12.3762376 43.2709832,13.2425743 C42.8968825,13.8613861 42.647482,15.2227723 42.2733813,16.7079208 C42.0239808,18.3168317 41.6498801,19.3069307 41.6498801,19.5544554 C41.6498801,19.5544554 41.6498801,19.9257426 42.0239808,20.2970297 C42.0239808,20.5445545 42.2733813,20.5445545 42.8968825,20.5445545 C44.5179856,20.5445545 45.764988,19.3069307 47.1366906,16.7079208 C48.0095923,14.8514851 48.383693,12.9950495 48.383693,11.3861386 C47.7601918,10.3960396 47.7601918,10.1485149 47.3860911,9.77722772 Z" id="Shape"></path>
        </g>
    </g>
</svg>