<?xml version="1.0" encoding="UTF-8"?>
<svg width="64px" height="64px" viewBox="0 0 64 64" version="1.1" xmlns="http://www.w3.org/2000/svg" xmlns:xlink="http://www.w3.org/1999/xlink">
    <!-- Generator: Sketch 52.6 (67491) - http://www.bohemiancoding.com/sketch -->
    <title>math-tilde</title>
    <desc>Created with Sketch.</desc>
    <g id="math-tilde" stroke="none" stroke-width="1" fill="none" fill-rule="evenodd">
        <g id="icon-math-tilde" transform="translate(6.000000, 22.000000)" fill="#000000">
            <path d="M0,13.3333333 C1.015625,11.6666667 2.03125,10.1041667 3.1484375,8.54166667 C4.1640625,7.1875 5.1796875,5.83333333 6.1953125,4.79166667 C7.3125,3.75 8.0234375,2.91666667 8.8359375,2.39583333 C9.6484375,1.875 10.359375,1.35416667 11.171875,1.04166667 C11.984375,0.729166667 12.6953125,0.520833333 13.5078125,0.208333333 C14.015625,0.208333333 14.828125,0 15.640625,0 C16.859375,0 17.9765625,0.208333333 19.1953125,0.520833333 C20.3125,1.04166667 21.328125,1.5625 22.34375,2.08333333 C23.359375,2.60416667 24.984375,3.75 27.3203125,5.3125 C29.859375,7.1875 31.6875,8.54166667 32.8046875,9.0625 C33.8203125,9.58333333 35.140625,9.79166667 36.359375,9.79166667 C37.171875,9.79166667 37.6796875,9.79166667 38.4921875,9.58333333 C39,9.27083333 39.8125,9.0625 40.5234375,8.54166667 C41.3359375,8.02083333 41.84375,7.39583333 42.65625,6.66666667 C43.1640625,5.83333333 44.484375,4.47916667 45.8046875,2.39583333 L52,6.875 C49.96875,10.4166667 48.140625,12.8125 46.515625,14.6875 C44.9921875,16.4583333 43.46875,17.8125 41.84375,18.6458333 C40.3203125,19.6875 38.4921875,20 36.359375,20 C35.34375,20 34.328125,19.6875 33.3125,19.4791667 C32.1953125,19.1666667 31.1796875,18.6458333 29.859375,18.125 C28.640625,17.6041667 26.8125,16.25 24.4765625,14.375 C22.6484375,13.0208333 21.328125,12.1875 20.515625,11.6666667 C19.8046875,11.1458333 18.9921875,10.9375 17.9765625,10.4166667 C17.1640625,10.1041667 16.3515625,9.79166667 15.640625,9.79166667 C14.828125,9.79166667 14.015625,9.79166667 13.5078125,10.1041667 C12.6953125,10.4166667 12.1875,10.625 11.4765625,11.1458333 C10.6640625,11.6666667 10.15625,12.1875 9.34375,13.0208333 C8.53125,13.8541667 7.515625,15.2083333 6.1953125,17.2916667 L0,13.3333333 Z" id="Path"></path>
        </g>
    </g>
</svg>