<?xml version="1.0" encoding="UTF-8"?>
<svg width="64px" height="64px" viewBox="0 0 64 64" version="1.1" xmlns="http://www.w3.org/2000/svg" xmlns:xlink="http://www.w3.org/1999/xlink">
    <!-- Generator: Sketch 52.6 (67491) - http://www.bohemiancoding.com/sketch -->
    <title>math-number</title>
    <desc>Created with Sketch.</desc>
    <g id="math-number" stroke="none" stroke-width="1" fill="none" fill-rule="evenodd">
        <g id="icon-math-number" transform="translate(5.000000, 20.000000)" fill="#000000" fill-rule="nonzero">
            <path d="M13.3827624,23.6842105 L7.21414538,23.6842105 L7.21414538,11.5789474 C7.21414538,10.2105263 7.21414538,8.84210526 7.21414538,7.47368421 C7.00503972,7.78947368 6.37772273,8.31578947 5.85495857,8.84210526 L3.24113778,11.0526316 L0,6.94736842 L7.73690954,0.526315789 L13.3827624,0.526315789 L13.3827624,23.6842105 Z M34.8160929,23.6842105 L18.5058512,23.6842105 L18.5058512,19.6842105 L24.0471513,14 C25.7199966,12.4210526 26.7655249,11.2631579 27.2882891,10.5263158 C27.8110532,10 28.1247117,9.36842105 28.3338174,8.84210526 C28.6474759,8.31578947 28.6474759,8.10526316 28.6474759,7.47368421 C28.6474759,6.94736842 28.3338174,6.42105263 28.1247117,6.21052632 C27.2882891,5.68421053 26.7655249,5.68421053 26.2427607,5.68421053 C25.4063381,5.68421053 24.6744683,5.68421053 24.0471513,6.21052632 C23.3152815,6.42105263 22.4788588,7.26315789 21.4333305,8.10526316 L18.1921927,4 C19.237721,2.94736842 20.3878022,2.10526316 21.119672,1.89473684 C21.9560946,1.36842105 22.7925173,1.05263158 23.8380456,0.736842105 C24.6744683,0.526315789 25.7199966,0.210526316 26.7655249,0.210526316 C28.3338174,0.210526316 29.4838985,0.526315789 30.7385325,1.05263158 C31.8886136,1.57894737 32.934142,2.42105263 33.4569061,3.26315789 C33.9796703,4.31578947 34.5024344,5.36842105 34.5024344,6.42105263 C34.5024344,7.26315789 34.5024344,8.10526316 34.2933288,8.84210526 C33.9796703,9.68421053 33.7705646,10.5263158 33.1432476,11.0526316 C32.6204835,11.7894737 32.0977193,12.6315789 31.3658495,13.4736842 C30.5294268,14.2105263 28.8565815,15.8947368 26.2427607,18 L26.2427607,18.3157895 L34.8160929,18.3157895 L34.8160929,23.6842105 Z M52.6946271,5.68421053 C52.6946271,6.94736842 52.171863,8.31578947 51.4399932,9.36842105 C50.6035705,10.5263158 49.2443837,11.2631579 47.6760912,11.5789474 C51.4399932,12.1052632 53.2173913,14 53.2173913,16.9473684 C53.2173913,19.1578947 52.4855215,20.7368421 50.8126762,22.1052632 C49.2443837,23.4736842 46.8396686,24 43.9121893,24 C42.5530025,24 41.5074742,24 40.4619458,23.6842105 C39.3118647,23.4736842 38.2663364,23.1578947 36.9071496,22.6315789 L36.9071496,17.4736842 C38.0572307,18 39.102759,18.3157895 39.8346289,18.5263158 C40.98471,18.8421053 41.7165798,18.8421053 42.866661,18.8421053 C44.121295,18.8421053 45.2713761,18.5263158 45.7941403,18.3157895 C46.3169044,18 46.5260101,17.2631579 46.5260101,16.4210526 C46.5260101,15.8947368 46.3169044,15.3684211 46.0032459,15.0526316 C45.7941403,14.8421053 45.2713761,14.5263158 44.4349534,14.2105263 C43.5985308,14 42.866661,14 41.7165798,14 L40.4619458,14 L40.4619458,9.36842105 L41.7165798,9.36842105 C44.9577176,9.36842105 46.5260101,8.63157895 46.5260101,6.94736842 C46.5260101,6.42105263 46.3169044,5.89473684 45.7941403,5.68421053 C45.2713761,5.36842105 44.7486119,5.05263158 43.9121893,5.05263158 C42.5530025,5.05263158 40.98471,5.68421053 39.3118647,6.42105263 L36.6980439,2.42105263 C38.0572307,1.57894737 39.102759,1.05263158 40.4619458,0.526315789 C41.7165798,0.210526316 43.0757666,0 44.7486119,0 C47.1533271,0 48.9307252,0.526315789 50.289912,1.36842105 C52.171863,2.63157895 52.6946271,4 52.6946271,5.68421053 Z" id="Shape"></path>
        </g>
    </g>
</svg>