<?xml version="1.0" encoding="UTF-8"?>
<svg width="64px" height="64px" viewBox="0 0 64 64" version="1.1" xmlns="http://www.w3.org/2000/svg" xmlns:xlink="http://www.w3.org/1999/xlink">
    <!-- Generator: Sketch 52.6 (67491) - http://www.bohemiancoding.com/sketch -->
    <title>math-approximate</title>
    <desc>Created with Sketch.</desc>
    <g id="math-approximate" stroke="none" stroke-width="1" fill="none" fill-rule="evenodd">
        <g id="icon-math-approximate" transform="translate(6.000000, 11.000000)" fill="#000000" fill-rule="nonzero">
            <path d="M0,35.0859951 C1.021611,33.5380835 2.043222,31.990172 3.06483301,30.3390663 C4.18860511,28.7911548 5.21021611,27.7592138 5.92534381,26.6240786 C6.74263261,25.5921376 7.76424361,25.0761671 8.58153242,24.2506143 C9.39882122,24.044226 10.1139489,23.5282555 10.9312377,22.9090909 C11.7485265,22.7027027 12.4636542,22.3931204 13.280943,22.1867322 C14.0982318,21.8771499 14.8133595,21.8771499 15.6306483,21.8771499 C16.9587426,21.8771499 17.9803536,22.1867322 19.3084479,22.3931204 C20.3300589,22.7027027 21.6581532,23.2186732 22.6797642,24.044226 C23.8035363,24.5601966 25.3359528,25.5921376 27.3791749,27.1400491 C30.0353635,28.997543 31.8742633,30.3390663 32.8958743,30.8550369 C33.9174853,31.3710074 35.2455796,31.6805897 36.5736739,31.6805897 C38.1060904,31.6805897 39.4341847,31.1646192 40.4557957,30.3390663 C41.78389,29.5135135 43.1119843,27.965602 44.6444008,25.5921376 L51.1827112,30.1326781 C49.3438114,33.022113 47.5049116,35.0859951 46.2789784,36.9434889 C44.6444008,38.5945946 43.1119843,39.8329238 41.78389,40.6584767 C40.2514735,41.4840295 38.6168959,42 36.8801572,42 C35.7563851,42 34.7347741,41.6904177 33.7131631,41.4840295 C32.6915521,41.1744472 31.56778,40.6584767 30.546169,40.1425061 C29.2180747,39.6265356 27.6856582,38.2850123 25.0294695,36.7371007 C23.1905697,35.3955774 21.9646365,34.5700246 21.1473477,34.0540541 C20.3300589,33.5380835 19.6149312,33.2285012 18.4911591,32.7125307 C17.7760314,32.5061425 16.9587426,32.1965602 16.1414538,32.1965602 C15.4263261,32.1965602 14.6090373,32.1965602 14.0982318,32.5061425 C13.280943,32.7125307 12.7701375,33.022113 11.9528487,33.5380835 C10.9312377,34.0540541 10.1139489,34.5700246 9.39882122,35.3955774 C8.58153242,36.1179361 7.55992141,37.4594595 6.23182711,39.6265356 L0,35.0859951 Z M1.021611,11.5577396 C3.06483301,8.66830467 4.69941061,6.29484029 5.92534381,4.74692875 C7.25343811,3.0958231 8.88801572,2.06388206 10.4204322,1.03194103 C11.9528487,0 13.5874263,0 15.4263261,0 C16.6522593,0 17.7760314,0.206388206 19.0019646,0.515970516 C20.1257367,0.722358722 21.3516699,1.34152334 22.475442,2.06388206 C23.497053,2.57985258 25.0294695,3.71498771 27.1748527,5.26289926 C29.7288802,7.12039312 31.56778,8.46191646 32.6915521,8.97788698 C33.7131631,9.49385749 35.0412574,9.7002457 36.2671906,9.7002457 C37.0844794,9.7002457 37.5952849,9.7002457 38.4125737,9.49385749 C38.9233792,9.18427518 39.740668,8.97788698 40.2514735,8.46191646 C40.9666012,7.63636364 41.5795678,7.12039312 42.2946955,6.29484029 C42.805501,5.57248157 43.9292731,4.23095823 45.4616896,2.06388206 L52,6.6044226 C49.956778,10.009828 48.1178782,12.3832924 46.4833006,14.2407862 C44.6444008,16.0982801 43.1119843,17.4398034 41.5795678,18.1621622 C39.9449902,18.987715 38.1060904,19.5036855 36.0628684,19.5036855 C35.0412574,19.5036855 33.9174853,19.2972973 32.8958743,18.987715 C31.8742633,18.7813268 30.8526523,18.1621622 29.7288802,17.6461916 C28.502947,17.1302211 26.8683694,15.7886978 24.3143418,14.2407862 C22.6797642,13.2088452 21.3516699,12.1769042 20.6365422,11.5577396 C19.8192534,11.041769 18.7976424,10.8353808 17.9803536,10.5257985 C17.2652259,10.3194103 16.4479371,10.009828 15.6306483,10.009828 C14.0982318,10.009828 12.4636542,10.5257985 11.4420432,11.3513514 C10.1139489,12.1769042 8.88801572,13.7248157 7.25343811,16.0982801 L1.021611,11.5577396 Z" id="Shape"></path>
        </g>
    </g>
</svg>