<?xml version="1.0" encoding="UTF-8"?>
<svg width="64px" height="64px" viewBox="0 0 64 64" version="1.1" xmlns="http://www.w3.org/2000/svg" xmlns:xlink="http://www.w3.org/1999/xlink">
    <!-- Generator: Sketch 52.6 (67491) - http://www.bohemiancoding.com/sketch -->
    <title>math-any</title>
    <desc>Created with Sketch.</desc>
    <g id="math-any" stroke="none" stroke-width="1" fill="none" fill-rule="evenodd">
        <g id="icon-math-any" transform="translate(6.000000, 20.000000)" fill="#000000" fill-rule="nonzero">
            <path d="M3.1,4.33613445 C5.2,1.51260504 7.5,0 9.5,0 C10.5,0 11,0.201680672 11.6,1.00840336 C11.8,1.31092437 12.1,1.81512605 12.3,2.5210084 L12.8,0.705882353 L16.4,0.504201681 L14.1,8.77310924 C13.9,9.78151261 13.6,10.789916 13.6,11.2941176 C13.3,12.605042 13.1,13.4117647 13.1,13.9159664 C13.1,14.2184874 13.1,14.2184874 13.3,14.4201681 C13.3,14.4201681 13.6,14.4201681 13.6,14.4201681 C13.9,14.4201681 14.1,14.4201681 14.1,14.2184874 C14.4,13.9159664 14.6,13.9159664 14.9,13.4117647 C14.9,13.4117647 15.1,13.1092437 15.4,12.605042 C15.6,12.4033613 15.9,11.8991597 16.2,11.8991597 L16.9,12.4033613 C15.9,13.6134454 15.1,14.9243697 14.1,15.7310924 C13.3,16.5378151 12.3,17.0420168 11.6,17.0420168 C11,17.0420168 10.5,16.7394958 10,16.5378151 C9.5,16.0336134 9.2,15.4285714 9.2,14.7226891 C9.2,14.4201681 9.5,13.6134454 9.8,12.4033613 C9.8,12.4033613 9.8,12.4033613 9.5,12.605042 C9.2,12.907563 9.2,13.1092437 9,13.6134454 C8.5,14.7226891 7.7,15.4285714 6.7,16.0336134 C5.9,16.7394958 4.9,17.0420168 3.9,17.0420168 C2.8,17.0420168 2.1,16.7394958 1.3,16.0336134 C0.5,15.2268908 0,14.2184874 0,12.4033613 C0,9.78151261 1.1,6.95798319 3.1,4.33613445 Z M11.3,2.31932773 C11,1.81512605 10.5,1.51260504 10,1.51260504 C8.7,1.51260504 7.5,3.12605042 6.2,6.1512605 C4.9,8.77310924 4.4,10.789916 4.4,12.4033613 C4.4,12.907563 4.6,13.4117647 4.9,13.9159664 C5.2,14.4201681 5.7,14.4201681 5.9,14.4201681 C7.2,14.4201681 8.5,12.907563 10,9.78151261 C11,7.15966387 11.6,5.14285714 11.6,3.6302521 C11.6,3.12605042 11.3,2.5210084 11.3,2.31932773 Z M18.2,16.5378151 L21.3,5.14285714 C21.3,4.63865546 21.5,4.33613445 21.5,4.13445378 C21.5,3.6302521 21.8,3.32773109 21.8,3.12605042 C21.8,2.5210084 21.5,2.31932773 21.3,2.31932773 C21,2.31932773 20.5,2.01680672 19.7,2.01680672 L19.7,1.00840336 C21.3,1.00840336 22.3,0.705882353 23.1,0.705882353 C23.8,0.705882353 25.1,0.504201681 26.7,0.201680672 L24.6,6.95798319 C24.6,6.95798319 24.9,6.45378151 25.6,5.44537815 C26.4,4.33613445 27.2,3.32773109 27.7,2.5210084 C28.4,1.81512605 29,1.31092437 29.7,0.705882353 C30.5,0.201680672 31.3,0.201680672 32,0.201680672 C32.8,0.201680672 33.3,0.504201681 33.8,0.705882353 C34.3,1.31092437 34.6,1.81512605 34.6,2.82352941 C34.6,3.83193277 34.1,5.64705882 33.1,8.77310924 C32,11.8991597 31.5,13.4117647 31.5,13.6134454 C31.5,13.9159664 31.5,13.9159664 31.8,14.2184874 C31.8,14.2184874 32,14.4201681 32,14.4201681 C32.3,14.4201681 32.8,13.9159664 33.3,13.1092437 C33.6,12.605042 34.1,12.1008403 34.3,11.5966387 L35.1,12.1008403 C34.3,13.6134454 33.6,14.4201681 32.8,15.2268908 C31.8,16.2352941 30.8,16.7394958 29.5,16.7394958 C29,16.7394958 28.2,16.5378151 27.7,16.2352941 C27.2,16.0336134 26.9,15.2268908 26.9,14.4201681 C26.9,13.9159664 26.9,13.1092437 27.2,12.1008403 C27.4,11.092437 27.7,10.0840336 27.9,8.97478992 L29.5,3.6302521 C29.5,3.6302521 29.5,3.32773109 29.5,3.32773109 C29.5,3.32773109 29.5,3.12605042 29.5,3.12605042 C29.5,2.82352941 29.5,2.5210084 29.2,2.5210084 C29,2.5210084 29,2.31932773 28.7,2.31932773 C27.9,2.31932773 27.2,2.82352941 26.4,4.13445378 C25.6,5.14285714 24.9,6.45378151 24.4,7.46218487 C24.9,8.97478992 24.4,10.2857143 23.8,11.5966387 C23.3,12.907563 23.1,14.4201681 22.3,16.5378151 L18.2,16.5378151 Z M42,19.5630252 C42.8,18.5546218 43.3,17.7478992 43.3,16.7394958 C43.3,16.0336134 43,14.4201681 42.5,11.8991597 C42.3,10.2857143 42,8.77310924 41.5,7.15966387 C41,4.63865546 40.5,3.12605042 40.2,2.5210084 C40,2.01680672 39.5,1.81512605 38.7,1.81512605 L38.7,1.00840336 C39.7,1.00840336 41,0.705882353 42,0.504201681 C43.3,0.201680672 43.8,0.201680672 43.6,0.201680672 L43.8,0.201680672 C44.1,1.00840336 44.6,2.82352941 45.1,5.14285714 C45.6,7.46218487 46.1,9.78151261 46.4,11.8991597 L46.6,12.605042 L47.4,11.5966387 C47.9,10.5882353 48.4,9.57983193 48.9,8.26890756 C49.4,6.95798319 49.7,6.1512605 49.7,5.64705882 C49.7,5.44537815 49.7,5.14285714 49.4,5.14285714 C49.4,4.84033613 49.2,4.63865546 48.9,4.63865546 L48.7,4.33613445 C48.4,4.13445378 48.4,4.13445378 48.2,3.83193277 C47.9,3.6302521 47.6,3.12605042 47.6,2.5210084 C47.6,2.01680672 47.9,1.51260504 48.2,1.31092437 C48.7,0.705882353 48.9,0.504201681 49.7,0.504201681 C50.2,0.504201681 50.7,0.705882353 51.2,1.00840336 C51.7,1.00840336 52,1.81512605 52,2.5210084 C52,3.83193277 51.2,6.1512605 50,8.97478992 C48.9,11.092437 47.9,13.1092437 46.6,15.4285714 C44.8,18.3529412 43,20.6722689 41.8,21.8823529 C40.2,23.1932773 38.7,24 37.2,24 C36.4,24 35.9,23.697479 35.6,23.1932773 C35.1,22.6890756 34.8,22.1848739 34.8,21.6806723 C34.8,21.1764706 35.1,20.6722689 35.4,20.3697479 C35.9,20.0672269 36.1,19.8655462 36.6,19.8655462 C37.2,19.8655462 37.7,20.0672269 38.4,20.3697479 C39.2,20.8739496 39.5,20.8739496 39.7,20.8739496 C40.5,21.1764706 41.2,20.6722689 42,19.5630252 Z" id="Shape"></path>
        </g>
    </g>
</svg>