<?xml version="1.0" encoding="UTF-8"?>
<svg width="64px" height="64px" viewBox="0 0 64 64" version="1.1" xmlns="http://www.w3.org/2000/svg" xmlns:xlink="http://www.w3.org/1999/xlink">
    <!-- Generator: Sketch 52.6 (67491) - http://www.bohemiancoding.com/sketch -->
    <title>math-text</title>
    <desc>Created with Sketch.</desc>
    <g id="math-text" stroke="none" stroke-width="1" fill="none" fill-rule="evenodd">
        <g id="icon-math-text" transform="translate(6.000000, 13.000000)" fill="#000000" fill-rule="nonzero">
            <path d="M19.4013015,37.7710843 L9.2494577,37.7710843 L9.2494577,8.46987952 L0,8.46987952 L0,0 L28.3123644,0 L28.3123644,8.12650602 L19.4013015,8.12650602 L19.4013015,37.7710843 Z M47.0368764,30.1024096 C48.5032538,30.1024096 49.9696312,29.873494 52,29.3012048 L52,36.626506 C50.5336226,37.1987952 49.4056399,37.4277108 48.2776573,37.7710843 C47.0368764,38 45.6832972,38 43.8785249,38 C40.3817787,38 38.1258134,37.1987952 36.659436,35.3674699 C35.1930586,33.6506024 34.4034707,31.3614458 34.4034707,27.813253 L34.4034707,16.0240964 L30.9067245,16.0240964 L30.9067245,12.0180723 L35.1930586,8.69879518 L37.7874187,2.63253012 L44.4425163,2.63253012 L44.4425163,8.46987952 L51.4360087,8.46987952 L51.4360087,16.0240964 L44.4425163,16.0240964 L44.4425163,27.4698795 C44.4425163,29.3012048 45.3449024,30.1024096 47.0368764,30.1024096 Z" id="Shape"></path>
        </g>
    </g>
</svg>