<?xml version="1.0" encoding="UTF-8"?>
<svg width="64px" height="64px" viewBox="0 0 64 64" version="1.1" xmlns="http://www.w3.org/2000/svg" xmlns:xlink="http://www.w3.org/1999/xlink">
    <!-- Generator: Sketch 53.2 (72643) - https://sketchapp.com -->
    <title>math-any</title>
    <desc>Created with Sketch.</desc>
    <g id="math-any" stroke="none" stroke-width="1" fill="none" fill-rule="evenodd">
        <path d="M22.1545064,20.2454346 L18.8240343,31.9035793 L18.4806867,33.3235939 C18.4463518,33.4989052 18.4291845,33.6274649 18.4291845,33.7092768 C18.4291845,33.8495259 18.477825,33.972242 18.5751073,34.0774288 C18.6723896,34.1826156 18.7725317,34.2352082 18.8755365,34.2352082 C19.115881,34.2352082 19.4477804,34.0482122 19.8712446,33.6742148 C20.0429193,33.5222783 20.4549324,32.984665 21.1072961,32.0613587 L21.7081545,32.3769175 C20.895561,33.8962822 20.0286169,35.0036488 19.1072961,35.6990504 C18.1859754,36.394452 17.1931384,36.7421476 16.1287554,36.7421476 C15.4763916,36.7421476 14.9785425,36.5697607 14.6351931,36.2249817 C14.2918438,35.8802028 14.1201717,35.4448529 14.1201717,34.9189189 C14.1201717,34.4631095 14.3032886,33.6157841 14.6695279,32.3769175 L15.0815451,30.9569028 C13.7539276,33.2826997 12.4778316,34.9306014 11.2532189,35.9006574 C10.5436302,36.4616536 9.78827296,36.7421476 8.98712446,36.7421476 C7.93418644,36.7421476 7.17310678,36.300954 6.70386266,35.4185537 C6.23461854,34.5361534 6,33.5398156 6,32.4295106 C6,30.7815842 6.4921267,28.8911721 7.47639485,26.7582177 C8.460663,24.6252633 9.75392618,22.9101599 11.3562232,21.6128561 C12.6723957,20.5376133 13.9084348,20 15.0643777,20 C15.7052965,20 16.2203128,20.1899178 16.6094421,20.5697589 C16.9985713,20.9496001 17.2846915,21.6420695 17.4678112,22.6471877 L18.0858369,20.4908692 L22.1545064,20.2454346 Z M16.6609442,23.5763331 C16.6609442,22.629652 16.5178841,21.945948 16.2317597,21.5252009 C16.02575,21.2330153 15.7453523,21.0869248 15.3905579,21.0869248 C15.0357636,21.0869248 14.6695298,21.2622335 14.2918455,21.6128561 C13.5250319,22.3374762 12.6981446,23.8071474 11.8111588,26.0219138 C10.924173,28.2366802 10.4806867,30.1504667 10.4806867,31.7633309 C10.4806867,32.3827642 10.5808288,32.8298014 10.7811159,33.1044558 C10.981403,33.3791102 11.2017155,33.5164354 11.4420601,33.5164354 C11.9570841,33.5164354 12.4778228,33.212567 13.0042918,32.604821 C13.7596604,31.7399518 14.4406264,30.6822561 15.0472103,29.431702 C16.1230383,27.2344667 16.6609442,25.2826966 16.6609442,23.5763331 Z M32.2832618,20 L30.1545064,27.5208181 C31.5851288,25.3235829 32.6552182,23.8217717 33.3648069,23.0153397 C34.4062999,21.8465975 35.3047173,21.0518648 36.0600858,20.6311176 C36.8154544,20.2103704 37.5250324,20 38.1888412,20 C38.7839801,20 39.293274,20.2249795 39.7167382,20.6749452 C40.1402024,21.1249109 40.3519313,21.7121951 40.3519313,22.4368152 C40.3519313,23.0913108 40.2145936,23.8860435 39.9399142,24.8210373 L37.7424893,32.3067933 C37.5593696,32.9612889 37.4678112,33.3878734 37.4678112,33.5865595 C37.4678112,33.7034337 37.5107292,33.808619 37.5965665,33.9021183 C37.6824039,33.9956177 37.7711011,34.0423667 37.8626609,34.0423667 C37.9771107,34.0423667 38.0972812,33.9956177 38.223176,33.9021183 C38.6237502,33.5631831 39.0300409,33.084006 39.4420601,32.4645727 C39.5450649,32.3009488 39.7110146,32.0555166 39.9399142,31.7282688 L40.5922747,32.1314828 C38.9098628,35.0182759 37.1416402,36.4616508 35.2875536,36.4616508 C34.577965,36.4616508 34.0228918,36.2746549 33.6223176,35.9006574 C33.2217433,35.5266599 33.0214592,35.0591701 33.0214592,34.4981738 C33.0214592,34.0073021 33.1587969,33.2768493 33.4334764,32.3067933 L35.5793991,24.8210373 C35.7281839,24.3301656 35.8025751,23.9678609 35.8025751,23.7341125 C35.8025751,23.6055509 35.7510735,23.4916002 35.6480687,23.3922571 C35.5450639,23.292914 35.4248934,23.2432432 35.2875536,23.2432432 C34.8526445,23.2432432 34.3261833,23.5471116 33.7081545,24.1548576 C32.1287475,25.6975972 30.6008658,27.9941411 29.1244635,31.0445581 L27.7167382,36.2512783 L23.3390558,36.2512783 L26.5493562,24.9963477 C26.8583706,23.8860427 27.0128755,23.0971535 27.0128755,22.6296567 C27.0128755,22.4309705 26.9670963,22.2644273 26.8755365,22.1300219 C26.7839767,21.9956166 26.6351942,21.8904314 26.4291845,21.8144631 C26.2231749,21.7384949 25.8340515,21.7005113 25.2618026,21.7005113 L25.4506438,21.0343316 L31.2360515,20 L32.2832618,20 Z M43.3390558,21.577794 L48.6266094,20 C49.0500736,20.5376214 49.3476386,21.0460166 49.5193133,21.5252009 C49.8283277,22.3550078 50.0457791,23.5003579 50.1716738,24.9612856 C50.4120184,27.8363913 50.5779681,30.9042934 50.6695279,34.165084 C51.8941406,32.5171576 53.2961294,30.3374862 54.8755365,27.6260044 C55.3562256,26.8078849 55.5965665,26.0365266 55.5965665,25.3119065 C55.5965665,24.8560971 55.31903,24.423669 54.7639485,24.0146092 C54.208867,23.6055495 53.8626616,23.287072 53.7253219,23.0591673 C53.5879821,22.8312626 53.5193133,22.5361596 53.5193133,22.1738495 C53.5193133,21.5894785 53.728181,21.0810832 54.1459227,20.6486486 C54.5636645,20.2162141 55.0700972,20 55.6652361,20 C56.2947099,20 56.8411994,20.2454322 57.304721,20.7363039 C57.7682427,21.2271756 58,21.8056943 58,22.4718773 C58,23.2549345 57.7854099,24.1636179 57.3562232,25.1979547 C56.9270365,26.2322915 55.9227547,28.0058311 54.3433476,30.5186267 C52.3175864,33.7326676 50.3319124,36.5142322 48.3862661,38.8634039 C47.1387634,40.3593939 46.1316204,41.4375424 45.3648069,42.0978817 C44.5979933,42.758221 43.8025792,43.2812252 42.9785408,43.6669102 C42.4864067,43.8889712 42.0000024,44 41.5193133,44 C40.8669495,44 40.3090152,43.7662551 39.8454936,43.2987582 C39.3819719,42.8312614 39.1502146,42.2761172 39.1502146,41.633309 C39.1502146,40.9905008 39.3590823,40.4470439 39.776824,40.0029218 C40.1945658,39.5587998 40.6838312,39.3367421 41.2446352,39.3367421 C41.9427789,39.3367421 42.5836881,39.710734 43.167382,40.458729 C43.5565112,40.9612881 43.8769658,41.2125639 44.1287554,41.2125639 C44.3919899,41.2125639 44.649498,41.1365968 44.9012876,40.9846603 C45.2446369,40.7976616 45.7253188,40.3652335 46.3433476,39.687363 C46.4120175,38.2264354 46.4463519,37.1219906 46.4463519,36.3739956 C46.4463519,35.3688774 46.4005727,33.9547206 46.3090129,32.1314828 L46.0171674,25.4521549 C45.9141626,24.2249756 45.6566544,23.3425885 45.2446352,22.8049671 C44.9241758,22.4075948 44.5064403,22.2089116 43.9914163,22.2089116 C43.7968517,22.2089116 43.5794003,22.2264425 43.3390558,22.2615047 L43.3390558,21.577794 Z" id="any" fill="#000000" fill-rule="nonzero"></path>
    </g>
</svg>