<?xml version="1.0" encoding="UTF-8"?>
<svg width="64px" height="64px" viewBox="0 0 64 64" version="1.1" xmlns="http://www.w3.org/2000/svg" xmlns:xlink="http://www.w3.org/1999/xlink">
    <!-- Generator: Sketch 52.6 (67491) - http://www.bohemiancoding.com/sketch -->
    <title>math-brackets</title>
    <desc>Created with Sketch.</desc>
    <g id="math-brackets" stroke="none" stroke-width="1" fill="none" fill-rule="evenodd">
        <g id="icon-math-brackets" transform="translate(6.000000, 10.000000)" fill="#000000" fill-rule="nonzero">
            <path d="M0,18.4449649 C1.828125,18.4449649 3.3515625,18.2388759 4.46875,17.4145199 C5.484375,16.8992974 5.9921875,15.8688525 5.9921875,14.529274 L5.9921875,8.14051522 C5.9921875,6.07962529 6.1953125,4.22482436 7.0078125,3.19437939 C7.8203125,2.06088993 9.140625,1.33957845 10.96875,0.824355972 C12.4921875,0.309133489 15.03125,0 18.1796875,0 L18.1796875,6.90398126 C16.859375,6.90398126 15.84375,7.11007026 15.3359375,7.11007026 C14.828125,7.41920375 14.3203125,7.62529274 14.015625,7.93442623 C13.8125,8.14051522 13.5078125,8.6557377 13.5078125,9.48009368 L13.5078125,16.0749415 C13.5078125,17.9297424 13,19.2693208 12.1875,20.2997658 C11.4765625,21.1241218 9.8515625,21.6393443 7.8203125,22.1545667 L7.8203125,22.4637002 C9.8515625,22.6697892 11.171875,23.4941452 12.1875,24.2154567 C13.3046875,25.0398126 13.5078125,26.6885246 13.5078125,28.234192 L13.5078125,34.8290398 C13.5078125,35.3442623 13.8125,35.8594848 14.015625,36.3747073 C14.3203125,36.6838407 14.828125,36.8899297 15.3359375,37.1990632 C15.84375,37.4051522 16.859375,37.4051522 17.9765625,37.4051522 L17.9765625,44 C14.828125,44 12.4921875,43.793911 10.6640625,43.2786885 C8.8359375,42.763466 7.8203125,42.2482436 7.0078125,40.9086651 C6.1953125,39.8782201 5.9921875,38.0234192 5.9921875,35.8594848 L5.9921875,29.7798595 C5.9921875,28.440281 5.484375,27.4098361 4.46875,26.8946136 C3.3515625,26.0702576 1.828125,25.8641686 0.3046875,25.8641686 L0.3046875,18.4449649 L0,18.4449649 Z M52,25.8641686 C50.171875,25.8641686 48.8515625,26.0702576 47.8359375,26.8946136 C46.8203125,27.7189696 46.3125,28.7494145 46.3125,29.7798595 L46.3125,35.8594848 C46.3125,38.2295082 46.0078125,39.8782201 45.1953125,40.9086651 C44.484375,41.9391101 43.1640625,42.763466 41.3359375,43.2786885 C39.5078125,43.793911 37.171875,44 34.0234375,44 L34.0234375,37.4051522 C35.8515625,37.4051522 36.96875,37.1990632 37.6796875,36.6838407 C38.4921875,36.1686183 38.6953125,35.6533958 38.6953125,34.8290398 L38.6953125,28.234192 C38.6953125,26.3793911 39.3046875,25.0398126 40.015625,24.2154567 C40.828125,23.4941452 42.3515625,22.6697892 44.484375,22.4637002 L44.484375,22.1545667 C42.3515625,21.8454333 41.03125,21.3302108 40.015625,20.2997658 C39.3046875,19.2693208 38.6953125,17.9297424 38.6953125,16.0749415 L38.6953125,9.48009368 C38.6953125,8.96487119 38.4921875,8.44964871 38.1875,7.93442623 C37.984375,7.62529274 37.4765625,7.41920375 36.96875,7.11007026 C36.359375,6.90398126 35.34375,6.90398126 33.8203125,6.90398126 L33.8203125,0 C36.96875,0 39.3046875,0.309133489 41.03125,0.824355972 C42.859375,1.33957845 44.1796875,2.06088993 44.9921875,3.19437939 C45.8046875,4.22482436 46.0078125,6.07962529 46.0078125,8.14051522 L46.0078125,14.2201405 C46.0078125,15.559719 46.515625,16.5901639 47.53125,17.1053864 C48.6484375,17.9297424 49.96875,18.2388759 51.6953125,18.2388759 L51.6953125,25.8641686 L52,25.8641686 Z" id="Shape"></path>
        </g>
    </g>
</svg>