<?xml version="1.0" encoding="UTF-8"?>
<svg width="64px" height="64px" viewBox="0 0 64 64" version="1.1" xmlns="http://www.w3.org/2000/svg" xmlns:xlink="http://www.w3.org/1999/xlink">
    <!-- Generator: Sketch 52.6 (67491) - http://www.bohemiancoding.com/sketch -->
    <title>math-all</title>
    <desc>Created with Sketch.</desc>
    <g id="math-all" stroke="none" stroke-width="1" fill="none" fill-rule="evenodd">
        <g id="icon-math-all" transform="translate(6.000000, 15.000000)" fill="#000000" fill-rule="nonzero">
            <path d="M4.20512821,16.7447447 C7.07692308,13.0690691 9.94871795,11.2312312 13.1282051,11.2312312 C14.4615385,11.2312312 15.1794872,11.5375375 15.7948718,12.3543544 C16,12.8648649 16.5128205,13.3753754 16.8205128,14.3963964 L17.6410256,11.8438438 L22.5641026,11.5375375 L19.3846154,22.7687688 C18.8717949,24.3003003 18.6666667,25.6276276 18.3589744,26.4444444 C17.8461538,27.975976 17.8461538,29.3033033 17.8461538,29.8138138 C17.8461538,30.1201201 17.8461538,30.3243243 18.1538462,30.3243243 C18.1538462,30.3243243 18.3589744,30.6306306 18.6666667,30.6306306 C18.8717949,30.6306306 19.1794872,30.6306306 19.3846154,30.3243243 C19.6923077,30.1201201 20,29.8138138 20.2051282,29.6096096 C20.2051282,29.3033033 20.5128205,28.7927928 21.025641,28.4864865 C21.2307692,27.975976 21.7435897,27.7717718 22.0512821,27.2612613 L23.0769231,27.975976 C21.7435897,29.8138138 20.5128205,31.4474474 19.3846154,32.4684685 C18.1538462,33.4894895 17.025641,34 15.7948718,34 C14.974359,34 14.1538462,33.7957958 13.6410256,33.1831832 C12.8205128,32.6726727 12.6153846,31.957958 12.6153846,30.8348348 C12.6153846,30.3243243 12.8205128,29.6096096 13.1282051,27.975976 C13.1282051,27.975976 13.1282051,27.975976 12.8205128,28.2822823 C12.6153846,28.4864865 12.3076923,29.0990991 12.1025641,29.6096096 C11.2820513,30.8348348 10.2564103,31.957958 9.23076923,32.6726727 C7.8974359,33.4894895 6.56410256,34 5.23076923,34 C3.8974359,34 2.87179487,33.4894895 1.53846154,32.6726727 C0.512820513,31.6516517 0,30.1201201 0,27.7717718 C0,24.0960961 1.33333333,20.7267267 4.20512821,16.7447447 Z M15.1794872,14.3963964 C14.974359,13.5795796 14.4615385,13.0690691 13.6410256,13.0690691 C11.7948718,13.0690691 10.2564103,15.2132132 8.41025641,19.3993994 C6.87179487,23.0750751 6.05128205,25.9339339 6.05128205,27.7717718 C6.05128205,28.4864865 6.25641026,29.0990991 6.56410256,29.8138138 C6.87179487,30.3243243 7.38461538,30.6306306 8.1025641,30.6306306 C9.74358974,30.6306306 11.5897436,28.4864865 13.6410256,24.3003003 C14.974359,20.7267267 15.4871795,17.7657658 15.4871795,15.7237237 C15.4871795,15.2132132 15.4871795,14.7027027 15.1794872,14.3963964 Z M25.2307692,28.4864865 C25.2307692,27.975976 25.4358974,27.4654655 25.7435897,26.6486486 L31.4871795,6.02402402 C31.4871795,5.51351351 31.4871795,5.30930931 31.7948718,4.6966967 C31.7948718,4.49249249 31.7948718,4.18618619 31.7948718,3.98198198 C31.7948718,3.16516517 31.4871795,2.96096096 30.974359,2.65465465 C30.4615385,2.65465465 29.9487179,2.34834835 28.9230769,2.65465465 L28.9230769,1.32732733 C31.2820513,1.12312312 32.8205128,0.816816817 33.6410256,0.816816817 C34.3589744,0.816816817 36.2051282,0.306306306 38.8717949,0 L31.7948718,25.1171171 C31.4871795,26.4444444 31.2820513,27.2612613 31.2820513,27.4654655 C30.974359,28.4864865 30.7692308,29.3033033 30.7692308,29.8138138 C30.7692308,30.1201201 30.7692308,30.3243243 30.974359,30.6306306 C31.2820513,30.6306306 31.2820513,30.8348348 31.4871795,30.8348348 C32,30.8348348 32.5128205,30.3243243 33.3333333,29.6096096 C34.1538462,28.7927928 34.6666667,27.975976 35.1794872,26.954955 L36.2051282,27.7717718 C34.8717949,29.8138138 33.6410256,31.4474474 32.8205128,32.1621622 C31.4871795,33.1831832 29.9487179,33.7957958 28.1025641,33.7957958 C27.2820513,33.7957958 26.5641026,33.4894895 25.7435897,32.978979 C25.2307692,32.4684685 24.7179487,31.6516517 24.7179487,30.6306306 C24.9230769,30.1201201 24.9230769,29.6096096 25.2307692,28.4864865 Z M38.5641026,28.4864865 C38.5641026,27.975976 38.8717949,27.4654655 39.0769231,26.6486486 L44.6153846,6.02402402 C44.9230769,5.51351351 44.9230769,5.003003 44.9230769,4.6966967 C44.9230769,4.49249249 44.9230769,4.18618619 44.9230769,3.98198198 C44.9230769,3.16516517 44.6153846,2.96096096 44.1025641,2.65465465 C43.8974359,2.65465465 43.0769231,2.34834835 42.0512821,2.65465465 L42.0512821,1.32732733 C44.4102564,1.12312312 45.9487179,0.816816817 46.7692308,0.816816817 C47.4871795,0.816816817 49.3333333,0.306306306 52,0 L44.9230769,25.1171171 C44.6153846,26.4444444 44.4102564,27.2612613 44.4102564,27.4654655 C44.1025641,28.4864865 43.8974359,29.3033033 43.8974359,29.8138138 C43.8974359,30.1201201 43.8974359,30.3243243 44.1025641,30.6306306 C44.4102564,30.6306306 44.4102564,30.8348348 44.6153846,30.8348348 C45.1282051,30.8348348 45.6410256,30.3243243 46.4615385,29.6096096 C47.2820513,28.7927928 47.7948718,27.975976 48.3076923,26.954955 L49.3333333,27.7717718 C48,29.8138138 46.7692308,31.4474474 45.9487179,32.1621622 C44.6153846,33.1831832 43.2820513,33.7957958 41.4358974,33.7957958 C40.7179487,33.7957958 39.8974359,33.4894895 39.0769231,32.978979 C38.5641026,32.4684685 38.0512821,31.6516517 38.0512821,30.6306306 C38.3589744,30.1201201 38.3589744,29.6096096 38.5641026,28.4864865 Z" id="Shape"></path>
        </g>
    </g>
</svg>