<?xml version="1.0" encoding="UTF-8"?>
<svg width="64px" height="64px" viewBox="0 0 64 64" version="1.1" xmlns="http://www.w3.org/2000/svg" xmlns:xlink="http://www.w3.org/1999/xlink">
    <!-- Generator: Sketch 52.6 (67491) - http://www.bohemiancoding.com/sketch -->
    <title>misc-sync</title>
    <desc>Created with Sketch.</desc>
    <g id="misc-sync" stroke="none" stroke-width="1" fill="none" fill-rule="evenodd">
        <g id="icon-misc-sync" transform="translate(10.000000, 6.000000)" fill="#000000" fill-rule="nonzero">
            <path d="M26.2596811,25.8 C25.7585421,25.6 24.9567198,25.3 24.4555809,25.3 C24.2551253,25.8 23.9544419,26.3 23.9544419,26.8 C23.9544419,27.9 23.9544419,28.6 23.9544419,29.7 C23.9544419,30.7 23.7539863,31.2 22.6514806,31.5 C17.3394077,32.2 11.6264237,32.2 6.51480638,30.2 C4.71070615,29.4 3.40774487,27.9 1.90432802,26.6 C1.40318907,26.3 0.902050114,25.8 0.601366743,25.6 C0.400911162,26.3 -0.10022779,26.8 0.10022779,27.6 C2.20501139,35.6 6.51480638,41.7 14.4328018,44.8 C17.5398633,45.8 20.6469248,46.3 23.9544419,47.1 C23.9544419,48.1 23.9544419,49.1 23.9544419,50.4 C23.9544419,51.9 24.7562642,52.4 25.7585421,51.4 C30.3690205,47.6 34.9794989,43.7 39.5899772,39.9 C40.6924829,38.9 40.3917995,38.1 39.3895216,37.3 C38.3872437,35.8 29.5671982,28.4 26.2596811,25.8 Z M43.6993166,23.5 C41.6947608,15.6 37.0842825,9.7 29.3667426,6.9 C26.2596811,5.9 23.1526196,5.6 19.8451025,4.8 C19.8451025,3.8 19.8451025,2.8 19.8451025,1.5 C19.8451025,1.38777878e-17 19.143508,-0.3 18.0410023,0.5 C13.4305239,4.3 8.82004556,8.2 4.2095672,11.7 C3.20728929,12.8 3.20728929,13.5 4.2095672,14.3 C5.01138952,15.1 13.7312073,22.2 17.3394077,25.1 C17.8405467,25.6 18.5421412,25.6 19.3439636,25.8 C19.6446469,25.1 19.8451025,24.5 19.8451025,23.8 C19.8451025,23 19.8451025,22.2 19.8451025,21.5 C19.6446469,20.4 20.3462415,19.7 21.6492027,19.7 C25.2574032,19.7 28.8656036,19.4 32.4738041,19.7 C36.5831435,20.2 40.3917995,21.2 42.3963554,25.3 C42.3963554,25.6 42.9977221,25.8 43.1981777,25.8 C43.498861,25.6 44,25.3 44,25.1 C44,24.5 43.6993166,24 43.6993166,23.5 Z" id="Shape"></path>
        </g>
    </g>
</svg>