<?xml version="1.0" encoding="UTF-8"?>
<svg width="64px" height="64px" viewBox="0 0 64 64" version="1.1" xmlns="http://www.w3.org/2000/svg" xmlns:xlink="http://www.w3.org/1999/xlink">
    <!-- Generator: Sketch 52.6 (67491) - http://www.bohemiancoding.com/sketch -->
    <title>misc-heart</title>
    <desc>Created with Sketch.</desc>
    <g id="misc-heart" stroke="none" stroke-width="1" fill="none" fill-rule="evenodd">
        <g id="icon-misc-heart" transform="translate(6.000000, 8.000000)" fill="#000000" fill-rule="nonzero">
            <path d="M40.3203125,0 C39.5078125,0 38.6953125,0 37.984375,0 C31.9921875,0 29.1484375,2.47933884 26,6.34710744 C22.8515625,2.47933884 20.0078125,0 14.015625,0 C13.3046875,0 12.4921875,0 11.6796875,0 C6.5,0.495867769 0.8125,5.05785124 0,13.6859504 L0,16.4628099 C0.8125,24.892562 7.0078125,35.0082645 26,48 C44.9921875,35.0082645 51.1875,24.5950413 52,16.4628099 L52,13.6859504 C51.1875,5.05785124 45.5,0.495867769 40.3203125,0 Z M46.3125,16.4628099 C45.5,23.8016529 38.6953125,32.231405 26,41.3553719 C13.3046875,31.9338843 6.5,23.6033058 5.6875,16.4628099 L5.6875,13.9834711 C6.1953125,8.1322314 9.8515625,5.55371901 12.1875,5.55371901 C12.6953125,5.55371901 13.5078125,5.55371901 14.015625,5.55371901 C17.46875,5.55371901 18.6875,6.54545455 21.53125,9.91735537 L26,14.9752066 L30.46875,9.91735537 C33.3125,6.54545455 34.53125,5.55371901 37.984375,5.55371901 C38.4921875,5.55371901 39,5.55371901 39.8125,5.55371901 C42.1484375,5.85123967 45.8046875,8.33057851 46.3125,13.9834711 L46.3125,16.4628099 Z" id="Shape"></path>
        </g>
    </g>
</svg>