<?xml version="1.0" encoding="UTF-8"?>
<svg width="64px" height="64px" viewBox="0 0 64 64" version="1.1" xmlns="http://www.w3.org/2000/svg" xmlns:xlink="http://www.w3.org/1999/xlink">
    <!-- Generator: Sketch 52.6 (67491) - http://www.bohemiancoding.com/sketch -->
    <title>misc-required</title>
    <desc>Created with Sketch.</desc>
    <g id="misc-required" stroke="none" stroke-width="1" fill="none" fill-rule="evenodd">
        <g id="icon-misc-required" transform="translate(7.000000, 6.000000)" fill="#000000">
            <path d="M49.0797546,33.4213592 L36.196319,26.1514563 L49.0797546,18.6796117 C49.795501,18.1747573 50.1022495,17.3669903 49.591002,16.5592233 L45.398773,9.59223301 C44.8875256,8.78446602 44.0695297,8.78446602 43.2515337,9.08737864 L30.1635992,16.5592233 L30.1635992,1.61553398 C30.1635992,0.80776699 29.4478528,0 28.6298569,0 L20.7566462,0 C19.9386503,0.302912621 19.4274029,0.80776699 19.4274029,1.61553398 L19.4274029,16.3572816 L6.3394683,8.78446602 C5.62372188,8.58252427 4.80572597,8.78446602 4.29447853,9.59223301 L0.306748466,16.5592233 C-0.204498978,17.3669903 0.102249489,18.1747573 0.81799591,18.6796117 L13.9059305,26.1514563 L1.43149284,33.4213592 C1.43149284,33.4213592 1.12474438,33.4213592 1.12474438,33.623301 C0.306748466,34.1281553 0.102249489,34.9359223 0.613496933,35.7436893 L4.80572597,42.9126214 C5.31697342,43.5184466 6.13496933,43.7203883 6.64621677,43.215534 L19.4274029,35.7436893 L19.4274029,50.1825243 C19.4274029,50.1825243 19.4274029,50.4854369 19.4274029,50.4854369 C19.4274029,51.192233 20.2453988,52 21.0633947,52 L29.4478528,52 C30.1635992,52 30.6748466,51.192233 30.6748466,50.4854369 L30.6748466,35.7436893 L43.2515337,42.9126214 C43.2515337,42.9126214 43.5582822,43.215534 43.5582822,43.215534 C44.2740286,43.7203883 45.0920245,43.5184466 45.603272,42.7106796 L49.795501,35.7436893 L49.795501,35.4407767 C50.1022495,34.6330097 49.795501,33.9262136 49.0797546,33.4213592 Z" id="Path"></path>
        </g>
    </g>
</svg>