<?xml version="1.0" encoding="UTF-8"?>
<svg width="64px" height="64px" viewBox="0 0 64 64" version="1.1" xmlns="http://www.w3.org/2000/svg" xmlns:xlink="http://www.w3.org/1999/xlink">
    <!-- Generator: Sketch 52.6 (67491) - http://www.bohemiancoding.com/sketch -->
    <title>misc-star-empty</title>
    <desc>Created with Sketch.</desc>
    <g id="misc-star-empty" stroke="none" stroke-width="1" fill="none" fill-rule="evenodd">
        <g id="icon-misc-star-empty" transform="translate(6.000000, 7.000000)" fill="#000000" fill-rule="nonzero">
            <path d="M52,19.3089431 L47.0234375,19.3089431 L32.1953125,19.004065 L27.828125,4.67479675 L26.203125,0 L24.6796875,4.67479675 L19.703125,18.800813 L0,18.800813 L3.859375,21.6463415 L15.5390625,30.6910569 L10.8671875,44.8170732 L9.546875,49.4918699 L13.7109375,46.5447154 L26,38.3130081 L37.8828125,47.1544715 L41.84375,50 L40.5234375,45.3252033 L36.359375,30.995935 L48.0390625,22.3577236 L52,19.3089431 Z M33.0078125,28.8617886 L31.9921875,29.6747967 L32.1953125,30.6910569 L35.34375,41.3617886 L26.5078125,34.8577236 L25.4921875,34.1463415 L24.375,34.8577236 L15.3359375,41.1585366 L18.6875,30.6910569 L18.9921875,29.6747967 L17.875,28.8617886 L9.8515625,22.1544715 L22.34375,22.1544715 L22.546875,21.1382114 L26.203125,10.6707317 L29.65625,21.3414634 L29.859375,22.3577236 L42.046875,22.3577236 L33.0078125,28.8617886 Z" id="Shape"></path>
        </g>
    </g>
</svg>