<?xml version="1.0" encoding="UTF-8"?>
<svg width="64px" height="64px" viewBox="0 0 64 64" version="1.1" xmlns="http://www.w3.org/2000/svg" xmlns:xlink="http://www.w3.org/1999/xlink">
    <!-- Generator: Sketch 52.6 (67491) - http://www.bohemiancoding.com/sketch -->
    <title>misc-thumb-up</title>
    <desc>Created with Sketch.</desc>
    <g id="misc-thumb-up" stroke="none" stroke-width="1" fill="none" fill-rule="evenodd">
        <g id="icon-misc-thumb-up" transform="translate(10.000000, 6.000000)" fill="#000000">
            <path d="M0.1,30.2490272 C0.3,28.1245136 2.1,26.6070039 4.2,26.8093385 L9.8,27.3151751 L9.8,27.1128405 L5.2,26.6070039 C3.4,26.3035019 2.1,24.4824903 2.4,22.459144 C2.6,20.3346304 4.2,18.8171206 6,19.0194553 L21.1,20.6381323 L23.1,20.6381323 C23.1,20.6381323 20.1,19.3229572 22.4,7.89105058 C24.7,-3.43968872 31.1,0.910505837 31.1,0.910505837 C31.1,0.910505837 31.1,10.5214008 31.6,12.0389105 C31.8,13.3540856 39.3,27.8210117 39.3,27.8210117 C39.3,28.6303502 43.9,29.4396887 43.9,30.2490272 C43.9,36.92607 43.9,42.5914397 43.9,49.3696498 C39,48.0544747 36.4,52 25.9,52 C22.6,52 18.3,51.3929961 14.7,50.8871595 L5.2,49.8754864 C3.7,49.6731518 2.4,47.8521401 2.6,45.7276265 C2.9,44.2101167 3.7,42.8949416 4.9,42.3891051 L3.7,42.3891051 C1.9,42.0856031 0.6,40.2645914 0.6,38.2412451 C0.9,36.4202335 2.1,35.1050584 3.7,34.9027237 L3.2,34.9027237 C1.4,34.0933852 -0.2,32.2723735 0.1,30.2490272 Z" id="Path"></path>
        </g>
    </g>
</svg>