<?xml version="1.0" encoding="UTF-8"?>
<svg width="64px" height="64px" viewBox="0 0 64 64" version="1.1" xmlns="http://www.w3.org/2000/svg" xmlns:xlink="http://www.w3.org/1999/xlink">
    <!-- Generator: Sketch 52.6 (67491) - http://www.bohemiancoding.com/sketch -->
    <title>misc-pin</title>
    <desc>Created with Sketch.</desc>
    <g id="misc-pin" stroke="none" stroke-width="1" fill="none" fill-rule="evenodd">
        <g id="icon-misc-pin" transform="translate(6.000000, 6.000000)" fill="#000000">
            <path d="M52,13.2289628 C51.1875,13.9412916 50.4765625,14.9589041 49.359375,15.7729941 C44.6875,19.4363992 40.3203125,22.7945205 35.6484375,26.2544031 C35.140625,26.7632094 34.8359375,27.2720157 34.8359375,27.9843444 C35.6484375,33.2759295 34.0234375,37.9569472 30.671875,41.8238748 C30.46875,42.1291585 30.46875,42.1291585 30.1640625,42.332681 C29.859375,42.6379648 29.859375,42.6379648 29.65625,42.8414873 C27.015625,40.297456 24.4765625,37.6516634 21.8359375,35.1076321 C18.484375,37.6516634 15.3359375,39.9921722 12.1875,42.332681 C8.328125,45.4872798 4.46875,48.3365949 0.5078125,51.4911937 C0.5078125,51.6947162 0.3046875,51.6947162 0,52 C0,52 0,51.6947162 0,51.6947162 C1.015625,50.4735812 2.03125,49.1506849 3.1484375,47.8277886 C7.515625,42.1291585 11.984375,36.3287671 16.1484375,30.630137 C16.3515625,30.4266145 16.3515625,30.4266145 16.3515625,30.1213307 C13.8125,27.4755382 11.171875,24.9315068 8.53125,22.590998 C11.4765625,19.4363992 14.828125,17.4011742 18.9921875,17.0958904 C20.515625,16.7906067 22.140625,17.0958904 23.96875,17.0958904 C24.171875,17.0958904 24.6796875,16.7906067 24.984375,16.5870841 C28.84375,11.3972603 33.0078125,6.4109589 36.96875,1.22113503 C37.984375,-0.101761252 39.3046875,-0.40704501 40.5234375,0.915851272 C43.9765625,4.37573386 47.328125,7.73385519 50.6796875,11.0919765 C50.984375,11.3972603 51.1875,12.109589 51.6953125,12.4148728 C52,12.6183953 52,12.9236791 52,13.2289628 Z" id="Path"></path>
        </g>
    </g>
</svg>