<?xml version="1.0" encoding="UTF-8"?>
<svg width="64px" height="64px" viewBox="0 0 64 64" version="1.1" xmlns="http://www.w3.org/2000/svg" xmlns:xlink="http://www.w3.org/1999/xlink">
    <!-- Generator: Sketch 52.6 (67491) - http://www.bohemiancoding.com/sketch -->
    <title>misc-question-mark</title>
    <desc>Created with Sketch.</desc>
    <g id="misc-question-mark" stroke="none" stroke-width="1" fill="none" fill-rule="evenodd">
        <g id="icon-misc-question-mark" transform="translate(16.000000, 6.000000)" fill="#000000" fill-rule="nonzero">
            <path d="M26.3769968,3.13009709 C23.514377,1.00970874 20.1405751,0.302912621 16.4600639,0 C14.4153355,0.302912621 12.2683706,0.504854369 10.428115,1.00970874 C5.21405751,2.82718447 1.53354633,6.1592233 0.204472843,11.9145631 C-0.511182109,15.5495146 2.04472843,18.376699 5.72523962,17.8718447 C7.87220447,17.568932 8.89456869,16.2563107 9.4057508,14.2368932 C10.2236422,11.4097087 12.0638978,9.59223301 14.9265176,8.4815534 C17.2779553,7.77475728 19.8338658,8.4815534 20.9584665,10.2990291 C22.1853035,12.4194175 21.9808307,14.2368932 19.8338658,16.2563107 C18.3003195,18.0737864 16.7667732,19.3864078 15.1309904,20.6990291 C12.2683706,23.223301 10.428115,26.3533981 10.7348243,30.4932039 C10.7348243,33.1184466 12.2683706,34.9359223 14.9265176,35.1378641 C17.4824281,35.4407767 19.3226837,34.1281553 19.8338658,31.5029126 C20.4472843,28.9786408 21.6741214,27.161165 23.514377,25.5456311 C25.3546326,24.031068 27.1948882,22.5165049 28.7284345,20.6990291 C33.7380192,14.9436893 32.715655,7.26990291 26.3769968,3.13009709 Z M15.1309904,38.4699029 C11.4504792,38.4699029 8.38338658,41.9029126 8.38338658,45.5378641 C8.38338658,49.0718447 11.4504792,52 15.4376997,52 C19.1182109,52 22.1853035,48.8699029 22.1853035,45.5378641 C21.9808307,41.6 18.6070288,38.4699029 15.1309904,38.4699029 Z" id="Shape"></path>
        </g>
    </g>
</svg>