<?xml version="1.0" encoding="UTF-8"?>
<svg width="64px" height="64px" viewBox="0 0 64 64" version="1.1" xmlns="http://www.w3.org/2000/svg" xmlns:xlink="http://www.w3.org/1999/xlink">
    <!-- Generator: Sketch 53.2 (72643) - https://sketchapp.com -->
    <title>misc-loading</title>
    <desc>Created with Sketch.</desc>
    <g id="misc-loading" stroke="none" stroke-width="1" fill="none" fill-rule="evenodd">
        <path d="M56.025712,41.9531147 C55.1795298,43.9937692 52.8392862,44.9620802 50.7986317,44.115898 C48.7579772,43.2697157 47.7896662,40.9294721 48.6358485,38.8888177 C49.5325416,36.7263511 50,34.399204 50,32 C50,22.0588745 41.9411255,14 32,14 C27.1575618,14 22.6285421,15.9156138 19.2720779,19.2720779 C17.7099808,20.8341751 15.1773209,20.8341751 13.6152237,19.2720779 C12.0531265,17.7099808 12.0531265,15.1773209 13.6152237,13.6152237 C18.4571061,8.77334126 25.0140213,6 32,6 C46.3594035,6 58,17.6405965 58,32 C58,35.4554505 57.3234617,38.8234596 56.025712,41.9531147 Z" id="Path" fill="#000000" fill-rule="nonzero"></path>
    </g>
</svg>