<?xml version="1.0" encoding="UTF-8"?>
<svg width="64px" height="64px" viewBox="0 0 64 64" version="1.1" xmlns="http://www.w3.org/2000/svg" xmlns:xlink="http://www.w3.org/1999/xlink">
    <!-- Generator: Sketch 52.6 (67491) - http://www.bohemiancoding.com/sketch -->
    <title>misc-settings</title>
    <desc>Created with Sketch.</desc>
    <g id="misc-settings" stroke="none" stroke-width="1" fill="none" fill-rule="evenodd">
        <g id="icon-misc-settings" transform="translate(6.000000, 6.000000)" fill="#000000" fill-rule="nonzero">
            <path d="M23.6640625,19.9214145 C23.6640625,22.0667976 21.9375,23.8035363 19.8046875,23.8035363 C17.5703125,23.8035363 15.84375,22.0667976 15.84375,19.9214145 C15.84375,17.6738703 17.5703125,15.9371316 19.8046875,15.9371316 C21.9375,15.9371316 23.6640625,17.6738703 23.6640625,19.9214145 Z M31.6875,28.1964637 C32.8046875,26.6640472 33.515625,24.8251473 34.0234375,22.7819253 L39.3046875,22.7819253 L39.3046875,17.2652259 L34.0234375,17.2652259 C33.8203125,15.1198428 33.0078125,13.0766208 31.6875,11.5442043 L35.34375,7.86640472 L31.484375,3.88212181 L27.828125,7.55992141 C26.3046875,6.53831041 24.4765625,5.72102161 22.34375,5.51669941 L22.34375,0 L16.859375,0 L16.859375,5.51669941 C15.03125,6.02750491 13,6.84479371 11.4765625,7.86640472 L7.8203125,3.88212181 L3.859375,7.86640472 L7.8203125,11.7485265 C6.5,13.3831041 5.9921875,15.1198428 5.484375,17.2652259 L0,17.2652259 L0,22.7819253 L5.484375,22.7819253 C5.6875,24.8251473 6.8046875,26.6640472 7.8203125,28.1964637 L3.859375,32.1807466 L7.8203125,36.0628684 L11.6796875,32.1807466 C13.3046875,33.2023576 15.03125,34.0196464 16.859375,34.2239686 L16.859375,39.740668 L22.34375,39.740668 L22.34375,34.2239686 C24.4765625,34.0196464 26.3046875,33.2023576 27.828125,31.8742633 L31.6875,35.8585462 L35.6484375,31.8742633 L31.6875,28.1964637 Z M19.8046875,29.0137525 C14.828125,29.0137525 10.96875,25.1316306 10.96875,20.1257367 C10.96875,15.1198428 14.828125,11.237721 19.8046875,11.237721 C24.6796875,11.237721 28.640625,15.1198428 28.640625,20.1257367 C28.84375,24.8251473 24.6796875,29.0137525 19.8046875,29.0137525 Z M44.078125,41.5795678 C43.671875,40.4557957 42.453125,39.9449902 41.3359375,40.4557957 C40.3203125,40.8644401 39.8125,42.0903733 40.21875,43.2141454 C40.7265625,44.2357564 41.9453125,44.7465619 42.9609375,44.3379175 C44.078125,43.827112 44.484375,42.6011788 44.078125,41.5795678 Z M49.359375,43.7249509 C49.6640625,42.6011788 49.6640625,41.5795678 49.359375,40.5579568 L52,39.5363458 L50.984375,36.8801572 L48.34375,37.9017682 C47.8359375,37.1866405 47.0234375,36.3693517 46.0078125,35.8585462 L47.0234375,33.2023576 L44.484375,32.1807466 L43.46875,34.7347741 C42.3515625,34.5304519 41.3359375,34.5304519 40.3203125,34.7347741 L39.3046875,32.1807466 L36.6640625,33.2023576 L37.6796875,35.8585462 C36.96875,36.3693517 36.15625,37.1866405 35.6484375,37.9017682 L33.0078125,36.8801572 L31.9921875,39.5363458 L34.53125,40.5579568 C34.328125,41.5795678 34.328125,42.6011788 34.53125,43.7249509 L31.9921875,44.7465619 L33.0078125,47.3005894 L35.6484375,46.2789784 C36.15625,47.0962672 36.96875,47.8113949 37.6796875,48.4243615 L36.6640625,50.978389 L39.3046875,52 L40.3203125,49.4459725 C41.3359375,49.6502947 42.1484375,49.6502947 43.1640625,49.4459725 L44.1796875,52 L46.8203125,50.978389 L45.8046875,48.4243615 C46.515625,47.8113949 47.328125,47.0962672 47.8359375,46.2789784 L50.4765625,47.3005894 L51.4921875,44.7465619 L49.359375,43.7249509 Z M43.9765625,46.5854617 C41.640625,47.6070727 39,46.5854617 37.984375,44.2357564 C36.96875,41.8860511 37.984375,39.2298625 40.3203125,38.2082515 C42.65625,37.1866405 45.1953125,38.2082515 46.3125,40.5579568 C47.328125,42.6011788 46.3125,45.4616896 43.9765625,46.5854617 Z" id="Shape"></path>
        </g>
    </g>
</svg>