<?xml version="1.0" encoding="UTF-8"?>
<svg width="64px" height="64px" viewBox="0 0 64 64" version="1.1" xmlns="http://www.w3.org/2000/svg" xmlns:xlink="http://www.w3.org/1999/xlink">
    <!-- Generator: Sketch 52.6 (67491) - http://www.bohemiancoding.com/sketch -->
    <title>misc-archive</title>
    <desc>Created with Sketch.</desc>
    <g id="misc-archive" stroke="none" stroke-width="1" fill="none" fill-rule="evenodd">
        <g id="icon-misc-archive" transform="translate(11.000000, 6.000000)" fill="#000000" fill-rule="nonzero">
            <path d="M21.6546763,16.1343874 L25.6834532,16.1343874 L28.3021583,13.1541502 L32.1294964,13.1541502 L41.7985612,32.7826087 L42,52 L0,52 L0,32.7826087 L8.96402878,13.1541502 L12.7913669,13.1541502 L15.8129496,16.1343874 L20.2446043,16.1343874 L12.5899281,8.32411067 L14.4028777,6.4743083 L19.7410072,12.0237154 L19.7410072,0 L22.2589928,0 L22.2589928,12.0237154 L27.4964029,6.4743083 L29.3093525,8.32411067 L21.6546763,16.1343874 Z M20.2446043,16.1343874 L10.8776978,16.1343874 L3.32374101,32.7826087 L38.5755396,32.7826087 L30.618705,16.1343874 L21.6546763,16.1343874 L20.9496403,16.8537549 L20.2446043,16.1343874 Z M26.5899281,44.0869565 L26.5899281,41.0039526 L15.3093525,41.0039526 L15.3093525,44.0869565 L26.5899281,44.0869565 Z M11.6834532,22.1976285 L30.0143885,22.1976285 L31.7266187,25.486166 L10.2733813,25.486166 L11.6834532,22.1976285 Z M7.75539568,30.3162055 L9.26618705,27.1304348 L32.7338129,27.1304348 L34.647482,30.5217391 L7.75539568,30.3162055 Z" id="Shape"></path>
        </g>
    </g>
</svg>