<?xml version="1.0" encoding="UTF-8"?>
<svg width="64px" height="64px" viewBox="0 0 64 64" version="1.1" xmlns="http://www.w3.org/2000/svg" xmlns:xlink="http://www.w3.org/1999/xlink">
    <!-- Generator: Sketch 52.6 (67491) - http://www.bohemiancoding.com/sketch -->
    <title>misc-bell-full</title>
    <desc>Created with Sketch.</desc>
    <g id="misc-bell-full" stroke="none" stroke-width="1" fill="none" fill-rule="evenodd">
        <g id="icon-misc-bell-full" transform="translate(11.000000, 6.000000)" fill="#000000" fill-rule="nonzero">
            <path d="M41.1084906,38.5147348 C37.5424528,35.654224 36.0566038,31.1591356 36.8490566,26.459725 C36.8490566,24.9273084 36.8490566,23.5992141 36.8490566,22.0667976 C37.0471698,15.2220039 32.7877358,8.99017682 26.4481132,6.33398821 C24.8632075,6.02750491 23.8726415,4.49508841 23.8726415,2.96267191 C23.8726415,2.96267191 23.8726415,2.65618861 23.8726415,2.65618861 C23.5754717,1.1237721 22.3867925,-0.2043222 20.8018868,0.1021611 C20.6037736,0.1021611 20.6037736,0.1021611 20.3066038,0.1021611 C18.8207547,0.1021611 17.2358491,1.3280943 17.2358491,3.16699411 C17.2358491,4.80157171 16.0471698,6.33398821 14.4622642,6.64047151 C9.70754717,8.37721022 6.14150943,12.5658153 5.1509434,17.8781925 C4.55660377,20.7387033 4.35849057,23.9056974 4.55660377,26.7662083 C4.85377358,31.1591356 4.55660377,35.3477407 0.594339623,38.0039293 C0.297169811,38.0039293 0.297169811,38.2082515 0.297169811,38.5147348 C0,40.0471513 0,41.6817289 0,43.5206287 C0.79245283,44.0314342 1.78301887,44.2357564 2.87264151,44.0314342 C8.91509434,44.0314342 14.9575472,44.0314342 21.0990566,44.0314342 C27.1415094,44.0314342 32.9858491,44.0314342 38.8301887,43.7249509 C39.8207547,43.7249509 40.9103774,43.5206287 41.9009434,42.9076621 C41.9009434,41.6817289 42.0990566,39.0255403 41.1084906,38.5147348 Z M16.5424528,48.2200393 C16.740566,50.5697446 19.0188679,52.4086444 21.5943396,51.7956778 C21.5943396,51.7956778 21.8915094,51.7956778 21.8915094,51.7956778 C24.1698113,51.5913556 25.6556604,49.7524558 25.3584906,47.4027505 L16.5424528,47.4027505 C16.5424528,47.6070727 16.5424528,47.913556 16.5424528,48.2200393 Z" id="Shape"></path>
        </g>
    </g>
</svg>