<?xml version="1.0" encoding="UTF-8"?>
<svg width="64px" height="64px" viewBox="0 0 64 64" version="1.1" xmlns="http://www.w3.org/2000/svg" xmlns:xlink="http://www.w3.org/1999/xlink">
    <!-- Generator: Sketch 52.6 (67491) - http://www.bohemiancoding.com/sketch -->
    <title>misc-visible-true</title>
    <desc>Created with Sketch.</desc>
    <g id="misc-visible-true" stroke="none" stroke-width="1" fill="none" fill-rule="evenodd">
        <g id="icon-misc-visible-true" transform="translate(6.000000, 17.000000)" fill="#000000" fill-rule="nonzero">
            <path d="M26,0 C8.8359375,0 0,12.9020979 0,15 C0,17.0979021 8.8359375,30 26,30 C43.1640625,30 52,17.0979021 52,15 C52,12.9020979 43.1640625,0 26,0 Z M26,26.5384615 C19.5,26.5384615 14.5234375,21.3986014 14.5234375,15 C14.5234375,8.6013986 19.8046875,3.46153846 26,3.46153846 C32.5,3.46153846 37.4765625,8.6013986 37.4765625,15 C37.4765625,21.3986014 32.5,26.5384615 26,26.5384615 Z M26,15 C24.984375,13.951049 27.828125,9.12587413 26,9.12587413 C22.8515625,9.12587413 20.3125,11.7482517 20.3125,15 C20.3125,18.2517483 22.8515625,20.8741259 26,20.8741259 C29.1484375,20.8741259 31.6875,18.2517483 31.6875,15 C31.6875,13.6363636 26.8125,16.048951 26,15 Z" id="Shape"></path>
        </g>
    </g>
</svg>