<?xml version="1.0" encoding="UTF-8"?>
<svg width="64px" height="64px" viewBox="0 0 64 64" version="1.1" xmlns="http://www.w3.org/2000/svg" xmlns:xlink="http://www.w3.org/1999/xlink">
    <!-- Generator: Sketch 55.2 (78181) - https://sketchapp.com -->
    <title>misc-menu-dots-horizontal</title>
    <desc>Created with Sketch.</desc>
    <g id="misc-menu-dots-horizontal" stroke="none" stroke-width="1" fill="none" fill-rule="evenodd">
        <path d="M16,26.6666667 C13.0666667,26.6666667 10.6666667,29.0666667 10.6666667,32 C10.6666667,34.9333333 13.0666667,37.3333333 16,37.3333333 C18.9333333,37.3333333 21.3333333,34.9333333 21.3333333,32 C21.3333333,29.0666667 18.9333333,26.6666667 16,26.6666667 L16,26.6666667 Z M48,26.6666667 C45.0666667,26.6666667 42.6666667,29.0666667 42.6666667,32 C42.6666667,34.9333333 45.0666667,37.3333333 48,37.3333333 C50.9333333,37.3333333 53.3333333,34.9333333 53.3333333,32 C53.3333333,29.0666667 50.9333333,26.6666667 48,26.6666667 L48,26.6666667 Z M32,26.6666667 C29.0666667,26.6666667 26.6666667,29.0666667 26.6666667,32 C26.6666667,34.9333333 29.0666667,37.3333333 32,37.3333333 C34.9333333,37.3333333 37.3333333,34.9333333 37.3333333,32 C37.3333333,29.0666667 34.9333333,26.6666667 32,26.6666667 L32,26.6666667 Z" id="misc-menu-dots-horiz" fill="#000000"></path>
    </g>
</svg>