<?xml version="1.0" encoding="UTF-8"?>
<svg width="64px" height="64px" viewBox="0 0 64 64" version="1.1" xmlns="http://www.w3.org/2000/svg" xmlns:xlink="http://www.w3.org/1999/xlink">
    <!-- Generator: Sketch 52.6 (67491) - http://www.bohemiancoding.com/sketch -->
    <title>misc-linked</title>
    <desc>Created with Sketch.</desc>
    <g id="misc-linked" stroke="none" stroke-width="1" fill="none" fill-rule="evenodd">
        <g id="icon-misc-linked" transform="translate(6.000000, 6.000000)" fill="#000000" fill-rule="nonzero">
            <path d="M18.9921875,41.3359375 L16.3515625,43.9765625 C14.015625,46.3125 10.359375,46.3125 8.0234375,43.9765625 C7.0078125,42.859375 6.1953125,41.3359375 6.1953125,39.8125 C6.1953125,38.1875 6.8046875,36.96875 8.0234375,35.6484375 L17.9765625,26 C20.0078125,23.96875 23.6640625,21.0234375 26.5078125,23.96875 C27.828125,25.1875 29.859375,25.1875 31.1796875,23.96875 C32.5,22.6484375 32.5,20.515625 31.1796875,19.1953125 C26.3046875,14.828125 19.1953125,15.640625 13.3046875,21.53125 L3.65625,31.1796875 C1.3203125,33.515625 0,36.6640625 0,39.8125 C0,43.1640625 1.3203125,46.0078125 3.65625,48.34375 C5.9921875,50.6796875 9.140625,52 12.1875,52 C15.3359375,52 18.484375,50.6796875 20.8203125,48.34375 L23.359375,45.8046875 C24.6796875,44.484375 24.6796875,42.3515625 23.359375,41.03125 C22.34375,40.015625 20.3125,40.015625 18.9921875,41.3359375 Z M48.34375,3.859375 C43.46875,-1.015625 36.359375,-1.3203125 31.6875,3.3515625 L28.3359375,6.8046875 C27.015625,8.0234375 27.015625,10.15625 28.3359375,11.4765625 C29.65625,12.6953125 31.6875,12.6953125 33.0078125,11.4765625 L36.15625,7.8203125 C38.4921875,5.484375 41.640625,6.5 43.671875,8.328125 C44.6875,9.34375 45.5,10.96875 45.5,12.4921875 C45.5,14.015625 44.9921875,15.3359375 43.671875,16.65625 L33.3125,26.8125 C28.640625,31.484375 26.3046875,29.3515625 25.4921875,28.3359375 C24.171875,27.015625 22.140625,27.015625 20.8203125,28.3359375 C19.5,29.65625 19.5,31.6875 20.8203125,33.0078125 C22.8515625,35.140625 25.4921875,36.15625 28.03125,36.15625 C31.1796875,36.15625 34.53125,34.53125 37.6796875,31.484375 L48.140625,21.328125 C50.6796875,18.9921875 52,15.84375 52,12.4921875 C52,9.34375 50.6796875,6.1953125 48.34375,3.859375 Z" id="Shape"></path>
        </g>
    </g>
</svg>