<?xml version="1.0" encoding="UTF-8"?>
<svg width="64px" height="64px" viewBox="0 0 64 64" version="1.1" xmlns="http://www.w3.org/2000/svg" xmlns:xlink="http://www.w3.org/1999/xlink">
    <!-- Generator: Sketch 52.6 (67491) - http://www.bohemiancoding.com/sketch -->
    <title>misc-chart-pie</title>
    <desc>Created with Sketch.</desc>
    <g id="misc-chart-pie" stroke="none" stroke-width="1" fill="none" fill-rule="evenodd">
        <g transform="translate(6.000000, 6.000000)" fill="#000000" fill-rule="nonzero" id="Shape">
            <path d="M24.5302144,14.5234375 C24.5302144,10.359375 24.5302144,5.9921875 24.5302144,1.828125 C16.4210526,0.8125 6.791423,6.8046875 2.73684211,15.3359375 C-2.23001949,25.1875 -0.202729045,36.96875 7.60233918,44.6875 C15.4074074,52.5078125 27.3684211,54.03125 37.2007797,49.15625 C46.0194932,44.6875 50.9863548,35.34375 50.4795322,27.5234375 C41.8635478,27.5234375 33.3489279,27.5234375 24.5302144,27.5234375 C24.5302144,23.15625 24.5302144,18.6875 24.5302144,14.5234375 Z M28.3820663,0 C28.3820663,7.8203125 28.3820663,15.84375 28.3820663,23.6640625 C36.3898635,23.6640625 44.1949318,23.6640625 52,23.6640625 C51.6959064,10.359375 40.3430799,0 28.3820663,0 Z"></path>
        </g>
    </g>
</svg>