<?xml version="1.0" encoding="UTF-8"?>
<svg width="64px" height="64px" viewBox="0 0 64 64" version="1.1" xmlns="http://www.w3.org/2000/svg" xmlns:xlink="http://www.w3.org/1999/xlink">
    <!-- Generator: Sketch 52.6 (67491) - http://www.bohemiancoding.com/sketch -->
    <title>misc-selection-box</title>
    <desc>Created with Sketch.</desc>
    <g id="misc-selection-box" stroke="none" stroke-width="1" fill="none" fill-rule="evenodd">
        <g id="icon-misc-selection-box" transform="translate(6.000000, 9.000000)" fill="#000000" fill-rule="nonzero">
            <path d="M13,3.37333333 L39,3.37333333 L39,6.74666667 L13,6.74666667 L13,3.37333333 Z M13,39.4577778 L39,39.4577778 L39,42.9333333 L13,42.9333333 L13,39.4577778 Z M3.1484375,13.2888889 L6.5,13.2888889 L6.5,32.9155556 L3.1484375,32.9155556 L3.1484375,13.2888889 Z M45.5,13.2888889 L48.8515625,13.2888889 L48.8515625,32.9155556 L45.5,32.9155556 L45.5,13.2888889 Z M9.8515625,4.90666667 C9.8515625,7.66666667 7.71875,9.91555556 4.9765625,9.91555556 C2.234375,9.91555556 0,7.66666667 0,4.90666667 C0,2.14666667 2.234375,0 4.9765625,0 C7.71875,0 9.8515625,2.14666667 9.8515625,4.90666667 Z M52,4.90666667 C52,7.66666667 49.765625,9.91555556 47.0234375,9.91555556 C44.28125,9.91555556 42.1484375,7.66666667 42.1484375,4.90666667 C42.1484375,2.14666667 44.28125,0 47.0234375,0 C49.765625,0 52,2.14666667 52,4.90666667 Z M52,41.0933333 C52,43.8533333 49.765625,46 47.0234375,46 C44.28125,46 42.1484375,43.8533333 42.1484375,41.0933333 C42.1484375,38.3333333 44.28125,36.0844444 47.0234375,36.0844444 C49.765625,36.0844444 52,38.3333333 52,41.0933333 Z M9.8515625,41.0933333 C9.8515625,43.8533333 7.71875,46 4.9765625,46 C2.234375,46 0,43.8533333 0,41.0933333 C0,38.3333333 2.234375,36.0844444 4.9765625,36.0844444 C7.71875,36.0844444 9.8515625,38.3333333 9.8515625,41.0933333 Z" id="Shape"></path>
        </g>
    </g>
</svg>