<?xml version="1.0" encoding="UTF-8"?>
<svg width="64px" height="64px" viewBox="0 0 64 64" version="1.1" xmlns="http://www.w3.org/2000/svg" xmlns:xlink="http://www.w3.org/1999/xlink">
    <!-- Generator: Sketch 52.6 (67491) - http://www.bohemiancoding.com/sketch -->
    <title>misc-setup</title>
    <desc>Created with Sketch.</desc>
    <g id="misc-setup" stroke="none" stroke-width="1" fill="none" fill-rule="evenodd">
        <g id="icon-misc-setup" transform="translate(6.000000, 6.000000)" fill="#000000" fill-rule="nonzero">
            <path d="M31.1796875,26 C31.1796875,28.84375 28.84375,31.1796875 26,31.1796875 C23.15625,31.1796875 20.8203125,28.84375 20.8203125,26 C20.8203125,23.15625 23.15625,20.8203125 26,20.8203125 C28.84375,20.8203125 31.1796875,23.15625 31.1796875,26 Z M52,29.65625 L52,22.34375 L44.9921875,22.34375 C44.484375,19.5 43.46875,17.1640625 41.84375,14.828125 L46.8203125,9.8515625 L41.640625,4.9765625 L36.6640625,9.8515625 C34.53125,8.53125 31.9921875,7.515625 29.3515625,7.0078125 L29.3515625,0 L22.34375,0 L22.34375,7.0078125 C19.8046875,7.515625 17.1640625,8.53125 15.03125,10.15625 L10.15625,4.9765625 L4.9765625,10.15625 L10.15625,15.3359375 C8.8359375,17.46875 7.8203125,19.8046875 7.3125,22.34375 L0,22.34375 L0,29.65625 L7.3125,29.65625 C7.8203125,32.1953125 8.8359375,34.8359375 10.359375,36.96875 L5.1796875,42.1484375 L10.359375,47.0234375 L15.640625,41.84375 C17.671875,43.1640625 20.0078125,44.1796875 22.6484375,44.6875 L22.6484375,52 L29.859375,52 L29.859375,44.6875 C32.5,44.1796875 35.140625,43.1640625 37.171875,41.84375 L42.1484375,46.8203125 L47.328125,41.640625 L42.3515625,36.6640625 C43.9765625,34.53125 44.9921875,31.9921875 45.5,29.3515625 L52,29.3515625 L52,29.65625 Z M26.3046875,37.6796875 C19.8046875,37.6796875 14.5234375,32.5 14.5234375,26 C14.5234375,19.5 19.8046875,14.3203125 26.3046875,14.3203125 C32.8046875,14.3203125 37.984375,19.5 37.984375,26 C37.984375,32.5 32.8046875,37.6796875 26.3046875,37.6796875 Z" id="Shape"></path>
        </g>
    </g>
</svg>