<?xml version="1.0" encoding="UTF-8"?>
<svg width="64px" height="64px" viewBox="0 0 64 64" version="1.1" xmlns="http://www.w3.org/2000/svg" xmlns:xlink="http://www.w3.org/1999/xlink">
    <!-- Generator: Sketch 52.6 (67491) - http://www.bohemiancoding.com/sketch -->
    <title>misc-error</title>
    <desc>Created with Sketch.</desc>
    <g id="misc-error" stroke="none" stroke-width="1" fill="none" fill-rule="evenodd">
        <g id="icon-misc-error" transform="translate(6.000000, 8.000000)" fill="#000000" fill-rule="nonzero">
            <path d="M51.6953125,45.1120332 L27.5234375,1.09543568 C27.3203125,0.497925311 26.5078125,0 26,0 C25.1875,0 24.6796875,0.298755187 24.4765625,1.09543568 L0.3046875,45.1120332 C0,45.7095436 0,46.406639 0.3046875,46.9045643 C0.5078125,47.5020747 1.3203125,48 1.828125,48 L50.171875,48 C50.984375,48 51.4921875,47.7012448 51.6953125,46.9045643 C52,46.406639 52,45.7095436 51.6953125,45.1120332 Z M31.484375,41.3278008 L26,35.7510373 L20.515625,41.1286307 L17.46875,38.0414938 L22.8515625,32.6639004 L17.46875,27.2863071 L20.515625,24.2987552 L26,29.5767635 L31.484375,24.2987552 L34.53125,27.2863071 L29.1484375,32.6639004 L34.53125,38.0414938 L31.484375,41.3278008 Z" id="Shape"></path>
        </g>
    </g>
</svg>