<?xml version="1.0" encoding="UTF-8"?>
<svg width="64px" height="64px" viewBox="0 0 64 64" version="1.1" xmlns="http://www.w3.org/2000/svg" xmlns:xlink="http://www.w3.org/1999/xlink">
    <!-- Generator: Sketch 52.6 (67491) - http://www.bohemiancoding.com/sketch -->
    <title>misc-mixer</title>
    <desc>Created with Sketch.</desc>
    <g id="misc-mixer" stroke="none" stroke-width="1" fill="none" fill-rule="evenodd">
        <g id="icon-misc-mixer" transform="translate(6.000000, 6.000000)" fill="#000000" fill-rule="nonzero">
            <path d="M11.4765625,1.828125 C11.4765625,0.3046875 10.15625,0 8.53125,0 C7.0078125,0 5.6875,0.3046875 5.6875,1.828125 L5.6875,26 L11.4765625,26 L11.4765625,1.828125 Z M5.6875,50.171875 C5.6875,51.6953125 7.0078125,52 8.53125,52 C10.15625,52 11.4765625,51.6953125 11.4765625,50.171875 L11.4765625,40.3203125 L5.6875,40.3203125 L5.6875,50.171875 Z M15.640625,28.84375 L1.828125,28.84375 C0.3046875,28.84375 0,30.1640625 0,31.6875 L0,34.53125 C0,36.15625 0.3046875,37.4765625 1.828125,37.4765625 L15.640625,37.4765625 C17.1640625,37.4765625 17.46875,36.15625 17.46875,34.53125 L17.46875,31.6875 C17.46875,30.1640625 17.1640625,28.84375 15.640625,28.84375 Z M50.171875,31.6875 L36.359375,31.6875 C34.8359375,31.6875 34.53125,33.0078125 34.53125,34.53125 L34.53125,37.4765625 C34.53125,39 34.8359375,40.3203125 36.359375,40.3203125 L50.171875,40.3203125 C51.6953125,40.3203125 52,39 52,37.4765625 L52,34.53125 C52,33.0078125 51.6953125,31.6875 50.171875,31.6875 Z M34.53125,17.46875 C34.53125,15.84375 34.328125,14.5234375 32.8046875,14.5234375 L18.9921875,14.5234375 C17.46875,14.5234375 17.1640625,15.84375 17.1640625,17.46875 L17.1640625,20.3125 C17.1640625,21.8359375 17.46875,23.15625 18.9921875,23.15625 L32.8046875,23.15625 C34.328125,23.15625 34.53125,21.8359375 34.53125,20.3125 L34.53125,17.46875 Z M28.84375,1.828125 C28.84375,0.3046875 27.5234375,0 26,0 C24.4765625,0 23.15625,0.3046875 23.15625,1.828125 L23.15625,11.6796875 L28.84375,11.6796875 L28.84375,1.828125 Z M23.15625,50.171875 C23.15625,51.6953125 24.4765625,52 26,52 C27.5234375,52 28.84375,51.6953125 28.84375,50.171875 L28.84375,26 L23.15625,26 L23.15625,50.171875 Z M46.3125,1.828125 C46.3125,0.3046875 44.9921875,0 43.46875,0 C41.84375,0 40.5234375,0.3046875 40.5234375,1.828125 L40.5234375,28.84375 L46.3125,28.84375 L46.3125,1.828125 Z M40.5234375,50.171875 C40.5234375,51.6953125 41.84375,52 43.46875,52 C44.9921875,52 46.3125,51.6953125 46.3125,50.171875 L46.3125,43.1640625 L40.5234375,43.1640625 L40.5234375,50.171875 Z" id="Shape"></path>
        </g>
    </g>
</svg>