<?xml version="1.0" encoding="UTF-8"?>
<svg width="64px" height="64px" viewBox="0 0 64 64" version="1.1" xmlns="http://www.w3.org/2000/svg" xmlns:xlink="http://www.w3.org/1999/xlink">
    <!-- Generator: Sketch 52.6 (67491) - http://www.bohemiancoding.com/sketch -->
    <title>misc-quard</title>
    <desc>Created with Sketch.</desc>
    <g id="misc-quard" stroke="none" stroke-width="1" fill="none" fill-rule="evenodd">
        <g id="icon-misc-quard" transform="translate(9.000000, 6.000000)" fill="#000000" fill-rule="nonzero">
            <path d="M41.3596491,9.40856031 C35.9122807,8.59922179 31.4736842,6.27237354 27.4385965,2.73151751 C23.8070175,-0.708171206 23,-0.910505837 19.3684211,2.42801556 C14.2236842,6.87937743 8.5745614,9.40856031 1.81578947,9.91439689 C0.302631579,9.91439689 0,10.7237354 0,12.0389105 C0.302631579,14.8715953 0.302631579,17.7042802 0.807017544,20.536965 C2.8245614,31.6653696 8.07017544,41.2762646 16.8464912,48.7626459 C21.6885965,52.9105058 24.0087719,52.9105058 28.9517544,49.0661479 C40.0482456,40.2645914 45.1929825,28.3268482 46,15.6809339 C46,10.2178988 46,9.91439689 41.3596491,9.40856031 Z M32.2807018,31.463035 C33.5921053,32.7782101 33.2894737,33.4863813 32.0789474,34.4980545 C30.9692982,35.6108949 30.2631579,37.1284047 28.4473684,35.1050584 C26.8333333,33.2840467 25.0175439,31.1595331 22.6973684,28.8326848 C20.6798246,31.1595331 18.8640351,33.2840467 17.0482456,35.1050584 C15.7368421,36.6225681 14.7280702,35.6108949 13.7192982,34.4980545 C12.7105263,33.4863813 11.6008772,32.7782101 13.2149123,31.1595331 C15.0307018,29.6420233 16.8464912,27.5175097 18.5614035,25.6964981 C16.8464912,24.1789883 15.2324561,22.3579767 13.4166667,20.8404669 C12.9122807,19.8287938 12.1052632,19.0194553 13.7192982,17.5019455 C16.0394737,15.3774319 16.0394737,15.3774319 17.8552632,17.1984436 C19.3684211,19.0194553 20.9824561,20.8404669 23,23.1673152 C25.3201754,20.8404669 26.8333333,18.7159533 28.6491228,16.8949416 C29.7587719,15.8832685 30.4649123,15.8832685 31.4736842,16.8949416 C33.8947368,19.2217899 33.8947368,19.2217899 31.4736842,21.5486381 C30.2631579,22.8638132 28.9517544,24.1789883 27.4385965,25.4941634 C27.1359649,25.6964981 27.1359649,25.6964981 26.6315789,26.3035019 C28.6491228,28.0233463 30.4649123,29.844358 32.2807018,31.463035 Z" id="Shape"></path>
        </g>
    </g>
</svg>