<?xml version="1.0" encoding="UTF-8"?>
<svg width="64px" height="64px" viewBox="0 0 64 64" version="1.1" xmlns="http://www.w3.org/2000/svg" xmlns:xlink="http://www.w3.org/1999/xlink">
    <!-- Generator: Sketch 52.6 (67491) - http://www.bohemiancoding.com/sketch -->
    <title>misc-watch</title>
    <desc>Created with Sketch.</desc>
    <g id="misc-watch" stroke="none" stroke-width="1" fill="none" fill-rule="evenodd">
        <g id="icon-misc-watch" transform="translate(6.000000, 13.000000)" fill="#000000" fill-rule="nonzero">
            <path d="M51.3941748,25.0364583 C51.192233,24.046875 50.8893204,23.3541667 50.6873786,22.5625 C49.8796117,20.78125 49.3747573,19.296875 48.5669903,17.515625 C47.0524272,13.65625 45.5378641,9.89583333 43.9223301,5.83854167 C43.7203883,4.84895833 43.215534,3.76041667 42.407767,3.06770833 C40.792233,1.28645833 39.0757282,0.296875 36.9553398,0 C36.9553398,0 36.9553398,0 36.7533981,0 C36.1475728,0 35.9456311,0 35.4407767,0 C34.9359223,0 34.6330097,0 34.1281553,0.296875 C32.007767,0.791666667 30.4932039,1.78125 29.4834951,3.265625 C29.4834951,3.265625 29.4834951,3.265625 29.4834951,3.5625 C27.161165,1.78125 24.5359223,1.78125 22.2135922,3.5625 C22.2135922,3.5625 22.2135922,3.5625 22.0116505,3.265625 C20.6990291,1.484375 18.5786408,0.296875 16.2563107,0 C16.2563107,0 16.2563107,0 16.0543689,0 C15.5495146,0 15.2466019,0 14.7417476,0 C14.2368932,0 13.7320388,0.296875 13.2271845,0.296875 C10.6019417,0.989583333 8.78446602,2.57291667 7.77475728,5.046875 C7.26990291,7.125 6.46213592,8.90625 5.65436893,10.6875 C4.13980583,14.1510417 2.82718447,18.0104167 1.31262136,21.5729167 C1.00970874,22.265625 0.504854369,23.3541667 0.302912621,24.046875 C0.302912621,24.5416667 0,25.0364583 0,25.828125 C0,25.828125 0,25.828125 0,26.125 C0,26.6197917 0,27.1145833 0,27.609375 C0,28.1041667 0,28.4010417 0.302912621,28.8958333 C1.00970874,32.1614583 2.82718447,34.734375 5.65436893,36.515625 C7.26990291,37.2083333 8.78446602,37.703125 10.2990291,38 C10.2990291,38 10.2990291,38 10.6019417,38 C11.1067961,38 11.6116505,38 11.9145631,38 C12.4194175,38 12.9242718,38 13.2271845,37.703125 C17.3669903,37.0104167 20.1941748,34.4375 21.7087379,30.3802083 C21.7087379,30.3802083 21.7087379,30.1822917 21.7087379,30.1822917 C23.223301,31.171875 24.3339806,31.6666667 25.8485437,31.6666667 C27.161165,31.6666667 28.4737864,31.171875 29.6854369,30.3802083 C29.9883495,30.875 29.9883495,31.171875 30.2912621,31.3697917 C32.007767,34.9322917 34.9359223,37.2083333 38.7728155,37.703125 C39.2776699,37.703125 39.5805825,37.703125 40.0854369,38 C40.5902913,38 41.0951456,38 41.3980583,38 C41.9029126,38 42.1048544,38 42.6097087,37.703125 C46.0427184,37.0104167 48.5669903,35.4270833 50.384466,32.4583333 C51.3941748,30.875 51.6970874,29.390625 52,27.609375 C52,27.609375 52,27.609375 52,27.3125 C52,26.8177083 52,26.3229167 52,25.828125 C51.6970874,25.828125 51.6970874,25.3333333 51.3941748,25.0364583 Z M11.4097087,34.734375 C6.96699029,34.734375 3.33203883,31.171875 3.33203883,26.8177083 C3.33203883,22.5625 6.96699029,19 11.4097087,19 C15.7514563,19 19.3864078,22.5625 19.3864078,26.8177083 C19.3864078,31.171875 15.7514563,34.734375 11.4097087,34.734375 Z M25.8485437,28.4010417 C24.5359223,28.4010417 23.5262136,27.3125 23.5262136,26.125 C23.5262136,24.8385417 24.5359223,23.8489583 25.8485437,23.8489583 C27.161165,23.8489583 28.1708738,24.8385417 28.1708738,26.125 C28.1708738,27.3125 27.161165,28.4010417 25.8485437,28.4010417 Z M40.2873786,34.734375 C35.9456311,34.734375 32.3106796,31.171875 32.3106796,26.8177083 C32.3106796,22.5625 35.9456311,19 40.2873786,19 C44.7300971,19 48.3650485,22.5625 48.3650485,26.8177083 C48.5669903,31.171875 44.7300971,34.9322917 40.2873786,34.734375 Z M40.2873786,20.484375 C40.2873786,21.2760417 40.2873786,22.0677083 40.2873786,22.7604167 C41.3980583,22.7604167 42.407767,23.3541667 43.215534,24.046875 C43.9223301,24.8385417 44.2252427,25.828125 44.4271845,26.8177083 C45.2349515,26.8177083 46.0427184,26.8177083 46.7495146,26.8177083 C47.0524272,23.3541667 43.7203883,20.484375 40.2873786,20.484375 Z M11.4097087,20.484375 C11.4097087,21.2760417 11.4097087,22.0677083 11.4097087,22.7604167 C13.9339806,23.0572917 15.2466019,24.34375 15.5495146,26.8177083 C16.2563107,26.8177083 17.0640777,26.8177083 17.8718447,26.8177083 C17.8718447,23.5520833 14.7417476,20.484375 11.4097087,20.484375 Z" id="Shape"></path>
        </g>
    </g>
</svg>