<?xml version="1.0" encoding="UTF-8"?>
<svg width="64px" height="64px" viewBox="0 0 64 64" version="1.1" xmlns="http://www.w3.org/2000/svg" xmlns:xlink="http://www.w3.org/1999/xlink">
    <!-- Generator: Sketch 52.6 (67491) - http://www.bohemiancoding.com/sketch -->
    <title>misc-selection-box-empty</title>
    <desc>Created with Sketch.</desc>
    <g id="misc-selection-box-empty" stroke="none" stroke-width="1" fill="none" fill-rule="evenodd">
        <g id="icon-misc-selection-box-empty" transform="translate(6.000000, 9.000000)" fill="#000000" fill-rule="nonzero">
            <path d="M52,9.75446429 L52,0 L42.1484375,0 L42.1484375,3.49107143 L9.8515625,3.49107143 L9.8515625,0 L0,0 L0,9.75446429 L3.3515625,9.75446429 L3.3515625,36.0401786 L0,36.0401786 L0,46 L9.8515625,46 L9.8515625,42.6116071 L42.3515625,42.6116071 L42.3515625,46 L52,46 L52,36.0401786 L48.6484375,36.0401786 L48.6484375,9.75446429 L52,9.75446429 Z M45.5,3.18303571 L48.6484375,3.18303571 L48.6484375,6.57142857 L45.5,6.57142857 L45.5,3.18303571 Z M3.3515625,3.18303571 L6.8046875,3.18303571 L6.8046875,6.57142857 L3.3515625,6.57142857 L3.3515625,3.18303571 Z M3.3515625,42.6116071 L3.3515625,39.2232143 L6.8046875,39.2232143 L6.8046875,42.6116071 L3.3515625,42.6116071 Z M48.6484375,42.6116071 L45.5,42.6116071 L45.5,39.2232143 L48.6484375,39.2232143 L48.6484375,42.6116071 Z M45.5,36.0401786 L42.1484375,36.0401786 L42.1484375,39.4285714 L9.8515625,39.4285714 L9.8515625,36.0401786 L6.5,36.0401786 L6.5,9.75446429 L9.8515625,9.75446429 L9.8515625,6.57142857 L42.3515625,6.57142857 L42.3515625,9.75446429 L45.8046875,9.75446429 L45.8046875,36.0401786 L45.5,36.0401786 Z" id="Shape"></path>
        </g>
    </g>
</svg>