<?xml version="1.0" encoding="UTF-8"?>
<svg width="64px" height="64px" viewBox="0 0 64 64" version="1.1" xmlns="http://www.w3.org/2000/svg" xmlns:xlink="http://www.w3.org/1999/xlink">
    <!-- Generator: Sketch 52.6 (67491) - http://www.bohemiancoding.com/sketch -->
    <title>misc-paperplane</title>
    <desc>Created with Sketch.</desc>
    <g id="misc-paperplane" stroke="none" stroke-width="1" fill="none" fill-rule="evenodd">
        <g id="icon-misc-paperplane" transform="translate(6.000000, 11.000000)" fill="#000000" fill-rule="nonzero">
            <path d="M50.1825243,0.101694915 C49.3747573,0.406779661 1.51456311,17.2881356 0.80776699,17.7966102 C0,18.1016949 -0.302912621,18.6101695 0.504854369,19.1186441 C1.51456311,19.6271186 17.568932,25.9322034 17.568932,25.9322034 C17.568932,25.9322034 48.0621359,3.25423729 48.3650485,2.94915254 C48.8699029,2.74576271 49.3747573,3.25423729 49.0718447,3.76271186 C48.8699029,4.06779661 25.8485437,29.2881356 25.8485437,29.2881356 C25.8485437,29.2881356 40.5902913,37.3220339 41.6,37.8305085 C42.407767,38.440678 43.4174757,37.8305085 43.7203883,36.8135593 C43.9223301,35.4915254 51.6970874,2.23728814 52,1.42372881 C52,0.406779661 51.192233,-0.101694915 50.1825243,0.101694915 Z M17.568932,41.2881356 C17.568932,42 18.0737864,42 18.5786408,41.7966102 C19.3864078,40.9830508 26.6563107,34.4745763 26.6563107,34.4745763 L17.568932,29.7966102 L17.568932,41.2881356 Z" id="Shape"></path>
        </g>
    </g>
</svg>