<?xml version="1.0" encoding="UTF-8"?>
<svg width="64px" height="64px" viewBox="0 0 64 64" version="1.1" xmlns="http://www.w3.org/2000/svg" xmlns:xlink="http://www.w3.org/1999/xlink">
    <!-- Generator: Sketch 52.6 (67491) - http://www.bohemiancoding.com/sketch -->
    <title>misc-fingerprint</title>
    <desc>Created with Sketch.</desc>
    <g id="misc-fingerprint" stroke="none" stroke-width="1" fill="none" fill-rule="evenodd">
        <g id="icon-misc-fingerprint" transform="translate(13.000000, 6.000000)" fill="#000000" fill-rule="nonzero">
            <path d="M26.0601093,17.0930693 C25.7486339,21.5207921 24.9180328,25.2277228 23.0491803,28.419802 C20.6612022,32.3326733 16.715847,34.7009901 12.4590164,36.039604 C9.55191257,37.0693069 6.64480874,37.6871287 3.42622951,38.4079208 C2.38797814,38.7168317 1.86885246,38.2019802 1.55737705,37.3782178 C1.24590164,36.5544554 1.86885246,35.8336634 2.59562842,35.5247525 C4.77595628,35.009901 6.85245902,34.4950495 9.03278689,33.6712871 C11.1092896,33.4653465 12.9781421,32.6415842 14.5355191,31.8178218 C19.1038251,29.7584158 21.4918033,26.0514851 22.3224044,21.0059406 C22.5300546,19.6673267 22.5300546,18.4316832 22.5300546,17.0930693 C22.5300546,15.239604 21.1803279,13.9009901 19.4153005,13.3861386 C17.7540984,13.3861386 16.1967213,14.4158416 15.6775956,16.2693069 C15.3661202,17.2990099 15.1584699,18.4316832 14.8469945,19.6673267 C13.4972678,24.1980198 10.3825137,26.8752475 5.81420765,27.9049505 C4.46448087,28.1108911 3.1147541,28.1108911 1.86885246,28.419802 C0.726775956,28.419802 0,27.9049505 0,26.8752475 C0,25.7425743 0.519125683,25.2277228 1.55737705,25.2277228 C3.1147541,25.0217822 4.77595628,25.0217822 6.33333333,24.5069307 C9.75956284,23.3742574 11.420765,20.4910891 11.9398907,17.2990099 C12.7704918,14.209901 13.8087432,12.0475248 16.715847,11.0178218 C21.4918033,9.16435644 26.579235,12.8712871 26.0601093,17.0930693 Z M31.3551913,18.6376238 C31.3551913,20.4910891 31.0437158,22.0356436 31.0437158,23.8891089 C31.0437158,25.7425743 31.0437158,27.5960396 32.704918,28.6257426 C33.7431694,29.449505 35.0928962,29.9643564 36.1311475,30.4792079 C36.9617486,30.7881188 37.4808743,31.3029703 37.4808743,32.3326733 C37.4808743,33.4653465 36.3387978,33.980198 35.3005464,33.6712871 C29.6939891,32.1267327 27.3060109,28.419802 27.8251366,22.8594059 C28.136612,20.4910891 28.4480874,18.1227723 27.8251366,15.7544554 C26.7868852,11.8415842 23.3606557,8.85544554 19.1038251,8.85544554 C15.1584699,8.85544554 11.9398907,11.0178218 10.3825137,15.239604 C10.3825137,15.4455446 10.0710383,16.5782178 9.75956284,17.2990099 C8.72131148,21.0059406 6.12568306,22.8594059 2.38797814,22.6534653 C1.24590164,22.6534653 0.519125683,22.0356436 0.519125683,21.0059406 C0.519125683,19.9762376 1.24590164,19.4613861 2.38797814,19.4613861 C4.98360656,19.4613861 6.12568306,18.6376238 6.64480874,16.0633663 C7.16393443,13.6950495 7.89071038,11.5326733 9.24043716,9.67920792 C15.1584699,2.26534653 26.579235,3.91287129 30.3169399,12.5623762 C31.3551913,14.7247525 31.5628415,16.5782178 31.3551913,18.6376238 Z M36.9617486,17.6079208 C36.6502732,19.6673267 36.6502732,21.3148515 36.3387978,23.1683168 C36.3387978,23.8891089 36.3387978,24.7128713 37.1693989,25.2277228 C38,25.7425743 38.2076503,26.8752475 37.6885246,27.5960396 C37.1693989,28.419802 36.1311475,28.419802 35.3005464,27.9049505 C33.431694,26.5663366 32.9125683,24.5069307 33.2240437,22.3445545 C33.431694,19.4613861 33.7431694,16.2693069 32.9125683,13.3861386 C31.0437158,7.61980198 25.4371585,2.88316832 18.0655738,3.3980198 C12.7704918,3.91287129 6.64480874,7.61980198 4.98360656,14.4158416 C4.98360656,14.9306931 4.77595628,15.4455446 4.46448087,16.0633663 C4.2568306,16.7841584 3.42622951,17.0930693 2.59562842,17.0930693 C1.86885246,16.7841584 1.24590164,16.0633663 1.55737705,15.239604 C3.1147541,6.48712871 9.24043716,1.23564356 16.715847,0.205940594 C26.0601093,-1.13267327 34.2622951,4.94257426 36.3387978,13.6950495 C36.6502732,14.9306931 36.6502732,16.5782178 36.9617486,17.6079208 Z M33.2240437,43.9683168 C31.5628415,43.4534653 30.0054645,42.9386139 28.4480874,42.4237624 C26.7868852,41.8059406 25.4371585,41.0851485 23.8797814,40.2613861 C22.5300546,39.4376238 21.1803279,39.4376238 19.9344262,40.0554455 C15.6775956,41.2910891 11.6284153,42.4237624 7.3715847,43.4534653 C6.64480874,43.6594059 5.50273224,43.9683168 4.77595628,43.9683168 C3.73770492,43.9683168 3.1147541,43.6594059 3.1147541,42.629703 C2.90710383,41.8059406 3.42622951,41.0851485 4.46448087,40.7762376 C9.75956284,39.4376238 15.1584699,37.8930693 20.4535519,36.5544554 C22.3224044,36.039604 23.8797814,36.5544554 25.4371585,37.3782178 C28.4480874,38.7168317 31.0437158,40.2613861 34.2622951,41.0851485 C35.0928962,41.2910891 35.6120219,41.8059406 35.3005464,42.629703 C35.0928962,43.4534653 34.2622951,43.9683168 33.2240437,43.9683168 Z M20.6612022,17.9168317 C20.1420765,24.1980198 17.5464481,28.9346535 10.9016393,31.3029703 C8.20218579,32.3326733 5.29508197,32.8475248 2.59562842,33.4653465 C1.55737705,33.6712871 0.726775956,33.1564356 0.726775956,32.3326733 C0.519125683,31.3029703 1.03825137,30.7881188 2.07650273,30.4792079 C4.98360656,29.7584158 7.89071038,29.2435644 10.5901639,28.1108911 C15.1584699,26.2574257 17.2349727,22.6534653 17.5464481,17.9168317 C17.5464481,16.5782178 18.0655738,16.0633663 19.1038251,16.0633663 C20.1420765,15.7544554 20.6612022,16.5782178 20.6612022,17.9168317 Z M21.4918033,41.6 C22.5300546,41.8059406 23.8797814,42.1148515 24.9180328,42.629703 C27.0983607,43.4534653 29.1748634,44.2772277 31.0437158,45.3069307 C31.8743169,45.5128713 32.3934426,46.6455446 32.0819672,47.3663366 C31.8743169,48.190099 31.0437158,48.7049505 30.0054645,48.3960396 C28.9672131,48.190099 28.136612,47.6752475 27.0983607,47.3663366 C26.0601093,46.8514851 25.2295082,46.6455446 24.1912568,46.0277228 C22.5300546,45.3069307 20.6612022,44.9980198 18.7923497,45.5128713 C15.3661202,46.6455446 11.9398907,47.3663366 8.5136612,48.190099 C8.20218579,48.190099 7.89071038,48.190099 7.68306011,48.190099 C6.85245902,48.190099 6.33333333,47.6752475 6.12568306,46.8514851 C5.81420765,46.0277228 6.33333333,45.3069307 7.16393443,44.9980198 C11.420765,43.9683168 15.6775956,42.9386139 19.9344262,41.8059406 C20.6612022,41.8059406 20.9726776,41.8059406 21.4918033,41.6 C21.4918033,41.8059406 21.4918033,41.6 21.4918033,41.6 Z M20.6612022,47.3663366 C23.0491803,47.3663366 24.9180328,48.3960396 27.0983607,49.219802 C27.8251366,49.5287129 27.8251366,50.5584158 27.6174863,51.0732673 C27.3060109,51.8970297 26.579235,52.1029703 25.7486339,51.8970297 C25.2295082,51.5881188 24.7103825,51.5881188 24.1912568,51.3821782 C22.010929,50.249505 20.1420765,50.0435644 17.7540984,50.8673267 C15.8852459,51.3821782 14.0163934,51.5881188 12.147541,51.8970297 C11.420765,52.1029703 10.5901639,51.5881188 10.3825137,50.8673267 C10.0710383,49.7346535 10.5901639,49.0138614 11.420765,49.0138614 C14.0163934,48.3960396 16.715847,47.8811881 19.4153005,47.3663366 C20.1420765,47.3663366 20.4535519,47.3663366 20.6612022,47.3663366 Z M25.7486339,30.4792079 C26.2677596,30.7881188 26.7868852,31.0970297 27.0983607,31.3029703 C29.1748634,33.980198 32.3934426,35.009901 35.3005464,35.8336634 C36.3387978,36.039604 36.9617486,36.8633663 36.9617486,37.6871287 C36.6502732,38.4079208 35.8196721,38.9227723 35.0928962,38.9227723 C31.3551913,38.2019802 27.6174863,36.8633663 24.9180328,33.6712871 C24.3989071,33.1564356 24.1912568,32.6415842 24.7103825,31.8178218 C24.7103825,31.0970297 25.2295082,30.7881188 25.7486339,30.4792079 Z" id="Shape"></path>
        </g>
    </g>
</svg>