<?xml version="1.0" encoding="UTF-8"?>
<svg width="64px" height="64px" viewBox="0 0 64 64" version="1.1" xmlns="http://www.w3.org/2000/svg" xmlns:xlink="http://www.w3.org/1999/xlink">
    <!-- Generator: Sketch 52.6 (67491) - http://www.bohemiancoding.com/sketch -->
    <title>misc-print</title>
    <desc>Created with Sketch.</desc>
    <g id="misc-print" stroke="none" stroke-width="1" fill="none" fill-rule="evenodd">
        <g id="icon-misc-print" transform="translate(8.000000, 6.000000)" fill="#000000" fill-rule="nonzero">
            <path d="M48,18.484375 C48,15.84375 47.1932773,15.03125 44.6722689,15.03125 C43.0588235,15.03125 41.8487395,15.03125 40.2352941,15.03125 C40.2352941,11.4765625 40.2352941,8.328125 40.2352941,5.1796875 C40.2352941,1.828125 38.4201681,0 35.092437,0 C27.6302521,0 20.1680672,0 12.605042,0 C9.57983193,0 7.76470588,1.828125 7.76470588,4.9765625 C7.76470588,8.0234375 7.76470588,11.4765625 7.76470588,15.03125 C5.94957983,15.03125 4.13445378,15.03125 2.62184874,15.03125 C1.31092437,15.03125 0,15.84375 0,17.46875 C0,24.4765625 0,31.6875 0,38.6953125 C0,39.5078125 1.00840336,40.828125 1.81512605,40.828125 C3.6302521,41.03125 5.44537815,40.828125 7.46218487,40.828125 C7.46218487,37.4765625 7.46218487,34.328125 7.46218487,31.1796875 C18.3529412,31.1796875 29.1428571,31.1796875 40.2352941,31.1796875 C40.2352941,34.328125 40.2352941,37.6796875 40.2352941,40.828125 C41.8487395,40.828125 43.3613445,40.828125 44.6722689,40.828125 C47.1932773,40.828125 47.7983193,40.015625 47.7983193,37.6796875 C48,31.484375 48,24.984375 48,18.484375 Z M37.210084,20.3125 C28.1344538,20.3125 19.5630252,20.3125 10.789916,20.3125 C10.789916,17.1640625 10.789916,14.3203125 10.789916,11.4765625 C10.789916,9.34375 10.789916,7.3125 10.789916,5.484375 C10.789916,3.859375 11.5966387,2.84375 13.4117647,2.84375 C20.3697479,2.84375 27.6302521,2.84375 34.5882353,2.84375 C36.1008403,2.84375 37.210084,3.65625 37.210084,4.9765625 C37.210084,9.8515625 37.210084,15.03125 37.210084,20.3125 Z M10.789916,34.53125 C10.789916,39.8125 10.789916,44.6875 10.789916,49.6640625 C10.789916,50.984375 11.5966387,52 13.1092437,52 C20.3697479,52 27.6302521,52 34.8907563,52 C36.4033613,52 37.210084,51.1875 37.210084,49.6640625 C37.210084,44.6875 37.210084,39.8125 37.210084,34.53125 C28.4369748,34.53125 19.5630252,34.53125 10.789916,34.53125 Z" id="Shape"></path>
        </g>
    </g>
</svg>