<?xml version="1.0" encoding="UTF-8"?>
<svg width="64px" height="64px" viewBox="0 0 64 64" version="1.1" xmlns="http://www.w3.org/2000/svg" xmlns:xlink="http://www.w3.org/1999/xlink">
    <!-- Generator: Sketch 52.6 (67491) - http://www.bohemiancoding.com/sketch -->
    <title>misc-bell-empty</title>
    <desc>Created with Sketch.</desc>
    <g id="misc-bell-empty" stroke="none" stroke-width="1" fill="none" fill-rule="evenodd">
        <g id="icon-misc-bell-empty" transform="translate(11.000000, 6.000000)" fill="#000000" fill-rule="nonzero">
            <path d="M41.0047393,38.5147348 C37.4218009,35.654224 35.92891,31.1591356 36.7251185,26.459725 C36.7251185,24.9273084 36.7251185,23.5992141 36.7251185,22.0667976 C36.9241706,15.2220039 32.6445498,8.99017682 26.2748815,6.33398821 C24.6824645,6.02750491 23.6872038,4.49508841 23.6872038,2.96267191 C23.6872038,2.96267191 23.6872038,2.65618861 23.6872038,2.65618861 C23.3886256,1.1237721 22.1943128,-0.2043222 20.6018957,0.1021611 C20.4028436,0.1021611 20.4028436,0.1021611 20.1042654,0.1021611 C18.8104265,0.1021611 17.3175355,1.3280943 17.3175355,3.16699411 C17.3175355,4.80157171 16.0236967,6.33398821 14.5308057,6.64047151 C9.65402844,8.37721022 6.07109005,12.5658153 5.07582938,17.8781925 C4.57819905,20.7387033 4.27962085,23.9056974 4.57819905,26.7662083 C4.87677725,31.1591356 4.57819905,35.3477407 0.497630332,38.0039293 C0.298578199,38.0039293 0.298578199,38.2082515 0.298578199,38.5147348 C0,40.0471513 0,41.6817289 0,43.5206287 C0.796208531,44.0314342 1.79146919,44.2357564 2.78672986,44.0314342 C8.95734597,44.0314342 15.028436,44.0314342 21.0995261,44.0314342 C27.2701422,44.0314342 33.1421801,44.0314342 39.014218,43.7249509 C40.0094787,43.7249509 41.0047393,43.5206287 42,42.9076621 C42,41.6817289 42,39.0255403 41.0047393,38.5147348 Z M30.3554502,39.3320236 C27.2701422,39.3320236 23.985782,39.3320236 20.9004739,39.3320236 C17.8151659,39.3320236 14.5308057,39.3320236 11.7440758,39.3320236 C11.4454976,39.3320236 10.9478673,39.5363458 10.6492891,39.3320236 C9.65402844,39.0255403 8.95734597,38.0039293 9.1563981,36.9823183 C9.1563981,31.6699411 8.95734597,26.7662083 9.1563981,21.453831 C9.1563981,14.9155206 14.5308057,9.50098232 21.0995261,9.70530452 C27.4691943,9.70530452 32.8436019,15.2220039 32.6445498,22.0667976 C32.6445498,26.9705305 32.6445498,31.9764244 32.6445498,36.9823183 C32.6445498,37.1866405 32.6445498,37.697446 32.6445498,38.0039293 C32.3459716,39.0255403 31.3507109,39.5363458 30.3554502,39.3320236 Z M16.521327,48.2200393 C16.8199052,50.5697446 19.1090047,52.4086444 21.6966825,51.7956778 C21.6966825,51.7956778 21.8957346,51.7956778 21.8957346,51.7956778 C24.1848341,51.5913556 25.7772512,49.7524558 25.478673,47.4027505 L16.3222749,47.4027505 C16.3222749,47.6070727 16.521327,47.913556 16.521327,48.2200393 Z" id="Shape"></path>
        </g>
    </g>
</svg>