<?xml version="1.0" encoding="UTF-8"?>
<svg width="64px" height="64px" viewBox="0 0 64 64" version="1.1" xmlns="http://www.w3.org/2000/svg" xmlns:xlink="http://www.w3.org/1999/xlink">
    <!-- Generator: Sketch 52.6 (67491) - http://www.bohemiancoding.com/sketch -->
    <title>misc-menu-dots-vertical</title>
    <desc>Created with Sketch.</desc>
    <g id="misc-menu-dots-vertical" stroke="none" stroke-width="1" fill="none" fill-rule="evenodd">
        <g id="icon-misc-menu-dots-vertical" transform="translate(27.000000, 6.000000)" fill="#000000" fill-rule="nonzero">
            <path d="M5,9.953125 C2.24489796,9.953125 0,7.71875 0,4.9765625 C0,2.234375 2.24489796,0 5,0 C7.75510204,0 10,2.234375 10,4.9765625 C10,7.71875 7.75510204,9.953125 5,9.953125 Z M5,52 C2.24489796,52 0,49.765625 0,47.0234375 C0,44.28125 2.24489796,42.046875 5,42.046875 C7.75510204,42.046875 10,44.28125 10,47.0234375 C10,49.765625 7.75510204,52 5,52 Z M5,30.9765625 C2.24489796,30.9765625 0,28.7421875 0,26 C0,23.2578125 2.24489796,21.0234375 5,21.0234375 C7.75510204,21.0234375 10,23.2578125 10,26 C10,28.7421875 7.75510204,30.9765625 5,30.9765625 Z" id="Shape"></path>
        </g>
    </g>
</svg>