<?xml version="1.0" encoding="UTF-8"?>
<svg width="64px" height="64px" viewBox="0 0 64 64" version="1.1" xmlns="http://www.w3.org/2000/svg" xmlns:xlink="http://www.w3.org/1999/xlink">
    <!-- Generator: Sketch 52.6 (67491) - http://www.bohemiancoding.com/sketch -->
    <title>misc-movie-play</title>
    <desc>Created with Sketch.</desc>
    <g id="misc-movie-play" stroke="none" stroke-width="1" fill="none" fill-rule="evenodd">
        <g id="icon-misc-movie-play" transform="translate(6.000000, 6.000000)" fill="#000000" fill-rule="nonzero">
            <path d="M0,49.6502947 C0,34.0196464 0,18.2868369 0,2.65618861 C0.3046875,2.043222 0.3046875,1.8388998 0.5078125,1.3280943 C1.015625,0.817288802 1.828125,0.306483301 2.640625,0 C18.1796875,0 33.8203125,0 49.359375,0 C51.1875,0.510805501 52,1.5324165 52,3.37131631 C52,18.2868369 52,33.5088409 52,48.4243615 C52,48.6286837 52,48.935167 52,49.4459725 C51.6953125,50.978389 50.4765625,52 48.6484375,52 C33.515625,52 18.484375,52 3.3515625,52 C3.3515625,52 3.1484375,52 3.1484375,52 C2.3359375,52 1.828125,51.7956778 1.3203125,51.2848723 C0.8125,50.978389 0.3046875,50.4675835 0,49.6502947 Z M48.6484375,13.0766208 C33.515625,13.0766208 18.484375,13.0766208 3.3515625,13.0766208 C3.3515625,25.1316306 3.3515625,36.8801572 3.3515625,48.935167 C18.484375,48.935167 33.515625,48.935167 48.6484375,48.935167 C48.6484375,37.1866405 48.6484375,25.1316306 48.6484375,13.0766208 Z M48.6484375,9.90962672 C48.6484375,8.88801572 48.6484375,8.07072692 48.6484375,7.04911591 C48.6484375,6.84479371 48.6484375,6.53831041 48.34375,6.53831041 C47.53125,5.51669941 46.515625,4.69941061 45.8046875,3.88212181 C45.5,3.67779961 45.1953125,3.67779961 44.9921875,3.67779961 C43.1640625,3.67779961 41.3359375,3.67779961 39.3046875,3.67779961 C39.3046875,3.67779961 39,3.67779961 38.6953125,3.67779961 C39.8125,5.51669941 40.5234375,7.35559921 41.3359375,9.19449902 C41.640625,9.90962672 42.1484375,10.21611 42.859375,10.21611 C44.9921875,9.70530452 46.8203125,9.90962672 48.6484375,9.90962672 Z M22.6484375,9.90962672 C22.6484375,9.70530452 22.6484375,9.70530452 22.6484375,9.90962672 C21.53125,7.55992141 20.515625,5.51669941 19.5,3.67779961 C19.5,3.37131631 19.1953125,3.37131631 18.9921875,3.37131631 C17.1640625,3.37131631 15.03125,3.37131631 13.3046875,3.37131631 C13.3046875,3.37131631 13,3.37131631 13,3.37131631 C14.015625,5.51669941 15.03125,7.55992141 16.1484375,9.70530452 C16.1484375,9.70530452 16.3515625,9.90962672 16.3515625,9.90962672 C18.484375,9.90962672 20.515625,9.90962672 22.6484375,9.90962672 Z M35.6484375,9.90962672 C35.6484375,9.70530452 35.6484375,9.70530452 35.6484375,9.90962672 C34.53125,7.86640472 33.515625,5.72102161 32.5,3.67779961 C32.5,3.37131631 32.1953125,3.37131631 31.9921875,3.37131631 C30.1640625,3.37131631 28.03125,3.37131631 26.3046875,3.37131631 C26.3046875,3.37131631 26,3.37131631 26,3.37131631 C27.015625,5.51669941 28.03125,7.55992141 29.1484375,9.70530452 C29.1484375,9.70530452 29.3515625,9.90962672 29.3515625,9.90962672 C31.484375,9.90962672 33.515625,9.90962672 35.6484375,9.90962672 Z M9.6484375,9.90962672 C9.6484375,9.70530452 9.6484375,9.70530452 9.6484375,9.90962672 C8.53125,7.55992141 7.515625,5.51669941 6.8046875,3.67779961 C6.8046875,3.67779961 6.5,3.37131631 6.5,3.37131631 C5.484375,3.37131631 4.46875,3.37131631 3.65625,3.37131631 C3.65625,5.51669941 3.65625,7.86640472 3.65625,9.90962672 C5.484375,9.90962672 7.515625,9.90962672 9.6484375,9.90962672 Z M16.3515625,31.1591356 C16.3515625,28.502947 16.3515625,25.8467583 16.3515625,23.2927308 C16.3515625,22.9862475 16.3515625,22.7819253 16.3515625,22.475442 C16.65625,20.9430255 17.671875,20.43222 18.6875,20.9430255 C18.9921875,20.9430255 19.1953125,21.1473477 19.5,21.1473477 C24.984375,23.8035363 30.46875,26.6640472 35.8515625,29.3202358 C36.15625,29.524558 36.6640625,29.8310413 36.96875,30.0353635 C37.4765625,30.6483301 37.4765625,31.3634578 36.96875,31.8742633 C36.6640625,32.1807466 36.359375,32.3850688 35.8515625,32.3850688 C30.46875,35.3477407 24.984375,37.9017682 19.5,40.762279 C18.9921875,41.0687623 18.484375,41.0687623 17.9765625,41.2730845 C16.859375,41.2730845 16.3515625,40.5579568 16.3515625,39.5363458 C16.3515625,38.2082515 16.3515625,36.5736739 16.3515625,35.3477407 C16.3515625,33.7131631 16.3515625,32.3850688 16.3515625,31.1591356 Z" id="Shape"></path>
        </g>
    </g>
</svg>