<?xml version="1.0" encoding="UTF-8"?>
<svg width="64px" height="64px" viewBox="0 0 64 64" version="1.1" xmlns="http://www.w3.org/2000/svg" xmlns:xlink="http://www.w3.org/1999/xlink">
    <!-- Generator: Sketch 52.6 (67491) - http://www.bohemiancoding.com/sketch -->
    <title>misc-photo</title>
    <desc>Created with Sketch.</desc>
    <g id="misc-photo" stroke="none" stroke-width="1" fill="none" fill-rule="evenodd">
        <g id="icon-misc-photo" transform="translate(6.000000, 9.000000)" fill="#000000" fill-rule="nonzero">
            <path d="M42.4615385,5.12227074 C39.3846154,5.3231441 37.025641,4.62008734 35.3846154,2.00873362 C34.5641026,0.502183406 33.025641,0 31.1794872,0 C27.7948718,0 24.1025641,0 20.7179487,0 C18.8717949,0 17.3333333,0.502183406 16.2051282,2.00873362 C14.3589744,4.62008734 12,5.62445415 9.12820513,5.12227074 C8.1025641,5.12227074 7.28205128,5.12227074 6.25641026,5.12227074 C1.74358974,5.12227074 0,6.930131 0,11.2489083 C0,20.790393 0,30.0305677 0,39.5720524 C0,44.1921397 1.74358974,46 6.76923077,46 C13.1282051,46 19.6923077,46 25.9487179,46 C32.5128205,46 39.3846154,46 45.9487179,46 C50.1538462,46 51.8974359,43.8908297 51.8974359,39.7729258 C51.8974359,31.0349345 51.6923077,22.5982533 51.8974359,13.860262 C52.2051282,5.82532751 50.3589744,4.62008734 42.4615385,5.12227074 Z M25.6410256,38.768559 C18.3589744,38.5676856 12.3076923,32.6419214 12.3076923,25.4104803 C12.3076923,18.1790393 18.5641026,12.2532751 25.9487179,12.2532751 C33.3333333,12.2532751 39.5897436,18.4803493 39.3846154,25.4104803 C39.3846154,32.8427948 33.025641,39.069869 25.6410256,38.768559 Z M25.6410256,17.6768559 C21.2307692,17.6768559 17.8461538,21.2925764 17.8461538,25.7117904 C17.8461538,30.0305677 21.4358974,33.6462882 25.9487179,33.6462882 C30.4615385,33.6462882 34.0512821,30.0305677 34.0512821,25.7117904 C34.0512821,21.0917031 30.4615385,17.4759825 25.6410256,17.6768559 Z" id="Shape"></path>
        </g>
    </g>
</svg>