<?xml version="1.0" encoding="UTF-8"?>
<svg width="64px" height="64px" viewBox="0 0 64 64" version="1.1" xmlns="http://www.w3.org/2000/svg" xmlns:xlink="http://www.w3.org/1999/xlink">
    <!-- Generator: Sketch 53.2 (72643) - https://sketchapp.com -->
    <title>misc-subscription</title>
    <desc>Created with Sketch.</desc>
    <g id="misc-subscription" stroke="none" stroke-width="1" fill="none" fill-rule="evenodd">
        <path d="M50.6363124,20.3027063 C49.7591913,18.9084319 48.7261091,17.6134107 47.5563492,16.4436508 C43.4558783,12.34318 37.9159787,10 32,10 C19.8497355,10 10,19.8497355 10,32 L6,32 C6,17.6405965 17.6405965,6 32,6 C38.9877489,6 45.5415963,8.77204371 50.3847763,13.6152237 C51.3489907,14.5794381 52.2346983,15.6159089 53.0341516,16.7142766 L53.0341516,10.3027063 L57.0341516,10.3027063 L57.0341516,24.3027063 L43.0341516,24.3027063 L43.0341516,20.3027063 L50.6363124,20.3027063 Z M13.3636876,43.6972937 C14.2408087,45.0915681 15.2738909,46.3865893 16.4436508,47.5563492 C20.5441217,51.65682 26.0840213,54 32,54 C44.1502645,54 54,44.1502645 54,32 L58,32 C58,46.3594035 46.3594035,58 32,58 C25.0122511,58 18.4584037,55.2279563 13.6152237,50.3847763 C12.6510093,49.4205619 11.7653017,48.3840911 10.9658484,47.2857234 L10.9658484,53.6972937 L6.9658484,53.6972937 L6.9658484,39.6972937 L18.539336,39.6972937 C19.0486616,40.5767123 19.8936368,41.3094001 20.9658484,41.8721149 L20.9658484,43.6972937 L13.3636876,43.6972937 Z M29,40.5453089 C28.3560675,40.6435687 27.6725227,40.6964286 26.9642857,40.6964286 C23.1180169,40.6964286 20,39.1374201 20,37.2142857 L20,35.0410748 C21.6675065,36.2642325 24.2085309,36.9464286 26.9642857,36.9464286 C27.6600809,36.9464286 28.342187,36.9029384 29,36.8182315 L29,40.5453089 Z M29,34.7953089 C28.3560675,34.8935687 27.6725227,34.9464286 26.9642857,34.9464286 C23.1180169,34.9464286 20,33.3874201 20,31.4642857 L20,29.4696462 C21.6675065,30.6928039 24.2085309,31.375 26.9642857,31.375 C27.6600809,31.375 28.342187,31.3315099 29,31.2468029 L29,34.7953089 Z M33.9285714,25.8738392 C31.7634499,26.4919035 30.0701697,27.6250062 29.3614954,29.1632182 C28.6140921,29.3002221 27.8066543,29.375 26.9642857,29.375 C23.1180169,29.375 20,27.8159915 20,25.8928571 L20,23.8982177 C21.6675065,25.1213754 24.2085309,25.8035714 26.9642857,25.8035714 C29.7200405,25.8035714 32.2610649,25.1213754 33.9285714,23.8982177 L33.9285714,25.8738392 Z M26.9642857,23.8035714 C23.1180169,23.8035714 20,22.244563 20,20.3214286 C20,18.3982942 23.1180169,16.8392857 26.9642857,16.8392857 C30.8105545,16.8392857 33.9285714,18.3982942 33.9285714,20.3214286 C33.9285714,22.244563 30.8105545,23.8035714 26.9642857,23.8035714 Z M44.9285714,39.9696462 L44.9285714,41.9642857 C44.9285714,43.8874201 41.8105545,45.4464286 37.9642857,45.4464286 C34.1180169,45.4464286 31,43.8874201 31,41.9642857 L31,39.9696462 C32.6675065,41.1928039 35.2085309,41.875 37.9642857,41.875 C40.7200405,41.875 43.2610649,41.1928039 44.9285714,39.9696462 Z M44.9285714,34.3982177 L44.9285714,36.3928571 C44.9285714,38.3159915 41.8105545,39.875 37.9642857,39.875 C34.1180169,39.875 31,38.3159915 31,36.3928571 L31,34.3982177 C32.6675065,35.6213754 35.2085309,36.3035714 37.9642857,36.3035714 C40.7200405,36.3035714 43.2610649,35.6213754 44.9285714,34.3982177 Z M37.9642857,34.3035714 C34.1180169,34.3035714 31,32.744563 31,30.8214286 C31,28.8982942 34.1180169,27.3392857 37.9642857,27.3392857 C41.8105545,27.3392857 44.9285714,28.8982942 44.9285714,30.8214286 C44.9285714,32.744563 41.8105545,34.3035714 37.9642857,34.3035714 Z" id="Combined-Shape" fill="#000000" fill-rule="nonzero"></path>
    </g>
</svg>