<?xml version="1.0" encoding="UTF-8"?>
<svg width="64px" height="64px" viewBox="0 0 64 64" version="1.1" xmlns="http://www.w3.org/2000/svg" xmlns:xlink="http://www.w3.org/1999/xlink">
    <!-- Generator: Sketch 52.6 (67491) - http://www.bohemiancoding.com/sketch -->
    <title>misc-visible-false</title>
    <desc>Created with Sketch.</desc>
    <g id="misc-visible-false" stroke="none" stroke-width="1" fill="none" fill-rule="evenodd">
        <g id="icon-misc-visible-false" transform="translate(6.000000, 10.000000)" fill="#000000" fill-rule="nonzero">
            <path d="M33.4932302,0 L28.8665377,8.03652968 C27.7601547,8.03652968 26.754352,7.73515982 25.7485493,7.73515982 C21.3230174,7.73515982 16.696325,8.73972603 12.3713733,10.8493151 C9.25338491,12.3561644 5.93423598,14.6666667 3.31914894,17.4794521 C2.01160542,18.7853881 0.301740812,20.8949772 0,23.2054795 C0,25.0136986 2.01160542,27.3242009 3.31914894,28.8310502 C5.93423598,31.4429224 9.05222437,33.7534247 12.3713733,35.5616438 C12.3713733,35.5616438 12.5725338,35.5616438 12.5725338,35.7625571 L9.25338491,41.4885845 L13.6789168,44 L37.3152805,2.91324201 L33.4932302,0 Z M24.2398453,15.9726027 C20.6189555,16.4748858 18.0038685,19.5890411 18.0038685,23.2054795 C18.0038685,23.9086758 18.3056093,25.0136986 18.5067698,25.716895 L15.9922631,30.1369863 C14.3829787,28.3287671 13.6789168,25.716895 13.6789168,23.2054795 C13.6789168,16.7762557 19.0096712,11.652968 25.7485493,11.652968 C26.0502901,11.652968 26.2514507,11.652968 26.5531915,11.652968 L24.2398453,15.9726027 Z M48.1779497,17.4794521 C45.5628627,14.9680365 42.4448743,12.6575342 39.1257253,10.8493151 C39.1257253,10.8493151 38.9245648,10.8493151 38.9245648,10.5479452 L35.8065764,16.2739726 C37.3152805,18.0821918 38.1199226,20.5936073 38.1199226,23.2054795 C38.1199226,29.6347032 32.688588,34.7579909 26.0502901,34.7579909 C25.7485493,34.7579909 25.4468085,34.7579909 25.245648,34.7579909 L23.1334623,38.3744292 C24.2398453,38.3744292 25.245648,38.5753425 26.2514507,38.5753425 C30.6769826,38.5753425 35.303675,37.5707763 39.6286267,35.5616438 C43.0483559,33.9543379 46.065764,31.6438356 48.6808511,28.8310502 C49.9883946,27.5251142 51.7988395,25.5159817 52,23.2054795 C51.4970986,21.0958904 49.4854932,18.7853881 48.1779497,17.4794521 Z M33.4932302,23.2054795 C33.4932302,22.4018265 33.1914894,21.3972603 32.9903288,20.5936073 L27.2572534,30.3378995 C30.8781431,29.6347032 33.4932302,26.8219178 33.4932302,23.2054795 Z" id="Shape"></path>
        </g>
    </g>
</svg>