<?xml version="1.0" encoding="UTF-8"?>
<svg width="64px" height="64px" viewBox="0 0 64 64" version="1.1" xmlns="http://www.w3.org/2000/svg" xmlns:xlink="http://www.w3.org/1999/xlink">
    <!-- Generator: Sketch 52.6 (67491) - http://www.bohemiancoding.com/sketch -->
    <title>misc-thumb-down</title>
    <desc>Created with Sketch.</desc>
    <g id="misc-thumb-down" stroke="none" stroke-width="1" fill="none" fill-rule="evenodd">
        <g id="icon-misc-thumb-down" transform="translate(10.000000, 6.000000)" fill="#000000">
            <path d="M43.8997722,21.7509728 C43.6993166,23.8754864 41.8952164,25.3929961 39.7904328,25.1906615 L34.1776765,24.6848249 L34.1776765,24.8871595 L38.7881549,25.3929961 C40.5922551,25.6964981 41.8952164,27.5175097 41.594533,29.540856 C41.3940774,31.6653696 39.7904328,33.1828794 37.9863326,32.9805447 L22.8519362,31.3618677 L20.8473804,31.3618677 C20.8473804,31.3618677 23.8542141,32.6770428 21.5489749,44.1089494 C19.2437358,55.4396887 12.8291572,51.0894942 12.8291572,51.0894942 C12.8291572,51.0894942 12.8291572,41.4785992 12.3280182,39.9610895 C12.1275626,38.6459144 4.61047836,24.1789883 4.61047836,24.1789883 C4.61047836,23.3696498 0,22.5603113 0,21.7509728 C0,15.07393 0,9.40856031 0,2.63035019 C4.91116173,3.94552529 7.51708428,0 18.0410023,0 C21.3485194,0 25.6583144,0.607003891 29.2665148,1.11284047 L38.7881549,2.12451362 C40.2915718,2.32684825 41.594533,4.14785992 41.3940774,6.27237354 C41.0933941,7.78988327 40.2915718,9.10505837 39.0888383,9.61089494 L40.2915718,9.61089494 C42.095672,9.91439689 43.3986333,11.7354086 43.3986333,13.7587549 C43.0979499,15.5797665 41.8952164,16.8949416 40.2915718,17.0972763 L40.7927107,17.0972763 C42.5968109,17.9066148 44.2004556,19.7276265 43.8997722,21.7509728 Z" id="Path"></path>
        </g>
    </g>
</svg>