<?xml version="1.0" encoding="UTF-8"?>
<svg width="64px" height="64px" viewBox="0 0 64 64" version="1.1" xmlns="http://www.w3.org/2000/svg" xmlns:xlink="http://www.w3.org/1999/xlink">
    <!-- Generator: Sketch 52.6 (67491) - http://www.bohemiancoding.com/sketch -->
    <title>misc-crop-crop</title>
    <desc>Created with Sketch.</desc>
    <g id="misc-crop-crop" stroke="none" stroke-width="1" fill="none" fill-rule="evenodd">
        <g id="icon-misc-crop-crop" transform="translate(6.000000, 6.000000)" fill="#000000" fill-rule="nonzero">
            <path d="M0,0.110169492 L2.86440678,0.110169492 L2.86440678,14.2118644 L0,14.2118644 L0,0.110169492 Z M0,33.9322034 L2.86440678,33.9322034 L2.86440678,48.0338983 L0,48.0338983 L0,33.9322034 Z M45.3898305,0.110169492 L48.2542373,0.110169492 L48.2542373,14.2118644 L45.3898305,14.2118644 L45.3898305,0.110169492 Z M45.3898305,33.9322034 L48.2542373,33.9322034 L48.2542373,52 L45.3898305,52 L45.3898305,33.9322034 Z M48.1440678,0 L48.1440678,2.86440678 L34.0423729,2.86440678 L34.0423729,0 L48.1440678,0 Z M29.3050847,0 L29.3050847,2.86440678 L25.6694915,2.86440678 L25.6694915,0 L29.3050847,0 Z M22.6949153,0.110169492 L22.6949153,2.86440678 L19.059322,2.86440678 L19.059322,0.110169492 L22.6949153,0.110169492 Z M29.0847458,45.279661 L29.0847458,48.0338983 L25.4491525,48.0338983 L25.4491525,45.279661 L29.0847458,45.279661 Z M22.5847458,45.279661 L22.5847458,48.1440678 L18.8389831,48.1440678 L18.8389831,45.279661 L22.5847458,45.279661 Z M52,45.1694915 L52,48.0338983 L34.2627119,48.0338983 L34.2627119,45.1694915 L52,45.1694915 Z M14.2118644,45.1694915 L14.2118644,48.0338983 L0.110169492,48.0338983 L0.110169492,45.1694915 L14.2118644,45.1694915 Z M14.1016949,0 L14.1016949,2.75423729 L0,2.75423729 L0,0 L14.1016949,0 Z M48.2542373,29.1949153 L45.3898305,29.1949153 L45.3898305,25.559322 L48.2542373,25.559322 L48.2542373,29.1949153 Z M48.2542373,22.5847458 L45.3898305,22.5847458 L45.3898305,18.8389831 L48.2542373,18.8389831 L48.2542373,22.5847458 Z M2.97457627,29.1949153 L0.220338983,29.1949153 L0.220338983,25.559322 L2.97457627,25.559322 L2.97457627,29.1949153 Z M2.97457627,22.5847458 L0.220338983,22.5847458 L0.220338983,18.8389831 L2.97457627,18.8389831 L2.97457627,22.5847458 Z M39.9915254,17.2966102 C39.9915254,19.3898305 38.4491525,20.9322034 36.3559322,20.9322034 C34.3728814,20.9322034 32.720339,19.3898305 32.720339,17.2966102 C32.720339,15.3135593 34.3728814,13.6610169 36.3559322,13.6610169 C38.4491525,13.6610169 39.9915254,15.3135593 39.9915254,17.2966102 Z M6.72033898,34.8135593 L41.9745763,34.8135593 L28.2033898,22.6949153 L24.5677966,28.6440678 L14.1016949,17.8474576 L6.72033898,31.1779661 L6.72033898,34.8135593 Z" id="Shape"></path>
        </g>
    </g>
</svg>