<?xml version="1.0" encoding="UTF-8"?>
<svg width="64px" height="64px" viewBox="0 0 64 64" version="1.1" xmlns="http://www.w3.org/2000/svg" xmlns:xlink="http://www.w3.org/1999/xlink">
    <!-- Generator: Sketch 52.6 (67491) - http://www.bohemiancoding.com/sketch -->
    <title>misc-bug</title>
    <desc>Created with Sketch.</desc>
    <g id="misc-bug" stroke="none" stroke-width="1" fill="none" fill-rule="evenodd">
        <g id="icon-misc-bug" transform="translate(6.000000, 9.000000)" fill="#000000" fill-rule="nonzero">
            <path d="M26,0 C20.3125,0 15.640625,4.64035088 15.640625,10.2894737 L36.359375,10.2894737 C36.359375,4.64035088 31.6875,0 26,0 Z M49.359375,23.2017544 L41.640625,23.2017544 L41.640625,16.745614 C41.640625,16.745614 41.640625,16.4429825 41.640625,16.4429825 L47.328125,10.7938596 C48.34375,9.78508772 48.34375,8.17105263 47.328125,7.1622807 C46.3125,6.15350877 44.6875,6.15350877 43.671875,7.1622807 L37.984375,12.9122807 C37.984375,12.9122807 37.6796875,12.9122807 37.6796875,12.9122807 L14.3203125,12.9122807 C14.3203125,12.9122807 14.015625,12.9122807 14.015625,12.9122807 L8.328125,7.1622807 C7.3125,6.15350877 5.6875,6.15350877 4.671875,7.1622807 C3.65625,8.17105263 3.65625,9.78508772 4.671875,10.7938596 L10.359375,16.4429825 C10.359375,16.4429825 10.359375,16.745614 10.359375,16.745614 L10.359375,23.2017544 L2.640625,23.2017544 C1.015625,23.2017544 0,24.2105263 0,25.8245614 C0,27.3377193 1.015625,28.3464912 2.640625,28.3464912 L10.359375,28.3464912 C10.359375,30.4649123 10.96875,32.2807018 11.4765625,33.995614 C11.4765625,33.995614 11.171875,34.2982456 11.171875,34.2982456 L3.859375,41.5614035 C2.84375,42.5701754 2.84375,44.0833333 3.859375,45.1929825 C4.9765625,46.2017544 6.5,46.2017544 7.515625,45.1929825 L14.3203125,38.4342105 C16.65625,41.0570175 19.8046875,42.872807 23.359375,43.5789474 L23.359375,18.0570175 L28.640625,18.0570175 L28.640625,43.5789474 C32.1953125,43.0745614 35.34375,41.0570175 37.6796875,38.4342105 L44.484375,45.1929825 C45.5,46.2017544 47.0234375,46.2017544 48.140625,45.1929825 C49.15625,44.0833333 49.15625,42.5701754 48.140625,41.5614035 L40.828125,34.2982456 C40.828125,34.2982456 40.5234375,33.995614 40.5234375,33.995614 C41.3359375,32.2807018 41.640625,30.4649123 41.640625,28.3464912 L49.359375,28.3464912 C50.984375,28.3464912 52,27.3377193 52,25.8245614 C52,24.2105263 50.984375,23.2017544 49.359375,23.2017544 Z" id="Shape"></path>
        </g>
    </g>
</svg>