<?xml version="1.0" encoding="UTF-8"?>
<svg width="64px" height="64px" viewBox="0 0 64 64" version="1.1" xmlns="http://www.w3.org/2000/svg" xmlns:xlink="http://www.w3.org/1999/xlink">
    <!-- Generator: Sketch 52.6 (67491) - http://www.bohemiancoding.com/sketch -->
    <title>misc-loading</title>
    <desc>Created with Sketch.</desc>
    <g id="misc-loading" stroke="none" stroke-width="1" fill="none" fill-rule="evenodd">
        <g id="icon-misc-loading" transform="translate(6.000000, 10.000000)" fill="#000000">
            <path d="M50.1294964,41.4615385 C51.3764988,38.0769231 52,34.6923077 52,30.9450549 C52,13.9010989 37.6594724,0 20.0767386,0 C13.3429257,0 6.98321343,2.17582418 1.8705036,5.56043956 C0.872901679,6.52747253 0,7.37362637 0,8.94505495 C0,11.1208791 1.8705036,13.0549451 4.11510791,13.0549451 C5.11270983,13.0549451 5.98561151,12.6923077 6.60911271,12.0879121 C10.4748201,9.91208791 15.3381295,8.34065934 20.0767386,8.34065934 C32.7961631,8.34065934 43.3956835,18.6153846 43.3956835,30.9450549 C43.3956835,33.3626374 43.0215827,35.9010989 42.1486811,38.3186813 C41.7745803,39.043956 41.7745803,39.2857143 41.7745803,39.8901099 C41.7745803,42.0659341 43.6450839,44 45.8896882,44 C47.8848921,44 49.5059952,43.032967 50.1294964,41.4615385 Z" id="Path"></path>
        </g>
    </g>
</svg>