<?xml version="1.0" encoding="UTF-8"?>
<svg width="64px" height="64px" viewBox="0 0 64 64" version="1.1" xmlns="http://www.w3.org/2000/svg" xmlns:xlink="http://www.w3.org/1999/xlink">
    <!-- Generator: Sketch 52.6 (67491) - http://www.bohemiancoding.com/sketch -->
    <title>misc-information</title>
    <desc>Created with Sketch.</desc>
    <g id="misc-information" stroke="none" stroke-width="1" fill="none" fill-rule="evenodd">
        <g id="icon-misc-information" transform="translate(20.000000, 6.000000)" fill="#000000" fill-rule="nonzero">
            <path d="M15.2068966,42.5271318 C15.7241379,40.5116279 18.9310345,28.4186047 19.4482759,24.4883721 C19.9655172,20.8604651 17.5862069,18.5426357 13.862069,17.8372093 C9.62068966,16.7286822 5.89655172,18.3410853 2.17241379,19.3488372 C0.310344828,19.8527132 -0.206896552,20.8604651 0.103448276,22.4728682 C1.65517241,22.4728682 3,22.1705426 4.55172414,22.1705426 C6.93103448,22.1705426 7.75862069,23.1782946 7.75862069,25.496124 C7.75862069,26.8062016 4.34482759,38.1937984 3.51724138,42.5271318 C2.17241379,47.9689922 5.68965517,52.1007752 11.1724138,51.8992248 C14.3793103,51.8992248 17.2758621,50.7906977 20.4827586,50.0852713 C22.3448276,49.7829457 23.1724138,48.7751938 23.1724138,46.6589147 C21.8275862,46.9612403 20.6896552,47.1627907 19.6551724,47.1627907 C15.9310345,47.1627907 14.3793103,45.9534884 15.2068966,42.5271318 Z M17.2758621,11.8914729 C21,11.8914729 23.8965517,9.27131783 23.8965517,5.94573643 C23.8965517,2.62015504 21,0 17.2758621,0 C13.3448276,0 10.4482759,2.62015504 10.137931,5.94573643 C10.137931,9.27131783 13.3448276,11.8914729 17.2758621,11.8914729 Z" id="Shape"></path>
        </g>
    </g>
</svg>