<?xml version="1.0" encoding="UTF-8"?>
<svg width="64px" height="64px" viewBox="0 0 64 64" version="1.1" xmlns="http://www.w3.org/2000/svg" xmlns:xlink="http://www.w3.org/1999/xlink">
    <!-- Generator: Sketch 52.6 (67491) - http://www.bohemiancoding.com/sketch -->
    <title>misc-wind-turbine</title>
    <desc>Created with Sketch.</desc>
    <g id="misc-wind-turbine" stroke="none" stroke-width="1" fill="none" fill-rule="evenodd">
        <g id="icon-misc-wind-turbine" transform="translate(12.000000, 6.000000)" fill="#000000" fill-rule="nonzero">
            <path d="M20,22.0390625 C19.8979592,22.0390625 19.7959184,21.9375 19.6938776,21.8359375 L17.5510204,19.8046875 C17.4489796,19.6015625 17.3469388,19.5 17.4489796,19.296875 L19.4897959,0.40625 C19.5918367,0.203125 19.7959184,0 20,0 C20.3061224,0 20.5102041,0.203125 20.6122449,0.40625 L22.6530612,19.296875 C22.755102,19.5 22.6530612,19.6015625 22.5510204,19.8046875 L20.4081633,21.8359375 C20.3061224,21.9375 20.2040816,22.0390625 20,22.0390625 Z M20.7142857,23.2578125 C20.8163265,23.15625 20.9183673,23.0546875 21.0204082,22.953125 L23.9795918,22.2421875 C24.0816327,22.140625 24.2857143,22.2421875 24.3877551,22.34375 L39.7959184,33.6171875 C40,33.71875 40,34.0234375 39.8979592,34.2265625 C39.7959184,34.4296875 39.4897959,34.53125 39.2857143,34.4296875 L21.7346939,26.9140625 C21.6326531,26.8125 21.5306122,26.7109375 21.4285714,26.5078125 L20.7142857,23.6640625 C20.6122449,23.4609375 20.6122449,23.359375 20.7142857,23.2578125 Z M19.3877551,23.2578125 C19.3877551,23.2578125 19.3877551,23.4609375 19.3877551,23.6640625 L18.5714286,26.5078125 C18.5714286,26.609375 18.4693878,26.8125 18.2653061,26.8125 L0.816326531,34.4296875 C0.612244898,34.53125 0.306122449,34.4296875 0.204081633,34.2265625 C-1.62370117e-15,34.0234375 0.102040816,33.71875 0.306122449,33.515625 L15.6122449,22.2421875 C15.8163265,22.140625 15.9183673,22.140625 16.122449,22.2421875 L18.9795918,22.953125 C19.1836735,23.0546875 19.2857143,23.0546875 19.3877551,23.2578125 Z M23.1632653,51.1875 L21.122449,29.65625 L20,26 L18.9795918,29.65625 L16.9387755,51.1875 L15.1020408,51.1875 L15.1020408,52 L24.8979592,52 L24.8979592,51.1875 L23.1632653,51.1875 Z" id="Shape"></path>
        </g>
    </g>
</svg>