<?xml version="1.0" encoding="UTF-8"?>
<svg width="64px" height="64px" viewBox="0 0 64 64" version="1.1" xmlns="http://www.w3.org/2000/svg" xmlns:xlink="http://www.w3.org/1999/xlink">
    <!-- Generator: Sketch 52.6 (67491) - http://www.bohemiancoding.com/sketch -->
    <title>network-structure-iso-bottom</title>
    <desc>Created with Sketch.</desc>
    <g id="network-structure-iso-bottom" stroke="none" stroke-width="1" fill="none" fill-rule="evenodd">
        <g id="icon-network-structure-iso-bottom" transform="translate(6.000000, 6.000000)" fill="#000000" fill-rule="nonzero">
            <path d="M52,40.3203125 L26,52 L0,40.3203125 L0,11.6796875 L26,0 L52,11.984375 L52,40.3203125 Z M1.828125,21.328125 L8.0234375,24.4765625 L24.984375,31.9921875 L24.984375,25.4921875 L1.5234375,14.828125 L1.5234375,21.328125 L1.828125,21.328125 Z M1.828125,30.1640625 L10.6640625,34.0234375 L25.1875,40.5234375 L25.1875,34.328125 L1.828125,23.6640625 L1.828125,30.1640625 Z M2.03125,12.6953125 L26,23.6640625 L36.6640625,18.9921875 L31.484375,16.65625 L35.140625,15.03125 L40.3203125,17.46875 L49.96875,12.6953125 L26,2.03125 L17.46875,5.9921875 L21.328125,7.8203125 L17.46875,9.6484375 L13.3046875,7.8203125 L2.03125,12.6953125 Z M27.5234375,15.03125 L21.328125,12.1875 L25.4921875,10.359375 L31.1796875,13.3046875 L27.5234375,15.03125 Z M26.8125,25.4921875 L26.8125,31.9921875 L50.4765625,21.0234375 L50.4765625,14.828125 L26.8125,25.4921875 Z M26.8125,40.828125 L50.4765625,29.859375 L50.4765625,23.359375 L26.8125,34.328125 L26.8125,40.828125 Z" id="Shape"></path>
        </g>
    </g>
</svg>