<?xml version="1.0" encoding="UTF-8"?>
<svg width="64px" height="64px" viewBox="0 0 64 64" version="1.1" xmlns="http://www.w3.org/2000/svg" xmlns:xlink="http://www.w3.org/1999/xlink">
    <!-- Generator: Sketch 52.6 (67491) - http://www.bohemiancoding.com/sketch -->
    <title>network-highway</title>
    <desc>Created with Sketch.</desc>
    <g id="network-highway" stroke="none" stroke-width="1" fill="none" fill-rule="evenodd">
        <g id="icon-network-highway" transform="translate(6.000000, 9.000000)" fill="#000000" fill-rule="nonzero">
            <path d="M19.6048387,0 L23.9032258,0 L23.5887097,11.5 L17.4032258,11.5 L19.6048387,0 Z M15.8306452,20.5954545 L23.2741935,20.5954545 L22.5403226,46 L11.0080645,46 L15.8306452,20.5954545 Z M32.1854839,0 L27.8870968,0 L28.4112903,11.5 L34.2822581,11.5 L32.1854839,0 Z M36.1693548,20.5954545 L28.4112903,20.5954545 L29.25,46 L40.9919355,46 L36.1693548,20.5954545 Z M46.1290323,19.55 L46.1290323,24.3590909 L42.6693548,24.3590909 L41.3064516,19.0272727 C40.9919355,17.8772727 40.4677419,17.6681818 39.4193548,17.6681818 L12.0564516,17.6681818 C11.2177419,17.6681818 10.6935484,17.8772727 10.483871,18.7136364 L9.12096774,24.0454545 L5.55645161,24.0454545 L5.55645161,19.55 C5.55645161,18.7136364 5.34677419,17.6681818 3.77419355,17.6681818 L0,17.6681818 L0,14.4272727 L52,14.4272727 L52,17.6681818 L47.7016129,17.6681818 C46.6532258,17.6681818 46.1290323,18.1909091 46.1290323,19.55 Z" id="Shape"></path>
        </g>
    </g>
</svg>