<?xml version="1.0" encoding="UTF-8"?>
<svg width="64px" height="64px" viewBox="0 0 64 64" version="1.1" xmlns="http://www.w3.org/2000/svg" xmlns:xlink="http://www.w3.org/1999/xlink">
    <!-- Generator: Sketch 52.6 (67491) - http://www.bohemiancoding.com/sketch -->
    <title>network-surface-bottom</title>
    <desc>Created with Sketch.</desc>
    <g id="network-surface-bottom" stroke="none" stroke-width="1" fill="none" fill-rule="evenodd">
        <g id="icon-network-surface-bottom" transform="translate(6.000000, 6.000000)" fill="#000000" fill-rule="nonzero">
            <path d="M0,20.8203125 L0,52 L52,52 L52,20.8203125 L0,20.8203125 Z M49.96875,50.171875 L2.03125,50.171875 L2.03125,22.6484375 L49.6640625,22.6484375 L49.6640625,50.171875 L49.96875,50.171875 Z M1.3203125,50.984375 L0,50.984375 L4.9765625,41.03125 L6.1953125,41.03125 L1.3203125,50.984375 Z M6.5,50.984375 L5.1796875,50.984375 L10.15625,41.03125 L11.4765625,41.03125 L6.5,50.984375 Z M11.6796875,50.984375 L10.359375,50.984375 L15.3359375,41.03125 L16.65625,41.03125 L11.6796875,50.984375 Z M16.859375,50.984375 L15.640625,50.984375 L20.515625,41.03125 L21.8359375,41.03125 L16.859375,50.984375 Z M22.140625,50.984375 L20.8203125,50.984375 L25.6953125,41.03125 L27.015625,41.03125 L22.140625,50.984375 Z M27.3203125,50.984375 L26,50.984375 L30.9765625,41.03125 L32.1953125,41.03125 L27.3203125,50.984375 Z M32.5,50.984375 L31.1796875,50.984375 L36.15625,41.03125 L37.4765625,41.03125 L32.5,50.984375 Z M37.6796875,50.984375 L36.359375,50.984375 L41.3359375,41.03125 L42.65625,41.03125 L37.6796875,50.984375 Z M42.859375,50.984375 L41.640625,50.984375 L46.515625,41.03125 L47.8359375,41.03125 L42.859375,50.984375 Z M48.140625,50.984375 L46.8203125,50.984375 L51.6953125,41.03125 L51.4921875,44.1796875 L48.140625,50.984375 Z M37.6796875,0 L28.3359375,0 L28.640625,2.84375 L23.359375,2.84375 L23.96875,0 L14.5234375,0 L0,20.8203125 L20.515625,20.8203125 L21.53125,15.03125 L30.671875,15.03125 L31.484375,20.8203125 L52,20.8203125 L37.6796875,0 Z M22.140625,10.359375 L22.8515625,4.9765625 L28.84375,4.9765625 L29.859375,10.359375 L22.140625,10.359375 Z M0,29.859375 L52,29.859375 L52,31.6875 L0,31.6875 L0,29.859375 Z M0,40.5234375 L52,40.5234375 L52,42.3515625 L0,42.3515625 L0,40.5234375 Z" id="Shape"></path>
        </g>
    </g>
</svg>