<?xml version="1.0" encoding="UTF-8"?>
<svg width="64px" height="64px" viewBox="0 0 64 64" version="1.1" xmlns="http://www.w3.org/2000/svg" xmlns:xlink="http://www.w3.org/1999/xlink">
    <!-- Generator: Sketch 52.6 (67491) - http://www.bohemiancoding.com/sketch -->
    <title>network</title>
    <desc>Created with Sketch.</desc>
    <g id="network" stroke="none" stroke-width="1" fill="none" fill-rule="evenodd">
        <g id="icon-network" transform="translate(12.000000, 6.000000)" fill="#000000" fill-rule="nonzero">
            <path d="M35.6345178,37.8455598 L35.6345178,14.1544402 C38.1725888,12.8494208 40,10.5405405 40,7.52895753 C40,3.41312741 36.6497462,0 32.4873096,0 C28.3248731,0 24.9746193,3.41312741 24.9746193,7.52895753 C24.9746193,10.5405405 26.8020305,12.8494208 29.3401015,14.1544402 L29.3401015,29.8146718 L10.6598985,14.1544402 C13.1979695,13.1505792 15.0253807,10.5405405 15.0253807,7.72972973 C15.0253807,3.61389961 11.6751269,0.301158301 7.51269036,0.301158301 C3.35025381,0.301158301 0.203045685,3.61389961 0.203045685,7.72972973 C0.203045685,10.5405405 2.03045685,13.1505792 4.36548223,14.1544402 L4.36548223,37.5444015 C1.82741117,38.8494208 0,41.1583012 0,44.2702703 C0,48.3861004 3.35025381,51.6988417 7.51269036,51.6988417 C11.6751269,51.6988417 15.0253807,48.3861004 15.0253807,44.2702703 C15.0253807,41.1583012 13.1979695,38.8494208 10.6598985,37.5444015 L10.6598985,22.1853282 L29.1370558,37.8455598 C26.4974619,39.1505792 24.6700508,41.4594595 24.6700508,44.4710425 C24.6700508,48.5868726 28.0203046,52 32.1827411,52 C36.3451777,52 39.7969543,48.5868726 39.7969543,44.4710425 C39.7969543,41.4594595 37.9695431,38.8494208 35.6345178,37.8455598 Z M28.0203046,7.72972973 C28.0203046,5.42084942 29.8477157,3.61389961 32.1827411,3.61389961 C34.5177665,3.61389961 36.3451777,5.42084942 36.3451777,7.72972973 C36.3451777,10.03861 34.5177665,11.8455598 32.1827411,11.8455598 C30.1522843,11.8455598 28.0203046,10.03861 28.0203046,7.72972973 Z M3.35025381,7.72972973 C3.35025381,5.42084942 5.17766497,3.61389961 7.51269036,3.61389961 C9.84771574,3.61389961 11.6751269,5.42084942 11.6751269,7.72972973 C11.6751269,10.03861 9.84771574,11.8455598 7.51269036,11.8455598 C5.17766497,11.8455598 3.35025381,10.03861 3.35025381,7.72972973 Z M11.9796954,44.2702703 C11.9796954,46.5791506 10.1522843,48.3861004 7.81725888,48.3861004 C5.4822335,48.3861004 3.65482234,46.5791506 3.65482234,44.2702703 C3.65482234,41.96139 5.4822335,40.1544402 7.81725888,40.1544402 C9.84771574,40.1544402 11.9796954,41.96139 11.9796954,44.2702703 Z M32.4873096,48.5868726 C30.1522843,48.5868726 28.3248731,46.7799228 28.3248731,44.4710425 C28.3248731,42.1621622 30.1522843,40.3552124 32.4873096,40.3552124 C34.822335,40.3552124 36.6497462,42.1621622 36.6497462,44.4710425 C36.6497462,46.7799228 34.822335,48.5868726 32.4873096,48.5868726 Z" id="Shape"></path>
        </g>
    </g>
</svg>