<?xml version="1.0" encoding="UTF-8"?>
<svg width="64px" height="64px" viewBox="0 0 64 64" version="1.1" xmlns="http://www.w3.org/2000/svg" xmlns:xlink="http://www.w3.org/1999/xlink">
    <!-- Generator: Sketch 52.6 (67491) - http://www.bohemiancoding.com/sketch -->
    <title>network-structure-middle</title>
    <desc>Created with Sketch.</desc>
    <g id="network-structure-middle" stroke="none" stroke-width="1" fill="none" fill-rule="evenodd">
        <g id="icon-network-structure-middle" transform="translate(6.000000, 6.000000)" fill="#000000" fill-rule="nonzero">
            <path d="M52,40.015625 L26,52 L0,40.015625 L0,11.984375 L26,0 L52,11.984375 L52,40.015625 Z M1.828125,21.328125 L8.0234375,24.4765625 L24.984375,31.9921875 L24.984375,25.6953125 L1.5234375,15.03125 L1.5234375,21.328125 L1.828125,21.328125 Z M1.828125,39 L25.1875,49.6640625 L25.1875,43.1640625 L1.828125,32.1953125 L1.828125,39 Z M2.03125,13 L26,23.96875 L36.6640625,19.1953125 L31.484375,16.859375 L35.140625,15.3359375 L40.3203125,17.671875 L49.96875,13 L26,2.03125 L17.46875,6.1953125 L21.328125,8.0234375 L17.46875,9.8515625 L13.3046875,8.0234375 L2.03125,13 Z M27.5234375,15.03125 L21.328125,12.1875 L25.4921875,10.359375 L31.1796875,13.3046875 L27.5234375,15.03125 Z M26.8125,25.6953125 L26.8125,32.1953125 L50.4765625,21.328125 L50.4765625,14.828125 L26.8125,25.6953125 Z M50.4765625,38.6953125 L50.4765625,32.1953125 L26.8125,43.1640625 L26.8125,49.6640625 L50.4765625,38.6953125 Z" id="Shape"></path>
        </g>
    </g>
</svg>