<?xml version="1.0" encoding="UTF-8"?>
<svg width="64px" height="64px" viewBox="0 0 64 64" version="1.1" xmlns="http://www.w3.org/2000/svg" xmlns:xlink="http://www.w3.org/1999/xlink">
    <!-- Generator: Sketch 52.6 (67491) - http://www.bohemiancoding.com/sketch -->
    <title>operator-divide</title>
    <desc>Created with Sketch.</desc>
    <g id="operator-divide" stroke="none" stroke-width="1" fill="none" fill-rule="evenodd">
        <path d="M8,37.1796875 L8,26.8203125 L56,26.8203125 L56,37.1796875 L8,37.1796875 Z M32,21.03125 C30.6784232,21.03125 29.3568465,20.828125 28.1369295,20.015625 C27.0186722,19.5078125 26.0020747,18.4921875 25.4937759,17.4765625 C24.6804979,16.15625 24.4771784,14.8359375 24.4771784,13.515625 C24.4771784,12.1953125 24.6804979,10.9765625 25.4937759,9.859375 C26.0020747,8.640625 27.0186722,7.828125 28.1369295,7.015625 C29.3568465,6.3046875 30.6784232,6 32,6 C33.3215768,6 34.6431535,6.3046875 35.659751,7.015625 C36.9813278,7.828125 37.6929461,8.640625 38.5062241,9.859375 C39.3195021,11.1796875 39.5228216,12.1953125 39.5228216,13.515625 C39.5228216,14.8359375 39.3195021,16.15625 38.5062241,17.4765625 C37.6929461,18.6953125 36.9813278,19.5078125 35.659751,20.3203125 C34.6431535,20.828125 33.3215768,21.03125 32,21.03125 Z M32,58 C30.6784232,58 29.3568465,57.6953125 28.1369295,56.984375 C26.8153527,56.171875 26.0020747,55.359375 25.1887967,54.140625 C24.4771784,52.8203125 24.1721992,51.8046875 24.1721992,50.1796875 C24.1721992,48.859375 24.4771784,47.640625 25.1887967,46.5234375 C26.0020747,45.3046875 26.8153527,44.4921875 28.1369295,43.6796875 C29.3568465,42.96875 30.4751037,42.6640625 32,42.6640625 C33.3215768,42.6640625 34.6431535,42.96875 35.659751,43.6796875 C36.9813278,44.4921875 37.6929461,45.3046875 38.5062241,46.5234375 C39.3195021,47.84375 39.5228216,48.859375 39.5228216,50.1796875 C39.5228216,51.5 39.3195021,52.8203125 38.5062241,54.140625 C37.6929461,55.359375 36.9813278,56.171875 35.659751,56.984375 C34.6431535,57.6953125 33.3215768,58 32,58 Z" id="icon-operator-divide" fill="#000000" fill-rule="nonzero"></path>
    </g>
</svg>