<?xml version="1.0" encoding="UTF-8"?>
<svg width="64px" height="64px" viewBox="0 0 64 64" version="1.1" xmlns="http://www.w3.org/2000/svg" xmlns:xlink="http://www.w3.org/1999/xlink">
    <!-- Generator: Sketch 58 (84663) - https://sketch.com -->
    <title>or-gate</title>
    <desc>Created with Sketch.</desc>
    <g id="or-gate" stroke="none" stroke-width="1" fill="none" fill-rule="evenodd">
        <path d="M28,13 C36.2011236,13 44.103763,18.712369 51.7079182,30.137107 L58,30.137931 L58,34.137931 L51.6890953,34.1377745 C44.090722,45.3792582 36.1943569,51 28,51 L13.8207575,51 C13.544643,51 13.320808,50.7761145 13.320808,50.5 C13.320808,50.421548 13.3392705,50.3441971 13.3747026,50.2742023 C14.5176515,48.0163498 15.4487764,45.7584972 16.1680772,43.5006447 L6,43.5 L6,39.5 L17.2207635,39.5007249 C17.7402545,37.0004832 18,34.5002416 18,32 C18,29.5000971 17.7403249,27.0001942 17.2209746,24.5002912 L6,24.5 L6,20.5 L16.1684036,20.5003799 C15.4490621,18.2421987 14.517835,15.9840175 13.3747222,13.7258364 C13.2499866,13.4794614 13.3486126,13.1786227 13.5949948,13.0539017 C13.6649989,13.0184649 13.74236,13 13.8208223,13 L28,13 Z" id="Path" fill="#000000"></path>
    </g>
</svg>