<?xml version="1.0" encoding="UTF-8"?>
<svg width="64px" height="64px" viewBox="0 0 64 64" version="1.1" xmlns="http://www.w3.org/2000/svg" xmlns:xlink="http://www.w3.org/1999/xlink">
    <!-- Generator: Sketch 52.6 (67491) - http://www.bohemiancoding.com/sketch -->
    <title>parking-vehicle-single</title>
    <desc>Created with Sketch.</desc>
    <g id="parking-vehicle-single" stroke="none" stroke-width="1" fill="none" fill-rule="evenodd">
        <g id="icon-parking-vehicle-single" transform="translate(7.000000, 6.000000)" fill="#000000" fill-rule="nonzero">
            <path d="M43.1769723,43.2443532 C40.7249467,43.2443532 38.8059701,45.1663244 38.8059701,47.6221766 C38.8059701,50.0780287 40.7249467,52 43.1769723,52 C45.6289979,52 47.5479744,50.0780287 47.5479744,47.6221766 C47.5479744,45.3798768 45.6289979,43.2443532 43.1769723,43.2443532 Z M43.1769723,50.2915811 C41.7910448,50.2915811 40.7249467,49.2238193 40.7249467,47.835729 C40.7249467,46.4476386 41.7910448,45.3798768 43.1769723,45.3798768 C44.5628998,45.3798768 45.6289979,46.4476386 45.6289979,47.835729 C45.6289979,49.2238193 44.5628998,50.2915811 43.1769723,50.2915811 Z M11.1940299,43.2443532 C8.74200426,43.2443532 6.82302772,45.1663244 6.82302772,47.6221766 C6.82302772,50.0780287 8.74200426,52 11.1940299,52 C13.6460554,52 15.565032,50.0780287 15.565032,47.6221766 C15.565032,45.3798768 13.6460554,43.2443532 11.1940299,43.2443532 Z M11.1940299,50.2915811 C9.91471215,50.2915811 8.74200426,49.2238193 8.74200426,47.835729 C8.74200426,46.4476386 9.91471215,45.3798768 11.1940299,45.3798768 C12.5799574,45.3798768 13.6460554,46.4476386 13.6460554,47.835729 C13.6460554,49.2238193 12.5799574,50.2915811 11.1940299,50.2915811 Z M50,41.3223819 C50,40.4681725 49.6801706,39.9342916 48.9339019,39.4004107 L48.6140725,39.4004107 L34.9680171,37.1581109 L30.9168443,31.1786448 C30.3837953,29.7905544 28.9978678,29.2566735 27.2921109,29.2566735 L16.4179104,29.2566735 C13.4328358,29.2566735 11.1940299,30.3244353 9.06183369,32.5667351 L5.01066098,37.1581109 C3.83795309,38.3326489 3.09168443,39.0800821 1.38592751,39.4004107 L0.852878465,39.4004107 C0.639658849,39.4004107 0,39.9342916 0,40.4681725 L0,48.1560575 L6.07675906,48.3696099 L6.07675906,48.1560575 C6.07675906,45.3798768 8.20895522,43.2443532 10.9808102,43.2443532 C13.6460554,43.2443532 15.8848614,45.3798768 15.8848614,48.1560575 L15.8848614,48.3696099 L37.7398721,48.3696099 C37.7398721,48.1560575 37.7398721,48.1560575 37.7398721,47.835729 C37.7398721,45.1663244 39.8720682,42.9240246 42.6439232,42.9240246 C45.3091684,42.9240246 47.5479744,45.1663244 47.5479744,47.835729 C48.6140725,47.835729 49.466951,46.7679671 49.466951,45.9137577 L50,41.3223819 Z M20.2558635,37.4784394 L9.38166311,37.4784394 L15.3518124,31.4989733 L20.2558635,31.4989733 L20.2558635,37.4784394 Z M21.3219616,37.4784394 L21.3219616,31.4989733 L29.2110874,31.4989733 L33.0490405,37.4784394 L21.3219616,37.4784394 Z M37.4200426,17.2977413 L39.3390192,17.2977413 C42.3240938,17.2977413 44.7761194,16.4435318 46.4818763,14.7351129 C48.0810235,13.1334702 48.9339019,10.9979466 48.9339019,8.22176591 C48.9339019,5.76591376 48.0810235,3.63039014 46.4818763,2.24229979 C44.7761194,0.854209446 42.3240938,0 39.1257996,0 L30.5970149,0 L30.5970149,25.412731 L37.4200426,25.412731 L37.4200426,17.2977413 Z M37.9530917,6.0862423 L40.1918977,6.0862423 C42.3240938,6.0862423 43.4968017,7.15400411 43.4968017,9.07597536 C43.4968017,10.1437372 43.1769723,11.211499 42.3240938,11.7453799 C41.5778252,12.2792608 40.7249467,12.5995893 39.6588486,12.5995893 L38.2729211,12.5995893 L38.2729211,6.0862423 L37.9530917,6.0862423 Z" id="Shape"></path>
        </g>
    </g>
</svg>