<?xml version="1.0" encoding="UTF-8"?>
<svg width="64px" height="64px" viewBox="0 0 64 64" version="1.1" xmlns="http://www.w3.org/2000/svg" xmlns:xlink="http://www.w3.org/1999/xlink">
    <!-- Generator: Sketch 52.6 (67491) - http://www.bohemiancoding.com/sketch -->
    <title>parking-enforcement</title>
    <desc>Created with Sketch.</desc>
    <g id="parking-enforcement" stroke="none" stroke-width="1" fill="none" fill-rule="evenodd">
        <g id="icon-parking-enforcement" transform="translate(6.000000, 13.000000)" fill="#000000" fill-rule="nonzero">
            <path d="M26,0 C26.5508475,0.228228228 27.1016949,0.228228228 27.6525424,0.570570571 C28.8644068,1.36936937 30.1864407,2.05405405 31.0677966,3.1951952 C34.1525424,5.81981982 37.8983051,7.3033033 41.7542373,7.53153153 C42.9661017,7.87387387 44.2881356,7.87387387 45.5,8.1021021 C46.8220339,8.44444444 47.7033898,9.01501502 48.2542373,10.4984985 C48.5847458,11.0690691 48.5847458,11.981982 48.8050847,12.5525526 C49.1355932,14.6066066 50.0169492,16.6606607 51.3389831,18.3723724 C52.220339,19.5135135 52.220339,19.8558559 51.1186441,20.6546547 C49.6864407,21.9099099 48.2542373,23.0510511 46.8220339,24.1921922 C46.2711864,24.7627628 46.0508475,24.7627628 45.5,24.1921922 C40.6525424,21.5675676 35.2542373,20.4264264 29.9661017,20.0840841 C24.0169492,19.5135135 18.3983051,20.0840841 12.779661,21.9099099 C10.7966102,22.4804805 8.48305085,23.2792793 6.5,24.5345345 C5.94915254,24.7627628 5.39830508,24.7627628 4.84745763,24.1921922 C3.41525424,23.0510511 1.98305085,21.5675676 0.661016949,20.4264264 C-9.71445147e-17,19.8558559 -0.220338983,19.2852853 0.661016949,18.6006006 C2.31355932,16.8888889 3.19491525,14.6066066 3.41525424,11.981982 C3.96610169,8.67267267 4.84745763,8.1021021 8.26271186,7.87387387 C9.91525424,7.53153153 11.8983051,7.3033033 13.5508475,6.96096096 C16.0847458,6.39039039 18.6186441,4.90690691 20.6016949,3.1951952 C21.8135593,2.28228228 22.9152542,1.36936937 24.0169492,0.570570571 C24.5677966,0.228228228 25.4491525,0 26,0 Z M26,37.8858859 C21.4830508,37.8858859 17.2966102,37.6576577 13,35.8318318 C10.7966102,35.033033 8.48305085,33.5495495 7.38135593,30.9249249 C7.05084746,30.012012 7.05084746,29.7837838 7.93220339,29.2132132 C11.3474576,27.3873874 14.9830508,26.5885886 18.6186441,26.2462462 C22.9152542,25.6756757 27.1016949,25.6756757 31.0677966,25.9039039 C35.2542373,26.5885886 39.5508475,27.3873874 43.5169492,29.2132132 C44.6186441,29.7837838 44.6186441,30.012012 44.0677966,30.9249249 C42.6355932,33.2072072 40.6525424,34.6906907 38.4491525,35.6036036 C34.7033898,37.8858859 30.1864407,38.2282282 26,37.8858859 Z M44.9491525,28.3003003 C32.1694915,23.2792793 19.5,23.2792793 6.83050847,28.3003003 C6.83050847,27.7297297 6.83050847,26.8168168 6.83050847,26.2462462 C6.83050847,25.9039039 7.38135593,25.3333333 7.71186441,25.3333333 C11.0169492,23.6216216 14.7627119,22.7087087 18.3983051,22.1381381 C26,20.996997 33.3813559,21.5675676 40.4322034,23.963964 C41.2033898,24.1921922 42.3050847,24.7627628 43.1864407,25.1051051 C44.2881356,25.3333333 44.9491525,26.2462462 44.6186441,27.7297297 C44.9491525,27.7297297 44.9491525,27.957958 44.9491525,28.3003003 Z" id="Shape"></path>
        </g>
    </g>
</svg>