<?xml version="1.0" encoding="UTF-8"?>
<svg width="64px" height="64px" viewBox="0 0 64 64" version="1.1" xmlns="http://www.w3.org/2000/svg" xmlns:xlink="http://www.w3.org/1999/xlink">
    <!-- Generator: Sketch 52.6 (67491) - http://www.bohemiancoding.com/sketch -->
    <title>parking-vehicles</title>
    <desc>Created with Sketch.</desc>
    <g id="parking-vehicles" stroke="none" stroke-width="1" fill="none" fill-rule="evenodd">
        <g id="icon-parking-vehicles" transform="translate(6.000000, 7.000000)" fill="#000000" fill-rule="nonzero">
            <path d="M44.8651163,29.7820823 C40.5116279,29.1767554 36.5209302,29.1767554 32.4093023,30.0242131 C30.5953488,30.3874092 29.0232558,31.3559322 28.4186047,33.1719128 C28.055814,34.1404358 27.4511628,34.3825666 26.6046512,34.7457627 C24.427907,35.3510896 23.4604651,36.9249395 24.427907,39.1041162 C24.427907,39.346247 24.427907,39.7094431 24.427907,39.9515738 C24.427907,41.5254237 24.0651163,43.0992736 24.0651163,44.6731235 C24.0651163,44.6731235 24.0651163,44.6731235 23.8232558,44.6731235 C17.5348837,44.6731235 11.1255814,44.6731235 4.8372093,44.6731235 C1.81395349,44.6731235 0,42.7360775 0,39.7094431 C0,34.9878935 0,30.3874092 0,25.7869249 C0,18.8861985 0,12.1065375 0,5.32687651 C0,1.81598063 1.81395349,0 5.5627907,0 C16.6883721,0 28.055814,0 39.3023256,0 C42.0837209,0 44.8651163,1.81598063 44.8651163,5.32687651 C44.8651163,12.1065375 44.8651163,19.2493947 44.8651163,26.3922518 C44.8651163,27.2397094 44.8651163,28.5714286 44.8651163,29.7820823 Z M19.7116279,35.9564165 C19.7116279,32.8087167 19.7116279,30.0242131 19.7116279,27.2397094 C19.7116279,26.3922518 20.0744186,26.0290557 20.6790698,26.0290557 C22.2511628,26.0290557 24.0651163,25.7869249 25.6372093,25.7869249 C28.055814,25.4237288 30.2325581,24.4552058 31.8046512,23.0024213 C36.5209302,17.6755448 34.344186,10.5326877 27.4511628,8.71670702 C22.855814,7.50605327 17.8976744,8.11138015 12.9395349,8.11138015 C12.9395349,8.11138015 12.9395349,8.11138015 12.5767442,8.3535109 C12.5767442,17.6755448 12.5767442,26.6343826 12.5767442,35.9564165 C15.1162791,35.9564165 17.2930233,35.9564165 19.7116279,35.9564165 Z M32.4093023,46.4891041 C32.4093023,47.094431 32.4093023,47.4576271 32.4093023,47.4576271 C32.4093023,49.8789346 32.4093023,49.8789346 29.9906977,49.8789346 C28.055814,49.8789346 28.055814,49.8789346 28.055814,48.062954 C28.055814,47.094431 27.8139535,46.8523002 27.2093023,46.2469734 C26,44.9152542 25.6372093,41.5254237 26.6046512,39.9515738 C26.8465116,39.7094431 27.2093023,39.346247 27.2093023,39.1041162 C26.6046512,38.4987893 26.2418605,37.7723971 26,37.5302663 C26.8465116,37.1670702 27.4511628,36.9249395 28.4186047,36.5617433 C28.4186047,36.5617433 28.4186047,36.9249395 28.7813953,36.9249395 C29.3860465,35.9564165 29.627907,34.9878935 30.2325581,33.7772397 C30.9581395,32.566586 31.8046512,31.9612591 33.0139535,31.9612591 C36.7627907,31.9612591 40.5116279,31.9612591 44.2604651,31.9612591 C46.0744186,31.9612591 47.0418605,32.8087167 47.8883721,34.3825666 C48.2511628,35.3510896 48.855814,35.9564165 49.2186047,36.9249395 C50.0651163,36.9249395 51.2744186,36.3196126 52,37.5302663 C52,37.7723971 51.0325581,38.4987893 50.6697674,39.1041162 C52.2418605,40.9200969 52.2418605,43.0992736 51.2744186,45.2784504 C50.6697674,46.4891041 49.8232558,47.6997579 49.8232558,49.2736077 C49.8232558,49.6368039 49.2186047,49.8789346 49.2186047,49.8789346 C49.2186047,49.8789346 48.855814,49.8789346 48.855814,49.8789346 C46.0744186,49.8789346 45.4697674,50.2421308 45.7116279,47.094431 C45.7116279,47.094431 45.7116279,46.8523002 45.7116279,46.4891041 C45.4697674,46.4891041 45.1069767,46.4891041 44.8651163,46.4891041 C40.1488372,46.4891041 36.5209302,46.4891041 32.4093023,46.4891041 Z M47.6465116,37.7723971 C47.0418605,36.5617433 46.4372093,35.5932203 46.0744186,34.3825666 C45.4697674,33.1719128 44.8651163,32.566586 43.5348837,32.566586 C40.5116279,32.566586 37.1255814,32.566586 33.9813953,32.566586 C33.3767442,32.566586 32.4093023,32.8087167 32.1674419,33.535109 C31.2,34.7457627 30.5953488,36.3196126 29.9906977,37.7723971 C35.7953488,37.7723971 41.7209302,37.7723971 47.6465116,37.7723971 Z M48.855814,42.7360775 C49.2186047,40.31477 47.6465116,40.5569007 45.4697674,41.283293 C45.4697674,41.8886199 45.4697674,42.1307506 45.4697674,42.7360775 C46.6790698,42.7360775 47.6465116,42.7360775 48.855814,42.7360775 Z M28.4186047,42.4939467 C29.627907,42.4939467 30.9581395,42.4939467 32.1674419,42.4939467 C32.1674419,41.8886199 32.1674419,41.283293 32.1674419,40.9200969 C28.7813953,40.31477 28.4186047,40.5569007 28.4186047,42.4939467 Z M19.7116279,21.0653753 C19.7116279,18.2808717 19.7116279,15.496368 19.7116279,12.7118644 C21.2837209,13.0750605 22.4930233,13.0750605 23.8232558,13.0750605 C26.2418605,13.6803874 27.2093023,14.527845 27.2093023,17.0702179 C27.2093023,19.2493947 26,20.4600484 23.8232558,20.8232446 C22.4930233,21.0653753 21.2837209,21.0653753 19.7116279,21.0653753 Z" id="Shape"></path>
        </g>
    </g>
</svg>