<?xml version="1.0" encoding="UTF-8"?>
<svg width="64px" height="64px" viewBox="0 0 64 64" version="1.1" xmlns="http://www.w3.org/2000/svg" xmlns:xlink="http://www.w3.org/1999/xlink">
    <!-- Generator: Sketch 52.6 (67491) - http://www.bohemiancoding.com/sketch -->
    <title>parking-meter</title>
    <desc>Created with Sketch.</desc>
    <g id="parking-meter" stroke="none" stroke-width="1" fill="none" fill-rule="evenodd">
        <g id="icon-parking-meter" transform="translate(14.000000, 6.000000)" fill="#000000" fill-rule="nonzero">
            <path d="M35.2522255,13.1313131 C33.3293769,5.56767677 25.958457,0 18.0534125,0 C9.82789318,0 2.77744807,5.35757576 0.534124629,13.1313131 C-1.38872404,20.6949495 2.24332344,27.9434343 6.83679525,31.2 C6.83679525,30.0444444 6.51632047,28.9939394 6.51632047,27.9434343 C6.51632047,26.5777778 6.30267062,25.5272727 6.30267062,24.1616162 C6.30267062,23.9515152 6.51632047,23.6363636 6.51632047,23.6363636 C6.51632047,23.9515152 6.83679525,24.1616162 7.15727003,24.1616162 C7.15727003,24.1616162 7.15727003,24.4767677 7.15727003,24.6868687 C7.37091988,27.9434343 7.69139466,31.2 8.22551929,34.6666667 C8.43916914,36.0323232 8.43916914,37.6080808 9.29376855,38.9737374 C10.148368,40.5494949 10.8961424,42.230303 11.7507418,43.8060606 C12.2848665,44.8565657 12.8189911,45.6969697 14.2077151,45.3818182 C14.2077151,45.3818182 14.2077151,45.3818182 14.5281899,45.6969697 C14.5281899,45.9070707 14.5281899,46.2222222 14.5281899,46.5373737 C14.5281899,47.5878788 14.5281899,48.3232323 14.7418398,49.4787879 C15.2759644,51.369697 16.9851632,52.1050505 18.9080119,51.8949495 C20.5103858,51.579798 21.8991098,50.2141414 21.8991098,48.3232323 C21.8991098,47.2727273 21.8991098,46.5373737 21.8991098,45.3818182 C22.4332344,45.3818182 22.7537092,45.3818182 22.9673591,45.3818182 C23.8219585,45.3818182 24.0356083,45.1717172 24.3560831,44.6464646 C25.2106825,42.9656566 25.958457,41.389899 26.8130564,39.8141414 C27.347181,38.6585859 27.8813056,37.6080808 28.2017804,36.5575758 C28.735905,33.3010101 28.9495549,30.0444444 29.2700297,26.8929293 C29.2700297,26.0525253 29.2700297,25.2121212 29.5905045,24.4767677 C29.5905045,24.1616162 29.8041543,23.9515152 30.1246291,23.6363636 C30.1246291,23.9515152 30.3382789,24.1616162 30.3382789,24.4767677 C30.3382789,25.0020202 30.3382789,25.5272727 30.1246291,26.0525253 C29.8041543,27.6282828 29.8041543,29.3090909 29.5905045,30.8848485 C33.8635015,27.9434343 37.495549,20.6949495 35.2522255,13.1313131 Z M15.5964392,32.7757576 C14.7418398,32.7757576 13.9940653,32.7757576 12.8189911,32.7757576 C12.2848665,32.7757576 12.0712166,32.4606061 12.0712166,31.9353535 C12.0712166,30.8848485 12.0712166,29.5191919 12.0712166,28.4686869 C12.0712166,27.4181818 12.0712166,26.3676768 12.0712166,25.0020202 C12.0712166,24.1616162 12.2848665,24.1616162 12.8189911,24.1616162 C13.6735905,24.1616162 14.5281899,24.1616162 15.2759644,24.1616162 C15.9169139,24.1616162 16.1305638,24.4767677 16.1305638,25.0020202 C16.1305638,27.4181818 16.1305638,29.5191919 16.1305638,31.9353535 C16.1305638,32.4606061 16.1305638,32.7757576 15.5964392,32.7757576 Z M22.9673591,30.359596 C22.1127596,30.8848485 22.1127596,31.410101 22.1127596,32.2505051 C22.1127596,32.7757576 22.1127596,33.3010101 21.8991098,33.8262626 C21.3649852,33.8262626 21.0445104,33.8262626 20.8308605,33.8262626 C20.8308605,33.6161616 20.8308605,33.3010101 20.8308605,33.0909091 C20.8308605,31.9353535 20.5103858,30.8848485 19.6557864,30.359596 C18.5875371,29.5191919 18.9080119,27.6282828 19.9762611,26.8929293 C20.5103858,26.3676768 20.8308605,26.0525253 20.8308605,25.2121212 C20.8308605,24.6868687 20.8308605,24.1616162 21.0445104,23.6363636 C21.3649852,23.6363636 21.8991098,23.6363636 22.1127596,23.6363636 C22.1127596,23.9515152 22.1127596,24.1616162 22.1127596,24.4767677 C22.4332344,25.5272727 22.1127596,26.5777778 23.2878338,27.1030303 C24.3560831,27.6282828 24.3560831,29.5191919 22.9673591,30.359596 Z M4.91394659,16.5979798 C5.44807122,12.2909091 7.69139466,8.82424242 11.2166172,6.72323232 C15.9169139,3.99191919 20.5103858,4.30707071 24.8902077,6.93333333 C28.4154303,9.13939394 30.3382789,12.2909091 30.8724036,16.5979798 C22.4332344,15.8626263 13.6735905,15.8626263 4.91394659,16.5979798 Z M18.0534125,9.87474747 C17.1988131,11.5555556 16.6646884,13.4464646 16.1305638,15.3373737 C17.1988131,15.3373737 18.3738872,15.3373737 19.4421365,15.3373737 C19.4421365,15.3373737 19.6557864,15.3373737 19.9762611,15.3373737 C19.4421365,13.4464646 18.9080119,11.5555556 18.0534125,9.87474747 Z M9.61424332,13.1313131 C9.61424332,12.9212121 9.82789318,12.6060606 9.82789318,12.6060606 C9.29376855,12.0808081 8.75964392,11.7656566 8.22551929,11.5555556 C7.69139466,12.2909091 7.69139466,12.2909091 9.61424332,13.1313131 Z M26.4925816,13.1313131 C28.4154303,12.2909091 28.4154303,12.2909091 27.8813056,11.5555556 C27.347181,11.7656566 26.8130564,12.0808081 26.2789318,12.6060606 C26.2789318,12.9212121 26.4925816,12.9212121 26.4925816,13.1313131 Z M11.7507418,7.98383838 C12.2848665,8.61414141 12.6053412,8.82424242 12.8189911,9.66464646 C13.1394659,9.34949495 13.3531157,9.34949495 13.3531157,9.13939394 C12.6053412,7.24848485 12.6053412,7.24848485 11.7507418,7.98383838 Z M22.7537092,9.13939394 C22.9673591,9.13939394 23.2878338,9.34949495 23.5014837,9.34949495 C23.8219585,8.82424242 24.0356083,8.2989899 24.5697329,7.77373737 C23.5014837,7.24848485 23.5014837,7.24848485 22.7537092,9.13939394 Z M18.3738872,6.1979798 C17.5192878,6.1979798 17.5192878,6.1979798 17.7329377,7.98383838 C18.5875371,7.98383838 18.5875371,7.98383838 18.3738872,6.1979798 Z M13.6735905,26.3676768 C13.6735905,27.1030303 13.6735905,27.6282828 13.6735905,28.4686869 C13.6735905,29.3090909 13.6735905,29.8343434 13.6735905,30.6747475 C13.6735905,30.8848485 13.9940653,30.8848485 14.2077151,31.2 C14.5281899,30.8848485 14.7418398,30.8848485 14.7418398,30.6747475 C14.7418398,29.3090909 14.7418398,27.9434343 14.7418398,26.3676768 C14.7418398,26.0525253 14.5281899,26.0525253 14.2077151,25.7373737 C13.9940653,26.0525253 13.6735905,26.3676768 13.6735905,26.3676768 Z" id="Shape"></path>
        </g>
    </g>
</svg>