<?xml version="1.0" encoding="UTF-8"?>
<svg width="64px" height="64px" viewBox="0 0 64 64" version="1.1" xmlns="http://www.w3.org/2000/svg" xmlns:xlink="http://www.w3.org/1999/xlink">
    <!-- Generator: Sketch 52.6 (67491) - http://www.bohemiancoding.com/sketch -->
    <title>parking-meter-simple</title>
    <desc>Created with Sketch.</desc>
    <g id="parking-meter-simple" stroke="none" stroke-width="1" fill="none" fill-rule="evenodd">
        <g id="icon-parking-meter-simple" transform="translate(14.000000, 6.000000)" fill="#000000" fill-rule="nonzero">
            <path d="M12.747541,52 C12.747541,51.6601307 12.747541,51.4335512 12.747541,51.0936819 C13.1016393,48.4880174 12.5114754,46.788671 9.79672131,44.9760349 C5.19344262,42.1437908 3.77704918,36.3660131 5.54754098,31.1546841 C5.90163934,30.4749455 5.54754098,29.9084967 5.54754098,29.3420479 C4.01311475,26.1699346 2.47868852,22.6579521 1.06229508,19.4858388 C0.118032787,17.4466231 -0.236065574,15.7472767 0.472131148,13.708061 C1.88852459,5.89106754 9.44262295,-0.226579521 18.295082,0.11328976 C27.0295082,0.11328976 34.5836066,6.45751634 35.7639344,14.6143791 C36.1180328,15.9738562 35.7639344,17.4466231 35.1737705,18.91939 C33.4032787,22.0915033 31.8688525,25.6034858 30.3344262,28.7755991 C29.9803279,29.3420479 29.9803279,30.248366 30.3344262,30.8148148 C32.4590164,36.9324619 29.9803279,42.9368192 24.3147541,46.2222222 C23.7245902,46.4488017 23.1344262,47.0152505 23.3704918,47.9215686 C23.3704918,49.3943355 23.3704918,50.5272331 23.3704918,52 C19.4754098,52 16.1704918,52 12.747541,52 Z M8.26229508,7.36383442 C8.61639344,7.36383442 8.85245902,7.59041394 9.20655738,7.59041394 C11.9213115,9.62962963 14.2819672,11.6688453 16.7606557,13.708061 C16.9967213,13.9346405 16.9967213,14.2745098 17.3508197,13.9346405 C18.8852459,13.708061 19.7114754,14.8409586 20.0655738,15.9738562 C23.7245902,15.9738562 27.2655738,15.9738562 30.9245902,15.9738562 C31.2786885,8.15686275 23.1344262,1.81263617 14.8721311,3.51198257 C12.5114754,4.41830065 10.3868852,5.89106754 8.26229508,7.36383442 C8.02622951,7.93028322 7.67213115,8.49673203 7.31803279,8.72331155 C5.54754098,11.1023965 4.95737705,13.3681917 4.60327869,16.3137255 C8.26229508,16.3137255 11.9213115,16.3137255 15.8163934,16.3137255 C15.8163934,15.9738562 15.5803279,15.7472767 15.5803279,15.4074074 C14.6360656,14.6143791 13.6918033,13.708061 12.747541,12.8017429 C11.3311475,11.1023965 9.79672131,9.40305011 8.26229508,7.36383442 Z M22.7803279,25.2636166 C22.7803279,26.5098039 22.7803279,27.6427015 22.7803279,28.7755991 C22.7803279,29.3420479 23.3704918,29.6819172 23.7245902,30.248366 C23.9606557,29.6819172 24.904918,29.3420479 24.904918,28.7755991 C24.904918,26.5098039 24.904918,24.130719 24.904918,21.8649237 C24.904918,21.5250545 24.3147541,20.9586057 23.7245902,20.6187364 C23.3704918,20.9586057 22.7803279,21.5250545 22.7803279,21.8649237 C22.4262295,22.9978214 22.7803279,24.130719 22.7803279,25.2636166 Z" id="Shape"></path>
        </g>
    </g>
</svg>