<?xml version="1.0" encoding="UTF-8"?>
<svg width="64px" height="64px" viewBox="0 0 64 64" version="1.1" xmlns="http://www.w3.org/2000/svg" xmlns:xlink="http://www.w3.org/1999/xlink">
    <!-- Generator: Sketch 52.6 (67491) - http://www.bohemiancoding.com/sketch -->
    <title>parking-bay</title>
    <desc>Created with Sketch.</desc>
    <g id="parking-bay" stroke="none" stroke-width="1" fill="none" fill-rule="evenodd">
        <g id="icon-parking-bay" transform="translate(6.000000, 6.000000)" fill="#000000" fill-rule="nonzero">
            <path d="M25.5297158,14.7803618 L22.0361757,14.7803618 L22.0361757,25.3953488 L24.4547804,25.3953488 C26.4702842,25.3953488 27.8139535,24.7235142 28.8888889,23.7829457 C29.9638243,22.7080103 30.6356589,21.3643411 30.6356589,19.2144703 C30.6356589,16.124031 28.8888889,14.7803618 25.5297158,14.7803618 Z M0,0 L0,52 L52,52 L52,0 L0,0 Z M36.8165375,29.2919897 C34.3979328,31.7105943 30.6356589,32.6511628 26.2015504,32.6511628 L23.1111111,32.6511628 L23.1111111,45.4160207 L12.7648579,45.4160207 L12.7648579,7.25581395 L26.2015504,7.25581395 C31.0387597,7.25581395 34.8010336,8.19638243 37.2196382,10.3462532 C39.6382429,12.3617571 40.9819121,15.4521964 40.9819121,19.2144703 C40.5788114,23.7829457 39.2351421,27.1421189 36.8165375,29.2919897 Z" id="Shape"></path>
        </g>
    </g>
</svg>