<?xml version="1.0" encoding="UTF-8"?>
<svg width="64px" height="64px" viewBox="0 0 64 64" version="1.1" xmlns="http://www.w3.org/2000/svg" xmlns:xlink="http://www.w3.org/1999/xlink">
    <!-- Generator: Sketch 52.6 (67491) - http://www.bohemiancoding.com/sketch -->
    <title>parking-ticket-machine</title>
    <desc>Created with Sketch.</desc>
    <g id="parking-ticket-machine" stroke="none" stroke-width="1" fill="none" fill-rule="evenodd">
        <g id="icon-parking-ticket-machine" transform="translate(17.000000, 6.000000)" fill="#000000" fill-rule="nonzero">
            <path d="M1.95402299,38.8583878 C1.95402299,38.291939 1.95402299,37.0457516 2.52873563,35.912854 C3.2183908,34.4400871 2.87356322,32.9673203 2.52873563,31.6078431 C1.72413793,28.6623094 1.14942529,25.4901961 0.574712644,22.3180828 C-0.114942529,21.751634 -0.114942529,20.8453159 0.229885057,19.9389978 C1.37931034,14.5010893 2.52873563,8.61002179 3.79310345,3.17211329 C4.02298851,2.26579521 4.36781609,1.69934641 5.51724138,1.35947712 C11.954023,-0.339869281 18.1609195,-0.339869281 24.5977011,1.35947712 C25.5172414,1.69934641 26.091954,2.26579521 26.4367816,3.17211329 C27.5862069,8.94989107 28.7356322,14.7276688 30,20.5054466 C30,21.0718954 30,21.9782135 29.6551724,22.5446623 C28.7356322,26.0566449 27.9310345,29.5686275 27.3563218,32.7407407 C27.0114943,33.3071895 27.3563218,34.2135076 27.3563218,34.7799564 C29.6551724,42.0305011 25.5172414,49.5076253 17.9310345,51.546841 C10.5747126,53.3594771 3.2183908,48.3747277 1.95402299,40.8976035 C1.95402299,40.5577342 1.95402299,39.9912854 1.95402299,38.8583878 Z M27.3563218,19.1459695 C27.3563218,18.8061002 27.3563218,18.4662309 27.3563218,18.2396514 C26.4367816,13.5947712 25.2873563,8.61002179 24.3678161,3.96514161 C24.3678161,3.73856209 23.7931034,3.17211329 23.2183908,2.83224401 C17.5862069,1.35947712 12.2988506,1.35947712 6.66666667,2.83224401 C6.09195402,3.17211329 5.51724138,3.73856209 5.51724138,4.30501089 C4.59770115,8.94989107 3.44827586,13.254902 2.52873563,17.8997821 C2.52873563,18.2396514 2.52873563,18.8061002 2.52873563,19.1459695 C10.8045977,19.1459695 19.0804598,19.1459695 27.3563218,19.1459695 Z M20.8045977,24.0174292 C16.6666667,24.0174292 12.6436782,24.0174292 8.73563218,24.0174292 C9.88505747,25.4901961 20,25.4901961 20.8045977,24.0174292 Z M15.5172414,34.7799564 C15.5172414,32.9673203 15.5172414,31.2679739 15.5172414,29.795207 C14.5977011,29.5686275 14.0229885,29.795207 14.0229885,30.7015251 C14.0229885,31.8344227 14.0229885,32.9673203 14.0229885,33.8736383 C14.0229885,34.7799564 14.5977011,34.7799564 15.5172414,34.7799564 Z M14.9425287,11.8954248 C12.8735632,11.8954248 10.8045977,11.8954248 8.73563218,11.8954248 C7.5862069,11.8954248 7.01149425,11.2156863 7.24137931,10.0827887 C7.24137931,9.51633987 7.5862069,8.94989107 7.5862069,8.38344227 C8.16091954,5.21132898 8.16091954,5.4379085 11.3793103,4.64488017 C14.3678161,3.96514161 17.5862069,4.30501089 20.5747126,5.21132898 C21.1494253,5.21132898 21.3793103,5.77777778 21.7241379,6.34422658 C21.954023,7.47712418 22.2988506,8.94989107 22.6436782,10.0827887 C22.8735632,11.2156863 22.6436782,11.8954248 21.1494253,11.8954248 C19.0804598,11.8954248 17.0114943,11.8954248 14.9425287,11.8954248 Z M10.2298851,15.6339869 C9.31034483,16.2004357 8.73563218,16.7668845 8.16091954,16.7668845 C7.5862069,16.7668845 7.24137931,15.8605664 6.66666667,15.6339869 C7.24137931,15.0675381 7.5862069,14.5010893 8.16091954,14.16122 C8.50574713,14.16122 9.31034483,14.7276688 10.2298851,15.6339869 Z M17.0114943,17.6732026 C16.4367816,16.7668845 15.862069,16.2004357 15.5172414,15.6339869 C15.5172414,14.7276688 16.091954,14.16122 17.0114943,14.16122 C17.5862069,14.16122 18.1609195,15.0675381 18.1609195,15.6339869 C18.5057471,15.8605664 17.9310345,16.540305 17.0114943,17.6732026 Z M21.3793103,17.1067538 C21.1494253,16.540305 20.2298851,15.8605664 20.2298851,15.6339869 C20.2298851,15.0675381 20.8045977,14.5010893 21.3793103,14.16122 C22.2988506,13.8213508 22.8735632,14.5010893 22.8735632,15.6339869 C22.8735632,16.2004357 22.2988506,16.7668845 21.954023,17.3333333 C21.7241379,17.1067538 21.3793103,17.1067538 21.3793103,17.1067538 Z M14.5977011,15.6339869 C13.7931034,16.2004357 13.2183908,16.7668845 12.6436782,16.7668845 C11.954023,16.7668845 11.7241379,15.8605664 11.1494253,15.6339869 C11.7241379,15.0675381 11.954023,14.5010893 12.6436782,14.16122 C13.2183908,14.16122 13.7931034,15.0675381 14.5977011,15.6339869 Z" id="Shape"></path>
        </g>
    </g>
</svg>