<?xml version="1.0" encoding="UTF-8"?>
<svg width="64px" height="64px" viewBox="0 0 64 64" version="1.1" xmlns="http://www.w3.org/2000/svg" xmlns:xlink="http://www.w3.org/1999/xlink">
    <!-- Generator: Sketch 58 (84663) - https://sketch.com -->
    <title>pathfinder</title>
    <desc>Created with Sketch.</desc>
    <g id="pathfinder" stroke="none" stroke-width="1" fill="none" fill-rule="evenodd">
        <path d="M24.5875468,6.10256646 C24.6353366,6.15723884 24.6616744,6.22738922 24.6616744,6.30000417 L24.661,10.639 L34,10.6393157 L34.3230397,10.6423235 C43.5628044,10.8145197 51,18.3583926 51,27.6393157 C51,36.9202387 43.5628044,44.4641116 34.3230397,44.6363078 L34,44.6393157 L24.847,44.639 L24.8479659,58 L14.8479659,58 L14.8479659,21.2856445 L24.8479659,29.8857604 L24.847,34.639 L33.25,34.6393157 L33.4820551,34.6352566 C37.1025303,34.5084143 40,31.4247674 40,27.6393157 C40,23.8538639 37.1025303,20.770217 33.4820551,20.6433747 L33.25,20.6393157 L24.661,20.639 L24.6616744,25.0418012 C24.6616744,25.2074866 24.5273598,25.3418012 24.3616744,25.3418012 C24.2875391,25.3418012 24.2160293,25.3143513 24.1609359,25.2647452 L13.099264,15.7550286 C12.9761354,15.6441638 12.9661937,15.4544746 13.0770585,15.3313461 L13.1025648,15.3062122 L24.1642367,6.07413175 C24.2889826,5.96508992 24.478505,5.97782057 24.5875468,6.10256646 Z" id="Path" fill="#000000"></path>
    </g>
</svg>