<?xml version="1.0" encoding="UTF-8"?>
<svg width="64px" height="64px" viewBox="0 0 64 64" version="1.1" xmlns="http://www.w3.org/2000/svg" xmlns:xlink="http://www.w3.org/1999/xlink">
    <!-- Generator: Sketch 52.6 (67491) - http://www.bohemiancoding.com/sketch -->
    <title>person-not-allowed</title>
    <desc>Created with Sketch.</desc>
    <g id="person-not-allowed" stroke="none" stroke-width="1" fill="none" fill-rule="evenodd">
        <g id="icon-person-not-allowed" transform="translate(6.000000, 6.000000)" fill="#000000" fill-rule="nonzero">
            <path d="M28.84375,11.4765625 C28.84375,13 27.5234375,14.3203125 26,14.3203125 C24.4765625,14.3203125 23.15625,13 23.15625,11.4765625 C23.15625,9.8515625 24.4765625,8.53125 26,8.53125 C27.5234375,8.53125 28.84375,9.8515625 28.84375,11.4765625 Z M52,26 C52,11.6796875 40.3203125,0 26,0 C11.6796875,0 0,11.6796875 0,26 C0,40.3203125 11.6796875,52 26,52 C40.3203125,52 52,40.3203125 52,26 Z M26,45.8046875 C21.8359375,45.8046875 18.1796875,44.484375 15.03125,42.3515625 L42.3515625,15.03125 C44.484375,18.1796875 45.8046875,22.140625 45.8046875,26 C45.8046875,36.96875 36.96875,45.8046875 26,45.8046875 Z M26,6.1953125 C30.1640625,6.1953125 34.0234375,7.515625 37.171875,9.6484375 L9.6484375,37.171875 C7.515625,34.0234375 6.1953125,30.1640625 6.1953125,26 C6.1953125,15.03125 15.03125,6.1953125 26,6.1953125 Z M22.34375,41.640625 C22.34375,41.84375 22.34375,42.1484375 22.34375,42.1484375 C22.34375,42.65625 22.8515625,43.1640625 23.359375,43.46875 C24.4765625,43.671875 25.4921875,42.859375 25.4921875,41.640625 C25.4921875,39 25.4921875,36.15625 25.4921875,33.515625 L22.140625,36.96875 C22.34375,38.4921875 22.34375,40.015625 22.34375,41.640625 Z M21.8359375,23.15625 C21.8359375,22.6484375 21.8359375,22.140625 21.8359375,21.53125 C21.8359375,20.8203125 21.8359375,20.0078125 21.8359375,19.1953125 C22.140625,19.1953125 22.34375,19.1953125 22.34375,19.1953125 C22.34375,19.5 22.34375,19.5 22.34375,19.8046875 C22.34375,20.8203125 22.34375,21.53125 22.34375,22.6484375 L29.859375,15.03125 C29.65625,15.03125 29.1484375,14.828125 28.84375,14.828125 C27.015625,14.828125 24.984375,14.828125 23.15625,14.828125 C21.0234375,14.828125 19.5,16.3515625 19.5,18.484375 C19.5,20.8203125 19.5,23.359375 19.5,25.6953125 L21.8359375,23.15625 Z M30.671875,28.640625 C30.9765625,28.84375 31.1796875,28.84375 31.484375,28.84375 C32.1953125,28.84375 32.8046875,28.3359375 32.8046875,27.5234375 C32.8046875,27.3203125 32.8046875,27.015625 32.8046875,26.5078125 L30.671875,28.640625 Z M26.3046875,42.1484375 C26.3046875,42.859375 27.015625,43.46875 27.828125,43.46875 C28.640625,43.46875 29.3515625,42.859375 29.3515625,42.3515625 C29.3515625,42.1484375 29.3515625,41.84375 29.3515625,41.640625 C29.3515625,37.6796875 29.3515625,33.8203125 29.3515625,29.859375 L26,33.3125 C26,36.15625 26,39 26,41.84375 C26.3046875,41.640625 26.3046875,41.84375 26.3046875,42.1484375 Z" id="Shape"></path>
        </g>
    </g>
</svg>