<?xml version="1.0" encoding="UTF-8"?>
<svg width="64px" height="64px" viewBox="0 0 64 64" version="1.1" xmlns="http://www.w3.org/2000/svg" xmlns:xlink="http://www.w3.org/1999/xlink">
    <!-- Generator: Sketch 52.6 (67491) - http://www.bohemiancoding.com/sketch -->
    <title>person-walking</title>
    <desc>Created with Sketch.</desc>
    <g id="person-walking" stroke="none" stroke-width="1" fill="none" fill-rule="evenodd">
        <g id="icon-person-walking" transform="translate(16.000000, 6.000000)" fill="#000000">
            <path d="M14.9126214,0 C13.2556634,0 11.7022654,1.3254902 11.7022654,3.16078431 C11.7022654,4.48627451 12.2200647,4.99607843 12.5307443,5.70980392 C13.0485437,7.85098039 11.3915858,9.68627451 10.6666667,9.89019608 C9.00970874,10.1960784 9.00970874,10.4 7.97411003,11.2156863 C6.93851133,12.0313725 1.13915858,17.2313725 1.13915858,21.6156863 L1.13915858,27.9372549 C1.13915858,27.9372549 1.13915858,29.2627451 2.17475728,29.2627451 C3.21035599,29.2627451 3.21035599,27.9372549 3.21035599,27.9372549 L3.21035599,23.7568627 C3.21035599,23.7568627 3.00323625,21.6156863 5.59223301,19.0666667 L8.28478964,16.7215686 C8.28478964,16.7215686 8.49190939,16.4156863 8.802589,16.4156863 C9.00970874,16.4156863 9.32038835,16.7215686 9.32038835,16.9254902 C9.32038835,17.2313725 9.8381877,19.8823529 9.8381877,22.227451 C9.8381877,26.6117647 8.802589,30.5882353 7.76699029,32.9333333 C7.45631068,33.4431373 0.621359223,47.7176471 0.621359223,47.7176471 C0.621359223,47.7176471 0,48.3294118 0,49.0431373 C0,49.8588235 0.310679612,50.3686275 1.13915858,50.6745098 L5.38511327,51.8980392 C5.38511327,51.8980392 5.90291262,52.2039216 6.11003236,51.6941176 C6.42071197,51.3882353 6.11003236,51.1843137 5.90291262,50.8784314 L4.24595469,49.8588235 C4.24595469,49.8588235 3.72815534,49.5529412 3.72815534,48.8392157 C3.72815534,48.5333333 3.72815534,48.3294118 4.03883495,48.3294118 L11.184466,37.1137255 C11.184466,37.1137255 12.2200647,35.2784314 13.0485437,32.9333333 L24.4401294,51.1843137 C24.4401294,51.1843137 24.9579288,51.8980392 25.7864078,51.8980392 C26.3042071,51.8980392 26.5113269,51.3882353 26.5113269,51.3882353 L30.0323625,47.7176471 C30.0323625,47.7176471 30.2394822,47.5137255 30.0323625,47.2078431 C29.7216828,47.0039216 29.5145631,47.0039216 29.2038835,47.2078431 L27.8576052,47.7176471 C27.8576052,47.7176471 26.8220065,48.5333333 25.9935275,47.0039216 C24.4401294,44.1490196 21.7475728,37.827451 20.5048544,34.972549 C19.3656958,32.627451 18.0194175,29.2627451 18.0194175,25.0823529 C18.0194175,23.2470588 18.6407767,20.0862745 18.8478964,19.2705882 C18.8478964,19.0666667 19.1585761,18.7607843 19.1585761,18.7607843 C19.3656958,18.7607843 19.3656958,18.7607843 19.6763754,19.0666667 C21.0226537,20.9019608 24.6472492,24.2666667 30.7572816,24.7764706 C31.2750809,24.7764706 31.5857605,24.572549 31.8964401,24.0627451 C32.1035599,23.4509804 31.5857605,22.9411765 31.0679612,22.9411765 C27.6504854,22.227451 25.2686084,20.0862745 23.4045307,17.5372549 C21.5404531,15.0901961 21.7475728,14.3764706 21.0226537,12.0313725 C20.7119741,11.5215686 20.5048544,11.0117647 19.6763754,11.0117647 C17.5016181,10.7058824 16.4660194,9.38039216 16.4660194,7.34117647 C16.4660194,7.03529412 16.776699,6.83137255 16.9838188,6.83137255 C17.8122977,7.03529412 18.0194175,6.21960784 18.0194175,6.01568627 L18.0194175,2.85490196 C18.0194175,2.85490196 17.5016181,0 14.9126214,0 Z" id="Path"></path>
        </g>
    </g>
</svg>