<?xml version="1.0" encoding="UTF-8"?>
<svg width="64px" height="64px" viewBox="0 0 64 64" version="1.1" xmlns="http://www.w3.org/2000/svg" xmlns:xlink="http://www.w3.org/1999/xlink">
    <!-- Generator: Sketch 52.6 (67491) - http://www.bohemiancoding.com/sketch -->
    <title>person-disabled</title>
    <desc>Created with Sketch.</desc>
    <g id="person-disabled" stroke="none" stroke-width="1" fill="none" fill-rule="evenodd">
        <g id="icon-person-disabled" transform="translate(9.000000, 6.000000)" fill="#000000" fill-rule="nonzero">
            <path d="M31.5837321,10.0504202 C31.5837321,10.0504202 31.3636364,10.0504202 31.3636364,10.0504202 C28.5023923,10.0504202 26.3014354,7.75630252 26.3014354,5.02521008 C26.3014354,2.18487395 28.5023923,0 31.3636364,0 C34.1148325,0 36.4258373,2.18487395 36.4258373,5.02521008 L34.4449761,31.0252101 L16.3971292,31.0252101 L9.35406699,47.1932773 L0,43.3697479 L1.43062201,39.9831933 L6.49282297,42.1680672 L13.3157895,26.8739496 L30.15311,26.8739496 L30.4832536,23.1596639 L17.8277512,23.1596639 L17.8277512,19.0084034 L31.0334928,19.0084034 L31.5837321,10.0504202 Z M16.3971292,36.3781513 C16.9473684,42.7142857 22.3397129,48.0672269 29.0526316,48.0672269 C36.0956938,48.0672269 41.708134,42.4957983 41.708134,35.5042017 C41.708134,31.5714286 39.7272727,27.9663866 36.9760766,25.6722689 L37.1961722,20.6470588 C42.2583732,23.487395 46,29.0588235 46,35.1764706 C46,44.4621849 38.4066986,52 29.0526316,52 C22.3397129,52 16.3971292,48.0672269 13.8660287,42.4957983 L16.3971292,36.3781513 Z" id="Shape"></path>
        </g>
    </g>
</svg>