<?xml version="1.0" encoding="UTF-8"?>
<svg width="64px" height="64px" viewBox="0 0 64 64" version="1.1" xmlns="http://www.w3.org/2000/svg" xmlns:xlink="http://www.w3.org/1999/xlink">
    <!-- Generator: Sketch 52.6 (67491) - http://www.bohemiancoding.com/sketch -->
    <title>person-running</title>
    <desc>Created with Sketch.</desc>
    <g id="person-running" stroke="none" stroke-width="1" fill="none" fill-rule="evenodd">
        <g id="icon-person-running" transform="translate(6.000000, 7.000000)" fill="#000000" fill-rule="nonzero">
            <path d="M23.8035363,27.6422764 C22.6797642,28.8617886 21.6581532,29.9796748 20.6365422,31.199187 C19.8192534,32.0121951 19.0019646,32.8252033 18.4911591,33.5365854 C17.7760314,34.6544715 16.4479371,35.1626016 15.1198428,35.1626016 C10.9312377,35.1626016 6.74263261,35.1626016 2.5540275,35.1626016 C1.021611,35.1626016 0,33.8414634 0,32.3170732 C0,30.6910569 1.021611,29.6747967 2.5540275,29.4715447 C5.21021611,29.4715447 7.76424361,29.4715447 10.1139489,29.4715447 C10.9312377,29.4715447 11.7485265,29.4715447 12.4636542,29.4715447 C12.7701375,29.4715447 13.0766208,29.1666667 13.280943,29.1666667 C17.2652259,24.4918699 21.3516699,19.5121951 25.8467583,14.6341463 C26.6640472,13.8211382 27.1748527,13.0081301 28.1964637,11.9918699 C26.8683694,11.9918699 25.540275,11.9918699 24.3143418,11.9918699 C24.0078585,11.9918699 23.8035363,12.296748 23.8035363,12.5 C21.3516699,14.8373984 19.3084479,17.4796748 17.2652259,19.8170732 C16.1414538,21.1382114 14.302554,21.1382114 13.5874263,19.5121951 C13.0766208,18.800813 13.0766208,17.9878049 13.7917485,17.1747967 C16.4479371,14.3292683 18.7976424,11.4837398 21.3516699,8.63821138 C21.6581532,7.82520325 22.475442,7.5203252 23.1905697,7.5203252 C26.6640472,7.5203252 30.0353635,7.5203252 33.4066798,7.5203252 C34.4282908,7.5203252 35.2455796,7.82520325 36.0628684,8.63821138 C38.1060904,10.6707317 40.2514735,12.804878 42.0903733,14.6341463 C42.2946955,14.8373984 42.2946955,14.8373984 42.2946955,15.1422764 C42.6011788,14.8373984 42.805501,14.8373984 42.805501,14.6341463 C44.4400786,13.0081301 46.2789784,11.1788618 47.8113949,9.65447154 C48.6286837,8.84146341 49.3438114,8.84146341 50.1611002,9.14634146 C51.4891945,9.65447154 52,10.1626016 52,11.1788618 C52,11.9918699 51.6935167,12.5 51.4891945,13.0081301 C49.3438114,15.3455285 46.9941061,17.4796748 44.9508841,19.8170732 C44.6444008,19.8170732 44.4400786,19.8170732 44.1335953,20.0203252 C43.1119843,21.1382114 41.78389,20.8333333 40.762279,19.8170732 C39.4341847,18.495935 38.4125737,17.4796748 37.0844794,16.1585366 C36.8801572,15.8536585 36.8801572,15.8536585 36.5736739,15.6504065 C34.4282908,18.1910569 32.0785855,20.5284553 30.0353635,23.1707317 C30.3418468,23.4756098 30.3418468,23.4756098 30.546169,23.6788618 C32.3850688,25.5081301 33.9174853,27.0325203 35.7563851,28.8617886 C36.8801572,29.9796748 37.0844794,30.995935 36.8801572,32.3170732 C35.7563851,37.195122 34.4282908,42.1747967 33.4066798,47.3577236 C33.2023576,49.1869919 32.0785855,50 30.546169,50 C28.7072692,50 27.3791749,48.3739837 27.8899804,46.5447154 C28.502947,44.5121951 29.0137525,42.4796748 29.2180747,40.0406504 C29.7288802,38.3130081 30.0353635,36.4837398 30.546169,34.6544715 C30.546169,34.3495935 30.546169,34.1463415 30.3418468,33.8414634 C28.1964637,31.8089431 26.1532417,29.9796748 23.8035363,27.6422764 C24.0078585,27.6422764 23.8035363,27.6422764 23.8035363,27.6422764 Z M39.2298625,0 C41.5795678,0 43.6227898,2.13414634 43.6227898,4.47154472 C43.6227898,6.80894309 41.5795678,8.84146341 39.2298625,8.84146341 C36.8801572,8.84146341 34.7347741,6.80894309 34.7347741,4.47154472 C34.7347741,2.13414634 36.8801572,0 39.2298625,0 Z" id="Shape"></path>
        </g>
    </g>
</svg>