<?xml version="1.0" encoding="UTF-8"?>
<svg width="64px" height="64px" viewBox="0 0 64 64" version="1.1" xmlns="http://www.w3.org/2000/svg" xmlns:xlink="http://www.w3.org/1999/xlink">
    <!-- Generator: Sketch 52.6 (67491) - http://www.bohemiancoding.com/sketch -->
    <title>person-at-work</title>
    <desc>Created with Sketch.</desc>
    <g id="person-at-work" stroke="none" stroke-width="1" fill="none" fill-rule="evenodd">
        <g id="icon-person-at-work" transform="translate(6.000000, 13.000000)" fill="#000000">
            <path d="M19.8823529,25.7322835 C19.8823529,25.7322835 19.2705882,24.7349081 18.5568627,24.4356955 C17.5372549,24.2362205 16.7215686,24.2362205 15.9058824,22.6404199 L15.0901961,21.4435696 C15.0901961,21.4435696 14.8862745,20.8451444 14.0705882,20.8451444 C13.3568627,20.6456693 12.2352941,20.3464567 12.0313725,20.3464567 C11.5215686,20.3464567 11.0117647,20.3464567 10.1960784,21.144357 C9.38039216,21.9422572 0,38 0,38 L22.4313725,38 C22.4313725,38 22.9411765,38 22.9411765,37.5013123 C22.7372549,37.0026247 20.0862745,27.5275591 20.0862745,27.5275591 L23.2470588,25.5328084 C23.2470588,25.5328084 23.4509804,26.0314961 24.2666667,25.5328084 C25.0823529,24.9343832 25.5921569,24.9343832 25.5921569,24.9343832 C25.5921569,24.9343832 26.1019608,24.9343832 26.1019608,23.9370079 C26.4078431,23.7375328 29.772549,21.6430446 29.772549,21.6430446 C29.772549,21.6430446 28.4470588,24.4356955 28.4470588,25.7322835 C28.4470588,27.0288714 27.9372549,35.4068241 27.9372549,35.4068241 C27.9372549,35.4068241 27.9372549,36.2047244 27.427451,36.2047244 C26.9176471,36.2047244 25.0823529,37.0026247 25.0823529,37.0026247 C25.0823529,37.0026247 24.572549,37.0026247 24.572549,37.5013123 C24.572549,38 24.7764706,38 25.0823529,38 C25.2862745,38 31.6078431,38 31.6078431,38 C31.6078431,38 32.3215686,38 32.3215686,37.2020997 C32.3215686,36.503937 33.6470588,28.0262467 33.6470588,28.0262467 C33.6470588,28.0262467 33.1372549,28.0262467 33.1372549,27.2283465 C33.1372549,26.7296588 33.1372549,26.2309711 33.4431373,26.2309711 C33.6470588,26.0314961 35.4823529,23.9370079 36.8078431,20.8451444 C37.1137255,20.3464567 37.1137255,20.8451444 37.1137255,20.8451444 C37.1137255,20.8451444 39.6627451,27.5275591 39.9686275,27.8267717 C40.172549,28.0262467 47.0039216,33.4120735 47.0039216,33.4120735 C47.2078431,33.4120735 47.5137255,33.9107612 47.5137255,34.7086614 C47.5137255,35.7060367 47.2078431,36.503937 47.0039216,36.7034121 C46.6980392,37.0026247 46.1882353,37.5013123 46.1882353,37.5013123 C46.1882353,37.7007874 46.4941176,37.7007874 46.4941176,37.7007874 C46.6980392,37.7007874 47.5137255,37.7007874 47.5137255,37.7007874 C47.5137255,37.7007874 48.8392157,37.7007874 49.5529412,36.503937 C50.3686275,35.2073491 51.8980392,32.6141732 51.8980392,32.6141732 C51.8980392,32.6141732 52.2039216,32.1154856 51.6941176,31.9160105 C51.1843137,31.6167979 50.3686275,31.3175853 50.1647059,30.8188976 C49.5529412,30.32021 45.372549,25.5328084 45.372549,25.5328084 C45.372549,25.5328084 44.8627451,24.7349081 44.1490196,25.2335958 C43.8431373,24.9343832 43.6392157,24.4356955 43.6392157,24.4356955 C43.6392157,24.4356955 42.3137255,17.3543307 40.9882353,14.2624672 C41.4980392,14.2624672 41.8039216,13.9632546 41.8039216,13.9632546 C41.8039216,13.9632546 42.8235294,14.7611549 43.6392157,13.9632546 C44.3529412,12.9658793 44.3529412,13.2650919 44.3529412,12.7664042 C44.1490196,12.167979 44.1490196,12.167979 43.8431373,11.9685039 C43.6392157,11.6692913 43.027451,11.1706037 43.027451,10.4724409 C43.027451,9.67454068 42.8235294,7.38057743 42.3137255,6.3832021 C41.8039216,5.28608924 41.8039216,4.28871391 40.172549,3.79002625 C37.827451,2.79265092 34.6666667,2.29396325 32.3215686,2.79265092 C31.8117647,2.99212598 29.772549,4.28871391 29.4666667,4.58792651 C29.2627451,4.58792651 28.4470588,5.08661417 28.4470588,4.28871391 C28.7529412,2.79265092 27.1215686,0 24.7764706,0 C21.6156863,0 21.4117647,2.79265092 21.4117647,2.99212598 C21.4117647,4.58792651 22.4313725,6.3832021 25.5921569,6.58267717 C25.5921569,6.58267717 26.1019608,6.58267717 26.1019608,7.08136483 C26.1019608,7.58005249 26.1019608,7.38057743 25.7960784,7.58005249 C25.7960784,7.87926509 24.2666667,9.17585302 24.0627451,9.67454068 C24.0627451,11.4698163 24.2666667,13.7637795 24.7764706,15.0603675 C24.7764706,15.0603675 25.2862745,16.0577428 24.7764706,17.0551181 C24.572549,17.8530184 22.9411765,21.6430446 22.7372549,21.9422572 C22.4313725,22.6404199 22.227451,23.2388451 22.4313725,23.9370079 C22.4313725,23.9370079 19.8823529,25.7322835 19.8823529,25.7322835 Z" id="Path"></path>
        </g>
    </g>
</svg>