<?xml version="1.0" encoding="UTF-8"?>
<svg width="64px" height="64px" viewBox="0 0 64 64" version="1.1" xmlns="http://www.w3.org/2000/svg" xmlns:xlink="http://www.w3.org/1999/xlink">
    <!-- Generator: Sketch 52.6 (67491) - http://www.bohemiancoding.com/sketch -->
    <title>person-stand</title>
    <desc>Created with Sketch.</desc>
    <g id="person-stand" stroke="none" stroke-width="1" fill="none" fill-rule="evenodd">
        <g id="icon-person-stand" transform="translate(22.000000, 6.000000)" fill="#000000" fill-rule="nonzero">
            <path d="M10.3092784,30.7961165 C10,30.7961165 9.69072165,30.7961165 9.48453608,30.7961165 C9.48453608,30.9980583 9.48453608,31.3009709 9.48453608,31.5029126 C9.48453608,37.4601942 9.48453608,43.215534 9.48453608,49.0718447 C9.48453608,50.8893204 8.1443299,52.2019417 6.28865979,51.6970874 C5.46391753,51.3941748 4.74226804,50.6873786 4.74226804,49.6776699 C4.74226804,49.3747573 4.74226804,49.0718447 4.74226804,48.8699029 C4.74226804,42.1048544 4.74226804,35.4407767 4.74226804,28.6757282 C4.74226804,24.838835 4.74226804,20.6990291 4.74226804,16.761165 C4.74226804,16.5592233 4.74226804,16.2563107 4.74226804,16.0543689 C4.43298969,16.0543689 4.22680412,16.0543689 3.71134021,16.0543689 C3.71134021,17.3669903 3.71134021,18.376699 3.71134021,19.6893204 C3.71134021,22.5165049 3.71134021,25.0407767 3.71134021,27.8679612 C3.71134021,29.1805825 2.88659794,29.6854369 1.8556701,29.9883495 C0.721649485,29.9883495 0,29.1805825 0,28.1708738 C0,23.8291262 0,19.0834951 0,14.7417476 C0,11.9145631 2.57731959,9.59223301 5.46391753,9.59223301 C8.45360825,9.59223301 11.3402062,9.59223301 14.2268041,9.59223301 C17.4226804,9.59223301 20,11.9145631 20,14.9436893 C20,19.3864078 20,23.8291262 20,28.1708738 C20,29.1805825 19.2783505,29.9883495 18.1443299,29.9883495 C17.1134021,29.9883495 16.2886598,29.1805825 16.2886598,28.1708738 C16.2886598,24.5359223 16.2886598,20.6990291 16.2886598,17.0640777 C16.2886598,16.761165 16.2886598,16.5592233 16.2886598,16.0543689 C16.0824742,16.0543689 15.7731959,16.0543689 15.5670103,16.0543689 C15.5670103,16.2563107 15.5670103,16.2563107 15.5670103,16.5592233 C15.5670103,19.3864078 15.5670103,22.0116505 15.5670103,24.838835 C15.5670103,32.815534 15.5670103,40.792233 15.5670103,48.8699029 C15.5670103,49.3747573 15.5670103,49.6776699 15.5670103,50.1825243 C15.257732,51.192233 14.2268041,52 13.1958763,52 C11.8556701,52 10.8247423,50.8893204 10.8247423,49.8796117 C10.8247423,49.6776699 10.8247423,49.3747573 10.8247423,49.0718447 C10.8247423,43.4174757 10.8247423,37.4601942 10.8247423,31.8058252 C10.3092784,31.3009709 10.3092784,30.9980583 10.3092784,30.7961165 Z M14.2268041,4.44271845 C14.2268041,6.76504854 12.371134,8.78446602 9.69072165,8.4815534 C7.31958763,8.4815534 5.46391753,6.76504854 5.46391753,4.44271845 C5.77319588,1.81747573 7.62886598,0 10,0 C12.371134,0 14.2268041,1.81747573 14.2268041,4.44271845 Z" id="Shape"></path>
        </g>
    </g>
</svg>