<?xml version="1.0" encoding="UTF-8"?>
<svg width="64px" height="64px" viewBox="0 0 64 64" version="1.1" xmlns="http://www.w3.org/2000/svg" xmlns:xlink="http://www.w3.org/1999/xlink">
    <!-- Generator: Sketch 52.6 (67491) - http://www.bohemiancoding.com/sketch -->
    <title>pipe-bottom-right</title>
    <desc>Created with Sketch.</desc>
    <g id="pipe-bottom-right" stroke="none" stroke-width="1" fill="none" fill-rule="evenodd">
        <g id="icon-pipe-bottom-right" transform="translate(5.000000, 6.000000)" fill="#000000">
            <path d="M45.7842566,3.94169096 L22.4373178,3.94169096 C19.8600583,3.94169096 17.1311953,4.69970845 14.7055394,5.45772595 C14.7055394,5.45772595 14.4023324,5.45772595 14.4023324,5.45772595 C13.6443149,5.76093294 12.4314869,6.21574344 11.6734694,6.97376093 C11.2186589,7.42857143 11.2186589,7.42857143 10.9154519,7.73177843 C10.1574344,8.18658892 9.70262391,8.48979592 8.94460641,9.24781341 C8.48979592,9.70262391 8.18658892,10.4606414 7.73177843,10.9154519 C7.42857143,11.2186589 6.97376093,11.6734694 6.97376093,11.9766764 C6.21574344,12.7346939 5.76093294,13.6443149 5.45772595,14.7055394 C5.45772595,14.7055394 5.45772595,15.1603499 5.45772595,15.1603499 C4.24489796,17.4344023 3.94169096,20.1632653 3.94169096,22.8921283 L3.94169096,46.2390671 L0,46.2390671 L0,52 L26.8338192,52 L26.8338192,46.2390671 L22.8921283,46.2390671 L22.8921283,24.8629738 C22.8921283,23.6501458 23.6501458,22.4373178 25.1661808,22.4373178 L46.5422741,22.4373178 L46.5422741,26.3790087 L52,26.3790087 L52,0 L45.7842566,0 L45.7842566,3.94169096 Z" id="Path"></path>
        </g>
    </g>
</svg>