<?xml version="1.0" encoding="UTF-8"?>
<svg width="64px" height="64px" viewBox="0 0 64 64" version="1.1" xmlns="http://www.w3.org/2000/svg" xmlns:xlink="http://www.w3.org/1999/xlink">
    <!-- Generator: Sketch 52.6 (67491) - http://www.bohemiancoding.com/sketch -->
    <title>pipe-left-top-bottom</title>
    <desc>Created with Sketch.</desc>
    <g id="pipe-left-top-bottom" stroke="none" stroke-width="1" fill="none" fill-rule="evenodd">
        <g id="icon-pipe-left-top-bottom" transform="translate(13.000000, 6.000000)" fill="#000000">
            <path d="M35.6878613,4.13980583 L35.6878613,0 L17.583815,0 L17.583815,4.13980583 L20.2890173,4.13980583 L20.2890173,19.3864078 L4.26589595,19.3864078 L4.26589595,16.761165 L0,16.761165 L0,34.6330097 L3.95375723,34.6330097 L3.95375723,32.007767 L18.6242775,32.007767 C19.4566474,32.007767 20.2890173,32.6135922 20.2890173,33.623301 L20.2890173,47.8601942 L17.583815,47.8601942 L17.583815,52 L36,52 L36,47.5572816 L33.2947977,47.5572816 L33.2947977,32.007767 C33.2947977,31.8058252 33.2947977,31.5029126 33.2947977,31.3009709 L33.2947977,4.13980583 L35.6878613,4.13980583 Z" id="Path"></path>
        </g>
    </g>
</svg>