<?xml version="1.0" encoding="UTF-8"?>
<svg width="64px" height="64px" viewBox="0 0 64 64" version="1.1" xmlns="http://www.w3.org/2000/svg" xmlns:xlink="http://www.w3.org/1999/xlink">
    <!-- Generator: Sketch 52.6 (67491) - http://www.bohemiancoding.com/sketch -->
    <title>pipe-cross</title>
    <desc>Created with Sketch.</desc>
    <g id="pipe-cross" stroke="none" stroke-width="1" fill="none" fill-rule="evenodd">
        <g id="icon-pipe-cross" transform="translate(5.000000, 6.000000)" fill="#000000">
            <polygon id="Path" points="48.140625 17.1640625 48.140625 19.8046875 32.1953125 19.8046875 32.1953125 3.859375 34.8359375 3.859375 34.8359375 0 17.1640625 0 17.1640625 3.859375 19.8046875 3.859375 19.8046875 19.8046875 3.859375 19.8046875 3.859375 17.1640625 0 17.1640625 0 34.8359375 3.859375 34.8359375 3.859375 32.1953125 19.8046875 32.1953125 19.8046875 48.140625 17.1640625 48.140625 17.1640625 52 34.8359375 52 34.8359375 48.140625 32.1953125 48.140625 32.1953125 32.1953125 48.140625 32.1953125 48.140625 34.8359375 52 34.8359375 52 17.1640625"></polygon>
        </g>
    </g>
</svg>