<?xml version="1.0" encoding="UTF-8"?>
<svg width="64px" height="64px" viewBox="0 0 64 64" version="1.1" xmlns="http://www.w3.org/2000/svg" xmlns:xlink="http://www.w3.org/1999/xlink">
    <!-- Generator: Sketch 52.6 (67491) - http://www.bohemiancoding.com/sketch -->
    <title>pipe-valve-top-bottom</title>
    <desc>Created with Sketch.</desc>
    <g id="pipe-valve-top-bottom" stroke="none" stroke-width="1" fill="none" fill-rule="evenodd">
        <g id="icon-pipe-valve-top-bottom" transform="translate(20.000000, 6.000000)" fill="#000000" fill-rule="nonzero">
            <path d="M6.1,9.34375 C8.1,8.328125 10.7,7.8203125 13.2,7.8203125 C15,7.8203125 16.8,8.0234375 18.6,8.53125 L18.6,3.859375 L21.2,3.859375 L21.2,0 L3.5,0 L3.5,4.1640625 L6.1,4.1640625 L6.1,9.34375 Z M18.3,42.1484375 C16.6,42.65625 15,42.859375 13,42.859375 C10.4,42.859375 7.8,42.3515625 5.8,41.3359375 L5.8,48.140625 L3.2,48.140625 L3.2,52 L20.9,52 L20.9,47.8359375 L18.3,47.8359375 L18.3,42.1484375 Z M23.5,31.1796875 L23,30.9765625 C23.7,29.3515625 24,27.828125 24,26 C24,19.8046875 19.1,14.5234375 13.2,14.015625 L13.2,13.8125 C13.2,13.3046875 12.7,12.6953125 12.2,12.6953125 C11.7,12.6953125 11.2,13.3046875 11.2,13.8125 L11.2,14.015625 C5,14.5234375 0.2,19.8046875 0.2,26 C0.2,27.828125 0.7,29.3515625 1.2,30.9765625 L0.7,31.1796875 C0.2,31.484375 -0.1,32.1953125 0.2,32.8046875 C0.4,33.3125 1.2,33.515625 1.7,33.3125 L2.2,33.0078125 C4.3,36.15625 7.8,38.1875 11.9,38.1875 C16,38.1875 19.4,36.15625 21.7,33.0078125 L22.2,33.3125 C22.7,33.515625 23.5,33.3125 23.7,32.8046875 C24.2,32.1953125 24,31.6875 23.5,31.1796875 Z M4,26 C4,21.8359375 7.1,18.1796875 11.2,17.671875 L11.2,22.6484375 C9.6,23.15625 8.9,24.4765625 8.9,26 C8.9,26.3046875 8.9,26.3046875 8.9,26.5078125 L4.5,29.1484375 C4,28.03125 4,27.015625 4,26 Z M12.2,34.328125 C9.6,34.328125 7.1,33.0078125 5.5,30.9765625 L9.9,28.3359375 C10.4,28.84375 11.4,29.1484375 12.2,29.1484375 C13,29.1484375 13.7,28.84375 14.5,28.3359375 L18.9,30.9765625 C17.1,33.0078125 14.8,34.328125 12.2,34.328125 Z M19.9,29.1484375 L15.5,26.5078125 C15.5,26.3046875 15.5,26 15.5,25.6953125 C15.5,24.171875 14.5,22.8515625 13.2,22.34375 L13.2,17.671875 C17.3,18.1796875 20.4,21.8359375 20.4,26 C20.4,27.015625 20.4,28.03125 19.9,29.1484375 Z" id="Shape"></path>
        </g>
    </g>
</svg>