<?xml version="1.0" encoding="UTF-8"?>
<svg width="64px" height="64px" viewBox="0 0 64 64" version="1.1" xmlns="http://www.w3.org/2000/svg" xmlns:xlink="http://www.w3.org/1999/xlink">
    <!-- Generator: Sketch 52.6 (67491) - http://www.bohemiancoding.com/sketch -->
    <title>pipe-valve-left-right</title>
    <desc>Created with Sketch.</desc>
    <g id="pipe-valve-left-right" stroke="none" stroke-width="1" fill="none" fill-rule="evenodd">
        <g id="icon-pipe-valve-left-right" transform="translate(5.000000, 20.000000)" fill="#000000" fill-rule="nonzero">
            <path d="M8.53125,7.3625498 L3.859375,7.3625498 L3.859375,4.97211155 L0,4.97211155 L0,21.8007968 L4.1640625,21.8007968 L4.1640625,19.4103586 L9.6484375,19.4103586 C8.328125,17.4023904 7.8203125,15.0119522 7.8203125,12.5258964 C7.8203125,10.8047809 8.0234375,9.08366534 8.53125,7.3625498 Z M48.140625,4.97211155 L48.140625,7.3625498 L42.1484375,7.3625498 C42.65625,9.08366534 42.859375,10.6135458 42.859375,12.5258964 C42.859375,15.0119522 42.3515625,17.4023904 41.3359375,19.4103586 L48.140625,19.4103586 L48.140625,21.8007968 L52,21.8007968 L52,4.97211155 L48.140625,4.97211155 Z M26.8125,1.24302789 C26.8125,0.573705179 26.3046875,0 25.6953125,0 C25.1875,0 24.4765625,0.573705179 24.4765625,1.05179283 L24.4765625,1.24302789 C18.1796875,1.72111554 13.5078125,6.69322709 13.5078125,12.5258964 C13.5078125,14.247012 14.015625,15.6812749 14.5234375,17.2111554 L13.8125,17.4023904 C13.3046875,17.689243 13,18.3585657 13.3046875,18.9322709 C13.5078125,19.4103586 14.3203125,19.6015936 14.828125,19.4103586 L15.640625,19.123506 C17.671875,22.0876494 21.328125,24 25.4921875,24 C29.65625,24 33.0078125,22.0876494 35.34375,19.123506 L35.8515625,19.4103586 C36.359375,19.6015936 37.171875,19.4103586 37.4765625,18.9322709 C37.6796875,18.3585657 37.4765625,17.689243 36.96875,17.4023904 L36.359375,17.2111554 C37.171875,15.6812749 37.4765625,14.247012 37.4765625,12.5258964 C37.6796875,6.69322709 32.8046875,1.72111554 26.8125,1.24302789 Z M17.1640625,12.5258964 C17.1640625,8.60557769 20.3125,5.16334661 24.4765625,4.68525896 L24.4765625,9.37051793 C23.15625,9.84860558 22.140625,11.0916335 22.140625,12.5258964 C22.140625,12.812749 22.140625,12.812749 22.140625,13.0039841 L17.671875,15.4900398 C17.46875,14.438247 17.1640625,13.4820717 17.1640625,12.5258964 Z M25.4921875,20.3665339 C22.8515625,20.3665339 20.3125,19.123506 18.6875,17.2111554 L23.15625,14.7250996 C23.6640625,15.2031873 24.6796875,15.4900398 25.4921875,15.4900398 C26.3046875,15.4900398 27.015625,15.2031873 27.828125,14.7250996 L32.1953125,17.2111554 C30.671875,19.123506 28.3359375,20.3665339 25.4921875,20.3665339 Z M33.3125,15.4900398 L28.84375,13.0039841 C28.84375,12.812749 28.84375,12.5258964 28.84375,12.2390438 C28.84375,10.8047809 27.828125,9.56175299 26.5078125,9.08366534 L26.5078125,4.68525896 C30.671875,5.16334661 33.8203125,8.60557769 33.8203125,12.5258964 C34.0234375,13.4820717 33.8203125,14.438247 33.3125,15.4900398 Z" id="Shape"></path>
        </g>
    </g>
</svg>