<?xml version="1.0" encoding="UTF-8"?>
<svg width="64px" height="64px" viewBox="0 0 64 64" version="1.1" xmlns="http://www.w3.org/2000/svg" xmlns:xlink="http://www.w3.org/1999/xlink">
    <!-- Generator: Sketch 52.6 (67491) - http://www.bohemiancoding.com/sketch -->
    <title>pipe-top-right</title>
    <desc>Created with Sketch.</desc>
    <g id="pipe-top-right" stroke="none" stroke-width="1" fill="none" fill-rule="evenodd">
        <g id="icon-pipe-top-right" transform="translate(5.000000, 6.000000)" fill="#000000">
            <path d="M3.94169096,6.21574344 L3.94169096,29.5626822 C3.94169096,32.1399417 4.69970845,34.8688047 5.45772595,37.2944606 C5.45772595,37.2944606 5.45772595,37.5976676 5.45772595,37.5976676 C5.76093294,38.3556851 6.21574344,39.5685131 6.97376093,40.3265306 C7.42857143,40.7813411 7.42857143,41.0845481 7.73177843,41.0845481 C8.18658892,41.5393586 8.48979592,42.2973761 9.24781341,42.7521866 C9.70262391,43.0553936 10.4606414,43.8134111 10.9154519,44.2682216 C11.2186589,44.5714286 11.6734694,44.5714286 11.6734694,45.0262391 C12.4314869,45.7842566 13.6443149,46.2390671 14.4023324,46.5422741 C14.4023324,46.5422741 14.7055394,46.5422741 14.7055394,46.5422741 C17.1311953,47.755102 19.8600583,48.058309 22.4373178,48.058309 L45.7842566,48.058309 L45.7842566,52 L52,52 L52,25.6209913 L46.2390671,25.6209913 L46.2390671,29.5626822 L24.8629738,29.5626822 C23.6501458,29.5626822 22.4373178,28.6530612 22.4373178,27.1370262 L22.4373178,6.21574344 L26.3790087,6.21574344 L26.3790087,0 L0,0 L0,6.21574344 L3.94169096,6.21574344 Z" id="Path"></path>
        </g>
    </g>
</svg>