<?xml version="1.0" encoding="UTF-8"?>
<svg width="64px" height="64px" viewBox="0 0 64 64" version="1.1" xmlns="http://www.w3.org/2000/svg" xmlns:xlink="http://www.w3.org/1999/xlink">
    <!-- Generator: Sketch 52.6 (67491) - http://www.bohemiancoding.com/sketch -->
    <title>pipe-left-top</title>
    <desc>Created with Sketch.</desc>
    <g id="pipe-left-top" stroke="none" stroke-width="1" fill="none" fill-rule="evenodd">
        <g id="icon-pipe-left-top" transform="translate(31.000000, 32.000000) rotate(-270.000000) translate(-31.000000, -32.000000) translate(5.000000, 6.000000)" fill="#000000">
            <path d="M47.6416185,46.2890173 L47.6416185,23.1445087 C47.6416185,20.4393064 46.8901734,17.734104 46.1387283,15.4797688 C46.1387283,15.4797688 46.1387283,15.0289017 46.1387283,15.0289017 C45.8381503,14.2774566 45.3872832,13.0751445 44.6358382,12.3236994 C44.1849711,12.0231214 44.1849711,11.5722543 43.8843931,11.5722543 C43.433526,10.8208092 43.132948,10.0693642 42.3815029,9.61849711 C41.9306358,9.31791908 41.1791908,8.56647399 40.7283237,8.11560694 C40.4277457,7.8150289 39.9768786,7.8150289 39.9768786,7.36416185 C38.9248555,6.9132948 38.0231214,6.16184971 36.9710983,5.86127168 C36.9710983,5.86127168 36.5202312,5.86127168 36.5202312,5.86127168 C34.566474,4.65895954 31.8612717,3.90751445 29.3063584,3.90751445 L6.16184971,3.90751445 L6.16184971,0 L0,0 L0,26.6011561 L5.71098266,26.6011561 L5.71098266,22.6936416 L26.9017341,22.6936416 C28.1040462,22.6936416 29.3063584,23.5953757 29.3063584,25.0982659 L29.3063584,46.2890173 L25.3988439,46.2890173 L25.3988439,52 L52,52 L52,45.8381503 L47.6416185,45.8381503 L47.6416185,46.2890173 Z" id="Path"></path>
        </g>
    </g>
</svg>