<?xml version="1.0" encoding="UTF-8"?>
<svg width="64px" height="64px" viewBox="0 0 64 64" version="1.1" xmlns="http://www.w3.org/2000/svg" xmlns:xlink="http://www.w3.org/1999/xlink">
    <!-- Generator: Sketch 52.6 (67491) - http://www.bohemiancoding.com/sketch -->
    <title>pipe-top-right-bottom</title>
    <desc>Created with Sketch.</desc>
    <g id="pipe-top-right-bottom" stroke="none" stroke-width="1" fill="none" fill-rule="evenodd">
        <g id="icon-pipe-top-right-bottom" transform="translate(13.000000, 6.000000)" fill="#000000">
            <path d="M31.734104,17.0640777 L31.734104,19.6893204 L15.7109827,19.6893204 L15.7109827,4.13980583 L18.416185,4.13980583 L18.416185,0 L0.312138728,0 L0.312138728,4.13980583 L3.01734104,4.13980583 L3.01734104,30.4932039 C3.01734104,30.9980583 2.70520231,31.8058252 2.70520231,32.3106796 L2.70520231,47.8601942 L0,47.8601942 L0,52 L18.416185,52 L18.416185,47.8601942 L15.7109827,47.8601942 L15.7109827,33.1184466 C16.0231214,32.6135922 16.5433526,32.007767 17.0635838,32.007767 L31.734104,32.007767 L31.734104,34.6330097 L36,34.6330097 L36,17.0640777 L31.734104,17.0640777 Z" id="Path"></path>
        </g>
    </g>
</svg>