<?xml version="1.0" encoding="UTF-8"?>
<svg width="64px" height="64px" viewBox="0 0 64 64" version="1.1" xmlns="http://www.w3.org/2000/svg" xmlns:xlink="http://www.w3.org/1999/xlink">
    <!-- Generator: Sketch 52.6 (67491) - http://www.bohemiancoding.com/sketch -->
    <title>playarea</title>
    <desc>Created with Sketch.</desc>
    <g id="playarea" stroke="none" stroke-width="1" fill="none" fill-rule="evenodd">
        <g id="icon-playarea" transform="translate(6.000000, 6.000000)" fill="#000000" fill-rule="nonzero">
            <path d="M0,11.9768519 C6.56074766,11.9768519 13.364486,11.9768519 19.9252336,11.9768519 C19.9252336,25.2175926 19.9252336,38.4583333 19.9252336,51.6990741 C18.7102804,51.6990741 17.1308411,51.6990741 15.9158879,51.6990741 C15.9158879,50.4953704 15.9158879,49.1712963 15.9158879,47.7268519 C12.5140187,47.7268519 9.35514019,47.7268519 5.95327103,47.7268519 C5.95327103,46.4027778 5.95327103,44.9583333 5.95327103,43.6342593 C9.35514019,43.6342593 12.5140187,43.6342593 15.9158879,43.6342593 C15.9158879,42.4305556 15.9158879,40.8657407 15.9158879,39.662037 C12.5140187,39.662037 9.35514019,39.662037 5.95327103,39.662037 C5.95327103,38.4583333 5.95327103,36.8935185 5.95327103,35.6898148 C9.35514019,35.6898148 12.5140187,35.6898148 15.9158879,35.6898148 C15.9158879,34.4861111 15.9158879,33.162037 15.9158879,31.9583333 C11.9065421,31.9583333 8.14018692,31.9583333 4.13084112,31.9583333 C4.13084112,38.4583333 4.13084112,45.1990741 4.13084112,51.6990741 C2.79439252,51.6990741 1.3364486,51.6990741 0,51.6990741 C0,38.4583333 0,25.2175926 0,11.9768519 Z M9.96261682,27.625 C13.364486,27.625 15.9158879,25.2175926 15.9158879,21.8472222 C15.9158879,18.1157407 13.1214953,15.587963 9.96261682,15.587963 C6.56074766,15.587963 4.13084112,18.1157407 4.13084112,21.4861111 C4.13084112,25.2175926 6.56074766,27.9861111 9.96261682,27.625 Z M48.2336449,51.6990741 C48.2336449,51.6990741 47.9906542,51.6990741 47.9906542,51.6990741 C45.8037383,51.6990741 43.2523364,51.337963 41.0654206,50.7361111 C38.8785047,50.1342593 37.0560748,49.5324074 35.2336449,48.3287037 C33.8971963,47.3657407 33.046729,46.162037 32.0747664,44.9583333 C31.1028037,43.6342593 30.2523364,42.4305556 29.2803738,41.2268519 C27.7009346,39.662037 25.8785047,38.6990741 23.6915888,38.4583333 C23.0841121,38.4583333 22.7196262,38.0972222 22.1121495,38.0972222 C22.1121495,34.7268519 22.1121495,31.3564815 22.1121495,27.625 C22.7196262,27.625 23.6915888,27.625 24.2990654,27.625 C25.5140187,27.9861111 26.8504673,27.9861111 27.7009346,28.587963 C29.8878505,29.1898148 31.8317757,30.3935185 33.046729,32.3194444 C34.6261682,34.125 35.4766355,35.9305556 36.6915888,37.8564815 C37.6635514,39.662037 38.8785047,41.2268519 40.4579439,42.7916667 C42.0373832,43.9953704 43.6168224,44.9583333 45.8037383,45.1990741 C46.411215,45.1990741 47.3831776,45.5601852 48.2336449,45.5601852 C50.1775701,45.5601852 51.3925234,46.4027778 52,48.3287037 C52,48.3287037 52,48.3287037 52,48.5694444 C52,49.8935185 52,50.7361111 52,51.9398148 C50.7850467,51.6990741 49.4485981,51.6990741 48.2336449,51.6990741 Z M0,9.81018519 C0,9.81018519 0.364485981,9.44907407 0.364485981,9.44907407 C3.52336449,6.43981481 6.56074766,3.31018519 9.35514019,0.180555556 C9.71962617,-0.0601851852 9.96261682,-0.0601851852 10.3271028,0.180555556 C13.364486,3.31018519 16.5233645,6.43981481 19.682243,9.44907407 C19.682243,9.44907407 19.9252336,9.81018519 19.9252336,9.81018519 C19.9252336,9.81018519 19.9252336,9.81018519 19.9252336,10.0509259 C13.364486,10.0509259 6.56074766,10.0509259 0,9.81018519 C0,10.0509259 0,9.81018519 0,9.81018519 Z" id="Shape"></path>
        </g>
    </g>
</svg>