<?xml version="1.0" encoding="UTF-8"?>
<svg width="64px" height="64px" viewBox="0 0 64 64" version="1.1" xmlns="http://www.w3.org/2000/svg" xmlns:xlink="http://www.w3.org/1999/xlink">
    <title>poo</title>
    <g id="poo" stroke="none" stroke-width="1" fill="none" fill-rule="evenodd">
        <path d="M48.2835821,44.1058345 C51.9929573,44.1058345 55,47.2161494 55,51.0529172 C55,54.8896851 51.9929573,58 48.2835821,58 L16.7164179,58 C13.0070427,58 10,54.8896851 10,51.0529172 C10,47.2161494 12.3885363,45.0100795 16.0979115,45.0100795 L16.2271027,44.9821847 L16.2271027,44.9821847 L16.5178988,44.929677 L16.5178988,44.929677 L16.851913,44.8815448 L16.851913,44.8815448 L17.2291455,44.8377884 L17.2291455,44.8377884 L17.6495961,44.7984075 L17.6495961,44.7984075 L18.113265,44.7634024 L18.113265,44.7634024 L18.6201521,44.7327728 L18.6201521,44.7327728 L19.1702573,44.7065189 L19.1702573,44.7065189 L19.7635808,44.6846407 L19.7635808,44.6846407 L20.7346001,44.6600277 L20.7346001,44.6600277 L21.8028604,44.6452599 L21.8028604,44.6452599 L22.5690566,44.6408842 C22.7003575,44.6405196 22.8334592,44.6403373 22.9683616,44.6403373 C25.0409532,44.6403373 26.5754214,45.0050194 28.0539984,45.4535662 L28.7342059,45.6655202 L28.7342059,45.6655202 L29.7626819,45.9923611 C31.5014356,46.5364195 33.4127105,47.0483363 36.2373047,47.0967242 C37.3895311,47.1164629 38.9270407,46.8922671 40.8498336,46.4241369 L41.5889411,46.2371536 C41.8413303,46.1710144 42.0997396,46.1010637 42.3641689,46.0273015 L43.175517,45.7945805 C43.3137517,45.753888 43.4534915,45.7122425 43.5947362,45.6696442 L44.4602648,45.40262 C44.6075296,45.3562102 44.7562994,45.3088476 44.9065742,45.2605321 L45.8262832,44.9592045 L45.8262832,44.9592045 L46.7821125,44.6350081 L46.7821125,44.6350081 L47.7740622,44.2879429 C47.9423971,44.228193 48.1122371,44.1674901 48.2835821,44.1058345 Z M46.3918035,34.8157651 C48.0504434,36.9414793 47.7785592,40.3852461 46.0342209,41.9834129 C45.2016762,42.7461923 43.6311769,43.2385323 41.3291676,43.5219424 L40.7120538,43.5911764 L40.7120538,43.5911764 L40.0617779,43.6511743 L40.0617779,43.6511743 L39.3783652,43.7021786 L39.3783652,43.7021786 L38.6618412,43.7444321 L38.6618412,43.7444321 L37.9122313,43.7781773 L37.9122313,43.7781773 L37.1295609,43.803657 L37.1295609,43.803657 L36.3138554,43.8211137 L36.3138554,43.8211137 L35.4651403,43.8307903 L35.4651403,43.8307903 L34.1302302,43.8312479 L34.1302302,43.8312479 L33.1991022,43.8225355 C33.0411701,43.8204991 32.8818664,43.8181739 32.7211914,43.815565 C29.9129663,43.7699673 27.4740158,43.4874912 25.397557,43.1310102 L24.5862903,42.984857 L24.5862903,42.984857 L23.8135929,42.8331264 L23.8135929,42.8331264 L23.0793683,42.6781348 L23.0793683,42.6781348 L22.3835201,42.5221986 L22.3835201,42.5221986 L21.4114925,42.2915904 L21.4114925,42.2915904 L19.3192057,41.7708807 L19.3192057,41.7708807 L18.7597092,41.6388631 L18.7597092,41.6388631 L18.2582263,41.5324085 C16.6247632,41.2137066 15.7066608,40.261176 15.5039192,38.6748168 C15.4144269,35.4312169 16.8730809,34.2934562 18.2898189,33.8966606 L18.531981,33.8356423 L18.531981,33.8356423 L18.7715417,33.7876128 C18.8111528,33.7806054 18.8505814,33.7740755 18.8897903,33.7679914 L19.1221113,33.7365801 C19.1602933,33.7321514 19.1981814,33.7281047 19.2357387,33.7244083 C19.4779829,33.700566 19.7914955,33.7245939 20.1678831,33.7836405 L20.5649182,33.8538841 C20.6344802,33.8673782 20.7057109,33.881726 20.7785716,33.8968681 L21.2349845,33.9967757 L21.2349845,33.9967757 L21.7286512,34.1128894 L21.7286512,34.1128894 L24.0385514,34.6822893 L24.0385514,34.6822893 L24.690509,34.8365963 L24.690509,34.8365963 L25.3685292,34.9899742 C25.4836009,35.0153012 25.5996808,35.0404704 25.71673,35.0654224 L26.430347,35.2120523 C26.6718896,35.2597428 26.9169988,35.3060885 27.1653637,35.3506135 L27.919915,35.4782504 C28.9381773,35.6398807 30.0035579,35.7647635 31.0961615,35.8224365 C34.7381736,36.0146797 37.4872772,35.3697673 39.3434725,33.8876992 C42.1094969,32.0292513 44.4589406,32.3386065 46.3918035,34.8157651 Z M31.1623535,18 C32.1096821,18 33.6569222,18.560434 35.2890006,19.5237748 L35.7571723,19.8098424 C38.7312444,21.6893155 41.8224858,24.8389331 41.9790556,28.3253373 L41.984547,28.6197815 L41.984547,28.6197815 L41.9725034,28.7141032 L41.9725034,28.7141032 L41.9422297,28.8615691 L41.9422297,28.8615691 L41.8893671,29.0557472 L41.8893671,29.0557472 L41.8394233,29.2079742 L41.8394233,29.2079742 L41.7762112,29.376198 L41.7762112,29.376198 L41.6984392,29.5585126 L41.6984392,29.5585126 L41.6048157,29.7530124 L41.6048157,29.7530124 L41.4940493,29.9577916 C41.4740879,29.9926722 41.4533584,30.0279017 41.4318339,30.0634404 L41.2929314,30.2800655 C40.3996926,31.598267 38.4063771,33.2142825 34.0576172,33.2757317 C31.4358733,33.3127778 28.2797046,33.0954391 24.5891113,32.6237158 C22.1097819,32.4361772 20.8701172,31.2536061 20.8701172,29.0760023 C20.8701172,25.8873682 23.5524794,24.237927 26.7605107,24.1611898 L26.9961515,24.1583821 C28.6015961,24.1583821 30.5626347,23.6572203 30.6800113,21.41209 L30.6855469,21.1964618 L30.6855469,19.7155017 C30.6855469,19.598661 30.678357,19.4801931 30.6684488,19.3629475 L30.6249171,18.9072376 C30.5819468,18.3989408 30.6096145,18 31.1623535,18 Z M45.0543031,6.18593532 C47.7197001,6.99572004 48.9150286,10.0050051 48.2819658,12.7416731 C48.2581504,12.844625 48.2319204,12.946443 48.2033457,13.04702 C48.3039226,13.0184453 48.4057406,12.9922153 48.5086925,12.9683998 C51.2453605,12.335337 54.2546456,13.5306655 55.0644303,16.1960625 C55.874215,18.8614595 53.9387616,21.2006353 51.2020935,21.8336981 C49.1563692,22.3069276 46.9583087,21.758467 45.6405404,20.3379916 C44.5390966,20.5455175 43.2018768,20.1008582 42.1756922,19.0746735 C41.1493996,18.048381 40.7047547,16.710988 40.9126135,15.609678 C39.4919579,14.2922947 38.9434125,12.0941071 39.4166676,10.0482721 C40.0497304,7.31160408 42.3889061,5.37615061 45.0543031,6.18593532 Z M25.1366559,10.0482721 C25.6098853,12.0939964 25.0614248,14.2920569 23.6409494,15.6098251 C23.8484753,16.711269 23.403816,18.0484887 22.3776313,19.0746734 C21.3513388,20.1009659 20.0139458,20.5456109 18.9126359,20.3377521 C17.5952526,21.7584076 15.397065,22.306953 13.35123,21.833698 C10.614562,21.2006351 8.67910852,18.8614594 9.48889323,16.1960625 C10.2986779,13.5306655 13.307963,12.335337 16.044631,12.9683998 C16.1475829,12.9922152 16.2494009,13.0184452 16.3499778,13.0470199 C16.3214031,12.946443 16.2951731,12.844625 16.2713577,12.7416731 C15.6382949,10.0050051 16.8336234,6.99572003 19.4990204,6.18593532 C22.1644173,5.37615061 24.5035931,7.31160407 25.1366559,10.0482721 Z M49.2269328,15.3324794 C48.392865,15.525421 47.7178382,15.9515179 47.3123347,16.4772417 C47.6462119,17.2884199 47.69691,18.1302059 47.4427765,18.8312449 C48.1087649,19.4663325 49.2903864,19.7456986 50.4838533,19.4696185 C52.0821154,19.0998987 53.0963916,17.8740515 52.7493026,16.731612 C52.4022136,15.5891726 50.8251949,14.9627596 49.2269328,15.3324794 Z M11.8040209,16.731612 C11.4569319,17.8740514 12.4712081,19.0998986 14.0694703,19.4696184 C15.2629371,19.7456985 16.4445586,19.4663324 17.1110651,18.8314256 C16.8564135,18.1302058 16.9071116,17.2884199 17.2404753,16.4770641 C16.8354853,15.9515178 16.1604585,15.525421 15.3263907,15.3324793 C13.7281286,14.9627595 12.1511099,15.5891725 11.8040209,16.731612 Z M20.0345699,8.501063 C18.8921304,8.848152 18.2657174,10.4251707 18.6354372,12.0234328 C18.8283789,12.8575006 19.2544757,13.5325274 19.7801995,13.9380308 C20.5913778,13.6041537 21.4331637,13.5534556 22.1342027,13.8075891 C22.7692903,13.1416007 23.0486564,11.9599792 22.7725763,10.7665124 C22.4028566,9.16825022 21.1770093,8.15397399 20.0345699,8.501063 Z M41.7807471,10.7665124 C41.504667,11.9599793 41.7840331,13.1416007 42.4189399,13.8081073 C43.1201598,13.5534556 43.9619457,13.6041538 44.7733014,13.9375174 C45.2988478,13.5325274 45.7249446,12.8575006 45.9178863,12.0234329 C46.2876061,10.4251707 45.661193,8.84815202 44.5187536,8.50106301 C43.3763142,8.15397401 42.1504669,9.16825024 41.7807471,10.7665124 Z" id="Shape" fill="#000000"></path>
    </g>
</svg>