<?xml version="1.0" encoding="UTF-8"?>
<svg width="64px" height="64px" viewBox="0 0 64 64" version="1.1" xmlns="http://www.w3.org/2000/svg" xmlns:xlink="http://www.w3.org/1999/xlink">
    <!-- Generator: Sketch 55.2 (78181) - https://sketchapp.com -->
    <title>qr-code</title>
    <desc>Created with Sketch.</desc>
    <g id="qr-code" stroke="none" stroke-width="1" fill="none" fill-rule="evenodd">
        <path d="M58,58 L28,58 L28,50 L40,50 L40,40 L52,40 L52,46 L58,46 L58,58 Z M6,6 L24,6 L24,24 L6,24 L6,6 Z M9,9 L9,21 L21,21 L21,9 L9,9 Z M12,12 L18,12 L18,18 L12,18 L12,12 Z M6,40 L24,40 L24,58 L6,58 L6,40 Z M9,43 L9,55 L21,55 L21,43 L9,43 Z M12,46 L18,46 L18,52 L12,52 L12,46 Z M46,52 L46,58 L52,58 L52,52 L46,52 Z M40,6 L58,6 L58,24 L40,24 L40,6 Z M43,9 L43,21 L55,21 L55,9 L43,9 Z M46,12 L52,12 L52,18 L46,18 L46,12 Z M28,36 L18,36 L18,28 L28,28 L28,6 L36,6 L36,44 L28,44 L28,36 Z M6,28 L14,28 L14,36 L6,36 L6,28 Z M40,28 L58,28 L58,36 L40,36 L40,28 Z" fill="#000000"></path>
    </g>
</svg>