<?xml version="1.0" encoding="UTF-8"?>
<svg width="64px" height="64px" viewBox="0 0 64 64" version="1.1" xmlns="http://www.w3.org/2000/svg" xmlns:xlink="http://www.w3.org/1999/xlink">
    <!-- Generator: Sketch 52.6 (67491) - http://www.bohemiancoding.com/sketch -->
    <title>rail-hand</title>
    <desc>Created with Sketch.</desc>
    <g id="rail-hand" stroke="none" stroke-width="1" fill="none" fill-rule="evenodd">
        <g id="icon-rail-hand" transform="translate(6.000000, 12.000000)" fill="#000000">
            <path d="M41.1138211,35.978836 L40.5853659,40 L52,40 L50.9430894,35.978836 L48.4065041,35.978836 L48.4065041,10.4761905 C48.4065041,10.4761905 48.4065041,10.2645503 48.4065041,10.2645503 C48.4065041,4.55026455 43.8617886,0.211640212 38.1544715,0 L11.097561,0 C6.23577236,0.211640212 2.43089431,4.55026455 2.43089431,10.2645503 C2.43089431,10.2645503 2.2195122,10.4761905 2.2195122,10.4761905 C2.2195122,10.4761905 2.2195122,10.7936508 2.43089431,10.7936508 L2.43089431,35.978836 L0.528455285,35.978836 L0,40 L11.4146341,40 L10.3577236,35.978836 L8.66666667,35.978836 L8.66666667,10.4761905 C8.98373984,8.04232804 10.3577236,6.13756614 11.9430894,5.3968254 L11.9430894,4.86772487 L38.4715447,4.86772487 C40.5853659,5.07936508 42.4878049,7.3015873 42.804878,10.2645503 C42.804878,10.2645503 42.804878,10.4761905 43.0162602,10.4761905 L43.0162602,35.6613757 L41.1138211,35.6613757 L41.1138211,35.978836 Z" id="Path"></path>
        </g>
    </g>
</svg>