<?xml version="1.0" encoding="UTF-8"?>
<svg width="64px" height="64px" viewBox="0 0 64 64" version="1.1" xmlns="http://www.w3.org/2000/svg" xmlns:xlink="http://www.w3.org/1999/xlink">
    <!-- Generator: Sketch 53.2 (72643) - https://sketchapp.com -->
    <title>reports</title>
    <desc>Created with Sketch.</desc>
    <g id="reports" stroke="none" stroke-width="1" fill="none" fill-rule="evenodd">
        <path d="M57.0167236,58 L43.1486477,58 L35.8624069,45.1270628 C34.0084152,45.6946125 32.0398711,46 30,46 L30,34 C34.418278,34 38,30.418278 38,26 C38,21.581722 34.418278,18 30,18 L30,6 C41.045695,6 50,14.954305 50,26 C50,30.6368011 48.4220882,34.9050611 45.7739386,38.2971061 L57.0167236,58 Z M12,53 L16.8840717,53 L16.8840717,51 L12,51 L12,49 L16.8840717,49 L16.8840717,47 L12,47 L12,45 L20.8840717,45 L20.8840717,43 L12,43 L12,41 L16.8840717,41 L16.8840717,39 L12,39 L12,37 L16.8840717,37 L16.8840717,35 L12,35 L12,33 L20.8840717,33 L20.8840717,31 L12,31 L12,29 L16.8840717,29 L16.8840717,27 L12,27 L12,25 L16.8840717,25 L16.8840717,23 L12,23 L12,21 L20.8840717,21 L20.8840717,19 L12,19 L12,17 L16.8840717,17 L16.8840717,15 L12,15 L12,13 L16.8840717,13 L16.8840717,11 L12,11 L12,6 L24,6 L24,58 L12,58 L12,53 Z" id="Combined-Shape" fill="#000000" fill-rule="nonzero"></path>
    </g>
</svg>