<?xml version="1.0" encoding="UTF-8"?>
<svg width="64px" height="64px" viewBox="0 0 64 64" version="1.1" xmlns="http://www.w3.org/2000/svg" xmlns:xlink="http://www.w3.org/1999/xlink">
    <!-- Generator: Sketch 52.6 (67491) - http://www.bohemiancoding.com/sketch -->
    <title>reports</title>
    <desc>Created with Sketch.</desc>
    <g id="reports" stroke="none" stroke-width="1" fill="none" fill-rule="evenodd">
        <path d="M54.0167236,58 L40.1486477,58 L32.8624069,45.1270628 C31.0084152,45.6946125 29.0398711,46 27,46 L27,34 C31.418278,34 35,30.418278 35,26 C35,21.581722 31.418278,18 27,18 L27,6 C38.045695,6 47,14.954305 47,26 C47,30.6368011 45.4220882,34.9050611 42.7739386,38.2971061 L54.0167236,58 Z M9,53 L13.8840717,53 L13.8840717,51 L9,51 L9,49 L13.8840717,49 L13.8840717,47 L9,47 L9,45 L17.8840717,45 L17.8840717,43 L9,43 L9,41 L13.8840717,41 L13.8840717,39 L9,39 L9,37 L13.8840717,37 L13.8840717,35 L9,35 L9,33 L17.8840717,33 L17.8840717,31 L9,31 L9,29 L13.8840717,29 L13.8840717,27 L9,27 L9,25 L13.8840717,25 L13.8840717,23 L9,23 L9,21 L17.8840717,21 L17.8840717,19 L9,19 L9,17 L13.8840717,17 L13.8840717,15 L9,15 L9,13 L13.8840717,13 L13.8840717,11 L9,11 L9,6 L21,6 L21,58 L9,58 L9,53 Z" id="Combined-Shape" fill="#000000" fill-rule="nonzero"></path>
    </g>
</svg>