<?xml version="1.0" encoding="UTF-8"?>
<svg width="64px" height="64px" viewBox="0 0 64 64" version="1.1" xmlns="http://www.w3.org/2000/svg" xmlns:xlink="http://www.w3.org/1999/xlink">
    <!-- Generator: Sketch 52.6 (67491) - http://www.bohemiancoding.com/sketch -->
    <title>resource-gauge</title>
    <desc>Created with Sketch.</desc>
    <g id="resource-gauge" stroke="none" stroke-width="1" fill="none" fill-rule="evenodd">
        <g id="icon-resource-gauge" transform="translate(6.000000, 16.000000)" fill="#000000" fill-rule="nonzero">
            <path d="M20.9009709,25.7725948 C19.0834951,28.845481 20.3961165,31.3236152 22.7184466,32.6122449 C25.3436893,34.1982507 27.8679612,33.9008746 29.6854369,30.8279883 C31.5029126,27.8542274 42.6097087,0.693877551 41.9029126,0.0991253644 C41.0951456,-0.396501458 22.7184466,22.6997085 20.9009709,25.7725948 Z M25.8485437,6.44314869 C26.8582524,6.44314869 28.1708738,6.44314869 29.1805825,6.74052478 C30.2912621,5.45189504 31.5029126,3.66763848 32.815534,2.47813411 C30.4932039,1.88338192 28.1708738,1.3877551 25.8485437,1.3877551 C11.4097087,1.3877551 0,13.5801749 0,28.845481 C0,29.8367347 0,30.6297376 0,31.6209913 C0,33.1078717 1.31262136,34.1982507 2.82718447,33.9008746 C4.44271845,33.6034985 5.45242718,32.6122449 5.14951456,31.1253644 C5.14951456,30.3323615 5.14951456,29.5393586 5.14951456,28.845481 C5.14951456,16.3556851 14.2368932,6.44314869 25.8485437,6.44314869 Z M44.4271845,9.81341108 C43.7203883,11.7959184 42.9126214,13.5801749 42.407767,15.3644315 C44.9320388,19.1311953 46.5475728,23.7900875 46.5475728,28.845481 C46.5475728,29.5393586 46.5475728,30.3323615 46.5475728,31.1253644 C46.5475728,32.6122449 47.5572816,33.6034985 48.8699029,33.9008746 C48.8699029,33.9008746 49.0718447,33.9008746 49.0718447,33.9008746 C50.384466,33.9008746 51.3941748,32.909621 51.6970874,31.6209913 C51.6970874,30.6297376 52,29.8367347 52,28.845481 C51.6970874,21.5102041 48.8699029,14.5714286 44.4271845,9.81341108 Z" id="Shape"></path>
        </g>
    </g>
</svg>