<?xml version="1.0" encoding="UTF-8"?>
<svg width="64px" height="64px" viewBox="0 0 64 64" version="1.1" xmlns="http://www.w3.org/2000/svg" xmlns:xlink="http://www.w3.org/1999/xlink">
    <!-- Generator: Sketch 52.6 (67491) - http://www.bohemiancoding.com/sketch -->
    <title>resource-road-cone</title>
    <desc>Created with Sketch.</desc>
    <g id="resource-road-cone" stroke="none" stroke-width="1" fill="none" fill-rule="evenodd">
        <g id="icon-resource-road-cone" transform="translate(6.000000, 9.000000)" fill="#000000" fill-rule="nonzero">
            <path d="M25.9491194,29.515528 C32.4618395,29.515528 37.9569472,27.5279503 38.1604697,24.447205 C37.1428571,21.9627329 36.1252446,18.8819876 35.1076321,16.0993789 C34.2935421,18.0869565 30.4266145,19.5776398 25.9491194,19.5776398 C21.4716243,19.5776398 17.4011742,18.0869565 16.7906067,16.0993789 C15.7729941,18.8819876 14.7553816,21.9627329 13.7377691,24.447205 C13.9412916,27.2298137 19.4363992,29.515528 25.9491194,29.515528 Z M25.9491194,11.7267081 C29.1037182,11.7267081 31.9530333,10.7329193 32.7671233,9.44099379 C31.6477495,6.36024845 30.630137,3.57763975 29.816047,1.78881988 C29.3072407,0.795031056 27.4755382,0 25.9491194,0 C24.4227006,0 22.2857143,0.49689441 22.0821918,1.78881988 C21.2681018,3.57763975 20.4540117,6.16149068 19.1311155,9.44099379 C19.9452055,10.7329193 22.7945205,11.7267081 25.9491194,11.7267081 Z M49.6594912,32.0993789 L39.4833659,28.0248447 L40.8062622,31.3043478 C40.8062622,34.6832298 33.9882583,37.4658385 25.9491194,37.4658385 C17.9099804,37.4658385 11.0919765,34.6832298 11.0919765,31.3043478 L12.4148728,28.0248447 L2.23874755,32.0993789 C-0.610567515,33.0931677 -0.610567515,35.378882 1.9334638,36.6708075 L20.962818,46.8074534 C23.6086106,48.3975155 27.9843444,48.3975155 30.9354207,46.8074534 L50.1682975,36.9689441 C52.81409,35.378882 52.5088063,33.0931677 49.6594912,32.0993789 Z" id="Shape"></path>
        </g>
    </g>
</svg>