<?xml version="1.0" encoding="UTF-8"?>
<svg width="64px" height="64px" viewBox="0 0 64 64" version="1.1" xmlns="http://www.w3.org/2000/svg" xmlns:xlink="http://www.w3.org/1999/xlink">
    <!-- Generator: Sketch 52.6 (67491) - http://www.bohemiancoding.com/sketch -->
    <title>resource-telephone</title>
    <desc>Created with Sketch.</desc>
    <g id="resource-telephone" stroke="none" stroke-width="1" fill="none" fill-rule="evenodd">
        <g id="icon-resource-telephone" transform="translate(12.000000, 7.000000)" fill="#000000" fill-rule="nonzero">
            <path d="M0,14.4695652 C0,15.826087 0.348837209,17.0695652 0.348837209,18.2 C0.348837209,18.2 0.348837209,19.3304348 0.697674419,19.8956522 C0.697674419,20.4608696 0.930232558,20.8 0.930232558,21.3652174 C0.930232558,21.9304348 1.27906977,22.2695652 1.27906977,22.8347826 C1.27906977,23.0608696 1.27906977,23.4 1.51162791,23.7391304 C1.86046512,24.8695652 2.09302326,25.6608696 2.44186047,26.5652174 C2.79069767,27.1304348 2.79069767,28.0347826 3.02325581,28.6 C3.37209302,29.1652174 3.60465116,30.0695652 3.95348837,30.6347826 C3.95348837,30.6347826 3.95348837,30.973913 4.18604651,30.973913 C4.18604651,30.973913 4.18604651,31.2 4.18604651,31.2 C4.76744186,32.1043478 5.11627907,32.8956522 5.69767442,34.1391304 C6.04651163,34.7043478 6.27906977,34.9304348 6.62790698,35.4956522 C6.86046512,35.8347826 7.20930233,36.4 7.44186047,36.7391304 C7.79069767,36.7391304 8.13953488,37.3043478 8.37209302,37.5304348 C8.95348837,38.2086957 9.53488372,39 9.88372093,39.5652174 C10.2325581,39.9043478 10.8139535,40.4695652 11.0465116,41.0347826 C11.3953488,41.373913 11.627907,41.9391304 12.2093023,42.1652174 C12.2093023,42.1652174 12.5581395,42.5043478 12.9069767,42.7304348 C13.1395349,43.0695652 13.7209302,43.4086957 14.0697674,43.973913 C14.6511628,44.2 14.8837209,44.7652174 15.5813953,45.1043478 C15.8139535,45.4434783 16.1627907,46.0086957 16.744186,46.2347826 C17.3255814,46.573913 17.6744186,46.8 18.255814,47.1391304 C18.8372093,47.7043478 19.4186047,48.2695652 20.3488372,48.6086957 C21.1627907,49.173913 22.3255814,49.7391304 23.255814,50.3043478 C23.6046512,50.6434783 23.8372093,50.3043478 24.1860465,50.6434783 C24.4186047,50.8695652 24.4186047,50.8695652 24.7674419,50.8695652 C24.7674419,50.8695652 25.1162791,50.8695652 25.1162791,50.8695652 C25.9302326,51.4347826 26.8604651,51.4347826 27.7906977,51.773913 C28.6046512,52 29.7674419,52 30.6976744,51.773913 C31.0465116,51.773913 31.2790698,51.4347826 31.627907,51.4347826 C32.2093023,51.4347826 32.7906977,50.8695652 33.372093,50.8695652 C33.7209302,50.3043478 34.3023256,50.3043478 34.8837209,49.9652174 C35.4651163,49.7391304 36.0465116,49.173913 36.3953488,48.8347826 C36.627907,48.6086957 36.9767442,48.2695652 37.5581395,48.0434783 C37.9069767,47.7043478 37.9069767,47.3652174 38.1395349,47.1391304 C38.4883721,46.8 38.4883721,46.573913 38.1395349,46.573913 C37.5581395,46.2347826 36.9767442,45.6695652 36.0465116,45.4434783 C35.2325581,45.1043478 34.5348837,44.5391304 33.9534884,43.973913 C33.1395349,43.4086957 31.8604651,42.7304348 31.0465116,42.1652174 C30.4651163,41.9391304 29.7674419,41.6 29.1860465,41.0347826 C28.6046512,40.8086957 28.0232558,40.4695652 27.7906977,40.1304348 C27.4418605,39.9043478 26.8604651,39.9043478 26.5116279,39.5652174 C26.5116279,39.5652174 25.9302326,39.5652174 25.9302326,39.5652174 C25.6976744,39.9043478 25.3488372,39.9043478 24.7674419,40.1304348 C23.8372093,40.8086957 23.0232558,40.8086957 21.744186,40.4695652 C21.1627907,40.1304348 20.9302326,40.1304348 20.3488372,39.9043478 C19.4186047,39.3391304 18.8372093,38.773913 18.255814,37.8695652 C17.9069767,37.3043478 17.6744186,36.7391304 17.3255814,36.4 C16.744186,35.4956522 16.3953488,34.7043478 15.8139535,33.8 C15.5813953,33.2347826 15.2325581,32.6695652 14.6511628,32.1043478 C14.3023256,30.6347826 14.0697674,29.7304348 13.4883721,28.9391304 C13.1395349,28.2608696 12.9069767,28.0347826 12.5581395,27.4695652 C11.9767442,26.5652174 11.627907,25.6608696 11.0465116,24.8695652 C11.0465116,24.5304348 10.8139535,23.9652174 10.4651163,23.4 C9.88372093,22.4956522 9.30232558,21.7043478 8.95348837,20.4608696 C8.37209302,19.6695652 8.37209302,18.426087 8.72093023,17.2956522 C8.72093023,17.0695652 8.95348837,16.7304348 9.30232558,16.5043478 C9.88372093,15.6 10.2325581,15.0347826 11.0465116,14.6956522 C11.3953488,14.6956522 11.3953488,14.4695652 11.3953488,14.1304348 C11.3953488,9.83478261 11.3953488,5.42608696 11.3953488,0.791304348 C11.3953488,0.565217391 11.3953488,0.226086957 10.8139535,0.565217391 C10.4651163,0.565217391 10.2325581,0.565217391 9.53488372,0.791304348 C9.30232558,0.791304348 8.72093023,0.791304348 8.37209302,1.13043478 C8.13953488,1.13043478 7.44186047,1.13043478 7.20930233,1.35652174 C7.20930233,1.35652174 6.86046512,1.69565217 6.86046512,1.69565217 C6.27906977,1.69565217 6.04651163,2.03478261 5.46511628,2.26086957 C5.11627907,2.26086957 4.76744186,2.26086957 4.53488372,2.6 C3.95348837,3.16521739 3.37209302,3.39130435 3.02325581,3.73043478 C2.79069767,4.29565217 2.09302326,4.29565217 2.09302326,4.86086957 C1.86046512,5.42608696 1.27906977,5.99130435 0.930232558,6.89565217 C0.697674419,7.8 0.348837209,8.59130435 0.348837209,9.83478261 C0.348837209,10.0608696 0.348837209,10.4 0.348837209,10.4 C0.348837209,10.4 0.348837209,10.626087 0.348837209,10.626087 C0.348837209,12.0956522 0.348837209,13.226087 0.348837209,14.6956522 C0,14.6956522 0,14.6956522 0,14.4695652 Z M40,42.5043478 C40,42.1652174 40,42.1652174 40,42.1652174 C40,41.9391304 40,41.6 40,41.373913 C39.6511628,41.0347826 39.0697674,40.8086957 38.7209302,40.4695652 C37.9069767,40.1304348 37.2093023,39.5652174 36.627907,39.3391304 C36.0465116,39 35.8139535,38.773913 35.2325581,38.4347826 C34.5348837,38.2086957 33.9534884,37.8695652 33.372093,37.3043478 C33.1395349,36.9652174 32.5581395,36.7391304 32.2093023,36.7391304 C31.8604651,36.4 31.2790698,36.173913 30.6976744,35.8347826 C30.4651163,35.4956522 30.1162791,35.4956522 29.7674419,35.8347826 C29.7674419,35.8347826 29.5348837,35.8347826 29.5348837,36.173913 C29.1860465,36.4 28.6046512,36.7391304 28.372093,36.7391304 C28.0232558,36.9652174 27.7906977,37.3043478 27.0930233,37.3043478 C26.8604651,37.3043478 26.8604651,37.5304348 26.5116279,37.8695652 C26.5116279,37.8695652 26.8604651,38.2086957 26.8604651,38.2086957 C27.4418605,38.2086957 28.0232558,38.773913 28.6046512,39.3391304 C29.1860465,39.5652174 29.7674419,40.1304348 30.4651163,40.4695652 C31.2790698,41.0347826 32.2093023,41.6 33.1395349,41.9391304 C33.9534884,42.1652174 34.5348837,42.7304348 35.2325581,43.4086957 C35.4651163,43.6347826 35.8139535,43.6347826 36.0465116,43.973913 C36.3953488,43.973913 36.627907,44.5391304 37.2093023,44.5391304 C37.9069767,44.7652174 38.1395349,45.1043478 38.7209302,45.4434783 C39.0697674,45.4434783 39.0697674,45.6695652 39.0697674,45.1043478 C39.0697674,44.7652174 39.0697674,44.7652174 39.0697674,44.5391304 C39.6511628,43.973913 40,43.4086957 40,42.5043478 Z M13.1395349,7.23478261 C13.1395349,9.49565217 13.1395349,11.5304348 13.1395349,13.7913043 C13.1395349,14.1304348 13.1395349,14.4695652 13.4883721,14.1304348 C14.0697674,14.1304348 14.3023256,13.7913043 14.8837209,13.5652174 C15.5813953,13.226087 16.1627907,13.226087 16.3953488,13 C16.3953488,13 16.3953488,13 16.744186,13 C17.3255814,13 17.3255814,12.6608696 17.3255814,12.0956522 C17.3255814,9.26956522 17.3255814,6.33043478 17.3255814,3.39130435 C17.3255814,2.82608696 17.3255814,2.6 17.3255814,2.03478261 C17.3255814,1.69565217 17.3255814,1.69565217 16.9767442,1.69565217 C16.744186,1.69565217 16.3953488,1.35652174 16.1627907,1.35652174 C15.5813953,1.13043478 14.8837209,0.791304348 14.3023256,0.565217391 C14.0697674,0.226086957 13.7209302,0.226086957 13.4883721,0 C13.4883721,0 13.4883721,0 13.4883721,0.226086957 C13.4883721,0.565217391 13.4883721,0.791304348 13.4883721,1.13043478 C13.1395349,3.16521739 13.1395349,5.2 13.1395349,7.23478261 Z M23.8372093,50.6434783 C23.6046512,50.6434783 23.6046512,50.6434783 23.8372093,50.6434783 C23.6046512,50.8695652 23.6046512,50.8695652 23.8372093,50.6434783 C23.8372093,50.8695652 23.8372093,50.8695652 23.8372093,50.6434783 Z" id="Shape"></path>
        </g>
    </g>
</svg>