<?xml version="1.0" encoding="UTF-8"?>
<svg width="64px" height="64px" viewBox="0 0 64 64" version="1.1" xmlns="http://www.w3.org/2000/svg" xmlns:xlink="http://www.w3.org/1999/xlink">
    <!-- Generator: Sketch 52.6 (67491) - http://www.bohemiancoding.com/sketch -->
    <title>resource-camera-safety</title>
    <desc>Created with Sketch.</desc>
    <g id="resource-camera-safety" stroke="none" stroke-width="1" fill="none" fill-rule="evenodd">
        <g id="icon-resource-camera-safety" transform="translate(6.000000, 14.000000)" fill="#000000" fill-rule="nonzero">
            <path d="M32.3127572,19 C32.3127572,23.2802198 32.3127572,27.2472527 32.3127572,31.5274725 C32.3127572,35.2857143 29.5308642,38 25.6790123,38 C19.3662551,38 12.8395062,38 6.52674897,38 C2.67489712,38 0,35.2857143 0,31.5274725 C0,22.967033 0,14.7197802 0,6.15934066 C0,2.71428571 2.67489712,0 6.52674897,0 C12.8395062,0 19.3662551,0 25.6790123,0 C29.5308642,0 32.3127572,2.71428571 32.3127572,6.47252747 C32.3127572,10.7527473 32.3127572,14.7197802 32.3127572,19 Z M13.0534979,34.4505495 C17.7613169,34.4505495 21.6131687,30.7967033 21.6131687,26.2032967 C21.6131687,21.7142857 17.7613169,17.956044 13.0534979,17.956044 C8.4526749,17.956044 4.60082305,21.7142857 4.60082305,26.2032967 C4.60082305,30.7967033 8.4526749,34.4505495 13.0534979,34.4505495 Z M23.218107,2.19230769 C20.5432099,2.19230769 18.0823045,4.28021978 18.0823045,6.99450549 C18.0823045,9.6043956 20.2222222,12.0054945 23.0041152,12.0054945 C25.6790123,12.0054945 28.1399177,9.91758242 28.1399177,7.2032967 C28.1399177,4.28021978 26,2.19230769 23.218107,2.19230769 Z M44.8312757,32.3626374 C41.3004115,32.3626374 37.7695473,32.3626374 34.2386831,32.3626374 C34.2386831,31.5274725 34.2386831,30.7967033 34.2386831,29.6483516 C36.9135802,29.6483516 39.3744856,29.6483516 42.1563786,29.6483516 C42.1563786,23.2802198 42.1563786,17.1208791 42.1563786,10.7527473 C43.0123457,10.7527473 43.7613169,10.7527473 44.8312757,10.7527473 C44.8312757,11.7967033 44.8312757,12.8406593 44.8312757,13.8846154 C47.2921811,13.8846154 49.5390947,13.8846154 52,13.8846154 C52,18.1648352 52,22.2362637 52,26.5164835 C49.8600823,26.5164835 47.2921811,26.5164835 45.1522634,26.5164835 C44.8312757,28.6043956 44.8312757,30.4835165 44.8312757,32.3626374 Z M33.9176955,28.0824176 C33.9176955,20.8791209 33.9176955,13.8846154 33.9176955,6.68131868 C34.7736626,6.68131868 35.5226337,6.68131868 36.3786008,6.68131868 C36.3786008,13.8846154 36.3786008,20.8791209 36.3786008,28.0824176 C35.8436214,28.0824176 34.9876543,28.0824176 33.9176955,28.0824176 Z M38.3045267,8.03846154 C39.1604938,8.03846154 39.909465,8.03846154 40.7654321,8.03846154 C40.7654321,14.7197802 40.7654321,21.4010989 40.7654321,28.0824176 C39.909465,28.0824176 39.1604938,28.0824176 38.3045267,28.0824176 C38.3045267,21.4010989 38.3045267,14.7197802 38.3045267,8.03846154 Z M12.8395062,31.3186813 C10.0576132,31.3186813 7.59670782,29.1263736 7.59670782,26.2032967 C7.59670782,23.5934066 9.8436214,21.0879121 12.8395062,21.4010989 C15.6213992,21.4010989 17.7613169,23.5934066 17.7613169,26.2032967 C18.0823045,28.9175824 15.8353909,31.3186813 12.8395062,31.3186813 Z M23.0041152,10.2307692 C21.0781893,10.2307692 19.6872428,8.87362637 19.6872428,6.99450549 C19.6872428,5.11538462 21.0781893,3.75824176 23.0041152,3.75824176 C24.9300412,3.75824176 26.2139918,5.11538462 26.2139918,6.99450549 C26.2139918,8.87362637 24.9300412,10.2307692 23.0041152,10.2307692 Z" id="Shape"></path>
        </g>
    </g>
</svg>