<?xml version="1.0" encoding="UTF-8"?>
<svg width="64px" height="64px" viewBox="0 0 64 64" version="1.1" xmlns="http://www.w3.org/2000/svg" xmlns:xlink="http://www.w3.org/1999/xlink">
    <!-- Generator: Sketch 52.6 (67491) - http://www.bohemiancoding.com/sketch -->
    <title>resource-walkway</title>
    <desc>Created with Sketch.</desc>
    <g id="resource-walkway" stroke="none" stroke-width="1" fill="none" fill-rule="evenodd">
        <g id="icon-resource-walkway" transform="translate(13.000000, 7.000000)" fill="#000000" fill-rule="nonzero">
            <path d="M20.4777778,52 C19.7388889,51.6953125 18.5777778,51.4921875 17.8388889,50.8828125 C16.15,50.171875 15.4111111,48.8515625 15.4111111,47.0234375 C15.4111111,45.1953125 15.6222222,43.3671875 16.9944444,42.046875 C17.5222222,41.3359375 18.3666667,40.828125 19.2111111,40.21875 C20.2666667,39.5078125 21.6388889,38.6953125 22.3777778,37.6796875 C24.0666667,35.546875 24.0666667,33.2109375 22.9055556,30.875 C22.1666667,29.65625 21.3222222,28.3359375 20.7944444,27.015625 C19.7388889,25.1875 19.95,22.546875 21.3222222,21.0234375 C22.1666667,20.2109375 22.9055556,20.0078125 24.0666667,20.0078125 C28.0777778,20.2109375 31.35,22.0390625 33.9888889,24.8828125 C35.6777778,26.7109375 36.2055556,29.046875 35.6777778,31.3828125 C35.15,33.515625 34.3055556,35.546875 32.7222222,37.171875 C31.35,38.6953125 29.6611111,40.5234375 28.3944444,42.046875 C27.2333333,43.3671875 26.7055556,44.9921875 26.1777778,46.515625 C25.65,47.8359375 25.1222222,49.15625 24.0666667,50.171875 C23.5388889,50.6796875 22.6944444,50.8828125 22.1666667,51.1875 C21.85,51.1875 21.85,51.1875 21.6388889,51.4921875 C21.3222222,52 20.7944444,52 20.4777778,52 Z M16.9944444,0 C18.5777778,0.7109375 18.8944444,2.03125 18.8944444,3.3515625 C18.8944444,4.3671875 18.5777778,5.6875 17.8388889,6.5 C17.3111111,7.515625 15.9388889,8.0234375 15.0944444,7.2109375 C14.5666667,7.0078125 14.0388889,6.5 14.0388889,5.9921875 C13.5111111,4.1640625 13.7222222,2.3359375 15.0944444,0.7109375 C15.4111111,0.5078125 15.9388889,0.203125 16.4666667,0 C16.7833333,0 16.7833333,0 16.9944444,0 Z M0,18.6875 C0,17.671875 0.211111111,16.046875 0.738888889,14.828125 C1.58333333,13.5078125 2.63888889,12.4921875 3.8,11.6796875 C6.22777778,10.6640625 8.65555556,9.8515625 11.0833333,9.546875 C12.1388889,9.546875 13.1944444,9.546875 14.0388889,9.8515625 C16.7833333,10.15625 17.5222222,12.1875 17.3111111,14.015625 C17.3111111,15.84375 16.15,17.1640625 14.8833333,18.3828125 C14.0388889,19.1953125 12.9833333,20.2109375 12.1388889,21.328125 C10.5555556,23.15625 10.2388889,26 11.6111111,27.828125 C12.4555556,29.046875 13.5111111,30.1640625 14.25,31.1796875 C15.6222222,32.703125 15.9388889,34.53125 15.6222222,36.359375 C15.4111111,37.375 15.0944444,38.4921875 14.5666667,39.203125 C13.5111111,40.5234375 12.4555556,40.828125 11.2944444,41.03125 C9.39444444,41.3359375 7.81111111,41.03125 6.43888889,39.7109375 C5.38333333,38.6953125 5.06666667,37.171875 4.85555556,35.546875 C4.85555556,34.328125 4.53888889,33.2109375 4.32777778,31.9921875 C4.01111111,30.3671875 3.27222222,28.84375 2.63888889,27.5234375 C1.9,26 1.37222222,24.6796875 0.738888889,23.15625 C0.211111111,21.8359375 0,20.515625 0,18.6875 Z M26.4944444,13.5078125 C26.4944444,15.3359375 25.9666667,16.65625 24.8055556,17.3671875 C23.75,18.1796875 22.3777778,17.875 21.6388889,16.859375 C20.4777778,15.03125 21.0055556,12.4921875 22.3777778,10.8671875 C23.5388889,9.8515625 25.1222222,10.15625 25.65,11.6796875 C26.1777778,12.4921875 26.4944444,13.203125 26.4944444,13.5078125 Z M27.2333333,16.859375 C27.2333333,15.84375 27.55,14.828125 28.3944444,14.21875 C29.1333333,13.5078125 30.2944444,13.7109375 30.8222222,14.828125 C31.35,16.046875 31.0333333,17.3671875 30.2944444,18.3828125 C29.9777778,18.9921875 29.45,19.1953125 28.6055556,18.9921875 C27.7611111,18.9921875 27.55,18.3828125 27.55,17.671875 C27.2333333,17.3671875 27.2333333,16.859375 27.2333333,16.859375 Z M8.65555556,4.671875 C8.65555556,3.859375 8.86666667,2.84375 9.71111111,2.3359375 C10.2388889,1.828125 11.2944444,1.828125 11.8222222,2.3359375 C12.9833333,3.65625 12.6666667,5.9921875 11.2944444,6.703125 C10.7666667,7.2109375 10.0277778,7.2109375 9.39444444,6.5 C8.86666667,5.9921875 8.86666667,5.3828125 8.65555556,4.671875 Z M4.85555556,5.3828125 C4.85555556,4.671875 5.06666667,4.1640625 5.38333333,3.65625 C5.91111111,3.046875 6.43888889,3.046875 6.96666667,3.65625 C7.81111111,4.3671875 7.81111111,6.1953125 6.96666667,7.2109375 C6.43888889,8.0234375 5.7,7.71875 5.06666667,7.2109375 C4.85555556,6.703125 4.85555556,6.1953125 4.85555556,5.3828125 C4.53888889,5.6875 4.53888889,5.3828125 4.85555556,5.3828125 Z M31.5611111,18.9921875 C31.5611111,18.1796875 31.8777778,17.3671875 32.7222222,16.65625 C33.4611111,16.046875 34.3055556,16.3515625 34.5166667,17.1640625 C34.8333333,18.1796875 34.5166667,19.5 33.7777778,20.2109375 C32.9333333,20.71875 32.0888889,20.515625 31.8777778,19.703125 C31.5611111,19.5 31.5611111,19.1953125 31.5611111,18.9921875 Z M36.7333333,20.515625 C36.7333333,21.328125 36.2055556,22.0390625 35.3611111,22.34375 C34.5166667,22.546875 33.9888889,22.34375 33.9888889,21.53125 C33.7777778,20.71875 34.5166667,19.5 35.3611111,19.1953125 C35.8888889,18.9921875 36.7333333,19.1953125 36.7333333,20.0078125 C36.7333333,20.2109375 36.7333333,20.515625 36.7333333,20.515625 Z M4.53888889,7.515625 C4.53888889,7.71875 4.53888889,7.71875 4.53888889,8.0234375 C4.53888889,8.328125 4.32777778,8.8359375 3.8,8.8359375 C2.95555556,9.0390625 2.63888889,8.53125 2.42777778,8.328125 C1.9,7.515625 1.9,6.703125 2.11111111,5.9921875 C2.42777778,5.3828125 3.27222222,5.1796875 3.8,5.6875 C4.32777778,6.1953125 4.53888889,6.703125 4.53888889,7.515625 Z M0.211111111,9.546875 C0.211111111,9.0390625 0.211111111,8.53125 0.738888889,8.328125 C1.05555556,8.0234375 1.58333333,8.0234375 1.9,8.53125 C2.42777778,9.34375 2.42777778,9.8515625 1.9,10.6640625 C1.58333333,11.171875 0.738888889,10.8671875 0.527777778,10.359375 C0.211111111,10.15625 0.211111111,9.8515625 0.211111111,9.546875 Z M35.8888889,23.6640625 C35.8888889,23.15625 36.4166667,22.34375 37.05,22.34375 C37.2611111,22.34375 37.5777778,22.34375 37.7888889,22.8515625 C38.1055556,23.6640625 37.7888889,24.6796875 37.05,25.1875 C36.4166667,25.4921875 36.2055556,25.1875 35.8888889,24.8828125 C35.8888889,24.8828125 35.8888889,24.6796875 35.8888889,24.6796875 C35.8888889,24.171875 35.8888889,23.8671875 35.8888889,23.6640625 Z" id="Shape"></path>
        </g>
    </g>
</svg>