<?xml version="1.0" encoding="UTF-8"?>
<svg width="64px" height="64px" viewBox="0 0 64 64" version="1.1" xmlns="http://www.w3.org/2000/svg" xmlns:xlink="http://www.w3.org/1999/xlink">
    <!-- Generator: Sketch 52.6 (67491) - http://www.bohemiancoding.com/sketch -->
    <title>resource-detector-loop</title>
    <desc>Created with Sketch.</desc>
    <g id="resource-detector-loop" stroke="none" stroke-width="1" fill="none" fill-rule="evenodd">
        <g id="icon-resource-detector-loop" transform="translate(6.000000, 9.000000)" fill="#000000" fill-rule="nonzero">
            <path d="M50.8470067,36.4660194 C49.924612,35.7669903 49.0022173,36.1165049 48.4257206,36.4660194 C46.1197339,37.631068 44.0443459,39.1456311 41.6230599,39.961165 C34.8203991,42.9902913 27.4412417,43.9223301 20.0620843,42.6407767 C14.1818182,41.8252427 8.64745011,39.3786408 3.57427938,36.1165049 C2.42128603,35.184466 0.922394678,35.5339806 0.345898004,36.6990291 C-0.23059867,37.8640777 6.9388939e-18,39.1456311 1.26829268,39.961165 C8.87804878,45.0873786 17.1796009,47.7669903 27.7871397,48 C29.286031,47.7669903 31.9379157,47.7669903 34.5898004,47.184466 C40.4700665,45.9029126 45.7738359,43.9223301 50.8470067,40.3106796 C51.4235033,39.961165 51.654102,39.3786408 52,38.7961165 C52,37.631068 51.4235033,37.0485437 50.8470067,36.4660194 Z M5.64966741,30.1747573 C11.8758315,34.368932 18.6784922,36.4660194 26.6341463,36.6990291 C33.0909091,36.6990291 39.5476718,34.6019417 45.7738359,30.7572816 C46.1197339,30.407767 46.3503326,30.1747573 46.6962306,29.8252427 C47.2727273,28.6601942 46.9268293,26.9126214 45.7738359,26.9126214 C44.8514412,26.5631068 43.6984479,26.5631068 42.7760532,27.4951456 C42.1995565,28.0776699 41.6230599,28.3106796 40.8159645,28.6601942 C34.8203991,31.9223301 28.7095344,33.0873786 21.9068736,32.2718447 C16.6031042,31.6893204 12.1064302,29.592233 7.72505543,26.5631068 C6.57206208,25.9805825 4.72727273,26.5631068 4.49667406,27.7281553 C4.15077605,28.6601942 4.49667406,29.592233 5.64966741,30.1747573 Z M22.713969,9.90291262 C24.789357,9.90291262 26.6341463,9.90291262 28.7095344,9.90291262 C31.5920177,9.90291262 34.0133038,6.87378641 34.0133038,3.84466019 C28.7095344,3.84466019 23.059867,3.84466019 17.4101996,3.84466019 C17.1796009,6.6407767 19.8314856,9.55339806 22.713969,9.90291262 Z M18.3325942,2.44660194 C20.6385809,2.44660194 23.405765,2.44660194 25.7117517,2.44660194 C28.3636364,2.44660194 30.7849224,2.44660194 33.4368071,2.44660194 C34.2439024,2.44660194 34.8203991,2.09708738 34.8203991,1.16504854 C34.5898004,0.349514563 34.0133038,0 33.0909091,0 C28.0177384,0 23.059867,0 17.9866962,0 C17.4101996,0 16.8337029,0.349514563 16.8337029,1.16504854 C16.8337029,2.09708738 17.4101996,2.44660194 18.3325942,2.44660194 Z M10.3769401,20.8543689 C10.0310421,21.5533981 10.9534368,22.368932 12.6829268,22.7184466 C12.6829268,22.7184466 12.6829268,22.7184466 12.6829268,22.368932 C12.6829268,22.368932 13.0288248,22.7184466 13.0288248,22.7184466 C13.0288248,22.9514563 13.2594235,23.3009709 14.1818182,23.5339806 C14.1818182,23.5339806 14.1818182,23.5339806 14.1818182,23.3009709 C14.1818182,23.3009709 14.5277162,23.5339806 14.5277162,23.5339806 C14.5277162,23.8834951 14.7583149,23.8834951 14.7583149,24.2330097 C14.7583149,24.2330097 15.1042129,24.2330097 15.1042129,24.2330097 C15.3348115,24.2330097 15.3348115,24.4660194 15.6807095,24.4660194 C16.0266075,24.815534 16.0266075,24.815534 16.2572062,24.815534 C17.1796009,25.0485437 17.9866962,25.3980583 18.9090909,25.631068 C19.2549889,25.631068 19.4855876,25.9805825 19.8314856,25.9805825 C26.0576497,27.4951456 31.5920177,26.2135922 35.3968958,24.815534 C36.0886918,24.4660194 36.3192905,24.4660194 36.6651885,24.2330097 C36.6651885,24.2330097 36.8957871,24.2330097 36.8957871,24.2330097 C37.2416851,23.8834951 37.4722838,23.8834951 37.8181818,23.5339806 C37.8181818,23.5339806 37.8181818,23.5339806 38.1640798,23.5339806 C38.1640798,23.5339806 38.1640798,23.3009709 38.3946785,23.3009709 C40.1241685,22.368932 41.0465632,21.7864078 41.0465632,21.7864078 C42.1995565,21.2038835 42.5454545,20.038835 41.9689579,18.7572816 C41.3924612,17.9417476 40.1241685,17.3592233 39.3170732,17.9417476 C28.940133,24.4660194 18.6784922,20.8543689 14.1818182,18.5242718 C13.2594235,18.1747573 12.6829268,17.592233 11.8758315,17.3592233 C11.5299335,17.0097087 10.6075388,17.3592233 10.3769401,17.3592233 C9.22394678,17.592233 8.87804878,18.5242718 8.87804878,19.6893204 C8.87804878,20.2718447 9.22394678,20.8543689 10.3769401,20.8543689 Z" id="Shape"></path>
        </g>
    </g>
</svg>