<?xml version="1.0" encoding="UTF-8"?>
<svg width="64px" height="64px" viewBox="0 0 64 64" version="1.1" xmlns="http://www.w3.org/2000/svg" xmlns:xlink="http://www.w3.org/1999/xlink">
    <!-- Generator: Sketch 52.6 (67491) - http://www.bohemiancoding.com/sketch -->
    <title>resource-job</title>
    <desc>Created with Sketch.</desc>
    <g id="resource-job" stroke="none" stroke-width="1" fill="none" fill-rule="evenodd">
        <g id="icon-resource-job" transform="translate(6.000000, 7.000000)" fill="#000000" fill-rule="nonzero">
            <path d="M49.96875,8.328125 L41.640625,16.65625 C40.015625,16.65625 38.1875,16.1484375 36.96875,14.828125 C35.6484375,13.5078125 35.140625,11.984375 35.140625,10.15625 L43.46875,1.828125 C43.671875,1.5234375 43.671875,1.3203125 43.46875,1.3203125 C41.640625,0.5078125 39.8125,0 37.6796875,0 C29.65625,0 23.359375,6.5 23.359375,14.3203125 C23.359375,15.84375 23.6640625,17.1640625 24.171875,18.6875 L9.140625,33.8203125 C4.1640625,33.8203125 0,37.6796875 0,42.859375 C0,48.140625 4.1640625,52 9.140625,52 C14.015625,52 18.1796875,47.8359375 18.1796875,42.859375 L33.3125,27.828125 C34.53125,28.3359375 36.15625,28.640625 37.6796875,28.640625 C45.5,28.640625 52,22.140625 52,14.3203125 C52,12.1875 51.4921875,10.359375 50.6796875,8.53125 C50.4765625,8.328125 50.171875,8.328125 49.96875,8.328125 Z M13,42.859375 C13,44.9921875 11.171875,46.8203125 9.140625,46.8203125 C7.0078125,46.8203125 5.1796875,44.9921875 5.1796875,42.859375 C5.1796875,40.828125 7.0078125,39 9.140625,39 C11.171875,39 13,40.828125 13,42.859375 Z" id="Shape"></path>
        </g>
    </g>
</svg>