<?xml version="1.0" encoding="UTF-8"?>
<svg width="64px" height="64px" viewBox="0 0 64 64" version="1.1" xmlns="http://www.w3.org/2000/svg" xmlns:xlink="http://www.w3.org/1999/xlink">
    <!-- Generator: Sketch 52.6 (67491) - http://www.bohemiancoding.com/sketch -->
    <title>resource-waste-point</title>
    <desc>Created with Sketch.</desc>
    <g id="resource-waste-point" stroke="none" stroke-width="1" fill="none" fill-rule="evenodd">
        <g id="icon-resource-waste-point" transform="translate(8.000000, 7.000000)" fill="#000000" fill-rule="nonzero">
            <path d="M35.107438,45.5 L31.7355372,45.5 L31.7355372,19.5 L25.3884298,19.5 L25.3884298,45.5 L22.4132231,45.5 L22.4132231,19.5 L16.0661157,19.5 L16.0661157,45.5 L12.6942149,45.5 L12.6942149,19.5 L6.34710744,19.5 L6.34710744,50.4765625 C6.34710744,51.1875 7.14049587,52 7.9338843,52 L39.6694215,52 C40.3636364,52 41.1570248,51.1875 41.1570248,50.4765625 L41.1570248,19.5 L34.8099174,19.5 L34.8099174,45.5 L35.107438,45.5 Z M44.4297521,6.5 L31.7355372,6.5 L31.7355372,1.5234375 C31.7355372,0.8125 31.0413223,0 30.2479339,0 L17.553719,0 C16.7603306,0 16.0661157,0.8125 16.0661157,1.5234375 L16.0661157,6.5 L3.37190083,6.5 C1.58677686,6.5 0,8.0234375 0,9.8515625 L0,13 C0,14.828125 1.58677686,16.3515625 3.37190083,16.3515625 L44.7272727,16.3515625 C46.5123967,16.3515625 48,14.828125 48,13 L48,9.8515625 C47.8016529,8.0234375 46.214876,6.5 44.4297521,6.5 Z M19.0413223,6.5 L19.0413223,3.3515625 L28.7603306,3.3515625 L28.7603306,6.8046875 L19.0413223,6.8046875 L19.0413223,6.5 Z" id="Shape"></path>
        </g>
    </g>
</svg>