<?xml version="1.0" encoding="UTF-8"?>
<svg width="64px" height="64px" viewBox="0 0 64 64" version="1.1" xmlns="http://www.w3.org/2000/svg" xmlns:xlink="http://www.w3.org/1999/xlink">
    <!-- Generator: Sketch 52.6 (67491) - http://www.bohemiancoding.com/sketch -->
    <title>resource-camera-cctv</title>
    <desc>Created with Sketch.</desc>
    <g id="resource-camera-cctv" stroke="none" stroke-width="1" fill="none" fill-rule="evenodd">
        <g id="icon-resource-camera-cctv" transform="translate(6.000000, 14.000000)" fill="#000000" fill-rule="nonzero">
            <path d="M52,35.4090909 C46.8110403,35.4090909 41.5116773,35.4090909 36.433121,35.4090909 C35.5498938,35.4090909 34.9978769,35.625 34.4458599,36.2727273 C33.0106157,38.2159091 30.1401274,38.4318182 28.1528662,36.8125 C26.2760085,35.0852273 25.9447983,32.3863636 27.6008493,30.9829545 C29.3673036,29.5795455 29.0360934,27.9602273 29.0360934,26.2329545 C28.4840764,26.5568182 28.1528662,26.5568182 27.6008493,26.8806818 C26.4968153,27.6363636 25.3927813,27.9602273 24.2887473,26.8806818 C23.7367304,26.2329545 23.07431,26.8806818 22.8535032,26.8806818 C18.5477707,29.0397727 14.3524416,30.9829545 10.1571125,33.1420455 C9.27388535,33.4659091 8.94267516,33.4659091 8.72186837,32.9261364 C6.73460722,29.0397727 4.74734607,25.4772727 2.76008493,21.5909091 C2.76008493,21.2670455 2.20806794,21.0511364 2.53927813,20.7272727 C2.76008493,20.5113636 3.09129512,20.7272727 3.31210191,21.0511364 C6.95541401,22.6704545 10.9299363,24.6136364 14.6836518,26.2329545 C15.4564756,26.5568182 16.0084926,26.5568182 16.670913,26.2329545 C24.8407643,22.1306818 32.6794055,18.2443182 40.9596603,14.1420455 C41.7324841,13.6022727 42.2845011,13.6022727 42.6157113,14.6818182 C43.4989384,16.625 43.4989384,16.625 41.5116773,17.7045455 C40.0764331,18.2443182 38.9723992,19.1079545 37.537155,19.6477273 C36.6539278,19.9715909 36.1019108,20.7272727 36.1019108,21.5909091 C36.1019108,22.4545455 35.881104,22.9943182 34.9978769,23.2102273 C32.1273885,24.0738636 31.3545648,25.6931818 31.9065817,28.1761364 C32.1273885,29.0397727 31.9065817,30.1193182 33.0106157,30.4431818 C33.3418259,30.4431818 33.5626327,30.6590909 33.5626327,30.9829545 C34.1146497,32.6022727 35.5498938,32.3863636 36.985138,32.3863636 C41.7324841,32.3863636 46.5902335,32.3863636 51.3375796,32.3863636 C52,33.1420455 52,34.3295455 52,35.4090909 Z M1.87685775,18.2443182 C8.94267516,14.6818182 15.7876858,11.3352273 22.8535032,7.98863636 C27.9320594,5.50568182 33.0106157,3.02272727 37.8683652,0.323863636 C38.641189,-0.215909091 38.9723992,-6.39419073e-15 39.5244161,0.863636364 C40.9596603,3.88636364 42.6157113,6.69318182 44.0509554,9.39204545 C44.2717622,9.93181818 44.6029724,10.5795455 43.7197452,10.7954545 C34.6666667,15.2215909 25.6135881,19.6477273 16.670913,24.3977273 C16.3397028,24.6136364 16.0084926,24.9375 15.4564756,24.6136364 C10.9299363,22.4545455 6.40339703,20.5113636 1.87685775,18.2443182 Z M6.95541401,32.0625 C6.95541401,32.3863636 6.73460722,32.3863636 6.73460722,32.6022727 C4.74734607,34.0056818 4.74734607,34.0056818 3.6433121,31.8465909 C2.53927813,29.9034091 1.32484076,27.6363636 0.552016985,25.6931818 C-0.110403397,25.1534091 -0.110403397,24.9375 0.552016985,24.3977273 C2.53927813,23.5340909 2.53927813,23.2102273 3.31210191,25.1534091 C4.41613588,27.0965909 5.63057325,29.3636364 6.40339703,31.3068182 C6.73460722,31.8465909 6.95541401,32.0625 6.95541401,32.0625 Z" id="Shape"></path>
        </g>
    </g>
</svg>