<?xml version="1.0" encoding="UTF-8"?>
<svg width="64px" height="64px" viewBox="0 0 64 64" version="1.1" xmlns="http://www.w3.org/2000/svg" xmlns:xlink="http://www.w3.org/1999/xlink">
    <!-- Generator: Sketch 52.6 (67491) - http://www.bohemiancoding.com/sketch -->
    <title>resource-grounds</title>
    <desc>Created with Sketch.</desc>
    <g id="resource-grounds" stroke="none" stroke-width="1" fill="none" fill-rule="evenodd">
        <g id="icon-resource-grounds" transform="translate(6.000000, 7.000000)" fill="#000000" fill-rule="nonzero">
            <path d="M52,20.3125 C52,22.8515625 52,25.1875 52,27.5234375 C52,27.828125 47.539961,32.1953125 45.5126706,34.53125 C45.5126706,34.53125 44.1949318,30.671875 44.4990253,30.3671875 C44.7017544,29.859375 46.3235867,27.828125 46.3235867,27.015625 C46.3235867,25.6953125 45.005848,21.53125 44.1949318,20.515625 C42.6744639,18.1796875 41.0526316,15.84375 39.3294347,13.8125 C37.7076023,14.3203125 25.037037,17.9765625 20.0701754,19.1953125 C19.8674464,19.1953125 19.5633528,19.5 19.2592593,19.8046875 C17.2319688,23.6640625 13.380117,31.1796875 13.0760234,31.484375 C14.5964912,31.484375 16.2183236,31.484375 17.7387914,31.484375 C19.2592593,31.484375 19.0565302,31.6875 19.0565302,30.1640625 C19.0565302,28.3359375 19.0565302,26.8125 19.0565302,24.984375 C19.2592593,24.984375 24.5302144,24.984375 27.0643275,24.984375 C27.3684211,24.984375 27.5711501,25.1875 27.8752437,25.4921875 C29.1929825,27.3203125 30.2066277,29.1484375 31.2202729,30.671875 C31.5243665,30.9765625 31.5243665,31.484375 31.5243665,31.6875 C31.5243665,34.53125 31.5243665,37.171875 31.5243665,40.015625 C31.5243665,41.640625 31.0175439,42.1484375 29.3957115,42.1484375 C26.8615984,42.1484375 4.76413255,42.1484375 2.73684211,42.1484375 C1.11500975,42.1484375 0.608187135,41.3359375 0.608187135,40.015625 C0.608187135,37.984375 0.608187135,35.8515625 0.608187135,34.0234375 C0.608187135,32.8046875 1.62183236,31.484375 3.24366472,31.484375 C5.06822612,31.484375 6.89278752,31.484375 8.41325536,31.484375 C8.92007797,31.484375 9.22417154,31.1796875 9.22417154,30.9765625 C10.7446394,27.5234375 12.0623782,23.8671875 13.582846,20.515625 C13.582846,20.3125 13.582846,20.0078125 13.582846,19.8046875 C13.8869396,18.484375 13.582846,17.671875 13.380117,16.859375 C13.380117,16.65625 13.380117,16.3515625 13.582846,16.1484375 C14.5964912,15.84375 15.4074074,15.3359375 16.2183236,14.828125 C16.4210526,14.828125 16.9278752,14.828125 16.9278752,14.828125 C18.042885,15.640625 19.0565302,15.640625 20.0701754,14.828125 C25.5438596,11.6796875 31.0175439,8.8359375 36.3898635,5.9921875 C36.6939571,5.6875 36.9980507,5.6875 36.6939571,5.1796875 C36.3898635,4.3671875 36.1871345,3.65625 35.8830409,2.640625 C35.8830409,2.3359375 35.8830409,2.03125 36.1871345,2.03125 C37.2007797,1.3203125 38.214425,0.8125 39.3294347,0 C40.0389864,1.3203125 40.545809,2.84375 41.3567251,4.1640625 C43.9922027,9.34375 46.5263158,14.5234375 49.1617934,19.5 C49.3645224,20.0078125 49.668616,20.0078125 49.9727096,20.0078125 C50.6822612,20.0078125 51.1890838,20.3125 52,20.3125 Z M30.2066277,33.515625 C30.2066277,32.8046875 30.2066277,32.1953125 29.9025341,31.6875 C29.1929825,30.1640625 28.0779727,28.640625 27.0643275,27.015625 C26.8615984,26.8125 26.5575049,26.8125 26.3547758,26.8125 C25.037037,26.8125 21.5906433,26.8125 21.3879142,26.8125 C21.3879142,29.1484375 21.3879142,31.484375 21.3879142,33.8203125 C24.2261209,33.515625 27.0643275,33.515625 30.2066277,33.515625 Z M2.93957115,52 C1.11500975,52 0.101364522,50.6796875 0.101364522,48.6484375 C0.101364522,48.34375 0.101364522,48.140625 0.101364522,47.8359375 C-0.202729045,45.1953125 1.41910331,43.9765625 3.24366472,43.9765625 C4.76413255,43.9765625 29.6998051,43.9765625 33.3489279,43.9765625 C34.8693957,43.9765625 35.6803119,44.9921875 35.8830409,46.8203125 C35.8830409,47.53125 35.8830409,48.140625 35.8830409,48.8515625 C35.6803119,50.6796875 34.5653021,52 33.0448343,52 C28.0779727,52 7.90643275,52 2.93957115,52 Z" id="Shape"></path>
        </g>
    </g>
</svg>