<?xml version="1.0" encoding="UTF-8"?>
<svg width="64px" height="64px" viewBox="0 0 64 64" version="1.1" xmlns="http://www.w3.org/2000/svg" xmlns:xlink="http://www.w3.org/1999/xlink">
    <!-- Generator: Sketch 52.6 (67491) - http://www.bohemiancoding.com/sketch -->
    <title>resource-telephone-emergency</title>
    <desc>Created with Sketch.</desc>
    <g id="resource-telephone-emergency" stroke="none" stroke-width="1" fill="none" fill-rule="evenodd">
        <g id="icon-resource-telephone-emergency" transform="translate(9.000000, 7.000000)" fill="#000000" fill-rule="nonzero">
            <path d="M0,15.5338983 C0,16.4152542 0,16.9661017 0,17.8474576 C0.222222222,18.3983051 0.222222222,18.9491525 0.222222222,19.279661 C0.222222222,19.279661 0.222222222,20.3813559 0.555555556,20.9322034 C0.555555556,21.4830508 0.777777778,21.8135593 0.777777778,22.3644068 C0.777777778,22.9152542 1.11111111,23.1355932 1.11111111,23.7966102 C1.11111111,24.0169492 1.11111111,24.3474576 1.33333333,24.5677966 C1.66666667,25.4491525 2,26.3305085 2.22222222,27.1016949 C2.55555556,27.6525424 2.55555556,28.5338983 2.77777778,29.0847458 C3.11111111,29.6355932 3.33333333,30.5169492 3.66666667,31.0677966 C3.66666667,31.0677966 3.66666667,31.3983051 3.88888889,31.3983051 C3.88888889,31.3983051 3.88888889,31.6186441 3.88888889,31.6186441 C4.55555556,32.5 4.77777778,33.3813559 5.33333333,34.4830508 C5.66666667,35.0338983 5.88888889,35.2542373 6.22222222,35.9152542 C6.55555556,36.1355932 6.77777778,36.6864407 7.11111111,37.0169492 C7.33333333,37.2372881 7.33333333,37.5677966 7.66666667,37.8983051 C8.22222222,38.4491525 8.77777778,39.220339 9.11111111,39.7711864 C9.33333333,40.4322034 9.88888889,40.6525424 10.2222222,41.2033898 C10.4444444,41.5338983 10.7777778,42.0847458 11.3333333,42.3050847 C11.3333333,42.3050847 11.6666667,42.6355932 11.8888889,42.9661017 C12.2222222,43.1864407 12.4444444,43.7372881 13,44.0677966 C13.6666667,44.2881356 13.8888889,44.9491525 14.4444444,45.1694915 C14.7777778,45.5 15,46.0508475 15.5555556,46.2711864 C16.2222222,46.6016949 16.4444444,46.8220339 17,47.1525424 C17.5555556,47.7033898 18.1111111,48.2542373 19,48.5847458 C19.8888889,49.1355932 21,49.6864407 21.8888889,50.2372881 C22.1111111,50.5677966 22.4444444,50.2372881 22.6666667,50.5677966 C23,50.7881356 23,50.7881356 23.3333333,50.7881356 C23.3333333,50.7881356 23.5555556,50.7881356 23.5555556,50.7881356 C24.4444444,51.3389831 25.2222222,51.3389831 26.1111111,51.6694915 C27,52 28.1111111,52 29,51.6694915 C29.2222222,51.6694915 29.5555556,51.3389831 29.7777778,51.3389831 C30.4444444,51.3389831 31,50.7881356 31.5555556,50.7881356 C31.7777778,50.2372881 32.3333333,50.2372881 33,50.0169492 C33.5555556,49.6864407 34.1111111,49.1355932 34.3333333,48.8050847 C34.6666667,48.5847458 35,48.2542373 35.5555556,48.0338983 C35.7777778,47.7033898 35.7777778,47.4830508 36.1111111,47.1525424 C36.3333333,46.8220339 36.3333333,46.6016949 36.1111111,46.6016949 C35.5555556,46.2711864 35,45.720339 34.1111111,45.5 C33.2222222,45.1694915 32.6666667,44.6186441 32.1111111,44.0677966 C31.2222222,43.5169492 30.1111111,42.9661017 29.2222222,42.3050847 C28.6666667,42.0847458 28.1111111,41.7542373 27.5555556,41.2033898 C27,40.9830508 26.4444444,40.6525424 26.1111111,40.4322034 C25.8888889,40.1016949 25.2222222,40.1016949 25,39.5508475 C25,39.5508475 24.4444444,39.5508475 24.4444444,39.5508475 C24.1111111,40.1016949 23.8888889,40.1016949 23.5555556,40.1016949 C22.6666667,40.6525424 21.8888889,40.6525424 20.7777778,40.4322034 C20.1111111,40.1016949 19.8888889,39.7711864 19.3333333,39.7711864 C18.4444444,39.220339 17.8888889,38.6694915 17.3333333,37.8983051 C17,37.2372881 16.7777778,36.6864407 16.4444444,36.4661017 C15.8888889,35.5847458 15.5555556,34.7033898 15,33.9322034 C14.7777778,33.3813559 14.4444444,32.720339 13.8888889,32.1694915 C13.3333333,31.3983051 13,30.5169492 12.4444444,29.6355932 C12.2222222,29.0847458 11.8888889,28.8644068 11.6666667,28.2033898 C11.6666667,27.4322034 11,26.5508475 10.7777778,25.6694915 C10.4444444,25.4491525 10.2222222,24.8983051 9.88888889,24.3474576 C9.33333333,23.4661017 8.77777778,22.5847458 8.44444444,21.4830508 C7.88888889,20.3813559 7.88888889,19.279661 8.22222222,18.3983051 C8.44444444,17.8474576 8.44444444,17.5169492 8.77777778,17.2966102 C9.33333333,16.7457627 9.88888889,15.8644068 10.7777778,15.5338983 C11,15.5338983 11,15.3135593 11,14.9830508 C11,10.7966102 11,6.5 11,1.98305085 C11,1.76271186 11,1.43220339 10.4444444,1.76271186 C10.2222222,1.76271186 9.88888889,1.76271186 9.33333333,1.98305085 C9.11111111,1.98305085 8.44444444,1.98305085 8.22222222,2.31355932 C7.66666667,2.6440678 7.11111111,2.31355932 6.77777778,2.6440678 C6.77777778,2.6440678 6.55555556,2.86440678 6.55555556,2.86440678 C5.66666667,2.86440678 5.33333333,3.41525424 5.11111111,3.41525424 C4.77777778,3.41525424 4.55555556,3.74576271 4.22222222,3.96610169 C3.66666667,4.29661017 3.11111111,4.84745763 2.77777778,5.1779661 C2.55555556,5.39830508 2,5.72881356 2,6.27966102 C1.66666667,6.83050847 1.11111111,7.38135593 0.777777778,7.93220339 C0.555555556,9.03389831 0.222222222,9.91525424 0,11.0169492 C0,11.3474576 0,11.5677966 0,11.5677966 C0,11.5677966 0,11.8983051 0,11.8983051 C0,13.3305085 0,14.4322034 0,15.8644068 C0,15.8644068 0,15.5338983 0,15.5338983 Z M38.1111111,15.8644068 C38.8888889,15.8644068 39.4444444,15.8644068 40.3333333,15.8644068 C40.6666667,15.8644068 40.6666667,15.8644068 40.6666667,15.5338983 C40.6666667,14.1016949 40.6666667,12.779661 40.6666667,11.0169492 C40.6666667,10.7966102 40.6666667,10.4661017 41.2222222,10.7966102 C42.6666667,10.7966102 44,10.7966102 45.4444444,10.7966102 C46,10.7966102 46,10.7966102 46,10.2457627 C46,8.81355932 46,7.05084746 46,5.72881356 C46,5.39830508 45.7777778,5.39830508 45.7777778,5.39830508 C44.3333333,5.39830508 42.8888889,5.39830508 41.4444444,5.39830508 C41.2222222,5.39830508 40.8888889,5.39830508 40.8888889,4.84745763 C40.8888889,3.41525424 40.8888889,1.98305085 40.8888889,0.661016949 C40.8888889,0.330508475 40.8888889,0 40.3333333,0 C38.8888889,0 37.5555556,0 36.1111111,0 C35.5555556,0 35.5555556,0 35.5555556,0.661016949 C35.5555556,1.98305085 35.5555556,3.41525424 35.5555556,4.84745763 C35.5555556,5.1779661 35.5555556,5.39830508 35,5.39830508 C33.5555556,5.39830508 32.1111111,5.39830508 30.6666667,5.39830508 C30.4444444,5.39830508 30.1111111,5.39830508 30.1111111,5.94915254 C30.1111111,7.38135593 30.1111111,8.81355932 30.1111111,10.2457627 C30.1111111,10.7966102 30.1111111,10.7966102 30.6666667,10.7966102 C32.1111111,10.7966102 33.5555556,10.7966102 35,10.7966102 C35.2222222,10.7966102 35.2222222,11.0169492 35.2222222,11.0169492 C35.2222222,12.4491525 35.2222222,13.8813559 35.2222222,15.3135593 C35.2222222,15.8644068 35.2222222,15.8644068 35.7777778,15.8644068 C36.6666667,15.8644068 37.5555556,15.8644068 38.1111111,15.8644068 Z M38.1111111,42.9661017 C38.1111111,42.6355932 38.1111111,42.6355932 38.1111111,42.6355932 C38.1111111,42.3050847 38.1111111,42.0847458 38.1111111,41.7542373 C37.7777778,41.5338983 37.2222222,41.2033898 36.8888889,40.9830508 C36.1111111,40.6525424 35.5555556,40.1016949 35,39.7711864 C34.3333333,39.5508475 34.1111111,39.220339 33.5555556,39 C33,38.6694915 32.3333333,38.4491525 31.7777778,37.8983051 C31.5555556,37.5677966 31,37.2372881 30.6666667,37.2372881 C30.4444444,37.0169492 29.7777778,36.6864407 29.2222222,36.4661017 C29,36.1355932 28.6666667,36.1355932 28.4444444,36.4661017 C28.4444444,36.4661017 28.1111111,36.4661017 28.1111111,36.6864407 C27.8888889,37.0169492 27.2222222,37.2372881 27,37.2372881 C26.6666667,37.5677966 26.4444444,37.8983051 25.8888889,37.8983051 C25.5555556,37.8983051 25.5555556,38.1186441 25.2222222,38.4491525 C25.2222222,38.4491525 25.5555556,38.6694915 25.5555556,38.6694915 C26.1111111,38.6694915 26.6666667,39.220339 27.2222222,39.7711864 C27.8888889,40.1016949 28.4444444,40.6525424 29,40.9830508 C29.7777778,41.5338983 30.6666667,42.0847458 31.5555556,42.3050847 C32.3333333,42.6355932 33,43.1864407 33.5555556,43.7372881 C33.7777778,44.0677966 34.1111111,44.0677966 34.3333333,44.2881356 C34.6666667,44.2881356 35,44.9491525 35.5555556,44.9491525 C36.1111111,45.1694915 36.3333333,45.5 36.8888889,45.720339 C37.2222222,45.720339 37.2222222,46.0508475 37.2222222,45.5 C37.2222222,45.1694915 37.2222222,45.1694915 37.2222222,44.9491525 C37.7777778,44.2881356 38.1111111,43.5169492 38.1111111,42.9661017 Z M12.4444444,8.48305085 C12.4444444,10.7966102 12.4444444,12.779661 12.4444444,14.9830508 C12.4444444,15.3135593 12.4444444,15.5338983 12.7777778,15.3135593 C13.3333333,14.9830508 13.6666667,14.9830508 13.8888889,14.7627119 C14.4444444,14.4322034 15,14.4322034 15.3333333,14.1016949 C15.3333333,14.1016949 15.3333333,14.1016949 15.5555556,14.1016949 C16.2222222,14.1016949 16.2222222,13.8813559 16.2222222,13.3305085 C16.2222222,10.4661017 16.2222222,7.71186441 16.2222222,4.84745763 C16.2222222,4.29661017 16.2222222,3.96610169 16.2222222,3.41525424 C16.2222222,3.19491525 16.2222222,3.19491525 15.8888889,3.19491525 C15.5555556,3.19491525 15.3333333,2.86440678 15,2.86440678 C14.7777778,2.6440678 14.2222222,2.31355932 13.6666667,1.98305085 C13.3333333,1.76271186 13,1.98305085 12.7777778,1.76271186 C12.7777778,1.76271186 12.7777778,1.76271186 12.7777778,1.98305085 C12.7777778,2.31355932 12.7777778,2.6440678 12.7777778,2.86440678 C12.4444444,4.29661017 12.4444444,6.5 12.4444444,8.48305085 Z M31,10.4661017 C31,10.4661017 31.2222222,10.4661017 31.2222222,10.4661017 C31,10.4661017 31,10.4661017 31,10.4661017 Z M33.7777778,10.4661017 C33.5555556,10.4661017 33.5555556,10.4661017 33.7777778,10.4661017 C33.5555556,10.4661017 33.5555556,10.4661017 33.7777778,10.4661017 C33.5555556,10.4661017 33.5555556,10.4661017 33.7777778,10.4661017 C33.5555556,10.4661017 33.5555556,10.4661017 33.7777778,10.4661017 Z M22.4444444,50.7881356 C22.6666667,51.1186441 22.6666667,50.7881356 22.4444444,50.7881356 C22.6666667,50.7881356 22.6666667,50.7881356 22.4444444,50.7881356 Z M32.1111111,10.4661017 C32.3333333,10.4661017 32.3333333,10.4661017 32.1111111,10.4661017 C32.3333333,10.4661017 32.3333333,10.4661017 32.1111111,10.4661017 Z" id="Shape"></path>
        </g>
    </g>
</svg>