<?xml version="1.0" encoding="UTF-8"?>
<svg width="64px" height="64px" viewBox="0 0 64 64" version="1.1" xmlns="http://www.w3.org/2000/svg" xmlns:xlink="http://www.w3.org/1999/xlink">
    <!-- Generator: Sketch 52.6 (67491) - http://www.bohemiancoding.com/sketch -->
    <title>resource-gantry</title>
    <desc>Created with Sketch.</desc>
    <g id="resource-gantry" stroke="none" stroke-width="1" fill="none" fill-rule="evenodd">
        <g id="icon-resource-gantry" transform="translate(22.000000, 7.000000)" fill="#000000" fill-rule="nonzero">
            <path d="M10.4,12.4324324 C13.0285714,12.4324324 15.6571429,12.4324324 18.2857143,12.4324324 C19.4285714,12.4324324 19.7714286,12.7567568 19.7714286,13.8378378 C19.7714286,16.5405405 20.1142857,19.6756757 19.7714286,22.3783784 C19.4285714,25.7297297 17.7142857,28.4324324 16.5714286,31.5675676 C16.2285714,32.1081081 15.6571429,31.7837838 15.4285714,31.7837838 C12.1142857,31.7837838 9.25714286,31.7837838 6.05714286,31.7837838 C5.14285714,31.7837838 4.8,31.5675676 4.57142857,30.7027027 C1.6,25.1891892 1.37142857,19.6756757 1.6,13.5135135 C1.02857143,12.7567568 1.37142857,12.4324324 2.51428571,12.4324324 C5.14285714,12.7567568 7.77142857,12.4324324 10.4,12.4324324 Z M9.25714286,41.1891892 C6.28571429,41.1891892 5.14285714,42.0540541 5.48571429,44.8648649 C5.48571429,46.7027027 7.2,47.8918919 9.25714286,47.5675676 C10.4,47.5675676 11.3142857,46.7027027 11.8857143,45.6216216 C12.4571429,44.8648649 13.0285714,44.2162162 14.1714286,44 C14.5142857,44 15.4285714,43.6756757 15.4285714,44.2162162 C15.4285714,44.8648649 15.6571429,45.4054054 14.8571429,45.4054054 C13.9428571,45.4054054 13.9428571,45.9459459 13.9428571,46.4864865 C13.3714286,49.8378378 11.8857143,51.4594595 9.25714286,51.7837838 C5.48571429,52.3243243 2.51428571,50.9189189 1.02857143,48.1081081 C-0.114285714,45.9459459 -0.114285714,43.6756757 0.457142857,41.1891892 C1.37142857,38.4864865 3.65714286,37.2972973 6.62857143,37.0810811 C7.54285714,37.0810811 8.34285714,37.2972973 8.34285714,36 C8.34285714,35.1351351 10.1714286,35.6756757 10.9714286,35.6756757 C11.5428571,35.6756757 12.1142857,35.6756757 12.1142857,36.5405405 C12.1142857,37.0810811 12.1142857,37.6216216 12.1142857,38.1621622 C11.8857143,41.1891892 11.8857143,41.1891892 9.25714286,41.1891892 Z M15.0857143,5.83783784 C15.0857143,4.43243243 15.0857143,2.7027027 15.0857143,1.40540541 C15.0857143,0.216216216 15.6571429,0.216216216 16.5714286,0.216216216 C17.4857143,0.216216216 18.0571429,0.216216216 18.0571429,1.40540541 C18.0571429,4.43243243 18.0571429,7.45945946 18.0571429,10.4864865 C18.0571429,11.5675676 17.4857143,11.5675676 16.5714286,11.5675676 C15.6571429,11.5675676 15.0857143,11.5675676 15.0857143,10.4864865 C15.0857143,8.86486486 15.0857143,7.13513514 15.0857143,5.83783784 Z M4,5.83783784 C4,4.43243243 4,3.02702703 4,1.40540541 C4,0.540540541 4,0 5.14285714,0 C6.28571429,0 6.28571429,0.540540541 6.28571429,1.40540541 C6.28571429,4.43243243 6.28571429,7.13513514 6.28571429,10.2702703 C6.28571429,11.3513514 5.71428571,11.3513514 4.8,11.3513514 C4,11.5675676 4,11.027027 4,10.2702703 C4,8.86486486 4,7.13513514 4,5.83783784 Z M10.4,32.8648649 C10.9714286,32.8648649 11.8857143,32.8648649 12.4571429,32.8648649 C13.3714286,32.8648649 13.9428571,33.1891892 13.9428571,34.0540541 C13.9428571,35.1351351 13.3714286,35.1351351 12.4571429,35.1351351 C10.9714286,35.1351351 9.48571429,35.1351351 7.77142857,35.1351351 C6.85714286,35.1351351 6.62857143,34.8108108 6.62857143,34.0540541 C6.62857143,32.8648649 6.85714286,32.6486486 8.11428571,32.6486486 C8.91428571,32.8648649 9.48571429,32.8648649 10.4,32.8648649 Z" id="Shape"></path>
        </g>
    </g>
</svg>