<?xml version="1.0" encoding="UTF-8"?>
<svg width="64px" height="64px" viewBox="0 0 64 64" version="1.1" xmlns="http://www.w3.org/2000/svg" xmlns:xlink="http://www.w3.org/1999/xlink">
    <!-- Generator: Sketch 52.6 (67491) - http://www.bohemiancoding.com/sketch -->
    <title>resource-tools</title>
    <desc>Created with Sketch.</desc>
    <g id="resource-tools" stroke="none" stroke-width="1" fill="none" fill-rule="evenodd">
        <g id="icon-resource-tools" transform="translate(6.000000, 10.000000)" fill="#000000" fill-rule="nonzero">
            <path d="M8.00779727,15.0307018 C10.3391813,13.2149123 12.4678363,14.5263158 15.3060429,17.5526316 C15.6101365,17.8552632 15.8128655,17.3508772 16.1169591,17.3508772 C16.3196881,17.0482456 19.9688109,13.9210526 19.9688109,13.7192982 C20.2729045,13.4166667 20.2729045,13.2149123 19.9688109,12.9122807 C19.9688109,12.7105263 18.9551657,11.3991228 18.1442495,10.3903509 C13.4814815,4.13596491 31.1189084,0 28.2807018,0 C26.962963,0 21.2865497,0 20.4756335,0 C17.4346979,0.504385965 13.2787524,3.63157895 11.1500975,4.94298246 C8.31189084,6.96052632 7.29824561,8.07017544 6.99415205,8.07017544 C6.18323587,8.77631579 6.99415205,10.3903509 5.47368421,11.3991228 C4.15594542,12.9122807 3.14230019,11.9035088 2.33138402,12.7105263 C1.8245614,13.2149123 0.506822612,13.9210526 0.304093567,14.2236842 C-1.38777878e-17,14.5263158 -1.38777878e-17,15.0307018 0.304093567,15.5350877 C0.304093567,15.5350877 3.64912281,19.1666667 3.85185185,19.3684211 C4.15594542,19.6710526 4.9668616,19.872807 5.16959064,19.6710526 C5.67641326,19.1666667 6.791423,18.0570175 6.99415205,18.0570175 C7.29824561,17.8552632 6.99415205,15.7368421 8.00779727,15.0307018 Z M22.8070175,16.2412281 C22.6042885,16.0394737 22.0974659,16.0394737 21.7933723,16.2412281 L18.1442495,19.3684211 C17.9415205,19.6710526 17.9415205,20.1754386 18.1442495,20.377193 L39.7348928,44.9912281 C40.2417154,45.495614 40.9512671,45.495614 41.7621832,45.1929825 L44.3976608,43.1754386 C44.9044834,42.6710526 44.9044834,41.8640351 44.6003899,41.0570175 L22.8070175,16.2412281 Z M51.5945419,5.95175439 C51.3918129,4.64035088 50.8849903,4.94298246 50.3781676,5.44736842 C50.0740741,5.95175439 48.5536062,8.27192982 47.7426901,9.28070175 C47.2358674,10.3903509 45.7153996,12.4078947 42.7758285,10.3903509 C39.7348928,8.27192982 40.748538,6.75877193 41.2553606,5.64912281 C41.7621832,4.64035088 43.3840156,1.81578947 43.5867446,1.61403509 C43.8908382,1.31140351 43.5867446,0.302631579 42.5730994,0.504385965 C41.5594542,1.00877193 36.08577,3.12719298 35.2748538,6.45614035 C34.7680312,9.78508772 36.288499,12.7105263 33.4502924,15.7368421 L30.1052632,19.3684211 L33.754386,23.504386 L38.1130604,19.3684211 C39.2280702,18.3596491 41.2553606,17.3508772 43.3840156,17.8552632 C47.4385965,18.8640351 49.871345,17.3508772 51.3918129,14.5263158 C52.202729,12.1052632 51.8986355,7.26315789 51.5945419,5.95175439 Z M6.99415205,41.3596491 C6.48732943,41.8640351 6.48732943,42.872807 6.99415205,43.377193 L9.62962963,45.6973684 C10.1364522,46.2017544 10.9473684,46 11.6569201,45.495614 L24.4288499,33.0877193 L20.4756335,28.6491228 L6.99415205,41.3596491 Z" id="Shape"></path>
        </g>
    </g>
</svg>