<?xml version="1.0" encoding="UTF-8"?>
<svg width="64px" height="64px" viewBox="0 0 64 64" version="1.1" xmlns="http://www.w3.org/2000/svg" xmlns:xlink="http://www.w3.org/1999/xlink">
    <!-- Generator: Sketch 52.6 (67491) - http://www.bohemiancoding.com/sketch -->
    <title>road-markings-1</title>
    <desc>Created with Sketch.</desc>
    <g id="road-markings-1" stroke="none" stroke-width="1" fill="none" fill-rule="evenodd">
        <g id="icon-road-markings-1" transform="translate(6.000000, 12.000000)" fill="#000000" fill-rule="nonzero">
            <path d="M40.9237668,33.6094675 L42.0896861,40 L52,40 L41.2735426,0 L38.5919283,0 C37.309417,0 36.1434978,0 34.6278027,0 L36.4932735,10.295858 L26.3497758,4.85207101 L26.3497758,4.49704142 L26.3497758,4.85207101 L15.2735426,10.6508876 L17.0224215,0 C16.7892377,0 16.206278,0 15.8565022,0 L13.7578475,0 C13.1748879,0 12.5919283,0 12.0089686,0 C11.6591928,0 11.426009,0 11.426009,0 L10.7264574,0 L10.4932735,0.591715976 C10.4932735,0.946745562 10.1434978,0.946745562 10.1434978,1.18343195 C9.56053812,3.90532544 8.97757848,6.39053254 8.39461883,8.75739645 L0,40 L9.56053812,40 L10.7264574,33.964497 L26.3497758,25.443787 L40.9237668,33.6094675 Z M14.3408072,15.5029586 L26.3497758,8.75739645 L37.309417,15.147929 L39.7578475,27.2189349 L26.5829596,20 L26.5829596,19.6449704 L26.5829596,20 L12.5919283,27.5739645 L14.3408072,15.5029586 Z" id="Shape"></path>
        </g>
    </g>
</svg>