<?xml version="1.0" encoding="UTF-8"?>
<svg width="64px" height="64px" viewBox="0 0 64 64" version="1.1" xmlns="http://www.w3.org/2000/svg" xmlns:xlink="http://www.w3.org/1999/xlink">
    <!-- Generator: Sketch 52.6 (67491) - http://www.bohemiancoding.com/sketch -->
    <title>road-markings</title>
    <desc>Created with Sketch.</desc>
    <g id="road-markings" stroke="none" stroke-width="1" fill="none" fill-rule="evenodd">
        <g id="icon-road-markings" transform="translate(6.000000, 11.000000)" fill="#000000" fill-rule="nonzero">
            <path d="M51.6422018,40.6451613 C50.0917431,34.9794721 48.8990826,29.0674487 47.3486239,23.2785924 C45.559633,16.1348974 43.6513761,8.86803519 41.8623853,1.60117302 C41.8623853,0.985337243 41.266055,0.369501466 40.9082569,0.369501466 C39.1192661,0.369501466 37.3302752,0.369501466 35.1834862,0.369501466 C36.733945,7.88269795 37.9266055,15.3958944 39.1192661,22.6627566 C40.3119266,28.6979472 41.266055,34.7331378 42.4587156,40.6451613 C42.4587156,41.2609971 43.0550459,42 43.412844,42 C46.1559633,42 49.2568807,42 52,42 C52,41.2609971 52,41.0146628 51.6422018,40.6451613 Z M17.1743119,0 C15.266055,0 13.8348624,0 11.9266055,0 C10.733945,0 10.3761468,0.369501466 10.1376147,1.23167155 C8.58715596,7.26686217 7.03669725,13.3020528 5.48623853,19.2140762 C3.69724771,26.4809384 1.90825688,33.7478006 0,41.2609971 C2.74311927,41.2609971 5.24770642,41.2609971 7.63302752,41.2609971 C8.94495413,41.2609971 9.5412844,41.0146628 9.5412844,39.7829912 C11.0917431,31.1612903 12.5229358,23.0322581 14.0733945,14.5337243 C15.266055,10.0997067 15.9816514,5.04985337 17.1743119,0 Z M16.2201835,13.5483871 L22.0642202,13.5483871 L22.6605505,8.86803519 L17.1743119,8.86803519 L16.2201835,13.5483871 Z M34.2293578,8.86803519 L28.3853211,8.86803519 L29.1009174,13.5483871 L35.4220183,13.5483871 L34.2293578,8.86803519 Z M12.2844037,38.797654 L19.9174312,38.797654 L20.7522936,32.516129 L13.8348624,32.516129 L12.2844037,38.797654 Z M30.293578,32.516129 L30.8899083,38.797654 L39.1192661,38.797654 L37.5688073,32.516129 L30.293578,32.516129 Z" id="Shape"></path>
        </g>
    </g>
</svg>