<?xml version="1.0" encoding="UTF-8"?>
<svg width="64px" height="64px" viewBox="0 0 64 64" version="1.1" xmlns="http://www.w3.org/2000/svg" xmlns:xlink="http://www.w3.org/1999/xlink">
    <!-- Generator: Sketch 52.6 (67491) - http://www.bohemiancoding.com/sketch -->
    <title>route-start</title>
    <desc>Created with Sketch.</desc>
    <g id="route-start" stroke="none" stroke-width="1" fill="none" fill-rule="evenodd">
        <g id="icon-route-start" transform="translate(6.000000, 19.000000)" fill="#000000" fill-rule="nonzero">
            <path d="M11.3474576,10.8333333 L22.5847458,10.8333333 L22.5847458,24.375 C19.5,25.4583333 16.0847458,26 12.779661,26 C8.81355932,26 5.72881356,24.9166667 3.41525424,22.75 C1.21186441,20.475 0,17.1166667 0,13 C0,8.88333333 1.21186441,5.74166667 3.74576271,3.25 C5.94915254,1.08333333 9.36440678,0 13.5508475,0 C15.3135593,0 16.7457627,0.216666667 18.0677966,0.541666667 C19.5,0.758333333 20.9322034,1.08333333 21.8135593,1.625 L19.8305085,6.93333333 C17.8474576,6.06666667 15.8644068,5.525 13.5508475,5.525 C11.5677966,5.525 9.91525424,6.39166667 8.81355932,7.475 C7.71186441,8.88333333 7.05084746,10.5083333 7.05084746,13 C7.05084746,15.4916667 7.71186441,17.1166667 8.48305085,18.525 C9.69491525,19.6083333 11.0169492,20.475 12.779661,20.475 C13.8813559,20.475 14.7627119,20.475 15.5338983,20.2583333 L15.5338983,16.3583333 L11.3474576,16.3583333 L11.3474576,10.8333333 Z M52,13 C52,17.1166667 50.7881356,20.475 48.8050847,22.75 C46.6016949,24.9166667 43.5169492,26 39.5508475,26 C35.5847458,26 32.5,24.9166667 30.1864407,22.75 C27.9830508,20.475 27.1016949,17.1166667 27.1016949,13 C27.1016949,8.88333333 28.2033898,5.525 30.1864407,3.25 C32.5,1.08333333 35.5847458,0 39.5508475,0 C43.7372881,0 46.8220339,1.08333333 48.8050847,3.25 C50.7881356,5.525 52,8.88333333 52,13 Z M34.1525424,13 C34.1525424,17.9833333 35.9152542,20.475 39.220339,20.475 C40.9830508,20.475 42.3050847,19.9333333 43.1864407,18.85 C44.0677966,17.7666667 44.6186441,15.8166667 44.6186441,13.325 C44.6186441,10.8333333 44.0677966,8.88333333 43.1864407,7.69166667 C42.3050847,6.60833333 40.9830508,5.74166667 39.220339,5.74166667 C35.9152542,5.525 34.1525424,8.01666667 34.1525424,13 Z" id="Shape"></path>
        </g>
    </g>
</svg>