<?xml version="1.0" encoding="UTF-8"?>
<svg width="64px" height="64px" viewBox="0 0 64 64" version="1.1" xmlns="http://www.w3.org/2000/svg" xmlns:xlink="http://www.w3.org/1999/xlink">
    <!-- Generator: Sketch 52.6 (67491) - http://www.bohemiancoding.com/sketch -->
    <title>route</title>
    <desc>Created with Sketch.</desc>
    <g id="route" stroke="none" stroke-width="1" fill="none" fill-rule="evenodd">
        <g id="icon-route" transform="translate(12.000000, 6.000000)" fill="#000000" fill-rule="nonzero">
            <path d="M20.6824147,0 L7.76902887,12.8176353 L17.4278215,12.8176353 C17.4278215,17.6112224 17.2178478,21.8837675 17.4278215,26.1563126 C17.7427822,29.2825651 16.3779528,32.2004008 13.9632546,34.3887776 C9.13385827,38.6613226 4.82939633,43.1422846 0,47.9358717 L4.30446194,52 C10.183727,46.1643287 16.167979,40.2244489 21.7322835,34.5971944 C22.5721785,33.5551102 23.0971129,32.2004008 23.0971129,30.9498998 C23.0971129,25.8436874 23.0971129,20.7374749 23.0971129,15.7354709 C23.0971129,15.4228457 23.0971129,14.9018036 23.0971129,14.5891784 C23.4120735,13.3386774 24.7769029,12.1923848 26.351706,12.8176353 C28.7664042,12.8176353 30.8661417,12.8176353 33.2808399,12.8176353 L20.6824147,0 Z M29.816273,37.6192385 L26.8766404,40.745491 L37.0603675,51.1663327 L40,47.9358717 L29.816273,37.6192385 Z" id="Shape"></path>
        </g>
    </g>
</svg>