<?xml version="1.0" encoding="UTF-8"?>
<svg width="64px" height="64px" viewBox="0 0 64 64" version="1.1" xmlns="http://www.w3.org/2000/svg" xmlns:xlink="http://www.w3.org/1999/xlink">
    <!-- Generator: Sketch 52.6 (67491) - http://www.bohemiancoding.com/sketch -->
    <title>route-finish</title>
    <desc>Created with Sketch.</desc>
    <g id="route-finish" stroke="none" stroke-width="1" fill="none" fill-rule="evenodd">
        <g id="icon-route-finish" transform="translate(8.000000, 7.000000)" fill="#000000" fill-rule="nonzero">
            <path d="M47.7991632,20.0980392 C47.7991632,15.2941176 47.7991632,10.5882353 47.7991632,6.07843137 C47.7991632,4.01960784 47.7991632,2.05882353 47.7991632,0 C47.7991632,0 47.7991632,0 47.5983264,0 C47.2970711,0.294117647 47.0962343,0.490196078 46.7949791,0.784313725 C44.6861925,2.54901961 42.6778243,4.31372549 40.0669456,5.29411765 C38.8619247,5.78431373 37.2552301,6.2745098 35.748954,6.56862745 C33.9414226,6.76470588 32.1338912,6.2745098 30.6276151,5.58823529 C28.8200837,4.80392157 27.0125523,4.01960784 25.2050209,3.33333333 C24.2008368,3.03921569 23.0962343,2.74509804 21.8912134,2.54901961 C20.7866109,2.25490196 20.083682,2.05882353 18.9790795,2.25490196 C15.665272,2.25490196 12.3514644,2.74509804 9.0376569,4.31372549 C6.42677824,5.29411765 4.11715481,6.76470588 2.10878661,8.52941176 C1.30543933,8.82352941 0.80334728,9.60784314 0,10.2941176 C0,10.2941176 0,10.5882353 0,10.5882353 C0.30125523,11.5686275 0.80334728,12.5490196 1.30543933,13.5294118 C2.61087866,17.5490196 4.11715481,21.5686275 5.62343096,25.8823529 C6.92887029,29.1176471 7.93305439,32.3529412 9.23849372,35.6862745 C10.2426778,38.627451 11.3472803,41.6666667 12.5523013,44.4117647 C13.3556485,46.1764706 13.8577406,47.7545249 14.6610879,49.5192308 C15.665272,49.2251131 16.6694561,48.734917 17.9748954,48.4407994 C18.2761506,48.4407994 18.4769874,48.244721 18.7782427,48.244721 C18.4769874,47.4604072 18.2761506,47.254902 17.9748954,46.4705882 C16.9707113,43.7254902 16.167364,41.1764706 15.1631799,38.4313725 C15.1631799,38.1372549 15.1631799,38.1372549 15.1631799,37.9411765 C17.2719665,36.372549 19.2803347,35.1960784 21.5899582,34.4117647 C22.8953975,33.9215686 24.4016736,33.9215686 25.707113,34.1176471 C28.5188285,34.1176471 31.1297071,34.9019608 33.6401674,35.6862745 C35.4476987,36.1764706 37.2552301,36.1764706 38.8619247,35.8823529 C41.6736402,35.6862745 44.1841004,34.9019608 46.7949791,33.627451 C47.2970711,33.4313725 47.5983264,33.1372549 47.7991632,33.1372549 C47.7991632,28.9215686 47.7991632,24.9019608 47.7991632,20.5882353 C48.1004184,20.3921569 47.7991632,20.0980392 47.7991632,20.0980392 Z M13.3556485,7.05882353 C15.9665272,6.2745098 18.2761506,6.07843137 20.7866109,6.07843137 C21.0878661,6.07843137 21.3891213,6.07843137 21.5899582,6.56862745 C22.0920502,8.52941176 22.5941423,10.2941176 23.0962343,12.3529412 C23.0962343,12.5490196 23.0962343,12.8431373 23.3974895,13.0392157 C20.083682,12.8431373 16.6694561,13.3333333 13.8577406,14.3137255 C12.8535565,12.0588235 12.0502092,10.0980392 11.0460251,7.84313725 C11.8493724,7.54901961 12.5523013,7.05882353 13.3556485,7.05882353 Z M11.0460251,27.3529412 C10.8451883,26.6666667 10.5439331,25.5882353 10.041841,24.9019608 C9.23849372,22.6470588 8.53556485,20.3921569 7.73221757,18.1372549 C7.73221757,17.8431373 7.73221757,17.5490196 7.73221757,17.5490196 C9.53974895,16.372549 11.3472803,15.2941176 13.3556485,14.6078431 C14.6610879,17.5490196 15.9665272,20.5882353 16.9707113,23.627451 C14.9623431,24.4117647 12.8535565,25.8823529 11.0460251,27.3529412 Z M27.8158996,29.9019608 C24.9037657,29.6078431 22.3933054,29.4117647 19.7824268,30.3921569 C18.9790795,28.1372549 17.9748954,25.8823529 17.2719665,23.8235294 C18.4769874,23.3333333 20.083682,22.8431373 21.5899582,22.8431373 C23.0962343,22.8431373 24.7029289,22.8431373 26.209205,22.8431373 C25.4058577,19.6078431 24.4016736,16.372549 23.6987448,13.0392157 C26.209205,13.5294118 28.5188285,14.6078431 31.1297071,15.5882353 C30.6276151,13.3333333 30.125523,11.0784314 29.5230126,9.01960784 C31.1297071,9.31372549 32.4351464,9.80392157 33.9414226,10.0980392 C35.4476987,10.2941176 37.0543933,10.0980392 38.5606695,9.80392157 C38.5606695,10.2941176 38.5606695,10.7843137 38.8619247,11.0784314 C38.8619247,12.3529412 39.0627615,13.3333333 39.0627615,14.6078431 C39.0627615,15.0980392 39.0627615,15.5882353 39.0627615,16.0784314 C39.0627615,16.372549 38.8619247,16.372549 38.8619247,16.5686275 C36.5523013,17.0588235 34.4435146,16.8627451 32.4351464,16.0784314 C32.1338912,15.8823529 31.6317992,15.8823529 31.1297071,15.5882353 C31.832636,18.627451 32.4351464,21.372549 33.1380753,24.4117647 C30.8284519,23.8235294 28.8200837,22.8431373 26.5104603,22.8431373 C26.5104603,25.3921569 27.0125523,27.6470588 27.8158996,29.9019608 Z M38.5606695,31.6666667 C37.2552301,31.8627451 35.9497908,31.6666667 34.7447699,31.6666667 C34.4435146,31.6666667 34.4435146,31.372549 34.4435146,31.1764706 C34.2426778,30.0980392 33.9414226,29.1176471 33.6401674,28.4313725 C33.4393305,27.1568627 33.1380753,25.8823529 32.9372385,24.6078431 C34.9456067,25.0980392 37.2552301,25.0980392 39.3640167,24.9019608 C39.5648536,27.1568627 39.5648536,29.4117647 39.8661088,31.6666667 C39.3640167,31.6666667 39.0627615,31.6666667 38.5606695,31.6666667 Z M43.1799163,23.3333333 C41.874477,23.8235294 40.6694561,24.1176471 39.3640167,24.6078431 C39.3640167,23.8235294 39.0627615,23.1372549 39.0627615,22.3529412 C39.0627615,20.8823529 38.8619247,19.3137255 38.8619247,17.8431373 C38.8619247,17.8431373 38.8619247,17.5490196 38.8619247,17.5490196 C38.5606695,16.8627451 38.8619247,16.5686275 39.5648536,16.0784314 C41.1715481,15.2941176 42.376569,14.8039216 43.9832636,14.1176471 C43.9832636,16.0784314 43.9832636,18.3333333 43.9832636,20.5882353 C43.9832636,21.0784314 43.9832636,21.5686275 43.9832636,22.1568627 C43.9832636,23.1372549 43.6820084,23.3333333 43.1799163,23.3333333 Z" id="Shape"></path>
        </g>
    </g>
</svg>