<?xml version="1.0" encoding="UTF-8"?>
<svg width="64px" height="64px" viewBox="0 0 64 64" version="1.1" xmlns="http://www.w3.org/2000/svg" xmlns:xlink="http://www.w3.org/1999/xlink">
    <!-- Generator: Sketch 52.6 (67491) - http://www.bohemiancoding.com/sketch -->
    <title>schedule-date-time</title>
    <desc>Created with Sketch.</desc>
    <g id="schedule-date-time" stroke="none" stroke-width="1" fill="none" fill-rule="evenodd">
        <g id="icon-schedule-date-time" transform="translate(6.000000, 6.000000)" fill="#000000" fill-rule="nonzero">
            <path d="M11.9528487,9.6484375 C11.9528487,11.171875 13.0766208,12.1875 14.302554,12.1875 C15.9371316,12.1875 16.6522593,11.171875 16.6522593,9.6484375 C16.6522593,7.515625 16.6522593,5.484375 16.6522593,3.3515625 C16.6522593,1.828125 16.4479371,0.8125 15.1198428,0.3046875 C14.6090373,0 14.0982318,0 13.5874263,0 C12.259332,0.8125 11.7485265,1.828125 11.9528487,3.3515625 C11.9528487,5.484375 11.9528487,7.515625 11.9528487,9.6484375 Z M34.7347741,9.6484375 C34.7347741,11.171875 35.7563851,12.1875 37.0844794,12.1875 C38.6168959,12.1875 39.4341847,11.171875 39.4341847,9.6484375 C39.4341847,7.515625 39.4341847,5.484375 39.4341847,3.3515625 C39.4341847,1.828125 39.2298625,0.8125 37.9017682,0.3046875 C37.3909627,0.3046875 36.8801572,0.3046875 36.2671906,0.3046875 C35.0412574,1.015625 34.4282908,2.03125 34.7347741,3.3515625 C34.7347741,5.484375 34.7347741,7.515625 34.7347741,9.6484375 Z M16.9587426,24.171875 C14.6090373,24.171875 12.259332,24.171875 10.1139489,24.171875 C9.60314342,24.171875 9.60314342,24.4765625 9.60314342,24.6796875 C9.60314342,27.015625 9.60314342,29.3515625 9.60314342,31.484375 C9.60314342,31.9921875 9.90962672,31.9921875 10.1139489,31.9921875 C11.237721,31.9921875 12.4636542,31.9921875 13.5874263,31.9921875 C14.6090373,31.9921875 15.9371316,31.9921875 16.9587426,31.9921875 C17.4695481,31.9921875 17.4695481,31.6875 17.4695481,31.484375 C17.4695481,29.1484375 17.4695481,26.8125 17.4695481,24.6796875 C17.4695481,24.4765625 17.4695481,24.171875 16.9587426,24.171875 Z M22.475442,32.1953125 C21.9646365,32.1953125 21.6581532,31.9921875 21.6581532,31.484375 C21.6581532,29.1484375 21.6581532,27.015625 21.6581532,24.6796875 C21.6581532,24.171875 21.9646365,23.96875 22.475442,23.96875 C23.497053,23.96875 24.8251473,23.96875 25.8467583,23.96875 C26.8683694,23.96875 26.3575639,23.96875 27.3791749,23.96875 C27.8899804,23.96875 28.1964637,23.96875 28.1964637,24.6796875 L22.475442,32.1953125 Z M16.9587426,35.6484375 C15.9371316,35.6484375 14.6090373,35.6484375 13.5874263,35.6484375 C12.259332,35.6484375 11.237721,35.6484375 9.90962672,35.6484375 C9.39882122,35.6484375 9.39882122,35.6484375 9.39882122,36.15625 C9.39882122,38.4921875 9.39882122,40.828125 9.39882122,43.1640625 C9.39882122,43.671875 9.39882122,43.671875 9.90962672,43.671875 C12.259332,43.671875 14.6090373,43.671875 16.9587426,43.671875 C17.4695481,43.671875 17.4695481,43.671875 17.4695481,43.1640625 C17.4695481,40.828125 17.4695481,38.4921875 17.4695481,36.15625 C17.4695481,35.6484375 17.4695481,35.6484375 16.9587426,35.6484375 Z M38.1060904,24.984375 C30.546169,24.984375 24.518664,30.9765625 24.518664,38.4921875 C24.518664,46.0078125 30.546169,52 38.1060904,52 C45.7681729,52 51.6935167,46.0078125 51.6935167,38.4921875 C51.6935167,30.9765625 45.7681729,24.984375 38.1060904,24.984375 Z M38.1060904,47.8359375 C32.8958743,47.8359375 28.7072692,43.671875 28.7072692,38.4921875 C28.7072692,33.3125 32.8958743,29.1484375 38.1060904,29.1484375 C43.4184676,29.1484375 47.5049116,33.3125 47.5049116,38.4921875 C47.5049116,43.671875 43.4184676,47.8359375 38.1060904,47.8359375 Z M44.6444008,34.0234375 C44.4400786,34.0234375 44.1335953,34.0234375 44.1335953,34.328125 L39.2298625,36.96875 C38.9233792,36.96875 38.6168959,36.6640625 38.4125737,36.6640625 C37.3909627,36.6640625 36.5736739,37.4765625 36.5736739,38.4921875 C36.5736739,39.5078125 37.3909627,40.3203125 38.4125737,40.3203125 C39.2298625,40.3203125 39.9449902,39.8125 40.2514735,39.3046875 L45.1552063,36.6640625 C45.7681729,36.359375 45.9724951,36.15625 45.9724951,35.34375 C45.7681729,34.53125 45.1552063,34.0234375 44.6444008,34.0234375 Z M21.9646365,46.8203125 C16.4479371,46.8203125 10.9312377,46.8203125 5.72102161,46.8203125 C4.90373281,46.8203125 4.69941061,46.8203125 4.69941061,46.0078125 C4.69941061,37.6796875 4.69941061,29.3515625 4.69941061,21.328125 C4.69941061,20.515625 4.90373281,20.3125 5.72102161,20.3125 C19.0019646,20.3125 32.6915521,20.3125 45.9724951,20.3125 C46.7897839,20.3125 46.9941061,20.515625 46.9941061,21.328125 C46.9941061,22.140625 46.9941061,22.8515625 46.9941061,23.6640625 C48.8330059,24.6796875 50.4675835,26 52,27.5234375 C52,21.0234375 52,14.3203125 52,7.8203125 C51.4891945,5.484375 50.1611002,4.46875 47.8113949,4.46875 C46.7897839,4.46875 45.4616896,4.46875 44.4400786,4.46875 C43.1119843,4.46875 42.805501,4.671875 42.805501,5.9921875 C42.805501,7.0078125 42.805501,8.328125 42.805501,9.34375 C42.805501,9.8515625 42.805501,10.6640625 42.6011788,11.171875 C41.78389,13.8125 38.9233792,15.640625 35.7563851,14.828125 C33.4066798,14.3203125 31.8742633,12.1875 31.8742633,9.6484375 C31.8742633,8.328125 31.8742633,7.0078125 31.8742633,5.6875 C31.8742633,4.46875 31.56778,4.1640625 30.3418468,4.1640625 C30.3418468,4.1640625 30.0353635,4.1640625 30.0353635,4.1640625 C27.1748527,4.1640625 24.3143418,4.1640625 21.3516699,4.1640625 C19.8192534,4.1640625 19.6149312,4.46875 19.6149312,5.9921875 C19.6149312,7.0078125 19.6149312,8.0234375 19.6149312,9.140625 C19.6149312,9.6484375 19.6149312,10.359375 19.3084479,10.96875 C19.0019646,13.8125 16.1414538,15.640625 13.280943,14.828125 C10.9312377,14.3203125 9.09233792,12.1875 9.09233792,9.6484375 C9.09233792,8.328125 9.09233792,7.0078125 9.09233792,5.6875 C9.09233792,4.46875 8.88801572,4.1640625 7.55992141,4.1640625 C6.53831041,4.1640625 5.21021611,4.1640625 4.18860511,4.1640625 C1.7367387,4.1640625 0.510805501,5.1796875 0,7.515625 C0,21.328125 0,35.140625 0,48.6484375 C0.2043222,49.359375 0.2043222,49.96875 0.715127701,50.6796875 C1.5324165,51.4921875 2.5540275,51.6953125 3.88212181,51.6953125 C10.9312377,51.6953125 18.2868369,51.6953125 25.3359528,51.6953125 C24.0078585,50.4765625 22.6797642,48.6484375 21.9646365,46.8203125 Z" id="Shape"></path>
        </g>
    </g>
</svg>