<?xml version="1.0" encoding="UTF-8"?>
<svg width="64px" height="64px" viewBox="0 0 64 64" version="1.1" xmlns="http://www.w3.org/2000/svg" xmlns:xlink="http://www.w3.org/1999/xlink">
    <!-- Generator: Sketch 52.6 (67491) - http://www.bohemiancoding.com/sketch -->
    <title>schedule-done</title>
    <desc>Created with Sketch.</desc>
    <g id="schedule-done" stroke="none" stroke-width="1" fill="none" fill-rule="evenodd">
        <g id="icon-schedule-done" transform="translate(6.000000, 6.000000)" fill="#000000" fill-rule="nonzero">
            <path d="M12.3320158,9.39882122 C12.3320158,10.9312377 13.3596838,11.9528487 14.6956522,11.9528487 C16.2371542,11.9528487 17.0592885,10.9312377 17.0592885,9.39882122 C17.0592885,7.25343811 17.0592885,5.21021611 17.0592885,3.06483301 C17.0592885,1.5324165 16.7509881,0.510805501 15.5177866,0 C14.9011858,0 14.3873518,0 13.8735178,0 C12.5375494,0.510805501 12.0237154,1.5324165 12.3320158,3.06483301 C12.3320158,5.21021611 12.3320158,7.25343811 12.3320158,9.39882122 Z M35.2490119,9.39882122 C35.2490119,10.9312377 36.2766798,11.9528487 37.6126482,11.9528487 C39.1541502,11.9528487 39.9762846,10.9312377 39.9762846,9.39882122 C39.9762846,7.25343811 39.9762846,5.21021611 39.9762846,3.06483301 C39.9762846,1.5324165 39.6679842,0.510805501 38.3320158,0 C37.8181818,0 37.3043478,0 36.7905138,0 C35.4545455,0.715127701 34.9407115,1.8388998 35.2490119,3.06483301 C35.2490119,5.21021611 35.2490119,7.25343811 35.2490119,9.39882122 Z M47.7865613,3.88212181 C46.7588933,3.88212181 45.4229249,3.88212181 44.3952569,3.88212181 C43.0592885,3.88212181 42.8537549,4.18860511 42.8537549,5.41453831 C42.8537549,6.53831041 42.8537549,7.76424361 42.8537549,8.88801572 C42.8537549,9.39882122 42.8537549,10.21611 42.5454545,10.7269155 C41.826087,13.5874263 38.8458498,15.4263261 35.9683794,14.6090373 C33.6047431,14.0982318 32.0632411,11.9528487 32.0632411,9.39882122 C32.0632411,8.07072692 32.0632411,6.74263261 32.0632411,5.41453831 C32.0632411,4.18860511 31.7549407,3.88212181 30.5217391,3.88212181 C30.5217391,3.88212181 30.2134387,3.88212181 30.2134387,3.88212181 C27.3359684,3.88212181 24.458498,3.88212181 21.4782609,3.88212181 C19.9367589,3.88212181 19.7312253,4.18860511 19.7312253,5.72102161 C19.7312253,6.74263261 19.7312253,7.76424361 19.7312253,8.88801572 C19.7312253,9.39882122 19.7312253,10.21611 19.4229249,10.7269155 C19.1146245,13.5874263 16.2371542,15.4263261 13.3596838,14.9155206 C10.9960474,14.302554 9.14624506,12.259332 9.14624506,9.60314342 C9.14624506,8.37721022 9.14624506,7.04911591 9.14624506,5.72102161 C9.14624506,4.39292731 8.94071146,4.18860511 7.60474308,4.18860511 C6.5770751,4.18860511 5.24110672,4.18860511 4.21343874,4.18860511 C1.74703557,4.18860511 0.513833992,5.21021611 0,7.55992141 C0,21.453831 0,35.2455796 0,48.8330059 C0.205533597,49.6502947 0.205533597,50.1611002 0.719367589,50.978389 C1.54150198,51.7956778 2.56916996,52 3.90513834,52 C18.6007905,52 33.3992095,52 48.0948617,52 C50.458498,52 51.486166,51.1827112 52,48.8330059 C52,35.0412574 52,21.1473477 52,7.55992141 C51.7944664,5.21021611 50.2529644,4.18860511 47.7865613,3.88212181 Z M47.2727273,45.9724951 C47.2727273,46.7897839 47.0671937,46.9941061 46.2450593,46.9941061 C39.4624506,46.9941061 32.8853755,46.9941061 26,46.9941061 C19.1146245,46.9941061 12.5375494,46.9941061 5.75494071,46.9941061 C4.93280632,46.9941061 4.93280632,46.7897839 4.93280632,45.9724951 C4.93280632,37.5952849 4.93280632,29.2180747 4.93280632,21.1473477 C4.93280632,20.3300589 4.93280632,20.1257367 5.75494071,20.1257367 C19.1146245,20.1257367 32.8853755,20.1257367 46.2450593,20.1257367 C47.0671937,20.1257367 47.2727273,20.3300589 47.2727273,21.1473477 C47.2727273,29.2180747 47.2727273,37.5952849 47.2727273,45.9724951 Z M21.4782609,39.2298625 L15.2094862,31.8742633 L12.3320158,34.2239686 L22.0948617,44.4400786 L39.9762846,26.3575639 L37.0988142,23.2927308 L21.4782609,39.2298625 Z" id="Shape"></path>
        </g>
    </g>
</svg>