<?xml version="1.0" encoding="UTF-8"?>
<svg width="64px" height="64px" viewBox="0 0 64 64" version="1.1" xmlns="http://www.w3.org/2000/svg" xmlns:xlink="http://www.w3.org/1999/xlink">
    <!-- Generator: Sketch 52.6 (67491) - http://www.bohemiancoding.com/sketch -->
    <title>schedule-timer</title>
    <desc>Created with Sketch.</desc>
    <g id="schedule-timer" stroke="none" stroke-width="1" fill="none" fill-rule="evenodd">
        <g id="icon-schedule-timer" transform="translate(6.000000, 6.000000)" fill="#000000" fill-rule="nonzero">
            <path d="M26,0 C11.6260163,0 0,11.6260163 0,26 C0,40.3739837 11.6260163,52 26,52 C40.3739837,52 52,40.3739837 52,26 C52,11.6260163 40.3739837,0 26,0 Z M26,46.6097561 C14.5853659,46.6097561 5.3902439,37.4146341 5.3902439,26 C5.3902439,14.6910569 14.5853659,5.49593496 26,5.49593496 L26,26 L44.3902439,16.804878 C45.7642276,19.5528455 46.6097561,22.7235772 46.6097561,26 C46.6097561,37.4146341 37.4146341,46.6097561 26,46.6097561 Z" id="Shape"></path>
        </g>
    </g>
</svg>