<?xml version="1.0" encoding="UTF-8"?>
<svg width="64px" height="64px" viewBox="0 0 64 64" version="1.1" xmlns="http://www.w3.org/2000/svg" xmlns:xlink="http://www.w3.org/1999/xlink">
    <!-- Generator: Sketch 52.6 (67491) - http://www.bohemiancoding.com/sketch -->
    <title>search-location</title>
    <desc>Created with Sketch.</desc>
    <g id="search-location" stroke="none" stroke-width="1" fill="none" fill-rule="evenodd">
        <g id="icon-search-location" transform="translate(21.000000, 6.000000)" fill="#000000" fill-rule="nonzero">
            <path d="M20.6697674,36.6640625 C21.4883721,35.140625 22,33.515625 22,31.6875 C22,25.6953125 16.9860465,20.8203125 10.9488372,20.8203125 C5.01395349,20.8203125 0,25.6953125 0,31.6875 C0,33.515625 0.511627907,35.140625 1.33023256,36.6640625 C2.66046512,39.8125 5.21860465,44.6875 11.255814,52 C16.4744186,44.6875 19.3395349,39.8125 20.6697674,36.6640625 Z M10.744186,27.5234375 C13.0976744,27.5234375 14.9395349,29.3515625 14.9395349,31.6875 C14.9395349,34.0234375 13.0976744,35.8515625 10.744186,35.8515625 C8.39069767,35.8515625 6.54883721,34.0234375 6.54883721,31.6875 C6.54883721,29.3515625 8.59534884,27.5234375 10.744186,27.5234375 Z M6.75348837,4.46875 C7.36744186,4.46875 7.57209302,4.1640625 7.87906977,3.65625 C8.08372093,2.84375 8.59534884,2.3359375 9.41395349,2.3359375 C10.2325581,2.03125 10.744186,2.640625 10.9488372,3.1484375 C11.255814,3.65625 11.255814,3.859375 10.4372093,4.46875 C10.2325581,4.9765625 9.72093023,5.1796875 9.20930233,5.484375 C8.39069767,5.9921875 7.87906977,6.8046875 7.87906977,7.8203125 C7.87906977,8.53125 8.08372093,9.140625 8.90232558,9.140625 C9.72093023,9.34375 9.9255814,8.8359375 10.2325581,8.328125 C10.2325581,7.8203125 10.744186,7.3125 11.255814,7.0078125 C11.7674419,6.8046875 12.2790698,6.1953125 12.7906977,5.9921875 C14.427907,4.671875 14.427907,2.640625 12.7906977,1.3203125 C12.0744186,0.8125 11.255814,0.3046875 10.2325581,0.3046875 C9.72093023,0 9.20930233,0 8.59534884,0 C7.06046512,0.5078125 6.0372093,1.3203125 5.5255814,2.640625 C5.21860465,3.65625 5.73023256,4.46875 6.75348837,4.46875 Z M8.59534884,10.15625 C7.57209302,10.15625 6.75348837,10.96875 6.54883721,11.6796875 C6.54883721,12.6953125 7.06046512,13.5078125 8.08372093,13.5078125 C9.20930233,13.5078125 9.9255814,13 10.2325581,11.984375 C10.4372093,11.171875 9.72093023,10.15625 8.59534884,10.15625 Z M12.7906977,10.359375 C12.2790698,10.96875 12.5860465,11.4765625 13.0976744,11.6796875 C13.3023256,11.6796875 13.6093023,11.6796875 13.9162791,11.4765625 C14.1209302,11.171875 14.6325581,10.96875 15.144186,10.96875 C15.7581395,10.96875 15.9627907,11.4765625 15.9627907,11.6796875 C15.9627907,12.1875 15.7581395,12.4921875 15.4511628,12.4921875 C14.9395349,13 14.6325581,13 14.427907,13 C13.6093023,13.3046875 13.0976744,13.5078125 12.7906977,14.015625 C12.5860465,14.5234375 12.7906977,14.828125 13.0976744,15.03125 C13.3023256,15.640625 13.9162791,15.3359375 14.1209302,15.03125 C14.427907,14.828125 14.6325581,14.5234375 15.144186,14.5234375 C15.7581395,14.5234375 15.9627907,14.3203125 16.4744186,14.3203125 C17.8046512,13.8125 18.3162791,12.4921875 17.4976744,11.4765625 C17.2930233,10.96875 16.7813953,10.359375 16.2697674,10.15625 C15.9627907,10.15625 15.4511628,9.8515625 15.144186,9.8515625 C14.1209302,9.34375 13.3023256,9.6484375 12.7906977,10.359375 Z M11.255814,16.3515625 C10.9488372,16.859375 11.255814,17.671875 11.7674419,17.9765625 C12.2790698,18.1796875 13.0976744,17.9765625 13.3023256,17.46875 C13.6093023,16.859375 13.3023256,16.1484375 12.7906977,15.84375 C12.2790698,15.640625 11.5627907,15.640625 11.255814,16.3515625 Z" id="Shape"></path>
        </g>
    </g>
</svg>