<?xml version="1.0" encoding="UTF-8"?>
<svg width="64px" height="64px" viewBox="0 0 64 64" version="1.1" xmlns="http://www.w3.org/2000/svg" xmlns:xlink="http://www.w3.org/1999/xlink">
    <!-- Generator: Sketch 52.6 (67491) - http://www.bohemiancoding.com/sketch -->
    <title>search-unknown</title>
    <desc>Created with Sketch.</desc>
    <g id="search-unknown" stroke="none" stroke-width="1" fill="none" fill-rule="evenodd">
        <g id="icon-search-unknown" transform="translate(14.000000, 6.000000)" fill="#000000" fill-rule="nonzero">
            <path d="M4.01142857,12.5905512 C5.65714286,12.5905512 6.68571429,11.5669291 7.2,10.2362205 C8.02285714,8.08661417 9.56571429,6.85826772 11.7257143,6.5511811 C13.5771429,6.24409449 15.4285714,7.06299213 16.1485714,8.5984252 C16.9714286,10.2362205 16.6628571,11.5669291 14.8114286,13.1023622 C13.5771429,13.9212598 12.24,14.9448819 10.9028571,15.7637795 C8.53714286,17.6062992 6.99428571,19.6535433 6.68571429,22.8267717 C6.37714286,24.8740157 7.50857143,26.2047244 9.36,26.7165354 C11.2114286,27.2283465 12.7542857,26.511811 13.2685714,24.3622047 C13.7828571,22.3149606 15.12,20.984252 16.6628571,19.9606299 C18.3085714,18.8346457 19.5428571,17.8110236 20.88,16.7874016 C25.4057143,13.1023622 25.0971429,7.06299213 20.88,3.37795276 C18.8228571,1.53543307 16.4571429,0.818897638 13.5771429,0.307086614 C11.9314286,1.38777878e-17 10.3885714,1.38777878e-17 9.05142857,0.307086614 C4.83428571,1.33070866 1.64571429,3.37795276 0.411428571,7.57480315 C-0.72,10.4409449 1.13142857,12.7952756 4.01142857,12.5905512 Z M9.36,29.0708661 C6.68571429,28.8661417 3.80571429,31.2204724 3.49714286,33.7795276 C3.29142857,36.4409449 5.34857143,39 8.22857143,39.3070866 C11.2114286,39.6141732 13.7828571,37.4645669 14.0914286,34.8031496 C14.2971429,32.2440945 11.9314286,29.5826772 9.36,29.0708661 Z M21.1885714,30.0944882 C19.8514286,31.7322835 20.3657143,33.5748031 22.2171429,34.0866142 C23.2457143,34.2913386 24.0685714,34.0866142 24.8914286,33.2677165 C25.92,32.2440945 27.2571429,31.7322835 28.5942857,31.9370079 C29.8285714,32.2440945 30.6514286,33.0629921 30.96,34.2913386 C30.96,35.6220472 30.3428571,36.4409449 29.1085714,36.6456693 C27.9771429,36.9527559 26.9485714,37.2598425 25.92,37.4645669 C24.0685714,37.976378 22.5257143,39 21.3942857,40.6377953 C20.88,41.9685039 21.1885714,42.992126 22.2171429,43.8110236 C23.2457143,44.5275591 24.3771429,44.3228346 25.4057143,43.1968504 C26.1257143,42.1732283 27.2571429,41.6614173 28.5942857,41.3543307 C29.6228571,41.1496063 30.96,40.8425197 31.9885714,40.3307087 C35.6914286,39 36.9257143,35.4173228 35.1771429,31.9370079 C34.3542857,30.4015748 33.0171429,29.0708661 31.4742857,28.2519685 C30.3428571,28.0472441 29.6228571,27.5354331 28.5942857,27.2283465 C25.4057143,27.2283465 23.04,27.7401575 21.1885714,30.0944882 Z M16.6628571,47.1889764 C15.9428571,48.7244094 16.4571429,50.8740157 18.3085714,51.5905512 C19.8514286,52.4094488 22.0114286,51.8976378 23.04,50.3622047 C23.76,48.7244094 23.04,46.3700787 21.3942857,45.5511811 C19.5428571,44.8346457 17.4857143,45.5511811 16.6628571,47.1889764 Z" id="Shape"></path>
        </g>
    </g>
</svg>