<?xml version="1.0" encoding="UTF-8"?>
<svg width="64px" height="64px" viewBox="0 0 64 64" version="1.1" xmlns="http://www.w3.org/2000/svg" xmlns:xlink="http://www.w3.org/1999/xlink">
    <!-- Generator: Sketch 52.6 (67491) - http://www.bohemiancoding.com/sketch -->
    <title>search</title>
    <desc>Created with Sketch.</desc>
    <g id="search" stroke="none" stroke-width="1" fill="none" fill-rule="evenodd">
        <g id="icon-search" transform="translate(6.000000, 6.000000)" fill="#000000" fill-rule="nonzero">
            <path d="M38.4125737,34.328125 C41.2730845,30.671875 42.9076621,26.3046875 42.9076621,21.328125 C42.9076621,9.6484375 33.2023576,0 21.453831,0 C9.70530452,0 0,9.6484375 0,21.328125 C0,33.0078125 9.70530452,42.65625 21.453831,42.65625 C26.459725,42.65625 30.8526523,41.03125 34.2239686,38.1875 L48.1178782,52 L52,48.140625 L38.4125737,34.328125 Z M21.453831,37.171875 C12.5658153,37.171875 5.51669941,30.1640625 5.51669941,21.328125 C5.51669941,12.4921875 12.5658153,5.484375 21.453831,5.484375 C30.3418468,5.484375 37.3909627,12.4921875 37.3909627,21.328125 C37.3909627,30.1640625 30.3418468,37.171875 21.453831,37.171875 Z" id="Shape"></path>
        </g>
    </g>
</svg>