<?xml version="1.0" encoding="UTF-8"?>
<svg width="64px" height="64px" viewBox="0 0 64 64" version="1.1" xmlns="http://www.w3.org/2000/svg" xmlns:xlink="http://www.w3.org/1999/xlink">
    <!-- Generator: Sketch 52.6 (67491) - http://www.bohemiancoding.com/sketch -->
    <title>search-zoomout</title>
    <desc>Created with Sketch.</desc>
    <g id="search-zoomout" stroke="none" stroke-width="1" fill="none" fill-rule="evenodd">
        <g id="icon-search-zoomout" transform="translate(6.000000, 6.000000)" fill="#000000" fill-rule="nonzero">
            <path d="M20.9050505,20.6949495 L12.6060606,20.6949495 L12.6060606,26.3676768 L35.1919192,26.3676768 L35.1919192,20.6949495 L20.9050505,20.6949495 Z M51.579798,44.6464646 L42.440404,35.5070707 C44.8565657,31.9353535 46.2222222,27.6282828 46.2222222,23.1111111 C46.2222222,10.5050505 36.0323232,0 23.1111111,0 C10.5050505,0 0,10.189899 0,23.1111111 C0,35.7171717 10.189899,46.2222222 23.1111111,46.2222222 C27.6282828,46.2222222 31.9353535,44.8565657 35.5070707,42.440404 L44.6464646,51.579798 C45.1717172,52.1050505 46.2222222,52.1050505 47.0626263,51.579798 L51.579798,47.0626263 C52.1050505,46.2222222 52.1050505,45.1717172 51.579798,44.6464646 Z M23.1111111,39.4989899 C13.9717172,39.4989899 6.72323232,31.9353535 6.72323232,23.1111111 C6.72323232,14.1818182 14.1818182,6.72323232 23.1111111,6.72323232 C31.9353535,6.72323232 39.4989899,13.9717172 39.4989899,23.1111111 C39.4989899,32.2505051 32.2505051,39.4989899 23.1111111,39.4989899 Z" id="Shape"></path>
        </g>
    </g>
</svg>