<?xml version="1.0" encoding="UTF-8"?>
<svg width="64px" height="64px" viewBox="0 0 64 64" version="1.1" xmlns="http://www.w3.org/2000/svg" xmlns:xlink="http://www.w3.org/1999/xlink">
    <!-- Generator: Sketch 52.6 (67491) - http://www.bohemiancoding.com/sketch -->
    <title>search-ids</title>
    <desc>Created with Sketch.</desc>
    <g id="search-ids" stroke="none" stroke-width="1" fill="none" fill-rule="evenodd">
        <g id="icon-search-ids" transform="translate(18.000000, 6.000000)" fill="#000000" fill-rule="nonzero">
            <path d="M9.16176471,4.46003899 C9.77941176,4.46003899 9.98529412,4.15594542 10.2941176,3.64912281 C10.5,2.83820663 11.0147059,2.33138402 11.8382353,2.33138402 C12.6617647,2.02729045 13.1764706,2.63547758 13.3823529,3.14230019 C13.6911765,3.64912281 13.6911765,3.85185185 12.8676471,4.46003899 C12.6617647,4.9668616 12.1470588,5.16959064 11.6323529,5.47368421 C10.8088235,5.98050682 10.2941176,6.791423 10.2941176,7.80506823 C10.2941176,8.51461988 10.5,9.12280702 11.3235294,9.12280702 C12.1470588,9.32553606 12.3529412,8.81871345 12.6617647,8.31189084 C12.6617647,7.80506823 13.1764706,7.29824561 13.6911765,6.99415205 C14.2058824,6.791423 14.7205882,6.18323587 15.2352941,5.98050682 C16.8823529,4.66276803 16.8823529,2.63547758 15.2352941,1.31773879 C14.5147059,0.810916179 13.6911765,0.304093567 12.6617647,0.304093567 C12.1470588,0 11.6323529,0 11.0147059,0 C9.47058824,0.506822612 8.44117647,1.31773879 7.92647059,2.63547758 C7.61764706,3.64912281 8.13235294,4.46003899 9.16176471,4.46003899 Z M11.0147059,10.1364522 C9.98529412,10.1364522 9.16176471,10.9473684 8.95588235,11.6569201 C8.95588235,12.6705653 9.47058824,13.4814815 10.5,13.4814815 C11.6323529,13.4814815 12.3529412,12.9746589 12.6617647,11.9610136 C12.8676471,11.1500975 12.1470588,10.1364522 11.0147059,10.1364522 Z M15.2352941,10.3391813 C14.7205882,10.9473684 15.0294118,11.454191 15.5441176,11.6569201 C15.75,11.6569201 16.0588235,11.6569201 16.3676471,11.454191 C16.5735294,11.1500975 17.0882353,10.9473684 17.6029412,10.9473684 C18.2205882,10.9473684 18.4264706,11.454191 18.4264706,11.6569201 C18.4264706,12.1637427 18.2205882,12.4678363 17.9117647,12.4678363 C17.3970588,12.9746589 17.0882353,12.9746589 16.8823529,12.9746589 C16.0588235,13.2787524 15.5441176,13.4814815 15.2352941,13.9883041 C15.0294118,14.4951267 15.2352941,14.7992203 15.5441176,15.0019493 C15.75,15.6101365 16.3676471,15.3060429 16.5735294,15.0019493 C16.8823529,14.7992203 17.0882353,14.4951267 17.6029412,14.4951267 C18.2205882,14.4951267 18.4264706,14.2923977 18.9411765,14.2923977 C20.2794118,13.785575 20.7941176,12.4678363 19.9705882,11.454191 C19.7647059,10.9473684 19.25,10.3391813 18.7352941,10.1364522 C18.4264706,10.1364522 17.9117647,9.83235867 17.6029412,9.83235867 C16.5735294,9.32553606 15.75,9.62962963 15.2352941,10.3391813 Z M13.6911765,16.3196881 C13.3823529,16.8265107 13.6911765,17.6374269 14.2058824,17.9415205 C14.7205882,18.1442495 15.5441176,17.9415205 15.75,17.4346979 C16.0588235,16.8265107 15.75,16.1169591 15.2352941,15.8128655 C14.7205882,15.6101365 14,15.6101365 13.6911765,16.3196881 Z M27.3823529,38.417154 L14.7205882,24.6315789 C14,23.6179337 12.1470588,23.1111111 10.8088235,23.1111111 L2.36764706,23.1111111 C1.33823529,23.1111111 0.205882353,24.1247563 0,25.4424951 L0,33.754386 C0,35.0721248 0.823529412,36.5925926 1.54411765,37.6062378 L14.2058824,51.3918129 C15.0294118,52.202729 16.5735294,52.202729 17.3970588,51.3918129 L27.1764706,41.7621832 C28.2058824,40.748538 28.2058824,39.4307992 27.3823529,38.417154 Z M6.07352941,30.9161793 C5.04411765,30.9161793 3.91176471,29.8011696 3.91176471,28.7875244 C3.91176471,27.7738791 4.73529412,26.7602339 6.07352941,26.7602339 C7.10294118,26.7602339 8.13235294,27.4697856 8.13235294,28.7875244 C8.13235294,29.8011696 7.10294118,30.9161793 6.07352941,30.9161793 Z" id="Shape"></path>
        </g>
    </g>
</svg>