<?xml version="1.0" encoding="UTF-8"?>
<svg width="64px" height="64px" viewBox="0 0 64 64" version="1.1" xmlns="http://www.w3.org/2000/svg" xmlns:xlink="http://www.w3.org/1999/xlink">
    <!-- Generator: Sketch 52.6 (67491) - http://www.bohemiancoding.com/sketch -->
    <title>search-empty</title>
    <desc>Created with Sketch.</desc>
    <g id="search-empty" stroke="none" stroke-width="1" fill="none" fill-rule="evenodd">
        <g id="icon-search-empty" transform="translate(12.000000, 6.000000)" fill="#000000" fill-rule="nonzero">
            <path d="M39.6858639,46.3478261 L32.7748691,39.4624506 C34.6596859,36.7905138 35.3926702,33.7075099 35.3926702,30.2134387 C35.3926702,20.7588933 27.6439791,12.8458498 17.6963351,12.8458498 C8.06282723,12.8458498 0,20.5533597 0,30.2134387 C0,39.770751 8.06282723,47.3754941 17.6963351,47.3754941 C21.2565445,47.3754941 24.3979058,46.3478261 27.1204188,44.7035573 L34.1361257,51.5889328 C34.6596859,52.1027668 35.3926702,52.1027668 35.9162304,51.5889328 L39.4764398,48.0948617 C40,47.3754941 40,46.5533597 39.6858639,46.3478261 Z M17.6963351,42.3399209 C10.7853403,42.3399209 5.13089005,36.7905138 5.13089005,30.0079051 C5.13089005,23.1225296 10.7853403,17.6758893 17.6963351,17.6758893 C24.7120419,17.6758893 30.3664921,23.1225296 30.3664921,30.0079051 C30.3664921,36.7905138 24.7120419,42.3399209 17.6963351,42.3399209 Z M12.8795812,5.54940711 C12.8795812,8.52964427 10.3664921,11.0988142 7.32984293,11.0988142 C4.18848168,11.0988142 1.67539267,8.52964427 1.67539267,5.54940711 C1.67539267,2.46640316 4.18848168,0 7.32984293,0 C10.3664921,0 12.8795812,2.46640316 12.8795812,5.54940711 Z M34.8691099,5.54940711 C34.8691099,8.52964427 32.3560209,11.0988142 29.2146597,11.0988142 C26.1780105,11.0988142 23.6649215,8.52964427 23.6649215,5.54940711 C23.6649215,2.46640316 26.1780105,0 29.2146597,0 C32.3560209,0 34.8691099,2.46640316 34.8691099,5.54940711 Z" id="Shape"></path>
        </g>
    </g>
</svg>