<?xml version="1.0" encoding="UTF-8"?>
<svg width="64px" height="64px" viewBox="0 0 64 64" version="1.1" xmlns="http://www.w3.org/2000/svg" xmlns:xlink="http://www.w3.org/1999/xlink">
    <!-- Generator: Sketch 52.6 (67491) - http://www.bohemiancoding.com/sketch -->
    <title>sign-stop</title>
    <desc>Created with Sketch.</desc>
    <g id="sign-stop" stroke="none" stroke-width="1" fill="none" fill-rule="evenodd">
        <g id="icon-sign-stop" transform="translate(6.000000, 6.000000)" fill="#000000" fill-rule="nonzero">
            <path d="M44.6012024,21.7964072 L43.7675351,21.7964072 L43.7675351,24.7025948 L44.2885772,24.7025948 C44.8096192,24.7025948 45.3306613,24.3912176 45.6432866,24.1836327 C45.8517034,23.8722555 46.1643287,23.3532934 46.1643287,22.8343313 C46.1643287,22.3153693 45.6432866,21.7964072 44.6012024,21.7964072 Z M31.2625251,21.7964072 C29.3867735,21.7964072 28.5531062,23.0419162 28.5531062,25.740519 C28.5531062,28.4391218 29.3867735,29.4770459 31.2625251,29.4770459 C31.991984,29.4770459 32.8256513,29.1656687 33.3466934,28.4391218 C33.8677355,27.8163673 33.8677355,26.7784431 33.8677355,25.4291417 C33.8677355,24.1836327 33.6593186,23.0419162 33.1382766,22.5229541 C32.8256513,22.003992 31.991984,21.7964072 31.2625251,21.7964072 Z M37.0981964,0 L15.2144289,0 L0,15.3612774 L0,36.9500998 L15.2144289,52 L36.7855711,52 L52,36.9500998 L52,15.3612774 L37.0981964,0 Z M6.66933868,23.3532934 C6.98196393,23.6646707 7.71142285,23.8722555 8.85771543,24.3912176 C10.1082164,24.9101796 10.9418838,25.4291417 11.4629259,26.0518962 C11.9839679,26.5708583 12.2965932,27.2974052 12.2965932,28.1277445 C12.2965932,28.9580838 11.9839679,29.6846307 11.7755511,30.3073852 C11.254509,30.8263473 10.7334669,31.3453094 9.8997996,31.8642715 C9.06613226,32.0718563 8.23246493,32.3832335 7.19038076,32.3832335 C6.46092184,32.3832335 5.62725451,32.3832335 5.10621242,32.0718563 C4.58517034,32.0718563 3.75150301,31.8642715 3.23046092,31.5528942 L3.23046092,28.4391218 C4.06412826,28.6467066 4.58517034,28.9580838 5.31462926,29.1656687 C6.14829659,29.4770459 6.66933868,29.4770459 7.50300601,29.4770459 C8.0240481,29.4770459 8.23246493,29.4770459 8.54509018,29.1656687 C8.85771543,28.9580838 8.85771543,28.6467066 8.85771543,28.4391218 C8.85771543,28.1277445 8.85771543,28.1277445 8.54509018,27.8163673 C8.54509018,27.6087824 8.23246493,27.6087824 8.0240481,27.2974052 C7.71142285,27.0898204 7.19038076,26.7784431 6.14829659,26.5708583 C5.31462926,26.259481 4.58517034,25.740519 4.27254509,25.4291417 C3.75150301,25.2215569 3.23046092,24.9101796 3.23046092,24.3912176 C2.91783567,23.8722555 2.91783567,23.3532934 2.91783567,22.5229541 C2.91783567,21.1736527 3.43887776,20.4471058 4.27254509,19.6167665 C5.10621242,18.7864271 6.46092184,18.5788423 8.0240481,18.5788423 C9.37875752,18.5788423 10.7334669,18.7864271 12.2965932,19.6167665 L11.254509,22.3153693 C9.58717435,22.003992 8.54509018,21.7964072 7.71142285,21.7964072 C7.19038076,21.7964072 6.98196393,21.7964072 6.66933868,22.003992 C6.46092184,22.3153693 6.46092184,22.3153693 6.46092184,22.5229541 C6.46092184,22.8343313 6.46092184,23.0419162 6.66933868,23.3532934 Z M23.238477,22.003992 L20.008016,22.003992 L20.008016,32.3832335 L16.256513,32.3832335 L16.256513,22.003992 L13.1302605,22.003992 L13.1302605,19.0978044 L23.238477,19.0978044 L23.238477,22.003992 Z M36.0561122,30.8263473 C34.9098196,31.8642715 33.3466934,32.6946108 31.2625251,32.6946108 C29.0741483,32.6946108 27.511022,32.0718563 26.4689379,30.8263473 C25.3226453,29.6846307 24.8016032,27.8163673 24.8016032,25.740519 C24.8016032,23.6646707 25.3226453,21.7964072 26.4689379,20.6546906 C27.511022,19.6167665 29.0741483,18.7864271 31.2625251,18.7864271 C33.3466934,18.7864271 34.9098196,19.4091816 36.0561122,20.6546906 C37.0981964,21.7964072 37.6192385,23.6646707 37.6192385,25.740519 C37.6192385,27.8163673 37.0981964,29.4770459 36.0561122,30.8263473 Z M48.248497,26.5708583 C47.5190381,27.2974052 46.1643287,27.8163673 44.6012024,27.8163673 L43.4549098,27.8163673 L43.4549098,32.3832335 L39.8076152,32.3832335 L39.8076152,19.0978044 L44.2885772,19.0978044 C45.8517034,19.0978044 47.2064128,19.4091816 48.0400802,20.1357285 C48.8737475,20.9660679 49.3947896,22.003992 49.3947896,23.3532934 C49.6032064,24.7025948 49.3947896,25.740519 48.248497,26.5708583 Z" id="Shape"></path>
        </g>
    </g>
</svg>