<?xml version="1.0" encoding="UTF-8"?>
<svg width="64px" height="64px" viewBox="0 0 64 64" version="1.1" xmlns="http://www.w3.org/2000/svg" xmlns:xlink="http://www.w3.org/1999/xlink">
    <!-- Generator: Sketch 52.6 (67491) - http://www.bohemiancoding.com/sketch -->
    <title>sign-circular-arrow-diagonal</title>
    <desc>Created with Sketch.</desc>
    <g id="sign-circular-arrow-diagonal" stroke="none" stroke-width="1" fill="none" fill-rule="evenodd">
        <g id="icon-sign-circular-arrow-diagonal" transform="translate(6.000000, 6.000000)" fill="#000000" fill-rule="nonzero">
            <path d="M26,0 C11.6796875,0 0,11.4765625 0,26 C0,40.3203125 11.4765625,52 26,52 C40.3203125,52 52,40.5234375 52,26 C52,11.6796875 40.5234375,0 26,0 Z M26,44.6875 C15.640625,44.6875 7.3125,36.359375 7.3125,26 C7.3125,15.640625 15.640625,7.3125 26,7.3125 C36.359375,7.3125 44.6875,15.640625 44.6875,26 C44.6875,36.359375 36.359375,44.6875 26,44.6875 Z M21.328125,21.0234375 C21.328125,22.8515625 21.328125,24.6796875 21.328125,26.8125 C21.328125,27.015625 21.328125,27.5234375 21.328125,27.828125 C21.53125,27.828125 21.53125,27.5234375 21.53125,27.5234375 C25.1875,23.96875 28.84375,20.3125 32.5,16.65625 C32.8046875,16.3515625 32.8046875,16.3515625 33.0078125,16.65625 C33.8203125,17.46875 34.53125,18.1796875 35.140625,18.6875 C35.34375,18.9921875 35.34375,19.1953125 35.140625,19.5 C31.484375,23.15625 27.828125,26.8125 24.4765625,30.1640625 C24.4765625,30.1640625 24.171875,30.46875 24.171875,30.46875 C26.5078125,30.46875 28.84375,30.46875 31.1796875,30.46875 C31.1796875,30.671875 31.1796875,30.671875 30.9765625,30.671875 C29.859375,31.6875 28.84375,32.8046875 27.828125,33.8203125 C27.5234375,34.0234375 27.5234375,34.0234375 27.3203125,34.0234375 C24.171875,34.0234375 21.0234375,34.0234375 18.1796875,34.0234375 C17.9765625,34.0234375 17.9765625,34.0234375 17.9765625,33.8203125 C17.9765625,30.671875 17.9765625,27.5234375 17.9765625,24.4765625 C18.9921875,23.359375 19.8046875,22.34375 20.8203125,21.328125 C21.0234375,21.328125 21.0234375,21.0234375 21.328125,21.0234375 Z" id="Shape"></path>
        </g>
    </g>
</svg>