<?xml version="1.0" encoding="UTF-8"?>
<svg width="64px" height="64px" viewBox="0 0 64 64" version="1.1" xmlns="http://www.w3.org/2000/svg" xmlns:xlink="http://www.w3.org/1999/xlink">
    <!-- Generator: Sketch 52.6 (67491) - http://www.bohemiancoding.com/sketch -->
    <title>sign-highvoltage</title>
    <desc>Created with Sketch.</desc>
    <g id="sign-highvoltage" stroke="none" stroke-width="1" fill="none" fill-rule="evenodd">
        <g id="icon-sign-highvoltage" transform="translate(13.000000, 6.000000)" fill="#000000" fill-rule="nonzero">
            <path d="M38,24.6640316 C38,24.6640316 19.3097826,30.2134387 18.4836957,30.2134387 C17.6576087,30.5217391 16.9347826,30.5217391 17.451087,29.3913043 L21.6847826,16.0316206 L0,39.6679842 C0,39.6679842 21.8913043,33.6047431 22.4076087,33.3992095 C22.923913,33.0909091 23.75,33.0909091 23.5434783,34.4268775 C23.2336957,35.7628458 17.451087,52 17.451087,52 L38,24.6640316 Z M23.75,0.205533597 C24.0597826,1.54150198 24.2663043,1.74703557 25.0923913,2.05533597 C25.0923913,2.05533597 25.298913,2.05533597 25.298913,2.36363636 C25.0923913,2.36363636 25.0923913,2.36363636 25.0923913,2.36363636 L23.75,2.56916996 C23.75,2.56916996 23.5434783,2.56916996 23.5434783,2.87747036 C23.5434783,3.08300395 23.75,3.08300395 23.75,3.08300395 L25.0923913,3.39130435 C25.0923913,3.39130435 25.298913,3.39130435 25.298913,3.59683794 C25.298913,3.90513834 25.0923913,3.90513834 25.0923913,3.90513834 L23.75,4.21343874 C23.75,4.21343874 23.5434783,4.21343874 23.5434783,4.41897233 C23.5434783,4.72727273 23.75,4.72727273 23.75,4.72727273 L25.0923913,4.93280632 C25.0923913,4.93280632 25.298913,4.93280632 25.298913,5.24110672 C25.0923913,4.93280632 25.0923913,4.93280632 25.0923913,4.93280632 L23.75,5.24110672 C23.75,5.24110672 23.5434783,5.24110672 23.5434783,5.44664032 C23.5434783,5.75494071 23.75,5.75494071 23.75,5.75494071 L25.0923913,5.96047431 C25.0923913,5.96047431 25.298913,5.96047431 25.298913,6.2687747 C25.298913,6.5770751 25.0923913,6.5770751 25.0923913,6.5770751 L23.75,6.7826087 C23.75,6.7826087 23.5434783,6.7826087 23.5434783,7.09090909 C23.5434783,7.29644269 23.75,7.29644269 23.75,7.29644269 L25.0923913,7.60474308 C25.0923913,7.60474308 25.298913,7.60474308 25.298913,7.81027668 C25.298913,8.11857708 25.0923913,8.11857708 25.0923913,8.11857708 L23.75,8.32411067 C23.75,8.32411067 23.5434783,8.32411067 23.5434783,8.63241107 C23.5434783,8.94071146 23.75,8.94071146 23.75,8.94071146 L25.0923913,9.14624506 C25.0923913,9.14624506 25.298913,9.14624506 25.298913,9.45454545 C25.298913,9.66007905 25.0923913,9.66007905 25.0923913,9.66007905 L23.75,9.96837945 C23.75,9.96837945 23.5434783,9.96837945 23.5434783,10.173913 C23.5434783,10.4822134 23.75,10.4822134 23.75,10.4822134 L25.0923913,10.173913 C25.0923913,10.173913 25.298913,10.173913 25.298913,10.4822134 C25.298913,10.7905138 25.0923913,10.7905138 25.0923913,10.7905138 L23.75,10.9960474 C23.75,10.9960474 23.5434783,10.9960474 23.5434783,11.3043478 C23.5434783,11.3043478 23.5434783,11.5098814 23.5434783,11.5098814 C24.2663043,12.3320158 24.2663043,12.8458498 24.2663043,12.8458498 L22.923913,12.8458498 C22.923913,12.8458498 22.923913,14.3873518 21.6847826,15.2094862 C20.3423913,14.3873518 20.3423913,12.8458498 20.3423913,12.8458498 L19,12.8458498 C19,12.8458498 19,12.3320158 19.826087,11.5098814 C19.826087,11.5098814 19.826087,11.3043478 19.826087,11.3043478 C19.826087,10.9960474 19.5163043,10.9960474 19.5163043,10.9960474 L18.4836957,10.4822134 C18.4836957,10.4822134 18.173913,10.4822134 18.173913,10.173913 C18.4836957,10.173913 18.4836957,10.173913 18.4836957,10.173913 L19.826087,9.96837945 C19.826087,9.96837945 20.0326087,9.96837945 20.0326087,9.66007905 C20.0326087,9.45454545 19.826087,9.45454545 19.826087,9.45454545 L18.4836957,9.14624506 C18.4836957,9.14624506 18.173913,9.14624506 18.173913,8.94071146 C18.173913,8.63241107 18.4836957,8.63241107 18.4836957,8.63241107 L19.826087,8.32411067 C19.826087,8.32411067 20.0326087,8.32411067 20.0326087,8.11857708 C20.0326087,7.81027668 19.826087,7.81027668 19.826087,7.81027668 L18.4836957,7.81027668 C18.4836957,7.81027668 18.173913,7.81027668 18.173913,7.60474308 C18.173913,7.29644269 18.4836957,7.29644269 18.4836957,7.29644269 L19.826087,7.09090909 C19.826087,7.09090909 20.0326087,7.09090909 20.0326087,6.7826087 C20.0326087,6.5770751 19.826087,6.5770751 19.826087,6.5770751 L18.4836957,6.5770751 C18.4836957,6.5770751 18.173913,6.5770751 18.173913,6.2687747 C18.173913,5.96047431 18.4836957,5.96047431 18.4836957,5.96047431 L19.826087,5.75494071 C19.826087,5.75494071 20.0326087,5.75494071 20.0326087,5.44664032 C20.0326087,5.24110672 19.826087,5.24110672 19.826087,5.24110672 L18.4836957,4.93280632 C18.4836957,4.93280632 18.173913,4.93280632 18.173913,4.72727273 C18.173913,4.41897233 18.4836957,4.41897233 18.4836957,4.41897233 L19.826087,4.21343874 C19.826087,4.21343874 20.0326087,4.21343874 20.0326087,3.90513834 C20.0326087,3.59683794 19.826087,3.59683794 19.826087,3.59683794 L18.4836957,3.59683794 C18.4836957,3.59683794 18.173913,3.59683794 18.173913,3.39130435 C18.173913,3.08300395 18.4836957,3.08300395 18.4836957,3.08300395 L19.826087,2.87747036 C19.826087,2.87747036 20.0326087,2.87747036 20.0326087,2.56916996 C20.0326087,2.36363636 19.826087,2.36363636 19.826087,2.36363636 L18.4836957,2.36363636 C18.4836957,2.36363636 18.173913,2.36363636 18.173913,2.05533597 C18.173913,1.74703557 18.4836957,1.74703557 18.4836957,1.74703557 C19.3097826,1.54150198 19.5163043,1.23320158 19.826087,0 L23.75,0 L23.75,0.205533597 Z" id="Shape"></path>
        </g>
    </g>
</svg>