<?xml version="1.0" encoding="UTF-8"?>
<svg width="64px" height="64px" viewBox="0 0 64 64" version="1.1" xmlns="http://www.w3.org/2000/svg" xmlns:xlink="http://www.w3.org/1999/xlink">
    <!-- Generator: Sketch 52.6 (67491) - http://www.bohemiancoding.com/sketch -->
    <title>sign-arrow-two-lanes</title>
    <desc>Created with Sketch.</desc>
    <g id="sign-arrow-two-lanes" stroke="none" stroke-width="1" fill="none" fill-rule="evenodd">
        <g id="icon-sign-arrow-two-lanes" transform="translate(6.000000, 7.000000)" fill="#000000" fill-rule="nonzero">
            <path d="M22.7888446,25.2083333 C20.4063745,22.5 18.3346614,19.5833333 16.1593625,16.6666667 C15.6414343,16.1458333 15.4342629,15.5208333 14.812749,15 C14.6055777,15.3125 14.812749,15.5208333 14.812749,15.8333333 C14.812749,26.7708333 14.812749,37.9166667 14.812749,48.8541667 C14.812749,49.6875 14.6055777,50 14.0876494,50 C12.4302789,50 10.876494,50 9.32270916,50 C8.80478088,50 8.4940239,49.6875 8.4940239,48.8541667 C8.4940239,37.9166667 8.4940239,26.9791667 8.4940239,15.8333333 C8.4940239,15.5208333 8.4940239,15.3125 8.4940239,15 C5.80079681,18.5416667 3.21115538,22.1875 0.310756972,25.7291667 C0,25.4166667 0,25.2083333 0,24.8958333 C0,21.6666667 0,18.5416667 0,15.5208333 C0,15 0,14.7916667 0.310756972,14.4791667 C4.03984064,9.6875 7.45816733,5.20833333 11.187251,0.3125 C11.3944223,0.104166667 11.3944223,-0.208333333 11.9123506,0.3125 C15.4342629,4.89583333 19.059761,9.6875 22.7888446,14.4791667 C22.7888446,14.4791667 22.7888446,14.7916667 22.7888446,14.7916667 C22.7888446,17.9166667 22.7888446,21.1458333 22.7888446,24.375 C22.7888446,24.5833333 23.0996016,24.8958333 22.7888446,25.2083333 Z M51.689243,25.2083333 C49.6175299,22.5 47.2350598,19.5833333 45.059761,16.6666667 C44.5418327,16.1458333 44.3346614,15.5208333 43.8167331,15 C43.5059761,15.3125 43.8167331,15.5208333 43.8167331,15.8333333 C43.8167331,26.7708333 43.8167331,37.9166667 43.8167331,48.8541667 C43.8167331,49.6875 43.5059761,50 42.9880478,50 C41.3306773,50 39.7768924,50 38.2231076,50 C37.7051793,50 37.3944223,49.6875 37.3944223,48.8541667 C37.3944223,37.9166667 37.3944223,26.9791667 37.3944223,15.8333333 C37.3944223,15.5208333 37.3944223,15.3125 37.3944223,15 C34.7011952,18.5416667 32.1115538,22.1875 29.2111554,25.7291667 C28.9003984,25.4166667 28.9003984,25.2083333 28.9003984,24.8958333 C28.9003984,21.6666667 28.9003984,18.5416667 28.9003984,15.5208333 C28.9003984,15 28.9003984,14.7916667 29.2111554,14.4791667 C32.940239,9.6875 36.3585657,5.20833333 40.0876494,0.3125 C40.2948207,0.104166667 40.2948207,-0.208333333 40.812749,0.3125 C44.5418327,5.20833333 48.2709163,10 52,14.7916667 C52,14.7916667 52,15 52,15 C52,18.2291667 52,21.4583333 52,24.5833333 C52,24.5833333 52,24.8958333 51.689243,25.2083333 Z" id="Shape"></path>
        </g>
    </g>
</svg>