<?xml version="1.0" encoding="UTF-8"?>
<svg width="64px" height="64px" viewBox="0 0 64 64" version="1.1" xmlns="http://www.w3.org/2000/svg" xmlns:xlink="http://www.w3.org/1999/xlink">
    <!-- Generator: Sketch 52.6 (67491) - http://www.bohemiancoding.com/sketch -->
    <title>sign-arrow-two-ways</title>
    <desc>Created with Sketch.</desc>
    <g id="sign-arrow-two-ways" stroke="none" stroke-width="1" fill="none" fill-rule="evenodd">
        <path d="M32.3041361,33.2145749 C29.3641535,35.5425101 26.3227922,37.8704453 23.4841883,40.1983806 C22.875916,40.7044534 22.3690225,41.0080972 21.6593715,41.51417 C21.8621289,41.7165992 22.166265,41.51417 22.6731586,41.51417 C34.0275742,41.51417 45.4833685,41.51417 56.9391629,41.51417 C57.6488138,41.51417 57.95295,41.7165992 57.95295,42.2226721 C57.95295,44.0445344 57.95295,45.6639676 57.95295,47.48583 C57.95295,47.9919028 57.6488138,48.194332 56.9391629,48.194332 C45.4833685,48.194332 34.0275742,48.194332 22.6731586,48.194332 C22.3690225,48.194332 22.166265,48.194332 21.8621289,48.194332 C25.5117625,51.0283401 29.1613961,53.9635628 32.8110297,56.7975709 C32.5068936,57 32.3041361,57 32,57 C28.6545025,57 25.5117625,57 22.166265,57 C21.6593715,57 21.3552354,57 20.8483418,56.7975709 C15.880785,53.1538462 11.0146069,49.3076923 6.35118616,45.6639676 C6.04705002,45.3603239 5.74291389,45.3603239 6.35118616,44.854251 C11.2173643,41.0080972 16.3876785,37.0607287 21.3552354,33.417004 C21.3552354,33.417004 21.6593715,33.417004 21.6593715,33.417004 C25.004869,33.417004 28.147609,33.417004 31.4931064,33.417004 C31.6958639,32.9109312 32,32.9109312 32.3041361,33.2145749 Z M31.6958639,30.582996 C34.6358465,28.2550607 37.6772078,25.9271255 40.5158117,23.5991903 C41.124084,23.0931174 41.6309775,22.7894737 42.3406285,22.2834008 C42.1378711,22.0809717 41.833735,22.2834008 41.3268414,22.2834008 C29.9724258,22.2834008 18.5166315,22.2834008 7.06083713,22.2834008 C6.35118616,22.2834008 6.04705002,22.0809717 6.04705002,21.5748988 C6.04705002,19.7530364 6.04705002,18.1336032 6.04705002,16.3117409 C6.04705002,15.805668 6.35118616,15.6032389 7.06083713,15.6032389 C18.5166315,15.6032389 29.9724258,15.6032389 41.3268414,15.6032389 C41.6309775,15.6032389 41.833735,15.6032389 42.1378711,15.6032389 C38.4882375,12.7692308 34.8386039,9.8340081 31.1889703,7 C31.6958639,7 31.6958639,7 32,7 C35.3454975,7 38.4882375,7 41.833735,7 C42.3406285,7 42.6447646,7 43.1516582,7.30364372 C48.119215,10.9473684 52.9853931,14.7935223 57.6488138,18.437247 C57.95295,18.6396761 58.2570861,18.6396761 57.6488138,19.2469636 C52.7826357,23.0931174 47.6123215,26.9392713 42.6447646,30.582996 C42.6447646,30.582996 42.3406285,30.582996 42.3406285,30.582996 C38.995131,30.582996 35.852391,30.582996 32.5068936,30.582996 C32.3041361,30.8866397 32,30.8866397 31.6958639,30.582996 Z" id="icon-sign-arrow-two-ways" fill="#000000" fill-rule="nonzero"></path>
    </g>
</svg>