<?xml version="1.0" encoding="UTF-8"?>
<svg width="64px" height="64px" viewBox="0 0 64 64" version="1.1" xmlns="http://www.w3.org/2000/svg" xmlns:xlink="http://www.w3.org/1999/xlink">
    <!-- Generator: Sketch 52.6 (67491) - http://www.bohemiancoding.com/sketch -->
    <title>sign-arrow-right</title>
    <desc>Created with Sketch.</desc>
    <g id="sign-arrow-right" stroke="none" stroke-width="1" fill="none" fill-rule="evenodd">
        <g id="icon-sign-arrow-right" transform="translate(6.000000, 16.000000)" fill="#000000">
            <path d="M25.6452242,31.6893204 C28.5847953,28.4789644 31.625731,25.579288 34.4639376,22.368932 C35.0721248,21.8511327 35.5789474,21.3333333 36.288499,20.6084142 C36.08577,20.2977346 35.7816764,20.6084142 35.2748538,20.6084142 C23.9220273,20.6084142 12.4678363,20.6084142 1.01364522,20.6084142 C0.304093567,20.6084142 0,20.2977346 0,19.4692557 C0,17.0873786 0,15.0161812 0,12.6343042 C0,11.8058252 0.304093567,11.4951456 1.01364522,11.4951456 C12.4678363,11.4951456 23.9220273,11.4951456 35.2748538,11.4951456 C35.5789474,11.4951456 35.7816764,11.4951456 36.08577,11.4951456 C32.4366472,7.87055016 28.7875244,4.14239482 25.1384016,0.414239482 C25.4424951,-0.103559871 25.6452242,0.103559871 25.9493177,0.103559871 C29.294347,0.103559871 32.4366472,0.103559871 35.7816764,0.103559871 C36.288499,0.103559871 36.5925926,0.414239482 37.0994152,0.724919094 C42.0662768,5.69579288 46.9317739,10.7702265 51.5945419,15.5339806 C51.8986355,15.7411003 52.202729,16.0517799 51.5945419,16.5695793 C46.7290448,21.6440129 41.5594542,26.6148867 36.5925926,32 C36.5925926,32 36.288499,32 36.288499,32 C32.9434698,32 29.8011696,32 26.4561404,32 C26.2534113,32 25.9493177,32 25.6452242,31.6893204 Z" id="Path"></path>
        </g>
    </g>
</svg>