<?xml version="1.0" encoding="UTF-8"?>
<svg width="64px" height="64px" viewBox="0 0 64 64" version="1.1" xmlns="http://www.w3.org/2000/svg" xmlns:xlink="http://www.w3.org/1999/xlink">
    <!-- Generator: Sketch 52.6 (67491) - http://www.bohemiancoding.com/sketch -->
    <title>sign-triangle-up</title>
    <desc>Created with Sketch.</desc>
    <g id="sign-triangle-up" stroke="none" stroke-width="1" fill="none" fill-rule="evenodd">
        <path d="M34.6587804,7.63746376 L57.5404427,52.0274305 C58.5682679,54.0213909 57.8140735,56.4862607 55.8559023,57.5328713 C55.2818399,57.8396983 54.6431975,58 53.9948601,58 L10.0043268,58 C7.79279819,58 6,56.1744351 6,53.9224867 C6,53.2622997 6.15742445,52.611985 6.45874432,52.0274305 L29.3404066,7.63746376 C30.1112755,6.1419935 31.9267468,5.56600948 33.3953751,6.35096745 C33.9349319,6.63935177 34.3755722,7.08804557 34.6587804,7.63746376 Z M33.3291869,20.803283 C33.1875828,20.5335046 32.9672627,20.3131844 32.6974843,20.1715804 C31.9631701,19.7861459 31.0554345,20.0689688 30.67,20.803283 L16.6428325,47.5272769 C16.5298376,47.7425503 16.4708034,47.9820412 16.4708034,48.2251677 C16.4708034,49.0544909 17.1431027,49.7267902 17.9724259,49.7267902 L46.026761,49.7267902 C46.2698876,49.7267902 46.5093784,49.6677561 46.7246519,49.5547611 C47.458966,49.1693267 47.7417889,48.261591 47.3563545,47.5272769 L33.3291869,20.803283 Z" fill="#000000"></path>
    </g>
</svg>