<?xml version="1.0" encoding="UTF-8"?>
<svg width="64px" height="64px" viewBox="0 0 64 64" version="1.1" xmlns="http://www.w3.org/2000/svg" xmlns:xlink="http://www.w3.org/1999/xlink">
    <!-- Generator: Sketch 52.6 (67491) - http://www.bohemiancoding.com/sketch -->
    <title>sign-circular-speed-80</title>
    <desc>Created with Sketch.</desc>
    <g id="sign-circular-speed-80" stroke="none" stroke-width="1" fill="none" fill-rule="evenodd">
        <g id="icon-sign-circular-speed-80" transform="translate(6.000000, 6.000000)" fill="#000000" fill-rule="nonzero">
            <path d="M17.671875,27.7265625 C16.9609375,28.3359375 16.1484375,28.5390625 15.84375,29.046875 C15.640625,29.5546875 15.3359375,30.1640625 15.3359375,30.3671875 C15.3359375,30.875 15.640625,31.3828125 15.84375,31.6875 C16.3515625,31.890625 16.9609375,32.1953125 17.671875,32.1953125 C19.296875,32.1953125 20.3125,31.6875 20.3125,30.3671875 C20.3125,29.859375 20.0078125,29.3515625 19.8046875,29.046875 C19.296875,29.046875 18.6875,28.5390625 17.671875,27.7265625 Z M34.8359375,19.703125 C34.0234375,19.703125 33.515625,20.2109375 33.3125,21.0234375 C33.0078125,21.8359375 32.8046875,23.6640625 32.8046875,26 C32.8046875,28.3359375 33.0078125,29.859375 33.3125,30.875 C33.515625,31.6875 34.0234375,32.1953125 34.8359375,32.1953125 C35.6484375,32.1953125 36.15625,31.6875 36.4609375,30.875 C36.6640625,30.1640625 36.96875,28.3359375 36.96875,26.203125 C36.96875,23.8671875 36.6640625,22.34375 36.4609375,21.2265625 C36.15625,20.2109375 35.6484375,19.703125 34.8359375,19.703125 Z M17.671875,23.0546875 C18.484375,22.8515625 18.6875,22.34375 18.9921875,22.0390625 C19.296875,21.8359375 19.296875,21.2265625 19.296875,21.0234375 C19.296875,20.515625 18.9921875,20.2109375 18.6875,20.0078125 C18.484375,19.703125 18.1796875,19.5 17.9765625,19.5 C17.46875,19.5 17.1640625,19.703125 16.65625,20.0078125 C16.3515625,20.0078125 16.1484375,20.515625 16.1484375,20.71875 C16.1484375,21.8359375 16.65625,22.34375 17.671875,23.0546875 Z M26,0 C11.6796875,0 0,11.375 0,26 C0,40.21875 11.4765625,52 26,52 C40.3203125,52 52,40.5234375 52,26 C52,11.6796875 40.3203125,0 26,0 Z M23.4609375,35.0390625 C22.140625,36.0546875 20.3125,36.6640625 17.9765625,36.6640625 C15.640625,36.6640625 13.5078125,36.0546875 12.1875,35.0390625 C10.96875,34.0234375 10.15625,32.703125 10.15625,30.875 C10.15625,29.5546875 10.4609375,28.5390625 10.96875,27.7265625 C11.4765625,27.015625 12.4921875,26.203125 13.8125,25.390625 C13,24.6796875 12.1875,23.8671875 11.6796875,23.0546875 C11.171875,22.34375 10.96875,21.2265625 10.96875,20.2109375 C10.96875,18.6875 11.4765625,17.3671875 12.796875,16.5546875 C14.015625,15.84375 15.640625,15.3359375 17.9765625,15.3359375 C20.0078125,15.3359375 21.8359375,15.84375 23.15625,16.5546875 C24.4765625,17.3671875 24.6796875,18.6875 24.6796875,20.515625 C24.6796875,21.53125 24.4765625,22.546875 23.96875,23.359375 C23.4609375,24.171875 22.34375,24.8828125 21.328125,25.390625 C22.8515625,26.203125 23.96875,27.21875 24.4765625,28.03125 C24.984375,28.84375 25.4921875,29.859375 25.4921875,30.875 C25.4921875,32.703125 24.6796875,34.0234375 23.4609375,35.0390625 Z M40.5234375,34.0234375 C39.3046875,35.8515625 37.4765625,36.6640625 34.8359375,36.6640625 C32.296875,36.6640625 30.46875,35.8515625 29.1484375,34.0234375 C27.828125,32.1953125 27.3203125,29.5546875 27.3203125,26 C27.3203125,22.34375 27.828125,19.5 29.1484375,17.875 C30.46875,16.046875 32.296875,15.3359375 34.8359375,15.3359375 C37.4765625,15.3359375 39.3046875,16.046875 40.5234375,17.875 C41.84375,19.703125 42.3515625,22.34375 42.3515625,26 C42.3515625,29.5546875 41.84375,32.5 40.5234375,34.0234375 Z" id="Shape"></path>
        </g>
    </g>
</svg>