<?xml version="1.0" encoding="UTF-8"?>
<svg width="64px" height="64px" viewBox="0 0 64 64" version="1.1" xmlns="http://www.w3.org/2000/svg" xmlns:xlink="http://www.w3.org/1999/xlink">
    <!-- Generator: Sketch 52.6 (67491) - http://www.bohemiancoding.com/sketch -->
    <title>sign-arrow-turn-left</title>
    <desc>Created with Sketch.</desc>
    <g id="sign-arrow-turn-left" stroke="none" stroke-width="1" fill="none" fill-rule="evenodd">
        <g id="icon-sign-arrow-turn-left" transform="translate(10.000000, 6.000000)" fill="#000000">
            <path d="M44,10.5831703 C44,10.5831703 44,10.2778865 44,10.2778865 C44,9.56555773 43.7943925,9.56555773 43.2803738,9.56555773 C33.5140187,9.56555773 23.7476636,9.56555773 14.0841121,9.56555773 C13.7757009,9.56555773 13.5700935,9.56555773 13.2616822,9.56555773 C14.0841121,8.75146771 14.5981308,8.24266145 14.8037383,7.73385519 C17.4766355,5.08806262 19.8411215,2.74755382 22.5140187,0.203522505 C22.2056075,-0.101761252 21.8971963,0.203522505 21.6915888,0.203522505 C18.8130841,0.203522505 16.1401869,0.203522505 13.2616822,0.203522505 C13.2616822,0.203522505 12.953271,0.203522505 12.953271,0.203522505 C9.04672897,4.37573386 4.52336449,8.44618395 0.411214953,12.6183953 C-0.205607477,13.2289628 0.102803738,13.2289628 0.411214953,13.4324853 C4.52336449,17.6046967 8.53271028,21.4716243 12.7476636,25.6438356 C12.953271,25.9491194 13.2616822,26.2544031 13.7757009,26.2544031 C16.4485981,26.2544031 19.3271028,26.2544031 21.8971963,26.2544031 C22.2056075,26.2544031 22.2056075,26.2544031 22.7196262,25.9491194 C19.8411215,22.7945205 16.6542056,19.741683 13.5700935,16.5870841 C13.7757009,16.5870841 14.0841121,16.5870841 14.2897196,16.5870841 C21.3831776,16.5870841 28.4766355,16.5870841 35.6728972,16.5870841 L35.6728972,52 L44,52 L44,10.5831703 Z" id="Path"></path>
        </g>
    </g>
</svg>