<?xml version="1.0" encoding="UTF-8"?>
<svg width="64px" height="64px" viewBox="0 0 64 64" version="1.1" xmlns="http://www.w3.org/2000/svg" xmlns:xlink="http://www.w3.org/1999/xlink">
    <!-- Generator: Sketch 52.6 (67491) - http://www.bohemiancoding.com/sketch -->
    <title>sign-circular-go</title>
    <desc>Created with Sketch.</desc>
    <g id="sign-circular-go" stroke="none" stroke-width="1" fill="none" fill-rule="evenodd">
        <g id="icon-sign-circular-go" transform="translate(6.000000, 6.000000)" fill="#000000" fill-rule="nonzero">
            <path d="M26,0 C11.6796875,0 0,11.375 0,26 C0,40.21875 11.4765625,52 26,52 C40.3203125,52 52,40.5234375 52,26 C52,11.6796875 40.5234375,0 26,0 Z M14.3203125,24.6796875 L23.15625,24.6796875 L23.15625,35.546875 C20.8203125,36.359375 18.1796875,36.8671875 15.3359375,36.8671875 C12.1875,36.8671875 9.8515625,35.8515625 8.0234375,34.0234375 C6.1953125,32.1953125 5.484375,29.5546875 5.484375,26.203125 C5.484375,22.8515625 6.5,20.2109375 8.328125,18.3828125 C10.15625,16.5546875 12.6953125,15.5390625 16.1484375,15.5390625 C17.46875,15.5390625 18.6875,15.5390625 19.8046875,15.84375 C20.8203125,16.046875 21.8359375,16.3515625 22.6484375,16.859375 L21.0234375,21.53125 C19.5,20.71875 17.9765625,20.515625 16.1484375,20.515625 C14.5234375,20.515625 13.3046875,21.0234375 12.4921875,22.0390625 C11.6796875,23.0546875 11.171875,24.6796875 11.171875,26.5078125 C11.171875,28.3359375 11.6796875,29.859375 12.4921875,30.875 C13.3046875,31.890625 14.3203125,32.5 15.84375,32.5 C16.65625,32.5 17.46875,32.5 18.1796875,32.1953125 L18.1796875,29.046875 L14.3203125,29.046875 L14.3203125,24.6796875 Z M46.515625,26.5078125 C46.515625,29.859375 45.8046875,32.5 43.9765625,34.2265625 C42.3515625,36.0546875 39.8125,36.8671875 36.6640625,36.8671875 C33.515625,36.8671875 30.9765625,36.0546875 29.3515625,34.2265625 C27.5234375,32.5 26.8125,29.859375 26.8125,26.5078125 C26.8125,23.0546875 27.5234375,20.515625 29.3515625,18.6875 C31.1796875,16.859375 33.515625,16.046875 36.6640625,16.046875 C39.8125,16.046875 42.3515625,16.859375 43.9765625,18.6875 C45.5,20.515625 46.515625,22.8515625 46.515625,26.5078125 Z M32.5,26.5078125 C32.5,30.3671875 33.8203125,32.5 36.6640625,32.5 C37.984375,32.5 39,31.890625 39.8125,30.875 C40.5234375,29.859375 40.828125,28.5390625 40.828125,26.5078125 C40.828125,24.375 40.5234375,22.8515625 39.8125,22.0390625 C39,20.71875 37.984375,20.515625 36.6640625,20.515625 C33.8203125,20.515625 32.5,22.34375 32.5,26.5078125 Z" id="Shape"></path>
        </g>
    </g>
</svg>