<?xml version="1.0" encoding="UTF-8"?>
<svg width="64px" height="64px" viewBox="0 0 64 64" version="1.1" xmlns="http://www.w3.org/2000/svg" xmlns:xlink="http://www.w3.org/1999/xlink">
    <!-- Generator: Sketch 52.6 (67491) - http://www.bohemiancoding.com/sketch -->
    <title>sign-arrow-down</title>
    <desc>Created with Sketch.</desc>
    <g id="sign-arrow-down" stroke="none" stroke-width="1" fill="none" fill-rule="evenodd">
        <g id="icon-sign-arrow-down" transform="translate(11.000000, 6.000000)" fill="#000000">
            <path d="M0.53164557,26 C4.35949367,29.1416667 8.4,31.85 12.5468354,34.8833333 C13.2911392,35.425 14.1417722,36.075 14.9924051,36.6166667 C15.2050633,36.2916667 15.2050633,36.075 15.2050633,35.75 C15.2050633,24.1583333 15.2050633,12.7833333 15.2050633,1.08333333 C15.2050633,0.216666667 15.5240506,0 16.5873418,0 C19.564557,0 22.5417722,0 25.6253165,0 C26.6886076,0 26.9012658,0.216666667 26.9012658,1.08333333 C26.9012658,12.4583333 26.9012658,24.1583333 26.9012658,35.425 C26.9012658,35.75 26.9012658,36.075 26.9012658,36.2916667 C31.7924051,32.7166667 36.6835443,28.8166667 41.6810127,25.2416667 C42.2126582,25.4583333 41.8936709,25.7833333 41.8936709,26 C41.8936709,29.3583333 41.8936709,32.7166667 41.8936709,35.75 C41.8936709,36.2916667 41.6810127,36.6166667 41.3620253,36.8333333 C34.8759494,41.8166667 28.2835443,46.5833333 21.7974684,51.5666667 C21.478481,51.8916667 21.2658228,52.1083333 20.4151899,51.5666667 C13.6101266,46.5833333 7.01772152,41.6 0.212658228,36.6166667 C0.212658228,36.6166667 0.212658228,36.2916667 0,36.2916667 C0.212658228,32.9333333 0,29.6833333 0,26.325 C0,26.65 0,26.325 0.53164557,26 Z" id="Path"></path>
        </g>
    </g>
</svg>