<?xml version="1.0" encoding="UTF-8"?>
<svg width="64px" height="64px" viewBox="0 0 64 64" version="1.1" xmlns="http://www.w3.org/2000/svg" xmlns:xlink="http://www.w3.org/1999/xlink">
    <!-- Generator: Sketch 52.6 (67491) - http://www.bohemiancoding.com/sketch -->
    <title>sign-circular-arrow-left</title>
    <desc>Created with Sketch.</desc>
    <g id="sign-circular-arrow-left" stroke="none" stroke-width="1" fill="none" fill-rule="evenodd">
        <g id="icon-sign-circular-arrow-left" transform="translate(6.000000, 6.000000)" fill="#000000" fill-rule="nonzero">
            <path d="M26,0 C11.6796875,0 0,11.375 0,26 C0,40.21875 11.4765625,52 26,52 C40.3203125,52 52,40.5234375 52,26 C52,11.6796875 40.5234375,0 26,0 Z M26,44.6875 C15.640625,44.6875 7.3125,36.359375 7.3125,26 C7.3125,15.5390625 15.640625,7.2109375 26,7.2109375 C36.359375,7.2109375 44.6875,15.5390625 44.6875,26 C44.6875,36.359375 36.359375,44.6875 26,44.6875 Z M14.3203125,26 L21.53125,19.1953125 L26.5078125,19.1953125 L21.328125,24.171875 L37.6796875,24.171875 L37.6796875,28.03125 L21.53125,28.03125 L26.5078125,33.0078125 L21.53125,33.0078125 L14.3203125,26 Z" id="Shape"></path>
        </g>
    </g>
</svg>