<?xml version="1.0" encoding="UTF-8"?>
<svg width="64px" height="64px" viewBox="0 0 64 64" version="1.1" xmlns="http://www.w3.org/2000/svg" xmlns:xlink="http://www.w3.org/1999/xlink">
    <!-- Generator: Sketch 52.6 (67491) - http://www.bohemiancoding.com/sketch -->
    <title>sign-circular-speed-50</title>
    <desc>Created with Sketch.</desc>
    <g id="sign-circular-speed-50" stroke="none" stroke-width="1" fill="none" fill-rule="evenodd">
        <g id="icon-sign-circular-speed-50" transform="translate(6.000000, 6.000000)" fill="#000000" fill-rule="nonzero">
            <path d="M26,0 C11.6796875,0 0,11.375 0,26 C0,40.21875 11.4765625,52 26,52 C40.3203125,52 52,40.5234375 52,26 C52,11.6796875 40.5234375,0 26,0 Z M18.484375,22.34375 C19.8046875,22.34375 20.8203125,22.546875 21.53125,23.0546875 C22.6484375,23.6640625 23.359375,24.375 23.96875,25.390625 C24.4765625,26.5078125 24.6796875,27.5234375 24.6796875,28.84375 C24.6796875,31.1796875 23.96875,33.0078125 22.6484375,34.0234375 C21.328125,35.34375 19.1953125,36.0546875 16.3515625,36.0546875 C14.015625,36.0546875 11.984375,35.8515625 10.6640625,35.0390625 L10.6640625,30.671875 C11.4765625,30.875 12.4921875,31.3828125 13.5078125,31.6875 C14.5234375,31.890625 15.3359375,31.890625 16.1484375,31.890625 C17.1640625,31.890625 17.9765625,31.6875 18.484375,31.3828125 C18.9921875,30.875 19.1953125,30.3671875 19.1953125,29.5546875 C19.1953125,28.84375 18.9921875,28.3359375 18.484375,27.7265625 C17.9765625,27.21875 17.1640625,27.015625 15.84375,27.015625 C15.03125,27.015625 14.015625,27.21875 13,27.5234375 L10.96875,26.5078125 L11.6796875,15.3359375 L23.359375,15.3359375 L23.359375,20.0078125 L16.3515625,20.0078125 L16.1484375,22.546875 C16.859375,22.34375 17.46875,22.34375 17.671875,22.34375 C17.9765625,22.34375 18.1796875,22.34375 18.484375,22.34375 Z M41.84375,25.390625 C41.84375,29.046875 41.3359375,31.6875 40.015625,33.515625 C38.6953125,35.0390625 36.96875,36.0546875 34.53125,36.0546875 C32.1953125,36.0546875 30.46875,35.34375 29.1484375,33.515625 C27.828125,31.6875 27.3203125,29.046875 27.3203125,25.6953125 C27.3203125,22.0390625 27.828125,19.5 29.1484375,17.671875 C30.46875,15.84375 32.1953125,15.03125 34.53125,15.03125 C36.96875,15.03125 38.6953125,15.84375 40.015625,17.671875 C41.03125,19.5 41.84375,22.0390625 41.84375,25.390625 Z M32.5,25.390625 C32.5,27.7265625 32.8046875,29.3515625 33.0078125,30.1640625 C33.3125,30.875 33.8203125,31.3828125 34.53125,31.3828125 C35.34375,31.3828125 35.8515625,30.875 36.15625,30.1640625 C36.359375,29.3515625 36.6640625,27.7265625 36.6640625,25.390625 C36.6640625,23.0546875 36.359375,21.53125 36.15625,20.71875 C35.8515625,20.0078125 35.34375,19.5 34.53125,19.5 C33.8203125,19.5 33.515625,20.0078125 33.0078125,20.71875 C32.8046875,21.53125 32.5,23.0546875 32.5,25.390625 Z" id="Shape"></path>
        </g>
    </g>
</svg>