<?xml version="1.0" encoding="UTF-8"?>
<svg width="64px" height="64px" viewBox="0 0 64 64" version="1.1" xmlns="http://www.w3.org/2000/svg" xmlns:xlink="http://www.w3.org/1999/xlink">
    <!-- Generator: Sketch 52.6 (67491) - http://www.bohemiancoding.com/sketch -->
    <title>sign-illlum</title>
    <desc>Created with Sketch.</desc>
    <g id="sign-illlum" stroke="none" stroke-width="1" fill="none" fill-rule="evenodd">
        <g id="icon-sign-illlum" transform="translate(12.000000, 6.000000)" fill="#000000" fill-rule="nonzero">
            <path d="M32.3076923,0 L7.69230769,0 L3.69230769,3.859375 L3.69230769,7.8203125 L36.3076923,7.8203125 L36.3076923,3.859375 L32.3076923,0 Z M22.3589744,12.4921875 L22.3589744,9.6484375 L18.1538462,9.6484375 L18.1538462,12.4921875 C7.8974359,13.5078125 0,21.8359375 0,32.1953125 C0,43.1640625 8.92307692,52 20,52 C31.0769231,52 40,43.1640625 40,32.1953125 C40,21.8359375 32.3076923,13.5078125 22.3589744,12.4921875 Z M20,46.8203125 C11.8974359,46.8203125 5.02564103,40.3203125 5.02564103,31.9921875 C5.02564103,23.96875 11.5897436,17.1640625 20,17.1640625 C28.1025641,17.1640625 34.974359,23.6640625 34.974359,31.9921875 C34.974359,40.3203125 28.1025641,46.8203125 20,46.8203125 Z M8.92307692,28.84375 L8.92307692,32.5 L12.6153846,28.84375 L12.6153846,40.5234375 L15.2820513,40.5234375 L15.2820513,28.84375 L18.974359,32.5 L18.974359,28.84375 L13.9487179,23.6640625 L8.92307692,28.84375 Z M27.3846154,35.34375 L27.3846154,23.6640625 L24.7179487,23.6640625 L24.7179487,35.34375 L21.025641,31.6875 L21.025641,35.34375 L26.0512821,40.5234375 L31.0769231,35.34375 L31.0769231,31.6875 L27.3846154,35.34375 Z" id="Shape"></path>
        </g>
    </g>
</svg>