<?xml version="1.0" encoding="UTF-8"?>
<svg width="64px" height="64px" viewBox="0 0 64 64" version="1.1" xmlns="http://www.w3.org/2000/svg" xmlns:xlink="http://www.w3.org/1999/xlink">
    <!-- Generator: Sketch 52.6 (67491) - http://www.bohemiancoding.com/sketch -->
    <title>sign-circular-arrow-up</title>
    <desc>Created with Sketch.</desc>
    <g id="sign-circular-arrow-up" stroke="none" stroke-width="1" fill="none" fill-rule="evenodd">
        <g id="icon-sign-circular-arrow-up" transform="translate(6.000000, 6.000000)" fill="#000000" fill-rule="nonzero">
            <path d="M26,14.3203125 L33.0078125,21.53125 L33.0078125,26.3046875 L27.828125,21.328125 L27.828125,37.4765625 L23.96875,37.4765625 L23.96875,21.328125 L18.9921875,26.5078125 L18.9921875,21.328125 L26,14.3203125 Z M26,0 C11.6796875,0 0,11.4765625 0,26 C0,40.3203125 11.4765625,52 26,52 C40.3203125,52 52,40.5234375 52,26 C52,11.6796875 40.5234375,0 26,0 Z M26,45.1953125 C15.3359375,45.1953125 6.8046875,36.6640625 6.8046875,26 C6.8046875,15.3359375 15.3359375,6.8046875 26,6.8046875 C36.6640625,6.8046875 45.1953125,15.3359375 45.1953125,26 C45.1953125,36.6640625 36.6640625,45.5 26,45.1953125 Z" id="Shape"></path>
        </g>
    </g>
</svg>