<?xml version="1.0" encoding="UTF-8"?>
<svg width="64px" height="64px" viewBox="0 0 64 64" version="1.1" xmlns="http://www.w3.org/2000/svg" xmlns:xlink="http://www.w3.org/1999/xlink">
    <!-- Generator: Sketch 52.6 (67491) - http://www.bohemiancoding.com/sketch -->
    <title>sign-cameras</title>
    <desc>Created with Sketch.</desc>
    <g id="sign-cameras" stroke="none" stroke-width="1" fill="none" fill-rule="evenodd">
        <g id="icon-sign-cameras" transform="translate(6.000000, 11.000000)" fill="#000000" fill-rule="nonzero">
            <path d="M42.859375,32.8606357 L42.859375,11.809291 L44.9921875,11.809291 L44.9921875,15.7114914 L52,15.7114914 L52,28.8557457 L44.9921875,28.8557457 L44.9921875,35.4278729 L34.53125,35.4278729 L34.53125,32.8606357 L42.859375,32.8606357 Z M38.6953125,8.4205379 L40.828125,8.4205379 L40.828125,30.7041565 L38.6953125,30.7041565 L38.6953125,8.4205379 Z M34.53125,30.7041565 L36.6640625,30.7041565 L36.6640625,6.77750611 L34.53125,6.77750611 L34.53125,30.7041565 Z M23.359375,4.92909535 C24.6796875,4.92909535 26,6.05867971 26,7.599022 C26,8.93398533 24.984375,10.2689487 23.359375,10.2689487 C22.140625,10.2689487 20.8203125,9.1393643 20.8203125,7.599022 C20.8203125,6.26405868 22.140625,4.92909535 23.359375,4.92909535 Z M23.359375,2.56723716 C26.3046875,2.56723716 28.3359375,4.92909535 28.3359375,7.599022 C28.3359375,10.4743276 26,12.6308068 23.359375,12.6308068 C20.8203125,12.6308068 18.484375,10.4743276 18.484375,7.599022 C18.484375,4.92909535 20.8203125,2.56723716 23.359375,2.56723716 Z M13,22.797066 C16.3515625,22.797066 18.9921875,25.4669927 18.9921875,28.8557457 C18.9921875,32.3471883 16.3515625,34.9144254 13,34.9144254 C9.6484375,34.9144254 7.0078125,32.3471883 7.0078125,28.8557457 C7.0078125,25.4669927 9.8515625,22.797066 13,22.797066 Z M13,20.2298289 C17.671875,20.2298289 21.53125,24.1320293 21.53125,28.8557457 C21.53125,33.5794621 17.671875,37.5843521 13,37.5843521 C8.328125,37.5843521 4.46875,33.5794621 4.46875,28.8557457 C4.671875,24.1320293 8.328125,20.2298289 13,20.2298289 Z M16.3515625,0 L5.1796875,0 C2.3359375,0 0,2.36185819 0,5.23716381 L0,36.7628362 C0,39.6381418 2.3359375,42 5.1796875,42 L27.5234375,42 C30.46875,42 32.8046875,39.6381418 32.8046875,36.7628362 L32.8046875,5.23716381 C32.8046875,2.36185819 30.46875,0 27.5234375,0 L16.3515625,0 Z" id="Shape"></path>
        </g>
    </g>
</svg>