<?xml version="1.0" encoding="UTF-8"?>
<svg width="64px" height="64px" viewBox="0 0 64 64" version="1.1" xmlns="http://www.w3.org/2000/svg" xmlns:xlink="http://www.w3.org/1999/xlink">
    <!-- Generator: Sketch 52.6 (67491) - http://www.bohemiancoding.com/sketch -->
    <title>sign-circular-speed-30</title>
    <desc>Created with Sketch.</desc>
    <g id="sign-circular-speed-30" stroke="none" stroke-width="1" fill="none" fill-rule="evenodd">
        <g id="icon-sign-circular-speed-30" transform="translate(6.000000, 6.000000)" fill="#000000" fill-rule="nonzero">
            <path d="M26,0 C11.6796875,0 0,11.375 0,26 C0,40.21875 11.4765625,52 26,52 C40.3203125,52 52,40.5234375 52,26 C52,11.6796875 40.5234375,0 26,0 Z M24.171875,20.515625 C24.171875,21.8359375 23.96875,22.8515625 23.15625,23.8671875 C22.34375,24.6796875 21.328125,25.390625 19.8046875,26 C23.15625,26.5078125 24.984375,28.03125 24.984375,30.875 C24.984375,32.703125 24.171875,34.2265625 22.6484375,35.34375 C21.0234375,36.359375 18.9921875,36.8671875 16.3515625,36.8671875 C15.3359375,36.8671875 14.3203125,36.8671875 13.3046875,36.6640625 C12.1875,36.359375 11.4765625,36.0546875 10.15625,35.8515625 L10.15625,31.1796875 C10.96875,31.6875 11.984375,31.890625 12.6953125,32.1953125 C13.8125,32.5 14.5234375,32.5 15.3359375,32.5 C16.65625,32.5 17.46875,32.1953125 17.9765625,31.890625 C18.484375,31.6875 18.6875,31.1796875 18.6875,30.3671875 C18.6875,29.859375 18.484375,29.3515625 18.1796875,29.046875 C17.9765625,28.84375 17.46875,28.5390625 16.859375,28.3359375 C16.65625,28.3359375 15.640625,28.3359375 14.5234375,28.3359375 L13.5078125,28.3359375 L13.5078125,24.171875 L14.828125,24.171875 C17.671875,24.171875 18.9921875,23.359375 18.9921875,22.0390625 C18.9921875,21.53125 18.6875,21.0234375 18.484375,20.71875 C17.9765625,20.515625 17.1640625,20.2109375 16.65625,20.2109375 C15.3359375,20.2109375 14.015625,20.71875 12.4921875,21.53125 L10.15625,17.875 C11.171875,17.1640625 12.1875,16.5546875 13.5078125,16.3515625 C14.5234375,16.046875 15.84375,15.84375 17.46875,15.84375 C19.5,15.84375 21.328125,16.3515625 22.34375,17.1640625 C23.359375,17.875 24.171875,19.1953125 24.171875,20.515625 Z M41.84375,26.5078125 C41.84375,30.1640625 41.3359375,32.703125 40.015625,34.53125 C38.6953125,36.0546875 36.96875,37.171875 34.53125,37.171875 C32.1953125,37.171875 30.46875,36.359375 29.1484375,34.53125 C27.828125,32.703125 27.3203125,30.1640625 27.3203125,26.7109375 C27.3203125,23.0546875 27.828125,20.515625 29.1484375,18.6875 C30.46875,16.859375 32.1953125,16.046875 34.53125,16.046875 C36.96875,16.046875 38.6953125,16.859375 40.015625,18.6875 C41.03125,20.2109375 41.84375,22.8515625 41.84375,26.5078125 Z M32.5,26.5078125 C32.5,28.84375 32.8046875,30.3671875 33.0078125,31.1796875 C33.3125,31.890625 33.8203125,32.5 34.53125,32.5 C35.34375,32.5 35.8515625,31.890625 36.15625,31.1796875 C36.359375,30.3671875 36.6640625,28.84375 36.6640625,26.5078125 C36.6640625,24.171875 36.359375,22.546875 36.15625,21.8359375 C35.8515625,21.0234375 35.34375,20.515625 34.53125,20.515625 C33.8203125,20.515625 33.515625,21.0234375 33.0078125,21.8359375 C32.5,22.546875 32.5,24.171875 32.5,26.5078125 Z" id="Shape"></path>
        </g>
    </g>
</svg>