<?xml version="1.0" encoding="UTF-8"?>
<svg width="64px" height="64px" viewBox="0 0 64 64" version="1.1" xmlns="http://www.w3.org/2000/svg" xmlns:xlink="http://www.w3.org/1999/xlink">
    <!-- Generator: Sketch 52.6 (67491) - http://www.bohemiancoding.com/sketch -->
    <title>sign-circular-cross</title>
    <desc>Created with Sketch.</desc>
    <g id="sign-circular-cross" stroke="none" stroke-width="1" fill="none" fill-rule="evenodd">
        <g id="icon-sign-circular-cross" transform="translate(6.000000, 6.000000)" fill="#000000" fill-rule="nonzero">
            <path d="M25.5073684,31.0252101 L10.0715789,46.4285714 C14.56,49.8151261 19.9242105,52 26.0547368,52 C31.9663158,52 37.2210526,50.0336134 41.4905263,46.9747899 L25.5073684,31.0252101 Z M46.5263158,10.0504202 L30.8715789,25.7815126 L46.7452632,41.7310924 C50.1389474,37.4705882 51.8905263,31.8991597 51.8905263,26.3277311 C52.1094737,19.8823529 50.1389474,14.3109244 46.5263158,10.0504202 Z M25.5073684,20.210084 L40.9431579,4.80672269 C36.6736842,1.74789916 31.6378947,0 26.0547368,0 C20.1431579,0 14.8884211,1.96638655 10.6189474,5.02521008 L25.5073684,20.210084 Z M20.1431579,25.4537815 L5.03578947,10.5966387 C1.97052632,14.8571429 0,20.210084 0,26 C0,31.5714286 1.64210526,36.7058824 4.70736842,41.1848739 L20.1431579,25.4537815 Z" id="Shape"></path>
        </g>
    </g>
</svg>