<?xml version="1.0" encoding="UTF-8"?>
<svg width="64px" height="64px" viewBox="0 0 64 64" version="1.1" xmlns="http://www.w3.org/2000/svg" xmlns:xlink="http://www.w3.org/1999/xlink">
    <!-- Generator: Sketch 52.6 (67491) - http://www.bohemiancoding.com/sketch -->
    <title>sign-circular-speed-130</title>
    <desc>Created with Sketch.</desc>
    <g id="sign-circular-speed-130" stroke="none" stroke-width="1" fill="none" fill-rule="evenodd">
        <g id="icon-sign-circular-speed-130" transform="translate(6.000000, 6.000000)" fill="#000000" fill-rule="nonzero">
            <path d="M26,0 C11.6796875,0 0,11.375 0,26 C0,40.21875 11.4765625,52 26,52 C40.3203125,52 52,40.5234375 52,26 C52,11.6796875 40.5234375,0 26,0 Z M16.1484375,35.34375 L11.6796875,35.34375 L11.6796875,26.5078125 C11.6796875,25.390625 11.6796875,24.375 11.6796875,23.6640625 C11.4765625,23.8671875 11.171875,24.171875 10.6640625,24.375 L8.8359375,26 L6.5,23.0546875 L12.1875,18.3828125 L16.3515625,18.3828125 L16.3515625,35.34375 L16.1484375,35.34375 Z M31.484375,22.0390625 C31.484375,23.0546875 31.1796875,23.8671875 30.46875,24.6796875 C29.859375,25.390625 28.84375,26 27.5234375,26.203125 C30.46875,26.5078125 31.6875,27.7265625 31.6875,30.1640625 C31.6875,31.6875 31.1796875,33.0078125 29.859375,33.71875 C28.640625,34.53125 27.015625,35.0390625 24.6796875,35.0390625 C23.96875,35.0390625 22.8515625,35.0390625 22.140625,34.8359375 C21.328125,34.8359375 20.515625,34.53125 19.5,34.0234375 L19.5,30.875 C20.3125,31.1796875 21.0234375,31.6875 21.8359375,31.6875 C22.6484375,31.890625 23.359375,31.890625 23.96875,31.890625 C24.984375,31.890625 25.6953125,31.6875 26,31.3828125 C26.5078125,31.1796875 26.8125,30.671875 26.8125,30.1640625 C26.8125,29.5546875 26.8125,29.3515625 26.5078125,29.046875 C26.3046875,28.84375 26,28.5390625 25.4921875,28.5390625 C24.984375,28.5390625 24.171875,28.3359375 23.359375,28.3359375 L22.6484375,28.3359375 L22.6484375,24.8828125 L23.6640625,24.8828125 C26,24.8828125 27.015625,24.375 27.015625,23.0546875 C27.015625,22.546875 26.8125,22.34375 26.5078125,22.0390625 C26.3046875,21.8359375 25.6953125,21.8359375 25.1875,21.8359375 C24.171875,21.8359375 22.8515625,22.34375 21.8359375,23.0546875 L20.0078125,20.0078125 C20.8203125,19.5 21.8359375,18.890625 22.6484375,18.6875 C23.6640625,18.3828125 24.6796875,18.3828125 25.6953125,18.3828125 C27.5234375,18.3828125 28.84375,18.6875 29.859375,19.5 C30.9765625,20.2109375 31.484375,21.0234375 31.484375,22.0390625 Z M45.8046875,27.015625 C45.8046875,29.859375 45.1953125,32.1953125 44.1796875,33.515625 C43.1640625,34.8359375 41.640625,35.546875 39.8125,35.546875 C37.6796875,35.546875 36.359375,34.8359375 35.34375,33.515625 C34.328125,32.1953125 33.8203125,29.859375 33.8203125,27.015625 C33.8203125,24.171875 34.328125,21.8359375 35.34375,20.515625 C36.359375,19.1953125 37.984375,18.3828125 39.8125,18.3828125 C41.640625,18.3828125 43.1640625,18.890625 44.1796875,20.515625 C45.1953125,21.8359375 45.8046875,24.171875 45.8046875,27.015625 Z M38.1875,27.015625 C38.1875,28.84375 38.1875,30.1640625 38.4921875,30.875 C38.6953125,31.6875 39,31.890625 39.8125,31.890625 C40.3203125,31.890625 40.828125,31.6875 41.03125,30.875 C41.3359375,30.1640625 41.3359375,28.84375 41.3359375,27.015625 C41.3359375,25.1875 41.3359375,23.8671875 41.03125,23.0546875 C40.828125,22.34375 40.5234375,22.0390625 39.8125,22.0390625 C39,22.0390625 38.6953125,22.34375 38.4921875,23.0546875 C38.1875,23.8671875 38.1875,24.8828125 38.1875,27.015625 Z" id="Shape"></path>
        </g>
    </g>
</svg>