<?xml version="1.0" encoding="UTF-8"?>
<svg width="64px" height="64px" viewBox="0 0 64 64" version="1.1" xmlns="http://www.w3.org/2000/svg" xmlns:xlink="http://www.w3.org/1999/xlink">
    <!-- Generator: Sketch 52.6 (67491) - http://www.bohemiancoding.com/sketch -->
    <title>sign-lanes</title>
    <desc>Created with Sketch.</desc>
    <g id="sign-lanes" stroke="none" stroke-width="1" fill="none" fill-rule="evenodd">
        <g id="icon-sign-lanes" transform="translate(8.000000, 6.000000)" fill="#000000" fill-rule="nonzero">
            <path d="M46.4549356,0 L8.44635193,0 L8.44635193,9.96837945 C8.44635193,9.96837945 8.44635193,14.3873518 6.07725322,17.0592885 L0,22.8142292 L0,50.458498 C0,51.2806324 0.824034335,52 1.54506438,52 L9.47639485,52 L21.6309013,39.9762846 L22.6609442,39.9762846 L22.6609442,52 L46.4549356,52 C47.1759657,52 48,51.2806324 48,50.458498 L48,1.54150198 C48,0.513833992 47.1759657,0 46.4549356,0 Z M18.9527897,10.9960474 L18.9527897,7.29644269 L15.0386266,3.59683794 L11.3304721,7.29644269 L11.3304721,10.9960474 L14.0085837,8.63241107 L14.0085837,13.3596838 C14.0085837,13.3596838 14.0085837,16.7509881 12.360515,18.3952569 L2.67811159,28.055336 L4.53218884,29.9051383 L14.2145923,20.2450593 C16.583691,17.8814229 16.583691,13.6679842 16.583691,13.3596838 L16.583691,8.63241107 L18.9527897,10.9960474 Z M32.9613734,7.29644269 L32.9613734,11.3043478 L30.5922747,8.63241107 L30.5922747,49.944664 L27.9141631,49.944664 L27.9141631,8.63241107 L25.3390558,11.3043478 L25.3390558,7.29644269 L29.2532189,3.59683794 L32.9613734,7.29644269 Z M45.1158798,7.29644269 L45.1158798,11.3043478 L42.7467811,8.63241107 L42.7467811,49.944664 L40.0686695,49.944664 L40.0686695,8.63241107 L37.6995708,11.3043478 L37.6995708,7.29644269 L41.4077253,3.59683794 L45.1158798,7.29644269 Z M21.6309013,9.66007905 L22.6609442,9.66007905 L22.6609442,15.5177866 L21.6309013,15.5177866 L21.6309013,9.66007905 Z M21.6309013,22.3003953 L22.6609442,22.3003953 L22.6609442,24.6640316 L21.6309013,24.6640316 L21.6309013,22.3003953 Z M21.6309013,27.027668 L22.6609442,27.027668 L22.6609442,29.3913043 L21.6309013,29.3913043 L21.6309013,27.027668 Z M21.6309013,1.23320158 L22.6609442,1.23320158 L22.6609442,7.09090909 L21.6309013,7.09090909 L21.6309013,1.23320158 Z M7.41630901,34.4268775 L11.5364807,30.3162055 L12.0515021,30.8300395 L7.93133047,34.9407115 L7.41630901,34.4268775 Z M1.44206009,40.4901186 L5.45922747,36.3794466 L6.07725322,36.9960474 L1.95708155,41.0039526 L1.44206009,40.4901186 Z M13.1845494,28.4664032 L17.304721,24.458498 L17.8197425,24.972332 L13.8025751,29.083004 L13.1845494,28.4664032 Z M21.6309013,18.0869565 L21.6309013,20.2450593 L19.4678112,22.3003953 L20.0858369,22.8142292 L22.6609442,20.4505929 L22.6609442,18.0869565 L21.6309013,18.0869565 Z M21.6309013,31.5494071 L22.6609442,31.5494071 L22.6609442,33.9130435 L21.6309013,33.9130435 L21.6309013,31.5494071 Z M21.6309013,31.5494071 L22.6609442,31.5494071 L22.6609442,33.9130435 L21.6309013,33.9130435 L21.6309013,31.5494071 Z M18.7467811,38.8458498 L16.0686695,41.5177866 L16.0686695,38.1264822 L4.22317597,49.944664 L2.36909871,48.0948617 L14.2145923,36.2766798 L10.8154506,36.2766798 L13.4935622,33.6047431 L18.7467811,33.6047431 L18.7467811,38.8458498 Z M21.6309013,36.2766798 L22.6609442,36.2766798 L22.6609442,38.6403162 L21.6309013,38.6403162 L21.6309013,36.2766798 Z M21.6309013,36.2766798 L22.6609442,36.2766798 L22.6609442,38.6403162 L21.6309013,38.6403162 L21.6309013,36.2766798 Z" id="Shape"></path>
        </g>
    </g>
</svg>