<?xml version="1.0" encoding="UTF-8"?>
<svg width="64px" height="64px" viewBox="0 0 64 64" version="1.1" xmlns="http://www.w3.org/2000/svg" xmlns:xlink="http://www.w3.org/1999/xlink">
    <!-- Generator: Sketch 52.6 (67491) - http://www.bohemiancoding.com/sketch -->
    <title>sign-sqare-disabled</title>
    <desc>Created with Sketch.</desc>
    <g id="sign-sqare-disabled" stroke="none" stroke-width="1" fill="none" fill-rule="evenodd">
        <g id="icon-sign-sqare-disabled" transform="translate(6.000000, 6.000000)" fill="#000000" fill-rule="nonzero">
            <path d="M48.8392157,0 L3.36470588,0 C1.52941176,0 0,1.5324165 0,3.37131631 L0,48.3222004 C0,50.4675835 1.52941176,52 3.36470588,52 L48.5333333,52 C50.3686275,52 51.8980392,50.4675835 51.8980392,48.6286837 L51.8980392,3.37131631 C52.2039216,1.5324165 50.6745098,0 48.8392157,0 Z M6.01568627,38.6168959 L7.03529412,36.0628684 L11.0117647,37.5952849 L15.9058824,26.1532417 L28.7529412,26.1532417 L28.9568627,23.1905697 L19.2705882,23.1905697 L19.2705882,20.1257367 L29.2627451,20.1257367 L29.772549,13.280943 C29.772549,13.280943 29.4666667,13.280943 29.4666667,13.280943 C27.427451,13.280943 25.5921569,11.4420432 25.5921569,9.39882122 C25.5921569,7.25343811 27.427451,5.41453831 29.4666667,5.41453831 C31.6078431,5.41453831 33.1372549,7.04911591 33.4431373,9.09233792 L31.8117647,29.0137525 L18.2509804,29.0137525 L13.0509804,41.5795678 L6.01568627,38.6168959 Z M27.9372549,45.1552063 C22.9411765,45.1552063 18.5568627,42.2946955 16.4156863,37.9017682 L18.2509804,33.2023576 C18.5568627,38.1060904 22.7372549,42.0903733 27.6313725,42.0903733 C32.9333333,42.0903733 37.1137255,37.9017682 37.1137255,32.6915521 C37.1137255,29.7288802 35.7882353,26.8683694 33.4431373,25.3359528 L33.9529412,21.3516699 C37.827451,23.497053 40.4784314,27.6856582 40.4784314,32.3850688 C40.4784314,39.4341847 34.6666667,45.1552063 27.9372549,45.1552063 Z" id="Shape"></path>
        </g>
    </g>
</svg>