<?xml version="1.0" encoding="UTF-8"?>
<svg width="64px" height="64px" viewBox="0 0 64 64" version="1.1" xmlns="http://www.w3.org/2000/svg" xmlns:xlink="http://www.w3.org/1999/xlink">
    <!-- Generator: Sketch 52.6 (67491) - http://www.bohemiancoding.com/sketch -->
    <title>sign-arrow-roundebound</title>
    <desc>Created with Sketch.</desc>
    <g id="sign-arrow-roundebound" stroke="none" stroke-width="1" fill="none" fill-rule="evenodd">
        <g id="icon-sign-arrow-roundebound" transform="translate(6.000000, 8.000000)" fill="#000000" fill-rule="nonzero">
            <path d="M48.140625,30.617284 C48.6484375,28.5432099 49.15625,26.2716049 49.15625,24 C49.15625,13.6296296 42.3515625,4.74074074 32.5,1.48148148 L29.859375,7.01234568 C37.4765625,9.38271605 42.65625,16.1975309 42.65625,24 C42.65625,25.7777778 42.3515625,27.2592593 41.84375,28.8395062 L39.5078125,25.4814815 L39,30.0246914 L43.9765625,37.4320988 L51.1875,32.2962963 L52,28.0493827 L48.140625,30.617284 Z M24.4765625,41.6790123 C21.0234375,41.6790123 17.9765625,40.691358 15.3359375,39.2098765 L19.8046875,39.2098765 L16.65625,36.1481481 L7.8203125,36.345679 L8.328125,44.9382716 L11.6796875,48 L11.4765625,43.9506173 C15.3359375,46.5185185 20.0078125,48 24.984375,48 C29.1484375,48 33.0078125,47.0123457 36.359375,45.2345679 L34.0234375,39.4074074 C30.9765625,40.9876543 27.828125,41.6790123 24.4765625,41.6790123 Z M16.3515625,8.2962963 L15.640625,12.345679 L19.1953125,9.87654321 L21.0234375,1.28395062 L12.1875,0 L8.53125,2.4691358 L12.6953125,3.25925926 C5.1796875,7.30864198 0,14.9135802 0,24 C0,26.2716049 0.3046875,28.5432099 1.015625,30.617284 L7.3125,29.3333333 C6.8046875,27.5555556 6.5,25.7777778 6.5,24 C6.1953125,17.1851852 10.359375,11.0617284 16.3515625,8.2962963 Z" id="Shape"></path>
        </g>
    </g>
</svg>