<?xml version="1.0" encoding="UTF-8"?>
<svg width="64px" height="64px" viewBox="0 0 64 64" version="1.1" xmlns="http://www.w3.org/2000/svg" xmlns:xlink="http://www.w3.org/1999/xlink">
    <!-- Generator: Sketch 52.6 (67491) - http://www.bohemiancoding.com/sketch -->
    <title>sign-arrow-straight</title>
    <desc>Created with Sketch.</desc>
    <g id="sign-arrow-straight" stroke="none" stroke-width="1" fill="none" fill-rule="evenodd">
        <g id="icon-sign-arrow-straight" transform="translate(16.000000, 6.000000)" fill="#000000">
            <path d="M31.6893204,26.3547758 C28.4789644,23.4152047 25.579288,20.374269 22.368932,17.5360624 C21.8511327,16.9278752 21.3333333,16.4210526 20.815534,15.711501 C20.6084142,15.91423 20.815534,16.2183236 20.815534,16.7251462 C20.815534,28.0779727 20.815534,39.5321637 20.815534,50.9863548 C20.815534,51.6959064 20.6084142,52 19.7799353,52 C17.3980583,52 15.223301,52 12.8414239,52 C12.1165049,52 11.8058252,51.6959064 11.8058252,50.9863548 C11.8058252,39.5321637 11.8058252,28.0779727 11.8058252,16.7251462 C11.8058252,16.4210526 11.8058252,16.2183236 11.8058252,15.91423 C8.0776699,19.5633528 4.34951456,23.2124756 0.724919094,26.8615984 C-0.103559871,26.5575049 0.103559871,26.3547758 0.103559871,26.0506823 C0.103559871,22.705653 0.103559871,19.5633528 0.103559871,16.2183236 C0.103559871,15.711501 0.414239482,15.4074074 0.724919094,15.1033138 C5.69579288,10.2378168 10.4595469,5.27095517 15.5339806,0.40545809 C15.7411003,0.101364522 16.0517799,-0.202729045 16.5695793,0.40545809 C21.6440129,5.27095517 26.6148867,10.4405458 32,15.4074074 C32,15.4074074 32,15.711501 32,15.711501 C32,19.0565302 32,22.1988304 32,25.5438596 C32,25.7465887 32,26.0506823 31.6893204,26.3547758 Z" id="Path"></path>
        </g>
    </g>
</svg>