<?xml version="1.0" encoding="UTF-8"?>
<svg width="64px" height="64px" viewBox="0 0 64 64" version="1.1" xmlns="http://www.w3.org/2000/svg" xmlns:xlink="http://www.w3.org/1999/xlink">
    <!-- Generator: Sketch 52.6 (67491) - http://www.bohemiancoding.com/sketch -->
    <title>sign-narrowroad</title>
    <desc>Created with Sketch.</desc>
    <g id="sign-narrowroad" stroke="none" stroke-width="1" fill="none" fill-rule="evenodd">
        <g id="icon-sign-narrowroad" transform="translate(15.000000, 6.000000)" fill="#000000" fill-rule="nonzero">
            <path d="M8.44848485,28.84375 C7.62424242,29.859375 7.41818182,31.1796875 7.41818182,32.5 L7.41818182,52 L0,52 L0,32.5 C0,29.65625 0.824242424,27.015625 2.16363636,24.984375 L5.76969697,20.3125 C6.38787879,19.1953125 6.59393939,18.1796875 6.59393939,16.859375 L6.59393939,0 L14.2181818,0 L14.2181818,16.859375 C14.2181818,19.8046875 13.4969697,22.34375 12.1575758,24.4765625 L8.44848485,28.84375 Z M25.3454545,28.84375 C26.169697,29.859375 26.3757576,31.1796875 26.3757576,32.5 L26.3757576,52 L34,52 L34,32.5 C34,29.65625 33.2787879,27.015625 31.9393939,24.984375 L28.230303,20.3125 C27.4060606,19.1953125 27.2,18.1796875 27.2,16.859375 L27.2,0 L19.5757576,0 L19.5757576,16.859375 C19.5757576,19.8046875 20.2969697,22.34375 21.6363636,24.4765625 L25.3454545,28.84375 Z" id="Shape"></path>
        </g>
    </g>
</svg>