<?xml version="1.0" encoding="UTF-8"?>
<svg width="64px" height="64px" viewBox="0 0 64 64" version="1.1" xmlns="http://www.w3.org/2000/svg" xmlns:xlink="http://www.w3.org/1999/xlink">
    <!-- Generator: Sketch 52.6 (67491) - http://www.bohemiancoding.com/sketch -->
    <title>sign-circular-speed-20</title>
    <desc>Created with Sketch.</desc>
    <g id="sign-circular-speed-20" stroke="none" stroke-width="1" fill="none" fill-rule="evenodd">
        <g id="icon-sign-circular-speed-20" transform="translate(6.000000, 6.000000)" fill="#000000" fill-rule="nonzero">
            <path d="M26,0 C11.6796875,0 0,11.375 0,26 C0,40.21875 11.4765625,52 26,52 C40.3203125,52 52,40.5234375 52,26 C52,11.6796875 40.5234375,0 26,0 Z M24.984375,36.6640625 L10.15625,36.6640625 L10.15625,33.0078125 L15.03125,28.03125 C16.3515625,26.5078125 17.46875,25.390625 17.9765625,24.8828125 C18.1796875,24.375 18.6875,23.8671875 18.6875,23.359375 C18.9921875,23.0546875 18.9921875,22.546875 18.9921875,22.34375 C18.9921875,21.8359375 18.6875,21.2265625 18.484375,21.0234375 C18.1796875,20.71875 17.671875,20.515625 17.1640625,20.515625 C16.3515625,20.515625 15.84375,20.71875 15.03125,21.0234375 C14.5234375,21.2265625 13.8125,22.0390625 13,22.546875 L9.8515625,19.1953125 C10.96875,18.1796875 11.6796875,17.671875 12.4921875,17.1640625 C13.3046875,16.5546875 14.015625,16.3515625 14.828125,16.046875 C15.640625,15.84375 16.65625,15.84375 17.671875,15.84375 C18.9921875,15.84375 20.3125,16.046875 21.328125,16.5546875 C22.34375,17.1640625 23.15625,17.671875 23.6640625,18.6875 C24.171875,19.5 24.4765625,20.515625 24.4765625,21.53125 C24.4765625,22.34375 24.4765625,23.0546875 24.171875,23.8671875 C23.96875,24.6796875 23.6640625,24.8828125 23.359375,25.6953125 C22.8515625,26.5078125 22.34375,27.015625 21.8359375,27.7265625 C21.328125,28.5390625 19.8046875,29.859375 17.46875,31.890625 L17.46875,32.1953125 L25.1875,32.1953125 L25.1875,36.6640625 L24.984375,36.6640625 Z M41.84375,26.5078125 C41.84375,30.1640625 41.3359375,32.703125 40.015625,34.53125 C38.6953125,36.0546875 36.96875,37.171875 34.53125,37.171875 C32.1953125,37.171875 30.46875,36.359375 29.1484375,34.53125 C27.828125,32.703125 27.3203125,30.1640625 27.3203125,26.7109375 C27.3203125,23.0546875 27.828125,20.515625 29.1484375,18.6875 C30.46875,16.859375 32.1953125,16.046875 34.53125,16.046875 C36.96875,16.046875 38.6953125,16.859375 40.015625,18.6875 C41.03125,20.2109375 41.84375,22.8515625 41.84375,26.5078125 Z M32.5,26.5078125 C32.5,28.84375 32.8046875,30.3671875 33.0078125,31.1796875 C33.3125,31.890625 33.8203125,32.5 34.53125,32.5 C35.34375,32.5 35.8515625,31.890625 36.15625,31.1796875 C36.359375,30.3671875 36.6640625,28.84375 36.6640625,26.5078125 C36.6640625,24.171875 36.359375,22.546875 36.15625,21.8359375 C35.8515625,21.0234375 35.34375,20.515625 34.53125,20.515625 C33.8203125,20.515625 33.515625,21.0234375 33.0078125,21.8359375 C32.8046875,22.546875 32.5,24.171875 32.5,26.5078125 Z" id="Shape"></path>
        </g>
    </g>
</svg>