<?xml version="1.0" encoding="UTF-8"?>
<svg width="64px" height="64px" viewBox="0 0 64 64" version="1.1" xmlns="http://www.w3.org/2000/svg" xmlns:xlink="http://www.w3.org/1999/xlink">
    <!-- Generator: Sketch 52.6 (67491) - http://www.bohemiancoding.com/sketch -->
    <title>sign-arrow-left</title>
    <desc>Created with Sketch.</desc>
    <g id="sign-arrow-left" stroke="none" stroke-width="1" fill="none" fill-rule="evenodd">
        <g id="icon-sign-arrow-left" transform="translate(6.000000, 17.000000)" fill="#000000">
            <path d="M25.8479532,0.291262136 C22.9649123,3.30097087 19.9824561,6.01941748 17.1988304,9.02912621 C16.6023392,9.51456311 16.1052632,10 15.4093567,10.4854369 C15.6081871,10.6796117 15.9064327,10.4854369 16.4035088,10.4854369 C27.5380117,10.4854369 39.7719298,10.4854369 51.005848,10.4854369 C51.7017544,10.4854369 52,10.6796117 52,11.4563107 C52,13.6893204 52,15.7281553 52,17.961165 C52,18.6407767 51.7017544,18.9320388 51.005848,18.9320388 C39.7719298,18.9320388 27.5380117,18.9320388 16.4035088,18.9320388 C16.1052632,18.9320388 15.9064327,18.9320388 15.6081871,18.9320388 C19.1871345,22.4271845 22.7660819,25.9223301 26.3450292,29.3203883 C26.0467836,30.0970874 25.8479532,29.9029126 25.5497076,29.9029126 C22.2690058,29.9029126 19.1871345,29.9029126 15.9064327,29.9029126 C15.4093567,29.9029126 15.1111111,29.6116505 14.6140351,29.3203883 C9.74269006,24.6601942 4.97076023,19.9029126 0.397660819,15.4368932 C0.0994152047,15.2427184 -0.198830409,14.9514563 0.397660819,14.4660194 C5.16959064,9.70873786 10.2397661,5.04854369 15.1111111,0 C15.1111111,0 15.4093567,0 15.4093567,0 C18.6900585,0 21.7719298,0 25.0526316,0 C25.251462,0 25.5497076,0 25.8479532,0.291262136 Z" id="Path"></path>
        </g>
    </g>
</svg>