<?xml version="1.0" encoding="UTF-8"?>
<svg width="64px" height="64px" viewBox="0 0 64 64" version="1.1" xmlns="http://www.w3.org/2000/svg" xmlns:xlink="http://www.w3.org/1999/xlink">
    <!-- Generator: Sketch 52.6 (67491) - http://www.bohemiancoding.com/sketch -->
    <title>sign-car</title>
    <desc>Created with Sketch.</desc>
    <g id="sign-car" stroke="none" stroke-width="1" fill="none" fill-rule="evenodd">
        <g id="icon-sign-car" transform="translate(6.000000, 8.000000)" fill="#000000" fill-rule="nonzero">
            <path d="M48.6040816,18.6315789 L45.9510204,4.63157895 C45.6326531,2.94736842 43.722449,0.315789474 40.2204082,0 L12.2040816,0 C8.48979592,0 6.57959184,2.94736842 6.26122449,4.63157895 L3.60816327,18.6315789 C1.91020408,18.8421053 0,20.5263158 0,22.4210526 L0,34 C0,35.5789474 1.69795918,37.1578947 2.22857143,37.7894737 L2.22857143,46.1052632 C3.28979592,47.1578947 4.35102041,48 6.04897959,48 C7.64081633,48 9.23265306,47.1578947 10.0816327,46.1052632 L10.0816327,38 L17.4040816,38.5263158 L34.8081633,38.5263158 L41.8122449,38 L41.8122449,46.1052632 C42.6612245,47.1578947 44.3591837,48 45.9510204,48 C47.5428571,48 48.6040816,47.1578947 49.7714286,46.1052632 L49.7714286,37.7894737 C50.3020408,37.1578947 51.8938776,35.8947368 51.8938776,34 L51.8938776,22.4210526 C52.2122449,20.5263158 50.3020408,18.8421053 48.6040816,18.6315789 Z M6.57959184,28.3157895 C4.66938776,28.3157895 2.97142857,26.7368421 2.97142857,24.8421053 C2.97142857,22.9473684 4.66938776,21.0526316 6.57959184,21.0526316 C8.48979592,21.0526316 10.0816327,22.6315789 10.0816327,24.8421053 C10.4,26.7368421 8.70204082,28.3157895 6.57959184,28.3157895 Z M39.3714286,34.2105263 L30.9877551,34.7368421 L21.2244898,34.7368421 L12.8408163,34.2105263 L12.8408163,32.6315789 L39.3714286,32.6315789 L39.3714286,34.2105263 Z M39.3714286,30.7368421 L12.8408163,30.7368421 L12.8408163,28.8421053 L39.3714286,28.8421053 L39.3714286,30.7368421 Z M12.8408163,26.4210526 L12.8408163,24.8421053 L21.2244898,24.3157895 L30.9877551,24.3157895 L39.3714286,24.8421053 L39.3714286,26.4210526 L12.8408163,26.4210526 Z M26.1061224,15.6842105 L10.9306122,16.4210526 C8.17142857,16.4210526 6.79183673,15.6842105 7.11020408,13.2631579 L7.85306122,8.94736842 C8.70204082,4.63157895 13.3714286,4.10526316 18.2530612,4.10526316 L33.9591837,4.10526316 C38.6285714,4.10526316 43.1918367,4.63157895 44.3591837,8.94736842 L45.1020408,13.2631579 C45.4204082,15.6842105 44.0408163,16.4210526 41.2816327,16.4210526 L26.1061224,15.6842105 Z M45.6326531,28.3157895 C43.5102041,28.3157895 42.1306122,26.7368421 42.1306122,24.8421053 C42.1306122,22.9473684 43.722449,21.0526316 45.6326531,21.0526316 C47.5428571,21.0526316 49.2408163,22.6315789 49.2408163,24.8421053 C49.2408163,26.7368421 47.5428571,28.3157895 45.6326531,28.3157895 Z" id="Shape"></path>
        </g>
    </g>
</svg>