<?xml version="1.0" encoding="UTF-8"?>
<svg width="64px" height="64px" viewBox="0 0 64 64" version="1.1" xmlns="http://www.w3.org/2000/svg" xmlns:xlink="http://www.w3.org/1999/xlink">
    <!-- Generator: Sketch 52.6 (67491) - http://www.bohemiancoding.com/sketch -->
    <title>sign-arrow-turn-right</title>
    <desc>Created with Sketch.</desc>
    <g id="sign-arrow-turn-right" stroke="none" stroke-width="1" fill="none" fill-rule="evenodd">
        <g id="icon-sign-arrow-turn-right" transform="translate(10.000000, 6.000000)" fill="#000000">
            <path d="M0,10.5019608 C0,10.5019608 0,10.1960784 0,10.1960784 C0,9.48235294 0.205607477,9.48235294 0.719626168,9.48235294 C10.4859813,9.48235294 20.2523364,9.48235294 29.9158879,9.48235294 C30.2242991,9.48235294 30.4299065,9.48235294 30.7383178,9.48235294 C30.2242991,8.97254902 29.7102804,8.36078431 29.1962617,7.85098039 C26.5233645,5.30196078 24.1588785,2.95686275 21.4859813,0.305882353 C21.7943925,-0.203921569 22.1028037,0.101960784 22.3084112,0.101960784 C25.1869159,0.101960784 27.8598131,0.101960784 30.7383178,0.101960784 C30.7383178,0.101960784 31.046729,0.101960784 31.046729,0.101960784 C35.2616822,4.28235294 39.4766355,8.36078431 43.588785,12.5411765 C44.2056075,13.1529412 43.8971963,13.1529412 43.588785,13.3568627 C39.4766355,17.5372549 35.4672897,21.4117647 31.2523364,25.5921569 C31.046729,25.8980392 30.7383178,26.2039216 30.2242991,26.2039216 C27.5514019,26.2039216 24.6728972,26.2039216 22.1028037,26.2039216 C21.7943925,26.2039216 21.7943925,26.2039216 21.2803738,25.8980392 C24.4672897,22.7372549 27.5514019,19.6784314 30.4299065,16.7215686 C30.2242991,16.7215686 29.9158879,16.7215686 29.7102804,16.7215686 C22.6168224,16.7215686 15.5233645,16.7215686 8.3271028,16.7215686 L8.3271028,52 L0,52 L0,10.5019608 Z" id="Path"></path>
        </g>
    </g>
</svg>