<?xml version="1.0" encoding="UTF-8"?>
<svg width="64px" height="64px" viewBox="0 0 64 64" version="1.1" xmlns="http://www.w3.org/2000/svg" xmlns:xlink="http://www.w3.org/1999/xlink">
    <!-- Generator: Sketch 52.6 (67491) - http://www.bohemiancoding.com/sketch -->
    <title>sign-circular-speed-90</title>
    <desc>Created with Sketch.</desc>
    <g id="sign-circular-speed-90" stroke="none" stroke-width="1" fill="none" fill-rule="evenodd">
        <g id="icon-sign-circular-speed-90" transform="translate(6.000000, 6.000000)" fill="#000000" fill-rule="nonzero">
            <path d="M26,0 C11.6796875,0 0,11.375 0,26 C0,40.21875 11.4765625,52 26,52 C40.3203125,52 52,40.5234375 52,26 C52,11.6796875 40.5234375,0 26,0 Z M24.984375,24.6796875 C24.984375,28.5390625 24.171875,31.3828125 22.34375,33.2109375 C20.515625,35.0390625 17.9765625,35.8515625 14.015625,35.8515625 C12.6953125,35.8515625 11.984375,35.8515625 11.171875,35.546875 L11.171875,31.1796875 C11.984375,31.3828125 12.6953125,31.3828125 13.5078125,31.3828125 C15.640625,31.3828125 16.859375,30.875 18.1796875,30.1640625 C19.1953125,29.3515625 19.8046875,28.03125 20.0078125,26.203125 C19.8046875,27.015625 19.1953125,27.21875 18.9921875,27.7265625 C18.6875,28.3359375 18.1796875,28.3359375 17.671875,28.5390625 C17.1640625,28.84375 16.3515625,29.046875 15.640625,29.046875 C13.8125,29.046875 12.4921875,28.5390625 11.4765625,27.21875 C10.359375,26 9.8515625,24.375 9.8515625,22.34375 C9.8515625,20.0078125 10.359375,18.1796875 11.6796875,17.1640625 C13,15.84375 14.828125,15.3359375 16.859375,15.3359375 C19.5,15.3359375 21.328125,16.046875 22.6484375,17.875 C23.96875,19.703125 24.984375,21.53125 24.984375,24.6796875 Z M17.46875,19.5 C16.859375,19.5 16.3515625,19.703125 15.84375,20.2109375 C15.640625,20.515625 15.3359375,21.2265625 15.3359375,22.34375 C15.3359375,23.0546875 15.640625,23.6640625 15.84375,24.171875 C16.1484375,24.6796875 16.65625,24.8828125 17.46875,24.8828125 C17.9765625,24.8828125 18.484375,24.6796875 18.9921875,24.171875 C19.5,23.6640625 19.5,23.0546875 19.5,22.546875 C19.5,21.8359375 19.1953125,21.0234375 18.9921875,20.515625 C18.484375,19.703125 17.9765625,19.5 17.46875,19.5 Z M41.84375,25.390625 C41.84375,29.046875 41.3359375,31.6875 40.015625,33.515625 C38.6953125,35.0390625 36.96875,36.0546875 34.53125,36.0546875 C32.1953125,36.0546875 30.46875,35.34375 29.1484375,33.515625 C27.828125,31.6875 27.3203125,29.046875 27.3203125,25.6953125 C27.3203125,22.0390625 27.828125,19.5 29.1484375,17.671875 C30.46875,15.84375 32.1953125,15.03125 34.53125,15.03125 C36.96875,15.03125 38.6953125,15.84375 40.015625,17.671875 C41.03125,19.5 41.84375,22.0390625 41.84375,25.390625 Z M32.5,25.390625 C32.5,27.7265625 32.8046875,29.3515625 33.0078125,30.1640625 C33.3125,30.875 33.8203125,31.3828125 34.53125,31.3828125 C35.34375,31.3828125 35.8515625,30.875 36.15625,30.1640625 C36.359375,29.3515625 36.6640625,27.7265625 36.6640625,25.390625 C36.6640625,23.0546875 36.359375,21.53125 36.15625,20.71875 C35.8515625,20.0078125 35.34375,19.5 34.53125,19.5 C33.8203125,19.5 33.515625,20.0078125 33.0078125,20.71875 C32.8046875,21.53125 32.5,23.0546875 32.5,25.390625 Z" id="Shape"></path>
        </g>
    </g>
</svg>