<?xml version="1.0" encoding="UTF-8"?>
<svg width="64px" height="64px" viewBox="0 0 64 64" version="1.1" xmlns="http://www.w3.org/2000/svg" xmlns:xlink="http://www.w3.org/1999/xlink">
    <!-- Generator: Sketch 52.6 (67491) - http://www.bohemiancoding.com/sketch -->
    <title>sign-sqare-parking</title>
    <desc>Created with Sketch.</desc>
    <g id="sign-sqare-parking" stroke="none" stroke-width="1" fill="none" fill-rule="evenodd">
        <g id="icon-sign-sqare-parking" transform="translate(6.000000, 6.000000)" fill="#000000" fill-rule="nonzero">
            <path d="M26,20.71875 L24.6796875,20.71875 L24.6796875,25.390625 L25.6953125,25.390625 C26.5078125,25.390625 27.3203125,25.1875 27.828125,24.6796875 C28.3359375,24.171875 28.640625,23.6640625 28.640625,22.8515625 C28.3359375,21.2265625 27.5234375,20.71875 26,20.71875 Z M0,0 L0,52 L52,52 L52,0 L0,0 Z M31.9921875,28.03125 C30.671875,29.3515625 28.640625,29.859375 26.3046875,29.859375 L24.6796875,29.859375 L24.6796875,36.6640625 L19.1953125,36.6640625 L19.1953125,16.046875 L26.3046875,16.046875 C28.84375,16.046875 30.671875,16.5546875 31.9921875,17.671875 C33.3125,18.6875 33.8203125,20.2109375 33.8203125,22.34375 C34.0234375,24.8828125 33.3125,26.7109375 31.9921875,28.03125 Z" id="Shape"></path>
        </g>
    </g>
</svg>