<?xml version="1.0" encoding="UTF-8"?>
<svg width="64px" height="64px" viewBox="0 0 64 64" version="1.1" xmlns="http://www.w3.org/2000/svg" xmlns:xlink="http://www.w3.org/1999/xlink">
    <!-- Generator: Sketch 52.6 (67491) - http://www.bohemiancoding.com/sketch -->
    <title>sign-direction</title>
    <desc>Created with Sketch.</desc>
    <g id="sign-direction" stroke="none" stroke-width="1" fill="none" fill-rule="evenodd">
        <g id="icon-sign-direction" transform="translate(6.000000, 6.000000)" fill="#000000" fill-rule="nonzero">
            <path d="M25.5456311,32.8046875 C26.8582524,31.484375 28.1708738,30.1640625 29.4834951,28.84375 C29.6854369,28.640625 29.9883495,28.3359375 30.2912621,28.03125 C29.9883495,28.03125 29.9883495,28.03125 29.6854369,28.03125 C24.5359223,28.03125 19.6893204,28.03125 14.438835,28.03125 C14.2368932,28.03125 13.9339806,28.03125 13.9339806,27.5234375 C13.9339806,26.5078125 13.9339806,25.4921875 13.9339806,24.6796875 C13.9339806,24.4765625 13.9339806,24.171875 14.438835,24.171875 C19.6893204,24.171875 24.5359223,24.171875 29.6854369,24.171875 C29.9883495,24.171875 29.9883495,24.171875 30.2912621,24.171875 C28.6757282,22.34375 27.161165,20.8203125 25.5456311,19.1953125 C25.8485437,18.9921875 25.8485437,19.1953125 25.8485437,19.1953125 C27.3631068,19.1953125 28.6757282,19.1953125 30.2912621,19.1953125 C30.4932039,19.1953125 30.4932039,19.1953125 30.7961165,19.5 C32.815534,21.53125 35.1378641,23.96875 37.2582524,26 C37.2582524,26 37.4601942,26.3046875 37.2582524,26.5078125 C34.9359223,28.84375 32.815534,30.9765625 30.4932039,33.3125 C28.9786408,33.3125 27.6660194,33.3125 26.1514563,33.3125 C25.8485437,33.0078125 25.8485437,33.0078125 25.5456311,32.8046875 Z M36.4504854,0 L15.2466019,0 L0,15.3359375 L0,36.96875 L15.2466019,52 L36.7533981,52 L52,36.6640625 L52,15.3359375 L36.4504854,0 Z M44.4271845,33.8203125 L33.623301,44.6875 L18.0737864,44.6875 L7.26990291,33.8203125 L7.26990291,18.1796875 L18.0737864,7.3125 L33.623301,7.3125 L44.4271845,18.1796875 L44.4271845,33.8203125 Z" id="Shape"></path>
        </g>
    </g>
</svg>