<?xml version="1.0" encoding="UTF-8"?>
<svg width="64px" height="64px" viewBox="0 0 64 64" version="1.1" xmlns="http://www.w3.org/2000/svg" xmlns:xlink="http://www.w3.org/1999/xlink">
    <!-- Generator: Sketch 52.6 (67491) - http://www.bohemiancoding.com/sketch -->
    <title>sign-circular-speed-60</title>
    <desc>Created with Sketch.</desc>
    <g id="sign-circular-speed-60" stroke="none" stroke-width="1" fill="none" fill-rule="evenodd">
        <g id="icon-sign-circular-speed-60" transform="translate(6.000000, 6.000000)" fill="#000000" fill-rule="nonzero">
            <path d="M26,0 C11.6796875,0 0,11.375 0,26 C0,40.21875 11.4765625,52 26,52 C40.3203125,52 52,40.5234375 52,26 C52,11.6796875 40.5234375,0 26,0 Z M10.15625,27.015625 C10.15625,24.171875 10.6640625,21.8359375 11.4765625,20.0078125 C12.1875,18.1796875 13.5078125,16.859375 15.03125,16.046875 C16.65625,15.5390625 18.484375,15.03125 20.8203125,15.03125 C21.53125,15.03125 22.6484375,15.03125 23.6640625,15.3359375 L23.6640625,19.703125 C22.8515625,19.5 21.8359375,19.1953125 20.8203125,19.1953125 C18.9921875,19.1953125 17.671875,19.703125 16.65625,20.515625 C15.84375,21.2265625 15.3359375,22.546875 15.03125,24.375 L15.3359375,24.375 C16.1484375,22.8515625 17.46875,22.0390625 19.5,22.0390625 C21.328125,22.0390625 22.6484375,22.546875 23.6640625,23.8671875 C24.6796875,24.8828125 25.1875,26.7109375 25.1875,28.84375 C25.1875,31.1796875 24.6796875,32.703125 23.359375,34.0234375 C22.140625,35.34375 20.3125,35.8515625 18.1796875,35.8515625 C15.84375,35.8515625 13.8125,35.0390625 12.4921875,33.515625 C11.171875,31.890625 10.15625,29.859375 10.15625,27.015625 Z M17.671875,31.6875 C18.1796875,31.6875 18.6875,31.3828125 19.1953125,30.875 C19.5,30.3671875 19.8046875,29.859375 19.8046875,28.84375 C19.8046875,27.21875 19.1953125,26.203125 17.9765625,26.203125 C17.46875,26.203125 16.859375,26.5078125 16.3515625,26.7109375 C15.84375,27.5234375 15.640625,28.03125 15.640625,28.5390625 C15.640625,29.3515625 15.84375,30.1640625 16.1484375,30.671875 C16.65625,31.3828125 17.1640625,31.6875 17.671875,31.6875 Z M41.84375,25.390625 C41.84375,29.046875 41.3359375,31.6875 40.015625,33.515625 C38.6953125,35.0390625 36.96875,36.0546875 34.53125,36.0546875 C32.1953125,36.0546875 30.46875,35.34375 29.1484375,33.515625 C27.828125,31.6875 27.3203125,29.046875 27.3203125,25.6953125 C27.3203125,22.0390625 27.828125,19.5 29.1484375,17.671875 C30.46875,15.84375 32.1953125,15.03125 34.53125,15.03125 C36.96875,15.03125 38.6953125,15.84375 40.015625,17.671875 C41.03125,19.5 41.84375,22.0390625 41.84375,25.390625 Z M32.5,25.390625 C32.5,27.7265625 32.8046875,29.3515625 33.0078125,30.1640625 C33.3125,30.875 33.8203125,31.3828125 34.53125,31.3828125 C35.34375,31.3828125 35.8515625,30.875 36.15625,30.1640625 C36.359375,29.3515625 36.6640625,27.7265625 36.6640625,25.390625 C36.6640625,23.0546875 36.359375,21.53125 36.15625,20.71875 C35.8515625,20.0078125 35.34375,19.5 34.53125,19.5 C33.8203125,19.5 33.515625,20.0078125 33.0078125,20.71875 C32.8046875,21.53125 32.5,23.0546875 32.5,25.390625 Z" id="Shape"></path>
        </g>
    </g>
</svg>