<?xml version="1.0" encoding="UTF-8"?>
<svg width="64px" height="64px" viewBox="0 0 64 64" version="1.1" xmlns="http://www.w3.org/2000/svg" xmlns:xlink="http://www.w3.org/1999/xlink">
    <!-- Generator: Sketch 52.6 (67491) - http://www.bohemiancoding.com/sketch -->
    <title>sign-triangle-down</title>
    <desc>Created with Sketch.</desc>
    <g id="sign-triangle-down" stroke="none" stroke-width="1" fill="none" fill-rule="evenodd">
        <path d="M34.6587804,7.63746376 L57.5404427,52.0274305 C58.5682679,54.0213909 57.8140735,56.4862607 55.8559023,57.5328713 C55.2818399,57.8396983 54.6431975,58 53.9948601,58 L10.0043268,58 C7.79279819,58 6,56.1744351 6,53.9224867 C6,53.2622997 6.15742445,52.611985 6.45874432,52.0274305 L29.3404066,7.63746376 C30.1112755,6.1419935 31.9267468,5.56600948 33.3953751,6.35096745 C33.9349319,6.63935177 34.3755722,7.08804557 34.6587804,7.63746376 Z M33.284158,20.8114057 C33.1473771,20.5391548 32.9345615,20.3168154 32.6739722,20.1739135 C31.96467,19.7849465 31.0878534,20.0703615 30.7155476,20.8114057 L17.1661695,47.7803278 C17.0570234,47.9975743 17,48.2392601 17,48.4846149 C17,49.321539 17.6493996,50 18.4504747,50 L45.5492308,50 C45.784076,50 46.0154094,49.9404248 46.2233502,49.8263942 C46.9326524,49.4374272 47.2058419,48.5213721 46.833536,47.7803278 L33.284158,20.8114057 Z" fill="#000000" transform="translate(32.000000, 32.000000) scale(1, -1) translate(-32.000000, -32.000000) "></path>
    </g>
</svg>