<?xml version="1.0" encoding="UTF-8"?>
<svg width="64px" height="64px" viewBox="0 0 64 64" version="1.1" xmlns="http://www.w3.org/2000/svg" xmlns:xlink="http://www.w3.org/1999/xlink">
    <!-- Generator: Sketch 52.6 (67491) - http://www.bohemiancoding.com/sketch -->
    <title>sign-circular-stop</title>
    <desc>Created with Sketch.</desc>
    <g id="sign-circular-stop" stroke="none" stroke-width="1" fill="none" fill-rule="evenodd">
        <g id="icon-sign-circular-stop" transform="translate(6.000000, 6.000000)" fill="#000000" fill-rule="nonzero">
            <path d="M26,0 C11.6796875,0 0,11.375 0,26 C0,40.21875 11.4765625,52 26,52 C40.3203125,52 52,40.5234375 52,26 C52,11.6796875 40.5234375,0 26,0 Z M12.1875,28.03125 C12.1875,28.84375 11.984375,29.5546875 11.6796875,30.1640625 C11.171875,30.671875 10.6640625,31.1796875 9.8515625,31.6875 C9.140625,31.890625 8.328125,32.1953125 7.3125,32.1953125 C6.5,32.1953125 5.6875,32.1953125 5.1796875,31.890625 C4.671875,31.890625 3.859375,31.6875 3.3515625,31.3828125 L3.3515625,28.3359375 C4.1640625,28.5390625 4.671875,28.84375 5.484375,29.046875 C6.1953125,29.3515625 6.8046875,29.3515625 7.515625,29.3515625 C8.0234375,29.3515625 8.328125,29.3515625 8.53125,29.046875 C8.8359375,28.84375 8.8359375,28.5390625 8.8359375,28.3359375 C8.8359375,28.03125 8.8359375,28.03125 8.53125,27.7265625 C8.53125,27.5234375 8.328125,27.5234375 8.0234375,27.21875 C7.8203125,27.015625 7.3125,26.7109375 6.1953125,26.5078125 C5.484375,26.203125 4.671875,25.6953125 4.46875,25.390625 C4.1640625,25.1875 3.65625,24.8828125 3.65625,24.375 C3.3515625,23.8671875 3.3515625,23.359375 3.3515625,22.546875 C3.3515625,21.2265625 3.859375,20.515625 4.671875,19.703125 C5.484375,18.890625 6.8046875,18.6875 8.328125,18.6875 C9.6484375,18.6875 10.96875,18.890625 12.4921875,19.703125 L11.4765625,22.34375 C9.8515625,22.0390625 8.8359375,21.8359375 8.0234375,21.8359375 C7.515625,21.8359375 7.3125,21.8359375 7.0078125,22.0390625 C6.8046875,22.0390625 6.8046875,22.34375 6.8046875,22.546875 C6.8046875,22.8515625 7.0078125,23.0546875 7.3125,23.359375 C7.515625,23.6640625 8.328125,23.8671875 9.34375,24.375 C10.359375,24.8828125 11.171875,25.390625 11.6796875,26 C11.984375,26.5078125 12.1875,27.21875 12.1875,28.03125 Z M20.0078125,32.1953125 L16.3515625,32.1953125 L16.3515625,22.0390625 L13.3046875,22.0390625 L13.3046875,19.1953125 L23.15625,19.1953125 L23.15625,22.0390625 L20.0078125,22.0390625 L20.0078125,32.1953125 Z M37.171875,25.390625 C37.171875,27.5234375 36.6640625,29.3515625 35.6484375,30.3671875 C34.53125,31.3828125 33.0078125,32.1953125 30.9765625,32.1953125 C28.84375,32.1953125 27.3203125,31.6875 26.3046875,30.3671875 C25.1875,29.3515625 24.6796875,27.5234375 24.6796875,25.390625 C24.6796875,23.359375 25.1875,21.53125 26.3046875,20.515625 C27.3203125,19.5 28.84375,18.6875 30.9765625,18.6875 C33.0078125,18.6875 34.53125,19.1953125 35.6484375,20.515625 C36.6640625,21.8359375 37.171875,23.359375 37.171875,25.390625 Z M28.3359375,25.390625 C28.3359375,28.03125 29.1484375,29.046875 30.9765625,29.046875 C31.6875,29.046875 32.5,28.84375 33.0078125,28.03125 C33.515625,27.5234375 33.515625,26.5078125 33.515625,25.1875 C33.515625,23.8671875 33.3125,22.8515625 32.8046875,22.34375 C32.1953125,21.8359375 31.6875,21.2265625 30.671875,21.2265625 C29.1484375,21.8359375 28.3359375,23.0546875 28.3359375,25.390625 Z M48.8515625,23.0546875 C48.8515625,24.6796875 48.34375,25.6953125 47.53125,26.5078125 C46.8203125,27.21875 45.5,27.7265625 43.9765625,27.7265625 L42.859375,27.7265625 L42.859375,32.1953125 L39.3046875,32.1953125 L39.3046875,19.1953125 L43.671875,19.1953125 C45.1953125,19.1953125 46.515625,19.5 47.328125,20.2109375 C48.6484375,20.71875 48.8515625,21.8359375 48.8515625,23.0546875 Z M43.1640625,24.8828125 L43.671875,24.8828125 C44.1796875,24.8828125 44.6875,24.6796875 44.9921875,24.375 C45.1953125,24.171875 45.5,23.6640625 45.5,23.0546875 C45.5,22.34375 44.9921875,21.8359375 43.9765625,21.8359375 L43.1640625,21.8359375 L43.1640625,24.8828125 Z" id="Shape"></path>
        </g>
    </g>
</svg>