<?xml version="1.0" encoding="UTF-8"?>
<svg width="64px" height="64px" viewBox="0 0 64 64" version="1.1" xmlns="http://www.w3.org/2000/svg" xmlns:xlink="http://www.w3.org/1999/xlink">
    <!-- Generator: Sketch 52.6 (67491) - http://www.bohemiancoding.com/sketch -->
    <title>sign</title>
    <desc>Created with Sketch.</desc>
    <g id="sign" stroke="none" stroke-width="1" fill="none" fill-rule="evenodd">
        <g id="icon-sign" transform="translate(6.000000, 6.000000)" fill="#000000" fill-rule="nonzero">
            <path d="M26,0 C11.6796875,0 0,11.4765625 0,26 C0,40.3203125 11.4765625,52 26,52 C40.3203125,52 52,40.5234375 52,26 C52,11.6796875 40.5234375,0 26,0 Z M26,45.1953125 C15.3359375,45.1953125 6.8046875,36.6640625 6.8046875,26 C6.8046875,15.3359375 15.3359375,6.8046875 26,6.8046875 C36.6640625,6.8046875 45.1953125,15.3359375 45.1953125,26 C45.1953125,36.6640625 36.6640625,45.5 26,45.1953125 Z M18.1796875,15.03125 L24.6796875,21.8359375 L24.6796875,26.5078125 L20.0078125,21.53125 L20.0078125,36.96875 L16.3515625,36.96875 L16.3515625,21.8359375 L11.6796875,26.5078125 L11.6796875,21.8359375 L18.1796875,15.03125 Z M33.8203125,36.96875 L27.3203125,30.1640625 L27.3203125,25.4921875 L31.9921875,30.46875 L31.9921875,15.03125 L35.6484375,15.03125 L35.6484375,30.1640625 L40.3203125,25.4921875 L40.3203125,30.1640625 L33.8203125,36.96875 Z" id="Shape"></path>
        </g>
    </g>
</svg>