<?xml version="1.0" encoding="UTF-8"?>
<svg width="64px" height="64px" viewBox="0 0 64 64" version="1.1" xmlns="http://www.w3.org/2000/svg" xmlns:xlink="http://www.w3.org/1999/xlink">
    <title>skull</title>
    <g id="skull" stroke="none" stroke-width="1" fill="none" fill-rule="evenodd">
        <path d="M50.8019175,36.4770446 C51.19817,36.908279 51.1338776,37.2401686 51.0000014,37.6115948 L50.8712811,37.9603031 C50.7308412,38.3679507 50.6381058,38.8567994 50.9840361,39.5657308 C51.2787175,40.1696353 51.7706681,40.5299004 52.2639645,40.8269541 L52.8440271,41.1646244 C53.44596,41.5225835 53.9177233,41.8956848 53.8288734,42.680329 C53.6443391,44.3099746 51.8216005,45.3204903 50.5049931,45.7996962 C49.3226622,46.2300295 48.3665125,45.8850881 47.8310326,45.3356203 L47.7409426,45.2366484 C47.5531301,45.0154625 47.3054022,44.8428225 47.02622,44.695549 C44.4987114,45.2668505 41.9683262,45.9235391 39.4350643,46.665615 C41.4864671,47.2377542 43.5604589,47.7835716 45.655732,48.3069077 L45.6411812,49.3842796 C46.0744904,49.0556315 46.4675238,48.7046695 46.6734432,48.2651199 C47.0096005,47.5475681 47.86257,46.8919471 49.18771,47.0135641 C50.5813595,47.141537 52.6017951,47.6549215 53.2069299,49.1865763 C53.4893262,49.9013486 53.1631358,50.3761036 52.7004621,50.8603911 L52.3735722,51.1908084 C51.9142417,51.6510424 51.4291869,52.1665646 51.2840754,52.9306636 C51.1429948,53.6735377 51.3368902,54.1176855 51.5664339,54.4694236 L51.8398405,54.8603569 C52.0500105,55.1711778 52.1760977,55.4721155 51.9187746,55.9694865 C51.3011991,57.1631768 49.5531524,58.2368415 48.5505364,57.7405742 C48.0463329,57.4910073 47.3984319,56.8426067 46.7545459,56.1314861 L46.3275043,55.6518023 L46.3275043,55.6518023 L45.710448,54.9458438 L45.710448,54.9458438 L45.3289314,54.5165238 C45.2070907,54.382 45.0911216,54.2572888 44.9826453,54.1460784 L44.8273408,53.9917723 L44.3515237,53.765628 C40.5390037,51.9733035 36.5888535,50.3541894 32.5010729,48.9082858 C28.4277802,50.3483818 24.4927525,51.9602996 20.6944255,53.7440391 L20.1683408,53.995 L20.0173547,54.1460784 C19.9020986,54.2642394 19.7783839,54.3976417 19.648155,54.541861 L19.2398697,55.0025462 L19.2398697,55.0025462 L18.5796754,55.7571983 L18.5796754,55.7571983 L18.1247145,56.2640041 C17.5926763,56.8441024 17.064201,57.3670219 16.622651,57.6430747 L16.4494636,57.7405742 C15.4468476,58.2368415 13.6988009,57.1631768 13.0812254,55.9694865 C12.8496346,55.5218526 12.9286062,55.2333297 13.0999303,54.953513 L13.2254336,54.7666078 L13.2254336,54.7666078 L13.3639329,54.5723791 C13.620981,54.2035279 13.8711132,53.7478251 13.7159246,52.9306636 C13.5853242,52.2429745 13.1793698,51.7566326 12.764633,51.3307305 L12.4005992,50.9644039 C11.8865679,50.4427011 11.4905026,49.9524038 11.7930701,49.1865763 C12.3982049,47.6549215 14.4186405,47.141537 15.81229,47.0135641 C17.13743,46.8919471 17.9903995,47.5475681 18.3265568,48.2651199 C18.5067363,48.6497258 18.8301749,48.9665069 19.1985025,49.2598612 L19.3588188,49.3842796 L19.344268,48.3069077 C21.4395411,47.7835716 23.5135329,47.2377542 25.5662435,46.6694554 C23.0316738,45.9235391 20.5012886,45.2668505 17.97378,44.695549 C17.7504343,44.8133678 17.5472192,44.9474212 17.3787071,45.109577 L17.2590574,45.2366484 C16.7451931,45.8418242 15.7468867,46.2553432 14.4950069,45.7996962 C13.1783995,45.3204903 11.3556609,44.3099746 11.1711266,42.680329 C11.0822767,41.8956848 11.55404,41.5225835 12.1559729,41.1646244 L12.5882022,40.9143543 C13.1289691,40.599517 13.6918143,40.2300258 14.0159639,39.5657308 C14.3618942,38.8567994 14.2691588,38.3679507 14.1287189,37.9603031 L13.9999986,37.6115948 C13.8661224,37.2401686 13.80183,36.908279 14.1980825,36.4770446 C15.1094633,35.4852054 17.0845587,34.8977236 17.9257285,35.6317642 C18.2482808,35.913237 18.5704346,36.4704117 18.8873633,37.1135084 L19.097822,37.552886 L19.097822,37.552886 L19.7185724,38.902725 C19.7504854,38.9705417 19.7822933,39.0374407 19.8139906,39.103202 L20.0028005,39.4823577 C20.2838884,40.025333 20.5551022,40.4405152 20.8123628,40.5675162 C21.0830034,40.7011225 21.2689713,40.8016553 21.3891073,40.8935574 L21.2902378,40.8585799 C24.949412,42.2000918 28.6856238,43.4602218 32.4988734,44.6389697 C35.678459,43.6566798 38.8029816,42.6178745 41.8737449,41.522554 L43.6108927,40.8935574 C43.7310287,40.8016553 43.9169966,40.7011225 44.1876372,40.5675162 C44.4277471,40.4489819 44.6800118,40.0794099 44.9411148,39.5892014 L45.1164564,39.2459547 L45.1164564,39.2459547 L45.2941984,38.8755499 L45.2941984,38.8755499 L45.902178,37.552886 L45.902178,37.552886 L46.1126367,37.1135084 C46.4295654,36.4704117 46.7517192,35.913237 47.0742715,35.6317642 C47.9154413,34.8977236 49.8905367,35.4852054 50.8019175,36.4770446 Z M33.0834848,6 C40.4065318,6 46.4074153,12.6827747 46.5795358,17.9904674 L46.5833333,18.2237125 L46.5833333,25.1862997 C46.5833333,27.3918508 45.2483597,29.7044419 43.0948136,30.4779209 L42.8691342,30.5523782 L42.8691342,34.5988637 C42.8691342,35.7999884 41.6525073,37.2508654 40.1111039,38.5486292 L39.6833389,38.8984659 L39.6833389,38.8984659 L39.2434897,39.2388941 C39.095306,39.3506004 38.9457782,39.4604358 38.7955766,39.5680978 L38.3436199,39.8842609 L38.3436199,39.8842609 L37.8916401,40.1855673 C37.741423,40.2833249 37.5918721,40.3783037 37.4436575,40.470201 L37.0036925,40.7363458 L37.0036925,40.7363458 L36.5757653,40.9821858 L36.5757653,40.9821858 L36.1638965,41.2059047 C35.2918141,41.6653531 34.5611189,41.9562448 34.1558262,41.9954566 L34.0681572,42 L30.9993276,42 C30.6878558,42 30.118298,41.8004489 29.4138819,41.4578646 L29.0170212,41.2571551 L29.0170212,41.2571551 L28.5978557,41.0301135 L28.5978557,41.0301135 L28.1608294,40.7787783 L28.1608294,40.7787783 L27.7103863,40.5051874 L27.7103863,40.5051874 L27.2509703,40.2113792 L27.2509703,40.2113792 L26.7870254,39.8993919 C26.6321161,39.7925928 26.4771926,39.6831035 26.3229956,39.5712637 L25.8633249,39.2290329 C24.0392853,37.8346216 22.4265185,36.150663 22.3048887,34.7641636 L22.2975325,34.5988637 L22.2975325,30.5523782 C20.0881472,29.8867211 18.6795274,27.6260032 18.5880743,25.4148007 L18.5833333,25.1862997 L18.5833333,18.2237125 C18.5833333,11.5804095 24.3814737,6.15918353 31.6618586,6.00344191 L31.984,6 L33.0834848,6 Z M40.7299995,29.9622977 L40.6394444,29.9847648 L37.5150701,31.0325116 C37.3112938,31.1007038 37.1877096,31.2750965 37.1599976,31.4812715 L37.1540364,31.5713611 L37.1533333,33.263 L37.1333333,33.2621359 C36.6337281,33.2621359 36.2156202,33.6105837 36.1094147,34.0773939 L36.0894946,34.1964292 L36.0833333,34.3106796 L36.0823333,34.497 L35.4401508,34.6593497 L35.3808663,34.6623046 L35.3833333,34.3106796 L35.3771721,34.1964292 C35.3201652,33.6710782 34.8745724,33.2621359 34.3333333,33.2621359 C33.8337281,33.2621359 33.4156202,33.6105837 33.3094147,34.0773939 L33.2894946,34.1964292 L33.2833333,34.3106796 L33.2833333,34.682 L31.8833333,34.682 L31.8833333,34.3106796 L31.8771721,34.1964292 C31.8201652,33.6710782 31.3745724,33.2621359 30.8333333,33.2621359 C30.3337281,33.2621359 29.9156202,33.6105837 29.8094147,34.0773939 L29.7894946,34.1964292 L29.7833333,34.3106796 L29.7826437,34.6671784 L29.7332174,34.6576647 L29.7332174,34.6576647 L29.7262233,34.6523706 L29.0823333,34.472 L29.0833333,34.3106796 L29.0771721,34.1964292 C29.0245504,33.7114898 28.6408258,33.3257389 28.1564035,33.2692621 L28.0113844,33.2623633 L28.0120451,31.5710703 C28.0120451,31.3573334 27.8821249,31.1647476 27.6936287,31.0677311 L27.6094663,31.0322208 L24.4572976,29.984474 C24.1588743,29.8838577 23.8379231,30.0446693 23.7378635,30.3418653 C23.6472833,30.6096034 23.7749645,30.8968919 24.0193837,31.0245975 L24.1050411,31.0610098 L26.8692596,31.9787697 L26.8692596,33.5496629 C26.8692596,34.9811667 28.3519204,35.7592923 29.899161,35.8149675 L30.0778946,35.8181815 L34.9012335,35.8181815 C36.9600613,35.8181815 38.1932515,35.0344797 38.2570322,33.6677271 L38.2889767,33.589513 L38.2889767,33.589513 L38.2976997,33.5496629 L38.2976997,31.9787697 L41.0183249,31.0610098 C41.3176259,30.9609751 41.4718112,30.6390613 41.3699962,30.3421561 C41.2799426,30.0746796 41.0029093,29.9176747 40.7299995,29.9622977 Z M32.5337381,25.5910911 C31.5194865,25.5910911 30.8606784,27.0908494 30.6179613,28.1440167 L30.5599881,28.4310882 C30.5289573,28.6121259 30.5132324,28.7702356 30.5132324,28.8919663 C30.5132324,29.2410693 30.6255664,29.4720834 30.8670995,29.6184597 C31.1092349,29.7655095 31.4305763,29.7852659 31.7127665,29.7852659 L31.8945186,29.7830489 L31.8945186,29.7830489 L32.0880162,29.7776327 C32.2751391,29.7719453 32.4840796,29.7700495 32.6861045,29.7719453 L33.3550109,29.7852659 L33.3550109,29.7852659 L33.4597179,29.7840487 L33.4597179,29.7840487 L33.6669137,29.7722038 C34.1433912,29.7266471 34.554545,29.5403589 34.554545,28.8919663 C34.554545,28.0702835 33.8380771,25.5910911 32.5337381,25.5910911 Z M37.2234956,19.4380627 C34.6516622,20.1234015 34.2654345,21.8706426 34.3746288,23.1545982 L34.4004958,23.3895384 L34.4004958,23.3895384 L34.4354985,23.6113861 L34.4354985,23.6113861 L34.4771608,23.8179073 C34.484522,23.8509262 34.4920575,23.8832134 34.4997157,23.9147223 L34.5467255,24.0940646 L34.5467255,24.0940646 L34.6173479,24.3231698 L34.6173479,24.3231698 C34.9515813,25.3159362 36.9760074,28.2524542 39.4105149,27.6001299 C41.4374156,27.0570235 42.1986275,25.0280225 41.3995058,22.0450813 C41.1662472,21.1745482 40.6042241,20.9789265 39.9770339,20.8774867 L39.466378,20.8054145 L39.466378,20.8054145 L39.2099957,20.7637994 C39.1675191,20.7558653 39.1252215,20.7473174 39.0831811,20.7379836 C38.9677561,20.6024965 38.8730352,20.46259 38.7879947,20.3262984 L38.5508906,19.9363019 C38.2824285,19.5127039 37.9975106,19.2318042 37.2234956,19.4380627 Z M26.0834856,20.7379836 L25.956671,20.7637994 L25.956671,20.7637994 L25.7002886,20.8054145 L25.7002886,20.8054145 L25.1896327,20.8774867 C24.5624425,20.9789265 24.0004195,21.1745482 23.7671609,22.0450813 C22.9680391,25.0280225 23.7292511,27.0570235 25.7561518,27.6001299 C28.1906593,28.2524542 30.2150854,25.3159362 30.5493188,24.3231698 L30.5961053,24.1760333 L30.5961053,24.1760333 L30.6436596,24.0068678 L30.6436596,24.0068678 L30.6895058,23.8179073 L30.6895058,23.8179073 L30.7311682,23.6113861 L30.7311682,23.6113861 L30.7661708,23.3895384 L30.7661708,23.3895384 L30.7920379,23.1545982 L30.7920379,23.1545982 L30.8062934,22.9087997 C30.8444162,21.6563855 30.3542649,20.0805678 27.9431711,19.4380627 C27.1691561,19.2318042 26.8842382,19.5127039 26.615776,19.9363019 L26.3786719,20.3262984 C26.2936314,20.46259 26.1989106,20.6024965 26.0834856,20.7379836 Z" id="Shape" fill="#000000"></path>
    </g>
</svg>