<?xml version="1.0" encoding="UTF-8"?>
<svg width="64px" height="64px" viewBox="0 0 64 64" version="1.1" xmlns="http://www.w3.org/2000/svg" xmlns:xlink="http://www.w3.org/1999/xlink">
    <!-- Generator: Sketch 52.6 (67491) - http://www.bohemiancoding.com/sketch -->
    <title>stairs-man</title>
    <desc>Created with Sketch.</desc>
    <g id="stairs-man" stroke="none" stroke-width="1" fill="none" fill-rule="evenodd">
        <g id="icon-stairs-man" transform="translate(6.000000, 9.000000)" fill="#000000" fill-rule="nonzero">
            <path d="M13.4122622,24.4238095 C13.961945,23.3285714 13.6321353,22.452381 12.5327696,21.9047619 C10.3340381,20.4809524 8.02536998,19.3857143 5.49682875,18.1809524 C4.397463,17.4142857 3.5179704,17.6333333 2.96828753,19.0571429 C2.08879493,20.4809524 1.3192389,21.9047619 0.4397463,23.3285714 C-0.109936575,24.0952381 -0.109936575,24.4238095 0.4397463,24.9714286 C0.989429175,25.5190476 5.82663848,27.8190476 8.57505285,29.1333333 C9.78435518,29.6809524 10.5539112,29.6809524 11.1035941,28.3666667 C11.9830867,27.1619048 12.5327696,25.847619 13.4122622,24.4238095 Z M28.9133192,34.8285714 C28.9133192,35.047619 28.9133192,35.047619 28.9133192,35.3761905 C28.9133192,36.6904762 29.4630021,37.8952381 30.8921776,37.8952381 C32.5412262,37.8952381 32.7610994,36.6904762 32.7610994,35.3761905 C32.7610994,33.0761905 32.7610994,31.1047619 32.7610994,28.9142857 C32.7610994,27.4904762 32.2114165,26.3952381 31.1120507,25.847619 C29.1331924,24.6428571 27.4841438,23.547619 25.5052854,22.452381 C27.154334,19.9333333 28.2536998,17.4142857 29.6828753,14.5666667 C31.4418605,16.5380952 32.7610994,18.1809524 34.5200846,19.6047619 C35.0697674,20.152381 36.4989429,20.8095238 37.0486258,20.4809524 C39.577167,19.9333333 42.3255814,18.8380952 44.9640592,17.9619048 C46.2832981,17.4142857 46.832981,16.5380952 46.2832981,15.1142857 C45.7336152,13.8 44.6342495,13.8 43.5348837,14.0190476 C41.7758985,14.5666667 39.7970402,15.4428571 38.1479915,15.6619048 C37.5983087,15.9904762 36.4989429,15.6619048 35.94926,15.1142857 C34.1902748,13.4714286 32.5412262,11.5 31.1120507,9.85714286 C29.4630021,11.1714286 28.2536998,12.3761905 26.9344609,13.4714286 C26.9344609,12.5952381 26.9344609,12.3761905 26.9344609,12.047619 C26.9344609,8.43333333 26.0549683,7.33809524 22.0972516,7.33809524 C19.5687104,7.33809524 17.0401691,7.00952381 14.8414376,7.33809524 C13.961945,7.33809524 12.5327696,8.1047619 12.3128964,8.98095238 C10.8837209,11.1714286 10.0042283,13.4714286 8.90486258,15.4428571 C8.3551797,16.8666667 8.02536998,18.1809524 9.45454545,18.8380952 C11.1035941,19.6047619 11.9830867,18.5095238 12.5327696,17.4142857 C13.4122622,15.6619048 13.961945,14.347619 14.8414376,12.5952381 C15.3911205,12.047619 16.1606765,11.8285714 16.820296,11.5 C17.9196617,11.1714286 19.0190275,11.5 20.448203,11.5 C18.6892178,14.347619 17.589852,17.0857143 16.1606765,19.6047619 C15.3911205,21.3571429 15.6109937,22.452381 17.3699789,23.3285714 C19.5687104,24.4238095 21.5475687,25.847619 23.8562368,26.6142857 C28.0338266,27.8190476 29.6828753,30.5571429 28.9133192,34.8285714 Z M19.8985201,25.847619 C19.0190275,25.1904762 17.9196617,24.9714286 16.820296,24.4238095 C16.4904863,24.6428571 16.4904863,24.6428571 16.4904863,24.9714286 C16.4904863,25.5190476 16.1606765,26.0666667 16.4904863,26.9428571 C17.0401691,31.1047619 15.9408034,34.1714286 12.5327696,36.6904762 C11.9830867,37.0190476 11.4334038,37.5666667 11.4334038,37.8952381 C11.1035941,38.4428571 11.1035941,39.5380952 11.4334038,40.0857143 C11.653277,40.6333333 13.0824524,40.9619048 13.4122622,40.9619048 C16.4904863,39.5380952 18.6892178,37.8952381 20.6680761,33.6238095 C21.217759,32.8571429 20.9978858,28.9142857 20.6680761,27.1619048 C20.448203,26.6142857 20.1183932,25.847619 19.8985201,25.847619 Z M30.5623679,8.98095238 C33.0909091,8.98095238 35.0697674,7.00952381 35.0697674,4.49047619 C35.0697674,1.97142857 33.0909091,0 30.5623679,0 C28.0338266,0 26.0549683,2.3 26.0549683,4.49047619 C26.384778,7.00952381 28.2536998,8.65238095 30.5623679,8.98095238 Z M42.9852008,29.6809524 L42.9852008,35.047619 L34.1902748,35.047619 L34.1902748,39.8666667 L26.384778,39.8666667 L26.384778,46 L52,46 L52,29.6809524 L42.9852008,29.6809524 Z" id="Shape"></path>
        </g>
    </g>
</svg>