<?xml version="1.0" encoding="UTF-8"?>
<svg width="64px" height="64px" viewBox="0 0 64 64" version="1.1" xmlns="http://www.w3.org/2000/svg" xmlns:xlink="http://www.w3.org/1999/xlink">
    <!-- Generator: Sketch 52.6 (67491) - http://www.bohemiancoding.com/sketch -->
    <title>stairs-iso</title>
    <desc>Created with Sketch.</desc>
    <g id="stairs-iso" stroke="none" stroke-width="1" fill="none" fill-rule="evenodd">
        <g id="icon-stairs-iso" transform="translate(6.000000, 10.000000)" fill="#000000" fill-rule="nonzero">
            <path d="M28.3980583,44 C28.3980583,40.7407407 28.3980583,37.4814815 28.3980583,34.3475783 C28.3980583,33.97151 29.0291262,33.3447293 29.407767,33.3447293 C32.5631068,31.7150997 36.0970874,30.4615385 39.3786408,29.2079772 C40.3883495,28.8319088 40.6407767,28.5811966 40.6407767,27.5783476 C40.6407767,24.6951567 40.6407767,21.4358974 40.6407767,18.5527066 C40.6407767,18.3019943 41.0194175,17.6752137 41.2718447,17.2991453 C44.5533981,15.4188034 48.4660194,13.7891738 52,12.5356125 C52,13.7891738 52,14.7920228 52,16.045584 C52,21.8119658 52,27.5783476 52,33.3447293 C52,33.97151 52,34.5982906 51.368932,34.5982906 C43.9223301,37.8575499 36.4757282,40.7407407 29.407767,44 C29.0291262,43.6239316 28.6504854,43.6239316 28.3980583,44 Z M51.368932,8.27350427 C47.0776699,10.2792023 43.2912621,11.9088319 39.3786408,13.4131054 C39,13.4131054 38.7475728,13.4131054 38.368932,13.4131054 C30.2912621,10.5299145 22.2135922,8.02279202 14.1359223,5.13960114 C14.1359223,5.13960114 13.8834951,5.13960114 13.8834951,4.76353276 C17.6699029,3.25925926 21.5825243,1.62962963 25.4951456,0 C25.7475728,0 26.1262136,0 26.5048544,0 C34.5825243,2.50712251 42.6601942,5.39031339 51.368932,8.27350427 Z M37.7378641,26.5754986 C33.8252427,28.2051282 30.038835,29.8347578 26.5048544,31.4643875 C25.7475728,31.4643875 25.1165049,31.4643875 24.8640777,31.4643875 C16.7864078,28.5811966 8.70873786,25.9487179 0.631067961,23.0655271 C0.631067961,23.0655271 0.252427184,22.8148148 0,22.8148148 C3.78640777,21.1851852 7.69902913,19.5555556 11.8640777,17.9259259 C12.2427184,17.9259259 12.4951456,17.9259259 12.8737864,17.9259259 C20.9514563,20.8091168 29.0291262,23.4415954 37.1067961,26.3247863 C37.1067961,26.3247863 37.4854369,26.3247863 37.7378641,26.5754986 Z" id="Shape"></path>
        </g>
    </g>
</svg>