<?xml version="1.0" encoding="UTF-8"?>
<svg width="64px" height="64px" viewBox="0 0 64 64" version="1.1" xmlns="http://www.w3.org/2000/svg" xmlns:xlink="http://www.w3.org/1999/xlink">
    <!-- Generator: Sketch 52.6 (67491) - http://www.bohemiancoding.com/sketch -->
    <title>stl-subway</title>
    <desc>Created with Sketch.</desc>
    <g id="stl-subway" stroke="none" stroke-width="1" fill="none" fill-rule="evenodd">
        <g id="icon-stl-subway" transform="translate(8.000000, 6.000000)" fill="#000000" fill-rule="nonzero">
            <path d="M34.5851528,10.1082164 L34.5851528,6.98196393 C29.2401747,6.98196393 17.1877729,5.31462926 17.1877729,18.6533066 L20.4366812,18.6533066 C20.4366812,8.0240481 31.9650655,10.1082164 34.5851528,10.1082164 Z M45.3799127,0 L48,0 L48,18.6533066 L45.3799127,18.6533066 L45.3799127,0 Z M12.3668122,26.6773547 L0,42.7254509 L36.7860262,42.7254509 L24.419214,26.6773547 L12.3668122,26.6773547 Z M37.3100437,2.70941884 L42.6550218,2.70941884 L42.6550218,16.0480962 L37.3100437,16.0480962 L37.3100437,2.70941884 Z M10.7947598,45.3306613 C11.3187773,48.0400802 14.7772926,52 18.7598253,52 C22.8471616,52 25.9912664,48.0400802 26.8296943,45.3306613 L10.7947598,45.3306613 Z M13.2052402,21.3627255 L23.8951965,21.3627255 L23.8951965,23.9679359 L13.2052402,23.9679359 L13.2052402,21.3627255 Z" id="Shape"></path>
        </g>
    </g>
</svg>