<?xml version="1.0" encoding="UTF-8"?>
<svg width="64px" height="64px" viewBox="0 0 64 64" version="1.1" xmlns="http://www.w3.org/2000/svg" xmlns:xlink="http://www.w3.org/1999/xlink">
    <!-- Generator: Sketch 52.6 (67491) - http://www.bohemiancoding.com/sketch -->
    <title>stl-feederpillar</title>
    <desc>Created with Sketch.</desc>
    <g id="stl-feederpillar" stroke="none" stroke-width="1" fill="none" fill-rule="evenodd">
        <g id="icon-stl-feederpillar" transform="translate(15.000000, 6.000000)" fill="#000000" fill-rule="nonzero">
            <path d="M2.55255255,43.671875 L2.55255255,52 L5.20720721,52 L5.20720721,46.8203125 L28.6906907,46.8203125 L28.6906907,52 L31.3453453,52 L31.3453453,43.671875 L31.3453453,44.1796875 L2.55255255,44.1796875 L2.55255255,43.671875 Z M2.55255255,41.640625 L31.3453453,41.640625 L31.3453453,7.8203125 L2.55255255,7.8203125 L2.55255255,41.640625 Z M5.20720721,10.359375 L28.6906907,10.359375 L28.6906907,39 L5.20720721,39 L5.20720721,10.359375 Z M30.8348348,0 L2.34834835,0 L0,2.640625 L0,5.1796875 L34,5.1796875 L34,2.640625 L30.8348348,0 Z M7.86186186,36.359375 L26.1381381,36.359375 L26.1381381,13 L7.86186186,13 L7.86186186,36.359375 Z M19.0930931,18.9921875 C19.2972973,18.9921875 16.7447447,24.171875 16.9489489,24.171875 C16.9489489,24.4765625 19.6036036,25.1875 19.6036036,25.4921875 C19.6036036,26 14.6006006,31.6875 14.3963964,31.484375 C14.0900901,31.484375 16.7447447,26.5078125 16.4384384,26.3046875 C16.4384384,26 13.7837838,25.1875 13.7837838,24.984375 C13.7837838,24.6796875 18.7867868,18.9921875 19.0930931,18.9921875 Z" id="Shape"></path>
        </g>
    </g>
</svg>