<?xml version="1.0" encoding="UTF-8"?>
<svg width="64px" height="64px" viewBox="0 0 64 64" version="1.1" xmlns="http://www.w3.org/2000/svg" xmlns:xlink="http://www.w3.org/1999/xlink">
    <!-- Generator: Sketch 52.6 (67491) - http://www.bohemiancoding.com/sketch -->
    <title>stl-lamp</title>
    <desc>Created with Sketch.</desc>
    <g id="stl-lamp" stroke="none" stroke-width="1" fill="none" fill-rule="evenodd">
        <g id="icon-stl-lamp" transform="translate(12.000000, 6.000000)" fill="#000000" fill-rule="nonzero">
            <path d="M36.3636364,27.6910569 L29.8395722,27.6910569 L25.9893048,32.5528455 L25.6684492,51.6829268 C33.9037433,52 39.6791444,52 39.6791444,52 L40,32.0243902 L36.3636364,27.6910569 Z M30.0534759,24.9430894 L35.6149733,24.9430894 L35.6149733,3.27642276 L30.0534759,3.27642276 L30.0534759,6.23577236 L17.7540107,2.2195122 L17.2192513,1.16260163 L4.38502674,0 L0,6.23577236 L18.8235294,6.23577236 L30.0534759,9.82926829 L30.0534759,24.9430894 Z M28.4491979,10.8861789 L24.5989305,9.30081301 L28.7700535,16.5934959 L28.4491979,10.8861789 Z M1.92513369,10.3577236 L14.2245989,9.82926829 L16.684492,7.6097561 L0,7.6097561 L1.92513369,10.3577236 Z" id="Shape"></path>
        </g>
    </g>
</svg>