<?xml version="1.0" encoding="UTF-8"?>
<svg width="64px" height="64px" viewBox="0 0 64 64" version="1.1" xmlns="http://www.w3.org/2000/svg" xmlns:xlink="http://www.w3.org/1999/xlink">
    <!-- Generator: Sketch 52.6 (67491) - http://www.bohemiancoding.com/sketch -->
    <title>stl-component-sensorcrtl</title>
    <desc>Created with Sketch.</desc>
    <g id="stl-component-sensorcrtl" stroke="none" stroke-width="1" fill="none" fill-rule="evenodd">
        <g id="icon-stl-component-sensorcrtl" transform="translate(6.000000, 6.000000)" fill="#000000" fill-rule="nonzero">
            <path d="M23.6640625,0 C24.171875,0.3046875 24.984375,0.3046875 25.4921875,0.3046875 C29.65625,1.015625 33.3125,2.84375 36.359375,5.484375 C40.3203125,8.8359375 42.65625,13.3046875 43.46875,18.484375 C43.671875,19.5 43.671875,20.515625 43.671875,21.53125 C43.671875,21.8359375 43.671875,21.8359375 43.46875,21.8359375 C42.3515625,21.8359375 41.3359375,21.8359375 40.3203125,21.8359375 C39.8125,21.8359375 39.8125,21.53125 39.8125,21.328125 C39.8125,19.8046875 39.5078125,18.1796875 39,16.65625 C37.984375,13.5078125 36.359375,10.96875 34.0234375,8.8359375 C31.6875,6.5 28.84375,4.9765625 25.4921875,4.46875 C22.140625,3.65625 18.1796875,3.859375 14.828125,5.484375 C11.171875,7.3125 8.328125,9.6484375 6.1953125,13.3046875 C4.9765625,15.640625 4.1640625,18.1796875 4.1640625,21.0234375 C3.859375,24.171875 4.671875,27.3203125 5.9921875,30.1640625 C7.8203125,33.515625 10.359375,36.15625 13.8125,37.984375 C16.1484375,39.3046875 18.6875,39.8125 21.328125,40.015625 C21.53125,40.015625 21.53125,40.015625 21.8359375,40.015625 C22.140625,40.015625 22.140625,40.3203125 22.140625,40.5234375 C22.140625,41.640625 22.140625,42.65625 22.140625,43.671875 C22.140625,43.9765625 22.140625,44.1796875 21.53125,44.1796875 C18.484375,44.1796875 15.3359375,43.46875 12.4921875,41.84375 C6.1953125,38.6953125 2.03125,33.515625 0.5078125,26.5078125 C-0.8125,20.3125 0.5078125,14.5234375 4.1640625,9.34375 C7.515625,4.671875 11.984375,1.828125 17.46875,0.8125 C18.1796875,0.3046875 19.1953125,0.3046875 20.0078125,0 C20.0078125,0 20.3125,0 20.3125,0 C20.3125,0 20.515625,0 20.8203125,0 C21.0234375,0 21.328125,0 21.53125,0 C21.8359375,0 22.34375,0 22.6484375,0 C22.6484375,0 22.8515625,0 23.359375,0 C23.359375,0 23.6640625,0 23.6640625,0 Z M35.8515625,22.140625 C35.34375,22.140625 34.8359375,22.140625 34.328125,22.140625 C33.8203125,22.140625 33.8203125,21.8359375 33.8203125,21.53125 C33.8203125,20.3125 33.515625,18.9921875 33.0078125,17.671875 C31.1796875,13.5078125 28.03125,10.96875 23.6640625,10.359375 C18.9921875,9.34375 15.03125,11.171875 12.1875,15.03125 C9.140625,19.5 9.34375,26 13,29.859375 C15.03125,32.1953125 17.671875,33.515625 20.515625,33.8203125 C20.515625,33.8203125 20.515625,33.8203125 20.8203125,33.8203125 C21.328125,33.8203125 21.8359375,33.515625 22.140625,34.0234375 C22.34375,34.328125 22.140625,34.8359375 22.140625,35.34375 C22.140625,36.15625 22.140625,36.96875 22.140625,37.6796875 C22.140625,37.984375 22.140625,38.1875 21.53125,38.1875 C18.484375,38.1875 15.640625,37.171875 12.6953125,35.34375 C9.8515625,33.3125 7.8203125,30.671875 6.8046875,27.3203125 C5.484375,23.15625 5.6875,19.1953125 7.515625,15.640625 C9.140625,11.6796875 11.984375,9.140625 15.640625,7.3125 C18.484375,5.9921875 21.53125,5.484375 24.6796875,6.1953125 C30.9765625,7.515625 35.140625,11.171875 37.171875,17.1640625 C37.6796875,18.484375 37.984375,20.0078125 37.984375,21.53125 C37.984375,21.8359375 37.984375,22.140625 37.6796875,22.140625 C37.171875,22.140625 36.6640625,22.140625 35.8515625,22.140625 Z M29.859375,22.140625 C29.3515625,22.140625 28.84375,22.140625 28.3359375,22.140625 C27.828125,22.140625 27.828125,22.140625 27.828125,21.53125 C27.5234375,18.9921875 26.3046875,17.46875 23.96875,16.3515625 C21.8359375,15.640625 19.5,16.1484375 17.671875,17.671875 C16.1484375,19.5 15.640625,21.8359375 16.3515625,24.171875 C17.1640625,26.5078125 18.9921875,27.828125 21.53125,28.03125 C21.8359375,28.03125 22.140625,28.03125 22.140625,28.640625 C22.140625,29.65625 22.140625,30.671875 22.140625,31.6875 C22.140625,32.1953125 21.8359375,32.1953125 21.53125,32.1953125 C17.671875,31.9921875 14.828125,30.1640625 13.3046875,26.8125 C10.359375,21.0234375 13,14.5234375 18.9921875,12.4921875 C24.6796875,10.359375 31.1796875,14.5234375 31.9921875,20.515625 C32.1953125,21.8359375 32.1953125,21.8359375 30.671875,21.8359375 C30.46875,22.140625 30.1640625,22.140625 29.859375,22.140625 Z M52,26.3046875 C51.6953125,24.6796875 50.4765625,23.96875 48.8515625,23.96875 C43.46875,23.96875 37.6796875,23.96875 32.1953125,23.96875 C31.484375,23.96875 30.9765625,24.171875 30.46875,24.6796875 C28.640625,26.5078125 26.5078125,28.640625 24.6796875,30.46875 C24.171875,30.9765625 23.96875,31.484375 23.96875,31.9921875 C23.96875,37.6796875 23.96875,43.1640625 23.96875,48.8515625 C23.96875,50.6796875 25.1875,52 27.015625,52 C34.328125,52 41.640625,52 48.8515625,52 C49.6640625,52 50.4765625,51.6953125 50.984375,51.1875 C51.4921875,50.6796875 51.4921875,50.171875 51.6953125,49.6640625 C52,41.84375 52,34.0234375 52,26.3046875 C52,26.5078125 52,26.5078125 52,26.3046875 Z M47.53125,48.140625 C41.3359375,48.140625 34.8359375,48.140625 28.640625,48.140625 C28.03125,48.140625 28.03125,48.140625 28.03125,47.53125 C28.03125,42.859375 28.03125,38.1875 28.03125,33.3125 C28.03125,33.0078125 28.03125,32.8046875 28.3359375,32.5 C29.65625,31.1796875 31.1796875,29.65625 32.5,28.3359375 C32.8046875,28.03125 33.0078125,28.03125 33.3125,28.03125 C37.984375,28.03125 42.65625,28.03125 47.53125,28.03125 C48.140625,28.03125 48.140625,28.3359375 48.140625,28.640625 C48.140625,31.6875 48.140625,34.8359375 48.140625,37.984375 C48.140625,41.03125 48.140625,44.1796875 48.140625,47.328125 C48.140625,47.8359375 47.8359375,48.140625 47.53125,48.140625 Z M34.0234375,37.984375 C34.0234375,36.96875 34.0234375,35.6484375 34.0234375,34.53125 C34.0234375,34.0234375 34.0234375,34.0234375 34.53125,34.0234375 C36.96875,34.0234375 39.3046875,34.0234375 41.640625,34.0234375 C42.1484375,34.0234375 42.1484375,34.328125 42.1484375,34.53125 C42.1484375,36.96875 42.1484375,39.3046875 42.1484375,41.640625 C42.1484375,42.1484375 41.84375,42.1484375 41.640625,42.1484375 C39.3046875,42.1484375 36.96875,42.1484375 34.8359375,42.1484375 C34.328125,42.1484375 34.328125,41.84375 34.328125,41.640625 C34.0234375,40.3203125 34.0234375,39 34.0234375,37.984375 Z" id="Shape"></path>
        </g>
    </g>
</svg>