<?xml version="1.0" encoding="UTF-8"?>
<svg width="64px" height="64px" viewBox="0 0 64 64" version="1.1" xmlns="http://www.w3.org/2000/svg" xmlns:xlink="http://www.w3.org/1999/xlink">
    <!-- Generator: Sketch 52.6 (67491) - http://www.bohemiancoding.com/sketch -->
    <title>stl-component-controller</title>
    <desc>Created with Sketch.</desc>
    <g id="stl-component-controller" stroke="none" stroke-width="1" fill="none" fill-rule="evenodd">
        <g id="icon-stl-component-controller" transform="translate(6.000000, 11.000000)" fill="#000000" fill-rule="nonzero">
            <path d="M0,5.22439024 L7.8203125,5.22439024 L7.8203125,13.1121951 L0,13.1121951 L0,5.22439024 Z M0,18.3365854 L7.8203125,18.3365854 L7.8203125,26.2243902 L0,26.2243902 L0,18.3365854 Z M0,31.4487805 L7.8203125,31.4487805 L7.8203125,39.3365854 L0,39.3365854 L0,31.4487805 Z M44.1796875,5.22439024 L52,5.22439024 L52,13.1121951 L44.1796875,13.1121951 L44.1796875,5.22439024 Z M44.1796875,18.3365854 L52,18.3365854 L52,26.2243902 L44.1796875,26.2243902 L44.1796875,18.3365854 Z M44.1796875,31.4487805 L52,31.4487805 L52,39.3365854 L44.1796875,39.3365854 L44.1796875,31.4487805 Z M10.359375,42 L41.640625,42 L41.640625,0 L10.359375,0 L10.359375,42 Z M29.3515625,11.5756098 C29.65625,11.7804878 26,19.1560976 26.3046875,19.4634146 C26.3046875,19.6682927 30.1640625,21 30.46875,21.5121951 C30.46875,22.0243902 23.15625,30.7317073 22.8515625,30.7317073 C22.6484375,30.4243902 26.3046875,23.0487805 26,22.8439024 C26,22.5365854 22.140625,21.3073171 21.8359375,20.6926829 C21.53125,19.9756098 29.1484375,11.2682927 29.3515625,11.5756098 Z" id="Shape"></path>
        </g>
    </g>
</svg>