<?xml version="1.0" encoding="UTF-8"?>
<svg width="64px" height="64px" viewBox="0 0 64 64" version="1.1" xmlns="http://www.w3.org/2000/svg" xmlns:xlink="http://www.w3.org/1999/xlink">
    <!-- Generator: Sketch 52.6 (67491) - http://www.bohemiancoding.com/sketch -->
    <title>stl-component-sensor</title>
    <desc>Created with Sketch.</desc>
    <g id="stl-component-sensor" stroke="none" stroke-width="1" fill="none" fill-rule="evenodd">
        <g id="icon-stl-component-sensor" transform="translate(6.000000, 15.000000)" fill="#000000" fill-rule="nonzero">
            <path d="M10.4609375,30.9360465 C10.2578125,30.6395349 9.953125,30.4418605 9.75,30.1453488 C7.6171875,27.872093 6.09375,25.3023256 5.28125,22.3372093 C3.9609375,17.9883721 4.265625,13.9360465 5.7890625,9.88372093 C6.90625,7.4127907 8.4296875,5.13953488 10.4609375,3.06395349 L7.4140625,0 C7.109375,0 7.109375,0.296511628 6.90625,0.296511628 C6.90625,0.593023256 6.6015625,0.790697674 6.296875,0.790697674 C6.09375,1.0872093 6.09375,1.28488372 5.7890625,1.28488372 C5.7890625,1.28488372 5.7890625,1.58139535 5.7890625,1.58139535 C5.078125,2.37209302 4.5703125,3.06395349 3.9609375,3.85465116 C0.609375,9.19186047 -0.7109375,14.7267442 0.40625,20.755814 C1.1171875,26.0930233 3.453125,30.4418605 7.4140625,34 L10.4609375,30.9360465 Z M15.4375,26.3895349 C13.40625,24.3139535 12.0859375,22.0406977 11.578125,19.2732558 C11.0703125,14.7267442 12.0859375,10.6744186 15.4375,7.61046512 L12.0859375,4.64534884 C10.2578125,6.3255814 8.9375,8.40116279 8.125,10.6744186 C6.6015625,15.0232558 6.6015625,18.9767442 8.125,23.3255814 C9.2421875,25.5988372 10.4609375,27.6744186 12.2890625,29.3546512 L15.4375,26.3895349 Z M20.109375,21.5465116 C18.7890625,20.2616279 18.078125,18.7790698 18.078125,17 C18.078125,15.0232558 18.7890625,13.4418605 19.90625,12.4534884 L16.9609375,9.19186047 C16.25,10.1802326 15.4375,10.9709302 14.9296875,11.9593023 C12.59375,16.505814 13.609375,21.5465116 16.9609375,24.6104651 L20.109375,21.5465116 Z M41.7421875,3.06395349 C41.9453125,3.36046512 42.25,3.55813953 42.453125,3.85465116 C44.5859375,6.12790698 46.109375,8.69767442 46.921875,11.6627907 C48.2421875,16.0116279 47.9375,20.0639535 46.4140625,24.1162791 C45.296875,26.5872093 43.7734375,28.8604651 41.7421875,30.9360465 L44.7890625,34 C45.09375,33.7034884 45.09375,33.7034884 45.296875,33.4069767 C45.296875,33.2093023 45.6015625,32.9127907 45.90625,32.9127907 C46.109375,32.7151163 46.109375,32.7151163 46.4140625,32.4186047 C46.4140625,32.4186047 46.4140625,32.2209302 46.4140625,32.2209302 C46.921875,31.4302326 47.4296875,30.6395349 47.9375,30.1453488 C51.2890625,24.8081395 52.609375,19.2732558 51.59375,13.244186 C50.78125,7.90697674 48.4453125,3.55813953 44.5859375,0 L41.7421875,3.06395349 Z M36.765625,7.61046512 C38.796875,9.68604651 40.1171875,11.9593023 40.625,14.7267442 C41.4375,19.2732558 40.1171875,23.0290698 37.0703125,26.0930233 L40.1171875,29.1569767 C41.9453125,27.377907 43.265625,25.3023256 44.078125,23.0290698 C45.6015625,18.7790698 45.6015625,14.7267442 44.078125,10.377907 C42.9609375,8.10465116 41.7421875,6.12790698 39.9140625,4.34883721 L36.765625,7.61046512 Z M32.09375,12.4534884 C33.4140625,13.7383721 34.125,15.2209302 34.125,17 C34.125,18.9767442 33.4140625,20.5581395 32.296875,21.5465116 L35.4453125,24.6104651 C36.2578125,23.8197674 37.0703125,22.8313953 37.578125,21.8430233 C39.9140625,17.2965116 38.796875,12.1569767 35.4453125,9.19186047 L32.09375,12.4534884 Z M29.25,14.2325581 C27.5234375,12.5523256 24.78125,12.5523256 23.0546875,14.2325581 C21.328125,15.9127907 21.328125,18.5813953 23.0546875,20.2616279 C24.78125,21.9418605 27.5234375,21.9418605 29.25,20.2616279 C30.9765625,18.5813953 30.9765625,15.9127907 29.25,14.2325581 Z" id="Shape"></path>
        </g>
    </g>
</svg>