<?xml version="1.0" encoding="UTF-8"?>
<svg width="64px" height="64px" viewBox="0 0 64 64" version="1.1" xmlns="http://www.w3.org/2000/svg" xmlns:xlink="http://www.w3.org/1999/xlink">
    <!-- Generator: Sketch 52.6 (67491) - http://www.bohemiancoding.com/sketch -->
    <title>stl-component-gear</title>
    <desc>Created with Sketch.</desc>
    <g id="stl-component-gear" stroke="none" stroke-width="1" fill="none" fill-rule="evenodd">
        <path d="M57.2848723,27.8359375 C58,27.8359375 58,28.2167969 58,29.15625 L58,35.1484375 C58,35.65625 57.4891945,36.46875 56.7740668,36.46875 L50.2357564,36.9765625 C49.9292731,38.5 49.1119843,40.0234375 48.3968566,41.34375 L52.5854617,46.5234375 C53.0962672,47.03125 53.0962672,47.84375 52.5854617,48.3515625 L48.6011788,52.3125 C48.3968566,52.515625 47.78389,52.8203125 47.5795678,52.8203125 C47.2730845,52.8203125 47.0687623,52.8203125 46.762279,52.515625 L41.5520629,48.3515625 C40.2239686,49.1640625 38.6915521,49.671875 37.1591356,50.1796875 L36.546169,56.6796875 C36.546169,57.1875 36.0353635,58 35.3202358,58 L29.497053,58 C28.9862475,58 28.1689587,57.4921875 28.1689587,56.6796875 L27.6581532,49.9765625 C26.1257367,49.671875 24.5933202,48.859375 23.2652259,48.1484375 L18.0550098,52.3125 C17.7485265,52.515625 17.5442043,52.515625 17.237721,52.515625 C16.7269155,52.515625 16.4204322,52.3125 16.21611,52.0078125 L12.2318271,48.1484375 C11.7210216,47.640625 11.7210216,46.828125 12.0275049,46.3203125 L16.21611,41.140625 C15.3988212,39.8203125 14.8880157,38.1953125 14.3772102,36.671875 L7.5324165,35.859375 C6.8172888,35.859375 6,35.3515625 6,34.640625 L6,29.15625 C6,28.6484375 6.8172888,27.8359375 7.5324165,27.8359375 L14.3772102,27.0234375 C14.8880157,25.5 15.3988212,23.9765625 16.4204322,22.65625 L12.2318271,17.4765625 C11.7210216,16.96875 11.7210216,16.15625 12.2318271,15.6484375 L16.21611,11.6875 C16.4204322,11.484375 16.9312377,11.1796875 17.237721,11.1796875 C17.5442043,11.1796875 17.7485265,11.484375 18.0550098,11.6875 L23.2652259,15.8515625 C24.5933202,14.8359375 26.1257367,14.328125 27.6581532,13.8203125 L28.475442,7.3203125 C28.475442,6.5078125 28.9862475,6 29.8035363,6 L35.3202358,6 C36.0353635,6 36.546169,6.5078125 36.8526523,7.3203125 L37.3634578,13.8203125 C38.8958743,14.0234375 40.5304519,14.8359375 41.8585462,15.6484375 L47.0687623,11.484375 C47.2730845,11.1796875 47.5795678,11.1796875 47.78389,11.1796875 C48.3968566,11.1796875 48.6011788,11.484375 49.1119843,11.9921875 L53.0962672,15.8515625 C53.6070727,16.359375 53.6070727,17.171875 53.0962672,17.6796875 L48.9076621,22.859375 C49.6227898,24.1796875 50.2357564,25.8046875 50.7465619,27.328125 L57.2848723,27.8359375 Z M32,40 C36.418278,40 40,36.418278 40,32 C40,27.581722 36.418278,24 32,24 C27.581722,24 24,27.581722 24,32 C24,36.418278 27.581722,40 32,40 Z" id="Combined-Shape" fill="#000000" fill-rule="nonzero"></path>
    </g>
</svg>