<?xml version="1.0" encoding="UTF-8"?>
<svg width="64px" height="64px" viewBox="0 0 64 64" version="1.1" xmlns="http://www.w3.org/2000/svg" xmlns:xlink="http://www.w3.org/1999/xlink">
    <!-- Generator: Sketch 52.6 (67491) - http://www.bohemiancoding.com/sketch -->
    <title>stl-bollard</title>
    <desc>Created with Sketch.</desc>
    <g id="stl-bollard" stroke="none" stroke-width="1" fill="none" fill-rule="evenodd">
        <g id="icon-stl-bollard" transform="translate(15.000000, 6.000000)" fill="#000000" fill-rule="nonzero">
            <path d="M10.4144144,30.8492063 L23.4834835,30.8492063 L23.4834835,46.7380952 L10.4144144,46.7380952 L10.4144144,30.8492063 Z M7.86186186,28.2698413 L26.1381381,28.2698413 L26.1381381,46.7380952 L31.3453453,46.7380952 L31.3453453,4.43650794 C31.3453453,4.43650794 23.2792793,0 16.2342342,0 C9.08708709,0 2.55255255,4.43650794 2.55255255,4.43650794 L2.55255255,46.7380952 L7.86186186,46.7380952 L7.86186186,28.2698413 Z M16.2342342,4.74603175 C21.1351351,4.74603175 25.1171171,8.66666667 25.1171171,13.7222222 C25.1171171,18.6746032 21.1351351,22.6984127 16.2342342,22.6984127 C11.2312312,22.6984127 7.24924925,18.6746032 7.24924925,13.7222222 C7.24924925,8.66666667 11.2312312,4.74603175 16.2342342,4.74603175 Z M0,49.3174603 L34,49.3174603 L34,52 L0,52 L0,49.3174603 Z M15.4174174,17.1269841 L21.1351351,10.8333333 L18.7867868,8.66666667 L13.0690691,14.7539683 L11.2312312,12.8968254 L11.2312312,18.6746032 L16.9489489,18.984127 L15.4174174,17.1269841 Z" id="Shape"></path>
        </g>
    </g>
</svg>