<?xml version="1.0" encoding="UTF-8"?>
<svg width="64px" height="64px" viewBox="0 0 64 64" version="1.1" xmlns="http://www.w3.org/2000/svg" xmlns:xlink="http://www.w3.org/1999/xlink">
    <!-- Generator: Sketch 52.6 (67491) - http://www.bohemiancoding.com/sketch -->
    <title>stl-component-signal-sensor</title>
    <desc>Created with Sketch.</desc>
    <g id="stl-component-signal-sensor" stroke="none" stroke-width="1" fill="none" fill-rule="evenodd">
        <g id="icon-stl-component-signal-sensor" transform="translate(6.000000, 6.000000)" fill="#000000" fill-rule="nonzero">
            <path d="M7.38271605,38.3885481 C7.38271605,37.8568507 7.38271605,37.3251534 7.38271605,36.6871166 C7.59670782,31.795501 8.98765432,27.2229039 11.4485597,23.0756646 C14.7654321,16.9079755 19.6872428,12.5480573 26,9.46421268 C30.0658436,7.55010225 34.4526749,6.80572597 38.8395062,6.80572597 L38.8395062,0 C38.6255144,0 38.3045267,0 37.7695473,0 C37.2345679,0.212678937 36.9135802,0.212678937 36.3786008,0 C36.1646091,0 35.6296296,0 35.308642,0 C35.308642,0.212678937 34.9876543,0.212678937 34.9876543,0.212678937 C33.7037037,0.212678937 32.3127572,0.531697342 30.9218107,0.744376278 C21.0781893,2.65848671 13.3744856,7.86912065 7.38271605,15.7382413 C2.46090535,22.5439673 0,30.200409 0,38.3885481 L7.38271605,38.3885481 Z M17.7613169,38.3885481 C17.7613169,34.0286299 18.8312757,29.6687117 21.6131687,26.3721881 C26,20.4171779 31.7777778,17.4396728 38.8395062,17.4396728 L38.8395062,10.3149284 C34.9876543,10.3149284 31.2427984,11.1656442 27.6049383,12.7607362 C21.0781893,15.7382413 16.1563786,20.4171779 13.1604938,26.9038855 C11.4485597,30.7321063 10.6995885,34.5603272 10.6995885,38.3885481 L17.7613169,38.3885481 Z M28.1399177,38.3885481 C28.1399177,35.6237219 28.9958848,33.1779141 31.2427984,31.0511247 C33.382716,28.8179959 35.8436214,27.9672802 38.6255144,27.9672802 L38.6255144,20.9488753 C36.6995885,20.9488753 34.9876543,21.1615542 33.1687243,21.799591 C25.4650206,24.4580777 21.0781893,31.0511247 21.0781893,38.3885481 L28.1399177,38.3885481 Z M52,42.4294479 C52,47.7464213 47.7201646,52 42.4773663,52 C37.127572,52 32.8477366,47.7464213 32.8477366,42.4294479 C32.8477366,37.2188139 37.127572,32.9652352 42.4773663,32.9652352 C47.7201646,32.9652352 52,37.2188139 52,42.4294479 Z" id="Shape"></path>
        </g>
    </g>
</svg>