<?xml version="1.0" encoding="UTF-8"?>
<svg width="64px" height="64px" viewBox="0 0 64 64" version="1.1" xmlns="http://www.w3.org/2000/svg" xmlns:xlink="http://www.w3.org/1999/xlink">
    <!-- Generator: Sketch 52.6 (67491) - http://www.bohemiancoding.com/sketch -->
    <title>stl-component-capacitator</title>
    <desc>Created with Sketch.</desc>
    <g id="stl-component-capacitator" stroke="none" stroke-width="1" fill="none" fill-rule="evenodd">
        <g id="icon-stl-component-capacitator" transform="translate(16.000000, 6.000000)" fill="#000000" fill-rule="nonzero">
            <path d="M2.7012987,0 L8,0 L8,13 L2.7012987,13 L2.7012987,0 Z M10.7012987,0 L16,0 L16,13 L10.7012987,13 L10.7012987,0 Z M0,15.640625 L0,52 L32,52 L32,15.640625 L0,15.640625 Z M13.0909091,40.3203125 C12.7792208,40.3203125 15.6883117,34.53125 15.6883117,34.328125 C15.6883117,34.0234375 12.7792208,33.0078125 12.5714286,32.8046875 C12.2597403,32.1953125 18.3896104,25.6953125 18.7012987,25.6953125 C18.9090909,25.6953125 16,31.6875 16,31.6875 C16,31.9921875 19.2207792,32.8046875 19.2207792,33.3125 C19.2207792,33.8203125 13.2987013,40.5234375 13.0909091,40.3203125 Z" id="Shape"></path>
        </g>
    </g>
</svg>