<?xml version="1.0" encoding="UTF-8"?>
<svg width="64px" height="64px" viewBox="0 0 64 64" version="1.1" xmlns="http://www.w3.org/2000/svg" xmlns:xlink="http://www.w3.org/1999/xlink">
    <!-- Generator: Sketch 52.6 (67491) - http://www.bohemiancoding.com/sketch -->
    <title>stl-beacon</title>
    <desc>Created with Sketch.</desc>
    <g id="stl-beacon" stroke="none" stroke-width="1" fill="none" fill-rule="evenodd">
        <g id="icon-stl-beacon" transform="translate(23.000000, 6.000000)" fill="#000000" fill-rule="nonzero">
            <path d="M17.006135,52 C11.3742331,52 5.96319018,52 0.331288344,52 C0.331288344,51.6941176 0.331288344,45.4745098 0.331288344,42.3137255 C0.331288344,41.8039216 0.662576687,41.6 0.883435583,40.9882353 C2.09815951,39.7647059 3.42331288,38.4392157 4.85889571,37.4196078 C5.19018405,37.1137255 5.41104294,36.9098039 5.74233129,36.9098039 C7.95092025,36.9098039 10.2699387,36.9098039 12.4785276,36.9098039 C12.809816,36.9098039 13.3619632,37.1137255 13.6932515,37.4196078 C14.797546,38.4392157 15.5705521,39.4588235 16.7852761,40.4784314 C17.006135,40.7843137 17.006135,40.9882353 17.006135,41.2941176 C16.7852761,44.9647059 17.006135,51.6941176 17.006135,52 Z M12.809816,17.8431373 C10.2699387,17.8431373 7.39877301,17.8431373 4.85889571,17.8431373 C4.85889571,17.3333333 4.85889571,16.7215686 4.85889571,16.2117647 C4.85889571,15.7019608 4.63803681,15.4980392 4.30674847,15.1921569 C-0.220858896,12.5411765 -1.32515337,7.1372549 2.09815951,3.16078431 C5.19018405,-0.509803922 10.8220859,-1.01960784 14.797546,1.83529412 C18.7730061,4.99607843 18.993865,10.1960784 15.5705521,13.6627451 C15.3496933,13.8666667 15.0184049,14.3764706 14.4662577,14.6823529 C13.0306748,15.1921569 12.809816,16.2117647 13.0306748,17.3333333 C12.809816,17.3333333 12.809816,17.5372549 12.809816,17.8431373 Z M8.83435583,2.14117647 C5.41104294,2.14117647 2.65030675,4.79215686 2.3190184,7.85098039 C2.3190184,11.0117647 5.19018405,13.8666667 8.50306748,13.8666667 C11.9263804,13.8666667 15.0184049,11.3176471 15.0184049,8.15686275 C15.3496933,4.79215686 12.4785276,2.14117647 8.83435583,2.14117647 Z M4.85889571,26.4078431 C4.85889571,24.8784314 4.85889571,23.5529412 4.85889571,22.0235294 C7.39877301,22.0235294 9.93865031,22.0235294 12.809816,22.0235294 C12.809816,23.2470588 12.809816,24.8784314 12.809816,26.4078431 C10.2699387,26.4078431 7.73006135,26.4078431 4.85889571,26.4078431 Z M4.85889571,35.2784314 C4.85889571,33.9529412 4.85889571,32.7294118 4.85889571,31.6078431 C4.85889571,31.4039216 4.85889571,31.4039216 4.85889571,31.0980392 C5.19018405,31.0980392 5.19018405,31.0980392 5.41104294,31.0980392 C7.73006135,31.0980392 10.2699387,31.0980392 12.809816,31.0980392 C12.809816,32.7294118 12.809816,33.9529412 12.809816,35.5843137 C10.2699387,35.2784314 7.73006135,35.2784314 4.85889571,35.2784314 Z" id="Shape"></path>
        </g>
    </g>
</svg>