<?xml version="1.0" encoding="UTF-8"?>
<svg width="64px" height="64px" viewBox="0 0 64 64" version="1.1" xmlns="http://www.w3.org/2000/svg" xmlns:xlink="http://www.w3.org/1999/xlink">
    <!-- Generator: Sketch 52.6 (67491) - http://www.bohemiancoding.com/sketch -->
    <title>structure-simple</title>
    <desc>Created with Sketch.</desc>
    <g id="structure-simple" stroke="none" stroke-width="1" fill="none" fill-rule="evenodd">
        <g id="icon-structure-simple" transform="translate(24.000000, 6.000000)" fill="#000000" fill-rule="nonzero">
            <path d="M11.3513514,37.984375 L11.3513514,14.015625 C14.0540541,12.6953125 16,10.359375 16,7.3125 C16,3.3515625 12.4324324,0 8,0 C3.56756757,0 0,3.3515625 0,7.515625 C0,10.359375 1.94594595,13 4.64864865,14.015625 L4.64864865,37.6796875 C1.94594595,39 0,41.3359375 0,44.484375 C0,48.6484375 3.56756757,52 8,52 C12.4324324,52 16,48.6484375 16,44.484375 C16,41.640625 14.0540541,39 11.3513514,37.984375 Z M8,3.1484375 C10.4864865,3.1484375 12.4324324,4.9765625 12.4324324,7.3125 C12.4324324,9.6484375 10.4864865,11.4765625 8,11.4765625 C5.51351351,11.4765625 3.56756757,9.8515625 3.56756757,7.515625 C3.56756757,4.9765625 5.51351351,3.1484375 8,3.1484375 Z M8,48.8515625 C5.51351351,48.8515625 3.56756757,47.0234375 3.56756757,44.6875 C3.56756757,42.3515625 5.51351351,40.5234375 8,40.5234375 C10.4864865,40.5234375 12.4324324,42.3515625 12.4324324,44.6875 C12.4324324,47.0234375 10.4864865,48.8515625 8,48.8515625 Z" id="Shape"></path>
        </g>
    </g>
</svg>