<?xml version="1.0" encoding="UTF-8"?>
<svg width="64px" height="64px" viewBox="0 0 64 64" version="1.1" xmlns="http://www.w3.org/2000/svg" xmlns:xlink="http://www.w3.org/1999/xlink">
    <!-- Generator: Sketch 52.6 (67491) - http://www.bohemiancoding.com/sketch -->
    <title>structure-parallel-merge</title>
    <desc>Created with Sketch.</desc>
    <g id="structure-parallel-merge" stroke="none" stroke-width="1" fill="none" fill-rule="evenodd">
        <g id="icon-structure-parallel-merge" transform="translate(12.000000, 6.000000)" fill="#000000" fill-rule="nonzero">
            <path d="M12.3762376,12.6213592 C12.6732673,12.4194175 12.6732673,12.1165049 12.8712871,12.1165049 C12.8712871,12.1165049 13.1683168,11.9145631 13.1683168,11.9145631 C13.3663366,11.6116505 13.3663366,11.6116505 13.3663366,11.4097087 C13.3663366,11.1067961 13.6633663,11.1067961 13.6633663,10.9048544 C13.960396,10.2990291 13.960396,10.2990291 14.1584158,10.0970874 C14.1584158,9.79417476 14.4554455,9.59223301 14.4554455,9.28932039 C14.4554455,9.08737864 14.4554455,8.78446602 14.6534653,8.4815534 C14.6534653,8.27961165 14.6534653,7.97669903 14.6534653,7.47184466 C14.6534653,7.26990291 14.6534653,7.26990291 14.6534653,6.96699029 C14.6534653,6.76504854 14.6534653,6.1592233 14.6534653,5.95728155 C14.6534653,5.95728155 14.6534653,5.65436893 14.6534653,5.65436893 C13.6633663,2.62524272 10.8910891,0 7.32673267,0 C3.76237624,0 0.99009901,2.62524272 0.198019802,5.95728155 C0.198019802,6.46213592 0,6.96699029 0,7.47184466 C0,9.28932039 0.693069307,11.4097087 1.98019802,12.6213592 C2.77227723,13.4291262 3.26732673,13.7320388 4.25742574,14.2368932 L4.25742574,37.9650485 C2.27722772,39.0757282 0.693069307,40.792233 0.198019802,43.215534 C0.198019802,43.7203883 0,44.2252427 0,44.7300971 C0,46.5475728 0.693069307,48.5669903 1.98019802,49.8796117 C4.75247525,52.7067961 9.30693069,52.7067961 12.1782178,49.8796117 C12.6732673,49.3747573 12.8712871,49.0718447 12.8712871,49.0718447 C12.8712871,49.0718447 13.1683168,48.8699029 13.1683168,48.8699029 C13.3663366,48.5669903 13.3663366,48.5669903 13.3663366,48.3650485 C13.3663366,48.0621359 13.6633663,48.0621359 13.6633663,47.8601942 C13.6633663,47.5572816 13.960396,47.5572816 13.960396,47.2543689 C13.960396,47.0524272 14.1584158,46.7495146 14.1584158,46.5475728 C14.1584158,46.2446602 14.1584158,46.0427184 14.4554455,45.7398058 C14.4554455,45.5378641 14.4554455,45.2349515 14.4554455,44.7300971 C14.4554455,44.4271845 14.4554455,44.4271845 14.4554455,44.2252427 C14.4554455,43.9223301 14.4554455,43.4174757 14.4554455,43.215534 C14.4554455,43.215534 14.4554455,42.9126214 14.4554455,42.9126214 C13.960396,40.2873786 12.1782178,38.4699029 9.9009901,37.4601942 L9.9009901,14.2368932 C10.8910891,13.9339806 11.6831683,13.4291262 12.3762376,12.6213592 Z M4.25742574,4.44271845 C6.03960396,2.62524272 8.61386139,2.62524272 10.3960396,4.44271845 C11.8811881,5.95728155 11.8811881,8.78446602 10.3960396,10.2990291 C8.61386139,12.1165049 6.03960396,12.1165049 4.25742574,10.2990291 C2.77227723,8.78446602 2.77227723,5.95728155 4.25742574,4.44271845 Z M10.3960396,47.2543689 C8.81188119,48.8699029 6.03960396,48.8699029 4.55445545,47.2543689 C2.97029703,45.7398058 2.97029703,42.9126214 4.55445545,41.3980583 C6.03960396,39.7825243 8.81188119,39.7825243 10.3960396,41.3980583 C11.8811881,43.215534 11.8811881,45.7398058 10.3960396,47.2543689 Z M39.8019802,44.2252427 C39.8019802,43.9223301 39.8019802,43.4174757 39.8019802,43.215534 C39.8019802,43.215534 39.8019802,42.9126214 39.8019802,42.9126214 C39.3069307,40.5902913 37.5247525,38.4699029 35.4455446,37.7631068 L35.4455446,4.64466019 L24.5544554,4.64466019 L24.5544554,0 L14.6534653,7.26990291 L24.5544554,14.438835 L24.5544554,9.79417476 L30.3960396,9.79417476 L30.3960396,37.4601942 C28.1188119,38.2679612 26.039604,40.2873786 25.5445545,42.9126214 C25.5445545,43.4174757 25.3465347,43.9223301 25.3465347,44.4271845 C25.3465347,46.2446602 26.039604,48.3650485 27.3267327,49.6776699 C30.0990099,52.5048544 34.6534653,52.5048544 37.5247525,49.6776699 C37.7227723,49.3747573 37.7227723,49.0718447 38.019802,49.0718447 C38.019802,49.0718447 38.2178218,48.8699029 38.2178218,48.8699029 C38.5148515,48.5669903 38.5148515,48.5669903 38.5148515,48.3650485 C38.5148515,48.0621359 38.7128713,48.0621359 38.7128713,47.8601942 C38.7128713,47.5572816 39.009901,47.5572816 39.009901,47.2543689 C39.009901,47.0524272 39.3069307,46.7495146 39.3069307,46.5475728 C39.3069307,46.2446602 39.3069307,46.0427184 39.5049505,45.7398058 C39.5049505,45.5378641 39.5049505,45.2349515 39.5049505,44.7300971 C40,44.4271845 40,44.2252427 39.8019802,44.2252427 Z M35.7425743,47.2543689 C34.1584158,48.8699029 31.3861386,48.8699029 29.9009901,47.2543689 C28.3168317,45.7398058 28.3168317,42.9126214 29.9009901,41.3980583 C31.3861386,39.7825243 34.1584158,39.7825243 35.7425743,41.3980583 C37.2277228,42.9126214 37.2277228,45.7398058 35.7425743,47.2543689 Z" id="Shape"></path>
        </g>
    </g>
</svg>