<?xml version="1.0" encoding="UTF-8"?>
<svg width="64px" height="64px" viewBox="0 0 64 64" version="1.1" xmlns="http://www.w3.org/2000/svg" xmlns:xlink="http://www.w3.org/1999/xlink">
    <!-- Generator: Sketch 52.6 (67491) - http://www.bohemiancoding.com/sketch -->
    <title>structure-join</title>
    <desc>Created with Sketch.</desc>
    <g id="structure-join" stroke="none" stroke-width="1" fill="none" fill-rule="evenodd">
        <g id="icon-structure-join" transform="translate(12.000000, 6.000000)" fill="#000000" fill-rule="nonzero">
            <path d="M40,7.515625 C40,3.3515625 36.5306122,0 32.3469388,0 C28.1632653,0 24.7959184,3.3515625 24.7959184,7.515625 C24.7959184,10.359375 26.6326531,13 28.9795918,14.3203125 C29.2857143,18.9921875 25.3061224,20.8203125 19.0816327,23.15625 C16.4285714,24.171875 13.2653061,25.1875 10.7142857,27.015625 L10.7142857,14.015625 C13.2653061,13 15.1020408,10.359375 15.1020408,7.515625 C15.1020408,3.3515625 11.7346939,0 7.55102041,0 C3.67346939,0 0.204081633,3.3515625 0.204081633,7.515625 C0.204081633,10.359375 2.04081633,13 4.3877551,14.015625 L4.3877551,37.6796875 C1.83673469,39 0,41.3359375 0,44.484375 C0,48.6484375 3.36734694,52 7.55102041,52 C11.7346939,52 15.1020408,48.6484375 15.1020408,44.484375 C15.1020408,41.640625 13.2653061,39 10.9183673,37.6796875 C11.2244898,32.8046875 14.8979592,31.1796875 21.4285714,28.84375 C27.6530612,26.5078125 35.5102041,23.6640625 35.8163265,14.015625 C38.1632653,13 40,10.359375 40,7.515625 Z M7.55102041,3.1484375 C9.89795918,3.1484375 11.7346939,4.9765625 11.7346939,7.3125 C11.7346939,9.6484375 9.89795918,11.4765625 7.55102041,11.4765625 C5.20408163,11.4765625 3.36734694,9.6484375 3.36734694,7.3125 C3.36734694,4.9765625 5.20408163,3.1484375 7.55102041,3.1484375 Z M7.55102041,48.8515625 C5.20408163,48.8515625 3.36734694,47.0234375 3.36734694,44.6875 C3.36734694,42.3515625 5.20408163,40.3203125 7.55102041,40.3203125 C9.89795918,40.3203125 11.7346939,42.1484375 11.7346939,44.6875 C12.0408163,47.0234375 9.89795918,48.8515625 7.55102041,48.8515625 Z M32.6530612,11.6796875 C30.3061224,11.6796875 28.4693878,9.8515625 28.4693878,7.515625 C28.4693878,5.1796875 30.3061224,3.3515625 32.6530612,3.3515625 C35,3.3515625 36.8367347,5.1796875 36.8367347,7.515625 C36.8367347,9.8515625 35,11.6796875 32.6530612,11.6796875 Z" id="Shape"></path>
        </g>
    </g>
</svg>