<?xml version="1.0" encoding="UTF-8"?>
<svg width="64px" height="64px" viewBox="0 0 64 64" version="1.1" xmlns="http://www.w3.org/2000/svg" xmlns:xlink="http://www.w3.org/1999/xlink">
    <!-- Generator: Sketch 52.6 (67491) - http://www.bohemiancoding.com/sketch -->
    <title>structure-childrens</title>
    <desc>Created with Sketch.</desc>
    <g id="structure-childrens" stroke="none" stroke-width="1" fill="none" fill-rule="evenodd">
        <g id="icon-structure-childrens" transform="translate(6.000000, 6.000000)" fill="#000000" fill-rule="nonzero">
            <path d="M43.3675889,34.0234375 C42.5454545,34.0234375 42.0316206,34.0234375 41.5177866,34.328125 L32.0632411,15.84375 C34.1185771,14.3203125 35.2490119,11.6796875 35.2490119,9.140625 C34.9407115,3.859375 31.0355731,0 26,0 C20.9644269,0 17.0592885,3.859375 17.0592885,8.8359375 C17.0592885,11.4765625 18.0869565,13.8125 19.9367589,15.3359375 L10.7905138,34.0234375 C10.173913,34.0234375 9.45454545,33.8203125 8.94071146,33.8203125 C3.90513834,33.8203125 0,37.6796875 0,42.65625 C0,47.53125 3.59683794,52 8.63241107,52 C13.6679842,52 17.5731225,48.140625 17.5731225,43.1640625 C17.5731225,39.8125 15.7233202,36.96875 12.8458498,35.34375 L21.7865613,16.859375 C23.3280632,17.46875 24.6640316,17.9765625 26,17.9765625 C27.3359684,17.9765625 28.6719368,17.671875 29.6996047,17.1640625 L38.8458498,35.34375 C36.2766798,36.96875 34.1185771,39.8125 34.1185771,43.1640625 C34.1185771,48.140625 38.1264822,52 43.0592885,52 C48.0948617,52 52,48.140625 52,43.1640625 C52,38.1875 48.4031621,34.0234375 43.3675889,34.0234375 Z M26,14.828125 C22.8142292,14.828125 20.2450593,12.1875 20.2450593,9.140625 C20.2450593,5.9921875 22.8142292,3.3515625 26,3.3515625 C29.1857708,3.3515625 31.7549407,5.9921875 31.7549407,9.140625 C31.7549407,11.171875 30.5217391,13.3046875 28.6719368,14.015625 L28.055336,14.3203125 C27.541502,14.5234375 26.8221344,14.828125 26,14.828125 Z" id="Shape"></path>
        </g>
    </g>
</svg>