<?xml version="1.0" encoding="UTF-8"?>
<svg width="64px" height="64px" viewBox="0 0 64 64" version="1.1" xmlns="http://www.w3.org/2000/svg" xmlns:xlink="http://www.w3.org/1999/xlink">
    <!-- Generator: Sketch 52.6 (67491) - http://www.bohemiancoding.com/sketch -->
    <title>structure-disconnected</title>
    <desc>Created with Sketch.</desc>
    <g id="structure-disconnected" stroke="none" stroke-width="1" fill="none" fill-rule="evenodd">
        <g id="icon-structure-disconnected" transform="translate(24.000000, 6.000000)" fill="#000000" fill-rule="nonzero">
            <path d="M11.3513514,37.7631068 L11.3513514,26.8582524 L4.64864865,29.1805825 L4.64864865,37.7631068 C1.94594595,39.0757282 0,41.3980583 0,44.4271845 C0,48.5669903 3.56756757,52 8,52 C12.4324324,52 16,48.5669903 16,44.4271845 C16,41.3980583 14.0540541,38.7728155 11.3513514,37.7631068 Z M8,48.5669903 C5.51351351,48.5669903 3.56756757,46.7495146 3.56756757,44.4271845 C3.56756757,42.1048544 5.51351351,40.2873786 8,40.2873786 C10.4864865,40.2873786 12.4324324,42.1048544 12.4324324,44.4271845 C12.4324324,46.7495146 10.4864865,48.5669903 8,48.5669903 Z M4.64864865,13.9339806 L4.64864865,22.5165049 L11.3513514,20.3961165 L11.3513514,13.9339806 C14.0540541,12.6213592 16,10.2990291 16,7.26990291 C16,3.33203883 12.4324324,0 8,0 C3.56756757,0 0,3.33203883 0,7.47184466 C0,10.2990291 1.94594595,12.9242718 4.64864865,13.9339806 Z M8,3.13009709 C10.4864865,3.13009709 12.4324324,4.94757282 12.4324324,7.26990291 C12.4324324,9.59223301 10.4864865,11.4097087 8,11.4097087 C5.51351351,11.4097087 3.56756757,9.79417476 3.56756757,7.47184466 C3.56756757,4.94757282 5.51351351,3.13009709 8,3.13009709 Z" id="Shape"></path>
        </g>
    </g>
</svg>