<?xml version="1.0" encoding="UTF-8"?>
<svg width="64px" height="64px" viewBox="0 0 64 64" version="1.1" xmlns="http://www.w3.org/2000/svg" xmlns:xlink="http://www.w3.org/1999/xlink">
    <!-- Generator: Sketch 52.6 (67491) - http://www.bohemiancoding.com/sketch -->
    <title>structure-exchange-horizontal</title>
    <desc>Created with Sketch.</desc>
    <g id="structure-exchange-horizontal" stroke="none" stroke-width="1" fill="none" fill-rule="evenodd">
        <g id="icon-structure-exchange-horizontal" transform="translate(6.000000, 12.000000)" fill="#000000" fill-rule="nonzero">
            <path d="M7.09551657,0 C6.89278752,0 6.58869396,0 6.08187135,0 C5.77777778,0 5.57504873,0 5.27095517,0.199004975 C5.27095517,0.497512438 5.06822612,0.497512438 4.76413255,0.497512438 C4.56140351,0.497512438 4.56140351,0.696517413 4.25730994,0.696517413 C3.95321637,0.696517413 3.95321637,0.995024876 3.75048733,0.995024876 C3.44639376,0.995024876 3.24366472,1.29353234 3.24366472,1.29353234 C3.24366472,1.29353234 2.93957115,1.49253731 2.93957115,1.49253731 C2.73684211,1.79104478 2.43274854,1.99004975 2.12865497,2.28855721 C-0.709551657,5.07462687 -0.709551657,9.65174129 2.12865497,12.4378109 C3.75048733,14.0298507 5.57504873,14.5273632 7.39961014,14.5273632 C7.90643275,14.5273632 8.41325536,14.5273632 8.92007797,14.2288557 C11.5555556,13.7313433 13.582846,11.9402985 14.3937622,9.35323383 L42.1676413,9.35323383 L42.1676413,15.2238806 L37.5048733,15.2238806 L44.7017544,25.1741294 L52,15.5223881 L47.337232,15.5223881 L47.337232,4.57711443 L14.0896686,4.57711443 C13.380117,2.28855721 11.251462,0.696517413 8.92007797,0.199004975 C8.92007797,0.199004975 8.61598441,0.199004975 8.61598441,0.199004975 C8.41325536,0.199004975 7.90643275,0.199004975 7.60233918,0.199004975 C7.60233918,0 7.39961014,0 7.09551657,0 Z M10.4405458,4.27860697 C12.0623782,5.87064677 12.0623782,8.65671642 10.4405458,10.1492537 C8.92007797,11.7412935 6.08187135,11.7412935 4.56140351,10.1492537 C2.73684211,8.65671642 2.73684211,6.06965174 4.56140351,4.27860697 C6.08187135,2.78606965 8.92007797,2.78606965 10.4405458,4.27860697 Z M14.5964912,24.6766169 L7.39961014,14.7263682 L0.101364522,24.6766169 L4.76413255,24.6766169 L4.76413255,35.6218905 L37.7076023,35.6218905 C38.7212476,37.9104478 40.545809,39.5024876 42.877193,40 C42.877193,40 43.1812865,40 43.1812865,40 C43.4853801,40 43.9922027,40 44.1949318,40 C44.4990253,40 44.4990253,40 44.7017544,40 C45.005848,40 45.208577,40 45.8167641,40 C46.0194932,40 46.3235867,40 46.5263158,39.7014925 C46.8304094,39.7014925 47.0331384,39.5024876 47.337232,39.5024876 C47.539961,39.5024876 47.539961,39.2039801 47.8440546,39.2039801 C48.1481481,39.2039801 48.1481481,38.9054726 48.3508772,38.9054726 C48.6549708,38.9054726 48.8576998,38.7064677 48.8576998,38.7064677 C48.8576998,38.7064677 49.1617934,38.4079602 49.1617934,38.4079602 C49.3645224,38.2089552 49.668616,38.2089552 49.668616,37.9104478 C52.5068226,35.1243781 52.5068226,30.5472637 49.668616,27.761194 C48.1481481,26.1691542 46.3235867,25.6716418 44.4990253,25.6716418 C43.9922027,25.6716418 43.4853801,25.6716418 42.877193,25.9701493 C40.3430799,26.4676617 38.214425,28.2587065 37.5048733,30.8457711 L9.9337232,30.8457711 L9.9337232,24.9751244 L14.5964912,24.9751244 L14.5964912,24.6766169 Z M41.6608187,35.920398 C40.0389864,34.3283582 40.0389864,31.5422886 41.6608187,30.0497512 C43.1812865,28.4577114 46.0194932,28.4577114 47.539961,30.0497512 C49.1617934,31.5422886 49.1617934,34.3283582 47.539961,35.920398 C46.0194932,37.4129353 43.1812865,37.4129353 41.6608187,35.920398 Z M7.09551657,0 C6.89278752,0 6.58869396,0 6.08187135,0 C5.77777778,0 5.57504873,0 5.27095517,0.199004975 C5.27095517,0.497512438 5.06822612,0.497512438 4.76413255,0.497512438 C4.56140351,0.497512438 4.56140351,0.696517413 4.25730994,0.696517413 C3.95321637,0.696517413 3.95321637,0.995024876 3.75048733,0.995024876 C3.44639376,0.995024876 3.24366472,1.29353234 3.24366472,1.29353234 C3.24366472,1.29353234 2.93957115,1.49253731 2.93957115,1.49253731 C2.73684211,1.79104478 2.43274854,1.99004975 2.12865497,2.28855721 C-0.709551657,5.07462687 -0.709551657,9.65174129 2.12865497,12.4378109 C3.75048733,14.0298507 5.57504873,14.5273632 7.39961014,14.5273632 C7.90643275,14.5273632 8.41325536,14.5273632 8.92007797,14.2288557 C11.5555556,13.7313433 13.582846,11.9402985 14.3937622,9.35323383 L42.1676413,9.35323383 L42.1676413,15.2238806 L37.5048733,15.2238806 L44.7017544,25.1741294 L52,15.5223881 L47.337232,15.5223881 L47.337232,4.57711443 L14.0896686,4.57711443 C13.380117,2.28855721 11.251462,0.696517413 8.92007797,0.199004975 C8.92007797,0.199004975 8.61598441,0.199004975 8.61598441,0.199004975 C8.41325536,0.199004975 7.90643275,0.199004975 7.60233918,0.199004975 C7.60233918,0 7.39961014,0 7.09551657,0 Z M10.4405458,4.27860697 C12.0623782,5.87064677 12.0623782,8.65671642 10.4405458,10.1492537 C8.92007797,11.7412935 6.08187135,11.7412935 4.56140351,10.1492537 C2.73684211,8.65671642 2.73684211,6.06965174 4.56140351,4.27860697 C6.08187135,2.78606965 8.92007797,2.78606965 10.4405458,4.27860697 Z M14.5964912,24.6766169 L7.39961014,14.7263682 L0.101364522,24.6766169 L4.76413255,24.6766169 L4.76413255,35.6218905 L37.7076023,35.6218905 C38.7212476,37.9104478 40.545809,39.5024876 42.877193,40 C42.877193,40 43.1812865,40 43.1812865,40 C43.4853801,40 43.9922027,40 44.1949318,40 C44.4990253,40 44.4990253,40 44.7017544,40 C45.005848,40 45.208577,40 45.8167641,40 C46.0194932,40 46.3235867,40 46.5263158,39.7014925 C46.8304094,39.7014925 47.0331384,39.5024876 47.337232,39.5024876 C47.539961,39.5024876 47.539961,39.2039801 47.8440546,39.2039801 C48.1481481,39.2039801 48.1481481,38.9054726 48.3508772,38.9054726 C48.6549708,38.9054726 48.8576998,38.7064677 48.8576998,38.7064677 C48.8576998,38.7064677 49.1617934,38.4079602 49.1617934,38.4079602 C49.3645224,38.2089552 49.668616,38.2089552 49.668616,37.9104478 C52.5068226,35.1243781 52.5068226,30.5472637 49.668616,27.761194 C48.1481481,26.1691542 46.3235867,25.6716418 44.4990253,25.6716418 C43.9922027,25.6716418 43.4853801,25.6716418 42.877193,25.9701493 C40.3430799,26.4676617 38.214425,28.2587065 37.5048733,30.8457711 L9.9337232,30.8457711 L9.9337232,24.9751244 L14.5964912,24.9751244 L14.5964912,24.6766169 Z M41.6608187,35.920398 C40.0389864,34.3283582 40.0389864,31.5422886 41.6608187,30.0497512 C43.1812865,28.4577114 46.0194932,28.4577114 47.539961,30.0497512 C49.1617934,31.5422886 49.1617934,34.3283582 47.539961,35.920398 C46.0194932,37.4129353 43.1812865,37.4129353 41.6608187,35.920398 Z M7.09551657,0 C6.89278752,0 6.58869396,0 6.08187135,0 C5.77777778,0 5.57504873,0 5.27095517,0.199004975 C5.27095517,0.497512438 5.06822612,0.497512438 4.76413255,0.497512438 C4.56140351,0.497512438 4.56140351,0.696517413 4.25730994,0.696517413 C3.95321637,0.696517413 3.95321637,0.995024876 3.75048733,0.995024876 C3.44639376,0.995024876 3.24366472,1.29353234 3.24366472,1.29353234 C3.24366472,1.29353234 2.93957115,1.49253731 2.93957115,1.49253731 C2.73684211,1.79104478 2.43274854,1.99004975 2.12865497,2.28855721 C-0.709551657,5.07462687 -0.709551657,9.65174129 2.12865497,12.4378109 C3.75048733,14.0298507 5.57504873,14.5273632 7.39961014,14.5273632 C7.90643275,14.5273632 8.41325536,14.5273632 8.92007797,14.2288557 C11.5555556,13.7313433 13.582846,11.9402985 14.3937622,9.35323383 L42.1676413,9.35323383 L42.1676413,15.2238806 L37.5048733,15.2238806 L44.7017544,25.1741294 L52,15.5223881 L47.337232,15.5223881 L47.337232,4.57711443 L14.0896686,4.57711443 C13.380117,2.28855721 11.251462,0.696517413 8.92007797,0.199004975 C8.92007797,0.199004975 8.61598441,0.199004975 8.61598441,0.199004975 C8.41325536,0.199004975 7.90643275,0.199004975 7.60233918,0.199004975 C7.60233918,0 7.39961014,0 7.09551657,0 Z M10.4405458,4.27860697 C12.0623782,5.87064677 12.0623782,8.65671642 10.4405458,10.1492537 C8.92007797,11.7412935 6.08187135,11.7412935 4.56140351,10.1492537 C2.73684211,8.65671642 2.73684211,6.06965174 4.56140351,4.27860697 C6.08187135,2.78606965 8.92007797,2.78606965 10.4405458,4.27860697 Z M14.5964912,24.6766169 L7.39961014,14.7263682 L0.101364522,24.6766169 L4.76413255,24.6766169 L4.76413255,35.6218905 L37.7076023,35.6218905 C38.7212476,37.9104478 40.545809,39.5024876 42.877193,40 C42.877193,40 43.1812865,40 43.1812865,40 C43.4853801,40 43.9922027,40 44.1949318,40 C44.4990253,40 44.4990253,40 44.7017544,40 C45.005848,40 45.208577,40 45.8167641,40 C46.0194932,40 46.3235867,40 46.5263158,39.7014925 C46.8304094,39.7014925 47.0331384,39.5024876 47.337232,39.5024876 C47.539961,39.5024876 47.539961,39.2039801 47.8440546,39.2039801 C48.1481481,39.2039801 48.1481481,38.9054726 48.3508772,38.9054726 C48.6549708,38.9054726 48.8576998,38.7064677 48.8576998,38.7064677 C48.8576998,38.7064677 49.1617934,38.4079602 49.1617934,38.4079602 C49.3645224,38.2089552 49.668616,38.2089552 49.668616,37.9104478 C52.5068226,35.1243781 52.5068226,30.5472637 49.668616,27.761194 C48.1481481,26.1691542 46.3235867,25.6716418 44.4990253,25.6716418 C43.9922027,25.6716418 43.4853801,25.6716418 42.877193,25.9701493 C40.3430799,26.4676617 38.214425,28.2587065 37.5048733,30.8457711 L9.9337232,30.8457711 L9.9337232,24.9751244 L14.5964912,24.9751244 L14.5964912,24.6766169 Z M41.6608187,35.920398 C40.0389864,34.3283582 40.0389864,31.5422886 41.6608187,30.0497512 C43.1812865,28.4577114 46.0194932,28.4577114 47.539961,30.0497512 C49.1617934,31.5422886 49.1617934,34.3283582 47.539961,35.920398 C46.0194932,37.4129353 43.1812865,37.4129353 41.6608187,35.920398 Z M7.09551657,0 C6.89278752,0 6.58869396,0 6.08187135,0 C5.77777778,0 5.57504873,0 5.27095517,0.199004975 C5.27095517,0.497512438 5.06822612,0.497512438 4.76413255,0.497512438 C4.56140351,0.497512438 4.56140351,0.696517413 4.25730994,0.696517413 C3.95321637,0.696517413 3.95321637,0.995024876 3.75048733,0.995024876 C3.44639376,0.995024876 3.24366472,1.29353234 3.24366472,1.29353234 C3.24366472,1.29353234 2.93957115,1.49253731 2.93957115,1.49253731 C2.73684211,1.79104478 2.43274854,1.99004975 2.12865497,2.28855721 C-0.709551657,5.07462687 -0.709551657,9.65174129 2.12865497,12.4378109 C3.75048733,14.0298507 5.57504873,14.5273632 7.39961014,14.5273632 C7.90643275,14.5273632 8.41325536,14.5273632 8.92007797,14.2288557 C11.5555556,13.7313433 13.582846,11.9402985 14.3937622,9.35323383 L42.1676413,9.35323383 L42.1676413,15.2238806 L37.5048733,15.2238806 L44.7017544,25.1741294 L52,15.5223881 L47.337232,15.5223881 L47.337232,4.57711443 L14.0896686,4.57711443 C13.380117,2.28855721 11.251462,0.696517413 8.92007797,0.199004975 C8.92007797,0.199004975 8.61598441,0.199004975 8.61598441,0.199004975 C8.41325536,0.199004975 7.90643275,0.199004975 7.60233918,0.199004975 C7.60233918,0 7.39961014,0 7.09551657,0 Z M10.4405458,4.27860697 C12.0623782,5.87064677 12.0623782,8.65671642 10.4405458,10.1492537 C8.92007797,11.7412935 6.08187135,11.7412935 4.56140351,10.1492537 C2.73684211,8.65671642 2.73684211,6.06965174 4.56140351,4.27860697 C6.08187135,2.78606965 8.92007797,2.78606965 10.4405458,4.27860697 Z M14.5964912,24.6766169 L7.39961014,14.7263682 L0.101364522,24.6766169 L4.76413255,24.6766169 L4.76413255,35.6218905 L37.7076023,35.6218905 C38.7212476,37.9104478 40.545809,39.5024876 42.877193,40 C42.877193,40 43.1812865,40 43.1812865,40 C43.4853801,40 43.9922027,40 44.1949318,40 C44.4990253,40 44.4990253,40 44.7017544,40 C45.005848,40 45.208577,40 45.8167641,40 C46.0194932,40 46.3235867,40 46.5263158,39.7014925 C46.8304094,39.7014925 47.0331384,39.5024876 47.337232,39.5024876 C47.539961,39.5024876 47.539961,39.2039801 47.8440546,39.2039801 C48.1481481,39.2039801 48.1481481,38.9054726 48.3508772,38.9054726 C48.6549708,38.9054726 48.8576998,38.7064677 48.8576998,38.7064677 C48.8576998,38.7064677 49.1617934,38.4079602 49.1617934,38.4079602 C49.3645224,38.2089552 49.668616,38.2089552 49.668616,37.9104478 C52.5068226,35.1243781 52.5068226,30.5472637 49.668616,27.761194 C48.1481481,26.1691542 46.3235867,25.6716418 44.4990253,25.6716418 C43.9922027,25.6716418 43.4853801,25.6716418 42.877193,25.9701493 C40.3430799,26.4676617 38.214425,28.2587065 37.5048733,30.8457711 L9.9337232,30.8457711 L9.9337232,24.9751244 L14.5964912,24.9751244 L14.5964912,24.6766169 Z M41.6608187,35.920398 C40.0389864,34.3283582 40.0389864,31.5422886 41.6608187,30.0497512 C43.1812865,28.4577114 46.0194932,28.4577114 47.539961,30.0497512 C49.1617934,31.5422886 49.1617934,34.3283582 47.539961,35.920398 C46.0194932,37.4129353 43.1812865,37.4129353 41.6608187,35.920398 Z M7.09551657,0 C6.89278752,0 6.58869396,0 6.08187135,0 C5.77777778,0 5.57504873,0 5.27095517,0.199004975 C5.27095517,0.497512438 5.06822612,0.497512438 4.76413255,0.497512438 C4.56140351,0.497512438 4.56140351,0.696517413 4.25730994,0.696517413 C3.95321637,0.696517413 3.95321637,0.995024876 3.75048733,0.995024876 C3.44639376,0.995024876 3.24366472,1.29353234 3.24366472,1.29353234 C3.24366472,1.29353234 2.93957115,1.49253731 2.93957115,1.49253731 C2.73684211,1.79104478 2.43274854,1.99004975 2.12865497,2.28855721 C-0.709551657,5.07462687 -0.709551657,9.65174129 2.12865497,12.4378109 C3.75048733,14.0298507 5.57504873,14.5273632 7.39961014,14.5273632 C7.90643275,14.5273632 8.41325536,14.5273632 8.92007797,14.2288557 C11.5555556,13.7313433 13.582846,11.9402985 14.3937622,9.35323383 L42.1676413,9.35323383 L42.1676413,15.2238806 L37.5048733,15.2238806 L44.7017544,25.1741294 L52,15.5223881 L47.337232,15.5223881 L47.337232,4.57711443 L14.0896686,4.57711443 C13.380117,2.28855721 11.251462,0.696517413 8.92007797,0.199004975 C8.92007797,0.199004975 8.61598441,0.199004975 8.61598441,0.199004975 C8.41325536,0.199004975 7.90643275,0.199004975 7.60233918,0.199004975 C7.60233918,0 7.39961014,0 7.09551657,0 Z M10.4405458,4.27860697 C12.0623782,5.87064677 12.0623782,8.65671642 10.4405458,10.1492537 C8.92007797,11.7412935 6.08187135,11.7412935 4.56140351,10.1492537 C2.73684211,8.65671642 2.73684211,6.06965174 4.56140351,4.27860697 C6.08187135,2.78606965 8.92007797,2.78606965 10.4405458,4.27860697 Z M14.5964912,24.6766169 L7.39961014,14.7263682 L0.101364522,24.6766169 L4.76413255,24.6766169 L4.76413255,35.6218905 L37.7076023,35.6218905 C38.7212476,37.9104478 40.545809,39.5024876 42.877193,40 C42.877193,40 43.1812865,40 43.1812865,40 C43.4853801,40 43.9922027,40 44.1949318,40 C44.4990253,40 44.4990253,40 44.7017544,40 C45.005848,40 45.208577,40 45.8167641,40 C46.0194932,40 46.3235867,40 46.5263158,39.7014925 C46.8304094,39.7014925 47.0331384,39.5024876 47.337232,39.5024876 C47.539961,39.5024876 47.539961,39.2039801 47.8440546,39.2039801 C48.1481481,39.2039801 48.1481481,38.9054726 48.3508772,38.9054726 C48.6549708,38.9054726 48.8576998,38.7064677 48.8576998,38.7064677 C48.8576998,38.7064677 49.1617934,38.4079602 49.1617934,38.4079602 C49.3645224,38.2089552 49.668616,38.2089552 49.668616,37.9104478 C52.5068226,35.1243781 52.5068226,30.5472637 49.668616,27.761194 C48.1481481,26.1691542 46.3235867,25.6716418 44.4990253,25.6716418 C43.9922027,25.6716418 43.4853801,25.6716418 42.877193,25.9701493 C40.3430799,26.4676617 38.214425,28.2587065 37.5048733,30.8457711 L9.9337232,30.8457711 L9.9337232,24.9751244 L14.5964912,24.9751244 L14.5964912,24.6766169 Z M41.6608187,35.920398 C40.0389864,34.3283582 40.0389864,31.5422886 41.6608187,30.0497512 C43.1812865,28.4577114 46.0194932,28.4577114 47.539961,30.0497512 C49.1617934,31.5422886 49.1617934,34.3283582 47.539961,35.920398 C46.0194932,37.4129353 43.1812865,37.4129353 41.6608187,35.920398 Z" id="Shape"></path>
        </g>
    </g>
</svg>