<?xml version="1.0" encoding="UTF-8"?>
<svg width="64px" height="64px" viewBox="0 0 64 64" version="1.1" xmlns="http://www.w3.org/2000/svg" xmlns:xlink="http://www.w3.org/1999/xlink">
    <!-- Generator: Sketch 52.6 (67491) - http://www.bohemiancoding.com/sketch -->
    <title>structure-parallel-join</title>
    <desc>Created with Sketch.</desc>
    <g id="structure-parallel-join" stroke="none" stroke-width="1" fill="none" fill-rule="evenodd">
        <g id="icon-structure-parallel-join" transform="translate(12.000000, 6.000000)" fill="#000000" fill-rule="nonzero">
            <path d="M27.6237624,39.3294347 C27.3267327,39.5321637 27.3267327,39.8362573 27.1287129,39.8362573 C27.1287129,39.8362573 26.8316832,40.0389864 26.8316832,40.0389864 C26.6336634,40.3430799 26.6336634,40.3430799 26.6336634,40.545809 C26.6336634,40.8499025 26.3366337,40.8499025 26.3366337,41.0526316 C26.3366337,41.3567251 26.039604,41.3567251 26.039604,41.6608187 C26.039604,41.8635478 25.8415842,42.1676413 25.8415842,42.3703704 C25.8415842,42.6744639 25.8415842,42.877193 25.5445545,43.1812865 C25.5445545,43.4853801 25.5445545,43.6881092 25.5445545,44.1949318 C25.5445545,44.4990253 25.5445545,44.4990253 25.5445545,44.7017544 C25.5445545,45.005848 25.5445545,45.5126706 25.5445545,45.8167641 C25.5445545,45.8167641 25.5445545,46.0194932 25.5445545,46.0194932 C26.3366337,49.3645224 29.1089109,52 32.6732673,52 C36.2376238,52 39.009901,49.3645224 39.8019802,46.0194932 C39.8019802,45.5126706 40,45.005848 40,44.4990253 C40,42.6744639 39.3069307,40.545809 38.019802,39.3294347 C37.2277228,38.5185185 36.7326733,38.214425 35.7425743,37.7076023 L35.7425743,14.0896686 C37.7227723,13.0760234 39.3069307,11.251462 39.8019802,8.92007797 C39.8019802,8.41325536 40,7.90643275 40,7.39961014 C40,5.57504873 39.3069307,3.44639376 38.019802,2.12865497 C35.2475248,-0.709551657 30.6930693,-0.709551657 27.8217822,2.12865497 C27.3267327,2.43274854 27.1287129,2.73684211 27.1287129,2.73684211 C27.1287129,2.73684211 26.8316832,2.93957115 26.8316832,2.93957115 C26.6336634,3.24366472 26.6336634,3.24366472 26.6336634,3.44639376 C26.6336634,3.75048733 26.3366337,3.75048733 26.3366337,3.95321637 C26.3366337,4.25730994 26.039604,4.25730994 26.039604,4.56140351 C26.039604,4.76413255 25.8415842,5.06822612 25.8415842,5.27095517 C25.8415842,5.57504873 25.8415842,5.77777778 25.5445545,6.08187135 C25.5445545,6.28460039 25.5445545,6.58869396 25.5445545,7.09551657 C25.5445545,7.39961014 25.5445545,7.39961014 25.5445545,7.60233918 C25.5445545,7.90643275 25.5445545,8.41325536 25.5445545,8.61598441 C25.5445545,8.61598441 25.5445545,8.92007797 25.5445545,8.92007797 C26.039604,11.5555556 27.8217822,13.380117 30.0990099,14.3937622 L30.0990099,37.7076023 C29.1089109,38.0116959 28.3168317,38.5185185 27.6237624,39.3294347 Z M35.7425743,47.539961 C34.1584158,49.1617934 31.3861386,49.1617934 29.9009901,47.539961 C28.3168317,46.0194932 28.3168317,43.1812865 29.9009901,41.6608187 C31.3861386,40.0389864 34.1584158,40.0389864 35.7425743,41.6608187 C37.2277228,43.1812865 37.2277228,46.0194932 35.7425743,47.539961 Z M29.6039604,4.56140351 C31.1881188,2.93957115 33.960396,2.93957115 35.4455446,4.56140351 C37.029703,6.08187135 37.029703,8.92007797 35.4455446,10.4405458 C33.960396,12.0623782 31.1881188,12.0623782 29.6039604,10.4405458 C28.1188119,8.61598441 28.1188119,6.08187135 29.6039604,4.56140351 Z M0.198019802,7.60233918 C0.198019802,7.90643275 0.198019802,8.41325536 0.198019802,8.61598441 C0.198019802,8.61598441 0.198019802,8.92007797 0.198019802,8.92007797 C0.693069307,11.251462 2.47524752,13.380117 4.55445545,14.0896686 L4.55445545,47.0331384 L15.4455446,47.0331384 L15.4455446,52 L25.3465347,44.7017544 L15.4455446,37.5048733 L15.4455446,42.1676413 L9.6039604,42.1676413 L9.6039604,14.3937622 C11.8811881,13.582846 13.960396,11.5555556 14.4554455,8.92007797 C14.4554455,8.41325536 14.6534653,7.90643275 14.6534653,7.39961014 C14.6534653,5.57504873 13.960396,3.44639376 12.6732673,2.12865497 C9.9009901,-0.709551657 5.34653465,-0.709551657 2.47524752,2.12865497 C1.98019802,2.43274854 1.78217822,2.73684211 1.78217822,2.93957115 C1.78217822,2.93957115 1.48514851,3.24366472 1.48514851,3.24366472 C1.28712871,3.24366472 1.28712871,3.44639376 0.99009901,3.75048733 C0.99009901,3.95321637 0.693069307,3.95321637 0.693069307,4.25730994 C0.693069307,4.56140351 0.495049505,4.56140351 0.495049505,4.76413255 C0.495049505,5.06822612 0.198019802,5.27095517 0.198019802,5.57504873 C0.198019802,5.77777778 0.198019802,6.08187135 0,6.28460039 C0,6.58869396 0,6.89278752 0,7.39961014 C0,7.39961014 0,7.60233918 0.198019802,7.60233918 Z M4.25742574,4.56140351 C6.03960396,2.73684211 8.61386139,2.73684211 10.3960396,4.56140351 C11.8811881,6.08187135 11.8811881,8.92007797 10.3960396,10.4405458 C8.61386139,12.0623782 6.03960396,12.0623782 4.25742574,10.4405458 C2.77227723,8.92007797 2.77227723,6.08187135 4.25742574,4.56140351 Z" id="Shape"></path>
        </g>
    </g>
</svg>