<?xml version="1.0" encoding="UTF-8"?>
<svg width="64px" height="64px" viewBox="0 0 64 64" version="1.1" xmlns="http://www.w3.org/2000/svg" xmlns:xlink="http://www.w3.org/1999/xlink">
    <!-- Generator: Sketch 52.6 (67491) - http://www.bohemiancoding.com/sketch -->
    <title>structure-tree</title>
    <desc>Created with Sketch.</desc>
    <g id="structure-tree" stroke="none" stroke-width="1" fill="none" fill-rule="evenodd">
        <g id="icon-structure-tree" transform="translate(6.000000, 6.000000)" fill="#000000" fill-rule="nonzero">
            <path d="M47.6750484,39.3046875 L47.6750484,32.8046875 C47.6750484,27.3203125 43.2495164,23.15625 38.1199226,23.15625 L32.688588,23.15625 C30.3752418,23.15625 28.5647969,21.328125 28.5647969,18.9921875 L28.5647969,12.6953125 C30.8781431,11.6796875 32.4874275,9.34375 32.4874275,6.8046875 C32.4874275,2.84375 29.3694391,0 25.7485493,0 C22.1276596,0 19.0096712,2.84375 19.0096712,6.8046875 C19.0096712,9.34375 20.6189555,11.6796875 22.9323017,12.6953125 L22.9323017,19.1953125 C22.9323017,21.53125 21.1218569,23.359375 18.8085106,23.359375 L13.377176,23.359375 C7.94584139,23.359375 3.82205029,27.828125 3.82205029,33.0078125 L3.82205029,39.5078125 C1.50870406,40.3203125 0,42.65625 0,45.1953125 C0,49.15625 2.81624758,52 6.73887814,52 C10.2591876,52 13.377176,49.15625 13.377176,45.1953125 C13.377176,42.65625 11.868472,40.3203125 9.55512573,39.3046875 L9.55512573,32.8046875 C9.55512573,30.46875 11.3655706,28.640625 13.6789168,28.640625 L19.0096712,28.640625 C20.6189555,28.640625 21.926499,28.3359375 23.1334623,27.5234375 L23.1334623,39 C20.8201161,40.015625 19.311412,42.3515625 19.311412,44.9921875 C19.311412,48.6484375 22.1276596,51.6953125 26.0502901,51.6953125 C29.5705996,51.6953125 32.688588,48.8515625 32.688588,44.9921875 C32.688588,42.3515625 31.1798839,40.015625 28.8665377,39 L28.8665377,27.5234375 C30.1740812,28.03125 31.3810445,28.640625 32.9903288,28.640625 L38.3210832,28.640625 C40.6344294,28.640625 42.4448743,30.46875 42.4448743,32.8046875 L42.4448743,39.3046875 C40.131528,40.3203125 38.622824,42.65625 38.622824,45.1953125 C38.622824,48.8515625 41.4390716,52 45.3617021,52 C48.8820116,52 52,49.15625 52,45.1953125 C51.4970986,42.65625 49.9883946,40.3203125 47.6750484,39.3046875 Z M25.7485493,2.84375 C27.7601547,2.84375 29.5705996,4.671875 29.5705996,6.8046875 C29.5705996,8.8359375 27.7601547,10.359375 25.7485493,10.359375 C23.7369439,10.359375 21.926499,8.8359375 21.926499,6.8046875 C21.926499,4.46875 23.7369439,2.84375 25.7485493,2.84375 Z M6.73887814,49.15625 C4.62669246,49.15625 2.81624758,47.328125 2.81624758,45.1953125 C2.81624758,43.1640625 4.62669246,41.3359375 6.73887814,41.3359375 C8.75048356,41.640625 10.2591876,43.1640625 10.2591876,45.1953125 C10.2591876,47.53125 8.75048356,49.15625 6.73887814,49.15625 Z M25.7485493,49.15625 C23.7369439,49.15625 21.926499,47.328125 21.926499,45.1953125 C21.926499,43.1640625 23.7369439,41.3359375 25.7485493,41.3359375 C27.7601547,41.3359375 29.5705996,43.1640625 29.5705996,45.1953125 C29.5705996,47.53125 27.7601547,49.15625 25.7485493,49.15625 Z M44.7582205,49.15625 C42.7466151,49.15625 40.9361702,47.328125 40.9361702,45.1953125 C40.9361702,43.1640625 42.7466151,41.3359375 44.7582205,41.3359375 C46.8704062,41.3359375 48.6808511,43.1640625 48.6808511,45.1953125 C48.6808511,47.53125 47.0715667,49.15625 44.7582205,49.15625 Z" id="Shape"></path>
        </g>
    </g>
</svg>