<?xml version="1.0" encoding="UTF-8"?>
<svg width="64px" height="64px" viewBox="0 0 64 64" version="1.1" xmlns="http://www.w3.org/2000/svg" xmlns:xlink="http://www.w3.org/1999/xlink">
    <!-- Generator: Sketch 52.6 (67491) - http://www.bohemiancoding.com/sketch -->
    <title>structure-parent</title>
    <desc>Created with Sketch.</desc>
    <g id="structure-parent" stroke="none" stroke-width="1" fill="none" fill-rule="evenodd">
        <g id="icon-structure-parent" transform="translate(6.000000, 6.000000)" fill="#000000" fill-rule="nonzero">
            <path d="M43.5897436,0 C38.5641026,0 34.6666667,3.8974359 34.6666667,8.92307692 C34.6666667,12.3076923 36.5128205,15.1794872 39.3846154,16.8205128 L30.4615385,35.4871795 C29.1282051,34.8717949 27.7948718,34.3589744 26.5641026,34.3589744 C25.2307692,34.3589744 23.8974359,34.6666667 22.8717949,35.1794872 L13.6410256,16.8205128 C16.3076923,15.1794872 18.3589744,12.3076923 18.3589744,8.92307692 C18.1538462,3.8974359 13.9487179,0 8.92307692,0 C3.8974359,0 0,3.8974359 0,8.92307692 C0,13.9487179 3.8974359,17.8461538 8.92307692,17.8461538 C9.74358974,17.8461538 10.2564103,17.8461538 10.7692308,17.6410256 L20.2051282,36.2051282 C18.1538462,37.8461538 17.025641,40.4102564 17.025641,43.0769231 C17.025641,48 21.025641,52 25.9487179,52 C30.974359,52 34.8717949,48 34.8717949,43.0769231 C34.8717949,40.4102564 33.8461538,38.0512821 32,36.5128205 L41.2307692,17.6410256 C41.7435897,17.6410256 42.5641026,17.8461538 43.0769231,17.8461538 C48,17.8461538 52,13.9487179 52,8.92307692 C52,3.8974359 48.6153846,0 43.5897436,0 Z M26.2564103,49.3333333 C23.0769231,49.3333333 20.5128205,46.7692308 20.5128205,43.5897436 C20.5128205,41.4358974 21.7435897,39.3846154 23.5897436,38.5641026 L24.2051282,38.3589744 C24.9230769,38.0512821 25.7435897,37.8461538 26.5641026,37.8461538 C29.6410256,37.8461538 32.3076923,40.4102564 32.3076923,43.5897436 C32,46.7692308 29.4358974,49.3333333 26.2564103,49.3333333 Z" id="Shape"></path>
        </g>
    </g>
</svg>