<?xml version="1.0" encoding="UTF-8"?>
<svg width="64px" height="64px" viewBox="0 0 64 64" version="1.1" xmlns="http://www.w3.org/2000/svg" xmlns:xlink="http://www.w3.org/1999/xlink">
    <!-- Generator: Sketch 52.6 (67491) - http://www.bohemiancoding.com/sketch -->
    <title>structure-exchange-vertical</title>
    <desc>Created with Sketch.</desc>
    <g id="structure-exchange-vertical" stroke="none" stroke-width="1" fill="none" fill-rule="evenodd">
        <g id="icon-structure-exchange-vertical" transform="translate(12.000000, 6.000000)" fill="#000000" fill-rule="nonzero">
            <path d="M40,44.4124514 C40,44.1089494 40,43.6031128 40,43.4007782 C40,43.4007782 40,43.0972763 40,43.0972763 C39.5049505,40.770428 37.7227723,38.6459144 35.7425743,37.9377432 L35.7425743,4.75486381 L24.8514851,4.75486381 L24.8514851,0.101167315 L14.6534653,7.38521401 L24.5544554,14.5680934 L24.5544554,9.91439689 L30.3960396,9.91439689 L30.3960396,37.6342412 C28.1188119,38.4435798 26.039604,40.4669261 25.5445545,43.0972763 C25.5445545,43.6031128 25.3465347,44.1089494 25.3465347,44.614786 C25.3465347,46.4357977 26.039604,48.5603113 27.3267327,49.8754864 C30.0990099,52.7081712 34.6534653,52.7081712 37.5247525,49.8754864 C37.7227723,49.5719844 37.7227723,49.2684825 38.019802,49.2684825 C38.019802,49.2684825 38.2178218,49.0661479 38.2178218,49.0661479 C38.5148515,48.7626459 38.5148515,48.7626459 38.5148515,48.5603113 C38.5148515,48.2568093 38.7128713,48.2568093 38.7128713,48.0544747 C38.7128713,47.7509728 39.009901,47.7509728 39.009901,47.4474708 C39.009901,47.2451362 39.3069307,46.9416342 39.3069307,46.7392996 C39.3069307,46.4357977 39.3069307,46.233463 39.5049505,45.9299611 C39.5049505,45.7276265 39.5049505,45.4241245 39.5049505,44.9182879 C40,44.614786 40,44.4124514 40,44.4124514 Z M35.7425743,47.4474708 C34.1584158,49.0661479 31.3861386,49.0661479 29.9009901,47.4474708 C28.3168317,45.9299611 28.3168317,43.0972763 29.9009901,41.5797665 C31.3861386,39.9610895 34.1584158,39.9610895 35.7425743,41.5797665 C37.2277228,43.0972763 37.2277228,45.9299611 35.7425743,47.4474708 Z M15.4455446,42.0856031 L9.6039604,42.0856031 L9.6039604,14.3657588 C11.8811881,13.5564202 13.960396,11.5330739 14.4554455,8.90272374 C14.4554455,8.39688716 14.6534653,7.89105058 14.6534653,7.38521401 C14.6534653,5.56420233 13.960396,3.43968872 12.6732673,2.12451362 C9.9009901,-0.708171206 5.34653465,-0.708171206 2.47524752,2.12451362 C1.98019802,2.42801556 1.78217822,2.73151751 1.78217822,2.73151751 C1.78217822,2.73151751 1.48514851,2.93385214 1.48514851,2.93385214 C1.28712871,3.23735409 1.28712871,3.43968872 0.99009901,3.74319066 C0.99009901,3.94552529 0.693069307,3.94552529 0.693069307,4.24902724 C0.693069307,4.55252918 0.495049505,4.55252918 0.495049505,4.75486381 C0.495049505,5.05836576 0.198019802,5.26070039 0.198019802,5.56420233 C0.198019802,5.76653696 0.198019802,6.07003891 0,6.27237354 C0,6.57587549 0,6.87937743 0,7.38521401 C0,7.58754864 0,7.58754864 0,7.89105058 C0,8.09338521 0,8.59922179 0,8.90272374 C0,8.90272374 0,9.20622568 0,9.20622568 C0.495049505,11.5330739 2.27722772,13.5564202 4.25742574,14.3657588 L4.25742574,47.2451362 L15.1485149,47.2451362 L15.1485149,51.8988327 L25.049505,44.614786 L15.1485149,37.4319066 L15.1485149,42.0856031 L15.4455446,42.0856031 Z M4.25742574,4.55252918 C6.03960396,2.73151751 8.61386139,2.73151751 10.0990099,4.55252918 C11.6831683,6.07003891 11.6831683,8.90272374 10.0990099,10.4202335 C8.61386139,12.0389105 6.03960396,12.0389105 4.25742574,10.4202335 C2.77227723,8.90272374 2.77227723,6.07003891 4.25742574,4.55252918 Z M40,44.4124514 C40,44.1089494 40,43.6031128 40,43.4007782 C40,43.4007782 40,43.0972763 40,43.0972763 C39.5049505,40.770428 37.7227723,38.6459144 35.7425743,37.9377432 L35.7425743,4.75486381 L24.8514851,4.75486381 L24.8514851,0.101167315 L14.6534653,7.38521401 L24.5544554,14.5680934 L24.5544554,9.91439689 L30.3960396,9.91439689 L30.3960396,37.6342412 C28.1188119,38.4435798 26.039604,40.4669261 25.5445545,43.0972763 C25.5445545,43.6031128 25.3465347,44.1089494 25.3465347,44.614786 C25.3465347,46.4357977 26.039604,48.5603113 27.3267327,49.8754864 C30.0990099,52.7081712 34.6534653,52.7081712 37.5247525,49.8754864 C37.7227723,49.5719844 37.7227723,49.2684825 38.019802,49.2684825 C38.019802,49.2684825 38.2178218,49.0661479 38.2178218,49.0661479 C38.5148515,48.7626459 38.5148515,48.7626459 38.5148515,48.5603113 C38.5148515,48.2568093 38.7128713,48.2568093 38.7128713,48.0544747 C38.7128713,47.7509728 39.009901,47.7509728 39.009901,47.4474708 C39.009901,47.2451362 39.3069307,46.9416342 39.3069307,46.7392996 C39.3069307,46.4357977 39.3069307,46.233463 39.5049505,45.9299611 C39.5049505,45.7276265 39.5049505,45.4241245 39.5049505,44.9182879 C40,44.614786 40,44.4124514 40,44.4124514 Z M35.7425743,47.4474708 C34.1584158,49.0661479 31.3861386,49.0661479 29.9009901,47.4474708 C28.3168317,45.9299611 28.3168317,43.0972763 29.9009901,41.5797665 C31.3861386,39.9610895 34.1584158,39.9610895 35.7425743,41.5797665 C37.2277228,43.0972763 37.2277228,45.9299611 35.7425743,47.4474708 Z M15.4455446,42.0856031 L9.6039604,42.0856031 L9.6039604,14.3657588 C11.8811881,13.5564202 13.960396,11.5330739 14.4554455,8.90272374 C14.4554455,8.39688716 14.6534653,7.89105058 14.6534653,7.38521401 C14.6534653,5.56420233 13.960396,3.43968872 12.6732673,2.12451362 C9.9009901,-0.708171206 5.34653465,-0.708171206 2.47524752,2.12451362 C1.98019802,2.42801556 1.78217822,2.73151751 1.78217822,2.73151751 C1.78217822,2.73151751 1.48514851,2.93385214 1.48514851,2.93385214 C1.28712871,3.23735409 1.28712871,3.43968872 0.99009901,3.74319066 C0.99009901,3.94552529 0.693069307,3.94552529 0.693069307,4.24902724 C0.693069307,4.55252918 0.495049505,4.55252918 0.495049505,4.75486381 C0.495049505,5.05836576 0.198019802,5.26070039 0.198019802,5.56420233 C0.198019802,5.76653696 0.198019802,6.07003891 0,6.27237354 C0,6.57587549 0,6.87937743 0,7.38521401 C0,7.58754864 0,7.58754864 0,7.89105058 C0,8.09338521 0,8.59922179 0,8.90272374 C0,8.90272374 0,9.20622568 0,9.20622568 C0.495049505,11.5330739 2.27722772,13.5564202 4.25742574,14.3657588 L4.25742574,47.2451362 L15.1485149,47.2451362 L15.1485149,51.8988327 L25.049505,44.614786 L15.1485149,37.4319066 L15.1485149,42.0856031 L15.4455446,42.0856031 Z M4.25742574,4.55252918 C6.03960396,2.73151751 8.61386139,2.73151751 10.0990099,4.55252918 C11.6831683,6.07003891 11.6831683,8.90272374 10.0990099,10.4202335 C8.61386139,12.0389105 6.03960396,12.0389105 4.25742574,10.4202335 C2.77227723,8.90272374 2.77227723,6.07003891 4.25742574,4.55252918 Z M40,44.4124514 C40,44.1089494 40,43.6031128 40,43.4007782 C40,43.4007782 40,43.0972763 40,43.0972763 C39.5049505,40.770428 37.7227723,38.6459144 35.7425743,37.9377432 L35.7425743,4.75486381 L24.8514851,4.75486381 L24.8514851,0.101167315 L14.6534653,7.38521401 L24.5544554,14.5680934 L24.5544554,9.91439689 L30.3960396,9.91439689 L30.3960396,37.6342412 C28.1188119,38.4435798 26.039604,40.4669261 25.5445545,43.0972763 C25.5445545,43.6031128 25.3465347,44.1089494 25.3465347,44.614786 C25.3465347,46.4357977 26.039604,48.5603113 27.3267327,49.8754864 C30.0990099,52.7081712 34.6534653,52.7081712 37.5247525,49.8754864 C37.7227723,49.5719844 37.7227723,49.2684825 38.019802,49.2684825 C38.019802,49.2684825 38.2178218,49.0661479 38.2178218,49.0661479 C38.5148515,48.7626459 38.5148515,48.7626459 38.5148515,48.5603113 C38.5148515,48.2568093 38.7128713,48.2568093 38.7128713,48.0544747 C38.7128713,47.7509728 39.009901,47.7509728 39.009901,47.4474708 C39.009901,47.2451362 39.3069307,46.9416342 39.3069307,46.7392996 C39.3069307,46.4357977 39.3069307,46.233463 39.5049505,45.9299611 C39.5049505,45.7276265 39.5049505,45.4241245 39.5049505,44.9182879 C40,44.614786 40,44.4124514 40,44.4124514 Z M35.7425743,47.4474708 C34.1584158,49.0661479 31.3861386,49.0661479 29.9009901,47.4474708 C28.3168317,45.9299611 28.3168317,43.0972763 29.9009901,41.5797665 C31.3861386,39.9610895 34.1584158,39.9610895 35.7425743,41.5797665 C37.2277228,43.0972763 37.2277228,45.9299611 35.7425743,47.4474708 Z M15.4455446,42.0856031 L9.6039604,42.0856031 L9.6039604,14.3657588 C11.8811881,13.5564202 13.960396,11.5330739 14.4554455,8.90272374 C14.4554455,8.39688716 14.6534653,7.89105058 14.6534653,7.38521401 C14.6534653,5.56420233 13.960396,3.43968872 12.6732673,2.12451362 C9.9009901,-0.708171206 5.34653465,-0.708171206 2.47524752,2.12451362 C1.98019802,2.42801556 1.78217822,2.73151751 1.78217822,2.73151751 C1.78217822,2.73151751 1.48514851,2.93385214 1.48514851,2.93385214 C1.28712871,3.23735409 1.28712871,3.43968872 0.99009901,3.74319066 C0.99009901,3.94552529 0.693069307,3.94552529 0.693069307,4.24902724 C0.693069307,4.55252918 0.495049505,4.55252918 0.495049505,4.75486381 C0.495049505,5.05836576 0.198019802,5.26070039 0.198019802,5.56420233 C0.198019802,5.76653696 0.198019802,6.07003891 0,6.27237354 C0,6.57587549 0,6.87937743 0,7.38521401 C0,7.58754864 0,7.58754864 0,7.89105058 C0,8.09338521 0,8.59922179 0,8.90272374 C0,8.90272374 0,9.20622568 0,9.20622568 C0.495049505,11.5330739 2.27722772,13.5564202 4.25742574,14.3657588 L4.25742574,47.2451362 L15.1485149,47.2451362 L15.1485149,51.8988327 L25.049505,44.614786 L15.1485149,37.4319066 L15.1485149,42.0856031 L15.4455446,42.0856031 Z M4.25742574,4.55252918 C6.03960396,2.73151751 8.61386139,2.73151751 10.0990099,4.55252918 C11.6831683,6.07003891 11.6831683,8.90272374 10.0990099,10.4202335 C8.61386139,12.0389105 6.03960396,12.0389105 4.25742574,10.4202335 C2.77227723,8.90272374 2.77227723,6.07003891 4.25742574,4.55252918 Z M40,44.4124514 C40,44.1089494 40,43.6031128 40,43.4007782 C40,43.4007782 40,43.0972763 40,43.0972763 C39.5049505,40.770428 37.7227723,38.6459144 35.7425743,37.9377432 L35.7425743,4.75486381 L24.8514851,4.75486381 L24.8514851,0.101167315 L14.6534653,7.38521401 L24.5544554,14.5680934 L24.5544554,9.91439689 L30.3960396,9.91439689 L30.3960396,37.6342412 C28.1188119,38.4435798 26.039604,40.4669261 25.5445545,43.0972763 C25.5445545,43.6031128 25.3465347,44.1089494 25.3465347,44.614786 C25.3465347,46.4357977 26.039604,48.5603113 27.3267327,49.8754864 C30.0990099,52.7081712 34.6534653,52.7081712 37.5247525,49.8754864 C37.7227723,49.5719844 37.7227723,49.2684825 38.019802,49.2684825 C38.019802,49.2684825 38.2178218,49.0661479 38.2178218,49.0661479 C38.5148515,48.7626459 38.5148515,48.7626459 38.5148515,48.5603113 C38.5148515,48.2568093 38.7128713,48.2568093 38.7128713,48.0544747 C38.7128713,47.7509728 39.009901,47.7509728 39.009901,47.4474708 C39.009901,47.2451362 39.3069307,46.9416342 39.3069307,46.7392996 C39.3069307,46.4357977 39.3069307,46.233463 39.5049505,45.9299611 C39.5049505,45.7276265 39.5049505,45.4241245 39.5049505,44.9182879 C40,44.614786 40,44.4124514 40,44.4124514 Z M35.7425743,47.4474708 C34.1584158,49.0661479 31.3861386,49.0661479 29.9009901,47.4474708 C28.3168317,45.9299611 28.3168317,43.0972763 29.9009901,41.5797665 C31.3861386,39.9610895 34.1584158,39.9610895 35.7425743,41.5797665 C37.2277228,43.0972763 37.2277228,45.9299611 35.7425743,47.4474708 Z M15.4455446,42.0856031 L9.6039604,42.0856031 L9.6039604,14.3657588 C11.8811881,13.5564202 13.960396,11.5330739 14.4554455,8.90272374 C14.4554455,8.39688716 14.6534653,7.89105058 14.6534653,7.38521401 C14.6534653,5.56420233 13.960396,3.43968872 12.6732673,2.12451362 C9.9009901,-0.708171206 5.34653465,-0.708171206 2.47524752,2.12451362 C1.98019802,2.42801556 1.78217822,2.73151751 1.78217822,2.73151751 C1.78217822,2.73151751 1.48514851,2.93385214 1.48514851,2.93385214 C1.28712871,3.23735409 1.28712871,3.43968872 0.99009901,3.74319066 C0.99009901,3.94552529 0.693069307,3.94552529 0.693069307,4.24902724 C0.693069307,4.55252918 0.495049505,4.55252918 0.495049505,4.75486381 C0.495049505,5.05836576 0.198019802,5.26070039 0.198019802,5.56420233 C0.198019802,5.76653696 0.198019802,6.07003891 0,6.27237354 C0,6.57587549 0,6.87937743 0,7.38521401 C0,7.58754864 0,7.58754864 0,7.89105058 C0,8.09338521 0,8.59922179 0,8.90272374 C0,8.90272374 0,9.20622568 0,9.20622568 C0.495049505,11.5330739 2.27722772,13.5564202 4.25742574,14.3657588 L4.25742574,47.2451362 L15.1485149,47.2451362 L15.1485149,51.8988327 L25.049505,44.614786 L15.1485149,37.4319066 L15.1485149,42.0856031 L15.4455446,42.0856031 Z M4.25742574,4.55252918 C6.03960396,2.73151751 8.61386139,2.73151751 10.0990099,4.55252918 C11.6831683,6.07003891 11.6831683,8.90272374 10.0990099,10.4202335 C8.61386139,12.0389105 6.03960396,12.0389105 4.25742574,10.4202335 C2.77227723,8.90272374 2.77227723,6.07003891 4.25742574,4.55252918 Z M40,44.4124514 C40,44.1089494 40,43.6031128 40,43.4007782 C40,43.4007782 40,43.0972763 40,43.0972763 C39.5049505,40.770428 37.7227723,38.6459144 35.7425743,37.9377432 L35.7425743,4.75486381 L24.8514851,4.75486381 L24.8514851,0.101167315 L14.6534653,7.38521401 L24.5544554,14.5680934 L24.5544554,9.91439689 L30.3960396,9.91439689 L30.3960396,37.6342412 C28.1188119,38.4435798 26.039604,40.4669261 25.5445545,43.0972763 C25.5445545,43.6031128 25.3465347,44.1089494 25.3465347,44.614786 C25.3465347,46.4357977 26.039604,48.5603113 27.3267327,49.8754864 C30.0990099,52.7081712 34.6534653,52.7081712 37.5247525,49.8754864 C37.7227723,49.5719844 37.7227723,49.2684825 38.019802,49.2684825 C38.019802,49.2684825 38.2178218,49.0661479 38.2178218,49.0661479 C38.5148515,48.7626459 38.5148515,48.7626459 38.5148515,48.5603113 C38.5148515,48.2568093 38.7128713,48.2568093 38.7128713,48.0544747 C38.7128713,47.7509728 39.009901,47.7509728 39.009901,47.4474708 C39.009901,47.2451362 39.3069307,46.9416342 39.3069307,46.7392996 C39.3069307,46.4357977 39.3069307,46.233463 39.5049505,45.9299611 C39.5049505,45.7276265 39.5049505,45.4241245 39.5049505,44.9182879 C40,44.614786 40,44.4124514 40,44.4124514 Z M35.7425743,47.4474708 C34.1584158,49.0661479 31.3861386,49.0661479 29.9009901,47.4474708 C28.3168317,45.9299611 28.3168317,43.0972763 29.9009901,41.5797665 C31.3861386,39.9610895 34.1584158,39.9610895 35.7425743,41.5797665 C37.2277228,43.0972763 37.2277228,45.9299611 35.7425743,47.4474708 Z M15.4455446,42.0856031 L9.6039604,42.0856031 L9.6039604,14.3657588 C11.8811881,13.5564202 13.960396,11.5330739 14.4554455,8.90272374 C14.4554455,8.39688716 14.6534653,7.89105058 14.6534653,7.38521401 C14.6534653,5.56420233 13.960396,3.43968872 12.6732673,2.12451362 C9.9009901,-0.708171206 5.34653465,-0.708171206 2.47524752,2.12451362 C1.98019802,2.42801556 1.78217822,2.73151751 1.78217822,2.73151751 C1.78217822,2.73151751 1.48514851,2.93385214 1.48514851,2.93385214 C1.28712871,3.23735409 1.28712871,3.43968872 0.99009901,3.74319066 C0.99009901,3.94552529 0.693069307,3.94552529 0.693069307,4.24902724 C0.693069307,4.55252918 0.495049505,4.55252918 0.495049505,4.75486381 C0.495049505,5.05836576 0.198019802,5.26070039 0.198019802,5.56420233 C0.198019802,5.76653696 0.198019802,6.07003891 0,6.27237354 C0,6.57587549 0,6.87937743 0,7.38521401 C0,7.58754864 0,7.58754864 0,7.89105058 C0,8.09338521 0,8.59922179 0,8.90272374 C0,8.90272374 0,9.20622568 0,9.20622568 C0.495049505,11.5330739 2.27722772,13.5564202 4.25742574,14.3657588 L4.25742574,47.2451362 L15.1485149,47.2451362 L15.1485149,51.8988327 L25.049505,44.614786 L15.1485149,37.4319066 L15.1485149,42.0856031 L15.4455446,42.0856031 Z M4.25742574,4.55252918 C6.03960396,2.73151751 8.61386139,2.73151751 10.0990099,4.55252918 C11.6831683,6.07003891 11.6831683,8.90272374 10.0990099,10.4202335 C8.61386139,12.0389105 6.03960396,12.0389105 4.25742574,10.4202335 C2.77227723,8.90272374 2.77227723,6.07003891 4.25742574,4.55252918 Z" id="Shape"></path>
        </g>
    </g>
</svg>