<?xml version="1.0" encoding="UTF-8"?>
<svg width="64px" height="64px" viewBox="0 0 64 64" version="1.1" xmlns="http://www.w3.org/2000/svg" xmlns:xlink="http://www.w3.org/1999/xlink">
    <!-- Generator: Sketch 52.6 (67491) - http://www.bohemiancoding.com/sketch -->
    <title>structure-hierarchy</title>
    <desc>Created with Sketch.</desc>
    <g id="structure-hierarchy" stroke="none" stroke-width="1" fill="none" fill-rule="evenodd">
        <g id="icon-structure-hierarchy" transform="translate(15.000000, 6.000000)" fill="#000000" fill-rule="nonzero">
            <path d="M27.7471264,38.6953125 C25.2068966,38.6953125 22.9597701,40.3203125 21.9827586,42.65625 L12.9942529,42.65625 C10.7471264,42.65625 8.98850575,40.828125 8.98850575,38.4921875 L8.98850575,27.828125 C10.2586207,28.3359375 11.5287356,28.84375 12.9942529,28.84375 L21.7873563,28.84375 C22.7643678,31.1796875 25.0114943,32.8046875 27.5517241,32.8046875 C30.9712644,32.8046875 34,29.859375 34,26 C34,22.34375 31.2643678,19.1953125 27.5517241,19.1953125 C25.0114943,19.1953125 22.7643678,20.8203125 21.7873563,23.15625 L12.9942529,23.15625 C10.7471264,23.15625 8.98850575,21.328125 8.98850575,18.9921875 L8.98850575,12.6953125 C11.2356322,11.6796875 12.7011494,9.34375 12.7011494,6.8046875 C12.7011494,2.84375 9.96551724,0 6.25287356,0 C2.73563218,0 0,2.84375 0,6.8046875 C0,9.34375 1.46551724,11.6796875 3.71264368,12.6953125 L3.71264368,38.4921875 C3.71264368,43.9765625 8.01149425,48.140625 12.9942529,48.140625 L21.7873563,48.140625 C22.7643678,50.4765625 25.0114943,52 27.5517241,52 C30.9712644,52 34,49.15625 34,45.1953125 C34,41.3359375 31.2643678,38.6953125 27.7471264,38.6953125 Z M27.7471264,22.140625 C29.7988506,22.140625 31.4597701,23.96875 31.4597701,26 C31.4597701,28.03125 29.7988506,29.859375 27.7471264,29.859375 C25.7931034,29.859375 24.0344828,28.03125 24.0344828,26 C24.0344828,23.96875 25.5,22.140625 27.7471264,22.140625 Z M6.25287356,2.84375 C8.20689655,2.84375 9.96551724,4.671875 9.96551724,6.8046875 C9.96551724,8.8359375 8.5,10.359375 6.25287356,10.359375 C4.20114943,10.359375 2.73563218,8.8359375 2.73563218,6.8046875 C2.73563218,4.46875 4.20114943,2.84375 6.25287356,2.84375 Z M27.7471264,49.15625 C25.7931034,49.15625 24.0344828,47.328125 24.0344828,45.1953125 C24.0344828,43.1640625 25.7931034,41.3359375 27.7471264,41.3359375 C29.7988506,41.3359375 31.4597701,43.1640625 31.4597701,45.1953125 C31.2643678,47.53125 29.7988506,49.15625 27.7471264,49.15625 Z" id="Shape"></path>
        </g>
    </g>
</svg>