<?xml version="1.0" encoding="UTF-8"?>
<svg width="64px" height="64px" viewBox="0 0 64 64" version="1.1" xmlns="http://www.w3.org/2000/svg" xmlns:xlink="http://www.w3.org/1999/xlink">
    <!-- Generator: Sketch 52.6 (67491) - http://www.bohemiancoding.com/sketch -->
    <title>structure-parallel</title>
    <desc>Created with Sketch.</desc>
    <g id="structure-parallel" stroke="none" stroke-width="1" fill="none" fill-rule="evenodd">
        <g id="icon-structure-parallel" transform="translate(12.000000, 6.000000)" fill="#000000" fill-rule="nonzero">
            <path d="M15.0253807,7.77475728 C15.0253807,3.63495146 11.6751269,0.302912621 7.51269036,0.302912621 C3.35025381,0.302912621 0.203045685,3.63495146 0.203045685,7.77475728 C0.203045685,10.6019417 2.03045685,13.2271845 4.36548223,14.2368932 L4.36548223,37.7631068 C1.82741117,39.0757282 0,41.3980583 0,44.5281553 C0,48.6679612 3.35025381,52 7.51269036,52 C11.6751269,52 15.0253807,48.6679612 15.0253807,44.5281553 C15.0253807,41.3980583 13.1979695,39.0757282 10.6598985,37.7631068 L10.6598985,14.2368932 C13.1979695,13.2271845 15.0253807,10.6019417 15.0253807,7.77475728 Z M11.9796954,44.5281553 C11.9796954,46.8504854 10.1522843,48.6679612 7.81725888,48.6679612 C5.4822335,48.6679612 3.65482234,46.8504854 3.65482234,44.5281553 C3.65482234,42.2058252 5.4822335,40.3883495 7.81725888,40.3883495 C9.84771574,40.3883495 11.9796954,42.2058252 11.9796954,44.5281553 Z M7.51269036,11.9145631 C5.17766497,11.9145631 3.35025381,10.0970874 3.35025381,7.77475728 C3.35025381,5.45242718 5.17766497,3.63495146 7.51269036,3.63495146 C9.84771574,3.63495146 11.6751269,5.45242718 11.6751269,7.77475728 C11.9796954,10.0970874 9.84771574,11.9145631 7.51269036,11.9145631 Z M35.6345178,38.0660194 L35.6345178,14.2368932 C38.1725888,12.9242718 40,10.6019417 40,7.57281553 C40,3.43300971 36.6497462,0 32.4873096,0 C28.3248731,0 24.9746193,3.43300971 24.9746193,7.57281553 C24.9746193,10.6019417 26.8020305,12.9242718 29.3401015,14.2368932 L29.3401015,37.7631068 C26.8020305,39.0757282 24.9746193,41.3980583 24.9746193,44.5281553 C24.9746193,48.6679612 28.3248731,52 32.4873096,52 C36.6497462,52 40,48.6679612 40,44.5281553 C39.7969543,41.7009709 37.9695431,39.0757282 35.6345178,38.0660194 Z M28.0203046,7.77475728 C28.0203046,5.45242718 29.8477157,3.63495146 32.1827411,3.63495146 C34.5177665,3.63495146 36.3451777,5.45242718 36.3451777,7.77475728 C36.3451777,10.0970874 34.5177665,11.9145631 32.1827411,11.9145631 C30.1522843,11.9145631 28.0203046,10.0970874 28.0203046,7.77475728 Z M32.4873096,48.8699029 C30.1522843,48.8699029 28.3248731,47.0524272 28.3248731,44.7300971 C28.3248731,42.407767 30.1522843,40.5902913 32.4873096,40.5902913 C34.822335,40.5902913 36.6497462,42.407767 36.6497462,44.7300971 C36.6497462,47.0524272 34.822335,48.8699029 32.4873096,48.8699029 Z" id="Shape"></path>
        </g>
    </g>
</svg>