<?xml version="1.0" encoding="UTF-8"?>
<svg width="64px" height="64px" viewBox="0 0 64 64" version="1.1" xmlns="http://www.w3.org/2000/svg" xmlns:xlink="http://www.w3.org/1999/xlink">
    <!-- Generator: Sketch 52.6 (67491) - http://www.bohemiancoding.com/sketch -->
    <title>structure-branch</title>
    <desc>Created with Sketch.</desc>
    <g id="structure-branch" stroke="none" stroke-width="1" fill="none" fill-rule="evenodd">
        <path d="M22.726817,20.2722851 L22.726817,43.7277149 C25.2539319,44.9339797 27,47.5130818 27,50.5 C27,54.6421356 23.6421356,58 19.5,58 C15.3578644,58 12,54.6421356 12,50.5 C12,47.498293 13.7634011,44.9084504 16.3107769,43.7098987 L16.3107769,20.2901013 C13.7634011,19.0915496 12,16.501707 12,13.5 C12,9.35786438 15.3578644,6 19.5,6 C23.6421356,6 27,9.35786438 27,13.5 C27,16.4869182 25.2539319,19.0660203 22.726817,20.2722851 Z M22.6040321,20.3295316 C23.5438889,23.5580856 26.7951227,29.7897489 37.9744049,30.3005179 C39.263847,28.0309331 41.7031392,26.5 44.5,26.5 C48.6421356,26.5 52,29.8578644 52,34 C52,38.1421356 48.6421356,41.5 44.5,41.5 C41.6456658,41.5 39.1637466,39.9055013 37.8963771,37.5586383 C33.6076448,37.6066176 22.0250627,36.9974141 22.0250627,29.0165049 C22.0250627,24.5588998 22.0657516,22.008714 22.1104699,20.5332066 C22.2778944,20.4710406 22.4424967,20.4030674 22.6040321,20.3295316 Z M19.5,17.5 C21.709139,17.5 23.5,15.709139 23.5,13.5 C23.5,11.290861 21.709139,9.5 19.5,9.5 C17.290861,9.5 15.5,11.290861 15.5,13.5 C15.5,15.709139 17.290861,17.5 19.5,17.5 Z M19.5,54.5 C21.709139,54.5 23.5,52.709139 23.5,50.5 C23.5,48.290861 21.709139,46.5 19.5,46.5 C17.290861,46.5 15.5,48.290861 15.5,50.5 C15.5,52.709139 17.290861,54.5 19.5,54.5 Z M44.5,38 C46.709139,38 48.5,36.209139 48.5,34 C48.5,31.790861 46.709139,30 44.5,30 C42.290861,30 40.5,31.790861 40.5,34 C40.5,36.209139 42.290861,38 44.5,38 Z" fill="#000000" fill-rule="nonzero"></path>
    </g>
</svg>