<?xml version="1.0" encoding="UTF-8"?>
<svg width="64px" height="64px" viewBox="0 0 64 64" version="1.1" xmlns="http://www.w3.org/2000/svg" xmlns:xlink="http://www.w3.org/1999/xlink">
    <!-- Generator: Sketch 52.6 (67491) - http://www.bohemiancoding.com/sketch -->
    <title>system</title>
    <desc>Created with Sketch.</desc>
    <g id="system" stroke="none" stroke-width="1" fill="none" fill-rule="evenodd">
        <path d="M21.7029089,45.4776815 C24.308377,43.2576263 27.7979305,42 31.500039,42 C35.2021475,42 38.691701,43.2576263 41.2971691,45.4776815 C42.1379224,46.1940667 42.2387427,47.4563768 41.5223575,48.2971301 C40.8059723,49.1378833 39.5436622,49.2387036 38.7029089,48.5223185 C36.8287948,46.9254319 34.2609857,46 31.500039,46 C28.7390923,46 26.1712833,46.9254319 24.2971691,48.5223185 C23.4564158,49.2387036 22.1941057,49.1378833 21.4777205,48.2971301 C20.7613354,47.4563768 20.8621557,46.1940667 21.7029089,45.4776815 Z M15,33 C10.0294373,33 6,28.9705627 6,24 C6,19.0294373 10.0294373,15 15,15 C19.9705627,15 24,19.0294373 24,24 C24,28.9705627 19.9705627,33 15,33 Z M49,33 C44.0294373,33 40,28.9705627 40,24 C40,19.0294373 44.0294373,15 49,15 C53.9705627,15 58,19.0294373 58,24 C58,28.9705627 53.9705627,33 49,33 Z" fill="#000000" fill-rule="nonzero"></path>
    </g>
</svg>