<?xml version="1.0" encoding="UTF-8"?>
<svg width="64px" height="64px" viewBox="0 0 64 64" version="1.1" xmlns="http://www.w3.org/2000/svg" xmlns:xlink="http://www.w3.org/1999/xlink">
    <!-- Generator: Sketch 52.6 (67491) - http://www.bohemiancoding.com/sketch -->
    <title>system-404-alt</title>
    <desc>Created with Sketch.</desc>
    <g id="system-404-alt" stroke="none" stroke-width="1" fill="none" fill-rule="evenodd">
        <g id="Group" transform="translate(6.000000, 15.000000)" fill="#000000" fill-rule="nonzero">
            <path d="M13.6001177,25.8001177 L15.5001177,28.333451 L18.0001177,25.0001177 L23.5001177,25.0001177 L26.0001177,28.333451 L28.5001177,25.0001177 L34.0001177,25.0001177 L36.5001177,28.333451 L38.4001177,25.8001177 C39.0628594,24.9164621 40.3164621,24.737376 41.2001177,25.4001177 C42.0837733,26.0628594 42.2628594,27.3164621 41.6001177,28.2001177 L36.5001177,35.0001177 L32.0001177,29.0001177 L30.5001177,29.0001177 L26.0001177,35.0001177 L21.5001177,29.0001177 L20.0001177,29.0001177 L15.5001177,35.0001177 L10.4001177,28.2001177 C9.737376,27.3164621 9.9164621,26.0628594 10.8001177,25.4001177 C11.6837733,24.737376 12.937376,24.9164621 13.6001177,25.8001177 Z" id="system-404-alt"></path>
            <path d="M9,18 C4.02943725,18 0,13.9705627 0,9 C0,4.02943725 4.02943725,0 9,0 C13.9705627,0 18,4.02943725 18,9 C18,13.9705627 13.9705627,18 9,18 Z M43,18 C38.0294373,18 34,13.9705627 34,9 C34,4.02943725 38.0294373,0 43,0 C47.9705627,0 52,4.02943725 52,9 C52,13.9705627 47.9705627,18 43,18 Z" id="Combined-Shape"></path>
        </g>
    </g>
</svg>