<?xml version="1.0" encoding="UTF-8"?>
<svg width="64px" height="64px" viewBox="0 0 64 64" version="1.1" xmlns="http://www.w3.org/2000/svg" xmlns:xlink="http://www.w3.org/1999/xlink">
    <!-- Generator: Sketch 52.6 (67491) - http://www.bohemiancoding.com/sketch -->
    <title>system-webhook</title>
    <desc>Created with Sketch.</desc>
    <g id="system-webhook" stroke="none" stroke-width="1" fill="none" fill-rule="evenodd">
        <g id="icon-system-webhook" transform="translate(6.000000, 8.000000)" fill="#000000" fill-rule="nonzero">
            <path d="M33.8910506,37.1548117 C35.2062257,39.7656904 38.0389105,41.0711297 40.6692607,39.9665272 C43.5019455,39.2635983 45.0194553,36.3514644 44.311284,33.539749 C43.8054475,31.2301255 41.9844358,29.4225941 39.6575875,29.2217573 C37.0272374,28.9205021 34.7003891,30.2259414 33.688716,32.5355649 C33.688716,32.8368201 33.385214,32.8368201 33.1828794,32.8368201 C29.540856,32.8368201 26.2023346,32.8368201 22.5603113,32.8368201 C22.2568093,32.8368201 22.0544747,32.8368201 22.0544747,33.0376569 C22.0544747,34.041841 22.0544747,34.8451883 22.0544747,35.8493724 C21.2451362,41.2719665 16.2879377,44.5857741 11.1284047,43.58159 C6.77821012,42.7782427 3.64202335,38.9623431 3.64202335,34.6443515 C3.64202335,30.2259414 6.77821012,26.4100418 11.1284047,25.6066946 C11.4319066,25.6066946 11.4319066,25.3054393 11.4319066,25.1046025 C11.1284047,24.1004184 10.92607,22.9958159 10.92607,22.292887 C10.92607,21.9916318 10.6225681,21.9916318 10.3190661,21.9916318 C4.45136187,23.2970711 0,28.41841 0,34.8451883 C0,35.3472803 0,35.8493724 0,36.3514644 C1.01167315,43.0794979 6.98054475,48 13.7587549,47.4979079 C19.7276265,46.8953975 24.5836576,42.5774059 25.5953307,36.9539749 C25.5953307,36.6527197 25.8988327,36.6527197 26.2023346,36.6527197 C28.5291829,36.6527197 30.8560311,36.6527197 32.8793774,36.6527197 C33.385214,36.6527197 33.688716,36.6527197 33.8910506,37.1548117 Z M51.7976654,33.0376569 C50.4824903,24.8033473 42.1867704,19.9832636 34.3968872,22.7949791 C34.1945525,22.7949791 34.1945525,22.7949791 33.8910506,22.4937238 C32.6770428,20.6861925 31.5642023,18.6778243 30.3501946,16.8702929 C30.0466926,16.5690377 30.0466926,16.5690377 30.3501946,16.3682008 C31.5642023,14.5606695 31.8677043,12.4518828 31.0583658,10.4435146 C30.0466926,8.33472803 28.2256809,7.33054393 26.2023346,7.33054393 C23.0661479,7.33054393 20.4357977,9.94142259 20.4357977,12.9539749 C20.4357977,16.3682008 23.2684825,18.6778243 26.4046693,18.376569 C26.7081712,18.376569 26.7081712,18.376569 26.9105058,18.6778243 C27.4163424,19.3807531 27.7198444,20.1841004 28.2256809,20.6861925 C29.540856,22.9958159 31.0583658,25.3054393 32.3735409,27.4142259 C32.6770428,27.6150628 32.6770428,27.6150628 32.8793774,27.6150628 C33.385214,27.4142259 33.8910506,27.1129707 34.1945525,26.9121339 C36.0155642,25.8075314 37.8365759,25.6066946 39.8599222,25.8075314 C45.6264591,26.6108787 49.1673152,32.2343096 47.3463035,37.6569038 C45.3229572,44.3849372 36.8249027,46.1924686 31.8677043,41.2719665 C31.5642023,41.0711297 31.5642023,41.0711297 31.3618677,41.2719665 C30.5525292,42.0753138 29.7431907,42.5774059 29.2373541,43.3807531 C29.0350195,43.58159 29.0350195,43.58159 29.2373541,43.8828452 C31.8677043,46.3933054 35.0038911,47.6987448 38.5447471,48 C39.3540856,48 40.1634241,48 40.8715953,47.6987448 C48.155642,46.3933054 52.8093385,39.7656904 51.7976654,33.0376569 Z M17.0972763,22.7949791 C15.7821012,24.8033473 14.770428,27.1129707 13.7587549,29.2217573 C13.7587549,29.4225941 13.4552529,29.4225941 13.2529183,29.4225941 C9.61089494,29.2217573 6.47470817,32.5355649 7.28404669,36.1506276 C7.78988327,38.460251 9.61089494,39.9665272 11.9377432,40.4686192 C14.2645914,40.7698745 16.5914397,39.7656904 17.6031128,37.6569038 C18.614786,35.6485356 18.614786,33.3389121 17.0972763,31.5313808 C16.7937743,31.2301255 16.7937743,31.0292887 17.0972763,30.7280335 C18.614786,27.916318 20.233463,24.8033473 22.0544747,21.9916318 C22.0544747,21.4895397 22.0544747,21.1882845 21.7509728,21.1882845 C21.4474708,20.9874477 20.9416342,20.4853556 20.7392996,20.1841004 C17.6031128,17.874477 16.2879377,15.0627615 16.7937743,11.4476987 C17.4007782,6.0251046 22.7626459,2.51046025 27.922179,3.71548117 C33.385214,5.0209205 36.2178988,10.4435146 34.7003891,15.5648536 C34.7003891,15.8661088 34.7003891,15.8661088 35.0038911,16.0669456 C36.0155642,16.3682008 36.8249027,16.5690377 37.8365759,17.0711297 C38.0389105,17.0711297 38.3424125,17.0711297 38.3424125,16.8702929 C38.848249,14.7615063 39.151751,12.7531381 38.848249,10.6443515 C37.8365759,4.51882845 32.0700389,-0.10041841 25.5953307,0.10041841 C24.8871595,0.10041841 24.077821,0.10041841 23.2684825,0.40167364 C17.4007782,1.20502092 13.2529183,6.32635983 12.9494163,12.251046 C12.6459144,16.0669456 14.2645914,19.3807531 17.0972763,22.292887 C17.0972763,22.292887 17.4007782,22.292887 17.0972763,22.7949791 Z" id="Shape"></path>
        </g>
    </g>
</svg>