<?xml version="1.0" encoding="UTF-8"?>
<svg width="64px" height="64px" viewBox="0 0 64 64" version="1.1" xmlns="http://www.w3.org/2000/svg" xmlns:xlink="http://www.w3.org/1999/xlink">
    <!-- Generator: Sketch 52.6 (67491) - http://www.bohemiancoding.com/sketch -->
    <title>system-success</title>
    <desc>Created with Sketch.</desc>
    <g id="system-success" stroke="none" stroke-width="1" fill="none" fill-rule="evenodd">
        <path d="M21,40 L43,40 C43,46.0751322 38.0751322,51 32,51 C25.9248678,51 21,46.0751322 21,40 Z M15,33 C10.0294373,33 6,28.9705627 6,24 C6,19.0294373 10.0294373,15 15,15 C19.9705627,15 24,19.0294373 24,24 C24,28.9705627 19.9705627,33 15,33 Z M49,33 C44.0294373,33 40,28.9705627 40,24 C40,19.0294373 44.0294373,15 49,15 C53.9705627,15 58,19.0294373 58,24 C58,28.9705627 53.9705627,33 49,33 Z" fill="#000000"></path>
    </g>
</svg>