<?xml version="1.0" encoding="UTF-8"?>
<svg width="64px" height="64px" viewBox="0 0 64 64" version="1.1" xmlns="http://www.w3.org/2000/svg" xmlns:xlink="http://www.w3.org/1999/xlink">
    <!-- Generator: Sketch 52.6 (67491) - http://www.bohemiancoding.com/sketch -->
    <title>system-item-collection</title>
    <desc>Created with Sketch.</desc>
    <g id="system-item-collection" stroke="none" stroke-width="1" fill="none" fill-rule="evenodd">
        <g id="icon-system-item-collection" transform="translate(6.000000, 6.000000)" fill="#000000" fill-rule="nonzero">
            <path d="M13.5078125,6.8046875 C13.5078125,10.4609375 10.4609375,13.5078125 6.8046875,13.5078125 C3.046875,13.5078125 0,10.4609375 0,6.8046875 C0,3.046875 3.046875,0 6.8046875,0 C10.4609375,0 13.5078125,3.046875 13.5078125,6.8046875 Z M13.5078125,26 C13.5078125,29.7578125 10.4609375,32.8046875 6.8046875,32.8046875 C3.046875,32.8046875 0,29.7578125 0,26 C0,22.2421875 3.046875,19.1953125 6.8046875,19.1953125 C10.4609375,19.1953125 13.5078125,22.2421875 13.5078125,26 Z M13.5078125,45.1953125 C13.5078125,48.953125 10.4609375,52 6.8046875,52 C3.046875,52 0,48.953125 0,45.1953125 C0,41.5390625 3.046875,38.4921875 6.8046875,38.4921875 C10.4609375,38.4921875 13.5078125,41.5390625 13.5078125,45.1953125 Z M32.8046875,6.8046875 C32.8046875,10.4609375 29.7578125,13.5078125 26,13.5078125 C22.2421875,13.5078125 19.1953125,10.4609375 19.1953125,6.8046875 C19.1953125,3.046875 22.2421875,0 26,0 C29.7578125,0 32.8046875,3.046875 32.8046875,6.8046875 Z M26,19.1953125 C22.140625,19.1953125 19.1953125,22.34375 19.1953125,26 C19.1953125,29.65625 22.34375,32.8046875 26,32.8046875 C29.859375,32.8046875 32.8046875,29.65625 32.8046875,26 C32.8046875,22.34375 29.859375,19.1953125 26,19.1953125 Z M26,30.1640625 C23.6640625,30.1640625 21.8359375,28.3359375 21.8359375,26 C21.8359375,23.6640625 23.6640625,21.8359375 26,21.8359375 C28.3359375,21.8359375 30.1640625,23.6640625 30.1640625,26 C30.1640625,28.3359375 28.3359375,30.1640625 26,30.1640625 Z M32.8046875,45.1953125 C32.8046875,48.953125 29.7578125,52 26,52 C22.2421875,52 19.1953125,48.953125 19.1953125,45.1953125 C19.1953125,41.5390625 22.2421875,38.4921875 26,38.4921875 C29.7578125,38.4921875 32.8046875,41.5390625 32.8046875,45.1953125 Z M52,6.8046875 C52,10.4609375 48.953125,13.5078125 45.1953125,13.5078125 C41.5390625,13.5078125 38.4921875,10.4609375 38.4921875,6.8046875 C38.4921875,3.046875 41.5390625,0 45.1953125,0 C48.953125,0 52,3.046875 52,6.8046875 Z M45.1953125,19.1953125 C41.3359375,19.1953125 38.4921875,22.34375 38.4921875,26 C38.4921875,29.859375 41.640625,32.8046875 45.1953125,32.8046875 C49.15625,32.8046875 52,29.65625 52,26 C52,22.140625 48.8515625,19.1953125 45.1953125,19.1953125 Z M45.1953125,30.1640625 C42.859375,30.1640625 41.03125,28.3359375 41.03125,26 C41.03125,23.6640625 42.859375,21.8359375 45.1953125,21.8359375 C47.53125,21.8359375 49.359375,23.6640625 49.359375,26 C49.15625,28.3359375 47.328125,30.1640625 45.1953125,30.1640625 Z M52,45.1953125 C52,48.953125 48.953125,52 45.1953125,52 C41.5390625,52 38.4921875,48.953125 38.4921875,45.1953125 C38.4921875,41.5390625 41.5390625,38.4921875 45.1953125,38.4921875 C48.953125,38.4921875 52,41.5390625 52,45.1953125 Z" id="Shape"></path>
        </g>
    </g>
</svg>