<?xml version="1.0" encoding="UTF-8"?>
<svg width="64px" height="64px" viewBox="0 0 64 64" version="1.1" xmlns="http://www.w3.org/2000/svg" xmlns:xlink="http://www.w3.org/1999/xlink">
    <!-- Generator: Sketch 52.6 (67491) - http://www.bohemiancoding.com/sketch -->
    <title>system-designer</title>
    <desc>Created with Sketch.</desc>
    <g id="system-designer" stroke="none" stroke-width="1" fill="none" fill-rule="evenodd">
        <g id="icon-system-designer" transform="translate(10.000000, 6.000000)" fill="#000000" fill-rule="nonzero">
            <path d="M0,37.0988142 L14.5633803,36.7905138 L14.5633803,14.9011858 L0,14.9011858 L0,37.0988142 Z M0,0 L0,11.5098814 L14.5633803,11.3043478 L14.5633803,0 L0,0 Z M7.43661972,52 L14.5633803,40.1818182 L0,40.1818182 L7.43661972,52 Z M16.9389671,51.7944664 C25.7183099,51.7944664 32.3286385,49.43083 37.0798122,44.7035573 C41.8309859,39.9762846 44.2065728,33.3992095 43.8967136,24.6640316 C43.8967136,16.7509881 41.5211268,10.4822134 37.0798122,6.2687747 C32.5352113,2.36363636 25.9248826,0 17.7652582,0 L17.7652582,11.3043478 C21.4835681,11.3043478 24.685446,12.5375494 26.4413146,14.6956522 C28.3004695,17.0592885 29.4366197,20.4505929 29.4366197,25.1778656 C29.4366197,30.2134387 28.6103286,34.1185771 26.4413146,36.4822134 C24.685446,38.6403162 21.4835681,39.9762846 17.7652582,40.1818182 L11.1549296,51.7944664 L16.9389671,51.7944664 Z" id="Shape"></path>
        </g>
    </g>
</svg>