<?xml version="1.0" encoding="UTF-8"?>
<svg width="64px" height="64px" viewBox="0 0 64 64" version="1.1" xmlns="http://www.w3.org/2000/svg" xmlns:xlink="http://www.w3.org/1999/xlink">
    <!-- Generator: Sketch 52.6 (67491) - http://www.bohemiancoding.com/sketch -->
    <title>system-404</title>
    <desc>Created with Sketch.</desc>
    <g id="system-404" stroke="none" stroke-width="1" fill="none" fill-rule="evenodd">
        <path d="M17.1530572,47.1549957 C17.9582168,45.1582422 19.140283,43.3454704 20.6245839,41.8191036 C23.6045033,38.7547316 27.6388201,37 31.9382924,37 C36.2377647,37 40.2720815,38.7547316 43.2520009,41.8191036 C44.7363018,43.3454704 45.918368,45.1582422 46.7235275,47.1549957 C47.1466187,48.2042396 46.6624631,49.4075233 45.6421359,49.842605 C44.6218087,50.2776868 43.4516869,49.7798101 43.0285957,48.7305662 C42.4252042,47.2341868 41.538189,45.873894 40.4235737,44.7276899 C38.1863635,42.4270759 35.1659945,41.1133622 31.9382924,41.1133622 C28.7105903,41.1133622 25.6902213,42.4270759 23.453011,44.7276899 C22.3383958,45.873894 21.4513805,47.2341868 20.847989,48.7305662 C20.4248979,49.7798101 19.2547761,50.2776868 18.2344488,49.842605 C17.2141216,49.4075233 16.7299661,48.2042396 17.1530572,47.1549957 Z M15,33 C10.0294373,33 6,28.9705627 6,24 C6,19.0294373 10.0294373,15 15,15 C19.9705627,15 24,19.0294373 24,24 C24,28.9705627 19.9705627,33 15,33 Z M49,33 C44.0294373,33 40,28.9705627 40,24 C40,19.0294373 44.0294373,15 49,15 C53.9705627,15 58,19.0294373 58,24 C58,28.9705627 53.9705627,33 49,33 Z" fill="#000000" fill-rule="nonzero"></path>
    </g>
</svg>