<?xml version="1.0" encoding="UTF-8"?>
<svg width="64px" height="64px" viewBox="0 0 64 64" version="1.1" xmlns="http://www.w3.org/2000/svg" xmlns:xlink="http://www.w3.org/1999/xlink">
    <!-- Generator: Sketch 52.6 (67491) - http://www.bohemiancoding.com/sketch -->
    <title>system-workflow</title>
    <desc>Created with Sketch.</desc>
    <g id="system-workflow" stroke="none" stroke-width="1" fill="none" fill-rule="evenodd">
        <g id="icon-system-workflow" transform="translate(6.000000, 6.000000)" fill="#000000" fill-rule="nonzero">
            <path d="M50.978389,21.8359375 L44.4400786,21.0234375 C43.9292731,19.5 43.4184676,17.9765625 42.6011788,16.65625 L46.7897839,11.4765625 C47.3005894,10.96875 47.3005894,10.15625 46.7897839,9.6484375 L42.9076621,5.6875 C42.3968566,5.484375 42.0903733,5.1796875 41.5795678,5.1796875 C41.2730845,5.1796875 41.0687623,5.1796875 40.762279,5.484375 L35.5520629,9.6484375 C34.0196464,8.8359375 32.6915521,8.0234375 31.1591356,7.8203125 L30.6483301,1.3203125 C30.6483301,0.5078125 29.8310413,0 29.3202358,0 L23.2927308,0 C22.475442,0 21.9646365,0.5078125 21.9646365,1.3203125 L21.1473477,7.8203125 C19.6149312,8.328125 18.0825147,8.8359375 16.7544204,9.6484375 L11.5442043,5.484375 C11.237721,5.1796875 11.0333988,5.1796875 10.7269155,5.1796875 C10.21611,5.1796875 9.90962672,5.484375 9.70530452,5.6875 L5.72102161,9.6484375 C5.21021611,10.15625 5.00589391,10.96875 5.51669941,11.4765625 L9.70530452,16.65625 C8.88801572,17.9765625 8.37721022,19.5 7.86640472,21.0234375 L1.3280943,21.8359375 C0.510805501,21.8359375 0,22.34375 0,23.15625 L0,28.84375 C0,29.65625 0.510805501,30.1640625 1.3280943,30.1640625 L7.86640472,30.9765625 C8.37721022,32.5 8.88801572,34.0234375 9.70530452,35.34375 L5.51669941,40.5234375 C5.00589391,41.03125 5.00589391,41.84375 5.51669941,42.3515625 L9.39882122,46.3125 C9.90962672,46.515625 10.21611,46.8203125 10.7269155,46.8203125 C11.0333988,46.8203125 11.237721,46.8203125 11.5442043,46.515625 L16.7544204,42.3515625 C18.2868369,43.1640625 19.6149312,43.9765625 21.1473477,44.1796875 L21.6581532,50.6796875 C21.6581532,51.4921875 22.475442,52 22.9862475,52 L28.8094303,52 C29.524558,52 30.0353635,51.4921875 30.0353635,50.6796875 L30.6483301,44.1796875 C32.1807466,43.671875 33.7131631,43.1640625 35.0412574,42.3515625 L40.2514735,46.515625 C40.5579568,46.8203125 40.762279,46.8203125 41.0687623,46.8203125 C41.2730845,46.8203125 41.8860511,46.515625 42.0903733,46.3125 L46.0746562,42.3515625 C46.5854617,41.84375 46.5854617,41.03125 46.0746562,40.5234375 L41.8860511,35.34375 C42.6011788,34.0234375 43.4184676,32.5 43.7249509,30.9765625 L50.2632613,30.1640625 C50.978389,30.1640625 51.4891945,29.3515625 51.4891945,28.84375 L51.4891945,23.15625 C52.3064833,22.34375 51.7956778,21.8359375 50.978389,21.8359375 Z M20.9430255,33.8203125 L20.9430255,19.1953125 L34.0196464,26.5078125 L20.9430255,33.8203125 Z" id="Shape"></path>
        </g>
    </g>
</svg>