<?xml version="1.0" encoding="UTF-8"?>
<svg width="64px" height="64px" viewBox="0 0 64 64" version="1.1" xmlns="http://www.w3.org/2000/svg" xmlns:xlink="http://www.w3.org/1999/xlink">
    <!-- Generator: Sketch 52.6 (67491) - http://www.bohemiancoding.com/sketch -->
    <title>system-lost</title>
    <desc>Created with Sketch.</desc>
    <g id="system-lost" stroke="none" stroke-width="1" fill="none" fill-rule="evenodd">
        <g id="icon-system-lost" transform="translate(12.000000, 6.000000)" fill="#000000" fill-rule="nonzero">
            <path d="M0,21.53125 L0,52 L7.95969773,52 C8.46347607,46.0078125 13.7027708,41.03125 19.8488665,41.03125 C25.9949622,41.03125 31.2342569,45.8046875 31.7380353,52 L40,52 L40,21.53125 L0,21.53125 Z M11.8891688,38.4921875 C9.77329975,38.4921875 7.95969773,36.6640625 7.95969773,34.53125 C7.95969773,32.5 9.77329975,30.671875 11.8891688,30.671875 C13.9042821,30.671875 15.7178841,32.5 15.7178841,34.53125 C15.7178841,36.6640625 13.9042821,38.4921875 11.8891688,38.4921875 Z M27.8085642,38.4921875 C25.7934509,38.4921875 23.9798489,36.6640625 23.9798489,34.53125 C23.9798489,32.5 25.7934509,30.671875 27.8085642,30.671875 C29.9244332,30.671875 31.7380353,32.5 31.7380353,34.53125 C31.7380353,36.6640625 29.9244332,38.4921875 27.8085642,38.4921875 Z M19.8488665,44.1796875 C15.4156171,44.1796875 11.5869018,47.53125 11.0831234,52 L28.3123426,52 C28.1108312,47.53125 24.2821159,44.1796875 19.8488665,44.1796875 Z M15.4156171,4.46875 C16.0201511,4.46875 16.2216625,4.1640625 16.5239295,3.65625 C16.7254408,2.84375 17.2292191,2.3359375 18.0352645,2.3359375 C18.8413098,2.03125 19.3450882,2.640625 19.5465995,3.1484375 C19.8488665,3.65625 19.8488665,3.859375 19.0428212,4.46875 C18.8413098,4.9765625 18.3375315,5.1796875 17.8337531,5.484375 C17.0277078,5.9921875 16.5239295,6.8046875 16.5239295,7.8203125 C16.5239295,8.53125 16.7254408,9.140625 17.5314861,9.140625 C18.3375315,9.34375 18.5390428,8.8359375 18.8413098,8.328125 C18.8413098,7.8203125 19.3450882,7.3125 19.8488665,7.0078125 C20.3526448,6.8046875 20.8564232,6.1953125 21.3602015,5.9921875 C22.9722922,4.671875 22.9722922,2.640625 21.3602015,1.3203125 C20.6549118,0.8125 19.8488665,0.3046875 18.8413098,0.3046875 C18.3375315,0 17.8337531,0 17.2292191,0.3046875 C15.7178841,0.5078125 14.7103275,1.3203125 14.2065491,2.640625 C13.9042821,3.65625 14.4080605,4.46875 15.4156171,4.46875 Z M17.2292191,10.15625 C16.2216625,10.15625 15.4156171,10.96875 15.2141058,11.6796875 C15.2141058,12.6953125 15.7178841,13.5078125 16.7254408,13.5078125 C17.8337531,13.5078125 18.5390428,13 18.8413098,11.984375 C19.0428212,11.171875 18.3375315,10.15625 17.2292191,10.15625 Z M21.3602015,10.359375 C20.8564232,10.96875 21.1586902,11.4765625 21.6624685,11.6796875 C21.8639798,11.984375 22.1662469,11.6796875 22.4685139,11.4765625 C22.6700252,11.171875 23.1738035,10.96875 23.6775819,10.96875 C24.2821159,10.96875 24.4836272,11.4765625 24.4836272,11.6796875 C24.4836272,12.1875 24.2821159,12.4921875 23.9798489,12.4921875 C23.4760705,13 23.1738035,13 22.9722922,13 C22.1662469,13.3046875 21.6624685,13.5078125 21.3602015,14.015625 C21.1586902,14.5234375 21.3602015,14.828125 21.6624685,15.03125 C21.8639798,15.640625 22.4685139,15.3359375 22.6700252,15.03125 C22.9722922,14.828125 23.1738035,14.5234375 23.6775819,14.5234375 C24.2821159,14.5234375 24.4836272,14.3203125 24.9874055,14.3203125 C26.2972292,13.8125 26.8010076,12.4921875 25.9949622,11.4765625 C25.7934509,10.96875 25.2896725,10.359375 24.7858942,10.15625 C24.4836272,10.15625 23.9798489,9.8515625 23.6775819,9.8515625 C22.6700252,9.34375 21.8639798,9.6484375 21.3602015,10.359375 Z M19.8488665,16.3515625 C19.5465995,16.859375 19.8488665,17.671875 20.3526448,17.9765625 C20.8564232,18.1796875 21.6624685,17.9765625 21.8639798,17.46875 C22.1662469,16.859375 21.8639798,16.1484375 21.3602015,15.84375 C20.8564232,15.640625 20.1511335,15.84375 19.8488665,16.3515625 Z" id="Shape"></path>
        </g>
    </g>
</svg>