<?xml version="1.0" encoding="UTF-8"?>
<svg width="64px" height="64px" viewBox="0 0 64 64" version="1.1" xmlns="http://www.w3.org/2000/svg" xmlns:xlink="http://www.w3.org/1999/xlink">
    <!-- Generator: Sketch 52.6 (67491) - http://www.bohemiancoding.com/sketch -->
    <title>system-epic-fail</title>
    <desc>Created with Sketch.</desc>
    <g id="system-epic-fail" stroke="none" stroke-width="1" fill="none" fill-rule="evenodd">
        <path d="M15.0145823,19.1299679 L18.5575346,15.5870156 C19.3402221,14.8043281 20.6092091,14.8043281 21.3918965,15.5870156 C22.1745839,16.369703 22.1745839,17.63869 21.3918965,18.4213774 L17.8489442,21.9643298 L21.3918965,25.5072821 C22.1745839,26.2899695 22.1745839,27.5589566 21.3918965,28.341644 C20.6092091,29.1243314 19.3402221,29.1243314 18.5575346,28.341644 L15.0145823,24.7986916 L11.47163,28.341644 C10.6889425,29.1243314 9.41995551,29.1243314 8.6372681,28.341644 C7.85458068,27.5589566 7.85458068,26.2899695 8.6372681,25.5072821 L12.1802204,21.9643298 L8.6372681,18.4213774 C7.85458068,17.63869 7.85458068,16.369703 8.6372681,15.5870156 C9.41995551,14.8043281 10.6889425,14.8043281 11.47163,15.5870156 L15.0145823,19.1299679 Z M49.0859228,19.1299679 L52.6288751,15.5870156 C53.4115625,14.8043281 54.6805496,14.8043281 55.463237,15.5870156 C56.2459244,16.369703 56.2459244,17.63869 55.463237,18.4213774 L51.9202846,21.9643298 L55.463237,25.5072821 C56.2459244,26.2899695 56.2459244,27.5589566 55.463237,28.341644 C54.6805496,29.1243314 53.4115625,29.1243314 52.6288751,28.341644 L49.0859228,24.7986916 L45.5429704,28.341644 C44.760283,29.1243314 43.491296,29.1243314 42.7086086,28.341644 C41.9259211,27.5589566 41.9259211,26.2899695 42.7086086,25.5072821 L46.2515609,21.9643298 L42.7086086,18.4213774 C41.9259211,17.63869 41.9259211,16.369703 42.7086086,15.5870156 C43.491296,14.8043281 44.760283,14.8043281 45.5429704,15.5870156 L49.0859228,19.1299679 Z M20.071235,46 C18.9666655,46 18.071235,45.1045695 18.071235,44 C18.071235,42.8954305 18.9666655,42 20.071235,42 L44.071235,42 C45.1758045,42 46.071235,42.8954305 46.071235,44 C46.071235,45.1045695 45.1758045,46 44.071235,46 L20.071235,46 Z" id="epic-fail" fill="#000000" fill-rule="nonzero"></path>
    </g>
</svg>