<?xml version="1.0" encoding="UTF-8"?>
<svg width="64px" height="64px" viewBox="0 0 64 64" version="1.1" xmlns="http://www.w3.org/2000/svg" xmlns:xlink="http://www.w3.org/1999/xlink">
    <!-- Generator: Sketch 52.6 (67491) - http://www.bohemiancoding.com/sketch -->
    <title>system-2</title>
    <desc>Created with Sketch.</desc>
    <g id="system-2" stroke="none" stroke-width="1" fill="none" fill-rule="evenodd">
        <path d="M21.7029089,45.5223575 C20.8621557,44.8059723 20.7613354,43.5436622 21.4777205,42.7029089 C22.1941057,41.8621557 23.4564158,41.7613354 24.2971691,42.4777205 C26.1712833,44.0746071 28.7390923,45.000039 31.500039,45.000039 C34.2609857,45.000039 36.8287948,44.0746071 38.7029089,42.4777205 C39.5436622,41.7613354 40.8059723,41.8621557 41.5223575,42.7029089 C42.2387427,43.5436622 42.1379224,44.8059723 41.2971691,45.5223575 C38.691701,47.7424127 35.2021475,49.000039 31.500039,49.000039 C27.7979305,49.000039 24.308377,47.7424127 21.7029089,45.5223575 Z M15,33 C10.0294373,33 6,28.9705627 6,24 C6,19.0294373 10.0294373,15 15,15 C19.9705627,15 24,19.0294373 24,24 C24,28.9705627 19.9705627,33 15,33 Z M49,33 C44.0294373,33 40,28.9705627 40,24 C40,19.0294373 44.0294373,15 49,15 C53.9705627,15 58,19.0294373 58,24 C58,28.9705627 53.9705627,33 49,33 Z" fill="#000000" fill-rule="nonzero"></path>
    </g>
</svg>