<?xml version="1.0" encoding="UTF-8"?>
<svg width="64px" height="64px" viewBox="0 0 64 64" version="1.1" xmlns="http://www.w3.org/2000/svg" xmlns:xlink="http://www.w3.org/1999/xlink">
    <!-- Generator: Sketch 52.6 (67491) - http://www.bohemiancoding.com/sketch -->
    <title>system-label</title>
    <desc>Created with Sketch.</desc>
    <g id="system-label" stroke="none" stroke-width="1" fill="none" fill-rule="evenodd">
        <g id="icon-system-label" transform="translate(7.000000, 6.000000)" fill="#000000" fill-rule="nonzero">
            <path d="M48.9711934,27.4163424 L26.3374486,2.63035019 C24.691358,1.01167315 21.8106996,0.303501946 19.4444444,0 L4.218107,0 C2.05761317,0 0.205761317,1.82101167 0,3.84435798 L0,18.9182879 C0,21.4474708 1.33744856,23.8754864 2.88065844,25.8988327 L25.5144033,50.7859922 C27.0576132,52.3035019 29.526749,52.3035019 31.2757202,50.7859922 L48.9711934,33.385214 C50.308642,31.8677043 50.308642,29.2373541 48.9711934,27.4163424 Z M10.4938272,14.2645914 C8.43621399,14.2645914 6.79012346,12.6459144 6.58436214,10.3190661 C6.58436214,8.29571984 8.12757202,6.77821012 10.4938272,6.47470817 C12.654321,6.47470817 14.5061728,7.9922179 14.5061728,10.3190661 C14.5061728,12.4435798 12.8600823,14.2645914 10.4938272,14.2645914 Z" id="Shape"></path>
        </g>
    </g>
</svg>