<?xml version="1.0" encoding="UTF-8"?>
<svg width="64px" height="64px" viewBox="0 0 64 64" version="1.1" xmlns="http://www.w3.org/2000/svg" xmlns:xlink="http://www.w3.org/1999/xlink">
    <!-- Generator: Sketch 52.6 (67491) - http://www.bohemiancoding.com/sketch -->
    <title>system-resource</title>
    <desc>Created with Sketch.</desc>
    <g id="system-resource" stroke="none" stroke-width="1" fill="none" fill-rule="evenodd">
        <g id="icon-system-resource" transform="translate(6.000000, 6.000000)" fill="#000000" fill-rule="nonzero">
            <path d="M40.828125,26 C40.828125,34.2265625 34.2265625,40.828125 26,40.828125 C17.7734375,40.828125 11.171875,34.2265625 11.171875,26 C11.171875,17.7734375 17.7734375,11.171875 26,11.171875 C34.2265625,11.171875 40.828125,17.7734375 40.828125,26 Z M26,0 C11.6796875,0 0,11.6796875 0,26 C0,40.3203125 11.6796875,52 26,52 C40.3203125,52 52,40.3203125 52,26 C52,11.6796875 40.3203125,0 26,0 Z M26,49.96875 C12.6953125,49.96875 2.03125,39.3046875 2.03125,26 C2.03125,12.6953125 12.6953125,2.03125 26,2.03125 C39.3046875,2.03125 49.96875,12.6953125 49.96875,26 C49.96875,39.3046875 39.3046875,49.96875 26,49.96875 Z" id="Shape"></path>
        </g>
    </g>
</svg>