<?xml version="1.0" encoding="UTF-8"?>
<svg width="64px" height="64px" viewBox="0 0 64 64" version="1.1" xmlns="http://www.w3.org/2000/svg" xmlns:xlink="http://www.w3.org/1999/xlink">
    <!-- Generator: Sketch 52.6 (67491) - http://www.bohemiancoding.com/sketch -->
    <title>system-mic</title>
    <desc>Created with Sketch.</desc>
    <g id="system-mic" stroke="none" stroke-width="1" fill="none" fill-rule="evenodd">
        <g id="icon-system-mic" transform="translate(14.000000, 6.000000)" fill="#000000" fill-rule="nonzero">
            <path d="M36,22.140625 L36,26 C36,30.671875 34.3728814,34.53125 31.3220339,37.984375 C28.1694915,41.3359375 24.5084746,43.46875 19.8305085,43.9765625 L19.8305085,48.140625 L27.8644068,48.140625 C28.3728814,48.140625 28.9830508,48.34375 29.1864407,48.6484375 C29.6949153,49.15625 29.6949153,49.359375 29.6949153,49.96875 C29.6949153,50.4765625 29.4915254,50.984375 29.1864407,51.1875 C28.9830508,51.6953125 28.3728814,52 27.8644068,52 L8.13559322,52 C7.62711864,52 7.01694915,51.6953125 6.81355932,51.4921875 C6.30508475,50.984375 6.30508475,50.6796875 6.30508475,50.171875 C6.30508475,49.6640625 6.50847458,49.15625 6.81355932,48.8515625 C7.3220339,48.34375 7.62711864,48.34375 8.13559322,48.34375 L16.1694915,48.34375 L16.1694915,44.1796875 C11.7966102,43.671875 7.83050847,41.84375 4.6779661,38.1875 C1.62711864,34.53125 0,30.671875 0,26 L0,22.140625 C0,21.53125 0.305084746,21.0234375 0.508474576,20.8203125 C1.11864407,20.3125 1.3220339,20.3125 1.83050847,20.3125 C2.33898305,20.3125 2.94915254,20.515625 3.15254237,20.8203125 C3.66101695,21.328125 3.66101695,21.53125 3.66101695,22.140625 L3.66101695,26 C3.66101695,29.859375 4.98305085,33.0078125 7.83050847,35.8515625 C10.6779661,38.6953125 13.8305085,40.015625 17.6949153,40.015625 C21.6610169,40.015625 24.8135593,38.6953125 27.6610169,35.8515625 C30.5084746,33.0078125 31.8305085,29.859375 31.8305085,26 L31.8305085,22.140625 C31.8305085,21.53125 32.0338983,21.0234375 32.3389831,20.8203125 C32.8474576,20.3125 33.0508475,20.3125 33.6610169,20.3125 C34.1694915,20.3125 34.6779661,20.515625 34.8813559,20.8203125 C35.6949153,21.0234375 36,21.53125 36,22.140625 Z M27.8644068,10.15625 L27.8644068,26 C27.8644068,28.84375 26.8474576,31.1796875 25.0169492,33.0078125 C22.9830508,35.140625 20.6440678,35.8515625 18,35.8515625 C15.3559322,35.8515625 12.8135593,34.8359375 10.9830508,33.0078125 C8.84745763,31.1796875 8.13559322,28.84375 8.13559322,26 L8.13559322,10.15625 C8.13559322,7.3125 9.15254237,4.9765625 10.9830508,3.1484375 C12.8135593,1.3203125 15.1525424,0 18,0 C20.8474576,0 23.1864407,1.015625 25.0169492,2.84375 C26.8474576,4.671875 27.8644068,7.3125 27.8644068,10.15625 Z" id="Shape"></path>
        </g>
    </g>
</svg>