<?xml version="1.0" encoding="UTF-8"?>
<svg width="64px" height="64px" viewBox="0 0 64 64" version="1.1" xmlns="http://www.w3.org/2000/svg" xmlns:xlink="http://www.w3.org/1999/xlink">
    <!-- Generator: Sketch 52.6 (67491) - http://www.bohemiancoding.com/sketch -->
    <title>tasks-check</title>
    <desc>Created with Sketch.</desc>
    <g id="tasks-check" stroke="none" stroke-width="1" fill="none" fill-rule="evenodd">
        <g id="icon-tasks-check" transform="translate(6.000000, 6.000000)" fill="#000000" fill-rule="nonzero">
            <path d="M18.6875,5.1796875 C19.703125,2.1328125 22.6484375,0 26,0 C29.3515625,0 32.296875,2.1328125 33.3125,5.1796875 L46.8203125,5.1796875 C49.6640625,5.1796875 52,7.515625 52,10.359375 L52,46.8203125 C52,49.6640625 49.6640625,52 46.8203125,52 L5.1796875,52 C2.3359375,52 0,49.6640625 0,46.8203125 L0,10.359375 C0,7.515625 2.3359375,5.1796875 5.1796875,5.1796875 L18.6875,5.1796875 Z M28.84375,28.84375 L24.4765625,24.4765625 L20.8203125,28.03125 L28.84375,36.15625 L47.0234375,17.9765625 L43.46875,14.3203125 L28.84375,28.84375 Z M33.8203125,37.6796875 L18.1796875,37.6796875 L18.1796875,22.140625 L30.671875,22.140625 L35.8515625,16.859375 L13,16.859375 L13,42.859375 L39,42.859375 L39,29.65625 L33.8203125,34.8359375 L33.8203125,37.6796875 Z M26,10.359375 C27.421875,10.359375 28.640625,9.2421875 28.640625,7.8203125 C28.640625,6.3984375 27.421875,5.1796875 26,5.1796875 C24.578125,5.1796875 23.359375,6.3984375 23.359375,7.8203125 C23.359375,9.2421875 24.578125,10.359375 26,10.359375 Z" id="Shape"></path>
        </g>
    </g>
</svg>