<?xml version="1.0" encoding="UTF-8"?>
<svg width="64px" height="64px" viewBox="0 0 64 64" version="1.1" xmlns="http://www.w3.org/2000/svg" xmlns:xlink="http://www.w3.org/1999/xlink">
    <!-- Generator: Sketch 52.6 (67491) - http://www.bohemiancoding.com/sketch -->
    <title>tasks-list</title>
    <desc>Created with Sketch.</desc>
    <g id="tasks-list" stroke="none" stroke-width="1" fill="none" fill-rule="evenodd">
        <g id="icon-tasks-list" transform="translate(6.000000, 6.000000)" fill="#000000" fill-rule="nonzero">
            <path d="M18.6875,5.1796875 C19.703125,2.1328125 22.6484375,0 26,0 C29.3515625,0 32.296875,2.1328125 33.3125,5.1796875 L46.8203125,5.1796875 C49.6640625,5.1796875 52,7.515625 52,10.359375 L52,46.8203125 C52,49.6640625 49.6640625,52 46.8203125,52 L5.1796875,52 C2.3359375,52 0,49.6640625 0,46.8203125 L0,10.359375 C0,7.515625 2.3359375,5.1796875 5.1796875,5.1796875 L18.6875,5.1796875 Z M26,10.359375 C27.421875,10.359375 28.640625,9.2421875 28.640625,7.8203125 C28.640625,6.3984375 27.421875,5.1796875 26,5.1796875 C24.578125,5.1796875 23.359375,6.3984375 23.359375,7.8203125 C23.359375,9.2421875 24.578125,10.359375 26,10.359375 Z M10.359375,16.859375 L10.359375,22.140625 L15.640625,22.140625 L15.640625,16.859375 L10.359375,16.859375 Z M20.8203125,16.859375 L20.8203125,22.140625 L41.640625,22.140625 L41.640625,16.859375 L20.8203125,16.859375 Z M10.359375,37.6796875 L10.359375,42.859375 L15.640625,42.859375 L15.640625,37.6796875 L10.359375,37.6796875 Z M20.8203125,27.3203125 L20.8203125,32.5 L41.640625,32.5 L41.640625,27.3203125 L20.8203125,27.3203125 Z M20.8203125,37.6796875 L20.8203125,42.859375 L41.640625,42.859375 L41.640625,37.6796875 L20.8203125,37.6796875 Z M13.609375,29.046875 L11.8828125,26.9140625 L10.359375,28.640625 L13.609375,32.5 L20.8203125,25.0859375 L19.3984375,23.359375 L13.609375,29.046875 Z" id="Shape"></path>
        </g>
    </g>
</svg>