<?xml version="1.0" encoding="UTF-8"?>
<svg width="64px" height="64px" viewBox="0 0 64 64" version="1.1" xmlns="http://www.w3.org/2000/svg" xmlns:xlink="http://www.w3.org/1999/xlink">
    <!-- Generator: Sketch 55.2 (78181) - https://sketchapp.com -->
    <title>tool-multi-polygon</title>
    <desc>Created with Sketch.</desc>
    <g id="tool-multi-polygon" stroke="none" stroke-width="1" fill="none" fill-rule="evenodd">
        <path d="M11.0854824,48.0001362 L11.4743416,46.8335586 L14.3203915,47.7822419 L13.933634,48.9425144 C15.1820751,49.853895 16,51.3445335 16,53.0485437 C16,55.7669903 13.7669903,58 11.0485437,58 C8.23300971,58 6,55.7669903 6,53.0485437 C6,50.2330097 8.23300971,48 11.0485437,48 C11.0608665,48 11.0731793,48.0000459 11.085482,48.0001375 L11.0854824,48.0001362 Z M47.5,53.0485437 C47.5,55.7669903 45.2669903,58 42.5485437,58 C39.7330097,58 37.5,55.7669903 37.5,53.0485437 C37.5,50.2330097 39.7330097,48 42.5485437,48 C45.2669903,48 47.5,50.2330097 47.5,53.0485437 Z M26.5,21.5485437 C26.5,24.2669903 24.2669903,26.5 21.5485437,26.5 C18.7330097,26.5 16.5,24.2669903 16.5,21.5485437 C16.5,18.7330097 18.7330097,16.5 21.5485437,16.5 C24.2669903,16.5 26.5,18.7330097 26.5,21.5485437 Z M14.6366193,37.3467256 L17.4826692,38.2954089 L15.5853026,43.9875087 L12.7392527,43.0388254 L14.6366193,37.3467256 Z M17.798897,27.8598926 L20.6449469,28.8085759 L18.7475803,34.5006757 L15.9015304,33.5519924 L17.798897,27.8598926 Z M29.8460661,31.3149356 L27.3499152,32.9790362 L24.021714,27.9867345 L26.5178649,26.3226339 L29.8460661,31.3149356 Z M35.393068,39.6354386 L32.8969171,41.2995392 L29.568716,36.3072374 L32.0648668,34.6431368 L35.393068,39.6354386 Z M40.94007,47.9559415 L38.4439191,49.6200421 L35.1157179,44.6277403 L37.6118688,42.9636398 L40.94007,47.9559415 Z M29.0622038,54.5 L29.0622038,51.5 L35.0622038,51.5 L35.0622038,54.5 L29.0622038,54.5 Z M18.0622038,54.5 L18.0622038,51.5 L24.0622038,51.5 L24.0622038,54.5 L18.0622038,54.5 Z M58,11.0485437 C58,13.7669903 55.7669903,16 53.0485437,16 C50.2330097,16 48,13.7669903 48,11.0485437 C48,8.23300971 50.2330097,6 53.0485437,6 C55.7669903,6 58,8.23300971 58,11.0485437 Z M58,42.5485437 C58,45.2669903 55.7669903,47.5 53.0485437,47.5 C50.2330097,47.5 48,45.2669903 48,42.5485437 C48,39.7330097 50.2330097,37.5 53.0485437,37.5 C55.7669903,37.5 58,39.7330097 58,42.5485437 Z M37,11.0485437 C37,13.7669903 34.7669903,16 32.0485437,16 C29.2330097,16 27,13.7669903 27,11.0485437 C27,8.23300971 29.2330097,6 32.0485437,6 C34.7669903,6 37,8.23300971 37,11.0485437 Z M45.5,9.5 L45.5,12.5 L39.5,12.5 L39.5,9.5 L45.5,9.5 Z M54.5,24.5 L51.5,24.5 L51.5,18.5 L54.5,18.5 L54.5,24.5 Z M54.5,34.5 L51.5,34.5 L51.5,28.5 L54.5,28.5 L54.5,34.5 Z M44.6133944,32.9543618 L47.1215381,31.3083925 L50.4134768,36.32468 L47.905333,37.9706493 L44.6133944,32.9543618 Z M39.12683,24.5938827 L41.6349737,22.9479134 L44.9269124,27.9642009 L42.4187686,29.6101702 L39.12683,24.5938827 Z M33.6402656,16.2334036 L36.1484093,14.5874343 L39.4403479,19.6037217 L36.9322042,21.2496911 L33.6402656,16.2334036 Z" id="Shape" fill="#000000"></path>
    </g>
</svg>