<?xml version="1.0" encoding="UTF-8"?>
<svg width="64px" height="64px" viewBox="0 0 64 64" version="1.1" xmlns="http://www.w3.org/2000/svg" xmlns:xlink="http://www.w3.org/1999/xlink">
    <!-- Generator: Sketch 52.6 (67491) - http://www.bohemiancoding.com/sketch -->
    <title>tool-cut</title>
    <desc>Created with Sketch.</desc>
    <g id="tool-cut" stroke="none" stroke-width="1" fill="none" fill-rule="evenodd">
        <g id="icon-tool-cut" transform="translate(6.000000, 9.000000)" fill="#000000" fill-rule="nonzero">
            <path d="M8.01257862,36.5985401 L14.7169811,36.5985401 L14.7169811,39.620438 L8.01257862,39.620438 L8.01257862,36.5985401 Z M20.1132075,36.5985401 L20.1132075,39.9562044 L27.6352201,39.9562044 L26.490566,36.5985401 L20.1132075,36.5985401 Z M42.3522013,39.9562044 L49.0566038,39.9562044 L49.0566038,36.5985401 L41.5345912,36.5985401 L42.3522013,39.9562044 Z M28.9433962,32.7372263 C31.3962264,38.2773723 33.5220126,45.1605839 40.2264151,46 L35.6477987,32.7372263 L28.9433962,32.7372263 Z M52,29.2116788 C48.2389937,21.9927007 38.1006289,23.3357664 31.8867925,22.3284672 C30.5786164,18.9708029 30.2515723,14.6058394 27.3081761,12.5912409 C28.4528302,11.2481752 29.2704403,9.56934307 29.2704403,7.38686131 C29.2704403,3.52554745 26.490566,0 22.2389937,0 C18.4779874,0 15.0440252,3.02189781 15.0440252,7.38686131 C15.5345912,12.0875912 18.4779874,13.4306569 22.2389937,16.4525547 C24.6918239,18.1313869 24.3647799,19.810219 25.1823899,22.8321168 C22.7295597,23.3357664 20.1132075,24.1751825 18.4779874,22.8321168 L14.7169811,19.4744526 C13.408805,18.4671533 11.7735849,17.6277372 10.1383648,17.6277372 C7.19496855,17.6277372 4.57861635,19.4744526 3.43396226,22.3284672 C3.43396226,22.8321168 3.43396226,22.8321168 2.94339623,22.8321168 C1.3081761,22.8321168 0,24.1751825 0,25.8540146 C0,27.5328467 1.3081761,28.8759124 2.94339623,28.8759124 C4.25157233,28.8759124 3.76100629,28.3722628 4.57861635,29.7153285 C5.88679245,31.3941606 8.01257862,32.7372263 10.1383648,32.7372263 C13.081761,32.7372263 15.5345912,31.0583942 16.3522013,28.3722628 C17.6603774,29.2116788 18.4779874,29.2116788 20.1132075,29.7153285 L52,29.7153285 L52,29.2116788 Z M28.9433962,22.8321168 C30.2515723,22.8321168 31.0691824,23.6715328 31.0691824,25.0145985 C31.0691824,26.189781 30.2515723,27.1970803 28.9433962,27.1970803 C27.6352201,27.1970803 26.8176101,26.189781 26.8176101,25.0145985 C26.8176101,23.6715328 27.6352201,22.8321168 28.9433962,22.8321168 Z M22.2389937,10.4087591 C20.1132075,10.4087591 18.8050314,8.72992701 18.8050314,6.88321168 C18.8050314,5.20437956 20.6037736,3.52554745 22.2389937,3.52554745 C24.3647799,3.52554745 25.509434,5.20437956 25.509434,6.88321168 C25.509434,8.72992701 24.3647799,10.4087591 22.2389937,10.4087591 Z M10.1383648,28.3722628 C8.01257862,28.3722628 6.70440252,26.6934307 6.70440252,25.0145985 C6.70440252,22.8321168 8.33962264,21.4890511 10.1383648,21.4890511 C12.2641509,21.4890511 13.408805,22.8321168 13.408805,25.0145985 C13.408805,27.1970803 12.2641509,28.3722628 10.1383648,28.3722628 Z" id="Shape"></path>
        </g>
    </g>
</svg>