<?xml version="1.0" encoding="UTF-8"?>
<svg width="64px" height="64px" viewBox="0 0 64 64" version="1.1" xmlns="http://www.w3.org/2000/svg" xmlns:xlink="http://www.w3.org/1999/xlink">
    <!-- Generator: Sketch 52.6 (67491) - http://www.bohemiancoding.com/sketch -->
    <title>tool-polygon</title>
    <desc>Created with Sketch.</desc>
    <g id="tool-polygon" stroke="none" stroke-width="1" fill="none" fill-rule="evenodd">
        <g id="icon-tool-polygon" transform="translate(7.000000, 6.000000)" fill="#000000" fill-rule="nonzero">
            <path d="M5.88235294,13.2653061 L5.48128342,18.9693878 L7.88770053,18.9693878 L8.28877005,13.2653061 C11.3636364,12.6020408 13.7700535,9.81632653 13.7700535,6.76530612 C13.7700535,3.05102041 10.5614973,0 6.81818182,0 C3.07486631,0 0,3.05102041 0,6.76530612 C0,10.2142857 2.40641711,12.8673469 5.88235294,13.2653061 Z M13.7700535,45.2346939 C13.7700535,48.9489796 10.6951872,52 6.81818182,52 C3.07486631,52 0,48.9489796 0,45.2346939 C0,41.3877551 3.07486631,38.3367347 6.81818182,38.3367347 C10.6951872,38.3367347 13.7700535,41.3877551 13.7700535,45.2346939 Z M43.4491979,8.8877551 C41.7112299,8.8877551 40.1069519,9.55102041 38.6363636,10.4795918 L32.486631,9.55102041 L32.2192513,12.2040816 L37.0320856,12.8673469 C36.631016,13.6632653 36.631016,14.3265306 36.631016,15.255102 C36.631016,16.3163265 37.0320856,17.377551 37.2994652,18.3061224 L35.2941176,19.7653061 L37.0320856,22.1530612 L39.0374332,20.6938776 C40.1069519,21.755102 41.7112299,22.1530612 43.1818182,22.1530612 C46.9251337,22.1530612 50,18.9693878 50,15.255102 C50,11.5408163 47.1925134,8.8877551 43.4491979,8.8877551 Z M27.6737968,26.1326531 L29.4117647,28.255102 L34.6256684,24.4081633 L32.8877005,22.1530612 L27.6737968,26.1326531 Z M20.1871658,31.9693878 L21.9251337,33.6938776 L26.3368984,30.244898 L25,28.255102 L20.1871658,31.9693878 Z M12.2994652,37.6734694 L14.0374332,39.3979592 L19.1176471,35.6836735 L17.513369,33.9591837 L12.2994652,37.6734694 Z M29.144385,9.55102041 L23.6631016,8.48979592 L23.2620321,11.2755102 L29.144385,11.9387755 L29.144385,9.55102041 Z M13.368984,9.55102041 L19.9197861,10.4795918 L20.1871658,8.2244898 L13.7700535,7.16326531 L13.368984,9.55102041 Z M4.41176471,38.3367347 L7.21925134,38.3367347 L7.48663102,31.5714286 L4.81283422,31.5714286 L4.41176471,38.3367347 Z M7.88770053,22.4183673 L5.21390374,22.4183673 L5.21390374,28.255102 L7.48663102,28.255102 L7.88770053,22.4183673 Z" id="Shape"></path>
        </g>
    </g>
</svg>