<?xml version="1.0" encoding="UTF-8"?>
<svg width="64px" height="64px" viewBox="0 0 64 64" version="1.1" xmlns="http://www.w3.org/2000/svg" xmlns:xlink="http://www.w3.org/1999/xlink">
    <!-- Generator: Sketch 55.2 (78181) - https://sketchapp.com -->
    <title>tool-geom-collection</title>
    <desc>Created with Sketch.</desc>
    <g id="tool-geom-collection" stroke="none" stroke-width="1" fill="none" fill-rule="evenodd">
        <path d="M16,11.0485437 C16,13.7669903 13.7669903,16 11.0485437,16 C8.23300971,16 6,13.7669903 6,11.0485437 C6,8.23300971 8.23300971,6 11.0485437,6 C13.7669903,6 16,8.23300971 16,11.0485437 Z M16,53.0485437 C16,55.7669903 13.7669903,58 11.0485437,58 C8.23300971,58 6,55.7669903 6,53.0485437 C6,50.2330097 8.23300971,48 11.0485437,48 C13.7669903,48 16,50.2330097 16,53.0485437 Z M37,22.0485437 C37,24.7669903 34.7669903,27 32.0485437,27 C29.2330097,27 27,24.7669903 27,22.0485437 C27,19.2330097 29.2330097,17 32.0485437,17 C34.7669903,17 37,19.2330097 37,22.0485437 Z M24.8693151,16.5953646 L23.4772941,19.2528592 L18.1623049,16.4688172 L19.5543258,13.8113226 L24.8693151,16.5953646 Z M26.5091854,33.1009069 L24.0010417,31.4549376 L27.2929803,26.4386501 L29.801124,28.0846194 L26.5091854,33.1009069 Z M21.022621,41.461386 L18.5144773,39.8154167 L21.8064159,34.7991292 L24.3145596,36.4450985 L21.022621,41.461386 Z M15.5360566,49.8218651 L13.0279128,48.1758958 L16.3198515,43.1596083 L18.8279952,44.8055776 L15.5360566,49.8218651 Z M9.5,39.9818576 L12.5,39.9818576 L12.5,45.9818576 L9.5,45.9818576 L9.5,39.9818576 Z M9.5,29.9818576 L12.5,29.9818576 L12.5,35.9818576 L9.5,35.9818576 L9.5,29.9818576 Z M9.5,19.9818576 L12.5,19.9818576 L12.5,25.9818576 L9.5,25.9818576 L9.5,19.9818576 Z M58,53.0485437 C58,55.7669903 55.7669903,58 53.0485437,58 C50.2330097,58 48,55.7669903 48,53.0485437 C48,50.2330097 50.2330097,48 53.0485437,48 C55.7669903,48 58,50.2330097 58,53.0485437 Z M48,11.0485437 C48,13.7669903 45.7669903,16 43.0485437,16 C40.2330097,16 38,13.7669903 38,11.0485437 C38,8.23300971 40.2330097,6 43.0485437,6 C45.7669903,6 48,8.23300971 48,11.0485437 Z M43.5,19.6948616 L46.4184186,19 L47.8081418,24.8368373 L44.8897232,25.5316989 L43.5,19.6948616 Z M45.8162053,29.4229237 L48.7346239,28.7280621 L50.1243471,34.5648994 L47.2059284,35.259761 L45.8162053,29.4229237 Z M48.1324105,39.1509859 L51.0508292,38.4561243 L52.4405524,44.2929616 L49.5221337,44.9878232 L48.1324105,39.1509859 Z M43,45.0485437 C43,47.7669903 40.7669903,50 38.0485437,50 C35.2330097,50 33,47.7669903 33,45.0485437 C33,42.2330097 35.2330097,40 38.0485437,40 C40.7669903,40 43,42.2330097 43,45.0485437 Z" id="Shape" fill="#000000"></path>
    </g>
</svg>