<?xml version="1.0" encoding="UTF-8"?>
<svg width="64px" height="64px" viewBox="0 0 64 64" version="1.1" xmlns="http://www.w3.org/2000/svg" xmlns:xlink="http://www.w3.org/1999/xlink">
    <!-- Generator: Sketch 52.6 (67491) - http://www.bohemiancoding.com/sketch -->
    <title>tool-object-point</title>
    <desc>Created with Sketch.</desc>
    <g id="tool-object-point" stroke="none" stroke-width="1" fill="none" fill-rule="evenodd">
        <g id="icon-tool-object-point" transform="translate(24.000000, 24.000000)" fill="#000000">
            <path d="M7.8974359,0 C4,0 0.820512821,2.64968153 0,6.31847134 C0,6.82802548 0,7.33757962 0,7.84713376 C0,9.88535032 0.820512821,12.0254777 2.35897436,13.5541401 C5.53846154,16.7133758 10.5641026,16.7133758 13.6410256,13.5541401 C13.9487179,13.3503185 13.9487179,13.044586 14.1538462,12.8407643 C14.1538462,12.8407643 14.4615385,12.5350318 14.4615385,12.5350318 C14.7692308,12.3312102 14.7692308,12.0254777 14.974359,12.0254777 C14.974359,11.7197452 15.2820513,11.7197452 15.2820513,11.5159236 C15.2820513,11.2101911 15.4871795,11.0063694 15.4871795,11.0063694 C15.4871795,10.7006369 15.7948718,10.4968153 15.7948718,10.1910828 C15.7948718,9.88535032 15.7948718,9.68152866 16,9.37579618 C16,9.17197452 16,8.66242038 16,8.3566879 C16,8.15286624 16,8.15286624 16,7.84713376 C16,7.54140127 16,7.03184713 16,6.82802548 C16,6.82802548 16,6.52229299 16,6.52229299 C14.974359,2.64968153 11.7948718,0 7.8974359,0 Z" id="Path"></path>
        </g>
    </g>
</svg>