<?xml version="1.0" encoding="UTF-8"?>
<svg width="64px" height="64px" viewBox="0 0 64 64" version="1.1" xmlns="http://www.w3.org/2000/svg" xmlns:xlink="http://www.w3.org/1999/xlink">
    <!-- Generator: Sketch 52.6 (67491) - http://www.bohemiancoding.com/sketch -->
    <title>tool-object-square-empty</title>
    <desc>Created with Sketch.</desc>
    <g id="tool-object-square-empty" stroke="none" stroke-width="1" fill="none" fill-rule="evenodd">
        <g id="icon-tool-object-square-empty" transform="translate(6.000000, 6.000000)" fill="#000000" fill-rule="nonzero">
            <path d="M42.7811634,33.7220708 C38.3157895,33.7220708 34.5706371,36.5558583 33.8504155,40.9482289 C33.8504155,41.6566757 33.8504155,42.0817439 33.8504155,42.7901907 C33.8504155,44.9155313 34.5706371,47.4659401 36.4432133,49.3079019 C40.1883657,52.8501362 45.6620499,52.8501362 49.4072022,49.3079019 C49.6952909,48.8828338 49.6952909,48.8828338 50.1274238,48.599455 C50.1274238,48.599455 50.5595568,48.1743869 50.5595568,48.1743869 C50.5595568,47.8910082 50.8476454,47.8910082 50.8476454,47.4659401 C50.8476454,47.0408719 51.2797784,47.0408719 51.2797784,46.7574932 C51.2797784,46.3324251 51.567867,46.3324251 51.567867,46.0490463 C51.567867,45.6239782 52,45.3405995 52,44.9155313 C52,44.6321526 52,44.6321526 52,44.2070845 C52,43.7820163 52,43.4986376 52,43.0735695 C52,42.7901907 52,42.7901907 52,42.3651226 C52,42.0817439 52,41.6566757 52,41.373297 C52,41.373297 52,40.9482289 52,40.9482289 C50.8476454,36.9809264 47.1024931,33.7220708 42.7811634,33.7220708 Z M46.3822715,46.3324251 C44.2216066,48.599455 40.9085873,48.599455 39.0360111,46.3324251 C36.8753463,44.2070845 36.8753463,40.9482289 39.0360111,39.106267 C41.3407202,36.9809264 44.6537396,36.9809264 46.3822715,39.106267 C48.6869806,41.373297 48.6869806,44.6321526 46.3822715,46.3324251 Z M42.7811634,0.283378747 C38.3157895,0.283378747 34.5706371,3.25885559 33.8504155,7.50953678 C33.8504155,8.35967302 33.8504155,8.64305177 33.8504155,9.35149864 C33.8504155,11.6185286 34.5706371,14.1689373 36.4432133,15.8692098 C40.1883657,19.5531335 45.6620499,19.5531335 49.4072022,15.8692098 C49.6952909,15.5858311 49.6952909,15.5858311 50.1274238,15.1607629 C50.1274238,15.1607629 50.5595568,14.8773842 50.5595568,14.8773842 C50.5595568,14.4523161 50.8476454,14.4523161 50.8476454,14.1689373 C50.8476454,13.7438692 51.2797784,13.7438692 51.2797784,13.3188011 C51.2797784,13.0354223 51.567867,13.0354223 51.567867,12.6103542 C51.567867,12.3269755 51.567867,11.9019074 51.567867,11.6185286 C51.567867,11.1934605 51.567867,11.1934605 51.567867,10.7683924 C51.567867,10.4850136 51.567867,10.0599455 51.567867,9.77656676 C51.567867,9.35149864 51.567867,9.35149864 51.567867,9.06811989 C51.567867,8.64305177 51.567867,8.35967302 51.567867,7.9346049 C51.567867,7.9346049 51.567867,7.50953678 51.567867,7.50953678 C50.8476454,3.54223433 47.1024931,0.283378747 42.7811634,0.283378747 Z M46.3822715,13.0354223 C44.2216066,15.1607629 40.9085873,15.1607629 39.0360111,13.0354223 C36.8753463,10.7683924 36.8753463,7.50953678 39.0360111,5.80926431 C41.3407202,3.54223433 44.6537396,3.54223433 46.3822715,5.80926431 C48.6869806,7.50953678 48.6869806,10.7683924 46.3822715,13.0354223 Z M17.7174515,41.373297 C17.7174515,41.373297 17.7174515,40.9482289 17.7174515,40.9482289 C16.9972299,36.9809264 13.2520776,33.7220708 8.7867036,33.7220708 C4.46537396,33.7220708 0.720221607,36.5558583 0,40.9482289 C0,41.6566757 0,42.0817439 0,42.7901907 C0,44.9155313 0.720221607,47.4659401 2.59279778,49.3079019 C6.19390582,52.8501362 11.8116343,52.8501362 15.4127424,49.3079019 C15.8448753,48.8828338 15.8448753,48.8828338 16.132964,48.599455 C16.132964,48.599455 16.565097,48.1743869 16.565097,48.1743869 C16.565097,47.8910082 16.9972299,47.8910082 16.9972299,47.4659401 C16.9972299,47.0408719 17.2853186,47.0408719 17.2853186,46.7574932 C17.2853186,46.3324251 17.7174515,46.3324251 17.7174515,46.0490463 C17.7174515,45.6239782 18.0055402,45.3405995 18.0055402,44.9155313 C18.0055402,44.6321526 18.0055402,44.6321526 18.0055402,44.2070845 C18.0055402,43.7820163 18.0055402,43.4986376 18.0055402,43.0735695 C18.0055402,42.7901907 18.0055402,42.7901907 18.0055402,42.3651226 C18.0055402,42.0817439 17.7174515,41.6566757 17.7174515,41.373297 Z M12.531856,46.3324251 C10.2271468,48.599455 6.91412742,48.599455 5.18559557,46.3324251 C2.88088643,44.2070845 2.88088643,40.9482289 5.18559557,39.106267 C7.34626039,36.9809264 10.6592798,36.9809264 12.531856,39.106267 C14.6925208,41.373297 14.6925208,44.6321526 12.531856,46.3324251 Z M15.1246537,15.5858311 C15.4127424,15.5858311 15.8448753,15.1607629 15.8448753,14.8773842 C15.8448753,14.8773842 16.132964,14.4523161 16.132964,14.4523161 C16.132964,14.1689373 16.565097,14.1689373 16.565097,13.7438692 C16.565097,13.3188011 16.9972299,13.3188011 16.9972299,13.0354223 C16.9972299,12.6103542 17.2853186,12.6103542 17.2853186,12.3269755 C17.2853186,11.9019074 17.7174515,11.6185286 17.7174515,11.1934605 C17.7174515,10.7683924 17.7174515,10.7683924 17.7174515,10.4850136 C17.7174515,10.0599455 17.7174515,9.77656676 17.7174515,9.35149864 C17.7174515,9.06811989 17.7174515,9.06811989 17.7174515,8.64305177 C17.7174515,8.35967302 17.7174515,7.9346049 17.7174515,7.50953678 C17.7174515,7.50953678 17.7174515,7.22615804 17.7174515,7.22615804 C16.9972299,3.25885559 13.2520776,0 8.7867036,0 C4.46537396,0 0.720221607,2.83378747 0,7.22615804 C0,7.9346049 0,8.35967302 0,9.06811989 C0,11.1934605 0.720221607,13.7438692 2.59279778,15.5858311 C5.90581717,19.1280654 11.8116343,19.1280654 15.1246537,15.5858311 Z M5.18559557,5.80926431 C7.34626039,3.54223433 10.6592798,3.54223433 12.531856,5.80926431 C14.6925208,7.9346049 14.6925208,11.1934605 12.531856,13.0354223 C10.2271468,15.1607629 6.91412742,15.1607629 5.18559557,13.0354223 C2.88088643,10.7683924 2.88088643,7.50953678 5.18559557,5.80926431 Z M6.19390582,27.4877384 L11.3795014,27.4877384 L11.3795014,31.880109 L6.19390582,31.880109 L6.19390582,27.4877384 Z M6.19390582,20.2615804 L11.3795014,20.2615804 L11.3795014,24.653951 L6.19390582,24.653951 L6.19390582,20.2615804 Z M40.1883657,27.4877384 L45.3739612,27.4877384 L45.3739612,31.880109 L40.1883657,31.880109 L40.1883657,27.4877384 Z M40.1883657,20.2615804 L45.3739612,20.2615804 L45.3739612,24.653951 L40.1883657,24.653951 L40.1883657,20.2615804 Z M19.8781163,6.80108992 L24.3434903,6.80108992 L24.3434903,11.9019074 L19.8781163,11.9019074 L19.8781163,6.80108992 Z M27.2243767,6.80108992 L31.6897507,6.80108992 L31.6897507,11.9019074 L27.2243767,11.9019074 L27.2243767,6.80108992 Z M19.8781163,40.239782 L24.3434903,40.239782 L24.3434903,45.3405995 L19.8781163,45.3405995 L19.8781163,40.239782 Z M27.2243767,40.239782 L31.6897507,40.239782 L31.6897507,45.3405995 L27.2243767,45.3405995 L27.2243767,40.239782 Z" id="Shape"></path>
        </g>
    </g>
</svg>