<?xml version="1.0" encoding="UTF-8"?>
<svg width="64px" height="64px" viewBox="0 0 64 64" version="1.1" xmlns="http://www.w3.org/2000/svg" xmlns:xlink="http://www.w3.org/1999/xlink">
    <!-- Generator: Sketch 52.6 (67491) - http://www.bohemiancoding.com/sketch -->
    <title>tool-ruler</title>
    <desc>Created with Sketch.</desc>
    <g id="tool-ruler" stroke="none" stroke-width="1" fill="none" fill-rule="evenodd">
        <g id="icon-tool-ruler" transform="translate(6.000000, 6.000000)" fill="#000000" fill-rule="nonzero">
            <path d="M37.0755287,1.25679758 L1.25679758,37.0755287 C-0.314199396,38.6465257 -0.314199396,41.0030211 1.25679758,42.7311178 L9.26888218,50.7432024 C10.9969789,52.3141994 13.3534743,52.3141994 14.9244713,50.7432024 L50.7432024,14.9244713 C52.3141994,13.3534743 52.3141994,10.8398792 50.7432024,9.26888218 L42.7311178,1.25679758 C41.1601208,-0.314199396 38.6465257,-0.314199396 37.0755287,1.25679758 Z M10.5256798,39.4320242 L8.48338369,41.4743202 L3.77039275,36.6042296 L5.65558912,34.5619335 L10.5256798,39.4320242 Z M18.5377644,39.4320242 L16.652568,41.4743202 L7.6978852,32.6767372 L9.74018127,30.6344411 L18.5377644,39.4320242 Z M18.5377644,31.734139 L16.652568,33.776435 L11.7824773,28.9063444 L13.8247734,27.021148 L18.5377644,31.734139 Z M22.1510574,27.8066465 L20.265861,29.8489426 L15.3957704,24.978852 L17.4380665,22.9365559 L22.1510574,27.8066465 Z M30.3202417,27.8066465 L28.2779456,29.8489426 L19.3232628,20.8942598 L21.3655589,18.8519637 L30.3202417,27.8066465 Z M30.3202417,19.7945619 L28.2779456,21.6797583 L23.407855,16.9667674 L25.4501511,14.9244713 L30.3202417,19.7945619 Z M33.9335347,16.1812689 L31.8912387,18.0664653 L27.021148,13.3534743 L29.0634441,11.3111782 L33.9335347,16.1812689 Z M41.9456193,16.1812689 L39.9033233,18.0664653 L31.1057402,9.26888218 L33.1480363,7.2265861 L41.9456193,16.1812689 Z M41.9456193,8.01208459 L39.9033233,10.0543807 L35.0332326,5.18429003 L37.0755287,3.29909366 L41.9456193,8.01208459 Z" id="Shape"></path>
        </g>
    </g>
</svg>