<?xml version="1.0" encoding="UTF-8"?>
<svg width="64px" height="64px" viewBox="0 0 64 64" version="1.1" xmlns="http://www.w3.org/2000/svg" xmlns:xlink="http://www.w3.org/1999/xlink">
    <!-- Generator: Sketch 55.2 (78181) - https://sketchapp.com -->
    <title>tool-multi-line</title>
    <desc>Created with Sketch.</desc>
    <g id="tool-multi-line" stroke="none" stroke-width="1" fill="none" fill-rule="evenodd">
        <path d="M11.7945249,48.0568483 L12.3416408,46.9626165 L15.0249224,48.3042572 L14.4763244,49.4014532 C15.4137459,50.3161965 16,51.6059022 16,53.0485437 C16,55.7669903 13.7669903,58 11.0485437,58 C8.23300971,58 6,55.7669903 6,53.0485437 C6,50.2330097 8.23300971,48 11.0485437,48 C11.3018919,48 11.5510238,48.0193948 11.7945249,48.0568483 L11.7945249,48.0568483 Z M54.49031,26.2836612 L54.4872283,27.8045431 L51.4872283,27.7984614 L51.4903442,26.2614639 C51.2120311,26.1734648 50.9446521,26.0625032 50.6904095,25.9309108 L47.2027958,29.4185245 L45.0814755,27.2972042 L48.5595329,23.8191467 C48.2014146,23.1376254 48,22.3649774 48,21.5485437 C48,18.7330097 50.2330097,16.5 53.0485437,16.5 C55.7669903,16.5 58,18.7330097 58,21.5485437 C58,23.7662938 56.5138104,25.6609592 54.49031,26.2836612 L54.49031,26.2836612 Z M31.2106672,15.9327675 L30.2301846,17.8937328 L27.546903,16.552092 L28.5240799,14.5977383 C27.5810527,13.6956326 27,12.435246 27,11.0485437 C27,8.23300971 29.2330097,6 32.0485437,6 C34.7669903,6 37,8.23300971 37,11.0485437 C37,13.7669903 34.7669903,16 32.0485437,16 C31.7626703,16 31.4828023,15.9769794 31.2106672,15.9327675 L31.2106672,15.9327675 Z M34.3191467,38.0595329 L35.1819805,37.1966991 L37.3033009,39.3180195 L36.4309108,40.1904095 C36.7939789,40.891874 37,41.6933365 37,42.5485437 C37,45.2669903 34.7669903,47.5 32.0485437,47.5 C29.2330097,47.5 27,45.2669903 27,42.5485437 C27,39.7330097 29.2330097,37.5 32.0485437,37.5 C32.8649774,37.5 33.6376254,37.7014146 34.3191467,38.0595329 L34.3191467,38.0595329 Z M51.4670606,37.7466991 L51.4791193,31.7984531 L54.4791131,31.8045349 L54.4671476,37.70985 C56.502459,38.327785 58,40.2428329 58,42.5485437 C58,45.2669903 55.7669903,47.5 53.0485437,47.5 C50.2330097,47.5 48,45.2669903 48,42.5485437 C48,40.2869044 49.44084,38.4011363 51.4670606,37.7466991 L51.4670606,37.7466991 Z M16.8137767,44.7265485 L14.1304952,43.3849077 L16.8137767,38.0183446 L19.4970583,39.3599853 L16.8137767,44.7265485 Z M21.2859127,35.7822766 L18.6026311,34.4406358 L21.2859127,29.0740726 L23.9691943,30.4157134 L21.2859127,35.7822766 Z M25.7580487,26.8380047 L23.0747671,25.4963639 L25.7580487,20.1298007 L28.4413302,21.4714415 L25.7580487,26.8380047 Z M40.131728,36.4895924 L38.0104076,34.368272 L42.2530483,30.1256313 L44.3743687,32.2469517 L40.131728,36.4895924 Z" id="Shape" fill="#000000"></path>
    </g>
</svg>