<?xml version="1.0" encoding="UTF-8"?>
<svg width="64px" height="64px" viewBox="0 0 64 64" version="1.1" xmlns="http://www.w3.org/2000/svg" xmlns:xlink="http://www.w3.org/1999/xlink">
    <!-- Generator: Sketch 52.6 (67491) - http://www.bohemiancoding.com/sketch -->
    <title>tool-eraser2</title>
    <desc>Created with Sketch.</desc>
    <g id="tool-eraser2" stroke="none" stroke-width="1" fill="none" fill-rule="evenodd">
        <g id="icon-tool-eraser2" transform="translate(12.000000, 6.000000)" fill="#000000" fill-rule="nonzero">
            <path d="M0.302267003,34.8705882 C0.302267003,32.7294118 0.302267003,30.6901961 0.302267003,28.345098 C0.302267003,26.7137255 0.503778338,25.3882353 1.61209068,24.1647059 C1.61209068,23.8588235 1.81360202,23.654902 2.11586902,23.3490196 C9.06801008,16.3137255 16.3224181,8.97254902 23.2745592,1.9372549 C24.7858942,0.407843137 26.2972292,-0.101960784 28.4130982,0.101960784 C30.2267003,0.101960784 31.7380353,0.917647059 33.0478589,2.24313725 C34.559194,3.77254902 35.8690176,5.30196078 37.4811083,6.62745098 C38.488665,7.64705882 39.1939547,8.76862745 39.4962217,9.99215686 C39.7984887,10.6039216 39.7984887,11.3176471 40,11.827451 C40,11.827451 40,12.1333333 40,12.1333333 C40,15.2941176 40,18.6588235 40,21.8196078 C40,23.654902 39.4962217,25.1843137 37.9848866,26.7137255 C30.2267003,34.5647059 22.7707809,42.1098039 15.0125945,49.9607843 C12.3929471,52.6117647 8.26196474,52.6117647 5.44080605,49.9607843 C4.13098237,48.6352941 2.82115869,47.3098039 1.81360202,46.2901961 C1.30982368,45.7803922 0.80604534,44.9647059 0.503778338,44.2509804 C0.302267003,43.4352941 0,42.4156863 0,41.3960784 C0.302267003,39.254902 0.302267003,36.9098039 0.302267003,34.8705882 Z M17.0277078,31.2 C12.8967254,35.3803922 9.06801008,39.254902 4.93702771,43.4352941 C6.24685139,44.7607843 7.55667506,46.0862745 8.56423174,47.3098039 C9.06801008,47.9215686 9.57178841,48.1254902 10.3778338,48.1254902 C11.3853904,48.1254902 12.1914358,47.9215686 12.6952141,47.1058824 C15.7178841,43.7411765 19.1435768,40.5803922 22.1662469,37.2156863 C20.9571788,34.8705882 18.8413098,33.0352941 17.0277078,31.2 Z M3.92947103,38.4392157 C4.13098237,38.4392157 4.13098237,38.4392157 3.92947103,38.4392157 C7.7581864,34.8705882 11.0831234,31.2 14.7103275,27.5294118 C14.7103275,27.5294118 15.0125945,27.5294118 15.0125945,27.2235294 C15.0125945,23.654902 15.0125945,19.9843137 15.0125945,16.0078431 C15.0125945,16.0078431 15.0125945,15.8039216 15.0125945,15.8039216 C15.0125945,15.8039216 14.7103275,16.0078431 14.7103275,16.0078431 C11.6876574,18.8627451 8.56423174,22.0235294 5.74307305,25.1843137 C4.63476071,26.2039216 3.92947103,27.7333333 3.92947103,29.3647059 C3.92947103,32.5254902 3.92947103,35.3803922 3.92947103,38.4392157 C3.92947103,38.2352941 3.92947103,38.4392157 3.92947103,38.4392157 Z" id="Shape"></path>
        </g>
    </g>
</svg>