<?xml version="1.0" encoding="UTF-8"?>
<svg width="64px" height="64px" viewBox="0 0 64 64" version="1.1" xmlns="http://www.w3.org/2000/svg" xmlns:xlink="http://www.w3.org/1999/xlink">
    <!-- Generator: Sketch 53.2 (72643) - https://sketchapp.com -->
    <title>tool-poligonal-select</title>
    <desc>Created with Sketch.</desc>
    <g id="tool-poligonal-select" stroke="none" stroke-width="1" fill="none" fill-rule="evenodd">
        <path d="M46,15.5832189 L46,12 L58,12 L58,24 L48.1213203,24 L45.2082349,26.9130855 L43.0869145,24.7917651 L46,21.8786797 L46,18.6167811 L42.9809067,18.1639171 L43.4259281,15.1971081 L46,15.5832189 Z M18.6167811,46 L21.8786797,46 L23.2879247,44.590755 L25.409245,46.7120753 L24,48.1213203 L24,58 L12,58 L12,46 L15.5832189,46 L15.3298718,44.3110199 L18.2966809,43.8659985 L18.6167811,46 L18.6167811,46 Z M39.6610108,32.4603095 L36.4840571,31.3946225 L40.2584874,27.6201922 L42.3798078,29.7415126 L39.6610108,32.4603095 L39.6610108,32.4603095 Z M32.4603095,39.6610108 L28.2376721,43.8836482 L26.1163518,41.7623279 L31.3946225,36.4840571 L32.4603095,39.6610108 Z M17.7033191,39.9102531 L14.73651,40.3552744 L13.5497864,32.4437836 L16.5165955,31.9987623 L17.7033191,39.9102531 Z M15.9232337,28.0430169 L12.9564246,28.4880382 L11.769701,20.5765474 L14.73651,20.131526 L15.9232337,28.0430169 Z M19.2464343,14.6037463 L19.6914556,11.6369372 L27.6029464,12.8236608 L27.1579251,15.7904699 L19.2464343,14.6037463 Z M31.1136705,16.3838317 L31.5586919,13.4170226 L39.4701827,14.6037463 L39.0251613,17.5705553 L31.1136705,16.3838317 Z M9,9 L9,15 L15,15 L15,9 L9,9 Z M6,6 L18,6 L18,18 L6,18 L6,6 Z M52,49.3046875 L49.3046875,52 L41.4140625,44.109375 L38.2109375,50.515625 L32,32 L50.515625,38.2109375 L44.109375,41.4140625 L52,49.3046875 Z M15,49 L15,55 L21,55 L21,49 L15,49 Z M49,15 L49,21 L55,21 L55,15 L49,15 Z" id="Shape" fill="#000000" fill-rule="nonzero"></path>
    </g>
</svg>