<?xml version="1.0" encoding="UTF-8"?>
<svg width="64px" height="64px" viewBox="0 0 64 64" version="1.1" xmlns="http://www.w3.org/2000/svg" xmlns:xlink="http://www.w3.org/1999/xlink">
    <!-- Generator: Sketch 52.6 (67491) - http://www.bohemiancoding.com/sketch -->
    <title>tool-eraser1</title>
    <desc>Created with Sketch.</desc>
    <g id="tool-eraser1" stroke="none" stroke-width="1" fill="none" fill-rule="evenodd">
        <g id="icon-tool-eraser1" transform="translate(8.000000, 6.000000)" fill="#000000" fill-rule="nonzero">
            <path d="M45.4736842,8.40718563 L35.6842105,1.24550898 C32.8421053,-0.778443114 29.2105263,-0.311377246 27.1578947,2.49101796 L1.42105263,35.497006 C-0.631578947,37.988024 -0.315789474,41.5688623 2.52631579,43.5928144 L12.3157895,50.754491 C15.1578947,52.7784431 18.7894737,52.3113772 20.8421053,49.508982 L46.5789474,16.502994 C48.6315789,14.011976 48.3157895,10.4311377 45.4736842,8.40718563 Z M19.5789474,45.4610778 L18,47.4850299 C17.5263158,47.9520958 16.7368421,48.2634731 15.9473684,48.2634731 C15.4736842,48.2634731 15.1578947,48.2634731 14.3684211,47.9520958 L4.57894737,40.7904192 C4.26315789,40.3233533 3.78947368,40.011976 3.78947368,39.0778443 C3.78947368,38.2994012 3.78947368,37.988024 4.26315789,37.5209581 L5.84210526,35.497006 C6.15789474,35.1856287 6.94736842,34.7185629 7.89473684,34.7185629 C8.21052632,34.7185629 8.68421053,34.7185629 9.47368421,35.1856287 L19.1052632,42.3473054 C19.5789474,42.8143713 19.8947368,43.1257485 19.8947368,43.9041916 C19.8947368,44.3712575 19.8947368,45.1497006 19.5789474,45.4610778 Z" id="Shape"></path>
        </g>
    </g>
</svg>