<?xml version="1.0" encoding="UTF-8"?>
<svg width="64px" height="64px" viewBox="0 0 64 64" version="1.1" xmlns="http://www.w3.org/2000/svg" xmlns:xlink="http://www.w3.org/1999/xlink">
    <!-- Generator: Sketch 52.6 (67491) - http://www.bohemiancoding.com/sketch -->
    <title>tool-object-polygon</title>
    <desc>Created with Sketch.</desc>
    <g id="tool-object-polygon" stroke="none" stroke-width="1" fill="none" fill-rule="evenodd">
        <g id="icon-tool-object-polygon" transform="translate(6.000000, 6.000000)" fill="#000000" fill-rule="nonzero">
            <path d="M12.0451977,33.8435754 C7.63841808,33.8435754 4.25988701,36.8938547 3.08474576,40.9608939 C3.08474576,41.6871508 3.08474576,42.122905 3.08474576,42.849162 C3.08474576,45.027933 3.81920904,47.2067039 5.72881356,49.0949721 C9.40112994,52.8715084 15.1299435,52.8715084 18.5084746,49.0949721 C18.8022599,48.8044693 18.8022599,48.8044693 19.2429379,48.3687151 C19.2429379,48.3687151 19.5367232,48.0782123 19.5367232,48.0782123 C19.5367232,47.6424581 19.9774011,47.6424581 19.9774011,47.2067039 C19.9774011,46.9162011 20.4180791,46.9162011 20.4180791,46.4804469 C20.4180791,46.1899441 20.7118644,46.1899441 20.7118644,45.7541899 C20.7118644,45.4636872 21.1525424,45.027933 21.1525424,44.7374302 C21.1525424,44.301676 21.1525424,44.301676 21.1525424,43.8659218 C21.1525424,43.575419 21.1525424,43.1396648 21.1525424,42.849162 C21.1525424,42.4134078 21.1525424,42.4134078 21.1525424,42.122905 C21.1525424,41.6871508 21.1525424,41.396648 21.1525424,40.9608939 C21.1525424,40.9608939 21.1525424,40.5251397 21.1525424,40.5251397 C19.9774011,36.8938547 16.1581921,33.8435754 12.0451977,33.8435754 Z M42.8926554,15.6871508 C38.3389831,15.6871508 34.960452,18.5921788 33.9322034,22.8044693 C33.9322034,23.5307263 33.9322034,23.8212291 33.9322034,24.547486 C33.9322034,26.8715084 34.6666667,29.0502793 36.5762712,30.9385475 C40.2485876,34.5698324 45.9774011,34.5698324 49.3559322,30.9385475 C49.6497175,30.5027933 49.6497175,30.5027933 50.0903955,30.2122905 C50.0903955,30.2122905 50.3841808,29.7765363 50.3841808,29.7765363 C50.3841808,29.4860335 50.8248588,29.4860335 50.8248588,29.0502793 C50.8248588,28.6145251 51.2655367,28.6145251 51.2655367,28.3240223 C51.2655367,27.8882682 51.559322,27.8882682 51.559322,27.5977654 C51.559322,27.1620112 52,26.8715084 52,26.4357542 C52,26.1452514 52,26.1452514 52,25.7094972 C52,25.273743 52,24.9832402 52,24.547486 C52,24.2569832 52,24.2569832 52,23.8212291 C52,23.5307263 52,23.0949721 52,22.8044693 C52,22.8044693 52,22.3687151 52,22.3687151 C51.2655367,18.5921788 47.4463277,15.6871508 42.8926554,15.6871508 Z M8.66666667,0 C4.55367232,0 0.734463277,3.05027933 0,7.11731844 C0,7.84357542 0,8.27932961 0,9.00558659 C0,11.1843575 0.734463277,13.5083799 2.6440678,15.2513966 C6.46327684,19.027933 12.0451977,19.027933 15.4237288,15.2513966 C15.4237288,14.9608939 15.8644068,14.9608939 15.8644068,14.5251397 C15.8644068,14.5251397 16.1581921,14.2346369 16.1581921,14.2346369 C16.1581921,13.7988827 16.5988701,13.7988827 16.5988701,13.5083799 C16.5988701,13.0726257 17.039548,13.0726257 17.039548,12.6368715 C17.039548,12.3463687 17.3333333,12.3463687 17.3333333,11.9106145 C17.3333333,11.6201117 17.7740113,11.1843575 17.7740113,10.8938547 C17.7740113,10.4581006 17.7740113,10.4581006 17.7740113,10.0223464 C17.7740113,9.73184358 17.7740113,9.29608939 17.7740113,9.00558659 C17.7740113,8.5698324 17.7740113,8.5698324 17.7740113,8.27932961 C17.7740113,7.84357542 17.7740113,7.55307263 17.7740113,7.11731844 C17.7740113,7.11731844 17.7740113,6.68156425 17.7740113,6.68156425 C17.039548,3.05027933 13.220339,0 8.66666667,0 Z M20.8587571,35.150838 L25.1186441,32.6815642 L27.7627119,37.1843575 L23.5028249,39.6536313 L20.8587571,35.150838 Z M27.1751412,31.2290503 L31.4350282,28.6145251 L34.2259887,33.1173184 L29.9661017,35.5865922 L27.1751412,31.2290503 Z M20.8587571,11.0391061 L26,13.2178771 L23.9435028,18.0111732 L18.8022599,15.8324022 L20.8587571,11.0391061 Z M28.6440678,14.3798883 L34.2259887,16.7039106 L32.1694915,21.4972067 L26.5875706,19.1731844 L28.6440678,14.3798883 Z M12.3389831,19.6089385 L12.6327684,24.8379888 L7.34463277,25.1284916 L7.05084746,19.8994413 L12.3389831,19.6089385 Z M13.0734463,26.8715084 L13.220339,31.3743017 L7.93220339,31.6648045 L7.78531073,27.1620112 L13.0734463,26.8715084 Z" id="Shape"></path>
        </g>
    </g>
</svg>