<?xml version="1.0" encoding="UTF-8"?>
<svg width="64px" height="64px" viewBox="0 0 64 64" version="1.1" xmlns="http://www.w3.org/2000/svg" xmlns:xlink="http://www.w3.org/1999/xlink">
    <!-- Generator: Sketch 55.2 (78181) - https://sketchapp.com -->
    <title>tool-multi-point</title>
    <desc>Created with Sketch.</desc>
    <g id="tool-multi-point" stroke="none" stroke-width="1" fill="none" fill-rule="evenodd">
        <path d="M25.5,42.0485437 C25.5,44.7669903 23.2669903,47 20.5485437,47 C17.7330097,47 15.5,44.7669903 15.5,42.0485437 C15.5,39.2330097 17.7330097,37 20.5485437,37 C23.2669903,37 25.5,39.2330097 25.5,42.0485437 Z M45.5,42.0485437 C45.5,44.7669903 43.2669903,47 40.5485437,47 C37.7330097,47 35.5,44.7669903 35.5,42.0485437 C35.5,39.2330097 37.7330097,37 40.5485437,37 C43.2669903,37 45.5,39.2330097 45.5,42.0485437 Z M35.5,22.0485437 C35.5,24.7669903 33.2669903,27 30.5485437,27 C27.7330097,27 25.5,24.7669903 25.5,22.0485437 C25.5,19.2330097 27.7330097,17 30.5485437,17 C33.2669903,17 35.5,19.2330097 35.5,22.0485437 Z" id="Combined-Shape" fill="#000000" transform="translate(30.500000, 32.000000) rotate(-90.000000) translate(-30.500000, -32.000000) "></path>
    </g>
</svg>