<?xml version="1.0" encoding="UTF-8"?>
<svg width="64px" height="64px" viewBox="0 0 64 64" version="1.1" xmlns="http://www.w3.org/2000/svg" xmlns:xlink="http://www.w3.org/1999/xlink">
    <!-- Generator: Sketch 52.6 (67491) - http://www.bohemiancoding.com/sketch -->
    <title>tool-object-polygon-empty</title>
    <desc>Created with Sketch.</desc>
    <g id="tool-object-polygon-empty" stroke="none" stroke-width="1" fill="none" fill-rule="evenodd">
        <g id="icon-tool-object-polygon-empty" transform="translate(6.000000, 6.000000)" fill="#000000" fill-rule="nonzero">
            <path d="M11.8116343,33.9444444 C7.34626039,33.9444444 3.60110803,36.9777778 2.88088643,41.0222222 C2.88088643,41.7444444 2.88088643,42.1777778 2.88088643,42.9 C2.88088643,45.0666667 3.60110803,47.6666667 5.47368421,49.1111111 C9.21883657,52.8666667 14.6925208,52.8666667 18.4376731,49.1111111 C18.7257618,48.8222222 18.7257618,48.8222222 19.1578947,48.3888889 C19.1578947,48.3888889 19.4459834,48.1 19.4459834,48.1 C19.4459834,47.6666667 19.8781163,47.6666667 19.8781163,47.2333333 C19.8781163,46.9444444 20.3102493,46.9444444 20.3102493,46.5111111 C20.3102493,46.2222222 20.598338,46.2222222 20.598338,45.7888889 C20.598338,45.5 21.0304709,45.0666667 21.0304709,44.7777778 C21.0304709,44.3444444 21.0304709,44.3444444 21.0304709,43.9111111 C21.0304709,43.6222222 21.0304709,43.1888889 21.0304709,42.9 C21.0304709,42.4666667 21.0304709,42.4666667 21.0304709,42.1777778 C21.0304709,41.7444444 21.0304709,41.4555556 21.0304709,41.0222222 C21.0304709,41.0222222 21.0304709,40.5888889 21.0304709,40.5888889 C19.8781163,36.9777778 16.132964,33.9444444 11.8116343,33.9444444 Z M15.4127424,46.5111111 C13.2520776,48.8222222 10.2271468,48.8222222 8.06648199,46.5111111 C5.90581717,44.3444444 5.90581717,41.0222222 8.06648199,39.1444444 C10.2271468,36.9777778 13.2520776,36.9777778 15.4127424,39.1444444 C17.7174515,41.4555556 17.7174515,44.7777778 15.4127424,46.5111111 Z M42.7811634,15.8888889 C38.3157895,15.8888889 34.5706371,18.7777778 33.8504155,22.9666667 C33.8504155,23.6888889 33.8504155,23.9777778 33.8504155,24.7 C33.8504155,27.0111111 34.5706371,29.6111111 36.4432133,31.0555556 C40.1883657,34.6666667 45.6620499,34.6666667 49.4072022,31.0555556 C49.6952909,30.6222222 49.6952909,30.6222222 50.1274238,30.3333333 C50.1274238,30.3333333 50.5595568,29.9 50.5595568,29.9 C50.5595568,29.6111111 50.8476454,29.6111111 50.8476454,29.1777778 C50.8476454,28.7444444 51.2797784,28.7444444 51.2797784,28.4555556 C51.2797784,28.0222222 51.567867,28.0222222 51.567867,27.7333333 C51.567867,27.3 52,27.0111111 52,26.5777778 C52,26.2888889 52,26.2888889 52,25.8555556 C52,25.4222222 52,25.1333333 52,24.7 C52,24.4111111 52,24.4111111 52,23.9777778 C52,23.6888889 52,23.2555556 52,22.9666667 C52,22.9666667 52,22.5333333 52,22.5333333 C50.5595568,18.7777778 46.8144044,15.8888889 42.7811634,15.8888889 Z M46.3822715,28.4555556 C44.2216066,30.6222222 41.3407202,30.6222222 39.0360111,28.4555556 C36.8753463,26.2888889 36.8753463,22.9666667 39.0360111,21.0888889 C41.3407202,18.7777778 44.2216066,18.7777778 46.3822715,21.0888889 C48.2548476,23.2555556 48.2548476,26.5777778 46.3822715,28.4555556 Z M8.7867036,0 C4.46537396,0 0.720221607,2.88888889 0,7.36666667 C0,8.08888889 0,8.52222222 0,9.24444444 C0,11.4111111 0.720221607,14.0111111 2.59279778,15.4555556 C6.19390582,19.2111111 11.8116343,19.2111111 15.4127424,15.4555556 C15.4127424,15.1666667 15.8448753,15.1666667 15.8448753,14.7333333 C15.8448753,14.7333333 16.132964,14.4444444 16.132964,14.4444444 C16.132964,14.0111111 16.565097,14.0111111 16.565097,13.7222222 C16.565097,13.2888889 16.9972299,13.2888889 16.9972299,12.8555556 C16.9972299,12.5666667 17.2853186,12.5666667 17.2853186,12.1333333 C17.2853186,11.8444444 17.7174515,11.4111111 17.7174515,11.1222222 C17.7174515,10.6888889 17.7174515,10.6888889 17.7174515,10.2555556 C17.7174515,9.96666667 17.7174515,9.53333333 17.7174515,9.24444444 C17.7174515,8.81111111 17.7174515,8.81111111 17.7174515,8.52222222 C17.7174515,8.08888889 17.7174515,7.8 17.7174515,7.36666667 C17.7174515,7.36666667 17.7174515,6.93333333 17.7174515,6.93333333 C16.9972299,2.88888889 13.2520776,0 8.7867036,0 Z M12.531856,12.8555556 C10.6592798,14.7333333 7.34626039,14.7333333 5.18559557,12.8555556 C2.88088643,10.6888889 2.88088643,7.36666667 5.18559557,5.48888889 C7.34626039,3.32222222 10.2271468,3.32222222 12.531856,5.48888889 C14.6925208,7.36666667 14.6925208,10.6888889 12.531856,12.8555556 Z M20.7423823,35.2444444 L24.9196676,32.7888889 L27.5124654,37.2666667 L23.3351801,39.7222222 L20.7423823,35.2444444 Z M26.9362881,31.3444444 L31.1135734,28.7444444 L33.7063712,33.2222222 L29.6731302,35.6777778 L26.9362881,31.3444444 Z M20.7423823,10.9777778 L26.2160665,13.1444444 L24.3434903,17.9111111 L18.8698061,15.7444444 L20.7423823,10.9777778 Z M28.5207756,14.3 L33.9944598,16.4666667 L31.9778393,21.2333333 L26.5041551,19.0666667 L28.5207756,14.3 Z M12.6759003,19.5 L12.9639889,24.7 L7.77839335,24.9888889 L7.49030471,19.7888889 L12.6759003,19.5 Z M12.9639889,27.1555556 L13.2520776,31.6333333 L8.06648199,31.9222222 L7.77839335,27.4444444 L12.9639889,27.1555556 Z" id="Shape"></path>
        </g>
    </g>
</svg>