<?xml version="1.0" encoding="UTF-8"?>
<svg width="64px" height="64px" viewBox="0 0 64 64" version="1.1" xmlns="http://www.w3.org/2000/svg" xmlns:xlink="http://www.w3.org/1999/xlink">
    <!-- Generator: Sketch 52.6 (67491) - http://www.bohemiancoding.com/sketch -->
    <title>tool-object-line</title>
    <desc>Created with Sketch.</desc>
    <g id="tool-object-line" stroke="none" stroke-width="1" fill="none" fill-rule="evenodd">
        <g id="icon-tool-object-line" transform="translate(6.000000, 6.000000)" fill="#000000" fill-rule="nonzero">
            <path d="M8.79083095,33.7777778 C4.61891117,33.7777778 0.893982808,36.7407407 0,40.8888889 C0,41.7777778 0,42.0740741 0,42.8148148 C0,45.1851852 0.893982808,47.4074074 2.68194842,49.3333333 C6.10888252,52.7407407 11.9197708,52.7407407 15.6446991,49.3333333 C15.3467049,48.5925926 15.6446991,48.5925926 16.0916905,48.1481481 C16.0916905,48.1481481 16.0916905,47.7037037 16.5386819,47.7037037 C16.5386819,47.4074074 16.8366762,47.4074074 16.8366762,46.962963 C16.8366762,46.6666667 17.2836676,46.6666667 17.2836676,46.2222222 C17.2836676,45.9259259 17.5816619,45.9259259 17.5816619,45.4814815 C17.5816619,45.1851852 18.0286533,44.7407407 18.0286533,44.2962963 C18.0286533,44 18.0286533,44 18.0286533,43.5555556 C18.0286533,43.2592593 18.0286533,42.8148148 18.0286533,42.5185185 C18.0286533,42.0740741 18.0286533,42.0740741 18.0286533,41.7777778 C18.0286533,41.3333333 18.0286533,40.8888889 18.0286533,40.5925926 C18.0286533,40.5925926 18.0286533,40.1481481 18.0286533,40.1481481 C16.8366762,36.7407407 13.1117479,33.7777778 8.79083095,33.7777778 Z M42.4641834,0 C38.1432665,0 34.4183381,2.96296296 33.6733524,7.25925926 C33.6733524,8 33.6733524,8.2962963 33.6733524,9.03703704 C33.6733524,11.4074074 34.4183381,13.6296296 36.3553009,15.5555556 C39.782235,18.962963 45.4441261,18.962963 49.3180516,15.5555556 C49.6160458,15.1111111 49.6160458,15.1111111 50.0630372,14.8148148 C50.0630372,14.8148148 50.0630372,14.3703704 50.3610315,14.3703704 C50.3610315,14.0740741 50.8080229,14.0740741 50.8080229,13.6296296 C50.8080229,13.3333333 51.2550143,13.3333333 51.2550143,12.8888889 C51.2550143,12.4444444 51.5530086,12.4444444 51.5530086,12.1481481 C51.5530086,11.7037037 52,11.4074074 52,10.962963 C52,10.6666667 52,10.6666667 52,10.2222222 C52,9.77777778 52,9.48148148 52,9.03703704 C52,8.74074074 52,8.74074074 52,8.2962963 C52,8 52,7.55555556 52,7.25925926 C52,7.25925926 52,6.81481481 52,6.81481481 C50.3610315,2.96296296 46.6361032,0 42.4641834,0 Z M15.7936963,31.8518519 L19.5186246,28.1481481 L23.243553,31.8518519 L19.5186246,35.5555556 L15.7936963,31.8518519 Z M21.9025788,25.7777778 L25.6275072,22.0740741 L29.5014327,25.7777778 L25.6275072,29.6296296 L21.9025788,25.7777778 Z M27.8624642,19.7037037 L31.7363897,16 L35.4613181,19.7037037 L31.7363897,23.4074074 L27.8624642,19.7037037 Z" id="Shape"></path>
        </g>
    </g>
</svg>