<?xml version="1.0" encoding="UTF-8"?>
<svg width="64px" height="64px" viewBox="0 0 64 64" version="1.1" xmlns="http://www.w3.org/2000/svg" xmlns:xlink="http://www.w3.org/1999/xlink">
    <!-- Generator: Sketch 52.6 (67491) - http://www.bohemiancoding.com/sketch -->
    <title>tool-siccors</title>
    <desc>Created with Sketch.</desc>
    <g id="tool-siccors" stroke="none" stroke-width="1" fill="none" fill-rule="evenodd">
        <g id="icon-tool-siccors" transform="translate(9.000000, 6.000000)" fill="#000000" fill-rule="nonzero">
            <path d="M19.4036364,24.7539936 C16.0581818,20.600639 12.5454545,15.9488818 9.70181818,11.629393 C7.52727273,9.46964856 6.18909091,7.30990415 6.69090909,4.31948882 C6.69090909,3.98722045 6.69090909,3.48881789 6.69090909,3.15654952 C7.52727273,2.32587859 8.36363636,1.49520767 8.69818182,0.498402556 C9.70181818,0.996805112 10.8727273,1.49520767 11.3745455,2.32587859 C15.5563636,7.80830671 19.4036364,13.2907348 23.7527273,18.7731629 C25.9272727,15.9488818 28.1018182,12.9584665 30.1090909,9.96805112 C32.2836364,6.97763578 34.4581818,3.98722045 36.6327273,1.49520767 C37.8036364,-0.332268371 38.3054545,-0.332268371 39.6436364,1.49520767 C41.3163636,3.98722045 41.3163636,6.47923323 39.6436364,8.63897764 C37.8036364,11.629393 35.2945455,14.6198083 33.12,17.6102236 C31.4472727,20.1022364 29.2727273,22.2619808 27.6,24.7539936 C29.2727273,27.4121406 31.4472727,29.9041534 33.12,32.3961661 C33.6218182,32.8945687 34.4581818,33.3929712 34.96,32.8945687 C38.8072727,31.5654952 43.4909091,34.2236422 45.1636364,38.0447284 C46.8363636,41.8658147 46,46.5175719 42.6545455,49.5079872 C39.6436364,52 34.96,52.4984026 31.4472727,50.3386581 C28.1018182,48.1789137 26.2618182,43.5271565 27.6,39.2076677 C28.1018182,38.0447284 28.1018182,37.2140575 27.0981818,36.2172524 C25.9272727,34.5559105 24.2545455,32.8945687 22.9163636,30.7348243 C21.2436364,32.8945687 19.4036364,35.3865815 17.7309091,37.5463259 C17.3963636,38.0447284 17.7309091,38.8753994 18.2327273,39.2076677 C19.9054545,44.3578275 16.8945455,49.8402556 11.7090909,51.6677316 C6.69090909,52.8306709 1.50545455,49.5079872 0.167272727,44.3578275 C-1.00363636,38.0447284 4.51636364,32.0638978 10.8727273,33.3929712 C12.2109091,33.7252396 12.5454545,33.3929712 13.5490909,32.3961661 C15.5563636,29.9041534 17.3963636,27.4121406 19.4036364,24.7539936 Z M37.4690909,46.8498403 C39.9781818,46.8498403 42.1527273,44.85623 42.1527273,42.1980831 C42.1527273,39.7060703 39.9781818,37.5463259 37.4690909,37.5463259 C34.96,37.5463259 32.7854545,39.7060703 32.7854545,42.1980831 C32.7854545,44.85623 34.96,46.8498403 37.4690909,46.8498403 Z M10.0363636,46.8498403 C12.5454545,46.8498403 14.72,44.85623 14.72,42.1980831 C14.72,39.7060703 12.5454545,37.5463259 10.0363636,37.5463259 C7.52727273,37.5463259 5.35272727,39.7060703 5.35272727,42.1980831 C5.35272727,44.85623 7.52727273,46.8498403 10.0363636,46.8498403 Z M26.2618182,25.2523962 C25.9272727,23.5910543 25.0909091,22.2619808 23.7527273,22.7603834 C22.9163636,22.7603834 22.08,23.9233227 21.5781818,24.7539936 C21.5781818,26.0830671 22.4145455,26.913738 23.7527273,26.913738 C24.5890909,26.5814696 25.4254545,25.5846645 26.2618182,25.2523962 Z" id="Shape"></path>
        </g>
    </g>
</svg>