<?xml version="1.0" encoding="UTF-8"?>
<svg width="64px" height="64px" viewBox="0 0 64 64" version="1.1" xmlns="http://www.w3.org/2000/svg" xmlns:xlink="http://www.w3.org/1999/xlink">
    <!-- Generator: Sketch 54.1 (76490) - https://sketchapp.com -->
    <title>tool-polygon-alt</title>
    <desc>Created with Sketch.</desc>
    <g id="tool-polygon-alt" stroke="none" stroke-width="1" fill="none" fill-rule="evenodd">
        <path d="M22.4917021,44.000047 L27.0373102,41.7272429 L29.7205918,47.0938061 L25.1752817,49.3664611 C25.1916577,49.5754866 25.2,49.7867691 25.2,50 C25.2,54.418278 21.618278,58 17.2,58 C12.781722,58 9.2,54.418278 9.2,50 C9.2,46.6426224 11.2681697,43.7682918 14.2,42.581517 L14.2,34.5651139 L20.2,34.5651139 L20.2,42.581517 C21.0453219,42.9236946 21.8188462,43.4061616 22.4917021,44.000047 Z M22.4917021,19.999953 C21.8188462,20.5938384 21.0453219,21.0763054 20.2,21.418483 L20.2,29.5651139 L14.2,29.5651139 L14.2,21.418483 C11.2681697,20.2317082 9.2,17.3573776 9.2,14 C9.2,9.581722 12.781722,6 17.2,6 C21.618278,6 25.2,9.581722 25.2,14 C25.2,14.2132309 25.1916577,14.4245134 25.1752817,14.6335389 L29.2747671,16.6832816 L26.5914855,22.0498447 L22.4917021,19.999953 Z M44.4800293,24.2859127 L41.7967478,29.6524758 L31.0636215,24.2859127 L33.746903,18.9193496 L44.4800293,24.2859127 Z M34.1927278,44.8577381 L31.5094462,39.4911749 L42.2425725,34.1246118 L44.925854,39.4911749 L34.1927278,44.8577381 Z M53,40 C48.581722,40 45,36.418278 45,32 C45,27.581722 48.581722,24 53,24 C57.418278,24 61,27.581722 61,32 C61,36.418278 57.418278,40 53,40 Z" fill="#000000" fill-rule="nonzero"></path>
    </g>
</svg>