<?xml version="1.0" encoding="UTF-8"?>
<svg width="64px" height="64px" viewBox="0 0 64 64" version="1.1" xmlns="http://www.w3.org/2000/svg" xmlns:xlink="http://www.w3.org/1999/xlink">
    <!-- Generator: Sketch 52.6 (67491) - http://www.bohemiancoding.com/sketch -->
    <title>tool-line</title>
    <desc>Created with Sketch.</desc>
    <g id="tool-line" stroke="none" stroke-width="1" fill="none" fill-rule="evenodd">
        <g id="icon-tool-line" transform="translate(6.000000, 7.000000)" fill="#000000" fill-rule="nonzero">
            <path d="M52,6.88202247 C52,10.5337079 49.0326087,13.6235955 45.2173913,13.6235955 C41.4021739,13.6235955 38.2934783,10.5337079 38.2934783,6.88202247 C38.2934783,3.08988764 41.4021739,0 45.2173913,0 C49.0326087,0 52,3.08988764 52,6.88202247 Z M13.7065217,43.1179775 C13.7065217,46.9101124 10.5978261,50 6.7826087,50 C2.9673913,50 0,46.9101124 0,43.1179775 C0,39.3258427 2.9673913,36.2359551 6.7826087,36.2359551 C10.5978261,36.2359551 13.7065217,39.3258427 13.7065217,43.1179775 Z M35.0434783,14.747191 L36.8804348,16.8539326 L39.7065217,14.3258427 L37.5869565,12.2191011 L35.0434783,14.747191 Z M27.4130435,21.6292135 L29.673913,23.7359551 L34.3369565,19.1011236 L32.5,17.2752809 L27.4130435,21.6292135 Z M20.6304348,28.0898876 L22.75,29.7752809 L26.7065217,25.8426966 L24.8695652,24.0168539 L20.6304348,28.0898876 Z M13.7065217,34.8314607 L15.1195652,36.6573034 L19.7826087,32.3033708 L18.0869565,30.6179775 L13.7065217,34.8314607 Z" id="Shape"></path>
        </g>
    </g>
</svg>