<?xml version="1.0" encoding="UTF-8"?>
<svg width="64px" height="64px" viewBox="0 0 64 64" version="1.1" xmlns="http://www.w3.org/2000/svg" xmlns:xlink="http://www.w3.org/1999/xlink">
    <!-- Generator: Sketch 52.6 (67491) - http://www.bohemiancoding.com/sketch -->
    <title>tool-object-square</title>
    <desc>Created with Sketch.</desc>
    <g id="tool-object-square" stroke="none" stroke-width="1" fill="none" fill-rule="evenodd">
        <g id="icon-tool-object-square" transform="translate(6.000000, 6.000000)" fill="#000000" fill-rule="nonzero">
            <path d="M43.1489362,33.606383 C38.8617021,33.606383 34.9893617,36.787234 34.2978723,40.7978723 C34.2978723,41.4893617 34.2978723,41.7659574 33.8829787,42.4574468 C33.8829787,44.9468085 34.9893617,47.1595745 36.787234,48.8191489 C40.2446809,52.4148936 45.9148936,52.4148936 49.5106383,48.8191489 C49.9255319,48.5425532 49.9255319,48.5425532 50.2021277,48.1276596 C50.2021277,48.1276596 50.6170213,47.8510638 50.6170213,47.8510638 C50.6170213,47.4361702 50.893617,47.4361702 50.893617,47.1595745 C50.893617,46.7446809 51.3085106,46.7446809 51.3085106,46.3297872 C51.3085106,46.0531915 51.5851064,46.0531915 51.5851064,45.6382979 C51.5851064,45.3617021 52,44.9468085 52,44.6702128 C52,44.2553191 52,44.2553191 52,43.9787234 C52,43.5638298 52,43.1489362 52,42.8723404 C52,42.4574468 52,42.4574468 52,42.1808511 C52,41.7659574 52,41.4893617 52,41.0744681 C52,41.0744681 52,40.7978723 52,40.7978723 C50.893617,36.787234 47.4361702,33.606383 43.1489362,33.606383 Z M43.1489362,0 C38.8617021,0 34.9893617,3.18085106 34.2978723,7.05319149 C34.2978723,7.74468085 34.2978723,8.15957447 33.8829787,8.85106383 C33.8829787,11.3404255 34.9893617,13.4148936 36.787234,15.212766 C40.2446809,18.8085106 45.9148936,18.8085106 49.5106383,15.212766 C49.9255319,14.9361702 49.9255319,14.9361702 50.2021277,14.5212766 C50.2021277,14.5212766 50.6170213,14.2446809 50.6170213,14.2446809 C50.6170213,13.8297872 50.893617,13.8297872 50.893617,13.4148936 C50.893617,13.1382979 51.3085106,13.1382979 51.3085106,12.7234043 C51.3085106,12.4468085 51.5851064,12.4468085 51.5851064,12.0319149 C51.5851064,11.7553191 52,11.3404255 52,10.9255319 C52,10.6489362 52,10.6489362 52,10.2340426 C52,9.95744681 52,9.54255319 52,9.26595745 C52,8.85106383 52,8.85106383 52,8.57446809 C52,8.15957447 52,7.74468085 52,7.46808511 C52,7.46808511 52,7.05319149 52,7.05319149 C50.893617,2.90425532 47.4361702,0 43.1489362,0 Z M17.9787234,41.4893617 C17.9787234,41.4893617 17.9787234,41.0744681 17.9787234,41.0744681 C17.287234,36.787234 13.4148936,34.0212766 9.12765957,34.0212766 C4.84042553,34.0212766 0.968085106,37.2021277 0.276595745,41.0744681 C0.276595745,41.7659574 0.276595745,42.1808511 0,42.8723404 C0,45.3617021 0.968085106,47.4361702 2.76595745,49.2340426 C6.36170213,52.8297872 12.0319149,52.8297872 15.4893617,49.2340426 C15.9042553,48.8191489 15.9042553,48.8191489 16.1808511,48.5425532 C16.1808511,48.5425532 16.5957447,48.1276596 16.5957447,48.1276596 C16.5957447,47.8510638 16.8723404,47.8510638 16.8723404,47.4361702 C16.8723404,47.1595745 17.287234,47.1595745 17.287234,46.7446809 C17.287234,46.3297872 17.7021277,46.3297872 17.7021277,46.0531915 C17.7021277,45.6382979 17.9787234,45.3617021 17.9787234,44.9468085 C17.9787234,44.6702128 17.9787234,44.6702128 17.9787234,44.2553191 C17.9787234,43.9787234 17.9787234,43.5638298 17.9787234,43.1489362 C17.9787234,42.8723404 17.9787234,42.8723404 17.9787234,42.4574468 C18.393617,42.1808511 18.393617,41.7659574 17.9787234,41.4893617 Z M15.4893617,15.212766 C15.9042553,15.212766 16.1808511,14.9361702 16.1808511,14.5212766 C16.1808511,14.5212766 16.5957447,14.2446809 16.5957447,14.2446809 C16.5957447,13.8297872 16.8723404,13.8297872 16.8723404,13.4148936 C16.8723404,13.1382979 17.287234,13.1382979 17.287234,12.7234043 C17.287234,12.4468085 17.7021277,12.4468085 17.7021277,12.0319149 C17.7021277,11.7553191 17.9787234,11.3404255 17.9787234,10.9255319 C17.9787234,10.6489362 17.9787234,10.6489362 17.9787234,10.2340426 C17.9787234,9.95744681 17.9787234,9.54255319 17.9787234,9.26595745 C17.9787234,8.85106383 17.9787234,8.85106383 17.9787234,8.57446809 C17.9787234,8.15957447 17.9787234,7.74468085 17.9787234,7.46808511 C17.9787234,7.46808511 17.9787234,7.05319149 17.9787234,7.05319149 C17.287234,2.90425532 13.4148936,0 9.12765957,0 C4.84042553,0 1.38297872,2.90425532 0.276595745,7.05319149 C0.276595745,7.74468085 0.276595745,8.15957447 0,8.85106383 C0,11.3404255 0.968085106,13.4148936 2.76595745,15.212766 C6.36170213,18.8085106 12.0319149,18.8085106 15.4893617,15.212766 Z M6.63829787,27.2446809 L12.0319149,27.2446809 L12.0319149,31.5319149 L6.63829787,31.5319149 L6.63829787,27.2446809 Z M6.63829787,20.1914894 L12.0319149,20.1914894 L12.0319149,24.4787234 L6.63829787,24.4787234 L6.63829787,20.1914894 Z M40.2446809,27.2446809 L45.6382979,27.2446809 L45.6382979,31.5319149 L40.2446809,31.5319149 L40.2446809,27.2446809 Z M40.2446809,20.1914894 L45.6382979,20.1914894 L45.6382979,24.4787234 L40.2446809,24.4787234 L40.2446809,20.1914894 Z M20.4680851,6.36170213 L24.7553191,6.36170213 L24.7553191,11.7553191 L20.4680851,11.7553191 L20.4680851,6.36170213 Z M27.5212766,6.36170213 L31.8085106,6.36170213 L31.8085106,11.7553191 L27.5212766,11.7553191 L27.5212766,6.36170213 Z M20.4680851,39.9680851 L24.7553191,39.9680851 L24.7553191,45.3617021 L20.4680851,45.3617021 L20.4680851,39.9680851 Z M27.5212766,39.9680851 L31.8085106,39.9680851 L31.8085106,45.3617021 L27.5212766,45.3617021 L27.5212766,39.9680851 Z" id="Shape"></path>
        </g>
    </g>
</svg>