<?xml version="1.0" encoding="UTF-8"?>
<svg width="64px" height="64px" viewBox="0 0 64 64" version="1.1" xmlns="http://www.w3.org/2000/svg" xmlns:xlink="http://www.w3.org/1999/xlink">
    <!-- Generator: Sketch 52.6 (67491) - http://www.bohemiancoding.com/sketch -->
    <title>traffic-hump</title>
    <desc>Created with Sketch.</desc>
    <g id="traffic-hump" stroke="none" stroke-width="1" fill="none" fill-rule="evenodd">
        <g id="icon-traffic-hump" transform="translate(11.000000, 7.000000)" fill="#000000" fill-rule="nonzero">
            <path d="M16.2692308,39.1434879 C15.1153846,39.3730684 13.9615385,39.7174393 12.6923077,40.2913907 C12.6923077,39.9470199 12.6923077,39.7174393 12.6923077,39.3730684 C12.6923077,36.7328918 11.8846154,34.4370861 10.6153846,32.3708609 C9.80769231,30.8785872 8.88461538,29.3863135 7.96153846,27.8940397 C7.15384615,25.598234 6.57692308,23.5320088 6.57692308,21.1214128 C6.57692308,20.3178808 6.57692308,19.1699779 6.57692308,18.2516556 C6.57692308,16.1854305 6.57692308,14.4635762 6.57692308,12.397351 C6.57692308,12.0529801 6.57692308,11.4790287 6.57692308,11.1346578 C5.88461538,11.1346578 5.65384615,11.1346578 5.07692308,11.1346578 C3.57692308,11.1346578 2.07692308,11.1346578 0.576923077,11.1346578 C0.346153846,10.9050773 0,11.1346578 0,11.4790287 C0,14.6931567 0,18.2516556 0,21.4657837 C0,22.9580574 0.346153846,24.4503311 0.576923077,25.8278146 C1.5,28.4679912 2.65384615,31.2229581 4.15384615,33.8631347 C4.73076923,35.0110375 5.65384615,36.1589404 5.88461538,37.3068433 C6.23076923,38.2251656 6.23076923,39.3730684 6.23076923,40.2913907 C5.88461538,40.2913907 5.30769231,39.9470199 5.07692308,39.9470199 C4.15384615,39.7174393 3.23076923,39.3730684 2.42307692,39.1434879 C1.84615385,38.799117 1.15384615,39.1434879 1.15384615,39.7174393 C0.923076923,40.2913907 1.15384615,40.5209713 1.5,40.8653422 C2.42307692,42.013245 3,43.1611479 3.92307692,44.0794702 C5.30769231,46.1456954 6.80769231,48.2119205 8.30769231,50.2781457 C8.53846154,50.8520971 9.23076923,51.4260486 9.46153846,52 C9.46153846,51.7704194 9.80769231,51.7704194 9.80769231,51.7704194 C10.9615385,50.2781457 11.8846154,48.785872 13.0384615,47.0640177 C14.5384615,44.6534216 16.2692308,42.5871965 17.7692308,40.2913907 C17.7692308,39.9470199 18,39.7174393 18,39.7174393 C17.7692308,39.1434879 17.1923077,38.799117 16.2692308,39.1434879 Z M41.6538462,20.5474614 C39.3461538,17.1037528 36.9230769,13.7748344 34.6153846,10.3311258 C34.2692308,9.75717439 34.0384615,9.41280353 33.6923077,8.8388521 C33.1153846,9.75717439 32.5384615,10.3311258 32.1923077,11.1346578 C31.3846154,12.397351 30.4615385,13.5452539 29.5384615,15.0375276 C28.3846154,16.7593819 27.2307692,18.4812362 25.7307692,20.3178808 C25.3846154,20.8918322 25.3846154,21.1214128 25.7307692,21.8101545 C26.0769231,22.0397351 26.6538462,22.384106 26.8846154,22.0397351 C27.4615385,21.8101545 28.0384615,21.8101545 28.3846154,21.4657837 C28.9615385,21.1214128 29.8846154,21.1214128 30.4615385,20.8918322 C30.4615385,20.8918322 30.4615385,21.1214128 30.4615385,21.1214128 C30.4615385,22.9580574 29.8846154,24.6799117 28.9615385,26.1721854 C27.8076923,28.2384106 26.3076923,30.3046358 25.3846154,32.6004415 C24.5769231,35.0110375 24,37.0772627 24,39.7174393 C24,42.9315673 24,46.1456954 24,49.7041943 C24,49.9337748 24,49.9337748 24.2307692,49.9337748 C26.0769231,49.9337748 27.8076923,49.9337748 29.8846154,49.9337748 C29.8846154,49.9337748 30.1153846,49.9337748 30.1153846,49.9337748 C30.1153846,49.7041943 30.1153846,49.7041943 30.1153846,49.3598234 C30.1153846,46.1456954 30.1153846,43.1611479 30.1153846,39.9470199 C30.1153846,38.2251656 30.4615385,36.7328918 31.0384615,35.0110375 C31.6153846,32.9448124 32.7692308,31.2229581 34.0384615,29.3863135 C35.1923077,27.6644592 36.1153846,25.598234 36.3461538,23.5320088 C36.3461538,22.6136865 36.6923077,21.8101545 36.6923077,20.8918322 C36.9230769,20.8918322 37.5,21.1214128 37.8461538,21.1214128 C38.7692308,21.4657837 39.3461538,21.8101545 40.1538462,21.8101545 C40.5,21.8101545 41.0769231,21.8101545 41.4230769,21.1214128 C42,21.1214128 42,20.8918322 41.6538462,20.5474614 Z M25.3846154,0.573951435 C25.3846154,0.344370861 25.3846154,0 24.8076923,0 C21.3461538,0 18,0 14.5384615,0 C13.0384615,0 11.8846154,0 10.3846154,0 C10.3846154,0 10.3846154,0.344370861 10.3846154,0.344370861 C10.3846154,3.5584989 10.3846154,6.77262693 10.3846154,10.3311258 C10.3846154,12.397351 10.9615385,14.4635762 12.1153846,16.1854305 C13.2692308,17.6777042 15.1153846,19.1699779 16.8461538,20.3178808 C18,20.5474614 18.3461538,20.3178808 18.9230769,19.9735099 C20.0769231,19.1699779 21.3461538,18.2516556 22.5,17.3333333 C24.2307692,15.611479 25.3846154,13.5452539 25.3846154,11.1346578 C25.3846154,7.34657837 25.3846154,3.78807947 25.3846154,0.573951435 Z" id="Shape"></path>
        </g>
    </g>
</svg>