<?xml version="1.0" encoding="UTF-8"?>
<svg width="64px" height="64px" viewBox="0 0 64 64" version="1.1" xmlns="http://www.w3.org/2000/svg" xmlns:xlink="http://www.w3.org/1999/xlink">
    <!-- Generator: Sketch 52.6 (67491) - http://www.bohemiancoding.com/sketch -->
    <title>traffic-light-double</title>
    <desc>Created with Sketch.</desc>
    <g id="traffic-light-double" stroke="none" stroke-width="1" fill="none" fill-rule="evenodd">
        <g id="icon-traffic-light-double" transform="translate(12.000000, 7.000000)" fill="#000000" fill-rule="nonzero">
            <path d="M34.0869565,17.489842 C38.2608696,15.9638826 40,9.62528217 40,9.62528217 L34.0869565,9.62528217 L34.0869565,8.45146727 C34.0869565,3.87358916 30.2608696,0 25.8550725,0 L15.6521739,0 C11.2463768,0 7.42028986,3.87358916 7.42028986,8.45146727 L7.42028986,9.2731377 L0,9.2731377 C0,9.2731377 2.08695652,16.785553 7.42028986,17.489842 L7.42028986,26.1760722 L0,26.1760722 C0,26.1760722 2.08695652,33.6884876 7.42028986,34.275395 L7.42028986,39.3227991 C7.42028986,43.9006772 11.2463768,47.7742664 15.6521739,47.7742664 L16.9275362,47.7742664 L16.9275362,52 L24.5797101,52 L24.5797101,48.1264108 L25.8550725,48.1264108 C30.2608696,48.1264108 34.0869565,44.1354402 34.0869565,39.6749436 L34.0869565,34.6275395 C38.2608696,33.1015801 40,26.7629797 40,26.7629797 L34.0869565,26.7629797 L34.0869565,17.489842 Z M20.7536232,38.7358916 C17.1594203,38.7358916 14.4927536,35.8013544 14.4927536,32.5146727 C14.4927536,28.8758465 17.5072464,26.1760722 20.7536232,26.1760722 C24,26.1760722 27.0144928,29.1106095 27.0144928,32.5146727 C27.0144928,36.0361174 24.3478261,38.7358916 20.7536232,38.7358916 Z M20.7536232,21.3634312 C17.1594203,21.3634312 14.4927536,18.3115124 14.4927536,15.0248307 C14.4927536,11.3860045 17.5072464,8.68623025 20.7536232,8.68623025 C24,8.68623025 27.0144928,11.738149 27.0144928,15.0248307 C27.0144928,18.3115124 24.3478261,21.0112867 20.7536232,21.3634312 Z" id="Shape"></path>
        </g>
    </g>
</svg>