<?xml version="1.0" encoding="UTF-8"?>
<svg width="64px" height="64px" viewBox="0 0 64 64" version="1.1" xmlns="http://www.w3.org/2000/svg" xmlns:xlink="http://www.w3.org/1999/xlink">
    <!-- Generator: Sketch 52.6 (67491) - http://www.bohemiancoding.com/sketch -->
    <title>traffic-calming</title>
    <desc>Created with Sketch.</desc>
    <g id="traffic-calming" stroke="none" stroke-width="1" fill="none" fill-rule="evenodd">
        <g id="icon-traffic-calming" transform="translate(15.000000, 7.000000)" fill="#000000" fill-rule="nonzero">
            <path d="M6.8427673,16.804878 C6.8427673,18.1788618 6.62893082,19.2357724 5.77358491,20.2926829 L2.24528302,24.9430894 C0.855345912,27.0569106 0,29.804878 0,32.4471545 L0,52 L7.69811321,52 L7.69811321,32.4471545 C7.69811321,31.1788618 8.01886792,30.0162602 8.7672956,28.9593496 L12.2955975,24.4146341 C13.6855346,22.195122 14.5408805,19.5528455 14.5408805,16.804878 L14.5408805,0 L6.8427673,0 L6.8427673,16.804878 Z M31.754717,24.9430894 L28.2264151,20.2926829 C27.6918239,19.2357724 27.1572327,18.1788618 27.1572327,16.804878 L27.1572327,0 L19.4591195,0 L19.4591195,16.804878 C19.4591195,19.5528455 20.3144654,22.195122 21.7044025,24.4146341 L25.2327044,28.9593496 C25.7672956,30.0162602 26.3018868,31.1788618 26.3018868,32.4471545 L26.3018868,52 L34,52 L34,32.4471545 C34,29.804878 33.1446541,27.0569106 31.754717,24.9430894 Z" id="Shape"></path>
        </g>
    </g>
</svg>