<?xml version="1.0" encoding="UTF-8"?>
<svg width="64px" height="64px" viewBox="0 0 64 64" version="1.1" xmlns="http://www.w3.org/2000/svg" xmlns:xlink="http://www.w3.org/1999/xlink">
    <!-- Generator: Sketch 52.6 (67491) - http://www.bohemiancoding.com/sketch -->
    <title>traffic-chicane</title>
    <desc>Created with Sketch.</desc>
    <g id="traffic-chicane" stroke="none" stroke-width="1" fill="none" fill-rule="evenodd">
        <g id="icon-traffic-chicane" transform="translate(20.000000, 7.000000)" fill="#000000">
            <path d="M16.96,52 C14.1866667,52 12.0533333,52 9.6,52 C9.28,51.1369295 9.28,50.2738589 9.28,49.5186722 C9.28,48.1161826 8.53333333,47.0373444 7.36,46.1742739 C3.84,43.3692946 2.45333333,39.2697095 3.84,35.3858921 C4.90666667,32.3651452 7.14666667,30.746888 9.92,29.560166 C11.2,29.0207469 12.9066667,28.8049793 14.1866667,28.1576763 C14.8266667,27.9419087 15.5733333,27.4024896 15.5733333,27.0788382 C15.5733333,26.5394191 15.04,26 14.8266667,25.4605809 C14.1866667,24.9211618 13.6533333,24.9211618 13.12,24.3817427 C8.53333333,21.9004149 7.68,20.7136929 6.82666667,15.5352697 C4.69333333,15.5352697 2.77333333,15.5352697 0,15.5352697 C3.62666667,10.2489627 6.82666667,5.28630705 10.1333333,0 C13.44,5.28630705 16.7466667,10.2489627 19.9466667,15.5352697 C18.0266667,15.5352697 16.1066667,15.5352697 14.1866667,15.5352697 C14.8266667,17.153527 15.5733333,17.6929461 16.7466667,18.0165975 C19.7333333,18.7717842 22.1866667,20.7136929 23.2533333,23.8423237 C24.8533333,27.6182573 23.5733333,31.5020747 20.2666667,33.7676349 C18.3466667,34.846473 16.1066667,35.3858921 14.1866667,35.9253112 C13.9733333,35.9253112 13.44,35.9253112 13.12,35.9253112 C12.0533333,36.2489627 10.9866667,36.4647303 10.6666667,37.8672199 C10.4533333,38.9460581 11.2,39.8091286 12.3733333,40.3485477 C14.1866667,41.4273859 15.5733333,42.8298755 16.1066667,44.7717842 C16.4266667,47.253112 16.7466667,49.5186722 16.96,52 Z" id="Path"></path>
        </g>
    </g>
</svg>