<?xml version="1.0" encoding="UTF-8"?>
<svg width="64px" height="64px" viewBox="0 0 64 64" version="1.1" xmlns="http://www.w3.org/2000/svg" xmlns:xlink="http://www.w3.org/1999/xlink">
    <!-- Generator: Sketch 52.6 (67491) - http://www.bohemiancoding.com/sketch -->
    <title>traffic-light-triple</title>
    <desc>Created with Sketch.</desc>
    <g id="traffic-light-triple" stroke="none" stroke-width="1" fill="none" fill-rule="evenodd">
        <g id="icon-traffic-light-triple" transform="translate(14.000000, 7.000000)" fill="#000000" fill-rule="nonzero">
            <path d="M36,18.4911591 L30.0693642,18.4911591 L30.0693642,15.1198428 C34.3352601,14.0982318 36,8.27504912 36,8.27504912 L30.0693642,8.27504912 C29.8612717,3.57563851 26.6358382,0 22.6820809,0 L13.5260116,0 C9.57225434,0 6.13872832,3.57563851 6.13872832,8.27504912 L0,8.27504912 C0,8.27504912 1.87283237,14.6090373 6.34682081,15.4263261 L6.34682081,18.7976424 L0,18.7976424 C0,18.7976424 1.87283237,25.0294695 6.34682081,25.8467583 L6.34682081,29.7288802 L0,29.7288802 C0,29.7288802 1.87283237,36.0628684 6.34682081,36.8801572 L6.34682081,40.2514735 C6.34682081,44.9508841 9.88439306,48.8330059 13.8381503,48.8330059 L14.6705202,48.8330059 L14.6705202,52 L21.5375723,52 L21.5375723,48.6286837 L22.6820809,48.6286837 C26.6358382,48.6286837 30.0693642,44.6444008 30.0693642,39.9449902 L30.0693642,36.5736739 C34.3352601,35.5520629 36,29.7288802 36,29.7288802 L30.0693642,29.7288802 L30.0693642,25.540275 C34.3352601,24.3143418 36,18.4911591 36,18.4911591 Z M18.1040462,43.6227898 C14.8786127,43.6227898 12.4855491,40.9666012 12.4855491,38.1060904 C12.4855491,35.0412574 15.1907514,32.6915521 18.1040462,32.6915521 C21.017341,32.6915521 23.7225434,35.2455796 23.7225434,38.1060904 C23.7225434,40.9666012 21.3294798,43.4184676 18.1040462,43.6227898 Z M18.1040462,29.524558 C14.8786127,29.524558 12.4855491,26.8683694 12.4855491,24.0078585 C12.4855491,20.8408644 15.1907514,18.4911591 18.1040462,18.4911591 C21.017341,18.4911591 23.7225434,21.1473477 23.7225434,24.0078585 C23.7225434,26.8683694 21.3294798,29.2180747 18.1040462,29.524558 Z M18.1040462,15.4263261 C15.1907514,15.4263261 12.4855491,12.7701375 12.4855491,9.60314342 C12.4855491,6.53831041 15.1907514,4.18860511 18.1040462,4.18860511 C21.017341,4.18860511 23.7225434,6.74263261 23.7225434,9.60314342 C23.7225434,12.7701375 21.3294798,15.1198428 18.1040462,15.4263261 Z" id="Shape"></path>
        </g>
    </g>
</svg>