<?xml version="1.0" encoding="UTF-8"?>
<svg width="64px" height="64px" viewBox="0 0 64 64" version="1.1" xmlns="http://www.w3.org/2000/svg" xmlns:xlink="http://www.w3.org/1999/xlink">
    <!-- Generator: Sketch 52.6 (67491) - http://www.bohemiancoding.com/sketch -->
    <title>train</title>
    <desc>Created with Sketch.</desc>
    <g id="train" stroke="none" stroke-width="1" fill="none" fill-rule="evenodd">
        <g id="icon-train" transform="translate(8.000000, 10.000000)" fill="#000000" fill-rule="nonzero">
            <path d="M40.3776824,40.6232558 C40.3776824,42.3627907 38.9356223,43.6930233 37.1845494,43.6930233 C35.4334764,43.6930233 33.9914163,42.3627907 33.9914163,40.6232558 C33.9914163,38.8837209 35.4334764,37.4511628 37.1845494,37.4511628 C38.9356223,37.4511628 40.3776824,38.8837209 40.3776824,40.6232558 Z M47.4849785,40.6232558 C47.4849785,42.3627907 46.0429185,43.6930233 44.2918455,43.6930233 C42.5407725,43.6930233 41.0987124,42.3627907 41.0987124,40.6232558 C41.0987124,38.8837209 42.5407725,37.4511628 44.2918455,37.4511628 C46.0429185,37.4511628 47.4849785,38.8837209 47.4849785,40.6232558 Z M48,33.255814 L45.8369099,33.255814 L45.8369099,23.0232558 L43.2618026,23.0232558 C43.2618026,23.0232558 42.9527897,21.4883721 44.0858369,21.4883721 C44.0858369,21.1813953 44.0858369,19.9534884 44.0858369,19.9534884 L37.6995708,19.9534884 C37.6995708,19.9534884 37.6995708,21.1813953 37.6995708,21.4883721 C38.7296137,21.4883721 38.5236052,23.0232558 38.5236052,23.0232558 L25.8540773,23.0232558 C25.8540773,23.0232558 26.0600858,21.1813953 24.3090129,19.9534884 L21.3218884,19.9534884 C19.4678112,21.1813953 19.776824,23.0232558 19.776824,23.0232558 L11.3304721,23.0232558 L11.3304721,19.9534884 L2.16309013,19.9534884 L2.16309013,23.8418605 L5.56223176,23.8418605 L5.56223176,29.8790698 L0,29.8790698 L0,36.9395349 L2.16309013,36.9395349 C1.85407725,37.4511628 1.54506438,38.2697674 1.54506438,38.9860465 C1.54506438,41.9534884 3.91416309,44 6.59227468,44 C9.47639485,44 11.639485,41.6465116 11.639485,38.9860465 C11.639485,38.2697674 11.3304721,37.7581395 11.1244635,36.9395349 L12.6695279,36.9395349 C12.360515,37.4511628 12.1545064,38.2697674 12.1545064,38.9860465 C12.1545064,41.9534884 14.5236052,44 17.0987124,44 C20.0858369,44 22.1459227,41.6465116 22.1459227,38.9860465 C22.1459227,38.2697674 21.9399142,37.7581395 21.6309013,36.9395349 L23.1759657,36.9395349 C22.9699571,37.4511628 22.6609442,38.2697674 22.6609442,38.9860465 C22.6609442,41.9534884 25.0300429,44 27.7081545,44 C30.5922747,44 32.6523605,41.6465116 32.6523605,38.9860465 C32.6523605,38.2697674 32.4463519,37.7581395 32.1373391,36.9395349 L47.1759657,36.9395349 L47.1759657,33.255814 L48,33.255814 Z M33.7854077,6.24186047 C32.6523605,4.19534884 30.2832618,2.86511628 27.9141631,2.86511628 C27.7081545,2.86511628 27.3991416,2.86511628 27.193133,2.86511628 C25.8540773,1.02325581 24,0 21.6309013,0 C17.9227468,0 14.7296137,3.17209302 14.7296137,6.85581395 C14.7296137,10.4372093 17.9227468,13.6093023 21.6309013,13.6093023 C22.1459227,13.6093023 22.6609442,13.6093023 23.4849785,13.4046512 C24.5150215,14.6325581 26.3690987,15.4511628 28.223176,15.4511628 C29.2532189,15.4511628 30.0772532,15.144186 30.9012876,14.9395349 C31.6223176,16.2697674 32.9613734,16.9860465 34.5064378,16.9860465 C35.3304721,16.9860465 36.360515,16.7813953 36.8755365,16.2697674 C36.8755365,16.2697674 37.4935622,15.9627907 38.0085837,15.9627907 C38.5236052,15.9627907 39.2446352,16.7813953 39.2446352,16.9860465 C39.2446352,17.2930233 39.2446352,19.6465116 39.2446352,19.6465116 L42.4377682,19.6465116 C42.4377682,19.6465116 43.776824,9.72093023 33.7854077,6.24186047 Z" id="Shape"></path>
        </g>
    </g>
</svg>