<?xml version="1.0" encoding="UTF-8"?>
<svg width="64px" height="64px" viewBox="0 0 64 64" version="1.1" xmlns="http://www.w3.org/2000/svg" xmlns:xlink="http://www.w3.org/1999/xlink">
    <!-- Generator: Sketch 52.6 (67491) - http://www.bohemiancoding.com/sketch -->
    <title>transport-car</title>
    <desc>Created with Sketch.</desc>
    <g id="transport-car" stroke="none" stroke-width="1" fill="none" fill-rule="evenodd">
        <g id="icon-transport-car" transform="translate(6.000000, 20.000000)" fill="#000000" fill-rule="nonzero">
            <path d="M44.5714286,14.4742268 C42.0140515,14.4742268 39.8220141,16.7010309 39.8220141,19.2989691 C39.8220141,21.7731959 42.0140515,24 44.5714286,24 C47.0070258,24 49.1990632,21.7731959 49.1990632,19.2989691 C49.1990632,16.7010309 47.0070258,14.4742268 44.5714286,14.4742268 Z M44.5714286,21.7731959 C43.2318501,21.7731959 42.0140515,20.5360825 42.0140515,19.2989691 C42.0140515,18.0618557 43.2318501,16.7010309 44.5714286,16.7010309 C45.7892272,16.7010309 47.0070258,18.0618557 47.0070258,19.2989691 C47.0070258,20.5360825 46.0327869,21.7731959 44.5714286,21.7731959 Z M11.2037471,14.4742268 C8.64637002,14.4742268 6.45433255,16.7010309 6.45433255,19.2989691 C6.45433255,21.7731959 8.64637002,24 11.2037471,24 C13.6393443,24 15.8313817,21.7731959 15.8313817,19.2989691 C15.8313817,16.7010309 13.6393443,14.4742268 11.2037471,14.4742268 Z M11.2037471,21.7731959 C9.86416862,21.7731959 8.64637002,20.5360825 8.64637002,19.2989691 C8.64637002,18.0618557 9.86416862,16.7010309 11.2037471,16.7010309 C12.4215457,16.7010309 13.6393443,18.0618557 13.6393443,19.2989691 C13.6393443,20.5360825 12.6651054,21.7731959 11.2037471,21.7731959 Z M9.6206089,3.46391753 C11.8126464,1.2371134 14.0046838,0 17.0491803,0 L28.618267,0 C30.2014052,0 31.4192037,0.618556701 32.3934426,1.8556701 L36.7775176,8.16494845 L51.0257611,10.3917526 C51.6346604,10.7628866 52,11.3814433 52,12.2474227 L52,17.0721649 C52,18.3092784 51.0257611,19.2989691 50.1733021,19.2989691 C50.1733021,16.4536082 47.9812646,13.8556701 44.8149883,13.8556701 C42.0140515,13.8556701 39.5784543,16.0824742 39.5784543,19.2989691 C39.5784543,19.5463918 39.5784543,19.5463918 39.5784543,19.9175258 L16.440281,19.9175258 L16.440281,19.5463918 C16.440281,16.7010309 14.2482436,14.4742268 11.4473068,14.2268041 C8.64637002,14.2268041 6.21077283,16.4536082 6.21077283,19.5463918 L6.21077283,19.9175258 L0,19.5463918 L0,11.3814433 C0,10.7628866 0.243559719,10.3917526 0.852459016,10.3917526 L1.46135831,10.3917526 C2.80093677,10.1443299 3.65339578,9.40206186 4.87119438,8.16494845 L9.6206089,3.46391753 Z M20.4590164,1.8556701 L15.587822,1.8556701 L9.25526932,8.16494845 L20.824356,8.16494845 L20.824356,1.8556701 L20.4590164,1.8556701 Z M34.2201405,8.16494845 L30.2014052,1.8556701 L21.7985948,1.8556701 L21.7985948,8.16494845 L34.2201405,8.16494845 Z" id="Shape"></path>
        </g>
    </g>
</svg>