<?xml version="1.0" encoding="UTF-8"?>
<svg width="64px" height="64px" viewBox="0 0 64 64" version="1.1" xmlns="http://www.w3.org/2000/svg" xmlns:xlink="http://www.w3.org/1999/xlink">
    <!-- Generator: Sketch 52.6 (67491) - http://www.bohemiancoding.com/sketch -->
    <title>transport-ship</title>
    <desc>Created with Sketch.</desc>
    <g id="transport-ship" stroke="none" stroke-width="1" fill="none" fill-rule="evenodd">
        <g id="icon-transport-ship" transform="translate(6.000000, 16.000000)" fill="#000000" fill-rule="nonzero">
            <path d="M26.0500963,21.2987013 C34.265896,21.2987013 42.6820809,21.2987013 50.8978805,21.2987013 C51.1984586,21.2987013 51.699422,21.6103896 52,21.6103896 C52,21.6103896 52,22.1298701 51.699422,22.3376623 C49.3949904,25.3506494 46.7899807,28.2597403 44.4855491,31.1688312 C43.9845857,31.6883117 43.4836224,32 42.6820809,32 C35.2678227,32 27.8535645,32 20.4393064,32 C15.5298651,32 10.6204239,32 5.81117534,32 C4.50867052,32 3.70712909,31.3766234 3.2061657,30.3376623 C2.20423892,27.7402597 1.20231214,25.3506494 0.100192678,22.6493506 C-0.100192678,21.6103896 0.100192678,21.2987013 1.20231214,21.2987013 C9.41811175,21.2987013 17.8342967,21.2987013 26.0500963,21.2987013 Z M42.6820809,28.2597403 C43.4836224,28.2597403 44.2851638,27.4285714 44.2851638,26.5974026 C44.2851638,25.8701299 43.4836224,25.038961 42.6820809,25.038961 C41.9807322,25.038961 41.1791908,25.8701299 41.1791908,26.5974026 C41.4797688,27.4285714 41.9807322,28.2597403 42.6820809,28.2597403 Z M26.3506744,15.1688312 C29.1560694,15.1688312 31.9614644,15.1688312 34.4662813,15.1688312 C37.371869,15.1688312 40.177264,15.1688312 42.982659,15.1688312 C43.7842004,15.1688312 43.9845857,15.4805195 43.9845857,16.3116883 C43.9845857,17.3506494 43.9845857,18.7012987 43.9845857,19.7402597 C31.1599229,19.7402597 18.3352601,19.7402597 5.81117534,19.7402597 C5.81117534,19.4285714 5.81117534,19.2207792 5.81117534,18.9090909 C5.81117534,17.038961 5.81117534,15.1688312 5.81117534,13.0909091 C5.81117534,12.2597403 6.01156069,12.0519481 6.81310212,12.0519481 C12.9248555,12.0519481 19.1368015,12.0519481 25.5491329,12.0519481 C26.3506744,12.0519481 26.5510597,12.2597403 26.5510597,13.0909091 C26.3506744,13.9220779 26.3506744,14.4415584 26.3506744,15.1688312 Z M8.61657033,16 C8.61657033,16.8311688 9.11753372,17.5584416 10.1194605,17.5584416 C10.9210019,17.5584416 11.7225434,17.038961 11.7225434,16 C11.7225434,15.1688312 11.22158,14.4415584 10.1194605,14.4415584 C9.41811175,14.4415584 8.61657033,14.961039 8.61657033,16 Z M20.4393064,16 C20.4393064,16.8311688 21.1406551,17.5584416 21.9421965,17.5584416 C22.743738,17.5584416 23.4450867,16.8311688 23.4450867,16 C23.4450867,15.1688312 22.743738,14.4415584 21.9421965,14.4415584 C21.1406551,14.4415584 20.4393064,15.1688312 20.4393064,16 Z M17.3333333,16 C17.3333333,15.1688312 16.5317919,14.4415584 15.8304432,14.4415584 C15.0289017,14.4415584 14.2273603,15.1688312 14.2273603,16 C14.2273603,16.8311688 15.0289017,17.5584416 15.8304432,17.5584416 C16.8323699,17.3506494 17.3333333,16.8311688 17.3333333,16 Z M40.8786127,13.6103896 C39.3757225,13.6103896 38.0732177,13.6103896 36.5703276,13.6103896 C36.5703276,13.2987013 36.5703276,13.2987013 36.5703276,13.0909091 C36.5703276,9.03896104 36.5703276,4.77922078 36.5703276,0.831168831 C36.5703276,0 36.8709056,0 37.5722543,0 C38.3737958,0 39.3757225,0 40.177264,0 C40.6782274,0 40.8786127,0.311688312 40.8786127,0.831168831 C40.8786127,5.09090909 40.8786127,9.35064935 40.8786127,13.6103896 C41.1791908,13.6103896 40.8786127,13.6103896 40.8786127,13.6103896 Z M33.7649326,13.6103896 C32.4624277,13.6103896 30.9595376,13.6103896 29.6570328,13.6103896 C29.6570328,13.6103896 29.3564547,13.2987013 29.3564547,13.0909091 C29.3564547,10.9090909 29.3564547,8.51948052 29.3564547,6.44155844 C29.3564547,4.57142857 29.3564547,2.7012987 29.3564547,0.831168831 C29.3564547,0 29.3564547,0 30.4585742,0 C31.1599229,0 32.1618497,0 32.9633911,0 C33.4643545,0 33.7649326,0.311688312 33.7649326,0.831168831 C33.7649326,5.09090909 33.7649326,9.35064935 33.7649326,13.6103896 Z" id="Shape"></path>
        </g>
    </g>
</svg>