<?xml version="1.0" encoding="UTF-8"?>
<svg width="64px" height="64px" viewBox="0 0 64 64" version="1.1" xmlns="http://www.w3.org/2000/svg" xmlns:xlink="http://www.w3.org/1999/xlink">
    <!-- Generator: Sketch 52.6 (67491) - http://www.bohemiancoding.com/sketch -->
    <title>transport-bicycle</title>
    <desc>Created with Sketch.</desc>
    <g id="transport-bicycle" stroke="none" stroke-width="1" fill="none" fill-rule="evenodd">
        <g id="icon-transport-bicycle" transform="translate(6.000000, 17.000000)" fill="#000000" fill-rule="nonzero">
            <path d="M43.0988712,12.0198675 C41.8733109,12.0198675 40.7498806,12.218543 39.5243203,12.7152318 L35.8476393,6.65562914 L36.5625495,4.56953642 C38.40089,4.37086093 39.2179302,2.78145695 39.2179302,2.58278146 C39.2179302,2.28476821 38.9115401,2.28476821 38.9115401,2.28476821 L31.1496581,2.28476821 C30.843268,2.28476821 30.3326179,2.58278146 30.3326179,3.0794702 C30.3326179,3.57615894 31.1496581,3.87417219 31.1496581,3.87417219 L34.519949,4.56953642 L33.7029088,6.85430464 L16.4429343,6.85430464 C16.7493244,6.1589404 16.7493244,5.66225166 16.7493244,5.66225166 C16.7493244,5.66225166 16.9535844,5.06622517 16.9535844,4.86754967 C16.9535844,3.87417219 16.2386742,3.0794702 15.9322841,3.0794702 C15.9322841,3.0794702 15.7280241,3.0794702 15.7280241,2.78145695 C15.7280241,2.58278146 15.9322841,2.28476821 16.2386742,2.28476821 L19.6089651,2.28476821 L19.6089651,0 L15.1152439,0 C15.1152439,0 12.7662533,0.298013245 12.7662533,2.58278146 C12.7662533,3.87417219 13.5832935,4.37086093 14.0939437,4.56953642 C14.4003337,4.56953642 14.4003337,5.06622517 14.4003337,5.36423841 C14.4003337,5.66225166 13.3790335,9.43708609 12.2556032,12.7152318 C11.540693,12.218543 10.4172627,12.0198675 9.19170239,12.0198675 C4.18733109,12.0198675 0,16.0927152 0,20.8609272 C0,25.7284768 4.18733109,29.8013245 9.19170239,29.8013245 C14.4003337,29.8013245 18.2812748,25.9271523 18.2812748,20.8609272 C18.2812748,17.781457 16.7493244,15.2980132 14.4003337,13.5099338 C14.4003337,13.2119205 14.6045938,12.7152318 14.6045938,12.5165563 L25.3282466,19.8675497 C25.3282466,20.1655629 25.1239865,20.6622517 25.1239865,20.8609272 C25.1239865,22.9470199 26.962327,24.7350993 29.0049275,24.7350993 C29.3113176,24.7350993 29.8219678,24.7350993 30.0262278,24.4370861 L30.639008,25.7284768 L29.5155777,25.7284768 L29.5155777,27.0198675 L30.639008,27.0198675 C30.843268,27.218543 31.1496581,27.5165563 31.3539182,27.5165563 C31.6603082,27.5165563 31.8645683,27.218543 32.1709584,27.0198675 L33.1922586,27.0198675 L33.1922586,25.7284768 L31.6603082,25.7284768 L31.3539182,24.1390728 C32.1709584,23.6423841 32.6816085,22.9470199 32.9879986,21.8543046 L33.7029088,21.8543046 C34.2135589,26.5231788 38.1966299,30 42.8946112,30 C47.7968524,30 51.9841835,25.9271523 51.9841835,21.1589404 C52.2905736,16.0927152 48.1032425,12.0198675 43.0988712,12.0198675 Z M15.7280241,20.8609272 C15.7280241,24.4370861 12.7662533,27.218543 9.19170239,27.218543 C5.51502143,27.218543 2.65538069,24.4370861 2.65538069,20.8609272 C2.65538069,17.2847682 5.51502143,14.5033113 9.19170239,14.5033113 C9.90661258,14.5033113 11.0300429,14.8013245 11.7449531,15 C11.540693,16.0927152 11.2343029,16.7880795 11.2343029,16.7880795 C11.2343029,16.7880795 11.0300429,18.5761589 8.88531231,20.1655629 C8.57892223,20.1655629 8.37466218,20.3642384 8.37466218,20.8609272 C8.37466218,21.3576159 8.57892223,21.8543046 9.39596244,21.8543046 C9.90661258,21.8543046 12.7662533,21.1589404 13.3790335,18.5761589 C13.3790335,18.5761589 13.5832935,17.5827815 13.8896836,16.589404 C14.9109839,17.5827815 15.7280241,19.0728477 15.7280241,20.8609272 Z M15.421634,10.2317881 C15.7280241,9.73509934 15.7280241,9.43708609 15.9322841,8.94039735 L32.6816085,8.94039735 L29.5155777,17.0860927 C29.5155777,17.0860927 29.5155777,17.0860927 29.3113176,17.0860927 C28.8006675,17.0860927 28.4942774,17.0860927 28.1878873,17.2847682 L27.6772372,16.0927152 L28.8006675,16.0927152 L28.8006675,15 L27.6772372,15 C27.4729771,14.8013245 27.1665871,14.5033113 26.962327,14.5033113 C26.6559369,14.5033113 26.4516769,14.8013245 26.1452868,15 L24.8175965,15 L24.8175965,16.2913907 L26.4516769,16.2913907 L27.1665871,17.781457 C27.1665871,17.781457 26.962327,17.781457 26.962327,18.0794702 L15.421634,10.2317881 Z M29.3113176,23.1456954 C27.9836273,23.1456954 26.962327,22.1523179 26.962327,20.8609272 C26.962327,19.5695364 27.9836273,18.5761589 29.3113176,18.5761589 C30.639008,18.5761589 31.6603082,19.5695364 31.6603082,20.8609272 C31.6603082,22.1523179 30.639008,23.1456954 29.3113176,23.1456954 Z M34.0092988,20.1655629 L33.1922586,20.1655629 C32.9879986,19.3708609 32.3752184,18.3774834 31.6603082,17.781457 L34.724209,9.13907285 L37.3795897,13.807947 C35.5412492,15.2980132 34.2135589,17.5827815 34.0092988,20.1655629 Z M38.9115401,16.0927152 L41.2605307,20.1655629 L36.5625495,20.1655629 C36.8689396,18.5761589 37.6859798,17.0860927 38.9115401,16.0927152 Z M43.0988712,27.218543 C39.7285803,27.218543 37.1753297,24.9337748 36.5625495,21.6556291 L42.8946112,21.6556291 C43.4052613,21.6556291 44.2223015,21.6556291 44.2223015,20.8609272 C44.2223015,20.6622517 43.9159114,20.3642384 43.9159114,20.3642384 L40.7498806,15 C41.5669208,14.8013245 42.0775709,14.5033113 42.8946112,14.5033113 C46.5712921,14.5033113 49.4309329,17.2847682 49.4309329,20.8609272 C49.6351929,24.4370861 46.7755522,27.218543 43.0988712,27.218543 Z" id="Shape"></path>
        </g>
    </g>
</svg>