<?xml version="1.0" encoding="UTF-8"?>
<svg width="64px" height="64px" viewBox="0 0 64 64" version="1.1" xmlns="http://www.w3.org/2000/svg" xmlns:xlink="http://www.w3.org/1999/xlink">
    <!-- Generator: Sketch 52.6 (67491) - http://www.bohemiancoding.com/sketch -->
    <title>transport-plane</title>
    <desc>Created with Sketch.</desc>
    <g id="transport-plane" stroke="none" stroke-width="1" fill="none" fill-rule="evenodd">
        <g id="icon-transport-plane" transform="translate(6.000000, 8.000000)" fill="#000000">
            <path d="M43.8213592,40 C43.5184466,40.2962963 42.7106796,41.7777778 40.6912621,40.4938272 C39.176699,39.5061728 39.3786408,38.2222222 39.3786408,38.2222222 L39.6815534,31.9012346 C39.6815534,31.9012346 37.3592233,31.9012346 35.238835,30.7160494 C33.4213592,29.6296296 27.2621359,26.0740741 27.2621359,26.0740741 L25.1417476,29.6296296 L21.3048544,46.3209877 C21.3048544,46.3209877 20.4970874,48.8888889 18.6796117,47.6049383 L16.6601942,46.617284 C16.6601942,46.617284 15.6504854,46.1234568 15.6504854,45.037037 L15.6504854,19.5555556 L4.74563107,13.4320988 C4.74563107,13.4320988 -1.41359223,9.48148148 0.403883495,6.61728395 C1.9184466,3.85185185 8.58252427,6.91358025 8.58252427,6.91358025 L19.184466,12.9382716 L42.0038835,0.296296296 C43.0135922,-0.197530864 44.023301,0.296296296 44.023301,0.296296296 L46.1436893,1.38271605 C47.961165,2.37037037 46.3456311,4.34567901 46.3456311,4.34567901 L33.4213592,16 L31.0990291,19.7530864 C31.0990291,19.7530864 37.0563107,23.1111111 39.176699,24.3950617 C41.1961165,25.5802469 42.5087379,27.3580247 42.5087379,27.3580247 L47.961165,23.8024691 C47.961165,23.8024691 48.9708738,23.1111111 50.4854369,23.8024691 C52.6058252,25.0864198 51.7980583,26.3703704 51.4951456,26.8641975 L43.8213592,40 Z" id="Path"></path>
        </g>
    </g>
</svg>