<?xml version="1.0" encoding="UTF-8"?>
<svg width="64px" height="64px" viewBox="0 0 64 64" version="1.1" xmlns="http://www.w3.org/2000/svg" xmlns:xlink="http://www.w3.org/1999/xlink">
    <!-- Generator: Sketch 52.6 (67491) - http://www.bohemiancoding.com/sketch -->
    <title>transport-tram</title>
    <desc>Created with Sketch.</desc>
    <g id="transport-tram" stroke="none" stroke-width="1" fill="none" fill-rule="evenodd">
        <g id="icon-transport-tram" transform="translate(6.000000, 19.000000)" fill="#000000" fill-rule="nonzero">
            <path d="M50.4765625,9.8515625 C50.171875,8.8359375 49.15625,8.8359375 49.15625,8.8359375 L31.9921875,8.8359375 L31.484375,8.328125 C31.1796875,7.8203125 30.671875,7.8203125 30.671875,7.8203125 L27.3203125,7.8203125 L31.6875,4.671875 L27.3203125,1.5234375 L27.3203125,0.8125 C27.3203125,0.3046875 27.015625,0 26.5078125,0 L25.6953125,0 C25.1875,0 24.984375,0.3046875 24.984375,0.8125 L24.984375,1.828125 L20.515625,4.671875 L24.6796875,7.8203125 L21.328125,7.8203125 C21.328125,7.8203125 20.8203125,7.8203125 20.515625,8.0234375 L20.0078125,8.53125 L2.84375,8.53125 C2.84375,8.53125 1.828125,8.53125 1.5234375,9.6484375 L0,15.640625 L0,23.359375 L4.46875,23.359375 L4.46875,24.171875 L7.0078125,24.171875 C7.0078125,24.171875 7.0078125,26 8.8359375,26 C10.6640625,26 10.6640625,24.171875 10.6640625,24.171875 L13,24.171875 C13,24.171875 13,26 14.828125,26 C16.65625,26 16.65625,24.171875 16.65625,24.171875 L35.34375,24.171875 C35.34375,24.171875 35.34375,26 37.171875,26 C39,26 39,24.171875 39,24.171875 L41.3359375,24.171875 C41.3359375,24.171875 41.3359375,26 43.1640625,26 C44.9921875,26 44.9921875,24.171875 44.9921875,24.171875 L47.53125,24.171875 L47.53125,23.359375 L52,23.359375 L52,15.640625 L50.4765625,9.8515625 Z M5.6875,14.828125 C5.6875,15.3359375 5.1796875,15.640625 4.9765625,15.640625 L2.640625,15.640625 C2.03125,15.640625 1.828125,15.3359375 1.828125,14.828125 L2.640625,11.4765625 C2.640625,11.4765625 2.640625,10.6640625 3.3515625,10.6640625 L4.671875,10.6640625 C5.1796875,10.6640625 5.484375,10.96875 5.484375,11.4765625 L5.484375,14.828125 L5.6875,14.828125 Z M10.359375,21.8359375 C10.359375,22.34375 10.15625,22.6484375 9.6484375,22.6484375 L7.8203125,22.6484375 C7.3125,22.6484375 7.0078125,22.34375 7.0078125,21.8359375 L7.0078125,11.4765625 C7.0078125,10.96875 7.3125,10.6640625 7.8203125,10.6640625 L9.8515625,10.6640625 C10.15625,10.96875 10.359375,11.171875 10.359375,11.4765625 L10.359375,21.8359375 Z M21.53125,4.671875 L26,1.828125 L30.46875,4.9765625 L26,7.8203125 L21.53125,4.671875 Z M14.828125,21.8359375 C14.828125,22.34375 14.5234375,22.6484375 14.015625,22.6484375 L11.984375,22.6484375 C11.4765625,22.6484375 11.171875,22.34375 11.171875,21.8359375 L11.171875,11.4765625 C11.171875,10.96875 11.4765625,10.6640625 11.984375,10.6640625 L14.015625,10.6640625 C14.5234375,10.6640625 14.828125,10.96875 14.828125,11.4765625 L14.828125,21.8359375 Z M21.8359375,14.828125 C21.8359375,15.3359375 21.53125,15.640625 21.0234375,15.640625 L16.65625,15.640625 C16.1484375,15.640625 15.84375,15.3359375 15.84375,14.828125 L15.84375,11.4765625 C15.84375,10.96875 16.1484375,10.6640625 16.65625,10.6640625 L21.328125,10.6640625 C21.8359375,10.6640625 22.140625,10.96875 22.140625,11.4765625 L22.140625,14.828125 L21.8359375,14.828125 Z M29.1484375,14.828125 C29.1484375,15.3359375 28.84375,15.640625 28.3359375,15.640625 L23.6640625,15.640625 C23.15625,15.640625 22.8515625,15.3359375 22.8515625,14.828125 L22.8515625,11.4765625 C22.8515625,10.96875 23.15625,10.6640625 23.6640625,10.6640625 L28.3359375,10.6640625 C28.84375,10.6640625 29.1484375,10.96875 29.1484375,11.4765625 L29.1484375,14.828125 Z M36.15625,14.828125 C36.15625,15.3359375 35.8515625,15.640625 35.34375,15.640625 L30.671875,15.640625 C30.1640625,15.640625 29.859375,15.3359375 29.859375,14.828125 L29.859375,11.4765625 C29.859375,10.96875 30.1640625,10.6640625 30.671875,10.6640625 L35.34375,10.6640625 C35.8515625,10.6640625 36.15625,10.96875 36.15625,11.4765625 L36.15625,14.828125 Z M40.5234375,21.8359375 C40.5234375,22.34375 40.3203125,22.6484375 39.8125,22.6484375 L37.6796875,22.6484375 C37.171875,22.6484375 36.96875,22.34375 36.96875,21.8359375 L36.96875,11.4765625 C36.96875,10.96875 37.171875,10.6640625 37.6796875,10.6640625 L39.8125,10.6640625 C40.3203125,10.6640625 40.5234375,10.96875 40.5234375,11.4765625 L40.5234375,21.8359375 Z M44.9921875,21.8359375 C44.9921875,22.34375 44.6875,22.6484375 44.1796875,22.6484375 L42.1484375,22.6484375 C41.640625,22.6484375 41.3359375,22.34375 41.3359375,21.8359375 L41.3359375,11.4765625 C41.3359375,10.96875 41.640625,10.6640625 42.1484375,10.6640625 L44.1796875,10.6640625 C44.6875,10.6640625 44.9921875,10.96875 44.9921875,11.4765625 L44.9921875,21.8359375 Z M49.359375,15.640625 L47.328125,15.640625 C46.8203125,15.640625 46.515625,15.3359375 46.515625,14.828125 L46.515625,11.4765625 C46.515625,10.96875 46.8203125,10.6640625 47.328125,10.6640625 L48.6484375,10.6640625 C49.359375,10.6640625 49.359375,11.4765625 49.359375,11.4765625 L50.171875,14.828125 C49.96875,15.3359375 49.6640625,15.640625 49.359375,15.640625 Z" id="Shape"></path>
        </g>
    </g>
</svg>