<?xml version="1.0" encoding="UTF-8"?>
<svg width="64px" height="64px" viewBox="0 0 64 64" version="1.1" xmlns="http://www.w3.org/2000/svg" xmlns:xlink="http://www.w3.org/1999/xlink">
    <!-- Generator: Sketch 52.6 (67491) - http://www.bohemiancoding.com/sketch -->
    <title>transport-truck</title>
    <desc>Created with Sketch.</desc>
    <g id="transport-truck" stroke="none" stroke-width="1" fill="none" fill-rule="evenodd">
        <g id="icon-transport-truck" transform="translate(6.000000, 9.000000)" fill="#000000" fill-rule="nonzero">
            <path d="M19.5,39.4285714 C19.5,43.125 16.5546875,46 13,46 C9.34375,46 6.5,43.125 6.5,39.4285714 C6.5,35.8348214 9.34375,32.8571429 13,32.8571429 C16.5546875,32.8571429 19.5,35.8348214 19.5,39.4285714 Z M48.6484375,39.4285714 C48.6484375,43.125 45.703125,46 42.1484375,46 C38.4921875,46 35.6484375,43.125 35.6484375,39.4285714 C35.6484375,35.8348214 38.4921875,32.8571429 42.1484375,32.8571429 C45.703125,32.8571429 48.6484375,35.8348214 48.6484375,39.4285714 Z M50.375,0 L17.875,0 C16.859375,0 16.1484375,0.821428571 16.1484375,1.64285714 L16.1484375,6.57142857 L8.0234375,6.57142857 C7.2109375,6.57142857 6.1953125,7.39285714 5.6875,8.21428571 L0.7109375,18.1741071 C0.203125,19.2008929 0,20.5357143 0,21.3571429 L0,31.3169643 C0,32.1383929 0.5078125,33.4732143 1.015625,34.1919643 L2.03125,35.21875 C2.5390625,35.5267857 3.1484375,35.8348214 3.859375,36.0401786 C5.1796875,32.34375 8.8359375,29.7767857 13,29.7767857 C17.1640625,29.7767857 20.8203125,32.34375 22.0390625,36.3482143 L33.0078125,36.3482143 C34.328125,32.34375 37.984375,29.7767857 42.1484375,29.7767857 C46.2109375,29.7767857 49.6640625,32.34375 51.1875,36.0401786 C51.6953125,35.8348214 52,35.21875 52,34.7053571 L52,1.64285714 C52,0.821428571 51.1875,0 50.375,0 Z M16.1484375,19.7142857 L6.5,19.7142857 L9.8515625,9.75446429 L16.3515625,9.75446429 L16.3515625,19.7142857 L16.1484375,19.7142857 Z" id="Shape"></path>
        </g>
    </g>
</svg>