<?xml version="1.0" encoding="UTF-8"?>
<svg width="64px" height="64px" viewBox="0 0 64 64" version="1.1" xmlns="http://www.w3.org/2000/svg" xmlns:xlink="http://www.w3.org/1999/xlink">
    <!-- Generator: Sketch 52.6 (67491) - http://www.bohemiancoding.com/sketch -->
    <title>transport-bus</title>
    <desc>Created with Sketch.</desc>
    <g id="transport-bus" stroke="none" stroke-width="1" fill="none" fill-rule="evenodd">
        <g id="icon-transport-bus" transform="translate(6.000000, 23.000000)" fill="#000000" fill-rule="nonzero">
            <path d="M11.4559387,12.502994 C9.96168582,12.502994 8.96551724,13.9041916 8.96551724,15.1976048 C8.96551724,16.9221557 10.1609195,18 11.4559387,18 C13.0498084,18 14.045977,16.5988024 14.045977,15.1976048 C14.045977,13.9041916 13.0498084,12.502994 11.4559387,12.502994 Z M11.4559387,16.9221557 C10.7586207,16.9221557 10.1609195,16.3832335 10.1609195,15.5209581 C10.1609195,14.6586826 10.7586207,14.1197605 11.4559387,14.1197605 C12.2528736,13.9041916 12.7509579,14.6586826 12.7509579,15.5209581 C12.7509579,16.0598802 12.2528736,16.9221557 11.4559387,16.9221557 Z M36.9578544,12.502994 C35.4636015,12.502994 34.467433,13.9041916 34.467433,15.1976048 C34.467433,16.9221557 35.6628352,18 36.9578544,18 C38.5517241,18 39.5478927,16.5988024 39.5478927,15.1976048 C39.5478927,13.9041916 38.5517241,12.502994 36.9578544,12.502994 Z M36.9578544,16.9221557 C36.2605364,16.9221557 35.6628352,16.3832335 35.6628352,15.5209581 C35.6628352,14.6586826 36.2605364,14.1197605 36.9578544,14.1197605 C37.7547893,14.1197605 38.2528736,14.6586826 38.2528736,15.5209581 C38.2528736,16.0598802 37.7547893,16.9221557 36.9578544,16.9221557 Z M47.9157088,0.107784431 L1.99233716,0.107784431 C1.99233716,0.107784431 0.996168582,-0.215568862 0.996168582,1.18562874 L0.796934866,8.2994012 C0.796934866,8.2994012 0,8.2994012 0,8.83832335 C0,9.48502994 0,14.4431138 0,14.4431138 C0,14.4431138 0,16.0598802 1.49425287,16.0598802 L8.36781609,16.0598802 C8.36781609,15.7365269 8.36781609,15.5209581 8.36781609,15.1976048 C8.36781609,13.257485 9.96168582,11.6407186 11.7547893,11.6407186 C13.5478927,11.6407186 15.0421456,13.257485 15.0421456,15.1976048 C15.0421456,15.5209581 15.0421456,15.7365269 15.0421456,16.0598802 L34.467433,16.0598802 C34.467433,15.7365269 34.467433,15.5209581 34.467433,15.1976048 C34.467433,13.257485 35.9616858,11.6407186 37.7547893,11.6407186 C39.5478927,11.6407186 41.0421456,13.257485 41.0421456,15.1976048 C41.0421456,15.5209581 41.0421456,15.7365269 41.0421456,16.0598802 L52,13.9041916 L52,3.66467066 C51.0038314,2.26347305 50.0076628,0.107784431 47.9157088,0.107784431 Z M6.37547893,13.9041916 C6.37547893,14.4431138 6.07662835,14.6586826 5.57854406,14.6586826 L3.78544061,14.6586826 C3.28735632,14.6586826 3.08812261,14.4431138 3.08812261,13.9041916 L3.08812261,3.66467066 C3.08812261,3.1257485 3.28735632,2.80239521 3.78544061,2.80239521 L5.57854406,2.80239521 C6.07662835,2.80239521 6.37547893,3.1257485 6.37547893,3.66467066 L6.37547893,13.9041916 Z M17.6321839,7.00598802 C17.6321839,7.54491018 17.3333333,7.76047904 16.835249,7.76047904 L9.16475096,7.76047904 C8.66666667,7.76047904 8.36781609,7.54491018 8.36781609,7.00598802 L8.36781609,3.66467066 C8.36781609,3.1257485 8.66666667,2.80239521 9.16475096,2.80239521 L16.835249,2.80239521 C17.3333333,2.80239521 17.6321839,3.1257485 17.6321839,3.66467066 L17.6321839,7.00598802 Z M28.2911877,7.00598802 C28.2911877,7.54491018 28.091954,7.76047904 27.4942529,7.76047904 L19.9233716,7.76047904 C19.4252874,7.76047904 19.1264368,7.54491018 19.1264368,7.00598802 L19.1264368,3.66467066 C19.1264368,3.1257485 19.4252874,2.80239521 19.9233716,2.80239521 L27.4942529,2.80239521 C28.091954,2.80239521 28.2911877,3.1257485 28.2911877,3.66467066 L28.2911877,7.00598802 Z M38.7509579,7.00598802 C38.7509579,7.54491018 38.5517241,7.76047904 37.954023,7.76047904 L30.3831418,7.76047904 C29.8850575,7.76047904 29.5862069,7.54491018 29.5862069,7.00598802 L29.5862069,3.66467066 C29.5862069,3.1257485 29.8850575,2.80239521 30.3831418,2.80239521 L37.954023,2.80239521 C38.5517241,2.80239521 38.7509579,3.1257485 38.7509579,3.66467066 L38.7509579,7.00598802 Z M49.210728,7.00598802 C49.210728,7.54491018 49.0114943,7.76047904 48.4137931,7.76047904 L40.8429119,7.76047904 C40.2452107,7.76047904 40.045977,7.54491018 40.045977,7.00598802 L40.045977,3.66467066 C40.045977,3.1257485 40.2452107,2.80239521 40.8429119,2.80239521 L46.9195402,2.80239521 C47.9157088,2.80239521 49.0114943,3.88023952 49.0114943,5.06586826 L49.0114943,7.00598802 L49.210728,7.00598802 Z" id="Shape"></path>
        </g>
    </g>
</svg>