<?xml version="1.0" encoding="UTF-8"?>
<svg width="64px" height="64px" viewBox="0 0 64 64" version="1.1" xmlns="http://www.w3.org/2000/svg" xmlns:xlink="http://www.w3.org/1999/xlink">
    <!-- Generator: Sketch 52.6 (67491) - http://www.bohemiancoding.com/sketch -->
    <title>transport-motorcycle</title>
    <desc>Created with Sketch.</desc>
    <g id="transport-motorcycle" stroke="none" stroke-width="1" fill="none" fill-rule="evenodd">
        <g id="icon-transport-motorcycle" transform="translate(6.000000, 15.000000)" fill="#000000" fill-rule="nonzero">
            <path d="M46.0078125,17.3017751 C46.0078125,14.9881657 44.1796875,14.9881657 44.1796875,14.9881657 L36.6640625,14.9881657 C36.6640625,12.5739645 35.6484375,11.8698225 35.6484375,11.8698225 L31.6875,7.74556213 L27.828125,5.93491124 L27.3203125,5.93491124 L27.3203125,4.92899408 C27.5234375,4.4260355 27.828125,3.82248521 27.828125,3.1183432 C27.828125,1.30769231 26.5078125,0 24.6796875,0 C22.8515625,0 21.53125,1.30769231 21.53125,3.1183432 C21.53125,3.1183432 21.53125,3.31952663 21.53125,3.31952663 L22.34375,3.31952663 L22.34375,5.43195266 C22.34375,6.9408284 23.96875,7.24260355 24.4765625,7.24260355 C24.6796875,7.24260355 24.4765625,7.74556213 24.4765625,7.74556213 L22.140625,11.3668639 L19.8046875,13.1775148 C19.5,13.1775148 18.9921875,13.6804734 18.484375,13.3786982 C18.1796875,12.8757396 18.1796875,12.3727811 18.1796875,12.0710059 C18.1796875,12.0710059 19.8046875,5.13017751 19.8046875,4.92899408 C19.8046875,4.92899408 19.8046875,4.62721893 19.5,4.4260355 C19.1953125,4.4260355 19.1953125,4.62721893 19.1953125,4.62721893 C19.1953125,4.62721893 16.3515625,9.25443787 15.84375,10.260355 C13.8125,13.8816568 9.8515625,13.8816568 9.8515625,13.8816568 L7.8203125,13.8816568 L7.8203125,17.3017751 C7.8203125,17.3017751 8.0234375,17.3017751 8.0234375,17.3017751 C9.34375,17.3017751 10.359375,17.5029586 11.4765625,17.8047337 L10.96875,18.5088757 C10.15625,18.3076923 9.140625,18.0059172 8.0234375,18.0059172 C3.65625,18.0059172 0,21.6272189 0,26.0532544 C0,30.3786982 3.65625,34 8.0234375,34 C12.4921875,34 16.1484375,30.3786982 16.1484375,26.0532544 C16.1484375,23.4378698 15.03125,21.4260355 13.3046875,19.816568 L13.8125,19.0118343 C15.84375,20.6213018 17.1640625,23.1360947 17.1640625,26.0532544 C17.1640625,30.1775148 21.0234375,29.8757396 21.0234375,29.8757396 L35.34375,29.8757396 C36.6640625,32.4911243 39.5078125,34 42.3515625,34 C46.8203125,34 50.4765625,30.3786982 50.4765625,26.0532544 L52,26.0532544 C52,22.1301775 49.6640625,18.8106509 46.0078125,17.3017751 Z M8.0234375,30.8816568 C5.484375,30.8816568 3.1484375,28.8698225 3.1484375,26.0532544 C3.1484375,23.1360947 5.1796875,21.1242604 8.0234375,21.1242604 C8.53125,21.1242604 8.8359375,21.1242604 9.140625,21.4260355 L8.0234375,22.9349112 C8.0234375,22.9349112 8.0234375,22.9349112 7.8203125,22.9349112 C5.9921875,22.9349112 4.671875,24.2426036 4.671875,26.0532544 C4.671875,27.8639053 5.9921875,29.0710059 7.8203125,29.0710059 C9.6484375,29.0710059 10.96875,27.8639053 10.96875,26.0532544 C10.96875,25.4497041 10.6640625,24.7455621 10.359375,24.2426036 L11.4765625,22.6331361 C12.4921875,23.739645 13,24.7455621 13,26.0532544 C13,28.8698225 10.96875,30.8816568 8.0234375,30.8816568 Z M26,18.3076923 L19.5,16.1952663 L26,12.3727811 C26.5078125,14.3846154 28.03125,14.9881657 28.03125,14.9881657 L26,18.3076923 Z M36.96875,20.1183432 C35.6484375,21.4260355 34.53125,22.6331361 34.328125,24.443787 C34.328125,24.443787 34.328125,24.9467456 34.0234375,24.9467456 C33.8203125,24.9467456 33.8203125,24.7455621 33.8203125,24.7455621 L33.8203125,19.6153846 C33.8203125,19.6153846 36.6640625,19.6153846 36.96875,19.6153846 C37.171875,19.3136095 37.171875,19.816568 36.96875,20.1183432 Z M42.3515625,30.8816568 C39.8125,30.8816568 37.4765625,28.8698225 37.4765625,26.0532544 C37.4765625,24.443787 38.1875,23.1360947 39.3046875,22.1301775 L40.015625,23.9408284 C39.5078125,24.443787 39.3046875,25.2485207 39.3046875,26.0532544 C39.3046875,27.8639053 40.5234375,29.0710059 42.3515625,29.0710059 C44.1796875,29.0710059 45.5,27.8639053 45.5,26.0532544 C45.5,24.443787 44.1796875,23.1360947 42.65625,22.9349112 L41.84375,21.1242604 C41.84375,21.1242604 42.1484375,21.1242604 42.1484375,21.1242604 C44.6875,21.1242604 47.0234375,23.1360947 47.0234375,26.0532544 C47.0234375,28.8698225 44.9921875,30.8816568 42.3515625,30.8816568 Z" id="Shape"></path>
        </g>
    </g>
</svg>