<?xml version="1.0" encoding="UTF-8"?>
<svg width="64px" height="64px" viewBox="0 0 64 64" version="1.1" xmlns="http://www.w3.org/2000/svg" xmlns:xlink="http://www.w3.org/1999/xlink">
    <!-- Generator: Sketch 52.6 (67491) - http://www.bohemiancoding.com/sketch -->
    <title>transport-train</title>
    <desc>Created with Sketch.</desc>
    <g id="transport-train" stroke="none" stroke-width="1" fill="none" fill-rule="evenodd">
        <g id="icon-transport-train" transform="translate(6.000000, 8.000000)" fill="#000000" fill-rule="nonzero">
            <path d="M43.9765625,44.3389831 C43.9765625,46.2711864 42.3515625,48 40.3203125,48 C38.2890625,48 36.6640625,46.2711864 36.6640625,44.3389831 C36.6640625,42.3050847 38.2890625,40.6779661 40.3203125,40.6779661 C42.3515625,40.6779661 43.9765625,42.3050847 43.9765625,44.3389831 Z M51.6953125,44.3389831 C51.6953125,46.2711864 50.0703125,48 48.140625,48 C46.109375,48 44.484375,46.2711864 44.484375,44.3389831 C44.484375,42.3050847 46.109375,40.6779661 48.140625,40.6779661 C50.0703125,40.6779661 51.6953125,42.3050847 51.6953125,44.3389831 Z M52,36.5084746 L49.96875,36.5084746 L49.96875,25.3220339 L46.8203125,25.3220339 C46.8203125,25.3220339 46.515625,23.6949153 47.53125,23.6949153 C47.53125,23.4915254 47.53125,21.9661017 47.53125,21.9661017 L40.5234375,21.9661017 C40.5234375,21.9661017 40.5234375,23.4915254 40.5234375,23.6949153 C41.640625,23.6949153 41.3359375,25.3220339 41.3359375,25.3220339 L27.828125,25.3220339 C27.828125,25.3220339 28.03125,23.1864407 26.3046875,21.9661017 L23.15625,21.9661017 C21.0234375,23.1864407 21.53125,25.3220339 21.53125,25.3220339 L12.4921875,25.3220339 L12.4921875,21.9661017 L2.03125,21.9661017 L2.03125,26.3389831 L5.9921875,26.3389831 L5.9921875,32.8474576 L0,32.8474576 L0,40.3728814 L2.03125,40.3728814 C1.828125,41.1864407 1.5234375,41.6949153 1.5234375,42.5084746 C1.5234375,45.559322 3.859375,48 7.0078125,48 C10.15625,48 12.4921875,45.559322 12.4921875,42.5084746 C12.4921875,41.6949153 12.1875,40.8813559 11.984375,40.3728814 L13.8125,40.3728814 C13.5078125,41.1864407 13.3046875,41.6949153 13.3046875,42.5084746 C13.3046875,45.559322 15.640625,48 18.6875,48 C21.8359375,48 24.171875,45.559322 24.171875,42.5084746 C24.171875,41.6949153 23.96875,40.8813559 23.6640625,40.3728814 L25.1875,40.3728814 C24.984375,41.1864407 24.6796875,41.6949153 24.6796875,42.5084746 C24.6796875,45.559322 27.015625,48 30.1640625,48 C33.3125,48 35.6484375,45.559322 35.6484375,42.5084746 C35.6484375,41.6949153 35.34375,40.8813559 35.140625,40.3728814 L52,40.3728814 L52,36.5084746 Z M36.6640625,6.81355932 C35.34375,4.47457627 33.0078125,3.15254237 30.46875,3.15254237 C30.1640625,3.15254237 29.859375,3.15254237 29.3515625,3.15254237 C28.03125,1.3220339 25.6953125,0 23.359375,0 C19.1953125,0 15.84375,3.45762712 15.84375,7.62711864 C15.84375,11.7966102 19.1953125,14.8474576 23.359375,14.8474576 C23.96875,14.8474576 24.6796875,14.8474576 25.1875,14.6440678 C26.5078125,15.9661017 28.3359375,16.9830508 30.46875,16.9830508 C31.484375,16.9830508 32.5,16.6779661 33.3125,16.1694915 C34.0234375,17.4915254 35.6484375,18.3050847 37.4765625,18.3050847 C38.4921875,18.3050847 39.3046875,18 40.015625,17.4915254 C40.015625,17.4915254 40.5234375,17.1864407 41.03125,17.1864407 C41.640625,17.1864407 42.3515625,18 42.3515625,18.5084746 C42.3515625,18.8135593 42.3515625,21.3559322 42.3515625,21.3559322 L45.8046875,21.3559322 C46.0078125,21.3559322 47.328125,10.4745763 36.6640625,6.81355932 Z" id="Shape"></path>
        </g>
    </g>
</svg>