<?xml version="1.0" encoding="UTF-8"?>
<svg width="64px" height="64px" viewBox="0 0 64 64" version="1.1" xmlns="http://www.w3.org/2000/svg" xmlns:xlink="http://www.w3.org/1999/xlink">
    <!-- Generator: Sketch 52.6 (67491) - http://www.bohemiancoding.com/sketch -->
    <title>tree-vegetation</title>
    <desc>Created with Sketch.</desc>
    <g id="tree-vegetation" stroke="none" stroke-width="1" fill="none" fill-rule="evenodd">
        <g id="icon-tree-vegetation" transform="translate(10.000000, 6.000000)" fill="#000000" fill-rule="nonzero">
            <path d="M44,44.4779874 C41.5436893,45.3501048 40.1553398,46.6582809 38.7669903,47.8574423 C39.3009709,46.1132075 40.4757282,44.4779874 41.7572816,42.8427673 C38.5533981,43.932914 36.3106796,45.5681342 34.9223301,47.312369 C34.3883495,46.6582809 33.8543689,46.1132075 33,45.5681342 C32.2524272,45.0230608 31.3980583,44.4779874 30.0097087,44.1509434 C31.0776699,45.8951782 31.7184466,47.5303983 31.0776699,49.1656184 C30.5436893,48.0754717 29.7961165,46.9853249 28.407767,45.8951782 C27.3398058,45.0230608 25.9514563,44.4779874 24.8834951,43.932914 C24.8834951,41.6436059 24.8834951,39.6813417 24.8834951,37.5010482 C24.8834951,36.4109015 25.9514563,35.21174 27.3398058,35.5387841 C32.7864078,36.6289308 37.9126214,33.0314465 38.7669903,27.4716981 C39.0873786,25.1823899 39.6213592,23.2201258 40.6893204,21.2578616 C44.2135922,14.9350105 40.4757282,6.75890985 33.3203883,6.5408805 C32.4660194,6.5408805 32.4660194,5.99580713 32.4660194,5.45073375 C30.8640777,-0.21802935 25.9514563,-1.52620545 21.2524272,2.07127883 C20.7184466,2.6163522 20.184466,2.6163522 19.6504854,2.28930818 C14.2038835,-0.4360587 7.90291262,3.70649895 8.11650485,9.92033543 C8.11650485,10.4654088 7.90291262,11.0104822 7.58252427,11.2285115 C6.30097087,12.1006289 5.44660194,13.5178197 5.98058252,15.1530398 C6.30097087,16.2431866 5.98058252,16.8972746 5.44660194,17.442348 C2.13592233,21.9119497 3.73786408,28.0167715 7.90291262,29.1069182 C8.11650485,29.1069182 8.4368932,29.4339623 8.4368932,29.6519916 C9.50485437,34.1215933 14.2038835,37.8280922 19.6504854,37.8280922 C20.5048544,37.8280922 20.7184466,38.0461216 20.7184466,38.918239 C20.7184466,40.8805031 20.5048544,43.0607966 20.5048544,45.0230608 C18.7961165,45.8951782 17.7281553,46.6582809 16.8737864,47.8574423 C17.407767,46.1132075 18.5825243,44.4779874 19.9708738,42.8427673 C16.6601942,43.932914 14.4174757,45.5681342 13.1359223,47.312369 C12.2815534,46.6582809 11.7475728,46.1132075 11.2135922,45.5681342 C10.3592233,45.0230608 9.50485437,44.4779874 8.11650485,44.1509434 C9.29126214,45.8951782 9.82524272,47.5303983 9.29126214,49.1656184 C8.75728155,48.0754717 7.90291262,46.9853249 6.51456311,45.8951782 C5.12621359,44.8050314 2.66990291,43.60587 1.60194175,43.3878407 C3.2038835,45.0230608 4.91262136,46.9853249 5.12621359,48.9475891 C3.73786408,47.8574423 2.45631068,46.6582809 0,45.8951782 C1.2815534,47.8574423 2.66990291,49.4926625 2.66990291,51.7819706 C5.44660194,51.7819706 8.4368932,51.7819706 11.2135922,51.7819706 C11.2135922,51.7819706 11.2135922,52 11.4271845,52 C11.4271845,52 14.4174757,52 18.0485437,52 C21.2524272,52 24.0291262,52 27.3398058,52 C31.0776699,52 34.3883495,52 34.3883495,52 C34.3883495,52 34.3883495,52 34.3883495,51.7819706 C36.8446602,51.7819706 39.3009709,51.7819706 41.7572816,51.7819706 C41.7572816,49.1656184 42.9320388,46.9853249 44,44.4779874 Z M27.0194175,48.4025157 C26.4854369,48.0754717 25.9514563,47.8574423 25.4174757,47.5303983 C25.4174757,46.6582809 25.4174757,45.8951782 25.4174757,45.0230608 C25.9514563,46.1132075 26.4854369,47.312369 27.0194175,48.4025157 Z" id="Shape"></path>
        </g>
    </g>
</svg>