<?xml version="1.0" encoding="UTF-8"?>
<svg width="64px" height="64px" viewBox="0 0 64 64" version="1.1" xmlns="http://www.w3.org/2000/svg" xmlns:xlink="http://www.w3.org/1999/xlink">
    <!-- Generator: Sketch 52.6 (67491) - http://www.bohemiancoding.com/sketch -->
    <title>tree-leaf-small</title>
    <desc>Created with Sketch.</desc>
    <g id="tree-leaf-small" stroke="none" stroke-width="1" fill="none" fill-rule="evenodd">
        <g id="icon-tree-leaf-small" transform="translate(12.000000, 6.000000)" fill="#000000">
            <path d="M30.848329,6.5 C30.0257069,6.5 30.0257069,5.9921875 29.8200514,5.484375 C28.1748072,0 22.9305913,-1.5234375 18.5089974,1.828125 C17.6863753,2.3359375 17.377892,2.640625 16.6580977,2.03125 C11.1053985,-0.5078125 4.52442159,3.65625 4.83290488,9.6484375 C4.83290488,10.15625 4.52442159,10.6640625 4.01028278,11.171875 C2.67352185,11.984375 2.15938303,13.3046875 2.36503856,15.03125 C2.67352185,16.1484375 2.36503856,16.65625 1.85089974,17.46875 C-1.54241645,21.8359375 0.30848329,27.828125 4.52442159,29.3515625 C4.83290488,29.3515625 5.03856041,29.65625 5.03856041,30.1640625 C6.06683805,34.53125 11.1053985,38.1875 16.6580977,38.1875 C17.377892,38.1875 17.6863753,38.4921875 17.6863753,39.3046875 C17.6863753,41.84375 17.377892,44.484375 17.377892,47.0234375 C17.377892,47.328125 17.377892,47.53125 17.377892,47.53125 C16.6580977,47.8359375 15.8354756,48.140625 15.0128535,48.6484375 C13.1619537,49.6640625 9.56298201,50.171875 9.56298201,50.171875 C9.56298201,50.171875 7.71208226,50.4765625 8.22622108,51.6953125 C8.22622108,51.6953125 8.22622108,52 8.43187661,52 C8.43187661,52 11.6195373,52 15.3213368,52 C18.714653,52 21.5938303,52 24.781491,52 C28.688946,52 32.18509,52 32.18509,52 C32.18509,52 32.3907455,50.984375 30.5398458,50.6796875 C28.688946,50.4765625 26.6323907,50.4765625 25.2956298,49.15625 C24.781491,48.6484375 23.7532134,48.140625 22.4164524,47.53125 C22.4164524,44.1796875 22.1079692,41.03125 22.1079692,37.6796875 C22.1079692,36.359375 23.4447301,35.6484375 24.5758355,35.8515625 C30.3341902,37.171875 35.5784062,33.515625 36.6066838,27.5234375 C36.9151671,25.1875 37.4293059,23.359375 38.4575835,21.328125 C42.159383,14.828125 38.4575835,6.8046875 30.848329,6.5 Z" id="Path"></path>
        </g>
    </g>
</svg>