<?xml version="1.0" encoding="UTF-8"?>
<svg width="64px" height="64px" viewBox="0 0 64 64" version="1.1" xmlns="http://www.w3.org/2000/svg" xmlns:xlink="http://www.w3.org/1999/xlink">
    <!-- Generator: Sketch 52.6 (67491) - http://www.bohemiancoding.com/sketch -->
    <title>tree-palm</title>
    <desc>Created with Sketch.</desc>
    <g id="tree-palm" stroke="none" stroke-width="1" fill="none" fill-rule="evenodd">
        <g id="icon-tree-palm" transform="translate(9.000000, 6.000000)" fill="#000000">
            <path d="M44.3859649,50.6822612 C42.6710526,50.4795322 40.5526316,50.4795322 39.2412281,49.1617934 C39.0394737,48.8576998 38.5350877,48.6549708 37.9298246,48.3508772 C37.9298246,43.1812865 37.2236842,38.214425 35.6096491,33.3489279 C33.8947368,28.0779727 31.2719298,23.2124756 27.4385965,19.0565302 C33.5921053,17.2319688 39.2412281,15.4074074 46,17.2319688 C40.5526316,10.7446394 33.2894737,9.73099415 26.8333333,14.0896686 C26.8333333,12.0623782 27.4385965,10.4405458 28.1447368,8.92007797 C30.2631579,4.76413255 33.5921053,2.43274854 38.2324561,1.11500975 C33.5921053,-0.202729045 29.4561404,-0.709551657 25.622807,1.62183236 C21.1842105,4.25730994 20.9824561,8.61598441 20.6798246,13.0760234 C8.77631579,5.57504873 2.11842105,11.0487329 0,18.5497076 C5.95175439,15.711501 11.9035088,13.8869396 18.5614035,16.4210526 C18.5614035,17.2319688 18.0570175,16.7251462 17.5526316,16.7251462 C15.7368421,16.4210526 13.9210526,16.7251462 12.1052632,16.9278752 C4.94298246,18.5497076 1.00877193,24.2261209 2.8245614,30.7134503 C8.5745614,23.4152047 15.0307018,19.5633528 19.1666667,20.5769981 C11.3991228,28.3820663 11.3991228,34.8693957 19.6710526,39.3294347 C19.3684211,38.5185185 19.1666667,38.0116959 19.1666667,37.5048733 C17.8552632,32.0311891 18.3596491,27.3684211 22.1929825,23.2124756 C22.6973684,22.4015595 23.3026316,22.4015595 23.8070175,23.2124756 C25.0175439,24.5302144 26.127193,26.0506823 26.8333333,27.5711501 C30.2631579,34.3625731 30.7675439,41.0526316 29.9605263,48.3508772 C29.7587719,48.3508772 29.7587719,48.6549708 29.4561404,48.6549708 C27.1359649,49.668616 23.504386,50.1754386 23.504386,50.1754386 C23.504386,50.1754386 21.6885965,50.4795322 22.1929825,51.6959064 C22.1929825,51.6959064 22.1929825,52 22.495614,52 C22.495614,52 25.622807,52 29.1535088,52 L37.7280702,52 C42.0657895,52 45.6973684,52 45.6973684,52 C45.6973684,52 46.2017544,50.9863548 44.3859649,50.6822612 Z" id="Path"></path>
        </g>
    </g>
</svg>