<?xml version="1.0" encoding="UTF-8"?>
<svg width="64px" height="64px" viewBox="0 0 64 64" version="1.1" xmlns="http://www.w3.org/2000/svg" xmlns:xlink="http://www.w3.org/1999/xlink">
    <!-- Generator: Sketch 52.6 (67491) - http://www.bohemiancoding.com/sketch -->
    <title>tree-planter</title>
    <desc>Created with Sketch.</desc>
    <g id="tree-planter" stroke="none" stroke-width="1" fill="none" fill-rule="evenodd">
        <g id="icon-tree-planter" transform="translate(9.000000, 6.000000)" fill="#000000" fill-rule="nonzero">
            <path d="M12.75,24.6843373 C12.75,19.2963855 11.125,14.1590361 9.5,9.02168675 C12.125,11.2771084 14,14.4096386 15.625,17.6674699 C15.375,12.1542169 13.75,7.01686747 11.5,2.25542169 C12.75,2.6313253 15.625,5.76385542 17.25,8.64578313 C18.875,11.2771084 19.75,14.4096386 20.5,17.2915663 C20.75,12.7807229 20.5,8.39518072 19.125,3.50843373 C20.75,4.51084337 21.75,5.76385542 22.625,7.39277108 C23.375,9.02168675 24.25,10.6506024 24.875,12.1542169 C26.5,7.39277108 29.125,3.25783133 32.875,0 C31.375,4.51084337 30,9.02168675 29.375,13.7831325 C30.625,10.2746988 32.625,7.01686747 35.5,4.51084337 C34.25,10.9012048 32.875,17.2915663 32.875,24.0578313 C26.25,24.6843373 19.5,24.6843373 12.75,24.6843373 Z M46,35.3349398 L0,35.3349398 L1.875,27.3156627 L44.125,27.3156627 L46,35.3349398 Z M38.625,52 L6.375,52 L4.5,38.2168675 L40.875,38.2168675 L38.625,52 Z" id="Shape"></path>
        </g>
    </g>
</svg>