<?xml version="1.0" encoding="UTF-8"?>
<svg width="64px" height="64px" viewBox="0 0 64 64" version="1.1" xmlns="http://www.w3.org/2000/svg" xmlns:xlink="http://www.w3.org/1999/xlink">
    <!-- Generator: Sketch 52.6 (67491) - http://www.bohemiancoding.com/sketch -->
    <title>tree-pine-old</title>
    <desc>Created with Sketch.</desc>
    <g id="tree-pine-old" stroke="none" stroke-width="1" fill="none" fill-rule="evenodd">
        <g id="icon-tree-pine-old" transform="translate(12.000000, 6.000000)" fill="#000000">
            <path d="M40,41.3359375 C35.4871795,37.6796875 31.7948718,33.515625 29.7435897,27.828125 C32.1025641,29.1484375 34.1538462,29.859375 36.8205128,29.859375 C33.6410256,27.015625 30.4615385,23.96875 28.4102564,20.0078125 C30.4615385,20.8203125 32.3076923,21.53125 34.6666667,21.53125 C28.1025641,15.3359375 23.6923077,8.0234375 20,0 C16.6153846,8.0234375 11.8974359,15.3359375 5.53846154,21.53125 C6.56410256,21.53125 7.69230769,21.328125 8.71794872,21.328125 C9.53846154,20.8203125 10.5641026,20.515625 11.3846154,20.3125 C9.53846154,23.96875 6.56410256,27.015625 3.17948718,29.859375 C5.84615385,29.859375 7.8974359,29.1484375 10.2564103,27.828125 C9.23076923,30.671875 7.69230769,33.0078125 6.05128205,35.140625 C4.20512821,37.4765625 2.35897436,39.3046875 0,41.03125 C3.48717949,41.3359375 6.56410256,40.3203125 9.74358974,39 C9.23076923,40.3203125 8.41025641,41.640625 7.69230769,42.65625 C10.2564103,41.84375 13.1282051,41.3359375 15.2820513,39.3046875 C14.974359,40.828125 14.7692308,42.1484375 13.9487179,43.46875 C15.4871795,42.859375 16.8205128,42.1484375 18.4615385,41.3359375 C18.4615385,43.1640625 18.4615385,44.9921875 18.4615385,46.8203125 C17.3333333,47.0234375 16.3076923,47.328125 15.4871795,48.140625 C13.1282051,49.6640625 9.53846154,50.171875 9.53846154,50.171875 C9.53846154,50.171875 7.69230769,50.4765625 8.20512821,51.6953125 C8.20512821,51.6953125 8.20512821,52 8.41025641,52 C8.41025641,52 13.4358974,52 18.6666667,52 C18.6666667,52 18.6666667,52 18.974359,52 C19.6923077,52 20.5128205,52 21.3333333,52 C21.3333333,52 21.5384615,52 21.5384615,52 C27.0769231,52 32.1025641,52 32.1025641,52 C32.1025641,52 32.3076923,50.984375 30.4615385,50.6796875 C28.6153846,50.4765625 26.5641026,50.4765625 25.2307692,49.15625 C24.7179487,48.6484375 23.3846154,47.8359375 21.5384615,47.53125 C21.5384615,46.515625 21.5384615,45.5 21.5384615,44.484375 C21.5384615,43.671875 21.5384615,42.859375 21.5384615,41.84375 C22.8717949,42.65625 24.5128205,43.46875 26.0512821,43.9765625 C25.2307692,42.65625 25.025641,41.3359375 24.7179487,39.8125 C27.0769231,41.84375 29.7435897,42.3515625 32.6153846,43.1640625 C31.7948718,42.1484375 31.0769231,40.828125 30.4615385,39.5078125 C32.1025641,40.015625 33.6410256,40.828125 35.1794872,41.03125 C36.8205128,41.3359375 38.3589744,41.640625 40,41.3359375 Z" id="Path"></path>
        </g>
    </g>
</svg>