<?xml version="1.0" encoding="UTF-8"?>
<svg width="64px" height="64px" viewBox="0 0 64 64" version="1.1" xmlns="http://www.w3.org/2000/svg" xmlns:xlink="http://www.w3.org/1999/xlink">
    <!-- Generator: Sketch 52.6 (67491) - http://www.bohemiancoding.com/sketch -->
    <title>tree-treed-area</title>
    <desc>Created with Sketch.</desc>
    <g id="tree-treed-area" stroke="none" stroke-width="1" fill="none" fill-rule="evenodd">
        <g id="icon-tree-treed-area" transform="translate(6.000000, 11.000000)" fill="#000000" fill-rule="nonzero">
            <path d="M24.7567568,5.25 C24.2162162,5.25 24.2162162,4.71428571 24,4.39285714 C22.5945946,0 18.3783784,-1.39285714 14.8108108,1.60714286 C14.2702703,1.92857143 13.9459459,1.92857143 13.4054054,1.60714286 C8.97297297,-0.321428571 3.78378378,2.78571429 3.78378378,7.71428571 C3.78378378,8.25 3.78378378,8.46428571 3.24324324,8.78571429 C2.37837838,9.64285714 1.83783784,10.7142857 2.05405405,12.1071429 C2.37837838,12.8571429 2.05405405,13.3928571 1.51351351,14.0357143 C-1.18918919,17.5714286 0.108108108,22.5 3.45945946,23.5714286 C4,23.5714286 4,23.5714286 4,23.8928571 C4.86486486,27.4285714 8.75675676,30.4285714 13.4054054,30.4285714 C14.2702703,30.4285714 14.2702703,30.75 14.2702703,31.2857143 C14.2702703,33.4285714 13.9459459,35.3571429 13.9459459,37.6071429 C13.9459459,37.8214286 13.9459459,37.8214286 13.9459459,38.1428571 C13.4054054,38.3571429 12.8648649,38.6785714 12.3243243,39 C10.7027027,39.75 7.56756757,40.2857143 7.56756757,40.2857143 C7.56756757,40.2857143 5.94594595,40.6071429 6.48648649,41.6785714 C6.48648649,41.6785714 6.48648649,42 6.81081081,42 C6.81081081,42 9.2972973,42 12.3243243,42 C15.1351351,42 17.2972973,42 20.1081081,42 C23.3513514,42 25.8378378,42 25.8378378,42 C25.8378378,42 26.1621622,41.1428571 24.7567568,40.8214286 C23.1351351,40.6071429 21.7297297,40.6071429 20.6486486,39.5357143 C20.3243243,39.2142857 19.2432432,38.6785714 18.1621622,38.3571429 C18.1621622,35.6785714 18.1621622,33.2142857 17.8378378,30.4285714 C17.8378378,29.3571429 18.7027027,28.8214286 19.7837838,28.8214286 C24.5405405,29.8928571 28.6486486,26.8928571 29.5135135,22.1785714 C29.7297297,20.5714286 30.0540541,18.9642857 30.9189189,17.25 C33.6216216,11.7857143 30.5945946,5.46428571 24.7567568,5.25 Z M48,14.5714286 C47.7837838,14.5714286 47.7837838,14.25 47.4594595,14.0357143 C46.5945946,11.5714286 44.4324324,10.7142857 42.1621622,12.3214286 C41.9459459,12.6428571 41.6216216,12.6428571 41.4054054,12.3214286 C38.9189189,11.25 35.8918919,12.8571429 35.8918919,15.6428571 C35.8918919,15.8571429 35.8918919,16.1785714 35.5675676,16.1785714 C35.027027,16.7142857 34.7027027,17.25 35.027027,17.7857143 C35.027027,18.4285714 35.027027,18.6428571 34.7027027,18.9642857 C33.4054054,20.8928571 33.9459459,23.5714286 35.8918919,24.4285714 C36.1081081,24.4285714 36.1081081,24.6428571 36.1081081,24.6428571 C36.6486486,26.8928571 38.9189189,28.5 41.4054054,28.2857143 C41.6216216,28.2857143 41.9459459,28.2857143 41.9459459,28.8214286 C41.9459459,29.8928571 41.9459459,31.2857143 41.9459459,32.3571429 C41.9459459,32.3571429 41.9459459,32.6785714 41.9459459,32.6785714 C41.6216216,32.6785714 41.0810811,32.8928571 40.8648649,33.2142857 C39.6756757,33.75 38.0540541,33.9642857 38.0540541,33.9642857 C38.0540541,33.9642857 37.1891892,34.2857143 37.5135135,34.8214286 C37.5135135,34.8214286 38.9189189,34.8214286 40.5405405,34.8214286 C41.9459459,34.8214286 43.3513514,34.8214286 44.972973,34.8214286 C46.9189189,34.8214286 48.3243243,34.8214286 48.3243243,34.8214286 C48.3243243,34.8214286 48.5405405,34.2857143 47.4594595,34.2857143 C46.3783784,34.2857143 45.8378378,33.9642857 45.2972973,33.4285714 C44.972973,33.2142857 44.4324324,32.8928571 43.8918919,32.6785714 C43.8918919,31.2857143 43.8918919,29.5714286 43.8918919,28.2857143 C43.8918919,27.75 44.4324324,27.1071429 44.972973,27.4285714 C47.7837838,27.9642857 49.9459459,26.3571429 50.4864865,23.5714286 C50.8108108,22.5 50.8108108,21.6428571 51.3513514,20.8928571 C52.972973,18.4285714 51.3513514,14.7857143 48,14.5714286 Z" id="Shape"></path>
        </g>
    </g>
</svg>