<?xml version="1.0" encoding="UTF-8"?>
<svg width="64px" height="64px" viewBox="0 0 64 64" version="1.1" xmlns="http://www.w3.org/2000/svg" xmlns:xlink="http://www.w3.org/1999/xlink">
    <!-- Generator: Sketch 52.6 (67491) - http://www.bohemiancoding.com/sketch -->
    <title>tree-leaf-old</title>
    <desc>Created with Sketch.</desc>
    <g id="tree-leaf-old" stroke="none" stroke-width="1" fill="none" fill-rule="evenodd">
        <g id="icon-tree-leaf-old" transform="translate(6.000000, 6.000000)" fill="#000000" fill-rule="nonzero">
            <path d="M49.9766537,22.1988304 C52.3035019,19.5633528 52.6070039,16.2183236 50.4824903,13.582846 C48.459144,11.0487329 45.0194553,10.2378168 41.9844358,11.7582846 C41.1750973,12.0623782 40.8715953,12.0623782 40.6692607,11.251462 C39.8599222,9.73099415 38.848249,8.61598441 37.3307393,8.10916179 C36.5214008,7.90643275 36.5214008,7.60233918 36.5214008,6.89278752 C36.5214008,3.95321637 35.2062257,2.12865497 32.8793774,0.912280702 C30.3501946,-0.40545809 27.922179,-0.202729045 25.5953307,1.62183236 C24.8871595,2.12865497 24.5836576,2.12865497 23.8754864,1.62183236 C20.9416342,0.40545809 17.6031128,1.41910331 15.7821012,3.75048733 C14.770428,5.06822612 14.9727626,7.09551657 13.9610895,8.10916179 C13.2529183,9.22417154 11.4319066,9.42690058 10.6225681,11.0487329 C10.1167315,12.0623782 9.61089494,12.0623782 8.49805447,11.5555556 C5.66536965,10.7446394 2.63035019,12.0623782 1.01167315,14.5964912 C-0.505836576,17.2319688 -0.303501946,20.5769981 2.0233463,22.705653 C2.63035019,23.4152047 2.83268482,23.7192982 2.0233463,24.5302144 C0.303501946,26.8615984 6.9388939e-18,29.3957115 1.51750973,31.7270955 C2.83268482,34.0584795 5.46303502,35.3762183 7.9922179,35.1734893 C8.49805447,35.1734893 9.10505837,35.1734893 9.307393,35.6803119 C11.4319066,37.7076023 13.7587549,38.214425 16.5914397,37.2007797 C16.7937743,37.2007797 17.0972763,36.9980507 17.4007782,36.9980507 C17.9066148,36.9980507 20.9416342,41.6608187 20.9416342,42.1676413 C20.9416342,42.3703704 20.7392996,42.877193 20.7392996,43.1812865 C20.233463,45.005848 19.4241245,47.0331384 18.9182879,49.1617934 C17.0972763,49.9727096 15.5797665,50.1754386 15.5797665,50.1754386 C15.5797665,50.1754386 13.7587549,50.4795322 14.2645914,51.6959064 C14.2645914,51.6959064 14.2645914,52 14.4669261,52 C14.4669261,52 16.0856031,52 18.1089494,52 C23.5719844,52 29.0350195,52 34.1945525,52 C34.1945525,52 34.3968872,52 34.3968872,52 C36.5214008,52 37.8365759,52 37.8365759,52 C37.8365759,52 38.0389105,50.9863548 36.2178988,50.6822612 C35.7120623,50.6822612 35.0038911,50.4795322 34.3968872,50.4795322 C33.8910506,48.8576998 33.688716,47.337232 32.8793774,46.0194932 C31.3618677,42.877193 31.5642023,40.0389864 34.1945525,37.7076023 C34.1945525,37.7076023 34.1945525,37.5048733 34.3968872,37.5048733 C34.7003891,36.9980507 35.2062257,36.6939571 35.7120623,36.9980507 C38.0389105,37.5048733 40.1634241,36.6939571 41.6809339,35.1734893 C42.1867704,34.5653021 42.692607,34.3625731 43.5019455,34.3625731 C46.3346304,34.5653021 48.6614786,33.5516569 50.2801556,31.0175439 C51.4941634,28.3820663 51.2918288,26.0506823 49.7743191,23.7192982 C49.4708171,23.2124756 49.4708171,22.705653 49.9766537,22.1988304 Z M27.922179,34.5653021 C28.7315175,34.0584795 29.7431907,33.8557505 30.5525292,33.3489279 C31.0583658,33.0448343 31.0583658,33.8557505 31.3618677,34.0584795 C31.5642023,34.3625731 31.8677043,34.5653021 31.3618677,35.1734893 C30.3501946,35.8830409 29.540856,36.3898635 28.2256809,37.2007797 C28.2256809,36.9980507 28.2256809,36.9980507 28.2256809,36.9980507 C28.2256809,35.8830409 27.4163424,35.1734893 27.922179,34.5653021 Z M21.2451362,32.2339181 C22.0544747,33.0448343 23.0661479,33.8557505 24.077821,34.0584795 C24.5836576,34.3625731 24.5836576,34.5653021 24.5836576,35.1734893 C24.5836576,35.6803119 24.381323,36.1871345 24.381323,36.9980507 C23.2684825,36.3898635 22.7626459,35.8830409 22.0544747,35.6803119 C20.4357977,34.3625731 20.4357977,34.3625731 21.2451362,32.2339181 Z" id="Shape"></path>
        </g>
    </g>
</svg>