<?xml version="1.0" encoding="UTF-8"?>
<svg width="64px" height="64px" viewBox="0 0 64 64" version="1.1" xmlns="http://www.w3.org/2000/svg" xmlns:xlink="http://www.w3.org/1999/xlink">
    <!-- Generator: Sketch 52.6 (67491) - http://www.bohemiancoding.com/sketch -->
    <title>tree-hedge</title>
    <desc>Created with Sketch.</desc>
    <g id="tree-hedge" stroke="none" stroke-width="1" fill="none" fill-rule="evenodd">
        <g id="icon-tree-hedge" transform="translate(13.000000, 6.000000)" fill="#000000">
            <path d="M38,28.1272727 C33.9807692,31.4363636 31.1794872,35.3363636 28.9871795,39.5909091 C29.9615385,33.5636364 31.7884615,28.1272727 34.224359,22.3363636 C32.7628205,23.5181818 31.1794872,24.8181818 29.5961538,26 C29.9615385,20.5636364 30.5705128,15.3636364 30.8141026,9.92727273 C28.3782051,15.3636364 26.4294872,22.3363636 25.2115385,29.9 C25.8205128,19.2636364 27.1602564,9.69090909 28.6217949,0 C24.9679487,6.61818182 22.4102564,15.7181818 20.8269231,26.2363636 C20.2179487,22.6909091 19.6089744,19.0272727 18.6346154,15.7181818 C18.3910256,12.4090909 17.1730769,9.33636364 15.8333333,6.85454545 C16.8076923,14.1818182 17.4166667,21.3909091 17.4166667,28.7181818 C17.1730769,28.3636364 16.5641026,27.7727273 16.1987179,27.5363636 C15.5897436,24.1090909 14.9807692,20.8 14.0064103,17.4909091 C12.4230769,10.8727273 9.98717949,4.49090909 8.40384615,3.54545455 C10.2307692,13.2363636 11.5705128,23.2818182 12.1794872,33.8 C11.8141026,33.5636364 11.8141026,32.9727273 11.5705128,32.6181818 C10.2307692,27.1818182 8.76923077,21.9818182 6.82051282,18.0818182 C7.18589744,21.3909091 7.79487179,25.0545455 8.03846154,28.3636364 C5.84615385,26.2363636 4.01923077,24.8181818 2.43589744,24.1090909 C5.6025641,30.2545455 8.03846154,36.5181818 8.76923077,43.2545455 C6.57692308,39.2363636 3.77564103,35.3363636 0,32.6181818 C2.19230769,39 4.62820513,45.0272727 4.62820513,52 C6.57692308,52 8.03846154,52 9.98717949,52 C16.1987179,52 22.775641,52 29.2307692,52 C31.1794872,52 33.0064103,52 34.9551282,52 C33.9807692,43.8454545 36.1730769,35.9272727 38,28.1272727 Z" id="Path"></path>
        </g>
    </g>
</svg>