<?xml version="1.0" encoding="UTF-8"?>
<svg width="64px" height="64px" viewBox="0 0 64 64" version="1.1" xmlns="http://www.w3.org/2000/svg" xmlns:xlink="http://www.w3.org/1999/xlink">
    <!-- Generator: Sketch 52.6 (67491) - http://www.bohemiancoding.com/sketch -->
    <title>tree-enviromental-structure</title>
    <desc>Created with Sketch.</desc>
    <g id="tree-enviromental-structure" stroke="none" stroke-width="1" fill="none" fill-rule="evenodd">
        <g id="icon-tree-enviromental-structure" transform="translate(6.000000, 7.000000)" fill="#000000" fill-rule="nonzero">
            <path d="M9.87037037,12.052506 C7.10185185,15.1551313 4.93518519,18.49642 3.12962963,22.1957041 C-3.12250226e-15,19.0930788 -0.962962963,14.9164678 1.2037037,10.6205251 C4.33333333,4.77326969 9.26851852,1.67064439 15.7685185,0.477326969 C19.3796296,-0.119331742 23.1111111,-0.119331742 27.0833333,0.835322196 C24.3148148,2.98329356 22.1481481,5.13126492 21.3055556,8.11455847 C20.5833333,10.2625298 20.3425926,12.052506 20.3425926,14.2004773 C19.9814815,17.6610979 19.3796296,20.6443914 16.3703704,22.7923628 C15.4074074,23.7470167 14.2037037,24.3436754 12.6388889,24.5823389 C10.8333333,24.9403341 8.66666667,25.2983294 7.34259259,24.3436754 C6.13888889,23.3890215 7.34259259,21.5990453 7.7037037,20.0477327 C8.30555556,17.3031026 8.90740741,14.9164678 9.87037037,12.052506 Z M39.7222222,13.0071599 C36.712963,10.2625298 33.2222222,8.11455847 29.6111111,6.32458234 C32.6203704,2.98329356 36.9537037,2.02863962 41.287037,4.17661098 C47.1851852,7.27923628 50.1944444,12.052506 51.3981481,18.49642 C52.1203704,22.1957041 52.1203704,25.8949881 51.1574074,29.8329356 C48.9907407,27.0883055 47.1851852,24.9403341 43.6944444,23.9856802 C41.6481481,23.3890215 39.7222222,23.150358 37.5555556,23.150358 C34.1851852,22.7923628 31.1759259,21.8377088 29.0092593,19.0930788 C28.0462963,17.8997613 27.4444444,16.7064439 27.0833333,15.5131265 C26.8425926,13.6038186 26.4814815,11.4558473 27.4444444,10.2625298 C28.287037,9.06921241 30.212963,10.2625298 31.7777778,10.6205251 C34.5462963,11.4558473 36.9537037,12.4105012 39.7222222,13.0071599 Z M11.0740741,34.1288783 C11.0740741,34.1288783 11.4351852,34.1288783 11.4351852,34.1288783 C16.9722222,36.2768496 21.5462963,34.725537 26.2407407,31.6229117 C29.0092593,29.8329356 32.3796296,29.2362768 35.75,30.4295943 C38.5185185,31.3842482 40.3240741,33.5322196 41.6481481,35.9188544 C41.8888889,36.8735084 41.6481481,37.4701671 40.6851852,37.8281623 C36.712963,39.6181384 32.9814815,40.8114558 28.6481481,41.7661098 C33.2222222,42.0047733 37.9166667,42.3627685 42.4907407,41.4081146 C40.9259259,47.8520286 35.3888889,50.9546539 28.287037,49.6420048 C20.5833333,48.2100239 15.7685185,42.9594272 12.2777778,36.5155131 C11.6759259,35.3221957 11.4351852,34.725537 11.0740741,34.1288783 Z" id="Shape"></path>
        </g>
    </g>
</svg>