<?xml version="1.0" encoding="UTF-8"?>
<svg width="64px" height="64px" viewBox="0 0 64 64" version="1.1" xmlns="http://www.w3.org/2000/svg" xmlns:xlink="http://www.w3.org/1999/xlink">
    <!-- Generator: Sketch 52.6 (67491) - http://www.bohemiancoding.com/sketch -->
    <title>tree-leaf-average</title>
    <desc>Created with Sketch.</desc>
    <g id="tree-leaf-average" stroke="none" stroke-width="1" fill="none" fill-rule="evenodd">
        <g id="icon-tree-leaf-average" transform="translate(7.000000, 6.000000)" fill="#000000">
            <path d="M46.2398374,27.8679612 C48.2723577,27.3631068 49.898374,25.2427184 49.898374,23.223301 C49.898374,21.1029126 48.2723577,19.0834951 45.9349593,18.7805825 C45.7317073,18.7805825 45.4268293,18.5786408 45.4268293,18.2757282 C45.2235772,16.761165 44.1056911,15.4485437 42.5813008,14.9436893 C42.0731707,14.6407767 41.2601626,14.6407767 40.7520325,14.438835 C41.5650407,13.4291262 41.7682927,12.3184466 41.7682927,11.1067961 C41.7682927,9.79417476 41.2601626,8.68349515 40.2439024,7.97669903 C39.4308943,7.16893204 38.4146341,6.66407767 37.0934959,6.66407767 C35.8739837,6.66407767 34.5528455,6.96699029 33.4349593,7.97669903 C32.4186992,5.65436893 30.8943089,4.34174757 28.2520325,4.64466019 C28.2520325,4.64466019 28.2520325,4.34174757 28.2520325,4.34174757 C27.5406504,2.01941748 26.2195122,0.706796117 24.0853659,0.201941748 C22.0528455,-0.302912621 20.2235772,0.504854369 18.902439,2.01941748 C18.699187,2.52427184 18.3943089,2.52427184 18.0894309,2.52427184 C16.3617886,2.01941748 14.7357724,2.52427184 13.4146341,4.03883495 C12.398374,4.84660194 12.195122,6.1592233 12.195122,7.47184466 C11.8902439,7.47184466 11.8902439,7.16893204 11.5853659,7.16893204 C9.85772358,6.1592233 8.02845528,6.1592233 6.40243902,7.16893204 C4.87804878,8.17864078 4.06504065,9.79417476 4.3699187,11.8135922 C4.3699187,12.3184466 4.3699187,12.3184466 3.86178862,12.6213592 C1.52439024,13.1262136 -0.101626016,15.1456311 0.203252033,17.568932 C0.406504065,19.8912621 2.23577236,21.607767 4.3699187,21.9106796 C4.87804878,21.9106796 5.38617886,21.9106796 5.89430894,21.9106796 C4.57317073,22.9203883 4.06504065,24.5359223 4.06504065,26.0504854 C0.914634146,26.5553398 -0.304878049,29.3825243 0.203252033,31.5029126 C0.406504065,32.5126214 0.914634146,33.5223301 1.72764228,34.3300971 C3.04878049,35.3398058 4.57317073,35.6427184 6.19918699,35.3398058 C6.19918699,35.6427184 6.19918699,35.6427184 6.19918699,35.8446602 C6.70731707,37.9650485 8.02845528,38.9747573 9.85772358,39.4796117 C11.5853659,39.7825243 13.2113821,39.2776699 14.5325203,37.6621359 C14.7357724,37.4601942 14.7357724,37.4601942 15.2439024,37.4601942 C17.8861789,37.9650485 19.9186992,37.1572816 21.7479675,35.3398058 C21.7479675,35.3398058 22.0528455,35.1378641 22.0528455,34.8349515 C22.0528455,35.1378641 22.0528455,35.1378641 22.0528455,35.1378641 C22.2560976,37.9650485 22.5609756,40.4893204 23.0691057,43.4174757 C23.0691057,44.4271845 23.0691057,45.4368932 22.5609756,46.4466019 C21.7479675,48.0621359 20.4268293,48.768932 18.902439,49.0718447 C17.5813008,49.2737864 16.3617886,49.576699 15.0406504,49.8796117 C14.7357724,49.8796117 14.2276423,50.0815534 13.9227642,50.384466 C13.4146341,50.5864078 13.4146341,51.0912621 13.7195122,51.3941748 C14.2276423,52.2019417 14.5325203,51.8990291 14.7357724,51.8990291 C22.2560976,51.8990291 29.5731707,51.8990291 37.0934959,51.8990291 C37.398374,51.8990291 37.601626,51.8990291 37.601626,51.8990291 C37.601626,51.0912621 37.398374,50.8893204 36.5853659,50.5864078 C35.8739837,50.384466 35.0609756,50.384466 34.2479675,50.0815534 C33.2317073,49.8796117 31.9105691,49.576699 31.097561,48.768932 C30.0813008,47.7592233 29.8780488,46.7495146 29.8780488,45.4368932 C29.8780488,43.9223301 29.8780488,42.3067961 29.8780488,40.792233 L31.9105691,35.3398058 C33.7398374,36.1475728 35.5691057,36.1475728 37.398374,35.1378641 C38.2113821,34.8349515 38.4146341,34.8349515 38.7195122,35.3398058 C39.7357724,37.1572816 42.0731707,37.9650485 43.902439,37.4601942 C45.7317073,36.9553398 47.0528455,35.6427184 47.5609756,33.8252427 C48.0691057,32.007767 47.2560976,30.1902913 45.7317073,29.1805825 C45.2235772,28.8776699 45.4268293,28.3728155 45.4268293,28.0699029 C45.7317073,27.8679612 45.9349593,27.8679612 46.2398374,27.8679612 Z" id="Path"></path>
        </g>
    </g>
</svg>