<?xml version="1.0" encoding="UTF-8"?>
<svg width="64px" height="64px" viewBox="0 0 64 64" version="1.1" xmlns="http://www.w3.org/2000/svg" xmlns:xlink="http://www.w3.org/1999/xlink">
    <!-- Generator: Sketch 52.6 (67491) - http://www.bohemiancoding.com/sketch -->
    <title>tree-leaf</title>
    <desc>Created with Sketch.</desc>
    <g id="tree-leaf" stroke="none" stroke-width="1" fill="none" fill-rule="evenodd">
        <g id="icon-tree-leaf" transform="translate(15.000000, 6.000000)" fill="#000000">
            <path d="M25.81875,37.1866405 C30.175,37.1866405 34,33.7131631 34,29.3202358 C34,25.6424361 31.55625,22.7819253 28.05,21.6581532 C29.9625,20.6365422 31.55625,18.2868369 31.55625,15.7328094 C31.55625,11.7485265 28.36875,8.58153242 24.225,8.58153242 C24.0125,8.58153242 23.375,8.58153242 23.1625,8.58153242 C23.375,7.86640472 23.375,7.35559921 23.375,6.53831041 C23.375,2.86051081 20.4,0 16.575,0 C12.85625,0 9.775,2.86051081 9.775,6.53831041 C9.775,7.35559921 10.09375,8.07072692 10.09375,8.58153242 C9.775,8.58153242 9.5625,8.58153242 9.03125,8.58153242 C5.41875,8.88801572 2.23125,12.0550098 2.23125,15.7328094 C2.23125,18.2868369 3.825,20.6365422 6.05625,21.6581532 C2.44375,22.475442 0,25.6424361 0,29.3202358 C0,33.5088409 3.6125,37.1866405 8.18125,37.1866405 C10.09375,37.1866405 12.00625,36.3693517 13.3875,35.3477407 C16.04375,40.762279 15.3,45.2573674 12.00625,49.4459725 C11.15625,49.4459725 5.7375,49.4459725 5.7375,49.4459725 L5.7375,52 L28.36875,52 L28.36875,49.4459725 C28.36875,49.4459725 22.63125,49.4459725 22.1,49.4459725 C18.80625,45.2573674 17.95625,41.0687623 20.71875,35.3477407 C22.1,36.3693517 23.69375,37.1866405 25.81875,37.1866405 Z" id="Path"></path>
        </g>
    </g>
</svg>