<?xml version="1.0" encoding="UTF-8"?>
<svg width="64px" height="64px" viewBox="0 0 64 64" version="1.1" xmlns="http://www.w3.org/2000/svg" xmlns:xlink="http://www.w3.org/1999/xlink">
    <!-- Generator: Sketch 52.6 (67491) - http://www.bohemiancoding.com/sketch -->
    <title>tree-grassed-area</title>
    <desc>Created with Sketch.</desc>
    <g id="tree-grassed-area" stroke="none" stroke-width="1" fill="none" fill-rule="evenodd">
        <g id="icon-tree-grassed-area" transform="translate(6.000000, 11.000000)" fill="#000000">
            <path d="M6.27301587,42 C6.27301587,32.12749 3.3015873,23.5936255 0,14.5577689 C5.44761905,18.4063745 9.24444444,23.9282869 12.215873,29.9521912 C11.3904762,20.5816733 7.92380952,11.5458167 3.7968254,3.01195219 C6.76825397,3.84860558 12.215873,9.03585657 15.5174603,14.5577689 C18.4888889,19.2430279 20.6349206,24.4302789 21.9555556,29.9521912 C22.7809524,21.9203187 21.9555556,14.2231076 18.984127,6.02390438 C21.9555556,7.69721116 24.431746,10.374502 26.0825397,12.8844622 C27.8984127,15.3944223 29.0539683,18.4063745 30.3746032,21.4183267 C33.8412698,12.8844622 38.7936508,5.52191235 46.8825397,0 C43.415873,7.69721116 40.9396825,15.8964143 39.6190476,23.9282869 C42.5904762,18.0717131 46.0571429,12.3824701 52,7.69721116 C49.0285714,19.2430279 46.3873016,30.4541833 46.8825397,42 C33.3460317,42 19.8095238,42 6.27301587,42 Z" id="Path"></path>
        </g>
    </g>
</svg>