<?xml version="1.0" encoding="UTF-8"?>
<svg width="64px" height="64px" viewBox="0 0 64 64" version="1.1" xmlns="http://www.w3.org/2000/svg" xmlns:xlink="http://www.w3.org/1999/xlink">
    <!-- Generator: Sketch 52.6 (67491) - http://www.bohemiancoding.com/sketch -->
    <title>unit-time</title>
    <desc>Created with Sketch.</desc>
    <g id="unit-time" stroke="none" stroke-width="1" fill="none" fill-rule="evenodd">
        <g id="icon-unit-time" transform="translate(9.000000, 7.000000)" fill="#000000" fill-rule="nonzero">
            <path d="M22.6477024,5.9921875 C10.0656455,5.9921875 0,16.3515625 0,28.84375 C0,41.3359375 10.0656455,52 22.6477024,52 C35.3304158,52 45.3960613,41.640625 45.3960613,29.1484375 C45.3960613,16.65625 35.3304158,5.9921875 22.6477024,5.9921875 Z M22.6477024,47.53125 C12.6827133,47.53125 4.12691466,39.3046875 4.12691466,28.84375 C4.12691466,18.484375 12.6827133,10.359375 22.6477024,10.359375 C32.7133479,10.359375 41.2691466,18.6875 41.2691466,29.1484375 C41.2691466,39.5078125 33.0153173,47.53125 22.6477024,47.53125 Z M23.2516411,13.8125 L23.2516411,29.65625 L7.44857768,29.65625 C7.75054705,37.6796875 14.4945295,44.1796875 22.6477024,44.1796875 C31.2035011,44.1796875 37.8468271,37.4765625 37.8468271,28.84375 C37.8468271,20.8203125 31.404814,14.015625 23.2516411,13.8125 Z M19.3260394,3.3515625 L26.7746171,3.3515625 C27.5798687,3.3515625 28.3851204,2.640625 28.3851204,1.828125 C28.3851204,1.015625 27.8818381,0 27.0765864,0 L19.3260394,0 C18.5207877,0 17.8161926,0.8125 17.8161926,1.5234375 C17.8161926,2.3359375 18.5207877,3.3515625 19.3260394,3.3515625 Z M45.3960613,10.96875 L39.9606127,5.484375 C39.4573304,4.9765625 38.4507659,4.9765625 37.6455142,5.484375 C37.1422319,5.9921875 37.1422319,7.0078125 37.6455142,7.8203125 L43.0809628,13.3046875 C43.5842451,13.8125 44.5908096,13.8125 45.3960613,13.3046875 C46.1006565,12.4921875 46.1006565,11.4765625 45.3960613,10.96875 Z" id="Shape"></path>
        </g>
    </g>
</svg>