<?xml version="1.0" encoding="UTF-8"?>
<svg width="64px" height="64px" viewBox="0 0 64 64" version="1.1" xmlns="http://www.w3.org/2000/svg" xmlns:xlink="http://www.w3.org/1999/xlink">
    <!-- Generator: Sketch 52.6 (67491) - http://www.bohemiancoding.com/sketch -->
    <title>unit-per-unit</title>
    <desc>Created with Sketch.</desc>
    <g id="unit-per-unit" stroke="none" stroke-width="1" fill="none" fill-rule="evenodd">
        <g id="icon-unit-per-unit" transform="translate(6.000000, 7.000000)" fill="#000000">
            <path d="M51.6947162,15.84375 C51.4911937,14.828125 50.4735812,14.3203125 49.3542074,14.828125 L45.7925636,16.1484375 L45.7925636,1.828125 C45.7925636,0.8125 44.9784736,0 44.1643836,0 C43.146771,0 42.6379648,0.8125 42.6379648,1.5234375 L42.6379648,17.1640625 L33.7847358,20.515625 L33.7847358,1.828125 C33.7847358,0.8125 32.9706458,0 31.9530333,0 C30.9354207,0 30.4266145,0.8125 30.4266145,1.5234375 L30.4266145,21.8359375 L21.776908,25.1875 L21.776908,1.828125 C21.776908,0.8125 20.962818,0 19.9452055,0 C18.927593,0 18.1135029,0.8125 18.1135029,1.828125 L18.1135029,26.5078125 L9.56555773,29.859375 L9.56555773,1.828125 C9.56555773,0.8125 8.75146771,0 7.93737769,0 C6.91976517,0 6.10567515,0.8125 6.10567515,1.828125 L6.10567515,31.1796875 L1.22113503,33.0078125 C0.203522505,33.3125 -0.101761252,34.328125 0.203522505,35.34375 C0.40704501,36.359375 1.42465753,36.96875 2.54403131,36.359375 L6.10567515,35.140625 L6.10567515,50.171875 C6.10567515,51.1875 6.91976517,52 7.73385519,52 C8.75146771,52 9.26027397,51.1875 9.26027397,50.4765625 L9.26027397,33.8203125 L18.1135029,30.46875 L18.1135029,50.171875 C18.1135029,51.1875 18.927593,52 19.9452055,52 C20.962818,52 21.4716243,51.1875 21.4716243,50.4765625 L21.4716243,29.3515625 L30.1213307,26 L30.1213307,50.4765625 C30.1213307,51.4921875 30.9354207,52 31.6477495,52 C32.7671233,52 33.2759295,51.1875 33.2759295,50.4765625 L33.2759295,24.4765625 L41.8238748,21.0234375 L41.8238748,50.171875 C41.8238748,51.1875 42.6379648,51.6953125 43.4520548,51.6953125 C44.4696673,51.6953125 44.9784736,50.984375 44.9784736,50.171875 L44.9784736,20.0078125 L49.964775,18.1796875 C51.6947162,17.671875 52.3052838,16.65625 51.6947162,15.84375 Z" id="Path"></path>
        </g>
    </g>
</svg>