<?xml version="1.0" encoding="UTF-8"?>
<svg width="64px" height="64px" viewBox="0 0 64 64" version="1.1" xmlns="http://www.w3.org/2000/svg" xmlns:xlink="http://www.w3.org/1999/xlink">
    <!-- Generator: Sketch 52.6 (67491) - http://www.bohemiancoding.com/sketch -->
    <title>unit-area</title>
    <desc>Created with Sketch.</desc>
    <g id="unit-area" stroke="none" stroke-width="1" fill="none" fill-rule="evenodd">
        <g id="icon-unit-area" transform="translate(6.000000, 7.000000)" fill="#000000" fill-rule="nonzero">
            <path d="M41.6608187,7.8203125 L44.1949318,7.8203125 L44.1949318,44.1796875 L41.6608187,44.1796875 L41.6608187,7.8203125 Z M7.90643275,7.8203125 L10.4405458,7.8203125 L10.4405458,44.1796875 L7.90643275,44.1796875 L7.90643275,7.8203125 Z M7.90643275,0 L10.4405458,0 L10.4405458,5.1796875 L7.90643275,5.1796875 L7.90643275,0 Z M41.6608187,0 L44.1949318,0 L44.1949318,5.1796875 L41.6608187,5.1796875 L41.6608187,0 Z M7.90643275,46.8203125 L10.4405458,46.8203125 L10.4405458,52 L7.90643275,52 L7.90643275,46.8203125 Z M41.6608187,46.8203125 L44.1949318,46.8203125 L44.1949318,52 L41.6608187,52 L41.6608187,46.8203125 Z M44.1949318,41.640625 L44.1949318,44.28125 L7.80506823,44.28125 L7.80506823,41.640625 L44.1949318,41.640625 Z M44.1949318,7.8203125 L44.1949318,10.4609375 L7.80506823,10.4609375 L7.80506823,7.8203125 L44.1949318,7.8203125 Z M52,7.8203125 L52,10.4609375 L46.7290448,10.4609375 L46.7290448,7.8203125 L52,7.8203125 Z M52,41.640625 L52,44.28125 L46.7290448,44.28125 L46.7290448,41.640625 L52,41.640625 Z M5.27095517,7.8203125 L5.27095517,10.4609375 L0,10.4609375 L0,7.8203125 L5.27095517,7.8203125 Z M5.27095517,41.640625 L5.27095517,44.28125 L0,44.28125 L0,41.640625 L5.27095517,41.640625 Z" id="Shape"></path>
        </g>
    </g>
</svg>