<?xml version="1.0" encoding="UTF-8"?>
<svg width="64px" height="64px" viewBox="0 0 64 64" version="1.1" xmlns="http://www.w3.org/2000/svg" xmlns:xlink="http://www.w3.org/1999/xlink">
    <!-- Generator: Sketch 52.6 (67491) - http://www.bohemiancoding.com/sketch -->
    <title>unit-length</title>
    <desc>Created with Sketch.</desc>
    <g id="unit-length" stroke="none" stroke-width="1" fill="none" fill-rule="evenodd">
        <g id="icon-unit-length" transform="translate(6.000000, 7.000000)" fill="#000000" fill-rule="nonzero">
            <path d="M37.1428571,1.3 L1.09243697,37.05 C-0.327731092,38.4583333 -0.327731092,40.95 1.09243697,42.6833333 L9.50420168,50.9166667 C10.9243697,52.325 13.4369748,52.325 15.0756303,50.9166667 L50.907563,14.95 C52.3277311,13.5416667 52.3277311,11.05 50.907563,9.31666667 L42.4957983,1.08333333 C41.0756303,-0.325 38.5630252,-0.325 37.1428571,1.3 Z M10.0504202,39.8666667 L8.08403361,41.8166667 L3.05882353,36.8333333 L5.02521008,34.8833333 L10.0504202,39.8666667 Z M18.1344538,39.8666667 L16.1680672,41.8166667 L7.21008403,32.9333333 L9.17647059,30.9833333 L18.1344538,39.8666667 Z M18.1344538,31.85 L16.1680672,33.8 L11.1428571,28.8166667 L13.1092437,26.8666667 L18.1344538,31.85 Z M22.0672269,27.95 L20.1008403,29.9 L15.0756303,24.9166667 L17.0420168,22.9666667 L22.0672269,27.95 Z M29.9327731,27.95 L27.9663866,29.9 L19.0084034,21.0166667 L20.9747899,19.0666667 L29.9327731,27.95 Z M29.9327731,20.15 L27.9663866,22.1 L22.9411765,17.1166667 L24.907563,15.1666667 L29.9327731,20.15 Z M33.8655462,16.25 L31.8991597,18.2 L26.8739496,13.2166667 L28.8403361,11.2666667 L33.8655462,16.25 Z M41.9495798,16.25 L39.9831933,18.2 L31.0252101,9.31666667 L32.9915966,7.36666667 L41.9495798,16.25 Z M41.9495798,8.23333333 L39.9831933,10.1833333 L34.9579832,5.2 L36.9243697,3.25 L41.9495798,8.23333333 Z" id="Shape"></path>
        </g>
    </g>
</svg>