<?xml version="1.0" encoding="UTF-8"?>
<svg width="64px" height="64px" viewBox="0 0 64 64" version="1.1" xmlns="http://www.w3.org/2000/svg" xmlns:xlink="http://www.w3.org/1999/xlink">
    <!-- Generator: Sketch 52.6 (67491) - http://www.bohemiancoding.com/sketch -->
    <title>unit-volume</title>
    <desc>Created with Sketch.</desc>
    <g id="unit-volume" stroke="none" stroke-width="1" fill="none" fill-rule="evenodd">
        <g id="icon-unit-volume" transform="translate(6.000000, 10.000000)" fill="#000000" fill-rule="nonzero">
            <path d="M26.3046875,15.0307018 L14.828125,21.1842105 L26.3046875,27.1359649 L37.984375,21.1842105 L26.3046875,15.0307018 Z M27.5234375,43.377193 L38.4921875,38.2324561 L38.4921875,23.504386 L27.5234375,29.4561404 L27.5234375,43.377193 Z M14.3203125,37.4254386 L25.1875,43.377193 L25.1875,29.4561404 L14.3203125,23.504386 L14.3203125,37.4254386 Z M25.4921875,12.7105263 L26.5078125,12.7105263 L26.5078125,4.94298246 L29.65625,4.94298246 L26,0 L22.34375,4.94298246 L25.4921875,4.94298246 L25.4921875,12.7105263 Z M52,45.495614 L49.6640625,40.3508772 L48.34375,42.6710526 L41.84375,38.7368421 L41.3359375,39.745614 L47.53125,43.6798246 L46.3125,46 L52,45.495614 Z M10.15625,38.7368421 L3.65625,42.6710526 L2.3359375,40.3508772 L0,45.495614 L5.6875,46 L4.46875,43.6798246 L10.6640625,39.745614 L10.15625,38.7368421 Z" id="Shape"></path>
        </g>
    </g>
</svg>