<?xml version="1.0" encoding="UTF-8"?>
<svg width="64px" height="64px" viewBox="0 0 64 64" version="1.1" xmlns="http://www.w3.org/2000/svg" xmlns:xlink="http://www.w3.org/1999/xlink">
    <!-- Generator: Sketch 52.6 (67491) - http://www.bohemiancoding.com/sketch -->
    <title>user-lock</title>
    <desc>Created with Sketch.</desc>
    <g id="user-lock" stroke="none" stroke-width="1" fill="none" fill-rule="evenodd">
        <g id="icon-user-lock" transform="translate(13.000000, 6.000000)" fill="#000000" fill-rule="nonzero">
            <path d="M35.5081967,28.4737864 C34.3661202,27.968932 33.3278689,27.6660194 32.2896175,27.4640777 C30.9398907,27.161165 29.3825137,27.161165 28.0327869,26.6563107 C24.6065574,25.6466019 24.0874317,22.8194175 26.4754098,19.992233 C27.2021858,19.184466 28.0327869,17.8718447 28.3442623,16.8621359 C28.863388,14.7417476 29.0710383,12.7223301 29.3825137,10.6019417 C29.3825137,10.4 29.3825137,10.4 29.3825137,10.0970874 C29.3825137,9.39029126 29.3825137,8.58252427 29.0710383,7.77475728 C28.5519126,3.63495146 25.3333333,0.605825243 20.8688525,0 C20.557377,0 20.3497268,0 20.0382514,0 C19.8306011,0 19.8306011,0 19.5191257,0 C19.5191257,0 19.3114754,0 19.3114754,0 C14.2240437,0.302912621 10.4863388,3.13009709 9.6557377,7.77475728 C9.44808743,9.59223301 9.44808743,11.7126214 9.6557377,13.7320388 C9.96721311,16.5592233 10.7978142,18.8815534 13.1857923,21.0019417 C15.2622951,23.0213592 14.7431694,25.3436893 11.8360656,26.6563107 C9.96721311,27.4640777 7.78688525,27.161165 6.02185792,27.968932 C4.36065574,28.4737864 2.49180328,29.2815534 1.1420765,30.2912621 C-0.62295082,32.1087379 -0.103825137,34.1281553 2.28415301,35.4407767 C3.01092896,35.9456311 4.15300546,36.2485437 5.19125683,36.4504854 C6.74863388,30.5941748 12.3551913,26.1514563 19,26.1514563 C25.6448087,26.1514563 31.2513661,30.5941748 32.8087432,36.4504854 C33.6393443,36.2485437 34.1584699,35.9456311 34.989071,35.9456311 C36.2349727,35.4407767 37.8961749,34.9359223 37.8961749,33.1184466 C38.1038251,30.7961165 37.0655738,29.4834951 35.5081967,28.4737864 Z M19,32.9165049 C17.9617486,32.9165049 17.1311475,33.623301 17.1311475,34.6330097 L17.1311475,37.0563107 L20.557377,37.0563107 L20.557377,34.6330097 C20.8688525,33.623301 20.0382514,32.9165049 19,32.9165049 Z M19,27.161165 C11.8360656,27.161165 6.2295082,32.9165049 6.2295082,39.5805825 C6.2295082,46.3456311 11.8360656,52 19,52 C26.1639344,52 31.7704918,46.3456311 31.7704918,39.5805825 C31.7704918,32.9165049 26.1639344,27.161165 19,27.161165 Z M25.1256831,45.0330097 C25.1256831,45.5378641 24.8142077,46.0427184 24.295082,46.0427184 L23.2568306,46.3456311 C22.9453552,46.8504854 22.2185792,46.8504854 21.6994536,46.8504854 L16.3005464,46.8504854 C15.7814208,46.8504854 15.0546448,46.8504854 14.431694,46.5475728 L13.704918,46.3456311 C13.1857923,46.0427184 12.8743169,45.5378641 12.8743169,45.2349515 L12.8743169,38.5708738 C12.8743169,38.0660194 13.3934426,37.561165 13.704918,37.561165 L15.5737705,37.561165 L15.5737705,35.4407767 C15.5737705,32.9165049 16.6120219,31.6038835 19,31.6038835 C21.3879781,31.6038835 22.4262295,33.1184466 22.4262295,35.4407767 L22.4262295,37.561165 L24.0874317,37.561165 C24.6065574,37.561165 25.1256831,38.0660194 25.1256831,38.5708738 L25.1256831,45.0330097 Z" id="Shape"></path>
        </g>
    </g>
</svg>