<?xml version="1.0" encoding="UTF-8"?>
<svg width="64px" height="64px" viewBox="0 0 64 64" version="1.1" xmlns="http://www.w3.org/2000/svg" xmlns:xlink="http://www.w3.org/1999/xlink">
    <!-- Generator: Sketch 52.6 (67491) - http://www.bohemiancoding.com/sketch -->
    <title>user-copy-from-user</title>
    <desc>Created with Sketch.</desc>
    <g id="user-copy-from-user" stroke="none" stroke-width="1" fill="none" fill-rule="evenodd">
        <g id="icon-user-copy-from-user" transform="translate(6.000000, 10.000000)" fill="#000000" fill-rule="nonzero">
            <path d="M38.0282828,33.7333333 C36.8727273,33.2095238 35.5070707,32.8952381 34.4565657,32.6857143 C32.8808081,32.3714286 31.3050505,32.3714286 29.6242424,31.847619 C25.8424242,30.4857143 25.3171717,27.552381 28.0484848,24.6190476 C28.7838384,23.5714286 29.6242424,22.4190476 29.9393939,21.1619048 C30.4646465,18.9619048 30.989899,16.552381 30.989899,14.4571429 C30.989899,14.1428571 30.989899,14.1428571 30.989899,13.9333333 C30.989899,13.0952381 30.989899,12.047619 30.6747475,11.2095238 C30.1494949,6.39047619 26.6828283,3.14285714 21.8505051,2.61904762 C21.5353535,2.61904762 21.3252525,2.61904762 21.010101,2.61904762 C20.8,2.61904762 20.8,2.61904762 20.4848485,2.61904762 C20.4848485,2.61904762 20.2747475,2.61904762 20.2747475,2.61904762 C15.1272727,2.61904762 11.1353535,5.86666667 10.2949495,10.6857143 C9.97979798,12.7809524 9.97979798,14.9809524 10.2949495,17.0761905 C10.5050505,20.0095238 11.6606061,22.7333333 13.7616162,25.1428571 C15.9676768,27.3428571 15.3373737,30.2761905 12.3959596,31.3238095 C10.5050505,32.1619048 8.08888889,32.1619048 6.1979798,32.6857143 C4.41212121,33.2095238 2.52121212,34.047619 1.15555556,35.3047619 C-0.735353535,37.1904762 -0.21010101,39.6 2.20606061,40.9619048 C3.25656566,41.4857143 4.62222222,42.0095238 5.67272727,42.3238095 C9.76969697,42.847619 13.7616162,43.6857143 17.8585859,43.8952381 C24.5818182,44.2095238 30.989899,43.8952381 37.3979798,41.4857143 C38.7636364,40.9619048 40.6545455,40.1238095 40.6545455,38.2380952 C40.6545455,36.1428571 39.6040404,34.7809524 38.0282828,33.7333333 Z M50.6343434,32.6857143 C50.1090909,32.3714286 49.2686869,32.1619048 48.7434343,32.1619048 C47.9030303,31.847619 46.8525253,31.847619 46.0121212,31.5333333 C43.9111111,30.8 43.5959596,29.1238095 44.9616162,27.552381 C45.4868687,27.0285714 45.8020202,26.1904762 46.0121212,25.6666667 C46.3272727,24.3047619 46.5373737,23.2571429 46.5373737,21.8952381 C46.5373737,21.8952381 46.5373737,21.6857143 46.5373737,21.6857143 C46.5373737,21.1619048 46.5373737,20.6380952 46.3272727,20.0095238 C46.0121212,17.3904762 44.1212121,15.5047619 41.4949495,15.1904762 C41.179798,15.1904762 41.179798,15.1904762 40.969697,15.1904762 C40.969697,15.1904762 40.6545455,15.1904762 40.6545455,15.1904762 C40.6545455,15.1904762 40.6545455,15.1904762 40.4444444,15.1904762 C37.3979798,15.1904762 35.2969697,17.0761905 34.7717172,19.8 C34.4565657,20.847619 34.7717172,22.2095238 34.7717172,23.5714286 C34.7717172,25.1428571 35.5070707,26.7142857 36.8727273,28.0761905 C37.7131313,28.9142857 37.7131313,29.752381 37.3979798,30.4857143 C39.0787879,31.3238095 40.969697,32.6857143 41.7050505,33.7333333 C42.8606061,35.6190476 43.3858586,36.9809524 43.3858586,38.2380952 C45.8020202,38.0285714 47.9030303,37.7142857 50.1090909,36.9809524 C50.8444444,36.6666667 52,36.1428571 52,35.0952381 C52,34.2571429 51.4747475,33.2095238 50.6343434,32.6857143 Z M42.020202,8.27619048 C41.7050505,7.43809524 41.4949495,6.39047619 40.969697,5.55238095 C38.7636364,1.57142857 34.2464646,-0.628571429 29.9393939,0.20952381 L30.1494949,2.93333333 C33.4060606,2.3047619 36.8727273,3.66666667 38.5535354,6.91428571 C38.7636364,7.43809524 39.0787879,8.27619048 39.2888889,9.00952381 L37.7131313,8.27619048 L38.2383838,10.1619048 L41.7050505,12.047619 L43.3858586,8.48571429 L43.0707071,6.6 L42.020202,8.27619048 Z" id="Shape"></path>
        </g>
    </g>
</svg>