<?xml version="1.0" encoding="UTF-8"?>
<svg width="64px" height="64px" viewBox="0 0 64 64" version="1.1" xmlns="http://www.w3.org/2000/svg" xmlns:xlink="http://www.w3.org/1999/xlink">
    <!-- Generator: Sketch 52.6 (67491) - http://www.bohemiancoding.com/sketch -->
    <title>user-team</title>
    <desc>Created with Sketch.</desc>
    <g id="user-team" stroke="none" stroke-width="1" fill="none" fill-rule="evenodd">
        <g id="icon-user-team" transform="translate(6.000000, 11.000000)" fill="#000000" fill-rule="nonzero">
            <path d="M51.0841487,26.471464 C49.8630137,24.8039702 48.0313112,24.2828784 46.1996086,24.0744417 C45.0802348,24.0744417 44.0626223,23.7617866 43.0450098,23.5533499 C40.3992172,22.4069479 40.1956947,20.3225806 41.7221135,17.9255583 C42.5362035,16.5707196 43.3502935,15.2158809 43.553816,13.6526055 C44.0626223,11.7766749 44.0626223,9.90074442 44.0626223,8.0248139 C44.0626223,4.79404467 42.739726,2.18858561 39.6868885,0.833746898 C36.5322896,-0.521091811 33.3776908,-0.208436725 30.8336595,1.6674938 C34.7005871,10.2133995 34.3953033,18.133995 29.0019569,26.1588089 C30.0195695,26.471464 31.037182,26.6799007 32.0547945,26.6799007 C36.0234834,26.9925558 39.3816047,28.3473945 41.7221135,31.7866005 C42.0273973,32.3076923 42.739726,32.6203474 43.0450098,32.6203474 C45.3855186,32.0992556 47.7260274,31.4739454 50.0665362,30.7444169 C52.2035225,29.91067 52.407045,28.0347395 51.0841487,26.471464 Z M36.8375734,31.7866005 C35.7181996,31.2655087 34.3953033,30.9528536 33.3776908,30.7444169 C31.851272,30.4317618 30.3248532,30.4317618 28.6966732,29.91067 C25.0332681,28.5558313 24.5244618,25.6377171 27.1702544,22.719603 C27.8825832,21.6774194 28.6966732,20.5310174 29.0019569,19.280397 C29.5107632,17.0918114 30.0195695,14.6947891 30.0195695,12.6104218 C30.0195695,12.2977667 30.0195695,12.2977667 30.0195695,12.08933 C30.0195695,11.2555831 30.0195695,10.2133995 29.7142857,9.37965261 C29.2054795,4.58560794 25.8473581,1.35483871 21.1663405,0.833746898 C20.8610568,0.833746898 20.6575342,0.833746898 20.3522505,0.833746898 C20.148728,0.833746898 20.148728,0.833746898 19.8434442,0.833746898 C19.8434442,0.833746898 19.6399217,0.833746898 19.6399217,0.833746898 C14.6536204,0.833746898 10.7866928,4.06451613 9.97260274,8.85856079 C9.66731898,10.942928 9.66731898,13.1315136 9.97260274,15.2158809 C10.1761252,18.133995 11.295499,20.8436725 13.3307241,23.2406948 C15.4677104,25.4292804 14.8571429,28.3473945 12.0078278,29.3895782 C10.1761252,30.2233251 7.83561644,30.2233251 6.00391389,30.7444169 C4.2739726,31.2655087 2.44227006,32.0992556 1.11937378,33.3498759 C-0.712328767,35.2258065 -0.203522505,37.6228288 2.1369863,38.9776675 C3.15459883,39.4987593 4.47749511,40.0198511 5.49510763,40.3325062 C9.46379648,40.853598 13.3307241,41.6873449 17.2994129,41.8957816 C23.8121331,42.2084367 30.0195695,41.8957816 36.2270059,39.4987593 C37.5499022,38.9776675 39.3816047,38.1439206 39.3816047,36.2679901 C39.3816047,34.1836228 38.3639922,32.8287841 36.8375734,31.7866005 Z" id="Shape"></path>
        </g>
    </g>
</svg>