<?xml version="1.0" encoding="UTF-8"?>
<svg width="64px" height="64px" viewBox="0 0 64 64" version="1.1" xmlns="http://www.w3.org/2000/svg" xmlns:xlink="http://www.w3.org/1999/xlink">
    <!-- Generator: Sketch 57.1 (83088) - https://sketch.com -->
    <title>user-power</title>
    <desc>Created with Sketch.</desc>
    <g id="user-power" stroke="none" stroke-width="1" fill="none" fill-rule="evenodd">
        <path d="M32,34 C38.627417,34 44,39.372583 44,46 C44,52.627417 38.627417,58 32,58 C25.372583,58 20,52.627417 20,46 C20,39.372583 25.372583,34 32,34 Z M33.0416667,39 L27,46.7777778 L30.958,46.777 L30.9583333,53 L37,44.8333333 L33.041,44.833 L33.0416667,39 Z M48.5746969,34.4737864 C47.4274492,33.968932 46.3844967,33.6660194 45.3415443,33.4640777 C43.9857061,33.161165 42.4212774,33.161165 41.0654393,32.6563107 C37.6236962,31.6466019 37.10222,28.8194175 39.5010106,25.992233 C40.2310773,25.184466 41.0654393,23.8718447 41.378325,22.8621359 C41.8998012,20.7417476 42.1083917,18.7223301 42.4212774,16.6019417 C42.4212774,16.4 42.4212774,16.4 42.4212774,16.0970874 C42.4212774,15.3902913 42.4212774,14.5825243 42.1083917,13.7747573 C41.5869155,9.63495146 38.3537629,6.60582524 33.8690674,6 C33.5561817,6 33.3475912,6 33.0347054,6 C32.8261149,6 32.8261149,6 32.5132292,6 C32.5132292,6 32.3046387,6 32.3046387,6 C27.1941717,6.30291262 23.4395429,9.13009709 22.605181,13.7747573 C22.3965905,15.592233 22.3965905,17.7126214 22.605181,19.7320388 C22.9180667,22.5592233 23.7524287,24.8815534 26.1512193,27.0019417 C28.2371242,29.0213592 27.715648,31.3436893 24.7953811,32.6563107 C22.9180667,33.4640777 20.7278666,33.161165 18.9548474,33.968932 C17.2861235,34.4737864 15.4088091,35.2815534 14.0529709,36.2912621 C12.2799518,38.1087379 12.801428,40.1281553 15.2002186,41.4407767 C15.9302853,41.9456311 17.077533,42.2485437 18.1204855,42.4504854 C19.6849141,36.5941748 25.3168573,32.1514563 31.991753,32.1514563 C38.6666486,32.1514563 44.2985918,36.5941748 45.8630205,42.4504854 C46.6973825,42.2485437 47.2188587,41.9456311 48.0532207,41.9456311 C49.3047636,41.4407767 50.9734875,40.9359223 50.9734875,39.1184466 C51.182078,36.7961165 50.1391255,35.4834951 48.5746969,34.4737864 Z" id="Shape" fill="#000000" fill-rule="nonzero"></path>
    </g>
</svg>