<?xml version="1.0" encoding="UTF-8"?>
<svg width="64px" height="64px" viewBox="0 0 64 64" version="1.1" xmlns="http://www.w3.org/2000/svg" xmlns:xlink="http://www.w3.org/1999/xlink">
    <!-- Generator: Sketch 52.6 (67491) - http://www.bohemiancoding.com/sketch -->
    <title>user-bot</title>
    <desc>Created with Sketch.</desc>
    <g id="user-bot" stroke="none" stroke-width="1" fill="none" fill-rule="evenodd">
        <path d="M30,17 L30,15.5839563 C28.2340952,14.8123997 27,13.050319 27,11 C27,8.23857625 29.2385763,6 32,6 C34.7614237,6 37,8.23857625 37,11 C37,13.050319 35.7659048,14.8123997 34,15.5839563 L34,17 L49,17 C51.209139,17 53,18.790861 53,21 L53,26.5539975 C56.0000756,28.4023754 58,31.717634 58,35.5 C58,39.282366 56.0000756,42.5976246 53,44.4460025 L53,54 C53,56.209139 51.209139,58 49,58 L15,58 C12.790861,58 11,56.209139 11,54 L11,44.4460025 C7.99992442,42.5976246 6,39.282366 6,35.5 C6,31.717634 7.99992442,28.4023754 11,26.5539975 L11,21 C11,18.790861 12.790861,17 15,17 L30,17 Z M21,37.5 C19.8954305,37.5 19,36.6045695 19,35.5 C19,34.3954305 19.8954305,33.5 21,33.5 C22.1045695,33.5 23,34.3954305 23,35.5 C23,36.6045695 22.1045695,37.5 21,37.5 Z M21,41.5 C24.3137085,41.5 27,38.8137085 27,35.5 C27,32.1862915 24.3137085,29.5 21,29.5 C17.6862915,29.5 15,32.1862915 15,35.5 C15,38.8137085 17.6862915,41.5 21,41.5 Z M43,37.5 C41.8954305,37.5 41,36.6045695 41,35.5 C41,34.3954305 41.8954305,33.5 43,33.5 C44.1045695,33.5 45,34.3954305 45,35.5 C45,36.6045695 44.1045695,37.5 43,37.5 Z M43,41.5 C46.3137085,41.5 49,38.8137085 49,35.5 C49,32.1862915 46.3137085,29.5 43,29.5 C39.6862915,29.5 37,32.1862915 37,35.5 C37,38.8137085 39.6862915,41.5 43,41.5 Z M24.5,50 L39.5,50 C40.6045695,50 41.5,49.1045695 41.5,48 C41.5,46.8954305 40.6045695,46 39.5,46 L24.5,46 C23.3954305,46 22.5,46.8954305 22.5,48 C22.5,49.1045695 23.3954305,50 24.5,50 Z" fill="#000000"></path>
    </g>
</svg>