<?xml version="1.0" encoding="UTF-8"?>
<svg width="64px" height="64px" viewBox="0 0 64 64" version="1.1" xmlns="http://www.w3.org/2000/svg" xmlns:xlink="http://www.w3.org/1999/xlink">
    <!-- Generator: Sketch 52.6 (67491) - http://www.bohemiancoding.com/sketch -->
    <title>user</title>
    <desc>Created with Sketch.</desc>
    <g id="user" stroke="none" stroke-width="1" fill="none" fill-rule="evenodd">
        <g id="icon-user" transform="translate(7.000000, 6.000000)" fill="#000000">
            <path d="M46.6494845,38.9027431 C45.3608247,38.2543641 43.685567,37.8653367 42.3969072,37.605985 C40.3350515,37.2169576 38.4020619,37.2169576 36.4690722,36.5685786 C31.8298969,34.882793 31.185567,31.2518703 34.4072165,27.6209476 C35.4381443,26.3241895 36.4690722,24.8977556 36.7268041,23.3416459 C37.757732,20.2294264 38.0154639,17.6359102 38.0154639,14.6533666 C38.0154639,14.2643392 38.0154639,14.2643392 38.0154639,14.0049875 C38.0154639,12.967581 38.0154639,11.6708229 37.757732,10.6334165 C37.1134021,4.66832918 32.7319588,0.648379052 26.8041237,0 C26.5463918,0 26.1597938,0 25.9020619,0 C25.5154639,0 25.5154639,0 25.257732,0 C25.257732,0 24.871134,0 24.871134,0 C18.556701,0 13.6597938,4.01995012 12.628866,9.98503741 C12.371134,13.3566085 12.371134,15.9501247 12.628866,18.6733167 C13.0154639,22.3042394 14.3041237,25.5461347 17.0103093,28.5286783 C19.5876289,31.2518703 18.943299,34.882793 15.3350515,36.1795511 C13.0154639,37.2169576 10.0515464,37.2169576 7.73195876,37.8653367 C5.41237113,38.5137157 3.09278351,39.5511222 1.41752577,41.2369077 C-0.902061856,43.5710723 -0.257731959,46.553616 2.70618557,48.2394015 C4.12371134,48.8877805 5.79896907,49.5361596 7.08762887,49.7955112 C11.9845361,50.4438903 17.0103093,51.4812968 21.9072165,51.8703242 C30.1546392,52.1296758 38.0154639,51.8703242 46.0051546,48.8877805 C47.6804124,48.2394015 50,47.201995 50,44.8678304 C50,42.1446384 48.5824742,40.1995012 46.6494845,38.9027431 Z" id="Path"></path>
        </g>
    </g>
</svg>