<?xml version="1.0" encoding="UTF-8"?>
<svg width="64px" height="64px" viewBox="0 0 64 64" version="1.1" xmlns="http://www.w3.org/2000/svg" xmlns:xlink="http://www.w3.org/1999/xlink">
    <!-- Generator: Sketch 52.6 (67491) - http://www.bohemiancoding.com/sketch -->
    <title>user-new-permissions</title>
    <desc>Created with Sketch.</desc>
    <g id="user-new-permissions" stroke="none" stroke-width="1" fill="none" fill-rule="evenodd">
        <g id="icon-user-new-permissions" transform="translate(6.000000, 6.000000)" fill="#000000" fill-rule="nonzero">
            <path d="M28.8888889,47.556582 L31.9621749,44.4341801 L35.5271868,47.9168591 L32.4539007,51.039261 L28.8888889,47.556582 Z M32.9456265,43.4734411 L48.4349882,28.221709 L52,31.704388 L36.3877069,46.9561201 L32.9456265,43.4734411 Z M28.1513002,52 L31.5933806,52 L28.1513002,48.2771363 L28.1513002,52 Z M38.4775414,34.4665127 C37.248227,34.1062356 36.0189125,34.1062356 34.7895981,33.8660508 C30.3640662,32.3048499 29.749409,28.9422633 32.822695,25.5796767 C33.8061466,24.3787529 34.7895981,23.0577367 35.035461,21.6166282 C36.0189125,18.7344111 36.2647754,16.3325635 36.2647754,13.5704388 C36.2647754,13.2101617 36.2647754,13.2101617 36.2647754,12.9699769 C36.2647754,12.0092379 36.2647754,10.8083141 36.0189125,9.84757506 C35.4042553,4.32332564 31.2245863,0.600461894 25.56974,0 C25.3238771,0 24.9550827,0 24.7092199,0 C24.3404255,0 24.3404255,0 24.0945626,0 C24.0945626,0 23.7257683,0 23.7257683,0 C17.7021277,0 13.0307329,3.72286374 12.0472813,9.24711316 C11.8014184,12.369515 11.8014184,14.7713626 12.0472813,17.2933025 C12.4160757,20.6558891 13.6453901,23.6581986 16.2269504,26.4203233 C18.6855792,28.9422633 18.070922,32.3048499 14.6288416,33.5057737 C12.4160757,34.4665127 9.58865248,34.4665127 7.37588652,35.0669746 C5.16312057,35.6674365 2.95035461,36.6281755 1.35224586,38.1893764 C-0.860520095,40.3510393 -0.245862884,43.113164 2.58156028,44.6743649 C3.93380615,45.2748268 5.53191489,45.8752887 6.76122931,46.1154734 C11.4326241,46.7159353 16.2269504,47.6766744 20.8983452,48.0369515 C22.1276596,48.0369515 23.356974,48.0369515 24.7092199,48.0369515 L38.4775414,34.4665127 Z M41.6737589,45.5150115 C42.2884161,45.2748268 42.9030733,45.2748268 43.5177305,44.9145497 C45.1158392,44.3140878 47.3286052,43.3533487 47.3286052,41.1916859 C47.3286052,40.9515012 47.3286052,40.591224 47.3286052,39.9907621 L41.6737589,45.5150115 Z" id="Shape"></path>
        </g>
    </g>
</svg>