<?xml version="1.0" encoding="UTF-8"?>
<svg width="64px" height="64px" viewBox="0 0 64 64" version="1.1" xmlns="http://www.w3.org/2000/svg" xmlns:xlink="http://www.w3.org/1999/xlink">
    <!-- Generator: Sketch 52.6 (67491) - http://www.bohemiancoding.com/sketch -->
    <title>user-approved</title>
    <desc>Created with Sketch.</desc>
    <g id="user-approved" stroke="none" stroke-width="1" fill="none" fill-rule="evenodd">
        <g id="icon-user-approved" transform="translate(13.000000, 6.000000)" fill="#000000" fill-rule="nonzero">
            <path d="M35.6054795,28.1964637 C34.460274,27.6856582 33.4191781,27.481336 32.3780822,27.1748527 C31.0246575,26.9705305 29.4630137,26.9705305 28.109589,26.459725 C24.6739726,25.3359528 24.1534247,22.475442 26.5479452,19.9214145 C27.2767123,19.1041257 28.109589,17.7760314 28.4219178,16.7544204 C28.9424658,14.6090373 29.1506849,12.5658153 29.4630137,10.4204322 C29.4630137,10.21611 29.4630137,10.21611 29.4630137,9.90962672 C29.4630137,9.19449902 29.4630137,8.37721022 29.1506849,7.55992141 C28.630137,3.37131631 25.4027397,0.306483301 21.1342466,0 C20.9260274,0 20.6136986,0 20.4054795,0 C20.0931507,0 20.0931507,0 19.8849315,0 C19.8849315,0 19.5726027,0 19.5726027,0 C14.2630137,0 10.8273973,2.86051081 9.99452055,7.55992141 C9.68219178,9.39882122 9.68219178,11.5442043 9.99452055,13.3831041 C10.3068493,16.2436149 11.0356164,18.5933202 13.2219178,20.6365422 C15.3041096,22.475442 14.7835616,25.1316306 11.8684932,26.1532417 C9.99452055,26.9705305 7.80821918,26.6640472 6.03835616,27.481336 C4.37260274,27.9921415 2.49863014,28.8094303 1.14520548,29.8310413 C-0.624657534,31.6699411 -0.104109589,33.7131631 2.29041096,34.7347741 C3.01917808,35.3477407 4.16438356,35.5520629 5.20547945,35.8585462 C6.76712329,29.8310413 12.3890411,25.3359528 19.0520548,25.3359528 C25.7150685,25.3359528 31.3369863,29.8310413 32.8986301,35.8585462 C33.7315068,35.5520629 34.2520548,35.3477407 35.0849315,35.3477407 C36.3342466,34.7347741 38,34.2239686 38,32.3850688 C38,30.6483301 36.9589041,29.3202358 35.6054795,28.1964637 Z M19.0520548,26.9705305 C12.0767123,26.9705305 6.24657534,32.3850688 6.24657534,39.5363458 C6.24657534,46.2789784 11.8684932,52 19.0520548,52 C26.2356164,52 31.8575342,46.5854617 31.8575342,39.5363458 C31.8575342,32.3850688 26.0273973,26.9705305 19.0520548,26.9705305 Z M16.3452055,46.7897839 L10.3068493,40.5579568 L12.7013699,38.719057 L16.6575342,43.1119843 L25.7150685,33.7131631 L27.5890411,35.8585462 L16.3452055,46.7897839 Z" id="Shape"></path>
        </g>
    </g>
</svg>