<?xml version="1.0" encoding="UTF-8"?>
<svg width="64px" height="64px" viewBox="0 0 64 64" version="1.1" xmlns="http://www.w3.org/2000/svg" xmlns:xlink="http://www.w3.org/1999/xlink">
    <!-- Generator: Sketch 52.6 (67491) - http://www.bohemiancoding.com/sketch -->
    <title>user-bot-sad</title>
    <desc>Created with Sketch.</desc>
    <g id="user-bot-sad" stroke="none" stroke-width="1" fill="none" fill-rule="evenodd">
        <path d="M30,17 L30,15.5839563 C28.2340952,14.8123997 27,13.050319 27,11 C27,8.23857625 29.2385763,6 32,6 C34.7614237,6 37,8.23857625 37,11 C37,13.050319 35.7659048,14.8123997 34,15.5839563 L34,17 L49,17 C51.209139,17 53,18.790861 53,21 L53,26.5539975 C56.0000756,28.4023754 58,31.717634 58,35.5 C58,39.282366 56.0000756,42.5976246 53,44.4460025 L53,54 C53,56.209139 51.209139,58 49,58 L15,58 C12.790861,58 11,56.209139 11,54 L11,44.4460025 C7.99992442,42.5976246 6,39.282366 6,35.5 C6,31.717634 7.99992442,28.4023754 11,26.5539975 L11,21 C11,18.790861 12.790861,17 15,17 L30,17 Z M21,37.5 C19.8954305,37.5 19,36.6045695 19,35.5 C19,34.3954305 19.8954305,33.5 21,33.5 C22.1045695,33.5 23,34.3954305 23,35.5 C23,36.6045695 22.1045695,37.5 21,37.5 Z M21,41.5 C24.3137085,41.5 27,38.8137085 27,35.5 C27,32.1862915 24.3137085,29.5 21,29.5 C17.6862915,29.5 15,32.1862915 15,35.5 C15,38.8137085 17.6862915,41.5 21,41.5 Z M43,37.5 C41.8954305,37.5 41,36.6045695 41,35.5 C41,34.3954305 41.8954305,33.5 43,33.5 C44.1045695,33.5 45,34.3954305 45,35.5 C45,36.6045695 44.1045695,37.5 43,37.5 Z M43,41.5 C46.3137085,41.5 49,38.8137085 49,35.5 C49,32.1862915 46.3137085,29.5 43,29.5 C39.6862915,29.5 37,32.1862915 37,35.5 C37,38.8137085 39.6862915,41.5 43,41.5 Z M42.452941,49.7699103 C41.9745597,49.1239286 41.4372767,48.5233042 40.8485204,47.9760887 C40.1823298,47.3569022 39.4529383,46.808604 38.6724848,46.341081 C36.672063,45.1427482 34.3807176,44.5 32,44.5 C29.6192824,44.5 27.327937,45.1427482 25.3275152,46.341081 C24.5470617,46.808604 23.8176702,47.3569022 23.1514796,47.9760887 C22.5627233,48.5233042 22.0254403,49.1239286 21.547059,49.7699103 C20.8896985,50.6575763 21.076398,51.9100678 21.964064,52.5674282 C22.8517301,53.2247887 24.1042215,53.0380892 24.761582,52.1504232 C25.0933557,51.702413 25.4661395,51.285681 25.8746555,50.9059885 C26.3367284,50.4765178 26.8424188,50.0963803 27.3830759,49.772505 C28.7666384,48.9436955 30.3483772,48.5 32,48.5 C33.6516228,48.5 35.2333616,48.9436955 36.6169241,49.772505 C37.1575812,50.0963803 37.6632716,50.4765178 38.1253445,50.9059885 C38.5338605,51.285681 38.9066443,51.702413 39.238418,52.1504232 C39.8957785,53.0380892 41.1482699,53.2247887 42.035936,52.5674282 C42.923602,51.9100678 43.1103015,50.6575763 42.452941,49.7699103 Z" fill="#000000"></path>
    </g>
</svg>