<?xml version="1.0" encoding="UTF-8"?>
<svg width="64px" height="64px" viewBox="0 0 64 64" version="1.1" xmlns="http://www.w3.org/2000/svg" xmlns:xlink="http://www.w3.org/1999/xlink">
    <!-- Generator: Sketch 52.6 (67491) - http://www.bohemiancoding.com/sketch -->
    <title>variable-b</title>
    <desc>Created with Sketch.</desc>
    <g id="variable-b" stroke="none" stroke-width="1" fill="none" fill-rule="evenodd">
        <g id="icon-variable-b" transform="translate(15.000000, 6.000000)" fill="#000000" fill-rule="nonzero">
            <path d="M0.31097561,46.2564103 L10.4695122,9.74358974 C10.4695122,8.92307692 10.6768293,8.41025641 10.6768293,7.8974359 C10.6768293,7.38461538 10.9878049,7.07692308 10.9878049,6.56410256 C10.9878049,5.53846154 10.6768293,5.02564103 9.84756098,4.71794872 C9.32926829,4.51282051 8.08536585,4.51282051 6.42682927,4.51282051 L6.42682927,2.35897436 L14.097561,1.33333333 L21.8719512,0 L15.445122,23.5897436 C17.1036585,21.5384615 18.6585366,20 20.2134146,18.8717949 C21.8719512,17.8461538 23.7378049,17.3333333 25.8109756,17.3333333 C28.195122,17.3333333 30.0609756,18.1538462 31.6158537,19.6923077 C33.2743902,21.2307692 34,23.5897436 34,26.7692308 C34,32.5128205 31.9268293,37.8461538 27.3658537,43.2820513 C22.3902439,49.1282051 16.7926829,52 10.1585366,52 C7.77439024,52 5.3902439,51.4871795 3.52439024,50.4615385 C1.45121951,49.3333333 0.31097561,48.6153846 0.31097561,47.4871795 C-0.207317073,47.7948718 0.103658537,47.2820513 0.31097561,46.2564103 Z M23.7378049,23.5897436 C23.1158537,22.8717949 22.0792683,22.5641026 21.0426829,22.5641026 C19.1768293,22.5641026 17.3109756,23.8974359 15.445122,26.7692308 C14.4085366,28.3076923 13.5792683,30.1538462 12.8536585,32.5128205 C12.0243902,34.3589744 11.195122,37.3333333 10.1585366,40.9230769 C9.32926829,44.6153846 8.81097561,46.7692308 8.81097561,47.7948718 C8.81097561,48 9.12195122,48.6153846 9.32926829,49.1282051 C9.6402439,49.6410256 10.4695122,49.8461538 11.5060976,49.8461538 C15.445122,49.8461538 18.6585366,46.7692308 21.5609756,40.7179487 C23.7378049,35.6923077 24.7743902,31.4871795 24.7743902,27.7948718 C24.4634146,25.7435897 24.2560976,24.4102564 23.7378049,23.5897436 Z" id="Shape"></path>
        </g>
    </g>
</svg>