<?xml version="1.0" encoding="UTF-8"?>
<svg width="64px" height="64px" viewBox="0 0 64 64" version="1.1" xmlns="http://www.w3.org/2000/svg" xmlns:xlink="http://www.w3.org/1999/xlink">
    <!-- Generator: Sketch 52.6 (67491) - http://www.bohemiancoding.com/sketch -->
    <title>variable-z</title>
    <desc>Created with Sketch.</desc>
    <g id="variable-z" stroke="none" stroke-width="1" fill="none" fill-rule="evenodd">
        <g id="icon-variable-z" transform="translate(12.000000, 6.000000)" fill="#000000">
            <path d="M10,0 L40,0 L40,1.02766798 L13.1,33.9130435 C17.2,35.7628458 20.5,38.6403162 22.6,42.8537549 C24.6,47.0671937 26.4,49.1225296 27.9,49.1225296 C28.4,49.1225296 29,48.916996 29.2,48.6086957 C29.5,48.4031621 29.7,48.0948617 29.7,47.5810277 C29.7,47.2727273 29.5,46.5533597 28.7,45.4229249 C28.2,44.3952569 27.7,43.3675889 27.7,42.5454545 C27.7,41.0039526 28.2,39.9762846 29.2,39.1541502 C30.2,38.3320158 31.5,37.8181818 32.5,37.8181818 C33.8,37.8181818 34.8,38.3320158 35.9,39.1541502 C36.9,39.9762846 37.4,41.2094862 37.4,43.0592885 C37.4,45.4229249 36.4,47.5810277 34.3,49.43083 C32.3,50.972332 30,52 26.9,52 C23.3,52 19.5,50.7667984 15.4,47.7865613 C11.3,45.2173913 8.5,43.6758893 6.7,43.6758893 C5.7,43.6758893 4.4,44.1897233 3.4,45.2173913 C2.8,46.5533597 2.1,47.0671937 1.6,47.0671937 C1.3,47.0671937 0.8,47.0671937 0.5,46.7588933 C0.3,46.5533597 0,46.2450593 0,45.7312253 C0,45.4229249 0,45.2173913 0,45.2173913 C0,44.9090909 0.3,44.7035573 0.3,44.7035573 L29,9.45454545 L14.9,9.45454545 C13.1,9.45454545 11.6,10.173913 10.5,11.5098814 C9.8,12.3320158 9.2,13.6679842 8.5,15.5177866 L5.9,15.2094862 L10,0 Z" id="Path"></path>
        </g>
    </g>
</svg>