<?xml version="1.0" encoding="UTF-8"?>
<svg width="64px" height="64px" viewBox="0 0 64 64" version="1.1" xmlns="http://www.w3.org/2000/svg" xmlns:xlink="http://www.w3.org/1999/xlink">
    <!-- Generator: Sketch 52.6 (67491) - http://www.bohemiancoding.com/sketch -->
    <title>variable-y</title>
    <desc>Created with Sketch.</desc>
    <g id="variable-y" stroke="none" stroke-width="1" fill="none" fill-rule="evenodd">
        <g id="icon-variable-y" transform="translate(13.000000, 6.000000)" fill="#000000">
            <path d="M15.7659574,42.65625 C17.5851064,40.5234375 18.393617,38.4921875 18.393617,36.359375 C18.393617,34.53125 17.8882979,30.9765625 16.8776596,25.6953125 C16.2712766,22.34375 15.5638298,18.9921875 15.0585106,15.640625 C13.7446809,9.8515625 12.7340426,6.5 11.9255319,5.484375 C11.4202128,4.46875 10.106383,3.859375 8.28723404,3.859375 L8.28723404,1.828125 C10.6117021,1.5234375 13.2393617,1.3203125 15.7659574,0.8125 C18.393617,0.3046875 19.7074468,0 19.4042553,0.3046875 L19.9095745,0.3046875 C20.4148936,2.03125 21.5265957,5.6875 22.7393617,10.96875 C24.0531915,16.1484375 25.0638298,20.8203125 25.8723404,25.1875 L26.1755319,27.015625 L27.6914894,24.4765625 C29.0053191,22.34375 30.0159574,20.0078125 31.3297872,17.1640625 C32.643617,14.3203125 33.1489362,12.4921875 33.1489362,11.4765625 C33.1489362,10.96875 33.1489362,10.359375 32.8457447,10.15625 C32.643617,9.6484375 32.1382979,9.34375 31.5319149,8.8359375 L31.0265957,8.328125 C30.5212766,8.0234375 30.3191489,7.515625 29.8138298,7.0078125 C29.2074468,6.1953125 29.0053191,5.1796875 29.0053191,4.46875 C29.0053191,3.3515625 29.5106383,2.3359375 30.3191489,1.3203125 C30.5212766,0.5078125 31.8351064,0 33.1489362,0 C34.1595745,0 35.4734043,0.5078125 36.4840426,1.3203125 C37.4946809,2.03125 38,3.3515625 38,5.484375 C38,8.53125 36.4840426,13.3046875 33.6542553,19.5 C31.5319149,24.171875 29.0053191,28.84375 26.1755319,33.3125 C22.0319149,39.8125 18.393617,44.484375 15.2606383,47.53125 C11.6223404,50.4765625 8.28723404,52 4.95212766,52 C3.33510638,52 2.32446809,51.4921875 1.31382979,50.4765625 C0.303191489,49.359375 0,48.34375 0,47.0234375 C0,45.8046875 0.505319149,44.6875 1.31382979,43.9765625 C2.12234043,43.1640625 3.13297872,42.859375 4.44680851,42.859375 C5.45744681,42.859375 6.97340426,43.46875 8.28723404,44.1796875 C9.80319149,44.9921875 10.6117021,45.5 11.1170213,45.5 C12.4308511,45.8046875 13.9468085,44.6875 15.7659574,42.65625 Z" id="Path"></path>
        </g>
    </g>
</svg>