<?xml version="1.0" encoding="UTF-8"?>
<svg width="64px" height="64px" viewBox="0 0 64 64" version="1.1" xmlns="http://www.w3.org/2000/svg" xmlns:xlink="http://www.w3.org/1999/xlink">
    <!-- Generator: Sketch 52.6 (67491) - http://www.bohemiancoding.com/sketch -->
    <title>variable-c</title>
    <desc>Created with Sketch.</desc>
    <g id="variable-c" stroke="none" stroke-width="1" fill="none" fill-rule="evenodd">
        <g id="icon-variable-c" transform="translate(11.000000, 6.000000)" fill="#000000">
            <path d="M9.34449761,11.187251 C15.7751196,3.72908367 22.708134,0 29.9425837,0 C33.7607656,0 36.8755981,1.03585657 38.8851675,2.90039841 C40.9952153,5.07569721 42,7.14741036 42,9.84063745 C42,12.2231076 41.1961722,14.0876494 39.8899522,15.4342629 C38.6842105,16.6772908 37.076555,17.5059761 35.0669856,17.5059761 C33.7607656,17.5059761 32.2535885,16.9880478 30.9473684,15.9521912 C29.6411483,14.812749 28.8373206,13.5697211 28.8373206,11.7051793 C28.8373206,10.876494 28.8373206,10.3585657 29.138756,9.84063745 C29.3397129,9.32270916 29.6411483,8.80478088 30.1435407,7.97609562 L30.645933,7.14741036 C31.1483254,6.62948207 31.1483254,6.42231076 31.4497608,6.11155378 C31.4497608,5.80079681 31.7511962,5.5936255 31.7511962,5.28286853 C31.7511962,4.76494024 31.4497608,4.24701195 30.9473684,4.03984064 C30.4449761,3.72908367 29.6411483,3.41832669 28.8373206,3.41832669 C25.0191388,3.41832669 21.4019139,7.45816733 18.0861244,15.6414343 C14.9712919,22.7888446 13.4641148,29.2111554 13.4641148,34.4940239 C13.4641148,36.876494 13.9665072,38.9482072 14.7703349,40.812749 C15.9760766,43.5059761 18.2870813,44.8525896 21.4019139,44.8525896 C23.7129187,44.8525896 25.8229665,44.0239044 27.8325359,42.1593625 C29.9425837,40.2948207 31.9521531,37.9123506 34.062201,35.0119522 L36.8755981,37.187251 C33.4593301,41.9521912 30.645933,45.3705179 28.6363636,47.2350598 C24.7177033,50.4462151 20.3971292,52 15.4736842,52 C11.6555024,52 8.03827751,50.6533865 4.92344498,47.752988 C1.90909091,44.8525896 0.100478469,40.6055777 0.100478469,35.0119522 C-0.200956938,26.5179283 2.9138756,18.5418327 9.34449761,11.187251 Z" id="Path"></path>
        </g>
    </g>
</svg>