<?xml version="1.0" encoding="UTF-8"?>
<svg width="64px" height="64px" viewBox="0 0 64 64" version="1.1" xmlns="http://www.w3.org/2000/svg" xmlns:xlink="http://www.w3.org/1999/xlink">
    <!-- Generator: Sketch 52.6 (67491) - http://www.bohemiancoding.com/sketch -->
    <title>variable-x</title>
    <desc>Created with Sketch.</desc>
    <g id="variable-x" stroke="none" stroke-width="1" fill="none" fill-rule="evenodd">
        <g id="icon-variable-x" transform="translate(6.000000, 8.000000)" fill="#000000">
            <path d="M29.7290837,14.0636943 C33.4581673,8.86624204 36.6693227,5.50318471 39.0517928,3.36305732 C41.4342629,1.32484076 43.5059761,0.203821656 45.8884462,0.203821656 C48.5816733,0.203821656 50.4462151,1.01910828 51.4820717,2.85350318 C51.689243,3.87261146 52,4.99363057 52,6.21656051 C52,7.54140127 51.4820717,8.86624204 50.4462151,9.88535032 C49.3067729,11.2101911 47.752988,11.7197452 46.4063745,11.7197452 C45.3705179,11.7197452 44.3346614,11.5159236 43.2988048,10.7006369 C41.9521912,9.88535032 41.123506,9.68152866 40.2948207,9.68152866 C39.0517928,9.68152866 37.9123506,10.1910828 36.876494,11.5159236 C35.8406375,12.7388535 33.6653386,15.388535 31.0756972,19.2611465 L32.1115538,24.2547771 C32.6294821,26.9044586 32.940239,28.9426752 33.4581673,30.4713376 C33.6653386,32.1019108 34.1832669,33.6305732 34.4940239,34.955414 C35.0119522,36.7898089 35.5298805,38.3184713 36.0478088,39.133758 C36.6693227,39.9490446 37.3944223,40.4585987 38.4302789,40.4585987 C39.5697211,40.4585987 40.6055777,39.6433121 41.9521912,38.3184713 C42.6772908,37.6050955 43.8167331,36.2802548 45.3705179,34.4458599 L47.4422311,35.7707006 C45.6812749,38.6242038 43.5059761,41.477707 40.6055777,44.1273885 C37.7051793,46.6751592 35.0119522,48 32.4223108,48 C30.0398406,48 28.1752988,46.9808917 26.8286853,45.1464968 C26,44.1273885 25.1713147,42.8025478 24.6533865,40.9681529 C24.4462151,40.1528662 23.9282869,38.6242038 23.4103586,36.2802548 C22.7888446,33.9363057 22.2709163,32.611465 22.2709163,32.1019108 L21.5458167,33.4267516 C18.0239044,38.8280255 15.6414343,42.4968153 14.2948207,44.3312102 C11.9123506,46.9808917 9.32270916,48 6.42231076,48 C4.55776892,48 3.21115538,47.4904459 1.86454183,46.1656051 C0.517928287,45.1464968 0,43.5159236 0,41.7834395 C0,40.4585987 0.517928287,39.133758 1.34661355,37.8089172 C1.34661355,37.2993631 2.69322709,36.4840764 4.24701195,36.4840764 C5.28286853,36.4840764 6.62948207,36.7898089 8.28685259,37.6050955 C9.84063745,38.3184713 10.876494,38.6242038 11.187251,38.6242038 C12.2231076,38.6242038 13.0517928,38.1146497 13.7768924,37.2993631 C14.6055777,36.4840764 15.9521912,34.1401274 18.3346614,30.4713376 L20.4063745,27.4140127 C20.1992032,26.089172 19.6812749,24.2547771 19.3705179,22.2165605 C18.8525896,20.3821656 18.5418327,18.2420382 18.0239044,16.2038217 L17.2988048,12.0254777 C16.7808765,8.86624204 15.9521912,6.72611465 14.6055777,6.01273885 C13.7768924,5.50318471 12.7410359,5.19745223 11.187251,5.19745223 C10.876494,5.19745223 10.6693227,5.19745223 9.84063745,5.19745223 C9.32270916,5.19745223 8.4940239,5.19745223 7.97609562,5.50318471 L7.97609562,2.85350318 C10.876494,2.64968153 14.2948207,2.03821656 17.8167331,1.52866242 C21.5458167,0.815286624 23.9282869,0.203821656 25.1713147,0 C26.310757,1.32484076 27.0358566,2.85350318 27.5537849,4.68789809 C28.1752988,6.52229299 28.6932271,8.56050955 29.2111554,10.7006369 L29.7290837,14.0636943 Z" id="Path"></path>
        </g>
    </g>
</svg>