<?xml version="1.0" encoding="UTF-8"?>
<svg width="64px" height="64px" viewBox="0 0 64 64" version="1.1" xmlns="http://www.w3.org/2000/svg" xmlns:xlink="http://www.w3.org/1999/xlink">
    <!-- Generator: Sketch 52.6 (67491) - http://www.bohemiancoding.com/sketch -->
    <title>variable-a</title>
    <desc>Created with Sketch.</desc>
    <g id="variable-a" stroke="none" stroke-width="1" fill="none" fill-rule="evenodd">
        <g id="icon-variable-a" transform="translate(6.000000, 6.000000)" fill="#000000" fill-rule="nonzero">
            <path d="M9.31496063,12.8968254 C15.8661417,4.23015873 22.4173228,0 29.1732283,0 C31.8346457,0 33.8818898,0.722222222 35.2125984,2.37301587 C36.0314961,3.4047619 36.8503937,4.95238095 37.3622047,7.32539683 L39.2047244,1.54761905 L50.4645669,0.722222222 L43.6062992,26.4126984 C42.5826772,30.1269841 41.7637795,32.7063492 41.5590551,34.5634921 C40.4330709,38.2777778 40.2283465,40.8571429 40.2283465,42.5079365 C40.2283465,43.0238095 40.4330709,43.5396825 40.7401575,43.8492063 C41.0472441,44.0555556 41.2519685,44.0555556 41.7637795,44.0555556 C42.2755906,44.0555556 43.0944882,43.8492063 43.6062992,43.3333333 C44.1181102,42.7142857 44.9370079,42.1984127 45.7559055,41.1666667 C45.9606299,40.8571429 46.7795276,40.1349206 47.5984252,39.1031746 C48.3149606,37.968254 49.1338583,36.9365079 49.6456693,36.4206349 L52,37.968254 C49.1338583,42.1984127 46.2677165,45.7063492 43.6062992,48.2857143 C41.0472441,50.6587302 38.3858268,52 35.519685,52 C33.8818898,52 32.3464567,51.484127 30.8110236,50.1428571 C29.1732283,48.8015873 28.4566929,46.9444444 28.4566929,44.5714286 C28.4566929,43.5396825 28.9685039,41.4761905 29.7874016,37.7619048 C29.992126,37.452381 29.7874016,37.7619048 29.1732283,38.484127 C28.6614173,39.1031746 28.1496063,40.1349206 27.3307087,41.4761905 C25.5905512,44.3650794 23.2362205,46.7380952 20.5748031,48.8015873 C17.7086614,50.968254 14.8425197,52 11.6692913,52 C8.80314961,52 6.14173228,50.968254 3.78740157,48.8015873 C1.43307087,46.7380952 0.102362205,43.0238095 0.102362205,37.7619048 C-0.102362205,29.5079365 2.96850394,21.3571429 9.31496063,12.8968254 Z M34.496063,7.11904762 C33.8818898,5.26190476 32.6535433,4.43650794 30.8110236,4.43650794 C26.8188976,4.43650794 22.9291339,9.18253968 18.7322835,18.468254 C15.0472441,26.6190476 13.2047244,33.015873 13.2047244,37.452381 C13.2047244,39.3095238 13.7165354,40.6507937 14.5354331,41.9920635 C15.3543307,43.3333333 16.6850394,44.0555556 17.9133858,44.0555556 C21.5984252,44.0555556 25.5905512,39.3095238 30.2992126,29.5079365 C33.3700787,21.3571429 35.2125984,15.0634921 35.2125984,10.3174603 C35.007874,8.97619048 34.7007874,7.84126984 34.496063,7.11904762 Z" id="Shape"></path>
        </g>
    </g>
</svg>